<svg width="48" height="48" viewBox="0 0 48 48" fill="none" xmlns="http://www.w3.org/2000/svg">
<path d="M41.0029 0H6.99708C3.1327 0 0 3.1327 0 6.99708V41.0029C0 44.8673 3.1327 48 6.99708 48H41.0029C44.8673 48 48 44.8673 48 41.0029V6.99708C48 3.1327 44.8673 0 41.0029 0Z" fill="#525967"/>
<path d="M41.0029 2.09912C42.3019 2.09912 43.5477 2.61516 44.4663 3.53371C45.3848 4.45225 45.9009 5.69806 45.9009 6.99708V41.0029C45.9009 42.3019 45.3848 43.5477 44.4663 44.4663C43.5477 45.3848 42.3019 45.9009 41.0029 45.9009H6.99708C5.69806 45.9009 4.45225 45.3848 3.53371 44.4663C2.61516 43.5477 2.09912 42.3019 2.09912 41.0029V6.99708C2.09912 5.69806 2.61516 4.45225 3.53371 3.53371C4.45225 2.61516 5.69806 2.09912 6.99708 2.09912H41.0029ZM41.0029 0H6.99708C5.14134 0 3.36161 0.73719 2.0494 2.0494C0.73719 3.36161 0 5.14134 0 6.99708V41.0029C0 42.8587 0.73719 44.6384 2.0494 45.9506C3.36161 47.2628 5.14134 48 6.99708 48H41.0029C42.8587 48 44.6384 47.2628 45.9506 45.9506C47.2628 44.6384 48 42.8587 48 41.0029V6.99708C48 5.14134 47.2628 3.36161 45.9506 2.0494C44.6384 0.73719 42.8587 0 41.0029 0V0Z" fill="#454B57"/>
<path d="M18.0208 41.9473C18.8064 41.9473 19.5844 41.7926 20.3102 41.4919C21.036 41.1913 21.6955 40.7506 22.2511 40.1951C22.8066 39.6396 23.2473 38.9801 23.5479 38.2542C23.8486 37.5284 24.0033 36.7505 24.0033 35.9648V29.9823H18.0208C17.2352 29.9823 16.4572 30.1371 15.7314 30.4377C15.0056 30.7384 14.3461 31.179 13.7905 31.7346C13.235 32.2901 12.7943 32.9496 12.4937 33.6754C12.193 34.4012 12.0383 35.1792 12.0383 35.9648C12.0383 36.7505 12.193 37.5284 12.4937 38.2542C12.7943 38.9801 13.235 39.6396 13.7905 40.1951C14.3461 40.7506 15.0056 41.1913 15.7314 41.4919C16.4572 41.7926 17.2352 41.9473 18.0208 41.9473V41.9473Z" fill="#0ACF83"/>
<path d="M12.0383 24.0001C12.0383 22.4135 12.6686 20.8918 13.7905 19.7699C14.9125 18.6479 16.4341 18.0176 18.0208 18.0176H24.0033V29.9826H18.0208C16.4341 29.9826 14.9125 29.3523 13.7905 28.2304C12.6686 27.1085 12.0383 25.5868 12.0383 24.0001V24.0001Z" fill="#A259FF"/>
<path d="M12.0383 12.0349C12.0383 10.4483 12.6686 8.9266 13.7905 7.80466C14.9125 6.68273 16.4341 6.05243 18.0208 6.05243H24.0033V18.0174H18.0208C16.4341 18.0174 14.9125 17.3871 13.7905 16.2652C12.6686 15.1433 12.0383 13.6216 12.0383 12.0349V12.0349Z" fill="#F24E1E"/>
<path d="M23.9962 6.08748H29.9787C31.5654 6.08748 33.087 6.71778 34.209 7.83971C35.3309 8.96165 35.9612 10.4833 35.9612 12.07C35.9612 13.6566 35.3309 15.1783 34.209 16.3003C33.087 17.4222 31.5654 18.0525 29.9787 18.0525H23.9962V6.08748Z" fill="#FF7262"/>
<path d="M35.9612 24.0001C35.9612 25.1834 35.6103 26.34 34.953 27.3238C34.2956 28.3077 33.3613 29.0744 32.2681 29.5272C31.175 29.98 29.9721 30.0985 28.8116 29.8677C27.6511 29.6368 26.5851 29.0671 25.7484 28.2304C24.9118 27.3937 24.342 26.3278 24.1112 25.1673C23.8803 24.0068 23.9988 22.8039 24.4516 21.7107C24.9044 20.6176 25.6712 19.6832 26.655 19.0259C27.6388 18.3685 28.7955 18.0176 29.9787 18.0176C31.5654 18.0176 33.087 18.6479 34.209 19.7699C35.3309 20.8918 35.9612 22.4135 35.9612 24.0001Z" fill="#1ABCFE"/>
</svg>
