<svg width="50" height="48" viewBox="0 0 50 48" fill="none" xmlns="http://www.w3.org/2000/svg">
<g clip-path="url(#clip0)">
<path d="M8.71795 0H40.5128C45.3333 0 49.2308 3.89744 49.2308 8.71795V39.2821C49.2308 44.1026 45.3333 48 40.5128 48H8.71795C3.89744 48 0 44.1026 0 39.2821V8.71795C0 3.89744 3.89744 0 8.71795 0Z" fill="#330000"/>
<path d="M23.8569 28.8H16.2261L14.6671 33.6205C14.6261 33.8051 14.462 33.9282 14.2774 33.9077H10.421C10.1954 33.9077 10.1338 33.7846 10.1954 33.5384L16.8005 14.5231C16.862 14.3179 16.9236 14.0923 17.0056 13.8461C17.0877 13.4154 17.1287 12.9641 17.1287 12.5128C17.1082 12.4102 17.1902 12.3077 17.2928 12.2872C17.3133 12.2872 17.3338 12.2872 17.3543 12.2872H22.6056C22.7697 12.2872 22.8518 12.3487 22.8723 12.4513L30.3595 33.5795C30.421 33.8051 30.3595 33.9077 30.1543 33.9077H25.8671C25.7236 33.9282 25.58 33.8256 25.5389 33.682L23.8569 28.8ZM17.4159 24.6359H22.6261C22.503 24.2051 22.3389 23.6923 22.1543 23.1589C21.9697 22.6051 21.7851 22.0102 21.6005 21.3948C21.3954 20.7589 21.2107 20.1436 21.0056 19.5077C20.8005 18.8718 20.6159 18.2769 20.4518 17.682C20.2877 17.1077 20.1441 16.5743 20.0005 16.082H19.9595C19.7748 16.9641 19.5492 17.8461 19.262 18.7282C18.9543 19.7128 18.6466 20.7384 18.3184 21.7641C18.0312 22.8102 17.7236 23.7743 17.4159 24.6359Z" fill="#FF9A00"/>
<path d="M34.8324 15.7949C34.1555 15.8154 33.499 15.5487 33.0067 15.0769C32.5349 14.5641 32.2888 13.8872 32.3093 13.1897C32.2888 12.4923 32.5555 11.8359 33.0478 11.3641C33.5401 10.8923 34.1965 10.6461 34.8734 10.6461C35.6734 10.6461 36.2888 10.8923 36.7401 11.3641C37.1914 11.8564 37.4375 12.5128 37.417 13.1897C37.4375 13.8872 37.1914 14.5641 36.699 15.0769C36.2273 15.5692 35.5298 15.8359 34.8324 15.7949ZM32.5349 33.6V17.8051C32.5349 17.6 32.617 17.5179 32.8016 17.5179H36.8631C37.0478 17.5179 37.1298 17.6205 37.1298 17.8051V33.6C37.1298 33.8256 37.0478 33.9282 36.8631 33.9282H32.8426C32.6375 33.9282 32.5349 33.8051 32.5349 33.6Z" fill="#FF9A00"/>
</g>
<defs>
<clipPath id="clip0">
<rect width="49.2308" height="48" fill="white"/>
</clipPath>
</defs>
</svg>
