<svg width="50" height="48" viewBox="0 0 50 48" fill="none" xmlns="http://www.w3.org/2000/svg">
<g clip-path="url(#clip0)">
<path d="M7.71795 0H39.5128C44.3333 0 48.2308 3.89744 48.2308 8.71795V39.2821C48.2308 44.1026 44.3333 48 39.5128 48H7.71795C2.89744 48 -1 44.1026 -1 39.2821V8.71795C-1 3.89744 2.89744 0 7.71795 0Z" fill="#001E36"/>
<path d="M10.0781 33.6615V12.5538C10.0781 12.4102 10.1397 12.3282 10.2833 12.3282C10.632 12.3282 10.9602 12.3282 11.432 12.3076C11.9243 12.2871 12.4371 12.2871 12.9909 12.2666C13.5448 12.2461 14.1397 12.2461 14.7756 12.2256C15.4115 12.2051 16.0268 12.2051 16.6422 12.2051C18.3243 12.2051 19.7192 12.4102 20.8679 12.841C21.8935 13.1897 22.8371 13.7641 23.6166 14.523C24.273 15.1794 24.7858 15.9794 25.114 16.8615C25.4217 17.723 25.5858 18.6051 25.5858 19.5282C25.5858 21.2923 25.1756 22.7487 24.355 23.8974C23.5345 25.0461 22.3858 25.9076 21.0525 26.3999C19.6576 26.9128 18.1192 27.0974 16.4371 27.0974C15.9448 27.0974 15.6166 27.0974 15.4115 27.0769C15.2063 27.0564 14.9192 27.0564 14.5294 27.0564V33.641C14.5499 33.7846 14.4474 33.9076 14.3038 33.9282C14.2833 33.9282 14.2627 33.9282 14.2217 33.9282H10.3243C10.1602 33.9282 10.0781 33.8461 10.0781 33.6615ZM14.5499 16.2871V23.1794C14.8371 23.2 15.1038 23.2205 15.3499 23.2205H16.4371C17.2371 23.2205 18.0371 23.0974 18.7961 22.8512C19.4525 22.6666 20.0268 22.2769 20.4781 21.7641C20.9089 21.2512 21.114 20.5538 21.114 19.6512C21.1345 19.0153 20.9704 18.3794 20.6422 17.8256C20.2935 17.2923 19.8012 16.882 19.2063 16.6564C18.4474 16.3487 17.6268 16.2256 16.7858 16.2461C16.2525 16.2461 15.7807 16.2461 15.3909 16.2666C14.9807 16.2461 14.6935 16.2666 14.5499 16.2871Z" fill="#31A8FF"/>
<path d="M38.3844 21.9281C37.769 21.5999 37.1126 21.3743 36.4152 21.2307C35.6562 21.0666 34.8972 20.964 34.1177 20.964C33.7075 20.9435 33.2767 21.005 32.8869 21.1076C32.6203 21.1691 32.3946 21.3127 32.2511 21.5179C32.1485 21.682 32.0869 21.8871 32.0869 22.0717C32.0869 22.2563 32.169 22.4409 32.2921 22.605C32.4767 22.8307 32.7228 23.0153 32.9895 23.1589C33.4613 23.405 33.9536 23.6307 34.4459 23.8358C35.5536 24.205 36.6203 24.7179 37.6049 25.3332C38.2818 25.764 38.8357 26.3384 39.2254 27.0358C39.5536 27.6922 39.7177 28.4102 39.6972 29.1486C39.7177 30.1127 39.4305 31.0768 38.8972 31.8768C38.3228 32.6973 37.5228 33.3332 36.5998 33.7025C35.5946 34.1332 34.3639 34.3589 32.8869 34.3589C31.9434 34.3589 31.0203 34.2768 30.0972 34.0922C29.3793 33.9691 28.6613 33.7435 28.0049 33.4358C27.8613 33.3538 27.7587 33.2102 27.7793 33.0461V29.4768C27.7793 29.4153 27.7998 29.3332 27.8613 29.2922C27.9228 29.2512 27.9844 29.2717 28.0459 29.3127C28.8459 29.7845 29.6869 30.1127 30.5895 30.3179C31.369 30.523 32.1895 30.6256 33.01 30.6256C33.7895 30.6256 34.3434 30.523 34.7126 30.3384C35.0408 30.1948 35.2664 29.8461 35.2664 29.4768C35.2664 29.1897 35.1023 28.923 34.7741 28.6563C34.4459 28.3897 33.769 28.082 32.7639 27.6922C31.7177 27.323 30.7536 26.8307 29.851 26.2153C29.2152 25.764 28.6818 25.1691 28.2921 24.4717C27.9639 23.8153 27.7998 23.0973 27.8203 22.3794C27.8203 21.4973 28.0664 20.6563 28.5177 19.8973C29.0305 19.0768 29.7895 18.4204 30.6716 18.0102C31.6357 17.5179 32.8459 17.2922 34.3023 17.2922C35.1434 17.2922 36.0049 17.3538 36.8459 17.4768C37.4613 17.5589 38.0562 17.723 38.61 17.9486C38.6921 17.9691 38.7741 18.0512 38.8152 18.1332C38.8357 18.2153 38.8562 18.2973 38.8562 18.3794V21.723C38.8562 21.805 38.8152 21.8871 38.7536 21.9281C38.569 21.9691 38.4664 21.9691 38.3844 21.9281Z" fill="#31A8FF"/>
</g>
<defs>
<clipPath id="clip0">
<rect width="49.2308" height="48" fill="white"/>
</clipPath>
</defs>
</svg>
