<svg width="54" height="48" viewBox="0 0 54 48" fill="none" xmlns="http://www.w3.org/2000/svg">
<path d="M11.573 1.58036L26.5214 0L41.4699 1.58036L53.0429 17.1161L26.5214 48L0 17.1161L11.573 1.58036Z" fill="#FDB300"/>
<path d="M10.7425 17.1161L26.5214 48L0 17.1161H10.7425Z" fill="#EA6C00"/>
<path d="M42.3005 17.1161L26.5216 48L53.043 17.1161H42.3005Z" fill="#EA6C00"/>
<path d="M10.7423 17.1161H42.3002L26.5213 48L10.7423 17.1161Z" fill="#FDAD00"/>
<path d="M26.5213 0L11.5728 1.58034L10.7423 17.1161L26.5213 0Z" fill="#FDD231"/>
<path d="M26.5212 0L41.4697 1.58034L42.3002 17.1161L26.5212 0Z" fill="#FDD231"/>
<path d="M53.043 17.1161L41.47 1.58034L42.3005 17.1161H53.043Z" fill="#FDAD00"/>
<path d="M0 17.1161L11.5729 1.58034L10.7425 17.1161H0Z" fill="#FDAD00"/>
<path d="M26.5213 0L10.7423 17.1161H42.3002L26.5213 0Z" fill="#FEEEB7"/>
</svg>
