<svg width="48" height="48" viewBox="0 0 48 48" fill="none" xmlns="http://www.w3.org/2000/svg">
<path d="M47.9932 21.6405C48.0847 19.1397 47.245 16.9734 45.6248 15.0726C42.5673 11.4886 39.386 8.00548 36.517 4.28346C33.5995 0.503027 29.9176 -0.585451 25.3798 0.306561C21.1704 1.13486 16.9664 2.02157 12.7301 2.72244C8.76829 3.38083 6.29755 5.60023 5.0864 9.26916C3.53614 13.9628 2.03432 18.6725 0.53788 23.3821C-0.592523 26.9448 0.0588071 30.1783 2.49186 33.0402C5.59778 36.6985 8.81135 40.2666 11.7935 44.0151C14.5495 47.477 18.0161 48.5495 22.2578 47.7478C26.6502 46.9142 31.0372 46.0328 35.4458 45.2682C39.2838 44.6045 41.7168 42.4276 42.9011 38.8595C44.4836 34.0862 45.9854 29.281 47.5572 24.5024C47.8694 23.552 48.0202 22.6175 47.9932 21.6405Z" fill="#FDFDFD"/>
<path d="M47.9879 21.635C48.0202 22.612 47.8694 23.5518 47.5572 24.4916C45.98 29.2702 44.4836 34.0701 42.9011 38.8487C41.7168 42.4221 39.2838 44.5937 35.4458 45.2574C31.0372 46.022 26.6556 46.9034 22.2578 47.737C18.0161 48.5441 14.5495 47.4715 11.7935 44.0044C8.81135 40.2558 5.5924 36.6877 2.49186 33.0294C0.0588071 30.1622 -0.592523 26.9287 0.53788 23.3713C2.03432 18.6617 3.53614 13.9521 5.0864 9.25837C6.29755 5.58944 8.76829 3.37002 12.7301 2.71163C16.9664 2.01077 21.165 1.12938 25.3798 0.295773C29.9176 -0.601548 33.5995 0.492223 36.517 4.27265C39.386 7.99468 42.5727 11.4831 45.6248 15.0618C47.245 16.9732 48.0848 19.1395 47.9879 21.635ZM31.4678 34.8134C31.6347 34.6223 31.8016 34.4365 31.9738 34.2453C32.1192 34.0754 32.2645 33.9055 32.4098 33.7356C33.691 32.2277 34.9613 30.5445 33.9063 28.58C32.7436 26.4083 30.5474 27.1039 28.6311 27.4331C25.9181 27.9004 23.1998 28.3517 20.5137 28.9251C18.8827 29.2755 16.8964 29.541 16.5896 31.5533C16.2774 33.6029 17.6393 34.9462 19.421 35.8435C23.006 38.647 27.7321 38.4346 30.9026 35.3232C31.091 35.1479 31.2794 34.9834 31.4678 34.8134ZM36.6462 18.7679C36.5762 17.7059 35.8495 16.6759 34.2239 16.6493C32.4637 16.6228 31.5163 17.7962 31.5594 19.336C31.597 20.743 32.5552 21.9005 34.1754 21.789C35.6342 21.6881 36.7054 20.9076 36.6462 18.7679ZM15.19 22.6067C15.1362 21.7094 14.3342 20.7961 12.7085 20.828C11.0829 20.8651 10.2324 21.8209 10.3293 23.3872C10.4262 24.9641 11.4274 25.7128 13.0208 25.6703C14.5979 25.6332 15.2439 24.7571 15.19 22.6067Z" fill="#DC6461"/>
<path d="M19.421 35.8382C17.6339 34.9409 16.2774 33.5976 16.5896 31.5481C16.8964 29.5357 18.8827 29.2702 20.5137 28.9198C23.2051 28.3411 25.9181 27.8951 28.6311 27.4278C30.5474 27.0986 32.7436 26.4031 33.9063 28.5747C34.9559 30.5392 33.691 32.2224 32.4098 33.7303L32.3345 33.5604C32.6198 31.8507 31.8339 30.9746 30.1544 30.6242C26.8547 29.9339 23.8188 30.4914 21.0466 32.3339C20.0938 32.971 19.211 33.7728 19.4694 35.1267C19.4533 35.3657 19.4371 35.6046 19.421 35.8382Z" fill="#643534"/>
<path d="M36.6462 18.7679C36.7054 20.9129 35.6342 21.6881 34.1755 21.789C32.5606 21.9005 31.5971 20.743 31.5594 19.336C31.5163 17.7962 32.4637 16.6175 34.2239 16.6493C35.8495 16.6759 36.5762 17.7059 36.6462 18.7679Z" fill="#683736"/>
<path d="M15.1901 22.6067C15.2439 24.7624 14.5979 25.6332 13.0208 25.6756C11.422 25.7181 10.4262 24.9695 10.3293 23.3925C10.2324 21.8209 11.0829 20.8651 12.7086 20.8333C14.3342 20.7908 15.1416 21.7094 15.1901 22.6067Z" fill="#643534"/>
<path d="M19.421 35.8382C19.4371 35.6046 19.4479 35.3657 19.464 35.132C23.2159 37.7178 26.9624 36.9532 30.7088 35.1214C30.7734 35.1904 30.838 35.2541 30.9026 35.3232C27.7321 38.4293 23.0059 38.6417 19.421 35.8382Z" fill="#7F3F3E"/>
<path d="M32.4099 33.7356C32.2645 33.9055 32.1192 34.0754 31.9738 34.2453L31.7962 34.0754C31.9738 33.9055 32.1569 33.7356 32.3345 33.5657L32.4099 33.7356Z" fill="#7F3F3E"/>
<path d="M31.9738 34.2453C31.807 34.4365 31.6401 34.6223 31.4679 34.8135C31.3925 34.7338 31.3171 34.6595 31.2364 34.5851C31.4248 34.4152 31.6078 34.2453 31.7962 34.0754L31.9738 34.2453Z" fill="#7F3F3E"/>
<path d="M31.4678 34.8135C31.2794 34.9834 31.091 35.148 30.908 35.3179C30.8434 35.2541 30.7788 35.1851 30.7142 35.1161C30.8919 34.9356 31.0641 34.7604 31.2418 34.5798C31.3171 34.6595 31.3925 34.7338 31.4678 34.8135Z" fill="#7F3F3E"/>
<path d="M31.2364 34.5851C31.0588 34.7657 30.8865 34.9409 30.7089 35.1214C26.9624 36.9585 23.2105 37.7178 19.4587 35.132C19.2057 33.7728 20.0831 32.971 21.0359 32.3392C23.808 30.4967 26.8494 29.9392 30.1437 30.6295C31.8285 30.9799 32.609 31.856 32.3237 33.5657C32.1461 33.7356 31.9631 33.9055 31.7855 34.0754C31.6132 34.24 31.4248 34.4152 31.2364 34.5851Z" fill="#A94E4E"/>
</svg>
