<svg width="185" height="159" viewBox="0 0 185 159" fill="none" xmlns="http://www.w3.org/2000/svg">
<path d="M8.625 64.0156C7.55208 64.0156 6.70833 64.3958 6.09375 65.1562C5.47917 65.9167 5.17188 66.9661 5.17188 68.3047C5.17188 69.7057 5.46615 70.7656 6.05469 71.4844C6.64844 72.2031 7.50521 72.5625 8.625 72.5625C9.10938 72.5625 9.57812 72.5156 10.0312 72.4219C10.4844 72.3229 10.9557 72.1979 11.4453 72.0469V73.6484C10.5495 73.987 9.53385 74.1562 8.39844 74.1562C6.72656 74.1562 5.44271 73.651 4.54688 72.6406C3.65104 71.625 3.20312 70.1745 3.20312 68.2891C3.20312 67.1016 3.41927 66.0625 3.85156 65.1719C4.28906 64.2812 4.91927 63.599 5.74219 63.125C6.5651 62.651 7.53125 62.4141 8.64062 62.4141C9.80729 62.4141 10.8854 62.6589 11.875 63.1484L11.2031 64.7031C10.8177 64.5208 10.4089 64.362 9.97656 64.2266C9.54948 64.0859 9.09896 64.0156 8.625 64.0156ZM19.1172 74L18.75 72.7969H18.6875C18.2708 73.3229 17.8516 73.6823 17.4297 73.875C17.0078 74.0625 16.4661 74.1562 15.8047 74.1562C14.9557 74.1562 14.2917 73.9271 13.8125 73.4688C13.3385 73.0104 13.1016 72.362 13.1016 71.5234C13.1016 70.6328 13.4323 69.9609 14.0938 69.5078C14.7552 69.0547 15.763 68.8073 17.1172 68.7656L18.6094 68.7188V68.2578C18.6094 67.7057 18.4792 67.2943 18.2188 67.0234C17.9635 66.7474 17.5651 66.6094 17.0234 66.6094C16.5807 66.6094 16.1562 66.6745 15.75 66.8047C15.3438 66.9349 14.9531 67.0885 14.5781 67.2656L13.9844 65.9531C14.4531 65.7083 14.9661 65.5234 15.5234 65.3984C16.0807 65.2682 16.6068 65.2031 17.1016 65.2031C18.2005 65.2031 19.0286 65.4427 19.5859 65.9219C20.1484 66.401 20.4297 67.1536 20.4297 68.1797V74H19.1172ZM16.3828 72.75C17.0495 72.75 17.5833 72.5651 17.9844 72.1953C18.3906 71.8203 18.5938 71.2969 18.5938 70.625V69.875L17.4844 69.9219C16.6198 69.9531 15.9896 70.099 15.5938 70.3594C15.2031 70.6146 15.0078 71.0078 15.0078 71.5391C15.0078 71.9245 15.1224 72.224 15.3516 72.4375C15.5807 72.6458 15.9245 72.75 16.3828 72.75ZM26.2109 72.6719C26.6589 72.6719 27.1068 72.6016 27.5547 72.4609V73.8438C27.3516 73.9323 27.0885 74.0052 26.7656 74.0625C26.4479 74.125 26.1172 74.1562 25.7734 74.1562C24.0339 74.1562 23.1641 73.2396 23.1641 71.4062V66.75H21.9844V65.9375L23.25 65.2656L23.875 63.4375H25.0078V65.3594H27.4688V66.75H25.0078V71.375C25.0078 71.8177 25.1172 72.1458 25.3359 72.3594C25.5599 72.5677 25.8516 72.6719 26.2109 72.6719ZM33.0625 74.1562C31.7188 74.1562 30.6667 73.7656 29.9062 72.9844C29.151 72.1979 28.7734 71.1172 28.7734 69.7422C28.7734 68.3307 29.125 67.2214 29.8281 66.4141C30.5312 65.6068 31.4974 65.2031 32.7266 65.2031C33.8672 65.2031 34.7682 65.5495 35.4297 66.2422C36.0911 66.9349 36.4219 67.888 36.4219 69.1016V70.0938H30.6641C30.6901 70.9323 30.9167 71.5781 31.3438 72.0312C31.7708 72.4792 32.3724 72.7031 33.1484 72.7031C33.6589 72.7031 34.1328 72.6562 34.5703 72.5625C35.013 72.4635 35.487 72.3021 35.9922 72.0781V73.5703C35.5443 73.7839 35.0911 73.9349 34.6328 74.0234C34.1745 74.112 33.651 74.1562 33.0625 74.1562ZM32.7266 66.5938C32.1432 66.5938 31.6745 66.7786 31.3203 67.1484C30.9714 67.5182 30.763 68.0573 30.6953 68.7656H34.6172C34.6068 68.0521 34.4349 67.513 34.1016 67.1484C33.7682 66.7786 33.3099 66.5938 32.7266 66.5938ZM42.8906 65.2031C43.2604 65.2031 43.5651 65.2292 43.8047 65.2812L43.625 66.9922C43.3646 66.9297 43.0938 66.8984 42.8125 66.8984C42.0781 66.8984 41.4818 67.138 41.0234 67.6172C40.5703 68.0964 40.3438 68.7188 40.3438 69.4844V74H38.5078V65.3594H39.9453L40.1875 66.8828H40.2812C40.5677 66.3672 40.9401 65.9583 41.3984 65.6562C41.862 65.3542 42.3594 65.2031 42.8906 65.2031ZM47.25 74H45.4141V65.3594H47.25V74ZM45.3047 63.0703C45.3047 62.7422 45.3932 62.4896 45.5703 62.3125C45.7526 62.1354 46.0104 62.0469 46.3438 62.0469C46.6667 62.0469 46.9167 62.1354 47.0938 62.3125C47.276 62.4896 47.3672 62.7422 47.3672 63.0703C47.3672 63.3828 47.276 63.6302 47.0938 63.8125C46.9167 63.9896 46.6667 64.0781 46.3438 64.0781C46.0104 64.0781 45.7526 63.9896 45.5703 63.8125C45.3932 63.6302 45.3047 63.3828 45.3047 63.0703ZM57.4844 74H55.6406V68.6875C55.6406 68.0208 55.5052 67.5234 55.2344 67.1953C54.9688 66.8672 54.5443 66.7031 53.9609 66.7031C53.1849 66.7031 52.6172 66.9323 52.2578 67.3906C51.8984 67.849 51.7188 68.6172 51.7188 69.6953V74H49.8828V65.3594H51.3203L51.5781 66.4922H51.6719C51.9323 66.0807 52.3021 65.763 52.7812 65.5391C53.2604 65.3151 53.7917 65.2031 54.375 65.2031C56.4479 65.2031 57.4844 66.2578 57.4844 68.3672V74ZM67.3359 65.3594V66.3672L65.8594 66.6406C65.9948 66.8229 66.1068 67.0469 66.1953 67.3125C66.2839 67.5781 66.3281 67.8594 66.3281 68.1562C66.3281 69.0469 66.0208 69.7474 65.4062 70.2578C64.7917 70.7682 63.9453 71.0234 62.8672 71.0234C62.5911 71.0234 62.3411 71.0026 62.1172 70.9609C61.7214 71.2057 61.5234 71.4922 61.5234 71.8203C61.5234 72.0182 61.6146 72.1667 61.7969 72.2656C61.9844 72.3646 62.3255 72.4141 62.8203 72.4141H64.3281C65.2812 72.4141 66.0052 72.6172 66.5 73.0234C66.9948 73.4297 67.2422 74.0156 67.2422 74.7812C67.2422 75.7604 66.8385 76.5156 66.0312 77.0469C65.224 77.5781 64.0573 77.8438 62.5312 77.8438C61.3542 77.8438 60.4557 77.6354 59.8359 77.2188C59.2161 76.8021 58.9062 76.2083 58.9062 75.4375C58.9062 74.9062 59.0729 74.4583 59.4062 74.0938C59.7448 73.7344 60.2161 73.4844 60.8203 73.3438C60.5755 73.2396 60.3724 73.0729 60.2109 72.8438C60.0547 72.6094 59.9766 72.3646 59.9766 72.1094C59.9766 71.7865 60.0677 71.513 60.25 71.2891C60.4323 71.0651 60.7031 70.8438 61.0625 70.625C60.6146 70.4323 60.25 70.1198 59.9688 69.6875C59.6927 69.25 59.5547 68.7396 59.5547 68.1562C59.5547 67.2188 59.849 66.4922 60.4375 65.9766C61.0312 65.4609 61.875 65.2031 62.9688 65.2031C63.2135 65.2031 63.4688 65.2214 63.7344 65.2578C64.0052 65.2891 64.2083 65.3229 64.3438 65.3594H67.3359ZM60.5469 75.3438C60.5469 75.7396 60.724 76.0443 61.0781 76.2578C61.4375 76.4714 61.9401 76.5781 62.5859 76.5781C63.5859 76.5781 64.3307 76.4349 64.8203 76.1484C65.3099 75.862 65.5547 75.4818 65.5547 75.0078C65.5547 74.6328 65.4193 74.3646 65.1484 74.2031C64.8828 74.0469 64.3854 73.9688 63.6562 73.9688H62.2656C61.7396 73.9688 61.3203 74.0911 61.0078 74.3359C60.7005 74.5859 60.5469 74.9219 60.5469 75.3438ZM61.3359 68.1562C61.3359 68.6979 61.474 69.1146 61.75 69.4062C62.0312 69.6979 62.4323 69.8438 62.9531 69.8438C64.0156 69.8438 64.5469 69.276 64.5469 68.1406C64.5469 67.5781 64.4141 67.1458 64.1484 66.8438C63.888 66.5365 63.4896 66.3828 62.9531 66.3828C62.4219 66.3828 62.0182 66.5339 61.7422 66.8359C61.4714 67.138 61.3359 67.5781 61.3359 68.1562ZM76.3203 72.6719C76.7682 72.6719 77.2161 72.6016 77.6641 72.4609V73.8438C77.4609 73.9323 77.1979 74.0052 76.875 74.0625C76.5573 74.125 76.2266 74.1562 75.8828 74.1562C74.1432 74.1562 73.2734 73.2396 73.2734 71.4062V66.75H72.0938V65.9375L73.3594 65.2656L73.9844 63.4375H75.1172V65.3594H77.5781V66.75H75.1172V71.375C75.1172 71.8177 75.2266 72.1458 75.4453 72.3594C75.6693 72.5677 75.9609 72.6719 76.3203 72.6719ZM87 74H85.1562V68.6875C85.1562 68.0208 85.0208 67.5234 84.75 67.1953C84.4844 66.8672 84.0599 66.7031 83.4766 66.7031C82.7057 66.7031 82.138 66.9349 81.7734 67.3984C81.4141 67.8568 81.2344 68.6276 81.2344 69.7109V74H79.3984V61.8438H81.2344V64.9297C81.2344 65.4245 81.2031 65.9531 81.1406 66.5156H81.2578C81.5078 66.099 81.8542 65.776 82.2969 65.5469C82.7448 65.3177 83.2656 65.2031 83.8594 65.2031C85.9531 65.2031 87 66.2578 87 68.3672V74ZM93.3281 74.1562C91.9844 74.1562 90.9323 73.7656 90.1719 72.9844C89.4167 72.1979 89.0391 71.1172 89.0391 69.7422C89.0391 68.3307 89.3906 67.2214 90.0938 66.4141C90.7969 65.6068 91.763 65.2031 92.9922 65.2031C94.1328 65.2031 95.0339 65.5495 95.6953 66.2422C96.3568 66.9349 96.6875 67.888 96.6875 69.1016V70.0938H90.9297C90.9557 70.9323 91.1823 71.5781 91.6094 72.0312C92.0365 72.4792 92.638 72.7031 93.4141 72.7031C93.9245 72.7031 94.3984 72.6562 94.8359 72.5625C95.2786 72.4635 95.7526 72.3021 96.2578 72.0781V73.5703C95.8099 73.7839 95.3568 73.9349 94.8984 74.0234C94.4401 74.112 93.9167 74.1562 93.3281 74.1562ZM92.9922 66.5938C92.4089 66.5938 91.9401 66.7786 91.5859 67.1484C91.237 67.5182 91.0286 68.0573 90.9609 68.7656H94.8828C94.8724 68.0521 94.7005 67.513 94.3672 67.1484C94.0339 66.7786 93.5755 66.5938 92.9922 66.5938ZM109.586 74H103.125V62.5781H109.586V64.1562H104.992V67.2656H109.297V68.8281H104.992V72.4141H109.586V74ZM121.016 62.5781V69.9688C121.016 70.8125 120.833 71.5521 120.469 72.1875C120.109 72.8177 119.586 73.3047 118.898 73.6484C118.216 73.987 117.398 74.1562 116.445 74.1562C115.029 74.1562 113.927 73.7812 113.141 73.0312C112.354 72.2812 111.961 71.25 111.961 69.9375V62.5781H113.836V69.8047C113.836 70.7474 114.055 71.4427 114.492 71.8906C114.93 72.3385 115.602 72.5625 116.508 72.5625C118.268 72.5625 119.148 71.638 119.148 69.7891V62.5781H121.016ZM135.18 74H133.336V68.6719C133.336 68.0104 133.211 67.5182 132.961 67.1953C132.711 66.8672 132.32 66.7031 131.789 66.7031C131.081 66.7031 130.56 66.9349 130.227 67.3984C129.898 67.8568 129.734 68.6224 129.734 69.6953V74H127.898V65.3594H129.336L129.594 66.4922H129.688C129.927 66.0807 130.273 65.763 130.727 65.5391C131.185 65.3151 131.688 65.2031 132.234 65.2031C133.562 65.2031 134.443 65.6562 134.875 66.5625H135C135.255 66.1354 135.615 65.8021 136.078 65.5625C136.542 65.3229 137.073 65.2031 137.672 65.2031C138.703 65.2031 139.453 65.4635 139.922 65.9844C140.396 66.5052 140.633 67.2995 140.633 68.3672V74H138.797V68.6719C138.797 68.0104 138.669 67.5182 138.414 67.1953C138.164 66.8672 137.773 66.7031 137.242 66.7031C136.529 66.7031 136.005 66.9271 135.672 67.375C135.344 67.8177 135.18 68.5 135.18 69.4219V74ZM148.602 74L148.234 72.7969H148.172C147.755 73.3229 147.336 73.6823 146.914 73.875C146.492 74.0625 145.951 74.1562 145.289 74.1562C144.44 74.1562 143.776 73.9271 143.297 73.4688C142.823 73.0104 142.586 72.362 142.586 71.5234C142.586 70.6328 142.917 69.9609 143.578 69.5078C144.24 69.0547 145.247 68.8073 146.602 68.7656L148.094 68.7188V68.2578C148.094 67.7057 147.964 67.2943 147.703 67.0234C147.448 66.7474 147.049 66.6094 146.508 66.6094C146.065 66.6094 145.641 66.6745 145.234 66.8047C144.828 66.9349 144.438 67.0885 144.062 67.2656L143.469 65.9531C143.938 65.7083 144.451 65.5234 145.008 65.3984C145.565 65.2682 146.091 65.2031 146.586 65.2031C147.685 65.2031 148.513 65.4427 149.07 65.9219C149.633 66.401 149.914 67.1536 149.914 68.1797V74H148.602ZM145.867 72.75C146.534 72.75 147.068 72.5651 147.469 72.1953C147.875 71.8203 148.078 71.2969 148.078 70.625V69.875L146.969 69.9219C146.104 69.9531 145.474 70.099 145.078 70.3594C144.688 70.6146 144.492 71.0078 144.492 71.5391C144.492 71.9245 144.607 72.224 144.836 72.4375C145.065 72.6458 145.409 72.75 145.867 72.75ZM156.859 65.2031C157.229 65.2031 157.534 65.2292 157.773 65.2812L157.594 66.9922C157.333 66.9297 157.062 66.8984 156.781 66.8984C156.047 66.8984 155.451 67.138 154.992 67.6172C154.539 68.0964 154.312 68.7188 154.312 69.4844V74H152.477V65.3594H153.914L154.156 66.8828H154.25C154.536 66.3672 154.909 65.9583 155.367 65.6562C155.831 65.3542 156.328 65.2031 156.859 65.2031ZM161.156 69.4375L162.195 68.1406L164.805 65.3594H166.922L163.445 69.0703L167.141 74H164.984L162.211 70.2109L161.203 71.0391V74H159.383V61.8438H161.203V67.7734L161.109 69.4375H161.156ZM172.312 74.1562C170.969 74.1562 169.917 73.7656 169.156 72.9844C168.401 72.1979 168.023 71.1172 168.023 69.7422C168.023 68.3307 168.375 67.2214 169.078 66.4141C169.781 65.6068 170.747 65.2031 171.977 65.2031C173.117 65.2031 174.018 65.5495 174.68 66.2422C175.341 66.9349 175.672 67.888 175.672 69.1016V70.0938H169.914C169.94 70.9323 170.167 71.5781 170.594 72.0312C171.021 72.4792 171.622 72.7031 172.398 72.7031C172.909 72.7031 173.383 72.6562 173.82 72.5625C174.263 72.4635 174.737 72.3021 175.242 72.0781V73.5703C174.794 73.7839 174.341 73.9349 173.883 74.0234C173.424 74.112 172.901 74.1562 172.312 74.1562ZM171.977 66.5938C171.393 66.5938 170.924 66.7786 170.57 67.1484C170.221 67.5182 170.013 68.0573 169.945 68.7656H173.867C173.857 68.0521 173.685 67.513 173.352 67.1484C173.018 66.7786 172.56 66.5938 171.977 66.5938ZM180.977 72.6719C181.424 72.6719 181.872 72.6016 182.32 72.4609V73.8438C182.117 73.9323 181.854 74.0052 181.531 74.0625C181.214 74.125 180.883 74.1562 180.539 74.1562C178.799 74.1562 177.93 73.2396 177.93 71.4062V66.75H176.75V65.9375L178.016 65.2656L178.641 63.4375H179.773V65.3594H182.234V66.75H179.773V71.375C179.773 71.8177 179.883 72.1458 180.102 72.3594C180.326 72.5677 180.617 72.6719 180.977 72.6719ZM7.34375 94L6.97656 92.7969H6.91406C6.4974 93.3229 6.07812 93.6823 5.65625 93.875C5.23438 94.0625 4.69271 94.1562 4.03125 94.1562C3.18229 94.1562 2.51823 93.9271 2.03906 93.4688C1.5651 93.0104 1.32812 92.362 1.32812 91.5234C1.32812 90.6328 1.65885 89.9609 2.32031 89.5078C2.98177 89.0547 3.98958 88.8073 5.34375 88.7656L6.83594 88.7188V88.2578C6.83594 87.7057 6.70573 87.2943 6.44531 87.0234C6.1901 86.7474 5.79167 86.6094 5.25 86.6094C4.80729 86.6094 4.38281 86.6745 3.97656 86.8047C3.57031 86.9349 3.17969 87.0885 2.80469 87.2656L2.21094 85.9531C2.67969 85.7083 3.19271 85.5234 3.75 85.3984C4.30729 85.2682 4.83333 85.2031 5.32812 85.2031C6.42708 85.2031 7.25521 85.4427 7.8125 85.9219C8.375 86.401 8.65625 87.1536 8.65625 88.1797V94H7.34375ZM4.60938 92.75C5.27604 92.75 5.8099 92.5651 6.21094 92.1953C6.61719 91.8203 6.82031 91.2969 6.82031 90.625V89.875L5.71094 89.9219C4.84635 89.9531 4.21615 90.099 3.82031 90.3594C3.42969 90.6146 3.23438 91.0078 3.23438 91.5391C3.23438 91.9245 3.34896 92.224 3.57812 92.4375C3.80729 92.6458 4.15104 92.75 4.60938 92.75ZM18.8203 94H16.9766V88.6875C16.9766 88.0208 16.8411 87.5234 16.5703 87.1953C16.3047 86.8672 15.8802 86.7031 15.2969 86.7031C14.5208 86.7031 13.9531 86.9323 13.5938 87.3906C13.2344 87.849 13.0547 88.6172 13.0547 89.6953V94H11.2188V85.3594H12.6562L12.9141 86.4922H13.0078C13.2682 86.0807 13.638 85.763 14.1172 85.5391C14.5964 85.3151 15.1276 85.2031 15.7109 85.2031C17.7839 85.2031 18.8203 86.2578 18.8203 88.3672V94ZM24.2891 94.1562C23.2109 94.1562 22.3698 93.7656 21.7656 92.9844C21.1615 92.2031 20.8594 91.1068 20.8594 89.6953C20.8594 88.2786 21.1641 87.1771 21.7734 86.3906C22.388 85.599 23.237 85.2031 24.3203 85.2031C25.4557 85.2031 26.3203 85.6224 26.9141 86.4609H27.0078C26.9193 85.8411 26.875 85.3516 26.875 84.9922V81.8438H28.7188V94H27.2812L26.9609 92.8672H26.875C26.2865 93.7266 25.4245 94.1562 24.2891 94.1562ZM24.7812 92.6719C25.5365 92.6719 26.0859 92.4609 26.4297 92.0391C26.7734 91.612 26.9505 90.9219 26.9609 89.9688V89.7109C26.9609 88.6224 26.7839 87.849 26.4297 87.3906C26.0755 86.9323 25.5208 86.7031 24.7656 86.7031C24.1198 86.7031 23.6224 86.9661 23.2734 87.4922C22.9245 88.013 22.75 88.7578 22.75 89.7266C22.75 90.6849 22.9193 91.4167 23.2578 91.9219C23.5964 92.4219 24.1042 92.6719 24.7812 92.6719ZM38.4141 94.1562C37.3359 94.1562 36.4948 93.7656 35.8906 92.9844C35.2865 92.2031 34.9844 91.1068 34.9844 89.6953C34.9844 88.2786 35.2891 87.1771 35.8984 86.3906C36.513 85.599 37.362 85.2031 38.4453 85.2031C39.5807 85.2031 40.4453 85.6224 41.0391 86.4609H41.1328C41.0443 85.8411 41 85.3516 41 84.9922V81.8438H42.8438V94H41.4062L41.0859 92.8672H41C40.4115 93.7266 39.5495 94.1562 38.4141 94.1562ZM38.9062 92.6719C39.6615 92.6719 40.2109 92.4609 40.5547 92.0391C40.8984 91.612 41.0755 90.9219 41.0859 89.9688V89.7109C41.0859 88.6224 40.9089 87.849 40.5547 87.3906C40.2005 86.9323 39.6458 86.7031 38.8906 86.7031C38.2448 86.7031 37.7474 86.9661 37.3984 87.4922C37.0495 88.013 36.875 88.7578 36.875 89.7266C36.875 90.6849 37.0443 91.4167 37.3828 91.9219C37.7214 92.4219 38.2292 92.6719 38.9062 92.6719ZM47.3047 94H45.4688V85.3594H47.3047V94ZM45.3594 83.0703C45.3594 82.7422 45.4479 82.4896 45.625 82.3125C45.8073 82.1354 46.0651 82.0469 46.3984 82.0469C46.7214 82.0469 46.9714 82.1354 47.1484 82.3125C47.3307 82.4896 47.4219 82.7422 47.4219 83.0703C47.4219 83.3828 47.3307 83.6302 47.1484 83.8125C46.9714 83.9896 46.7214 84.0781 46.3984 84.0781C46.0651 84.0781 45.8073 83.9896 45.625 83.8125C45.4479 83.6302 45.3594 83.3828 45.3594 83.0703ZM54.2734 86.75H52.1641V94H50.3203V86.75H48.8984V85.8906L50.3203 85.3281V84.7656C50.3203 83.7448 50.5599 82.9896 51.0391 82.5C51.5182 82.0052 52.25 81.7578 53.2344 81.7578C53.8802 81.7578 54.5156 81.8646 55.1406 82.0781L54.6562 83.4688C54.2031 83.3229 53.7708 83.25 53.3594 83.25C52.9427 83.25 52.638 83.3802 52.4453 83.6406C52.2578 83.8958 52.1641 84.2812 52.1641 84.7969V85.3594H54.2734V86.75ZM60.0781 86.75H57.9688V94H56.125V86.75H54.7031V85.8906L56.125 85.3281V84.7656C56.125 83.7448 56.3646 82.9896 56.8438 82.5C57.3229 82.0052 58.0547 81.7578 59.0391 81.7578C59.6849 81.7578 60.3203 81.8646 60.9453 82.0781L60.4609 83.4688C60.0078 83.3229 59.5755 83.25 59.1641 83.25C58.7474 83.25 58.4427 83.3802 58.25 83.6406C58.0625 83.8958 57.9688 84.2812 57.9688 84.7969V85.3594H60.0781V86.75ZM65.3359 94.1562C63.9922 94.1562 62.9401 93.7656 62.1797 92.9844C61.4245 92.1979 61.0469 91.1172 61.0469 89.7422C61.0469 88.3307 61.3984 87.2214 62.1016 86.4141C62.8047 85.6068 63.7708 85.2031 65 85.2031C66.1406 85.2031 67.0417 85.5495 67.7031 86.2422C68.3646 86.9349 68.6953 87.888 68.6953 89.1016V90.0938H62.9375C62.9635 90.9323 63.1901 91.5781 63.6172 92.0312C64.0443 92.4792 64.6458 92.7031 65.4219 92.7031C65.9323 92.7031 66.4062 92.6562 66.8438 92.5625C67.2865 92.4635 67.7604 92.3021 68.2656 92.0781V93.5703C67.8177 93.7839 67.3646 93.9349 66.9062 94.0234C66.4479 94.112 65.9245 94.1562 65.3359 94.1562ZM65 86.5938C64.4167 86.5938 63.9479 86.7786 63.5938 87.1484C63.2448 87.5182 63.0365 88.0573 62.9688 88.7656H66.8906C66.8802 88.0521 66.7083 87.513 66.375 87.1484C66.0417 86.7786 65.5833 86.5938 65 86.5938ZM75.1641 85.2031C75.5339 85.2031 75.8385 85.2292 76.0781 85.2812L75.8984 86.9922C75.638 86.9297 75.3672 86.8984 75.0859 86.8984C74.3516 86.8984 73.7552 87.138 73.2969 87.6172C72.8438 88.0964 72.6172 88.7188 72.6172 89.4844V94H70.7812V85.3594H72.2188L72.4609 86.8828H72.5547C72.8411 86.3672 73.2135 85.9583 73.6719 85.6562C74.1354 85.3542 74.6328 85.2031 75.1641 85.2031ZM81.4609 94.1562C80.1172 94.1562 79.0651 93.7656 78.3047 92.9844C77.5495 92.1979 77.1719 91.1172 77.1719 89.7422C77.1719 88.3307 77.5234 87.2214 78.2266 86.4141C78.9297 85.6068 79.8958 85.2031 81.125 85.2031C82.2656 85.2031 83.1667 85.5495 83.8281 86.2422C84.4896 86.9349 84.8203 87.888 84.8203 89.1016V90.0938H79.0625C79.0885 90.9323 79.3151 91.5781 79.7422 92.0312C80.1693 92.4792 80.7708 92.7031 81.5469 92.7031C82.0573 92.7031 82.5312 92.6562 82.9688 92.5625C83.4115 92.4635 83.8854 92.3021 84.3906 92.0781V93.5703C83.9427 93.7839 83.4896 93.9349 83.0312 94.0234C82.5729 94.112 82.0495 94.1562 81.4609 94.1562ZM81.125 86.5938C80.5417 86.5938 80.0729 86.7786 79.7188 87.1484C79.3698 87.5182 79.1615 88.0573 79.0938 88.7656H83.0156C83.0052 88.0521 82.8333 87.513 82.5 87.1484C82.1667 86.7786 81.7083 86.5938 81.125 86.5938ZM94.5078 94H92.6641V88.6875C92.6641 88.0208 92.5286 87.5234 92.2578 87.1953C91.9922 86.8672 91.5677 86.7031 90.9844 86.7031C90.2083 86.7031 89.6406 86.9323 89.2812 87.3906C88.9219 87.849 88.7422 88.6172 88.7422 89.6953V94H86.9062V85.3594H88.3438L88.6016 86.4922H88.6953C88.9557 86.0807 89.3255 85.763 89.8047 85.5391C90.2839 85.3151 90.8151 85.2031 91.3984 85.2031C93.4714 85.2031 94.5078 86.2578 94.5078 88.3672V94ZM100.281 92.6719C100.729 92.6719 101.177 92.6016 101.625 92.4609V93.8438C101.422 93.9323 101.159 94.0052 100.836 94.0625C100.518 94.125 100.188 94.1562 99.8438 94.1562C98.1042 94.1562 97.2344 93.2396 97.2344 91.4062V86.75H96.0547V85.9375L97.3203 85.2656L97.9453 83.4375H99.0781V85.3594H101.539V86.75H99.0781V91.375C99.0781 91.8177 99.1875 92.1458 99.4062 92.3594C99.6302 92.5677 99.9219 92.6719 100.281 92.6719ZM109.352 94H107.516V81.8438H109.352V94ZM117.391 94L117.023 92.7969H116.961C116.544 93.3229 116.125 93.6823 115.703 93.875C115.281 94.0625 114.74 94.1562 114.078 94.1562C113.229 94.1562 112.565 93.9271 112.086 93.4688C111.612 93.0104 111.375 92.362 111.375 91.5234C111.375 90.6328 111.706 89.9609 112.367 89.5078C113.029 89.0547 114.036 88.8073 115.391 88.7656L116.883 88.7188V88.2578C116.883 87.7057 116.753 87.2943 116.492 87.0234C116.237 86.7474 115.839 86.6094 115.297 86.6094C114.854 86.6094 114.43 86.6745 114.023 86.8047C113.617 86.9349 113.227 87.0885 112.852 87.2656L112.258 85.9531C112.727 85.7083 113.24 85.5234 113.797 85.3984C114.354 85.2682 114.88 85.2031 115.375 85.2031C116.474 85.2031 117.302 85.4427 117.859 85.9219C118.422 86.401 118.703 87.1536 118.703 88.1797V94H117.391ZM114.656 92.75C115.323 92.75 115.857 92.5651 116.258 92.1953C116.664 91.8203 116.867 91.2969 116.867 90.625V89.875L115.758 89.9219C114.893 89.9531 114.263 90.099 113.867 90.3594C113.477 90.6146 113.281 91.0078 113.281 91.5391C113.281 91.9245 113.396 92.224 113.625 92.4375C113.854 92.6458 114.198 92.75 114.656 92.75ZM128.867 94H127.023V88.6875C127.023 88.0208 126.888 87.5234 126.617 87.1953C126.352 86.8672 125.927 86.7031 125.344 86.7031C124.568 86.7031 124 86.9323 123.641 87.3906C123.281 87.849 123.102 88.6172 123.102 89.6953V94H121.266V85.3594H122.703L122.961 86.4922H123.055C123.315 86.0807 123.685 85.763 124.164 85.5391C124.643 85.3151 125.174 85.2031 125.758 85.2031C127.831 85.2031 128.867 86.2578 128.867 88.3672V94ZM138.719 85.3594V86.3672L137.242 86.6406C137.378 86.8229 137.49 87.0469 137.578 87.3125C137.667 87.5781 137.711 87.8594 137.711 88.1562C137.711 89.0469 137.404 89.7474 136.789 90.2578C136.174 90.7682 135.328 91.0234 134.25 91.0234C133.974 91.0234 133.724 91.0026 133.5 90.9609C133.104 91.2057 132.906 91.4922 132.906 91.8203C132.906 92.0182 132.997 92.1667 133.18 92.2656C133.367 92.3646 133.708 92.4141 134.203 92.4141H135.711C136.664 92.4141 137.388 92.6172 137.883 93.0234C138.378 93.4297 138.625 94.0156 138.625 94.7812C138.625 95.7604 138.221 96.5156 137.414 97.0469C136.607 97.5781 135.44 97.8438 133.914 97.8438C132.737 97.8438 131.839 97.6354 131.219 97.2188C130.599 96.8021 130.289 96.2083 130.289 95.4375C130.289 94.9062 130.456 94.4583 130.789 94.0938C131.128 93.7344 131.599 93.4844 132.203 93.3438C131.958 93.2396 131.755 93.0729 131.594 92.8438C131.438 92.6094 131.359 92.3646 131.359 92.1094C131.359 91.7865 131.451 91.513 131.633 91.2891C131.815 91.0651 132.086 90.8438 132.445 90.625C131.997 90.4323 131.633 90.1198 131.352 89.6875C131.076 89.25 130.938 88.7396 130.938 88.1562C130.938 87.2188 131.232 86.4922 131.82 85.9766C132.414 85.4609 133.258 85.2031 134.352 85.2031C134.596 85.2031 134.852 85.2214 135.117 85.2578C135.388 85.2891 135.591 85.3229 135.727 85.3594H138.719ZM131.93 95.3438C131.93 95.7396 132.107 96.0443 132.461 96.2578C132.82 96.4714 133.323 96.5781 133.969 96.5781C134.969 96.5781 135.714 96.4349 136.203 96.1484C136.693 95.862 136.938 95.4818 136.938 95.0078C136.938 94.6328 136.802 94.3646 136.531 94.2031C136.266 94.0469 135.768 93.9688 135.039 93.9688H133.648C133.122 93.9688 132.703 94.0911 132.391 94.3359C132.083 94.5859 131.93 94.9219 131.93 95.3438ZM132.719 88.1562C132.719 88.6979 132.857 89.1146 133.133 89.4062C133.414 89.6979 133.815 89.8438 134.336 89.8438C135.398 89.8438 135.93 89.276 135.93 88.1406C135.93 87.5781 135.797 87.1458 135.531 86.8438C135.271 86.5365 134.872 86.3828 134.336 86.3828C133.805 86.3828 133.401 86.5339 133.125 86.8359C132.854 87.138 132.719 87.5781 132.719 88.1562ZM146.422 94L146.164 92.8672H146.07C145.815 93.2682 145.451 93.5833 144.977 93.8125C144.508 94.0417 143.971 94.1562 143.367 94.1562C142.32 94.1562 141.539 93.8958 141.023 93.375C140.508 92.8542 140.25 92.0651 140.25 91.0078V85.3594H142.102V90.6875C142.102 91.349 142.237 91.8464 142.508 92.1797C142.779 92.5078 143.203 92.6719 143.781 92.6719C144.552 92.6719 145.117 92.4427 145.477 91.9844C145.841 91.5208 146.023 90.7474 146.023 89.6641V85.3594H147.867V94H146.422ZM155.891 94L155.523 92.7969H155.461C155.044 93.3229 154.625 93.6823 154.203 93.875C153.781 94.0625 153.24 94.1562 152.578 94.1562C151.729 94.1562 151.065 93.9271 150.586 93.4688C150.112 93.0104 149.875 92.362 149.875 91.5234C149.875 90.6328 150.206 89.9609 150.867 89.5078C151.529 89.0547 152.536 88.8073 153.891 88.7656L155.383 88.7188V88.2578C155.383 87.7057 155.253 87.2943 154.992 87.0234C154.737 86.7474 154.339 86.6094 153.797 86.6094C153.354 86.6094 152.93 86.6745 152.523 86.8047C152.117 86.9349 151.727 87.0885 151.352 87.2656L150.758 85.9531C151.227 85.7083 151.74 85.5234 152.297 85.3984C152.854 85.2682 153.38 85.2031 153.875 85.2031C154.974 85.2031 155.802 85.4427 156.359 85.9219C156.922 86.401 157.203 87.1536 157.203 88.1797V94H155.891ZM153.156 92.75C153.823 92.75 154.357 92.5651 154.758 92.1953C155.164 91.8203 155.367 91.2969 155.367 90.625V89.875L154.258 89.9219C153.393 89.9531 152.763 90.099 152.367 90.3594C151.977 90.6146 151.781 91.0078 151.781 91.5391C151.781 91.9245 151.896 92.224 152.125 92.4375C152.354 92.6458 152.698 92.75 153.156 92.75ZM167.062 85.3594V86.3672L165.586 86.6406C165.721 86.8229 165.833 87.0469 165.922 87.3125C166.01 87.5781 166.055 87.8594 166.055 88.1562C166.055 89.0469 165.747 89.7474 165.133 90.2578C164.518 90.7682 163.672 91.0234 162.594 91.0234C162.318 91.0234 162.068 91.0026 161.844 90.9609C161.448 91.2057 161.25 91.4922 161.25 91.8203C161.25 92.0182 161.341 92.1667 161.523 92.2656C161.711 92.3646 162.052 92.4141 162.547 92.4141H164.055C165.008 92.4141 165.732 92.6172 166.227 93.0234C166.721 93.4297 166.969 94.0156 166.969 94.7812C166.969 95.7604 166.565 96.5156 165.758 97.0469C164.951 97.5781 163.784 97.8438 162.258 97.8438C161.081 97.8438 160.182 97.6354 159.562 97.2188C158.943 96.8021 158.633 96.2083 158.633 95.4375C158.633 94.9062 158.799 94.4583 159.133 94.0938C159.471 93.7344 159.943 93.4844 160.547 93.3438C160.302 93.2396 160.099 93.0729 159.938 92.8438C159.781 92.6094 159.703 92.3646 159.703 92.1094C159.703 91.7865 159.794 91.513 159.977 91.2891C160.159 91.0651 160.43 90.8438 160.789 90.625C160.341 90.4323 159.977 90.1198 159.695 89.6875C159.419 89.25 159.281 88.7396 159.281 88.1562C159.281 87.2188 159.576 86.4922 160.164 85.9766C160.758 85.4609 161.602 85.2031 162.695 85.2031C162.94 85.2031 163.195 85.2214 163.461 85.2578C163.732 85.2891 163.935 85.3229 164.07 85.3594H167.062ZM160.273 95.3438C160.273 95.7396 160.451 96.0443 160.805 96.2578C161.164 96.4714 161.667 96.5781 162.312 96.5781C163.312 96.5781 164.057 96.4349 164.547 96.1484C165.036 95.862 165.281 95.4818 165.281 95.0078C165.281 94.6328 165.146 94.3646 164.875 94.2031C164.609 94.0469 164.112 93.9688 163.383 93.9688H161.992C161.466 93.9688 161.047 94.0911 160.734 94.3359C160.427 94.5859 160.273 94.9219 160.273 95.3438ZM161.062 88.1562C161.062 88.6979 161.201 89.1146 161.477 89.4062C161.758 89.6979 162.159 89.8438 162.68 89.8438C163.742 89.8438 164.273 89.276 164.273 88.1406C164.273 87.5781 164.141 87.1458 163.875 86.8438C163.615 86.5365 163.216 86.3828 162.68 86.3828C162.148 86.3828 161.745 86.5339 161.469 86.8359C161.198 87.138 161.062 87.5781 161.062 88.1562ZM172.445 94.1562C171.102 94.1562 170.049 93.7656 169.289 92.9844C168.534 92.1979 168.156 91.1172 168.156 89.7422C168.156 88.3307 168.508 87.2214 169.211 86.4141C169.914 85.6068 170.88 85.2031 172.109 85.2031C173.25 85.2031 174.151 85.5495 174.812 86.2422C175.474 86.9349 175.805 87.888 175.805 89.1016V90.0938H170.047C170.073 90.9323 170.299 91.5781 170.727 92.0312C171.154 92.4792 171.755 92.7031 172.531 92.7031C173.042 92.7031 173.516 92.6562 173.953 92.5625C174.396 92.4635 174.87 92.3021 175.375 92.0781V93.5703C174.927 93.7839 174.474 93.9349 174.016 94.0234C173.557 94.112 173.034 94.1562 172.445 94.1562ZM172.109 86.5938C171.526 86.5938 171.057 86.7786 170.703 87.1484C170.354 87.5182 170.146 88.0573 170.078 88.7656H174C173.99 88.0521 173.818 87.513 173.484 87.1484C173.151 86.7786 172.693 86.5938 172.109 86.5938ZM183.695 91.5391C183.695 92.3828 183.388 93.0312 182.773 93.4844C182.159 93.9323 181.279 94.1562 180.133 94.1562C178.982 94.1562 178.057 93.9818 177.359 93.6328V92.0469C178.375 92.5156 179.32 92.75 180.195 92.75C181.326 92.75 181.891 92.4089 181.891 91.7266C181.891 91.5078 181.828 91.3255 181.703 91.1797C181.578 91.0339 181.372 90.8828 181.086 90.7266C180.799 90.5703 180.401 90.3932 179.891 90.1953C178.896 89.8099 178.221 89.4245 177.867 89.0391C177.518 88.6536 177.344 88.1536 177.344 87.5391C177.344 86.7995 177.641 86.2266 178.234 85.8203C178.833 85.4089 179.646 85.2031 180.672 85.2031C181.688 85.2031 182.648 85.4089 183.555 85.8203L182.961 87.2031C182.029 86.8177 181.245 86.625 180.609 86.625C179.641 86.625 179.156 86.901 179.156 87.4531C179.156 87.724 179.281 87.9531 179.531 88.1406C179.786 88.3281 180.339 88.5859 181.188 88.9141C181.901 89.1901 182.419 89.4427 182.742 89.6719C183.065 89.901 183.305 90.1667 183.461 90.4688C183.617 90.7656 183.695 91.1224 183.695 91.5391Z" fill="black"/>
<path d="M25.8428 128.157H24.0928V135H23.416V128.157H22.0352V127.761L23.416 127.508V126.934C23.416 126.022 23.5824 125.354 23.915 124.931C24.2523 124.502 24.8014 124.288 25.5625 124.288C25.9727 124.288 26.3828 124.35 26.793 124.473L26.6357 125.061C26.2712 124.947 25.9089 124.89 25.5488 124.89C25.0202 124.89 24.6442 125.047 24.4209 125.361C24.2021 125.671 24.0928 126.177 24.0928 126.879V127.569H25.8428V128.157ZM33.4238 131.274C33.4238 132.487 33.1299 133.435 32.542 134.118C31.9541 134.797 31.1429 135.137 30.1084 135.137C29.4567 135.137 28.8825 134.979 28.3857 134.665C27.889 134.351 27.5085 133.899 27.2441 133.312C26.9798 132.724 26.8477 132.045 26.8477 131.274C26.8477 130.062 27.1416 129.119 27.7295 128.444C28.3174 127.765 29.124 127.426 30.1494 127.426C31.1702 127.426 31.9701 127.77 32.5488 128.458C33.1322 129.142 33.4238 130.08 33.4238 131.274ZM27.5586 131.274C27.5586 132.295 27.7819 133.093 28.2285 133.667C28.6797 134.237 29.3154 134.521 30.1357 134.521C30.9561 134.521 31.5895 134.237 32.0361 133.667C32.4873 133.093 32.7129 132.295 32.7129 131.274C32.7129 130.249 32.485 129.454 32.0293 128.889C31.5781 128.324 30.9424 128.041 30.1221 128.041C29.3018 128.041 28.6683 128.324 28.2217 128.889C27.7796 129.449 27.5586 130.244 27.5586 131.274ZM38.4072 127.426C38.7217 127.426 39.0589 127.458 39.4189 127.521L39.2891 128.171C38.9792 128.093 38.6579 128.055 38.3252 128.055C37.6917 128.055 37.1722 128.324 36.7666 128.861C36.361 129.399 36.1582 130.078 36.1582 130.898V135H35.4814V127.569H36.0557L36.124 128.909H36.1719C36.4772 128.362 36.8031 127.979 37.1494 127.761C37.4958 127.537 37.915 127.426 38.4072 127.426ZM47.499 127.426C47.8135 127.426 48.1507 127.458 48.5107 127.521L48.3809 128.171C48.071 128.093 47.7497 128.055 47.417 128.055C46.7835 128.055 46.264 128.324 45.8584 128.861C45.4528 129.399 45.25 130.078 45.25 130.898V135H44.5732V127.569H45.1475L45.2158 128.909H45.2637C45.569 128.362 45.8949 127.979 46.2412 127.761C46.5876 127.537 47.0068 127.426 47.499 127.426ZM53.0293 135.137C51.9492 135.137 51.1061 134.804 50.5 134.139C49.8984 133.473 49.5977 132.541 49.5977 131.343C49.5977 130.158 49.8893 129.21 50.4727 128.499C51.056 127.784 51.8421 127.426 52.8311 127.426C53.7061 127.426 54.3965 127.731 54.9023 128.342C55.4082 128.952 55.6611 129.782 55.6611 130.83V131.377H50.3086C50.3177 132.398 50.5547 133.177 51.0195 133.715C51.4889 134.253 52.1589 134.521 53.0293 134.521C53.4531 134.521 53.8245 134.492 54.1436 134.433C54.4671 134.373 54.875 134.246 55.3672 134.05V134.665C54.9479 134.847 54.5605 134.97 54.2051 135.034C53.8496 135.103 53.4577 135.137 53.0293 135.137ZM52.8311 128.027C52.1156 128.027 51.5413 128.264 51.1084 128.738C50.6755 129.208 50.4225 129.887 50.3496 130.775H54.9434C54.9434 129.914 54.7565 129.242 54.3828 128.759C54.0091 128.271 53.4919 128.027 52.8311 128.027ZM62.2236 135L62.0527 133.824H61.998C61.6243 134.303 61.2393 134.642 60.8428 134.843C60.4508 135.039 59.986 135.137 59.4482 135.137C58.7191 135.137 58.1517 134.95 57.7461 134.576C57.3405 134.202 57.1377 133.685 57.1377 133.024C57.1377 132.3 57.4385 131.737 58.04 131.336C58.6462 130.935 59.5212 130.723 60.665 130.7L62.0801 130.659V130.167C62.0801 129.461 61.9365 128.927 61.6494 128.567C61.3623 128.207 60.8997 128.027 60.2617 128.027C59.5736 128.027 58.8604 128.219 58.1221 128.602L57.8691 128.014C58.6849 127.631 59.4915 127.439 60.2891 127.439C61.1048 127.439 61.7132 127.651 62.1143 128.075C62.5199 128.499 62.7227 129.16 62.7227 130.058V135H62.2236ZM59.4893 134.521C60.2822 134.521 60.9066 134.296 61.3623 133.845C61.8226 133.389 62.0527 132.758 62.0527 131.951V131.22L60.7539 131.274C59.7103 131.325 58.9652 131.489 58.5186 131.767C58.0765 132.04 57.8555 132.468 57.8555 133.052C57.8555 133.517 57.9967 133.879 58.2793 134.139C58.5664 134.394 58.9697 134.521 59.4893 134.521ZM68.1025 135.137C67.0407 135.137 66.209 134.802 65.6074 134.132C65.0059 133.462 64.7051 132.528 64.7051 131.329C64.7051 130.099 65.0173 129.142 65.6416 128.458C66.266 127.77 67.1204 127.426 68.2051 127.426C68.8477 127.426 69.4629 127.537 70.0508 127.761L69.8662 128.362C69.2236 128.148 68.6654 128.041 68.1914 128.041C67.2799 128.041 66.5895 128.324 66.1201 128.889C65.6507 129.449 65.416 130.258 65.416 131.315C65.416 132.318 65.6507 133.104 66.1201 133.674C66.5895 134.239 67.2458 134.521 68.0889 134.521C68.7633 134.521 69.39 134.401 69.9688 134.159V134.788C69.4948 135.021 68.8727 135.137 68.1025 135.137ZM76.9756 135V130.181C76.9756 129.433 76.8184 128.891 76.5039 128.554C76.1895 128.212 75.7018 128.041 75.041 128.041C74.1523 128.041 73.5007 128.267 73.0859 128.718C72.6758 129.164 72.4707 129.891 72.4707 130.898V135H71.7939V124.363H72.4707V127.747L72.4365 128.697H72.4844C72.7624 128.251 73.1133 127.927 73.5371 127.727C73.9609 127.526 74.4873 127.426 75.1162 127.426C76.8024 127.426 77.6455 128.33 77.6455 130.14V135H76.9756ZM80.7285 135H80.0518V127.569H80.7285V135ZM79.9561 125.505C79.9561 125.067 80.0996 124.849 80.3867 124.849C80.528 124.849 80.6374 124.906 80.7148 125.02C80.7969 125.133 80.8379 125.295 80.8379 125.505C80.8379 125.71 80.7969 125.872 80.7148 125.99C80.6374 126.109 80.528 126.168 80.3867 126.168C80.0996 126.168 79.9561 125.947 79.9561 125.505ZM88.4053 135V130.181C88.4053 129.433 88.248 128.891 87.9336 128.554C87.6191 128.212 87.1315 128.041 86.4707 128.041C85.582 128.041 84.9303 128.267 84.5156 128.718C84.1055 129.164 83.9004 129.891 83.9004 130.898V135H83.2236V127.569H83.7979L83.9277 128.588H83.9688C84.4518 127.813 85.3109 127.426 86.5459 127.426C88.2321 127.426 89.0752 128.33 89.0752 130.14V135H88.4053ZM97.2783 127.569V128.041L95.7402 128.137C96.1504 128.647 96.3555 129.208 96.3555 129.818C96.3555 130.534 96.1162 131.115 95.6377 131.562C95.1637 132.004 94.5257 132.225 93.7236 132.225C93.3864 132.225 93.1494 132.211 93.0127 132.184C92.7438 132.325 92.5387 132.491 92.3975 132.683C92.2562 132.874 92.1855 133.077 92.1855 133.291C92.1855 133.528 92.2744 133.701 92.4521 133.811C92.6344 133.92 92.9375 133.975 93.3613 133.975H94.6602C95.4668 133.975 96.0843 134.139 96.5127 134.467C96.9411 134.79 97.1553 135.271 97.1553 135.909C97.1553 136.693 96.8363 137.297 96.1982 137.721C95.5648 138.149 94.6602 138.363 93.4844 138.363C92.5501 138.363 91.8255 138.183 91.3105 137.823C90.8001 137.463 90.5449 136.962 90.5449 136.319C90.5449 135.809 90.7021 135.385 91.0166 135.048C91.3356 134.711 91.7663 134.48 92.3086 134.357C92.0853 134.262 91.9053 134.127 91.7686 133.954C91.6364 133.776 91.5703 133.574 91.5703 133.346C91.5703 132.849 91.887 132.411 92.5205 132.033C92.0876 131.855 91.7503 131.577 91.5088 131.199C91.2673 130.816 91.1465 130.379 91.1465 129.887C91.1465 129.144 91.3812 128.549 91.8506 128.103C92.3245 127.651 92.9626 127.426 93.7646 127.426C94.2523 127.426 94.6305 127.474 94.8994 127.569H97.2783ZM91.2627 136.258C91.2627 137.279 92.0215 137.789 93.5391 137.789C95.4896 137.789 96.4648 137.167 96.4648 135.923C96.4648 135.476 96.3122 135.153 96.0068 134.952C95.7015 134.752 95.207 134.651 94.5234 134.651H93.3066C91.944 134.651 91.2627 135.187 91.2627 136.258ZM91.8301 129.887C91.8301 130.461 92.0033 130.908 92.3496 131.227C92.7005 131.541 93.1676 131.698 93.751 131.698C94.3708 131.698 94.8447 131.541 95.1729 131.227C95.5055 130.912 95.6719 130.456 95.6719 129.859C95.6719 129.226 95.501 128.752 95.1592 128.438C94.8219 128.118 94.348 127.959 93.7373 127.959C93.1449 127.959 92.6777 128.13 92.3359 128.472C91.9987 128.809 91.8301 129.281 91.8301 129.887ZM106.958 135L106.787 133.824H106.732C106.359 134.303 105.974 134.642 105.577 134.843C105.185 135.039 104.72 135.137 104.183 135.137C103.453 135.137 102.886 134.95 102.48 134.576C102.075 134.202 101.872 133.685 101.872 133.024C101.872 132.3 102.173 131.737 102.774 131.336C103.381 130.935 104.256 130.723 105.399 130.7L106.814 130.659V130.167C106.814 129.461 106.671 128.927 106.384 128.567C106.097 128.207 105.634 128.027 104.996 128.027C104.308 128.027 103.595 128.219 102.856 128.602L102.604 128.014C103.419 127.631 104.226 127.439 105.023 127.439C105.839 127.439 106.448 127.651 106.849 128.075C107.254 128.499 107.457 129.16 107.457 130.058V135H106.958ZM104.224 134.521C105.017 134.521 105.641 134.296 106.097 133.845C106.557 133.389 106.787 132.758 106.787 131.951V131.22L105.488 131.274C104.445 131.325 103.7 131.489 103.253 131.767C102.811 132.04 102.59 132.468 102.59 133.052C102.59 133.517 102.731 133.879 103.014 134.139C103.301 134.394 103.704 134.521 104.224 134.521ZM116.645 127.426C117.684 127.426 118.465 127.754 118.989 128.41C119.518 129.062 119.782 130.017 119.782 131.274C119.782 132.509 119.504 133.462 118.948 134.132C118.397 134.802 117.62 135.137 116.617 135.137C116.089 135.137 115.612 135.027 115.188 134.809C114.765 134.59 114.43 134.28 114.184 133.879H114.122L113.931 135H113.507V124.363H114.184V127.036C114.184 127.437 114.174 127.806 114.156 128.144L114.136 128.725H114.184C114.466 128.278 114.806 127.95 115.202 127.74C115.603 127.531 116.084 127.426 116.645 127.426ZM116.631 128.041C115.756 128.041 115.129 128.292 114.751 128.793C114.373 129.294 114.184 130.121 114.184 131.274V131.391C114.184 132.512 114.38 133.316 114.771 133.804C115.168 134.291 115.783 134.535 116.617 134.535C117.428 134.535 118.039 134.253 118.449 133.688C118.859 133.118 119.064 132.309 119.064 131.261C119.064 129.114 118.253 128.041 116.631 128.041ZM124.772 127.426C125.087 127.426 125.424 127.458 125.784 127.521L125.654 128.171C125.344 128.093 125.023 128.055 124.69 128.055C124.057 128.055 123.537 128.324 123.132 128.861C122.726 129.399 122.523 130.078 122.523 130.898V135H121.847V127.569H122.421L122.489 128.909H122.537C122.842 128.362 123.168 127.979 123.515 127.761C123.861 127.537 124.28 127.426 124.772 127.426ZM133.447 131.274C133.447 132.487 133.153 133.435 132.565 134.118C131.978 134.797 131.166 135.137 130.132 135.137C129.48 135.137 128.906 134.979 128.409 134.665C127.912 134.351 127.532 133.899 127.268 133.312C127.003 132.724 126.871 132.045 126.871 131.274C126.871 130.062 127.165 129.119 127.753 128.444C128.341 127.765 129.147 127.426 130.173 127.426C131.194 127.426 131.993 127.77 132.572 128.458C133.156 129.142 133.447 130.08 133.447 131.274ZM127.582 131.274C127.582 132.295 127.805 133.093 128.252 133.667C128.703 134.237 129.339 134.521 130.159 134.521C130.979 134.521 131.613 134.237 132.06 133.667C132.511 133.093 132.736 132.295 132.736 131.274C132.736 130.249 132.508 129.454 132.053 128.889C131.602 128.324 130.966 128.041 130.146 128.041C129.325 128.041 128.692 128.324 128.245 128.889C127.803 129.449 127.582 130.244 127.582 131.274ZM140.017 135L139.846 133.824H139.791C139.417 134.303 139.032 134.642 138.636 134.843C138.244 135.039 137.779 135.137 137.241 135.137C136.512 135.137 135.945 134.95 135.539 134.576C135.133 134.202 134.931 133.685 134.931 133.024C134.931 132.3 135.231 131.737 135.833 131.336C136.439 130.935 137.314 130.723 138.458 130.7L139.873 130.659V130.167C139.873 129.461 139.729 128.927 139.442 128.567C139.155 128.207 138.693 128.027 138.055 128.027C137.367 128.027 136.653 128.219 135.915 128.602L135.662 128.014C136.478 127.631 137.285 127.439 138.082 127.439C138.898 127.439 139.506 127.651 139.907 128.075C140.313 128.499 140.516 129.16 140.516 130.058V135H140.017ZM137.282 134.521C138.075 134.521 138.7 134.296 139.155 133.845C139.616 133.389 139.846 132.758 139.846 131.951V131.22L138.547 131.274C137.503 131.325 136.758 131.489 136.312 131.767C135.869 132.04 135.648 132.468 135.648 133.052C135.648 133.517 135.79 133.879 136.072 134.139C136.359 134.394 136.763 134.521 137.282 134.521ZM145.649 127.426C146.187 127.426 146.652 127.524 147.044 127.72C147.436 127.916 147.787 128.251 148.097 128.725H148.138C148.11 128.15 148.097 127.588 148.097 127.036V124.363H148.767V135H148.322L148.151 133.865H148.097C147.532 134.713 146.72 135.137 145.663 135.137C144.638 135.137 143.854 134.818 143.312 134.18C142.769 133.542 142.498 132.612 142.498 131.391C142.498 130.105 142.767 129.123 143.305 128.444C143.842 127.765 144.624 127.426 145.649 127.426ZM145.649 128.041C144.838 128.041 144.228 128.326 143.817 128.896C143.412 129.465 143.209 130.292 143.209 131.377C143.209 133.482 144.027 134.535 145.663 134.535C146.502 134.535 147.117 134.291 147.509 133.804C147.901 133.316 148.097 132.512 148.097 131.391V131.274C148.097 130.126 147.903 129.301 147.516 128.8C147.133 128.294 146.511 128.041 145.649 128.041ZM154.27 135.137C153.189 135.137 152.346 134.804 151.74 134.139C151.139 133.473 150.838 132.541 150.838 131.343C150.838 130.158 151.13 129.21 151.713 128.499C152.296 127.784 153.082 127.426 154.071 127.426C154.946 127.426 155.637 127.731 156.143 128.342C156.648 128.952 156.901 129.782 156.901 130.83V131.377H151.549C151.558 132.398 151.795 133.177 152.26 133.715C152.729 134.253 153.399 134.521 154.27 134.521C154.693 134.521 155.065 134.492 155.384 134.433C155.707 134.373 156.115 134.246 156.607 134.05V134.665C156.188 134.847 155.801 134.97 155.445 135.034C155.09 135.103 154.698 135.137 154.27 135.137ZM154.071 128.027C153.356 128.027 152.782 128.264 152.349 128.738C151.916 129.208 151.663 129.887 151.59 130.775H156.184C156.184 129.914 155.997 129.242 155.623 128.759C155.249 128.271 154.732 128.027 154.071 128.027ZM161.878 127.426C162.192 127.426 162.53 127.458 162.89 127.521L162.76 128.171C162.45 128.093 162.129 128.055 161.796 128.055C161.162 128.055 160.643 128.324 160.237 128.861C159.832 129.399 159.629 130.078 159.629 130.898V135H158.952V127.569H159.526L159.595 128.909H159.643C159.948 128.362 160.274 127.979 160.62 127.761C160.966 127.537 161.386 127.426 161.878 127.426ZM69.5176 155L69.3467 153.824H69.292C68.9183 154.303 68.5332 154.642 68.1367 154.843C67.7448 155.039 67.2799 155.137 66.7422 155.137C66.013 155.137 65.4456 154.95 65.04 154.576C64.6344 154.202 64.4316 153.685 64.4316 153.024C64.4316 152.3 64.7324 151.737 65.334 151.336C65.9401 150.935 66.8151 150.723 67.959 150.7L69.374 150.659V150.167C69.374 149.461 69.2305 148.927 68.9434 148.567C68.6562 148.207 68.1937 148.027 67.5557 148.027C66.8675 148.027 66.1543 148.219 65.416 148.602L65.1631 148.014C65.9788 147.631 66.7855 147.439 67.583 147.439C68.3988 147.439 69.0072 147.651 69.4082 148.075C69.8138 148.499 70.0166 149.16 70.0166 150.058V155H69.5176ZM66.7832 154.521C67.5762 154.521 68.2005 154.296 68.6562 153.845C69.1165 153.389 69.3467 152.758 69.3467 151.951V151.22L68.0479 151.274C67.0042 151.325 66.2591 151.489 65.8125 151.767C65.3704 152.04 65.1494 152.468 65.1494 153.052C65.1494 153.517 65.2907 153.879 65.5732 154.139C65.8604 154.394 66.2637 154.521 66.7832 154.521ZM73.0176 147.569V152.382C73.0176 153.129 73.1748 153.674 73.4893 154.016C73.8037 154.353 74.2913 154.521 74.9521 154.521C75.8363 154.521 76.4857 154.298 76.9004 153.852C77.3197 153.405 77.5293 152.678 77.5293 151.671V147.569H78.1992V155H77.625L77.502 153.975H77.4609C76.9779 154.749 76.1188 155.137 74.8838 155.137C73.193 155.137 72.3477 154.232 72.3477 152.423V147.569H73.0176ZM83.4082 147.426C83.946 147.426 84.4108 147.524 84.8027 147.72C85.1947 147.916 85.5456 148.251 85.8555 148.725H85.8965C85.8691 148.15 85.8555 147.588 85.8555 147.036V144.363H86.5254V155H86.0811L85.9102 153.865H85.8555C85.2904 154.713 84.4792 155.137 83.4219 155.137C82.3965 155.137 81.6126 154.818 81.0703 154.18C80.528 153.542 80.2568 152.612 80.2568 151.391C80.2568 150.105 80.5257 149.123 81.0635 148.444C81.6012 147.765 82.3828 147.426 83.4082 147.426ZM83.4082 148.041C82.597 148.041 81.9863 148.326 81.5762 148.896C81.1706 149.465 80.9678 150.292 80.9678 151.377C80.9678 153.482 81.7858 154.535 83.4219 154.535C84.2604 154.535 84.8757 154.291 85.2676 153.804C85.6595 153.316 85.8555 152.512 85.8555 151.391V151.274C85.8555 150.126 85.6618 149.301 85.2744 148.8C84.8916 148.294 84.2695 148.041 83.4082 148.041ZM89.7041 155H89.0273V147.569H89.7041V155ZM88.9316 145.505C88.9316 145.067 89.0752 144.849 89.3623 144.849C89.5036 144.849 89.613 144.906 89.6904 145.02C89.7725 145.133 89.8135 145.295 89.8135 145.505C89.8135 145.71 89.7725 145.872 89.6904 145.99C89.613 146.109 89.5036 146.168 89.3623 146.168C89.0752 146.168 88.9316 145.947 88.9316 145.505ZM95.2002 155.137C94.1201 155.137 93.277 154.804 92.6709 154.139C92.0693 153.473 91.7686 152.541 91.7686 151.343C91.7686 150.158 92.0602 149.21 92.6436 148.499C93.2269 147.784 94.013 147.426 95.002 147.426C95.877 147.426 96.5674 147.731 97.0732 148.342C97.5791 148.952 97.832 149.782 97.832 150.83V151.377H92.4795C92.4886 152.398 92.7256 153.177 93.1904 153.715C93.6598 154.253 94.3298 154.521 95.2002 154.521C95.624 154.521 95.9954 154.492 96.3145 154.433C96.638 154.373 97.0459 154.246 97.5381 154.05V154.665C97.1188 154.847 96.7314 154.97 96.376 155.034C96.0205 155.103 95.6286 155.137 95.2002 155.137ZM95.002 148.027C94.2865 148.027 93.7122 148.264 93.2793 148.738C92.8464 149.208 92.5934 149.887 92.5205 150.775H97.1143C97.1143 149.914 96.9274 149.242 96.5537 148.759C96.18 148.271 95.6628 148.027 95.002 148.027ZM105.064 155V150.181C105.064 149.433 104.907 148.891 104.593 148.554C104.278 148.212 103.791 148.041 103.13 148.041C102.241 148.041 101.59 148.267 101.175 148.718C100.765 149.164 100.56 149.891 100.56 150.898V155H99.8828V147.569H100.457L100.587 148.588H100.628C101.111 147.813 101.97 147.426 103.205 147.426C104.891 147.426 105.734 148.33 105.734 150.14V155H105.064ZM111.107 155.137C110.046 155.137 109.214 154.802 108.612 154.132C108.011 153.462 107.71 152.528 107.71 151.329C107.71 150.099 108.022 149.142 108.646 148.458C109.271 147.77 110.125 147.426 111.21 147.426C111.853 147.426 112.468 147.537 113.056 147.761L112.871 148.362C112.229 148.148 111.67 148.041 111.196 148.041C110.285 148.041 109.594 148.324 109.125 148.889C108.656 149.449 108.421 150.258 108.421 151.315C108.421 152.318 108.656 153.104 109.125 153.674C109.594 154.239 110.251 154.521 111.094 154.521C111.768 154.521 112.395 154.401 112.974 154.159V154.788C112.5 155.021 111.878 155.137 111.107 155.137ZM117.8 155.137C116.72 155.137 115.877 154.804 115.271 154.139C114.669 153.473 114.368 152.541 114.368 151.343C114.368 150.158 114.66 149.21 115.243 148.499C115.826 147.784 116.613 147.426 117.602 147.426C118.477 147.426 119.167 147.731 119.673 148.342C120.179 148.952 120.432 149.782 120.432 150.83V151.377H115.079C115.088 152.398 115.325 153.177 115.79 153.715C116.259 154.253 116.929 154.521 117.8 154.521C118.224 154.521 118.595 154.492 118.914 154.433C119.238 154.373 119.646 154.246 120.138 154.05V154.665C119.718 154.847 119.331 154.97 118.976 155.034C118.62 155.103 118.228 155.137 117.8 155.137ZM117.602 148.027C116.886 148.027 116.312 148.264 115.879 148.738C115.446 149.208 115.193 149.887 115.12 150.775H119.714C119.714 149.914 119.527 149.242 119.153 148.759C118.78 148.271 118.262 148.027 117.602 148.027Z" fill="black"/>
<rect x="10" y="109" width="165" height="1" fill="#323232"/>
<g clip-path="url(#clip0)">
<path d="M123.141 33.1198C123.155 33.0912 123.168 33.0619 123.178 33.0319C126.021 26.4682 125.513 18.4213 121.82 12.2709C123.791 9.91358 121.23 6.53778 118.429 7.84395C117.937 7.34093 117.42 6.85884 116.884 6.403C117.936 3.54532 114.427 1.20105 112.242 3.33616C105.891 0.12928 97.9925 0.169893 91.6767 3.44468C89.43 1.06374 85.6568 3.6166 87.0171 6.60391C86.2381 7.28513 85.5007 8.02103 84.8208 8.79923C84.2337 9.47116 85.2972 10.3921 85.8802 9.72487C86.5128 9.00098 87.1981 8.3162 87.922 7.68159C89.3219 8.69127 91.3517 8.17691 92.1196 6.6357C94.654 7.36523 97.0743 8.41224 99.3295 9.75601C99.1407 10.4369 99.2178 11.1972 99.5418 11.8257C97.6856 13.4291 96.014 15.2429 94.5625 17.2307C93.2225 16.8258 91.7454 17.5035 91.1627 18.7725C88.2075 18.7884 85.2432 19.1062 82.3328 19.7214C82.0758 19.2425 81.6862 18.8457 81.2138 18.5799C81.7607 16.4475 82.6267 14.419 83.7933 12.5434C84.2582 11.7959 83.0848 11.0188 82.5987 11.8003C81.3584 13.7944 80.4371 15.9508 79.8545 18.2176C76.4845 18.2748 75.9188 22.9368 79.1269 23.8337C79.0797 30.4688 81.9484 36.9197 86.923 41.3141C85.8853 44.1173 89.2543 46.4295 91.4775 44.4523C97.9659 47.9025 106.166 47.903 112.655 44.4534C114.916 46.6898 118.538 44.1914 117.264 41.2678C119.828 38.9892 121.82 36.2024 123.141 33.1198ZM122.255 31.5465C120.307 29.6119 118.176 27.8569 115.901 26.3164C116.224 25.3043 115.944 24.1655 115.189 23.4184C117.102 20.2374 118.604 16.8265 119.661 13.2634C120.014 13.2646 120.352 13.1996 120.664 13.082C123.904 18.5532 124.496 25.6074 122.255 31.5465ZM89.8843 39.4986C89.2922 33.6999 90.3311 27.9148 92.9022 22.6869C94.4995 23.1853 96.226 22.1349 96.5362 20.4953C101.387 21.0932 106.058 22.5173 110.442 24.735C110.231 25.5546 110.406 26.4583 110.908 27.1401C105.967 33.4007 99.4436 38.1116 91.978 40.8116C91.5256 40.0953 90.7649 39.5942 89.8843 39.4986ZM111.759 25.4479C111.759 24.6507 112.403 24.0022 113.194 24.0022C115.098 24.0815 115.098 26.8145 113.194 26.8935C112.403 26.8935 111.759 26.245 111.759 25.4479ZM121.103 10.411C121.103 11.2081 120.459 11.8566 119.668 11.8566C117.764 11.7773 117.764 9.04431 119.668 8.96534C120.459 8.96534 121.103 9.61382 121.103 10.411ZM117.354 8.75721C116.382 10.1233 116.833 12.0981 118.299 12.9101C117.275 16.347 115.823 19.6371 113.976 22.7059C113.59 22.5949 113.161 22.5673 112.764 22.6281C110.833 18.5054 108.024 14.792 104.592 11.8259C104.917 11.197 104.994 10.438 104.805 9.7562C106.977 8.46204 109.304 7.44214 111.737 6.71712C112.546 8.2784 114.715 8.71922 116.062 7.55047C116.508 7.93446 116.94 8.33786 117.354 8.75721ZM100.632 10.5199C100.632 9.72272 101.276 9.07423 102.067 9.07423C103.971 9.15349 103.97 11.8864 102.067 11.9654C101.276 11.9654 100.632 11.3169 100.632 10.5199ZM114.238 3.9188C115.03 3.9188 115.674 4.56729 115.674 5.36443C115.595 7.28222 112.882 7.28175 112.803 5.36443C112.803 4.56729 113.447 3.9188 114.238 3.9188ZM89.5764 6.80997C88.7851 6.80997 88.1413 6.16149 88.1413 5.36434C88.2203 3.44646 90.933 3.44712 91.0117 5.36434C91.0117 6.16149 90.3678 6.80997 89.5764 6.80997ZM92.4158 5.25648C92.4085 5.0612 92.3817 4.87108 92.337 4.68762C98.2257 1.64244 105.582 1.58936 111.516 4.546C111.44 4.80102 111.398 5.07067 111.397 5.3499C108.838 6.10699 106.39 7.17642 104.106 8.5352C103.008 7.39927 101.127 7.3989 100.029 8.53511C97.6479 7.11902 95.0923 6.01826 92.4158 5.25648ZM100.473 12.8802C101.424 13.5294 102.71 13.5295 103.661 12.8803C106.937 15.7092 109.621 19.2503 111.47 23.1826C111.345 23.2789 111.228 23.3856 111.12 23.501C106.498 21.1567 101.566 19.6661 96.4423 19.0664C96.3039 18.6477 96.0717 18.2718 95.7702 17.964C97.1453 16.0961 98.7232 14.3901 100.473 12.8802ZM93.7446 18.5167C94.5359 18.5167 95.1797 19.1651 95.1797 19.9623C95.1008 21.8802 92.3881 21.8796 92.3094 19.9623C92.3095 19.1651 92.9533 18.5167 93.7446 18.5167ZM78.3937 21.0695C78.3937 20.2724 79.0375 19.6239 79.8288 19.6239C81.7326 19.7031 81.7321 22.4361 79.8288 22.5151C79.0376 22.5152 78.3937 21.8667 78.3937 21.0695ZM80.5338 23.8331C80.5338 23.8331 82.6705 23.3672 82.6705 21.0881C82.6705 21.0881 88.1532 20.2117 90.9118 20.1809C90.9635 20.8624 91.2546 21.4774 91.7009 21.9415C88.9596 27.4566 87.8538 33.5712 88.4903 39.6985C88.2162 39.8127 87.9639 39.9689 87.7409 40.1588C83.1515 36.0474 80.5338 29.1589 80.5338 23.8331ZM89.5764 43.7796C88.7851 43.7796 88.1413 43.1311 88.1413 42.334C88.1413 41.5368 88.7851 40.8884 89.5764 40.8884C90.3572 40.8884 91.0117 41.5646 91.0117 42.334C91.0117 43.1311 90.3678 43.7796 89.5764 43.7796ZM102.067 45.644C98.653 45.644 95.2768 44.8263 92.2593 43.2739C92.3818 42.9228 92.4358 42.5229 92.412 42.1504C100.135 39.3667 106.883 34.5019 111.996 28.0333C112.416 28.2302 112.882 28.3207 113.345 28.2964C113.657 29.4563 113.904 30.6397 114.079 31.823C114.213 32.7288 115.605 32.5264 115.471 31.6172C115.285 30.3608 115.022 29.1041 114.688 27.8734C114.856 27.7687 115.012 27.6467 115.155 27.5102C117.502 29.1038 119.691 30.9333 121.674 32.958C120.444 35.6762 118.654 38.1374 116.38 40.1711C116.156 40.0023 115.905 39.8665 115.636 39.7699C115.774 38.4621 115.834 37.1417 115.814 35.8357C115.8 34.9168 114.393 34.9383 114.407 35.8575C114.427 37.1128 114.369 38.3821 114.235 39.6392C112.576 39.9031 111.491 41.6234 111.948 43.2357C108.912 44.8128 105.509 45.644 102.067 45.644ZM114.681 43.9019C113.89 43.9019 113.246 43.2535 113.246 42.4563C113.325 40.5384 116.038 40.5391 116.117 42.4563C116.117 43.2535 115.473 43.9019 114.681 43.9019Z" fill="black"/>
</g>
<defs>
<clipPath id="clip0">
<rect width="48" height="48" fill="white" transform="translate(77)"/>
</clipPath>
</defs>
</svg>
