<svg width="649" height="614" viewBox="0 0 649 614" fill="none" xmlns="http://www.w3.org/2000/svg">
<path d="M16.048 33.36C13.504 33.36 11.2 32.808 9.136 31.704C7.096 30.576 5.488 29.028 4.312 27.06C3.16 25.092 2.584 22.872 2.584 20.4C2.584 17.928 3.172 15.708 4.348 13.74C5.524 11.772 7.132 10.236 9.172 9.132C11.236 8.004 13.54 7.44 16.084 7.44C18.148 7.44 20.032 7.8 21.736 8.52C23.44 9.24 24.88 10.284 26.056 11.652L23.032 14.496C21.208 12.528 18.964 11.544 16.3 11.544C14.572 11.544 13.024 11.928 11.656 12.696C10.288 13.44 9.22 14.484 8.452 15.828C7.684 17.172 7.3 18.696 7.3 20.4C7.3 22.104 7.684 23.628 8.452 24.972C9.22 26.316 10.288 27.372 11.656 28.14C13.024 28.884 14.572 29.256 16.3 29.256C18.964 29.256 21.208 28.26 23.032 26.268L26.056 29.148C24.88 30.516 23.428 31.56 21.7 32.28C19.996 33 18.112 33.36 16.048 33.36ZM41.7849 33.36C39.2169 33.36 36.9009 32.808 34.8369 31.704C32.7729 30.576 31.1529 29.028 29.9769 27.06C28.8009 25.068 28.2129 22.848 28.2129 20.4C28.2129 17.952 28.8009 15.744 29.9769 13.776C31.1529 11.784 32.7729 10.236 34.8369 9.132C36.9009 8.004 39.2169 7.44 41.7849 7.44C44.3529 7.44 46.6689 8.004 48.7329 9.132C50.7969 10.236 52.4169 11.772 53.5929 13.74C54.7689 15.708 55.3569 17.928 55.3569 20.4C55.3569 22.872 54.7689 25.092 53.5929 27.06C52.4169 29.028 50.7969 30.576 48.7329 31.704C46.6689 32.808 44.3529 33.36 41.7849 33.36ZM41.7849 29.256C43.4649 29.256 44.9769 28.884 46.3209 28.14C47.6649 27.372 48.7209 26.316 49.4889 24.972C50.2569 23.604 50.6409 22.08 50.6409 20.4C50.6409 18.72 50.2569 17.208 49.4889 15.864C48.7209 14.496 47.6649 13.44 46.3209 12.696C44.9769 11.928 43.4649 11.544 41.7849 11.544C40.1049 11.544 38.5929 11.928 37.2489 12.696C35.9049 13.44 34.8489 14.496 34.0809 15.864C33.3129 17.208 32.9289 18.72 32.9289 20.4C32.9289 22.08 33.3129 23.604 34.0809 24.972C34.8489 26.316 35.9049 27.372 37.2489 28.14C38.5929 28.884 40.1049 29.256 41.7849 29.256ZM60.3176 7.8H64.9976V29.04H78.1736V33H60.3176V7.8ZM93.1833 33.36C90.6153 33.36 88.2993 32.808 86.2353 31.704C84.1713 30.576 82.5513 29.028 81.3753 27.06C80.1993 25.068 79.6113 22.848 79.6113 20.4C79.6113 17.952 80.1993 15.744 81.3753 13.776C82.5513 11.784 84.1713 10.236 86.2353 9.132C88.2993 8.004 90.6153 7.44 93.1833 7.44C95.7513 7.44 98.0673 8.004 100.131 9.132C102.195 10.236 103.815 11.772 104.991 13.74C106.167 15.708 106.755 17.928 106.755 20.4C106.755 22.872 106.167 25.092 104.991 27.06C103.815 29.028 102.195 30.576 100.131 31.704C98.0673 32.808 95.7513 33.36 93.1833 33.36ZM93.1833 29.256C94.8633 29.256 96.3753 28.884 97.7193 28.14C99.0633 27.372 100.119 26.316 100.887 24.972C101.655 23.604 102.039 22.08 102.039 20.4C102.039 18.72 101.655 17.208 100.887 15.864C100.119 14.496 99.0633 13.44 97.7193 12.696C96.3753 11.928 94.8633 11.544 93.1833 11.544C91.5033 11.544 89.9913 11.928 88.6473 12.696C87.3033 13.44 86.2473 14.496 85.4793 15.864C84.7113 17.208 84.3273 18.72 84.3273 20.4C84.3273 22.08 84.7113 23.604 85.4793 24.972C86.2473 26.316 87.3033 27.372 88.6473 28.14C89.9913 28.884 91.5033 29.256 93.1833 29.256ZM122.552 33.36C119.072 33.36 116.36 32.388 114.416 30.444C112.472 28.476 111.5 25.668 111.5 22.02V7.8H116.18V21.84C116.18 26.784 118.316 29.256 122.588 29.256C126.836 29.256 128.96 26.784 128.96 21.84V7.8H133.568V22.02C133.568 25.668 132.596 28.476 130.652 30.444C128.732 32.388 126.032 33.36 122.552 33.36ZM156.61 33L151.462 25.62C151.246 25.644 150.922 25.656 150.49 25.656H144.802V33H140.122V7.8H150.49C152.674 7.8 154.57 8.16 156.178 8.88C157.81 9.6 159.058 10.632 159.922 11.976C160.786 13.32 161.218 14.916 161.218 16.764C161.218 18.66 160.75 20.292 159.814 21.66C158.902 23.028 157.582 24.048 155.854 24.72L161.65 33H156.61ZM156.502 16.764C156.502 15.156 155.974 13.92 154.918 13.056C153.862 12.192 152.314 11.76 150.274 11.76H144.802V21.804H150.274C152.314 21.804 153.862 21.372 154.918 20.508C155.974 19.62 156.502 18.372 156.502 16.764ZM186.772 7.8C188.956 7.8 190.852 8.16 192.46 8.88C194.092 9.6 195.34 10.632 196.204 11.976C197.068 13.32 197.5 14.916 197.5 16.764C197.5 18.588 197.068 20.184 196.204 21.552C195.34 22.896 194.092 23.928 192.46 24.648C190.852 25.368 188.956 25.728 186.772 25.728H181.084V33H176.404V7.8H186.772ZM186.556 21.768C188.596 21.768 190.144 21.336 191.2 20.472C192.256 19.608 192.784 18.372 192.784 16.764C192.784 15.156 192.256 13.92 191.2 13.056C190.144 12.192 188.596 11.76 186.556 11.76H181.084V21.768H186.556ZM217.251 27.168H204.651L202.167 33H197.343L208.683 7.8H213.291L224.667 33H219.771L217.251 27.168ZM215.703 23.496L210.951 12.48L206.235 23.496H215.703ZM227.872 7.8H232.552V29.04H245.728V33H227.872V7.8ZM268.323 29.076V33H249.423V7.8H267.819V11.724H254.103V18.276H266.271V22.128H254.103V29.076H268.323ZM278.652 11.76H270.3V7.8H291.684V11.76H283.332V33H278.652V11.76ZM300.66 11.76H292.308V7.8H313.692V11.76H305.34V33H300.66V11.76ZM336.104 29.076V33H317.204V7.8H335.6V11.724H321.884V18.276H334.052V22.128H321.884V29.076H336.104Z" fill="#323232"/>
<path d="M1 46H377V48H1V46Z" fill="#323232"/>
<path d="M11.0156 102.883C11.0156 104.328 10.5208 105.441 9.53125 106.223C8.54818 106.997 7.13867 107.385 5.30273 107.385H3.62305V113H1.96289V98.7227H5.66406C9.23177 98.7227 11.0156 100.109 11.0156 102.883ZM3.62305 105.959H5.11719C6.58854 105.959 7.65299 105.721 8.31055 105.246C8.9681 104.771 9.29688 104.009 9.29688 102.961C9.29688 102.017 8.98763 101.314 8.36914 100.852C7.75065 100.389 6.78711 100.158 5.47852 100.158H3.62305V105.959ZM18.6523 102.102C19.1276 102.102 19.554 102.141 19.9316 102.219L19.707 103.723C19.2643 103.625 18.8737 103.576 18.5352 103.576C17.6693 103.576 16.9271 103.928 16.3086 104.631C15.6966 105.334 15.3906 106.21 15.3906 107.258V113H13.7695V102.297H15.1074L15.293 104.279H15.3711C15.7682 103.583 16.2467 103.046 16.8066 102.668C17.3665 102.29 17.9818 102.102 18.6523 102.102ZM23.5547 113H21.9336V102.297H23.5547V113ZM21.7969 99.3965C21.7969 99.0254 21.888 98.7552 22.0703 98.5859C22.2526 98.4102 22.4805 98.3223 22.7539 98.3223C23.0143 98.3223 23.2389 98.4102 23.4277 98.5859C23.6165 98.7617 23.7109 99.0319 23.7109 99.3965C23.7109 99.7611 23.6165 100.035 23.4277 100.217C23.2389 100.393 23.0143 100.48 22.7539 100.48C22.4805 100.48 22.2526 100.393 22.0703 100.217C21.888 100.035 21.7969 99.7611 21.7969 99.3965ZM40.6348 113V106.037C40.6348 105.184 40.4525 104.546 40.0879 104.123C39.7233 103.693 39.1569 103.479 38.3887 103.479C37.3796 103.479 36.6341 103.768 36.1523 104.348C35.6706 104.927 35.4297 105.819 35.4297 107.023V113H33.8086V106.037C33.8086 105.184 33.6263 104.546 33.2617 104.123C32.8971 103.693 32.3275 103.479 31.5527 103.479C30.5371 103.479 29.7917 103.785 29.3164 104.396C28.8477 105.002 28.6133 105.998 28.6133 107.385V113H26.9922V102.297H28.3105L28.5742 103.762H28.6523C28.9583 103.241 29.388 102.834 29.9414 102.541C30.5013 102.248 31.1263 102.102 31.8164 102.102C33.4896 102.102 34.5833 102.707 35.0977 103.918H35.1758C35.4948 103.358 35.957 102.915 36.5625 102.59C37.168 102.264 37.8581 102.102 38.6328 102.102C39.8438 102.102 40.7487 102.414 41.3477 103.039C41.9531 103.658 42.2559 104.65 42.2559 106.018V113H40.6348ZM52.1875 113L51.8652 111.477H51.7871C51.2533 112.147 50.7194 112.603 50.1855 112.844C49.6582 113.078 48.9974 113.195 48.2031 113.195C47.1419 113.195 46.3086 112.922 45.7031 112.375C45.1042 111.828 44.8047 111.05 44.8047 110.041C44.8047 107.88 46.5332 106.747 49.9902 106.643L51.8066 106.584V105.92C51.8066 105.08 51.6243 104.462 51.2598 104.064C50.9017 103.661 50.3255 103.459 49.5312 103.459C48.6393 103.459 47.6302 103.732 46.5039 104.279L46.0059 103.039C46.5332 102.753 47.1094 102.528 47.7344 102.365C48.3659 102.202 48.9974 102.121 49.6289 102.121C50.9049 102.121 51.849 102.404 52.4609 102.971C53.0794 103.537 53.3887 104.445 53.3887 105.695V113H52.1875ZM48.5254 111.857C49.5345 111.857 50.3255 111.581 50.8984 111.027C51.4779 110.474 51.7676 109.699 51.7676 108.703V107.736L50.1465 107.805C48.8574 107.85 47.9264 108.052 47.3535 108.41C46.7871 108.762 46.5039 109.312 46.5039 110.061C46.5039 110.646 46.6797 111.092 47.0312 111.398C47.3893 111.704 47.8874 111.857 48.5254 111.857ZM61.6211 102.102C62.0964 102.102 62.5228 102.141 62.9004 102.219L62.6758 103.723C62.2331 103.625 61.8424 103.576 61.5039 103.576C60.638 103.576 59.8958 103.928 59.2773 104.631C58.6654 105.334 58.3594 106.21 58.3594 107.258V113H56.7383V102.297H58.0762L58.2617 104.279H58.3398C58.737 103.583 59.2155 103.046 59.7754 102.668C60.3353 102.29 60.9505 102.102 61.6211 102.102ZM63.2031 102.297H64.9414L67.2852 108.4C67.7995 109.794 68.1185 110.799 68.2422 111.418H68.3203C68.4049 111.086 68.5807 110.52 68.8477 109.719C69.1211 108.911 70.0065 106.438 71.5039 102.297H73.2422L68.6426 114.484C68.1868 115.689 67.653 116.542 67.041 117.043C66.4355 117.551 65.6901 117.805 64.8047 117.805C64.3099 117.805 63.8216 117.749 63.3398 117.639V116.34C63.6979 116.418 64.0983 116.457 64.541 116.457C65.6543 116.457 66.4486 115.832 66.9238 114.582L67.5195 113.059L63.2031 102.297Z" fill="black"/>
<path d="M10.0195 293.201C10.0195 294.458 9.5638 295.438 8.65234 296.141C7.74089 296.844 6.50391 297.195 4.94141 297.195C3.2487 297.195 1.94661 296.977 1.03516 296.541V294.939C1.62109 295.187 2.25911 295.382 2.94922 295.525C3.63932 295.669 4.32292 295.74 5 295.74C6.10677 295.74 6.9401 295.532 7.5 295.115C8.0599 294.692 8.33984 294.106 8.33984 293.357C8.33984 292.863 8.23893 292.459 8.03711 292.146C7.8418 291.827 7.50977 291.535 7.04102 291.268C6.57878 291.001 5.8724 290.698 4.92188 290.359C3.59375 289.884 2.64323 289.321 2.07031 288.67C1.50391 288.019 1.2207 287.169 1.2207 286.121C1.2207 285.021 1.63411 284.145 2.46094 283.494C3.28776 282.843 4.38151 282.518 5.74219 282.518C7.16146 282.518 8.4668 282.778 9.6582 283.299L9.14062 284.744C7.96224 284.249 6.81641 284.002 5.70312 284.002C4.82422 284.002 4.13737 284.191 3.64258 284.568C3.14779 284.946 2.90039 285.47 2.90039 286.141C2.90039 286.635 2.99154 287.042 3.17383 287.361C3.35612 287.674 3.66211 287.964 4.0918 288.23C4.52799 288.491 5.19206 288.781 6.08398 289.1C7.58138 289.633 8.61003 290.206 9.16992 290.818C9.73633 291.43 10.0195 292.225 10.0195 293.201ZM17.2168 297.195C15.6348 297.195 14.3848 296.714 13.4668 295.75C12.5553 294.786 12.0996 293.449 12.0996 291.736C12.0996 290.011 12.5228 288.641 13.3691 287.625C14.222 286.609 15.3646 286.102 16.7969 286.102C18.138 286.102 19.1992 286.544 19.9805 287.43C20.7617 288.309 21.1523 289.471 21.1523 290.916V291.941H13.7793C13.8118 293.198 14.1276 294.152 14.7266 294.803C15.332 295.454 16.1816 295.779 17.2754 295.779C18.4277 295.779 19.5671 295.538 20.6934 295.057V296.502C20.1204 296.749 19.5768 296.925 19.0625 297.029C18.5547 297.14 17.9395 297.195 17.2168 297.195ZM16.7773 287.459C15.918 287.459 15.2311 287.739 14.7168 288.299C14.209 288.859 13.9095 289.633 13.8184 290.623H19.4141C19.4141 289.601 19.1862 288.82 18.7305 288.279C18.2747 287.732 17.6237 287.459 16.7773 287.459ZM28.2031 297.195C26.6536 297.195 25.4525 296.72 24.5996 295.77C23.7533 294.812 23.3301 293.462 23.3301 291.717C23.3301 289.926 23.7598 288.543 24.6191 287.566C25.485 286.59 26.7155 286.102 28.3105 286.102C28.8249 286.102 29.3392 286.157 29.8535 286.268C30.3678 286.378 30.7715 286.508 31.0645 286.658L30.5664 288.035C30.2083 287.892 29.8177 287.775 29.3945 287.684C28.9714 287.586 28.597 287.537 28.2715 287.537C26.097 287.537 25.0098 288.924 25.0098 291.697C25.0098 293.012 25.2734 294.021 25.8008 294.725C26.3346 295.428 27.1224 295.779 28.1641 295.779C29.056 295.779 29.9707 295.587 30.9082 295.203V296.639C30.1921 297.01 29.2904 297.195 28.2031 297.195ZM42.6953 291.639C42.6953 293.383 42.2559 294.747 41.377 295.73C40.498 296.707 39.2839 297.195 37.7344 297.195C36.7773 297.195 35.9277 296.971 35.1855 296.521C34.4434 296.072 33.8704 295.428 33.4668 294.588C33.0632 293.748 32.8613 292.765 32.8613 291.639C32.8613 289.894 33.2975 288.536 34.1699 287.566C35.0423 286.59 36.2533 286.102 37.8027 286.102C39.3001 286.102 40.4883 286.6 41.3672 287.596C42.2526 288.592 42.6953 289.939 42.6953 291.639ZM34.541 291.639C34.541 293.006 34.8145 294.048 35.3613 294.764C35.9082 295.48 36.7122 295.838 37.7734 295.838C38.8346 295.838 39.6387 295.483 40.1855 294.773C40.7389 294.057 41.0156 293.012 41.0156 291.639C41.0156 290.278 40.7389 289.246 40.1855 288.543C39.6387 287.833 38.8281 287.479 37.7539 287.479C36.6927 287.479 35.8919 287.827 35.3516 288.523C34.8112 289.22 34.541 290.258 34.541 291.639ZM52.8711 297V290.076C52.8711 289.204 52.6725 288.553 52.2754 288.123C51.8783 287.693 51.2565 287.479 50.4102 287.479C49.2904 287.479 48.4701 287.781 47.9492 288.387C47.4284 288.992 47.168 289.992 47.168 291.385V297H45.5469V286.297H46.8652L47.1289 287.762H47.207C47.5391 287.234 48.0046 286.827 48.6035 286.541C49.2025 286.248 49.8698 286.102 50.6055 286.102C51.8945 286.102 52.8646 286.414 53.5156 287.039C54.1667 287.658 54.4922 288.65 54.4922 290.018V297H52.8711ZM65.1172 295.564H65.0293C64.2806 296.652 63.1608 297.195 61.6699 297.195C60.2702 297.195 59.1797 296.717 58.3984 295.76C57.6237 294.803 57.2363 293.442 57.2363 291.678C57.2363 289.913 57.627 288.543 58.4082 287.566C59.1895 286.59 60.2767 286.102 61.6699 286.102C63.1217 286.102 64.235 286.629 65.0098 287.684H65.1367L65.0684 286.912L65.0293 286.16V281.805H66.6504V297H65.332L65.1172 295.564ZM61.875 295.838C62.9818 295.838 63.7826 295.538 64.2773 294.939C64.7786 294.334 65.0293 293.361 65.0293 292.02V291.678C65.0293 290.161 64.7754 289.08 64.2676 288.436C63.7663 287.785 62.9622 287.459 61.8555 287.459C60.9049 287.459 60.1758 287.83 59.668 288.572C59.1667 289.308 58.916 290.35 58.916 291.697C58.916 293.064 59.1667 294.096 59.668 294.793C60.1693 295.49 60.9049 295.838 61.875 295.838ZM76.6797 297L76.3574 295.477H76.2793C75.7454 296.147 75.2116 296.603 74.6777 296.844C74.1504 297.078 73.4896 297.195 72.6953 297.195C71.6341 297.195 70.8008 296.922 70.1953 296.375C69.5964 295.828 69.2969 295.05 69.2969 294.041C69.2969 291.88 71.0254 290.747 74.4824 290.643L76.2988 290.584V289.92C76.2988 289.08 76.1165 288.462 75.752 288.064C75.3939 287.661 74.8177 287.459 74.0234 287.459C73.1315 287.459 72.1224 287.732 70.9961 288.279L70.498 287.039C71.0254 286.753 71.6016 286.528 72.2266 286.365C72.8581 286.202 73.4896 286.121 74.1211 286.121C75.3971 286.121 76.3411 286.404 76.9531 286.971C77.5716 287.537 77.8809 288.445 77.8809 289.695V297H76.6797ZM73.0176 295.857C74.0267 295.857 74.8177 295.581 75.3906 295.027C75.9701 294.474 76.2598 293.699 76.2598 292.703V291.736L74.6387 291.805C73.3496 291.85 72.4186 292.052 71.8457 292.41C71.2793 292.762 70.9961 293.312 70.9961 294.061C70.9961 294.646 71.1719 295.092 71.5234 295.398C71.8815 295.704 72.3796 295.857 73.0176 295.857ZM86.1133 286.102C86.5885 286.102 87.015 286.141 87.3926 286.219L87.168 287.723C86.7253 287.625 86.3346 287.576 85.9961 287.576C85.1302 287.576 84.388 287.928 83.7695 288.631C83.1576 289.334 82.8516 290.21 82.8516 291.258V297H81.2305V286.297H82.5684L82.7539 288.279H82.832C83.2292 287.583 83.7077 287.046 84.2676 286.668C84.8275 286.29 85.4427 286.102 86.1133 286.102ZM87.6953 286.297H89.4336L91.7773 292.4C92.2917 293.794 92.6107 294.799 92.7344 295.418H92.8125C92.8971 295.086 93.0729 294.52 93.3398 293.719C93.6133 292.911 94.4987 290.438 95.9961 286.297H97.7344L93.1348 298.484C92.679 299.689 92.1452 300.542 91.5332 301.043C90.9277 301.551 90.1823 301.805 89.2969 301.805C88.8021 301.805 88.3138 301.749 87.832 301.639V300.34C88.1901 300.418 88.5905 300.457 89.0332 300.457C90.1465 300.457 90.9408 299.832 91.416 298.582L92.0117 297.059L87.6953 286.297Z" fill="black"/>
<path d="M8.24219 473.52H13.0957V480.463C12.3405 480.704 11.5723 480.886 10.791 481.01C10.0098 481.133 9.10482 481.195 8.07617 481.195C5.91471 481.195 4.23177 480.554 3.02734 479.271C1.82292 477.982 1.2207 476.179 1.2207 473.861C1.2207 472.377 1.51693 471.078 2.10938 469.965C2.70833 468.845 3.56771 467.992 4.6875 467.406C5.80729 466.814 7.11914 466.518 8.62305 466.518C10.1465 466.518 11.5658 466.798 12.8809 467.357L12.2363 468.822C10.9473 468.275 9.70703 468.002 8.51562 468.002C6.77734 468.002 5.41992 468.52 4.44336 469.555C3.4668 470.59 2.97852 472.025 2.97852 473.861C2.97852 475.788 3.44727 477.25 4.38477 478.246C5.32878 479.242 6.71224 479.74 8.53516 479.74C9.52474 479.74 10.4915 479.626 11.4355 479.398V475.004H8.24219V473.52ZM21.1719 470.102C21.6471 470.102 22.0736 470.141 22.4512 470.219L22.2266 471.723C21.7839 471.625 21.3932 471.576 21.0547 471.576C20.1888 471.576 19.4466 471.928 18.8281 472.631C18.2161 473.334 17.9102 474.21 17.9102 475.258V481H16.2891V470.297H17.627L17.8125 472.279H17.8906C18.2878 471.583 18.7663 471.046 19.3262 470.668C19.8861 470.29 20.5013 470.102 21.1719 470.102ZM28.9746 481.195C27.3926 481.195 26.1426 480.714 25.2246 479.75C24.3132 478.786 23.8574 477.449 23.8574 475.736C23.8574 474.011 24.2806 472.641 25.127 471.625C25.9798 470.609 27.1224 470.102 28.5547 470.102C29.8958 470.102 30.957 470.544 31.7383 471.43C32.5195 472.309 32.9102 473.471 32.9102 474.916V475.941H25.5371C25.5697 477.198 25.8854 478.152 26.4844 478.803C27.0898 479.454 27.9395 479.779 29.0332 479.779C30.1855 479.779 31.3249 479.538 32.4512 479.057V480.502C31.8783 480.749 31.3346 480.925 30.8203 481.029C30.3125 481.14 29.6973 481.195 28.9746 481.195ZM28.5352 471.459C27.6758 471.459 26.9889 471.739 26.4746 472.299C25.9668 472.859 25.6673 473.633 25.5762 474.623H31.1719C31.1719 473.601 30.944 472.82 30.4883 472.279C30.0326 471.732 29.3815 471.459 28.5352 471.459ZM33.9844 470.297H35.7227L38.0664 476.4C38.5807 477.794 38.8997 478.799 39.0234 479.418H39.1016C39.1862 479.086 39.362 478.52 39.6289 477.719C39.9023 476.911 40.7878 474.438 42.2852 470.297H44.0234L39.4238 482.484C38.9681 483.689 38.4342 484.542 37.8223 485.043C37.2168 485.551 36.4714 485.805 35.5859 485.805C35.0911 485.805 34.6029 485.749 34.1211 485.639V484.34C34.4792 484.418 34.8796 484.457 35.3223 484.457C36.4355 484.457 37.2298 483.832 37.7051 482.582L38.3008 481.059L33.9844 470.297ZM52.666 478.08C52.666 479.076 52.2949 479.844 51.5527 480.385C50.8105 480.925 49.7689 481.195 48.4277 481.195C47.0085 481.195 45.9017 480.971 45.1074 480.521V479.018C45.6217 479.278 46.1719 479.483 46.7578 479.633C47.3503 479.783 47.9199 479.857 48.4668 479.857C49.3132 479.857 49.9642 479.724 50.4199 479.457C50.8757 479.184 51.1035 478.77 51.1035 478.217C51.1035 477.8 50.9212 477.445 50.5566 477.152C50.1986 476.853 49.4954 476.501 48.4473 476.098C47.4512 475.727 46.7415 475.404 46.3184 475.131C45.9017 474.851 45.5892 474.535 45.3809 474.184C45.179 473.832 45.0781 473.412 45.0781 472.924C45.0781 472.051 45.4329 471.365 46.1426 470.863C46.8522 470.355 47.8255 470.102 49.0625 470.102C50.2148 470.102 51.3411 470.336 52.4414 470.805L51.8652 472.123C50.791 471.68 49.8177 471.459 48.9453 471.459C48.1771 471.459 47.5977 471.579 47.207 471.82C46.8164 472.061 46.6211 472.393 46.6211 472.816C46.6211 473.103 46.6927 473.347 46.8359 473.549C46.9857 473.751 47.2233 473.943 47.5488 474.125C47.8743 474.307 48.4993 474.571 49.4238 474.916C50.6934 475.378 51.5495 475.844 51.9922 476.312C52.4414 476.781 52.666 477.37 52.666 478.08Z" fill="black"/>
<circle cx="52.5" cy="193.5" r="52.5" fill="#FE6A38"/>
<path d="M25.8828 195.797H23.8203L23.1953 199H22.0781L22.7031 195.797H20.8359V194.727H22.9062L23.4453 191.961H21.4297V190.875H23.6562L24.2969 187.625H25.4141L24.7734 190.875H26.8359L27.4766 187.625H28.6016L27.9609 190.875H29.5547V191.961H27.75L27.2109 194.727H28.9688V195.797H27.0078L26.3828 199H25.2578L25.8828 195.797ZM24.0234 194.727H26.0859L26.625 191.961H24.5625L24.0234 194.727ZM37.3594 193.977H32.5859V199H31.0859V187.625H38.1328V188.859H32.5859V192.75H37.3594V193.977ZM46.3594 193.742H41.4297V197.773H47.1562V199H39.9297V187.625H47.0781V188.859H41.4297V192.516H46.3594V193.742ZM54.3203 187.617V188.844H54.0547C52.9297 188.865 52.0339 189.198 51.3672 189.844C50.7005 190.49 50.3151 191.398 50.2109 192.57C50.8099 191.883 51.6276 191.539 52.6641 191.539C53.6536 191.539 54.4427 191.888 55.0312 192.586C55.625 193.284 55.9219 194.185 55.9219 195.289C55.9219 196.461 55.6016 197.398 54.9609 198.102C54.3255 198.805 53.4714 199.156 52.3984 199.156C51.3099 199.156 50.4271 198.74 49.75 197.906C49.0729 197.068 48.7344 195.99 48.7344 194.672V194.117C48.7344 192.023 49.1797 190.424 50.0703 189.32C50.9661 188.211 52.2969 187.643 54.0625 187.617H54.3203ZM52.4219 192.742C51.9271 192.742 51.4714 192.891 51.0547 193.188C50.638 193.484 50.349 193.857 50.1875 194.305V194.836C50.1875 195.773 50.3984 196.529 50.8203 197.102C51.2422 197.674 51.7682 197.961 52.3984 197.961C53.0495 197.961 53.5599 197.721 53.9297 197.242C54.3047 196.763 54.4922 196.135 54.4922 195.359C54.4922 194.578 54.3021 193.948 53.9219 193.469C53.5469 192.984 53.0469 192.742 52.4219 192.742ZM64.2891 196.031H59.5234L58.4531 199H56.9062L61.25 187.625H62.5625L66.9141 199H65.375L64.2891 196.031ZM59.9766 194.797H63.8438L61.9062 189.477L59.9766 194.797ZM70.1719 192.609H71.2578C71.9401 192.599 72.4766 192.419 72.8672 192.07C73.2578 191.721 73.4531 191.25 73.4531 190.656C73.4531 189.323 72.7891 188.656 71.4609 188.656C70.8359 188.656 70.3359 188.836 69.9609 189.195C69.5911 189.549 69.4062 190.021 69.4062 190.609H67.9609C67.9609 189.708 68.2891 188.961 68.9453 188.367C69.6068 187.768 70.4453 187.469 71.4609 187.469C72.5339 187.469 73.375 187.753 73.9844 188.32C74.5938 188.888 74.8984 189.677 74.8984 190.688C74.8984 191.182 74.737 191.661 74.4141 192.125C74.0964 192.589 73.6615 192.935 73.1094 193.164C73.7344 193.362 74.2161 193.69 74.5547 194.148C74.8984 194.607 75.0703 195.167 75.0703 195.828C75.0703 196.849 74.737 197.659 74.0703 198.258C73.4036 198.857 72.5365 199.156 71.4688 199.156C70.401 199.156 69.5312 198.867 68.8594 198.289C68.1927 197.711 67.8594 196.948 67.8594 196H69.3125C69.3125 196.599 69.5078 197.078 69.8984 197.438C70.2891 197.797 70.8125 197.977 71.4688 197.977C72.1667 197.977 72.7005 197.794 73.0703 197.43C73.4401 197.065 73.625 196.542 73.625 195.859C73.625 195.198 73.4219 194.69 73.0156 194.336C72.6094 193.982 72.0234 193.799 71.2578 193.789H70.1719V192.609ZM83.9531 190.594C83.9531 191.161 83.8021 191.667 83.5 192.109C83.2031 192.552 82.7995 192.898 82.2891 193.148C82.8828 193.404 83.3516 193.776 83.6953 194.266C84.0443 194.755 84.2188 195.31 84.2188 195.93C84.2188 196.914 83.8854 197.698 83.2188 198.281C82.5573 198.865 81.6849 199.156 80.6016 199.156C79.5078 199.156 78.6302 198.865 77.9688 198.281C77.3125 197.693 76.9844 196.909 76.9844 195.93C76.9844 195.315 77.151 194.76 77.4844 194.266C77.8229 193.771 78.2891 193.396 78.8828 193.141C78.3776 192.891 77.9792 192.544 77.6875 192.102C77.3958 191.659 77.25 191.156 77.25 190.594C77.25 189.635 77.5573 188.875 78.1719 188.312C78.7865 187.75 79.5964 187.469 80.6016 187.469C81.6016 187.469 82.4089 187.75 83.0234 188.312C83.6432 188.875 83.9531 189.635 83.9531 190.594ZM82.7734 195.898C82.7734 195.263 82.5703 194.745 82.1641 194.344C81.763 193.943 81.237 193.742 80.5859 193.742C79.9349 193.742 79.4115 193.94 79.0156 194.336C78.625 194.732 78.4297 195.253 78.4297 195.898C78.4297 196.544 78.6198 197.052 79 197.422C79.3854 197.792 79.9193 197.977 80.6016 197.977C81.2786 197.977 81.8099 197.792 82.1953 197.422C82.5807 197.047 82.7734 196.539 82.7734 195.898ZM80.6016 188.656C80.0339 188.656 79.5729 188.833 79.2188 189.188C78.8698 189.536 78.6953 190.013 78.6953 190.617C78.6953 191.195 78.8672 191.664 79.2109 192.023C79.5599 192.378 80.0234 192.555 80.6016 192.555C81.1797 192.555 81.6406 192.378 81.9844 192.023C82.3333 191.664 82.5078 191.195 82.5078 190.617C82.5078 190.039 82.3281 189.568 81.9688 189.203C81.6094 188.839 81.1536 188.656 80.6016 188.656Z" fill="white"/>
<circle cx="188.5" cy="193.5" r="52.5" fill="#00E2F0"/>
<path d="M162.609 195.797H160.547L159.922 199H158.805L159.43 195.797H157.562V194.727H159.633L160.172 191.961H158.156V190.875H160.383L161.023 187.625H162.141L161.5 190.875H163.562L164.203 187.625H165.328L164.688 190.875H166.281V191.961H164.477L163.938 194.727H165.695V195.797H163.734L163.109 199H161.984L162.609 195.797ZM160.75 194.727H162.812L163.352 191.961H161.289L160.75 194.727ZM174.57 194.148C174.57 195.841 174.281 197.099 173.703 197.922C173.125 198.745 172.221 199.156 170.992 199.156C169.779 199.156 168.88 198.755 168.297 197.953C167.714 197.146 167.411 195.943 167.391 194.344V192.414C167.391 190.742 167.68 189.5 168.258 188.688C168.836 187.875 169.742 187.469 170.977 187.469C172.201 187.469 173.102 187.862 173.68 188.648C174.258 189.43 174.555 190.638 174.57 192.273V194.148ZM173.125 192.172C173.125 190.948 172.953 190.057 172.609 189.5C172.266 188.938 171.721 188.656 170.977 188.656C170.237 188.656 169.698 188.935 169.359 189.492C169.021 190.049 168.846 190.906 168.836 192.062V194.375C168.836 195.604 169.013 196.513 169.367 197.102C169.727 197.685 170.268 197.977 170.992 197.977C171.706 197.977 172.234 197.701 172.578 197.148C172.927 196.596 173.109 195.727 173.125 194.539V192.172ZM183.555 194.148C183.555 195.841 183.266 197.099 182.688 197.922C182.109 198.745 181.206 199.156 179.977 199.156C178.763 199.156 177.865 198.755 177.281 197.953C176.698 197.146 176.396 195.943 176.375 194.344V192.414C176.375 190.742 176.664 189.5 177.242 188.688C177.82 187.875 178.727 187.469 179.961 187.469C181.185 187.469 182.086 187.862 182.664 188.648C183.242 189.43 183.539 190.638 183.555 192.273V194.148ZM182.109 192.172C182.109 190.948 181.938 190.057 181.594 189.5C181.25 188.938 180.706 188.656 179.961 188.656C179.221 188.656 178.682 188.935 178.344 189.492C178.005 190.049 177.831 190.906 177.82 192.062V194.375C177.82 195.604 177.997 196.513 178.352 197.102C178.711 197.685 179.253 197.977 179.977 197.977C180.69 197.977 181.219 197.701 181.562 197.148C181.911 196.596 182.094 195.727 182.109 194.539V192.172ZM192.211 193.742H187.281V197.773H193.008V199H185.781V187.625H192.93V188.859H187.281V192.516H192.211V193.742ZM201.953 199H194.5V197.961L198.438 193.586C199.021 192.924 199.422 192.388 199.641 191.977C199.865 191.56 199.977 191.13 199.977 190.688C199.977 190.094 199.797 189.607 199.438 189.227C199.078 188.846 198.599 188.656 198 188.656C197.281 188.656 196.721 188.862 196.32 189.273C195.924 189.68 195.727 190.247 195.727 190.977H194.281C194.281 189.93 194.617 189.083 195.289 188.438C195.966 187.792 196.87 187.469 198 187.469C199.057 187.469 199.893 187.747 200.508 188.305C201.122 188.857 201.43 189.594 201.43 190.516C201.43 191.635 200.716 192.969 199.289 194.516L196.242 197.82H201.953V199ZM210.133 193.977H205.359V199H203.859V187.625H210.906V188.859H205.359V192.75H210.133V193.977ZM219.461 194.148C219.461 195.841 219.172 197.099 218.594 197.922C218.016 198.745 217.112 199.156 215.883 199.156C214.669 199.156 213.771 198.755 213.188 197.953C212.604 197.146 212.302 195.943 212.281 194.344V192.414C212.281 190.742 212.57 189.5 213.148 188.688C213.727 187.875 214.633 187.469 215.867 187.469C217.091 187.469 217.992 187.862 218.57 188.648C219.148 189.43 219.445 190.638 219.461 192.273V194.148ZM218.016 192.172C218.016 190.948 217.844 190.057 217.5 189.5C217.156 188.938 216.612 188.656 215.867 188.656C215.128 188.656 214.589 188.935 214.25 189.492C213.911 190.049 213.737 190.906 213.727 192.062V194.375C213.727 195.604 213.904 196.513 214.258 197.102C214.617 197.685 215.159 197.977 215.883 197.977C216.596 197.977 217.125 197.701 217.469 197.148C217.818 196.596 218 195.727 218.016 194.539V192.172Z" fill="white"/>
<circle cx="52.5" cy="377.5" r="52.5" fill="#F1C518"/>
<path d="M25.9453 379.797H23.8828L23.2578 383H22.1406L22.7656 379.797H20.8984V378.727H22.9688L23.5078 375.961H21.4922V374.875H23.7188L24.3594 371.625H25.4766L24.8359 374.875H26.8984L27.5391 371.625H28.6641L28.0234 374.875H29.6172V375.961H27.8125L27.2734 378.727H29.0312V379.797H27.0703L26.4453 383H25.3203L25.9453 379.797ZM24.0859 378.727H26.1484L26.6875 375.961H24.625L24.0859 378.727ZM37.4219 377.977H32.6484V383H31.1484V371.625H38.1953V372.859H32.6484V376.75H37.4219V377.977ZM44.3672 383H42.9141V373.367L40 374.438V373.125L44.1406 371.57H44.3672V383ZM57.3438 379.391C57.2031 380.594 56.7578 381.523 56.0078 382.18C55.263 382.831 54.2708 383.156 53.0312 383.156C51.6875 383.156 50.6094 382.674 49.7969 381.711C48.9896 380.747 48.5859 379.458 48.5859 377.844V376.75C48.5859 375.693 48.7734 374.763 49.1484 373.961C49.5286 373.159 50.0651 372.544 50.7578 372.117C51.4505 371.685 52.2526 371.469 53.1641 371.469C54.3724 371.469 55.3411 371.807 56.0703 372.484C56.7995 373.156 57.224 374.089 57.3438 375.281H55.8359C55.7057 374.375 55.4219 373.719 54.9844 373.312C54.5521 372.906 53.9453 372.703 53.1641 372.703C52.2057 372.703 51.4531 373.057 50.9062 373.766C50.3646 374.474 50.0938 375.482 50.0938 376.789V377.891C50.0938 379.125 50.3516 380.107 50.8672 380.836C51.3828 381.565 52.1042 381.93 53.0312 381.93C53.8646 381.93 54.5026 381.742 54.9453 381.367C55.3932 380.987 55.6901 380.328 55.8359 379.391H57.3438ZM59.6875 377.297L60.2656 371.625H66.0938V372.961H61.4922L61.1484 376.062C61.7057 375.734 62.3385 375.57 63.0469 375.57C64.0833 375.57 64.9062 375.914 65.5156 376.602C66.125 377.284 66.4297 378.208 66.4297 379.375C66.4297 380.547 66.112 381.471 65.4766 382.148C64.8464 382.82 63.9635 383.156 62.8281 383.156C61.8229 383.156 61.0026 382.878 60.3672 382.32C59.7318 381.763 59.3698 380.992 59.2812 380.008H60.6484C60.737 380.659 60.9688 381.151 61.3438 381.484C61.7188 381.812 62.2135 381.977 62.8281 381.977C63.5 381.977 64.026 381.747 64.4062 381.289C64.7917 380.831 64.9844 380.198 64.9844 379.391C64.9844 378.63 64.776 378.021 64.3594 377.562C63.9479 377.099 63.3984 376.867 62.7109 376.867C62.0807 376.867 61.5859 377.005 61.2266 377.281L60.8438 377.594L59.6875 377.297ZM72.7578 383H71.3047V373.367L68.3906 374.438V373.125L72.5312 371.57H72.7578V383ZM83.8906 374.594C83.8906 375.161 83.7396 375.667 83.4375 376.109C83.1406 376.552 82.737 376.898 82.2266 377.148C82.8203 377.404 83.2891 377.776 83.6328 378.266C83.9818 378.755 84.1562 379.31 84.1562 379.93C84.1562 380.914 83.8229 381.698 83.1562 382.281C82.4948 382.865 81.6224 383.156 80.5391 383.156C79.4453 383.156 78.5677 382.865 77.9062 382.281C77.25 381.693 76.9219 380.909 76.9219 379.93C76.9219 379.315 77.0885 378.76 77.4219 378.266C77.7604 377.771 78.2266 377.396 78.8203 377.141C78.3151 376.891 77.9167 376.544 77.625 376.102C77.3333 375.659 77.1875 375.156 77.1875 374.594C77.1875 373.635 77.4948 372.875 78.1094 372.312C78.724 371.75 79.5339 371.469 80.5391 371.469C81.5391 371.469 82.3464 371.75 82.9609 372.312C83.5807 372.875 83.8906 373.635 83.8906 374.594ZM82.7109 379.898C82.7109 379.263 82.5078 378.745 82.1016 378.344C81.7005 377.943 81.1745 377.742 80.5234 377.742C79.8724 377.742 79.349 377.94 78.9531 378.336C78.5625 378.732 78.3672 379.253 78.3672 379.898C78.3672 380.544 78.5573 381.052 78.9375 381.422C79.3229 381.792 79.8568 381.977 80.5391 381.977C81.2161 381.977 81.7474 381.792 82.1328 381.422C82.5182 381.047 82.7109 380.539 82.7109 379.898ZM80.5391 372.656C79.9714 372.656 79.5104 372.833 79.1562 373.188C78.8073 373.536 78.6328 374.013 78.6328 374.617C78.6328 375.195 78.8047 375.664 79.1484 376.023C79.4974 376.378 79.9609 376.555 80.5391 376.555C81.1172 376.555 81.5781 376.378 81.9219 376.023C82.2708 375.664 82.4453 375.195 82.4453 374.617C82.4453 374.039 82.2656 373.568 81.9062 373.203C81.5469 372.839 81.0911 372.656 80.5391 372.656Z" fill="white"/>
<circle cx="52.5" cy="561.5" r="52.5" fill="#C4C4C4"/>
<path d="M24.4375 563.797H22.375L21.75 567H20.6328L21.2578 563.797H19.3906V562.727H21.4609L22 559.961H19.9844V558.875H22.2109L22.8516 555.625H23.9688L23.3281 558.875H25.3906L26.0312 555.625H27.1562L26.5156 558.875H28.1094V559.961H26.3047L25.7656 562.727H27.5234V563.797H25.5625L24.9375 567H23.8125L24.4375 563.797ZM22.5781 562.727H24.6406L25.1797 559.961H23.1172L22.5781 562.727ZM38.0078 563.391C37.8672 564.594 37.4219 565.523 36.6719 566.18C35.9271 566.831 34.9349 567.156 33.6953 567.156C32.3516 567.156 31.2734 566.674 30.4609 565.711C29.6536 564.747 29.25 563.458 29.25 561.844V560.75C29.25 559.693 29.4375 558.763 29.8125 557.961C30.1927 557.159 30.7292 556.544 31.4219 556.117C32.1146 555.685 32.9167 555.469 33.8281 555.469C35.0365 555.469 36.0052 555.807 36.7344 556.484C37.4635 557.156 37.888 558.089 38.0078 559.281H36.5C36.3698 558.375 36.0859 557.719 35.6484 557.312C35.2161 556.906 34.6094 556.703 33.8281 556.703C32.8698 556.703 32.1172 557.057 31.5703 557.766C31.0286 558.474 30.7578 559.482 30.7578 560.789V561.891C30.7578 563.125 31.0156 564.107 31.5312 564.836C32.0469 565.565 32.7682 565.93 33.6953 565.93C34.5286 565.93 35.1667 565.742 35.6094 565.367C36.0573 564.987 36.3542 564.328 36.5 563.391H38.0078ZM45.7891 563.18H47.3672V564.359H45.7891V567H44.3359V564.359H39.1562V563.508L44.25 555.625H45.7891V563.18ZM40.7969 563.18H44.3359V557.602L44.1641 557.914L40.7969 563.18ZM57.4141 563.391C57.2734 564.594 56.8281 565.523 56.0781 566.18C55.3333 566.831 54.3411 567.156 53.1016 567.156C51.7578 567.156 50.6797 566.674 49.8672 565.711C49.0599 564.747 48.6562 563.458 48.6562 561.844V560.75C48.6562 559.693 48.8438 558.763 49.2188 557.961C49.599 557.159 50.1354 556.544 50.8281 556.117C51.5208 555.685 52.3229 555.469 53.2344 555.469C54.4427 555.469 55.4115 555.807 56.1406 556.484C56.8698 557.156 57.2943 558.089 57.4141 559.281H55.9062C55.776 558.375 55.4922 557.719 55.0547 557.312C54.6224 556.906 54.0156 556.703 53.2344 556.703C52.276 556.703 51.5234 557.057 50.9766 557.766C50.4349 558.474 50.1641 559.482 50.1641 560.789V561.891C50.1641 563.125 50.4219 564.107 50.9375 564.836C51.4531 565.565 52.1745 565.93 53.1016 565.93C53.9349 565.93 54.5729 565.742 55.0156 565.367C55.4635 564.987 55.7604 564.328 55.9062 563.391H57.4141ZM65.1953 563.18H66.7734V564.359H65.1953V567H63.7422V564.359H58.5625V563.508L63.6562 555.625H65.1953V563.18ZM60.2031 563.18H63.7422V557.602L63.5703 557.914L60.2031 563.18ZM76.8203 563.391C76.6797 564.594 76.2344 565.523 75.4844 566.18C74.7396 566.831 73.7474 567.156 72.5078 567.156C71.1641 567.156 70.0859 566.674 69.2734 565.711C68.4661 564.747 68.0625 563.458 68.0625 561.844V560.75C68.0625 559.693 68.25 558.763 68.625 557.961C69.0052 557.159 69.5417 556.544 70.2344 556.117C70.9271 555.685 71.7292 555.469 72.6406 555.469C73.849 555.469 74.8177 555.807 75.5469 556.484C76.276 557.156 76.7005 558.089 76.8203 559.281H75.3125C75.1823 558.375 74.8984 557.719 74.4609 557.312C74.0286 556.906 73.4219 556.703 72.6406 556.703C71.6823 556.703 70.9297 557.057 70.3828 557.766C69.8411 558.474 69.5703 559.482 69.5703 560.789V561.891C69.5703 563.125 69.8281 564.107 70.3438 564.836C70.8594 565.565 71.5807 565.93 72.5078 565.93C73.3411 565.93 73.9792 565.742 74.4219 565.367C74.8698 564.987 75.1667 564.328 75.3125 563.391H76.8203ZM84.6016 563.18H86.1797V564.359H84.6016V567H83.1484V564.359H77.9688V563.508L83.0625 555.625H84.6016V563.18ZM79.6094 563.18H83.1484V557.602L82.9766 557.914L79.6094 563.18Z" fill="white"/>
<circle cx="188.5" cy="561.5" r="52.5" fill="#A9A9A9"/>
<path d="M160.414 563.797H158.352L157.727 567H156.609L157.234 563.797H155.367V562.727H157.438L157.977 559.961H155.961V558.875H158.188L158.828 555.625H159.945L159.305 558.875H161.367L162.008 555.625H163.133L162.492 558.875H164.086V559.961H162.281L161.742 562.727H163.5V563.797H161.539L160.914 567H159.789L160.414 563.797ZM158.555 562.727H160.617L161.156 559.961H159.094L158.555 562.727ZM171.898 564.031H167.133L166.062 567H164.516L168.859 555.625H170.172L174.523 567H172.984L171.898 564.031ZM167.586 562.797H171.453L169.516 557.477L167.586 562.797ZM181.219 562C180.917 562.359 180.555 562.648 180.133 562.867C179.716 563.086 179.258 563.195 178.758 563.195C178.102 563.195 177.529 563.034 177.039 562.711C176.555 562.388 176.18 561.935 175.914 561.352C175.648 560.763 175.516 560.115 175.516 559.406C175.516 558.646 175.659 557.961 175.945 557.352C176.237 556.742 176.648 556.276 177.18 555.953C177.711 555.63 178.331 555.469 179.039 555.469C180.164 555.469 181.049 555.891 181.695 556.734C182.346 557.573 182.672 558.719 182.672 560.172V560.594C182.672 562.807 182.234 564.424 181.359 565.445C180.484 566.461 179.164 566.982 177.398 567.008H177.117V565.789H177.422C178.615 565.768 179.531 565.458 180.172 564.859C180.812 564.255 181.161 563.302 181.219 562ZM178.992 562C179.477 562 179.922 561.852 180.328 561.555C180.74 561.258 181.039 560.891 181.227 560.453V559.875C181.227 558.927 181.021 558.156 180.609 557.562C180.198 556.969 179.677 556.672 179.047 556.672C178.411 556.672 177.901 556.917 177.516 557.406C177.13 557.891 176.938 558.531 176.938 559.328C176.938 560.104 177.122 560.745 177.492 561.25C177.867 561.75 178.367 562 178.992 562ZM191.32 564.031H186.555L185.484 567H183.938L188.281 555.625H189.594L193.945 567H192.406L191.32 564.031ZM187.008 562.797H190.875L188.938 557.477L187.008 562.797ZM200.641 562C200.339 562.359 199.977 562.648 199.555 562.867C199.138 563.086 198.68 563.195 198.18 563.195C197.523 563.195 196.951 563.034 196.461 562.711C195.977 562.388 195.602 561.935 195.336 561.352C195.07 560.763 194.938 560.115 194.938 559.406C194.938 558.646 195.081 557.961 195.367 557.352C195.659 556.742 196.07 556.276 196.602 555.953C197.133 555.63 197.753 555.469 198.461 555.469C199.586 555.469 200.471 555.891 201.117 556.734C201.768 557.573 202.094 558.719 202.094 560.172V560.594C202.094 562.807 201.656 564.424 200.781 565.445C199.906 566.461 198.586 566.982 196.82 567.008H196.539V565.789H196.844C198.036 565.768 198.953 565.458 199.594 564.859C200.234 564.255 200.583 563.302 200.641 562ZM198.414 562C198.898 562 199.344 561.852 199.75 561.555C200.161 561.258 200.461 560.891 200.648 560.453V559.875C200.648 558.927 200.443 558.156 200.031 557.562C199.62 556.969 199.099 556.672 198.469 556.672C197.833 556.672 197.323 556.917 196.938 557.406C196.552 557.891 196.359 558.531 196.359 559.328C196.359 560.104 196.544 560.745 196.914 561.25C197.289 561.75 197.789 562 198.414 562ZM210.742 564.031H205.977L204.906 567H203.359L207.703 555.625H209.016L213.367 567H211.828L210.742 564.031ZM206.43 562.797H210.297L208.359 557.477L206.43 562.797ZM220.062 562C219.76 562.359 219.398 562.648 218.977 562.867C218.56 563.086 218.102 563.195 217.602 563.195C216.945 563.195 216.372 563.034 215.883 562.711C215.398 562.388 215.023 561.935 214.758 561.352C214.492 560.763 214.359 560.115 214.359 559.406C214.359 558.646 214.503 557.961 214.789 557.352C215.081 556.742 215.492 556.276 216.023 555.953C216.555 555.63 217.174 555.469 217.883 555.469C219.008 555.469 219.893 555.891 220.539 556.734C221.19 557.573 221.516 558.719 221.516 560.172V560.594C221.516 562.807 221.078 564.424 220.203 565.445C219.328 566.461 218.008 566.982 216.242 567.008H215.961V565.789H216.266C217.458 565.768 218.375 565.458 219.016 564.859C219.656 564.255 220.005 563.302 220.062 562ZM217.836 562C218.32 562 218.766 561.852 219.172 561.555C219.583 561.258 219.883 560.891 220.07 560.453V559.875C220.07 558.927 219.865 558.156 219.453 557.562C219.042 556.969 218.521 556.672 217.891 556.672C217.255 556.672 216.745 556.917 216.359 557.406C215.974 557.891 215.781 558.531 215.781 559.328C215.781 560.104 215.966 560.745 216.336 561.25C216.711 561.75 217.211 562 217.836 562Z" fill="white"/>
<circle cx="324.5" cy="561.5" r="52.5" fill="#5C5C5C"/>
<path d="M296.438 563.797H294.375L293.75 567H292.633L293.258 563.797H291.391V562.727H293.461L294 559.961H291.984V558.875H294.211L294.852 555.625H295.969L295.328 558.875H297.391L298.031 555.625H299.156L298.516 558.875H300.109V559.961H298.305L297.766 562.727H299.523V563.797H297.562L296.938 567H295.812L296.438 563.797ZM294.578 562.727H296.641L297.18 559.961H295.117L294.578 562.727ZM301.93 561.297L302.508 555.625H308.336V556.961H303.734L303.391 560.062C303.948 559.734 304.581 559.57 305.289 559.57C306.326 559.57 307.148 559.914 307.758 560.602C308.367 561.284 308.672 562.208 308.672 563.375C308.672 564.547 308.354 565.471 307.719 566.148C307.089 566.82 306.206 567.156 305.07 567.156C304.065 567.156 303.245 566.878 302.609 566.32C301.974 565.763 301.612 564.992 301.523 564.008H302.891C302.979 564.659 303.211 565.151 303.586 565.484C303.961 565.812 304.456 565.977 305.07 565.977C305.742 565.977 306.268 565.747 306.648 565.289C307.034 564.831 307.227 564.198 307.227 563.391C307.227 562.63 307.018 562.021 306.602 561.562C306.19 561.099 305.641 560.867 304.953 560.867C304.323 560.867 303.828 561.005 303.469 561.281L303.086 561.594L301.93 561.297ZM318.992 563.391C318.852 564.594 318.406 565.523 317.656 566.18C316.911 566.831 315.919 567.156 314.68 567.156C313.336 567.156 312.258 566.674 311.445 565.711C310.638 564.747 310.234 563.458 310.234 561.844V560.75C310.234 559.693 310.422 558.763 310.797 557.961C311.177 557.159 311.714 556.544 312.406 556.117C313.099 555.685 313.901 555.469 314.812 555.469C316.021 555.469 316.99 555.807 317.719 556.484C318.448 557.156 318.872 558.089 318.992 559.281H317.484C317.354 558.375 317.07 557.719 316.633 557.312C316.201 556.906 315.594 556.703 314.812 556.703C313.854 556.703 313.102 557.057 312.555 557.766C312.013 558.474 311.742 559.482 311.742 560.789V561.891C311.742 563.125 312 564.107 312.516 564.836C313.031 565.565 313.753 565.93 314.68 565.93C315.513 565.93 316.151 565.742 316.594 565.367C317.042 564.987 317.339 564.328 317.484 563.391H318.992ZM321.336 561.297L321.914 555.625H327.742V556.961H323.141L322.797 560.062C323.354 559.734 323.987 559.57 324.695 559.57C325.732 559.57 326.555 559.914 327.164 560.602C327.773 561.284 328.078 562.208 328.078 563.375C328.078 564.547 327.76 565.471 327.125 566.148C326.495 566.82 325.612 567.156 324.477 567.156C323.471 567.156 322.651 566.878 322.016 566.32C321.38 565.763 321.018 564.992 320.93 564.008H322.297C322.385 564.659 322.617 565.151 322.992 565.484C323.367 565.812 323.862 565.977 324.477 565.977C325.148 565.977 325.674 565.747 326.055 565.289C326.44 564.831 326.633 564.198 326.633 563.391C326.633 562.63 326.424 562.021 326.008 561.562C325.596 561.099 325.047 560.867 324.359 560.867C323.729 560.867 323.234 561.005 322.875 561.281L322.492 561.594L321.336 561.297ZM338.398 563.391C338.258 564.594 337.812 565.523 337.062 566.18C336.318 566.831 335.326 567.156 334.086 567.156C332.742 567.156 331.664 566.674 330.852 565.711C330.044 564.747 329.641 563.458 329.641 561.844V560.75C329.641 559.693 329.828 558.763 330.203 557.961C330.583 557.159 331.12 556.544 331.812 556.117C332.505 555.685 333.307 555.469 334.219 555.469C335.427 555.469 336.396 555.807 337.125 556.484C337.854 557.156 338.279 558.089 338.398 559.281H336.891C336.76 558.375 336.477 557.719 336.039 557.312C335.607 556.906 335 556.703 334.219 556.703C333.26 556.703 332.508 557.057 331.961 557.766C331.419 558.474 331.148 559.482 331.148 560.789V561.891C331.148 563.125 331.406 564.107 331.922 564.836C332.438 565.565 333.159 565.93 334.086 565.93C334.919 565.93 335.557 565.742 336 565.367C336.448 564.987 336.745 564.328 336.891 563.391H338.398ZM340.742 561.297L341.32 555.625H347.148V556.961H342.547L342.203 560.062C342.76 559.734 343.393 559.57 344.102 559.57C345.138 559.57 345.961 559.914 346.57 560.602C347.18 561.284 347.484 562.208 347.484 563.375C347.484 564.547 347.167 565.471 346.531 566.148C345.901 566.82 345.018 567.156 343.883 567.156C342.878 567.156 342.057 566.878 341.422 566.32C340.786 565.763 340.424 564.992 340.336 564.008H341.703C341.792 564.659 342.023 565.151 342.398 565.484C342.773 565.812 343.268 565.977 343.883 565.977C344.555 565.977 345.081 565.747 345.461 565.289C345.846 564.831 346.039 564.198 346.039 563.391C346.039 562.63 345.831 562.021 345.414 561.562C345.003 561.099 344.453 560.867 343.766 560.867C343.135 560.867 342.641 561.005 342.281 561.281L341.898 561.594L340.742 561.297ZM357.805 563.391C357.664 564.594 357.219 565.523 356.469 566.18C355.724 566.831 354.732 567.156 353.492 567.156C352.148 567.156 351.07 566.674 350.258 565.711C349.451 564.747 349.047 563.458 349.047 561.844V560.75C349.047 559.693 349.234 558.763 349.609 557.961C349.99 557.159 350.526 556.544 351.219 556.117C351.911 555.685 352.714 555.469 353.625 555.469C354.833 555.469 355.802 555.807 356.531 556.484C357.26 557.156 357.685 558.089 357.805 559.281H356.297C356.167 558.375 355.883 557.719 355.445 557.312C355.013 556.906 354.406 556.703 353.625 556.703C352.667 556.703 351.914 557.057 351.367 557.766C350.826 558.474 350.555 559.482 350.555 560.789V561.891C350.555 563.125 350.812 564.107 351.328 564.836C351.844 565.565 352.565 565.93 353.492 565.93C354.326 565.93 354.964 565.742 355.406 565.367C355.854 564.987 356.151 564.328 356.297 563.391H357.805Z" fill="white"/>
<circle cx="188.5" cy="379.5" r="52.5" fill="#F1F4E4"/>
<path d="M162.68 381.797H160.617L159.992 385H158.875L159.5 381.797H157.633V380.727H159.703L160.242 377.961H158.227V376.875H160.453L161.094 373.625H162.211L161.57 376.875H163.633L164.273 373.625H165.398L164.758 376.875H166.352V377.961H164.547L164.008 380.727H165.766V381.797H163.805L163.18 385H162.055L162.68 381.797ZM160.82 380.727H162.883L163.422 377.961H161.359L160.82 380.727ZM174.156 379.977H169.383V385H167.883V373.625H174.93V374.859H169.383V378.75H174.156V379.977ZM181.102 385H179.648V375.367L176.734 376.438V375.125L180.875 373.57H181.102V385ZM191.984 379.977H187.211V385H185.711V373.625H192.758V374.859H187.211V378.75H191.984V379.977ZM200.281 381.18H201.859V382.359H200.281V385H198.828V382.359H193.648V381.508L198.742 373.625H200.281V381.18ZM195.289 381.18H198.828V375.602L198.656 375.914L195.289 381.18ZM209.969 379.742H205.039V383.773H210.766V385H203.539V373.625H210.688V374.859H205.039V378.516H209.969V379.742ZM218.359 381.18H219.938V382.359H218.359V385H216.906V382.359H211.727V381.508L216.82 373.625H218.359V381.18ZM213.367 381.18H216.906V375.602L216.734 375.914L213.367 381.18Z" fill="#323232"/>
<circle cx="324.5" cy="379.5" r="52.5" fill="#FEFDF9"/>
<path d="M297.992 381.797H295.93L295.305 385H294.188L294.812 381.797H292.945V380.727H295.016L295.555 377.961H293.539V376.875H295.766L296.406 373.625H297.523L296.883 376.875H298.945L299.586 373.625H300.711L300.07 376.875H301.664V377.961H299.859L299.32 380.727H301.078V381.797H299.117L298.492 385H297.367L297.992 381.797ZM296.133 380.727H298.195L298.734 377.961H296.672L296.133 380.727ZM309.469 379.977H304.695V385H303.195V373.625H310.242V374.859H304.695V378.75H309.469V379.977ZM318.469 379.742H313.539V383.773H319.266V385H312.039V373.625H319.188V374.859H313.539V378.516H318.469V379.742ZM327.406 379.977H322.633V385H321.133V373.625H328.18V374.859H322.633V378.75H327.406V379.977ZM329.977 385V373.625H333.188C334.177 373.625 335.052 373.844 335.812 374.281C336.573 374.719 337.159 375.341 337.57 376.148C337.987 376.956 338.198 377.883 338.203 378.93V379.656C338.203 380.729 337.995 381.669 337.578 382.477C337.167 383.284 336.576 383.904 335.805 384.336C335.039 384.768 334.146 384.99 333.125 385H329.977ZM331.477 374.859V383.773H333.055C334.211 383.773 335.109 383.414 335.75 382.695C336.396 381.977 336.719 380.953 336.719 379.625V378.961C336.719 377.669 336.414 376.667 335.805 375.953C335.201 375.234 334.341 374.87 333.227 374.859H331.477ZM346.75 379.977H341.977V385H340.477V373.625H347.523V374.859H341.977V378.75H346.75V379.977ZM354.484 380C354.182 380.359 353.82 380.648 353.398 380.867C352.982 381.086 352.523 381.195 352.023 381.195C351.367 381.195 350.794 381.034 350.305 380.711C349.82 380.388 349.445 379.935 349.18 379.352C348.914 378.763 348.781 378.115 348.781 377.406C348.781 376.646 348.924 375.961 349.211 375.352C349.503 374.742 349.914 374.276 350.445 373.953C350.977 373.63 351.596 373.469 352.305 373.469C353.43 373.469 354.315 373.891 354.961 374.734C355.612 375.573 355.938 376.719 355.938 378.172V378.594C355.938 380.807 355.5 382.424 354.625 383.445C353.75 384.461 352.43 384.982 350.664 385.008H350.383V383.789H350.688C351.88 383.768 352.797 383.458 353.438 382.859C354.078 382.255 354.427 381.302 354.484 380ZM352.258 380C352.742 380 353.188 379.852 353.594 379.555C354.005 379.258 354.305 378.891 354.492 378.453V377.875C354.492 376.927 354.286 376.156 353.875 375.562C353.464 374.969 352.943 374.672 352.312 374.672C351.677 374.672 351.167 374.917 350.781 375.406C350.396 375.891 350.203 376.531 350.203 377.328C350.203 378.104 350.388 378.745 350.758 379.25C351.133 379.75 351.633 380 352.258 380Z" fill="#323232"/>
<circle cx="188.5" cy="377.5" r="52.5" fill="#F1F4E4"/>
<path d="M162.68 379.797H160.617L159.992 383H158.875L159.5 379.797H157.633V378.727H159.703L160.242 375.961H158.227V374.875H160.453L161.094 371.625H162.211L161.57 374.875H163.633L164.273 371.625H165.398L164.758 374.875H166.352V375.961H164.547L164.008 378.727H165.766V379.797H163.805L163.18 383H162.055L162.68 379.797ZM160.82 378.727H162.883L163.422 375.961H161.359L160.82 378.727ZM174.156 377.977H169.383V383H167.883V371.625H174.93V372.859H169.383V376.75H174.156V377.977ZM181.102 383H179.648V373.367L176.734 374.438V373.125L180.875 371.57H181.102V383ZM191.984 377.977H187.211V383H185.711V371.625H192.758V372.859H187.211V376.75H191.984V377.977ZM200.281 379.18H201.859V380.359H200.281V383H198.828V380.359H193.648V379.508L198.742 371.625H200.281V379.18ZM195.289 379.18H198.828V373.602L198.656 373.914L195.289 379.18ZM209.969 377.742H205.039V381.773H210.766V383H203.539V371.625H210.688V372.859H205.039V376.516H209.969V377.742ZM218.359 379.18H219.938V380.359H218.359V383H216.906V380.359H211.727V379.508L216.82 371.625H218.359V379.18ZM213.367 379.18H216.906V373.602L216.734 373.914L213.367 379.18Z" fill="#323232"/>
<circle cx="324.5" cy="377.5" r="52.25" fill="#FEFDF9" stroke="#F1F0F0" stroke-width="0.5"/>
<path d="M297.992 379.797H295.93L295.305 383H294.188L294.812 379.797H292.945V378.727H295.016L295.555 375.961H293.539V374.875H295.766L296.406 371.625H297.523L296.883 374.875H298.945L299.586 371.625H300.711L300.07 374.875H301.664V375.961H299.859L299.32 378.727H301.078V379.797H299.117L298.492 383H297.367L297.992 379.797ZM296.133 378.727H298.195L298.734 375.961H296.672L296.133 378.727ZM309.469 377.977H304.695V383H303.195V371.625H310.242V372.859H304.695V376.75H309.469V377.977ZM318.469 377.742H313.539V381.773H319.266V383H312.039V371.625H319.188V372.859H313.539V376.516H318.469V377.742ZM327.406 377.977H322.633V383H321.133V371.625H328.18V372.859H322.633V376.75H327.406V377.977ZM329.977 383V371.625H333.188C334.177 371.625 335.052 371.844 335.812 372.281C336.573 372.719 337.159 373.341 337.57 374.148C337.987 374.956 338.198 375.883 338.203 376.93V377.656C338.203 378.729 337.995 379.669 337.578 380.477C337.167 381.284 336.576 381.904 335.805 382.336C335.039 382.768 334.146 382.99 333.125 383H329.977ZM331.477 372.859V381.773H333.055C334.211 381.773 335.109 381.414 335.75 380.695C336.396 379.977 336.719 378.953 336.719 377.625V376.961C336.719 375.669 336.414 374.667 335.805 373.953C335.201 373.234 334.341 372.87 333.227 372.859H331.477ZM346.75 377.977H341.977V383H340.477V371.625H347.523V372.859H341.977V376.75H346.75V377.977ZM354.484 378C354.182 378.359 353.82 378.648 353.398 378.867C352.982 379.086 352.523 379.195 352.023 379.195C351.367 379.195 350.794 379.034 350.305 378.711C349.82 378.388 349.445 377.935 349.18 377.352C348.914 376.763 348.781 376.115 348.781 375.406C348.781 374.646 348.924 373.961 349.211 373.352C349.503 372.742 349.914 372.276 350.445 371.953C350.977 371.63 351.596 371.469 352.305 371.469C353.43 371.469 354.315 371.891 354.961 372.734C355.612 373.573 355.938 374.719 355.938 376.172V376.594C355.938 378.807 355.5 380.424 354.625 381.445C353.75 382.461 352.43 382.982 350.664 383.008H350.383V381.789H350.688C351.88 381.768 352.797 381.458 353.438 380.859C354.078 380.255 354.427 379.302 354.484 378ZM352.258 378C352.742 378 353.188 377.852 353.594 377.555C354.005 377.258 354.305 376.891 354.492 376.453V375.875C354.492 374.927 354.286 374.156 353.875 373.562C353.464 372.969 352.943 372.672 352.312 372.672C351.677 372.672 351.167 372.917 350.781 373.406C350.396 373.891 350.203 374.531 350.203 375.328C350.203 376.104 350.388 376.745 350.758 377.25C351.133 377.75 351.633 378 352.258 378Z" fill="#323232"/>
<circle cx="324.5" cy="193.5" r="52.5" fill="#323232"/>
<path d="M298.594 195.797H296.531L295.906 199H294.789L295.414 195.797H293.547V194.727H295.617L296.156 191.961H294.141V190.875H296.367L297.008 187.625H298.125L297.484 190.875H299.547L300.188 187.625H301.312L300.672 190.875H302.266V191.961H300.461L299.922 194.727H301.68V195.797H299.719L299.094 199H297.969L298.594 195.797ZM296.734 194.727H298.797L299.336 191.961H297.273L296.734 194.727ZM305.523 192.609H306.609C307.292 192.599 307.828 192.419 308.219 192.07C308.609 191.721 308.805 191.25 308.805 190.656C308.805 189.323 308.141 188.656 306.812 188.656C306.188 188.656 305.688 188.836 305.312 189.195C304.943 189.549 304.758 190.021 304.758 190.609H303.312C303.312 189.708 303.641 188.961 304.297 188.367C304.958 187.768 305.797 187.469 306.812 187.469C307.885 187.469 308.727 187.753 309.336 188.32C309.945 188.888 310.25 189.677 310.25 190.688C310.25 191.182 310.089 191.661 309.766 192.125C309.448 192.589 309.013 192.935 308.461 193.164C309.086 193.362 309.568 193.69 309.906 194.148C310.25 194.607 310.422 195.167 310.422 195.828C310.422 196.849 310.089 197.659 309.422 198.258C308.755 198.857 307.888 199.156 306.82 199.156C305.753 199.156 304.883 198.867 304.211 198.289C303.544 197.711 303.211 196.948 303.211 196H304.664C304.664 196.599 304.859 197.078 305.25 197.438C305.641 197.797 306.164 197.977 306.82 197.977C307.518 197.977 308.052 197.794 308.422 197.43C308.792 197.065 308.977 196.542 308.977 195.859C308.977 195.198 308.773 194.69 308.367 194.336C307.961 193.982 307.375 193.799 306.609 193.789H305.523V192.609ZM319.859 199H312.406V197.961L316.344 193.586C316.927 192.924 317.328 192.388 317.547 191.977C317.771 191.56 317.883 191.13 317.883 190.688C317.883 190.094 317.703 189.607 317.344 189.227C316.984 188.846 316.505 188.656 315.906 188.656C315.188 188.656 314.628 188.862 314.227 189.273C313.831 189.68 313.633 190.247 313.633 190.977H312.188C312.188 189.93 312.523 189.083 313.195 188.438C313.872 187.792 314.776 187.469 315.906 187.469C316.964 187.469 317.799 187.747 318.414 188.305C319.029 188.857 319.336 189.594 319.336 190.516C319.336 191.635 318.622 192.969 317.195 194.516L314.148 197.82H319.859V199ZM323.492 192.609H324.578C325.26 192.599 325.797 192.419 326.188 192.07C326.578 191.721 326.773 191.25 326.773 190.656C326.773 189.323 326.109 188.656 324.781 188.656C324.156 188.656 323.656 188.836 323.281 189.195C322.911 189.549 322.727 190.021 322.727 190.609H321.281C321.281 189.708 321.609 188.961 322.266 188.367C322.927 187.768 323.766 187.469 324.781 187.469C325.854 187.469 326.695 187.753 327.305 188.32C327.914 188.888 328.219 189.677 328.219 190.688C328.219 191.182 328.057 191.661 327.734 192.125C327.417 192.589 326.982 192.935 326.43 193.164C327.055 193.362 327.536 193.69 327.875 194.148C328.219 194.607 328.391 195.167 328.391 195.828C328.391 196.849 328.057 197.659 327.391 198.258C326.724 198.857 325.857 199.156 324.789 199.156C323.721 199.156 322.852 198.867 322.18 198.289C321.513 197.711 321.18 196.948 321.18 196H322.633C322.633 196.599 322.828 197.078 323.219 197.438C323.609 197.797 324.133 197.977 324.789 197.977C325.487 197.977 326.021 197.794 326.391 197.43C326.76 197.065 326.945 196.542 326.945 195.859C326.945 195.198 326.742 194.69 326.336 194.336C325.93 193.982 325.344 193.799 324.578 193.789H323.492V192.609ZM337.828 199H330.375V197.961L334.312 193.586C334.896 192.924 335.297 192.388 335.516 191.977C335.74 191.56 335.852 191.13 335.852 190.688C335.852 190.094 335.672 189.607 335.312 189.227C334.953 188.846 334.474 188.656 333.875 188.656C333.156 188.656 332.596 188.862 332.195 189.273C331.799 189.68 331.602 190.247 331.602 190.977H330.156C330.156 189.93 330.492 189.083 331.164 188.438C331.841 187.792 332.745 187.469 333.875 187.469C334.932 187.469 335.768 187.747 336.383 188.305C336.997 188.857 337.305 189.594 337.305 190.516C337.305 191.635 336.591 192.969 335.164 194.516L332.117 197.82H337.828V199ZM341.461 192.609H342.547C343.229 192.599 343.766 192.419 344.156 192.07C344.547 191.721 344.742 191.25 344.742 190.656C344.742 189.323 344.078 188.656 342.75 188.656C342.125 188.656 341.625 188.836 341.25 189.195C340.88 189.549 340.695 190.021 340.695 190.609H339.25C339.25 189.708 339.578 188.961 340.234 188.367C340.896 187.768 341.734 187.469 342.75 187.469C343.823 187.469 344.664 187.753 345.273 188.32C345.883 188.888 346.188 189.677 346.188 190.688C346.188 191.182 346.026 191.661 345.703 192.125C345.385 192.589 344.951 192.935 344.398 193.164C345.023 193.362 345.505 193.69 345.844 194.148C346.188 194.607 346.359 195.167 346.359 195.828C346.359 196.849 346.026 197.659 345.359 198.258C344.693 198.857 343.826 199.156 342.758 199.156C341.69 199.156 340.82 198.867 340.148 198.289C339.482 197.711 339.148 196.948 339.148 196H340.602C340.602 196.599 340.797 197.078 341.188 197.438C341.578 197.797 342.102 197.977 342.758 197.977C343.456 197.977 343.99 197.794 344.359 197.43C344.729 197.065 344.914 196.542 344.914 195.859C344.914 195.198 344.711 194.69 344.305 194.336C343.898 193.982 343.312 193.799 342.547 193.789H341.461V192.609ZM355.797 199H348.344V197.961L352.281 193.586C352.865 192.924 353.266 192.388 353.484 191.977C353.708 191.56 353.82 191.13 353.82 190.688C353.82 190.094 353.641 189.607 353.281 189.227C352.922 188.846 352.443 188.656 351.844 188.656C351.125 188.656 350.565 188.862 350.164 189.273C349.768 189.68 349.57 190.247 349.57 190.977H348.125C348.125 189.93 348.461 189.083 349.133 188.438C349.81 187.792 350.714 187.469 351.844 187.469C352.901 187.469 353.737 187.747 354.352 188.305C354.966 188.857 355.273 189.594 355.273 190.516C355.273 191.635 354.56 192.969 353.133 194.516L350.086 197.82H355.797V199Z" fill="white"/>
<circle cx="596.5" cy="193.5" r="52.5" fill="#DEFAFC"/>
<path d="M569.141 195.797H567.078L566.453 199H565.336L565.961 195.797H564.094V194.727H566.164L566.703 191.961H564.688V190.875H566.914L567.555 187.625H568.672L568.031 190.875H570.094L570.734 187.625H571.859L571.219 190.875H572.812V191.961H571.008L570.469 194.727H572.227V195.797H570.266L569.641 199H568.516L569.141 195.797ZM567.281 194.727H569.344L569.883 191.961H567.82L567.281 194.727ZM574.344 199V187.625H577.555C578.544 187.625 579.419 187.844 580.18 188.281C580.94 188.719 581.526 189.341 581.938 190.148C582.354 190.956 582.565 191.883 582.57 192.93V193.656C582.57 194.729 582.362 195.669 581.945 196.477C581.534 197.284 580.943 197.904 580.172 198.336C579.406 198.768 578.513 198.99 577.492 199H574.344ZM575.844 188.859V197.773H577.422C578.578 197.773 579.477 197.414 580.117 196.695C580.763 195.977 581.086 194.953 581.086 193.625V192.961C581.086 191.669 580.781 190.667 580.172 189.953C579.568 189.234 578.708 188.87 577.594 188.859H575.844ZM591.273 193.742H586.344V197.773H592.07V199H584.844V187.625H591.992V188.859H586.344V192.516H591.273V193.742ZM600.211 193.977H595.438V199H593.938V187.625H600.984V188.859H595.438V192.75H600.211V193.977ZM607.734 196.031H602.969L601.898 199H600.352L604.695 187.625H606.008L610.359 199H608.82L607.734 196.031ZM603.422 194.797H607.289L605.352 189.477L603.422 194.797ZM618.164 193.977H613.391V199H611.891V187.625H618.938V188.859H613.391V192.75H618.164V193.977ZM629.102 195.391C628.961 196.594 628.516 197.523 627.766 198.18C627.021 198.831 626.029 199.156 624.789 199.156C623.445 199.156 622.367 198.674 621.555 197.711C620.747 196.747 620.344 195.458 620.344 193.844V192.75C620.344 191.693 620.531 190.763 620.906 189.961C621.286 189.159 621.823 188.544 622.516 188.117C623.208 187.685 624.01 187.469 624.922 187.469C626.13 187.469 627.099 187.807 627.828 188.484C628.557 189.156 628.982 190.089 629.102 191.281H627.594C627.464 190.375 627.18 189.719 626.742 189.312C626.31 188.906 625.703 188.703 624.922 188.703C623.964 188.703 623.211 189.057 622.664 189.766C622.122 190.474 621.852 191.482 621.852 192.789V193.891C621.852 195.125 622.109 196.107 622.625 196.836C623.141 197.565 623.862 197.93 624.789 197.93C625.622 197.93 626.26 197.742 626.703 197.367C627.151 196.987 627.448 196.328 627.594 195.391H629.102Z" fill="#323232"/>
<circle cx="460.5" cy="193.5" r="52.25" fill="white" stroke="#F1F0F0" stroke-width="0.5"/>
<path d="M435.016 195.797H432.953L432.328 199H431.211L431.836 195.797H429.969V194.727H432.039L432.578 191.961H430.562V190.875H432.789L433.43 187.625H434.547L433.906 190.875H435.969L436.609 187.625H437.734L437.094 190.875H438.688V191.961H436.883L436.344 194.727H438.102V195.797H436.141L435.516 199H434.391L435.016 195.797ZM433.156 194.727H435.219L435.758 191.961H433.695L433.156 194.727ZM446.492 193.977H441.719V199H440.219V187.625H447.266V188.859H441.719V192.75H446.492V193.977ZM455.336 193.977H450.562V199H449.062V187.625H456.109V188.859H450.562V192.75H455.336V193.977ZM464.18 193.977H459.406V199H457.906V187.625H464.953V188.859H459.406V192.75H464.18V193.977ZM473.023 193.977H468.25V199H466.75V187.625H473.797V188.859H468.25V192.75H473.023V193.977ZM481.867 193.977H477.094V199H475.594V187.625H482.641V188.859H477.094V192.75H481.867V193.977ZM490.711 193.977H485.938V199H484.438V187.625H491.484V188.859H485.938V192.75H490.711V193.977Z" fill="#323232"/>
</svg>
