<svg width="185" height="152" viewBox="0 0 185 152" fill="none" xmlns="http://www.w3.org/2000/svg">
<path d="M26.875 57.0156C25.8021 57.0156 24.9583 57.3958 24.3438 58.1562C23.7292 58.9167 23.4219 59.9661 23.4219 61.3047C23.4219 62.7057 23.7161 63.7656 24.3047 64.4844C24.8984 65.2031 25.7552 65.5625 26.875 65.5625C27.3594 65.5625 27.8281 65.5156 28.2812 65.4219C28.7344 65.3229 29.2057 65.1979 29.6953 65.0469V66.6484C28.7995 66.987 27.7839 67.1562 26.6484 67.1562C24.9766 67.1562 23.6927 66.651 22.7969 65.6406C21.901 64.625 21.4531 63.1745 21.4531 61.2891C21.4531 60.1016 21.6693 59.0625 22.1016 58.1719C22.5391 57.2812 23.1693 56.599 23.9922 56.125C24.8151 55.651 25.7812 55.4141 26.8906 55.4141C28.0573 55.4141 29.1354 55.6589 30.125 56.1484L29.4531 57.7031C29.0677 57.5208 28.6589 57.362 28.2266 57.2266C27.7995 57.0859 27.349 57.0156 26.875 57.0156ZM39.625 62.6641C39.625 64.0755 39.263 65.1771 38.5391 65.9688C37.8151 66.7604 36.8073 67.1562 35.5156 67.1562C34.7083 67.1562 33.9948 66.974 33.375 66.6094C32.7552 66.2448 32.2786 65.7214 31.9453 65.0391C31.612 64.3568 31.4453 63.5651 31.4453 62.6641C31.4453 61.263 31.8047 60.1693 32.5234 59.3828C33.2422 58.5964 34.2552 58.2031 35.5625 58.2031C36.8125 58.2031 37.8021 58.6068 38.5312 59.4141C39.2604 60.2161 39.625 61.2995 39.625 62.6641ZM33.3359 62.6641C33.3359 64.6589 34.0729 65.6562 35.5469 65.6562C37.0052 65.6562 37.7344 64.6589 37.7344 62.6641C37.7344 60.6901 37 59.7031 35.5312 59.7031C34.7604 59.7031 34.2005 59.9583 33.8516 60.4688C33.5078 60.9792 33.3359 61.7109 33.3359 62.6641ZM49.3438 67H47.5V61.6875C47.5 61.0208 47.3646 60.5234 47.0938 60.1953C46.8281 59.8672 46.4036 59.7031 45.8203 59.7031C45.0443 59.7031 44.4766 59.9323 44.1172 60.3906C43.7578 60.849 43.5781 61.6172 43.5781 62.6953V67H41.7422V58.3594H43.1797L43.4375 59.4922H43.5312C43.7917 59.0807 44.1615 58.763 44.6406 58.5391C45.1198 58.3151 45.651 58.2031 46.2344 58.2031C48.3073 58.2031 49.3438 59.2578 49.3438 61.3672V67ZM59.5 67H57.6562V61.6875C57.6562 61.0208 57.5208 60.5234 57.25 60.1953C56.9844 59.8672 56.5599 59.7031 55.9766 59.7031C55.2005 59.7031 54.6328 59.9323 54.2734 60.3906C53.9141 60.849 53.7344 61.6172 53.7344 62.6953V67H51.8984V58.3594H53.3359L53.5938 59.4922H53.6875C53.9479 59.0807 54.3177 58.763 54.7969 58.5391C55.276 58.3151 55.8073 58.2031 56.3906 58.2031C58.4635 58.2031 59.5 59.2578 59.5 61.3672V67ZM65.8281 67.1562C64.4844 67.1562 63.4323 66.7656 62.6719 65.9844C61.9167 65.1979 61.5391 64.1172 61.5391 62.7422C61.5391 61.3307 61.8906 60.2214 62.5938 59.4141C63.2969 58.6068 64.263 58.2031 65.4922 58.2031C66.6328 58.2031 67.5339 58.5495 68.1953 59.2422C68.8568 59.9349 69.1875 60.888 69.1875 62.1016V63.0938H63.4297C63.4557 63.9323 63.6823 64.5781 64.1094 65.0312C64.5365 65.4792 65.138 65.7031 65.9141 65.7031C66.4245 65.7031 66.8984 65.6562 67.3359 65.5625C67.7786 65.4635 68.2526 65.3021 68.7578 65.0781V66.5703C68.3099 66.7839 67.8568 66.9349 67.3984 67.0234C66.9401 67.112 66.4167 67.1562 65.8281 67.1562ZM65.4922 59.5938C64.9089 59.5938 64.4401 59.7786 64.0859 60.1484C63.737 60.5182 63.5286 61.0573 63.4609 61.7656H67.3828C67.3724 61.0521 67.2005 60.513 66.8672 60.1484C66.5339 59.7786 66.0755 59.5938 65.4922 59.5938ZM74.7578 67.1562C73.4505 67.1562 72.4557 66.776 71.7734 66.0156C71.0964 65.25 70.7578 64.1536 70.7578 62.7266C70.7578 61.2734 71.112 60.1562 71.8203 59.375C72.5339 58.5938 73.5625 58.2031 74.9062 58.2031C75.8177 58.2031 76.638 58.3724 77.3672 58.7109L76.8125 60.1875C76.0365 59.8854 75.3958 59.7344 74.8906 59.7344C73.3958 59.7344 72.6484 60.7266 72.6484 62.7109C72.6484 63.6797 72.8333 64.4089 73.2031 64.8984C73.5781 65.3828 74.125 65.625 74.8438 65.625C75.6615 65.625 76.4349 65.4219 77.1641 65.0156V66.6172C76.8359 66.8099 76.4844 66.9479 76.1094 67.0312C75.7396 67.1146 75.2891 67.1562 74.7578 67.1562ZM82.4141 65.6719C82.862 65.6719 83.3099 65.6016 83.7578 65.4609V66.8438C83.5547 66.9323 83.2917 67.0052 82.9688 67.0625C82.651 67.125 82.3203 67.1562 81.9766 67.1562C80.237 67.1562 79.3672 66.2396 79.3672 64.4062V59.75H78.1875V58.9375L79.4531 58.2656L80.0781 56.4375H81.2109V58.3594H83.6719V59.75H81.2109V64.375C81.2109 64.8177 81.3203 65.1458 81.5391 65.3594C81.763 65.5677 82.0547 65.6719 82.4141 65.6719ZM87.3281 67H85.4922V58.3594H87.3281V67ZM85.3828 56.0703C85.3828 55.7422 85.4714 55.4896 85.6484 55.3125C85.8307 55.1354 86.0885 55.0469 86.4219 55.0469C86.7448 55.0469 86.9948 55.1354 87.1719 55.3125C87.3542 55.4896 87.4453 55.7422 87.4453 56.0703C87.4453 56.3828 87.3542 56.6302 87.1719 56.8125C86.9948 56.9896 86.7448 57.0781 86.4219 57.0781C86.0885 57.0781 85.8307 56.9896 85.6484 56.8125C85.4714 56.6302 85.3828 56.3828 85.3828 56.0703ZM97.5625 67H95.7188V61.6875C95.7188 61.0208 95.5833 60.5234 95.3125 60.1953C95.0469 59.8672 94.6224 59.7031 94.0391 59.7031C93.263 59.7031 92.6953 59.9323 92.3359 60.3906C91.9766 60.849 91.7969 61.6172 91.7969 62.6953V67H89.9609V58.3594H91.3984L91.6562 59.4922H91.75C92.0104 59.0807 92.3802 58.763 92.8594 58.5391C93.3385 58.3151 93.8698 58.2031 94.4531 58.2031C96.526 58.2031 97.5625 59.2578 97.5625 61.3672V67ZM107.414 58.3594V59.3672L105.938 59.6406C106.073 59.8229 106.185 60.0469 106.273 60.3125C106.362 60.5781 106.406 60.8594 106.406 61.1562C106.406 62.0469 106.099 62.7474 105.484 63.2578C104.87 63.7682 104.023 64.0234 102.945 64.0234C102.669 64.0234 102.419 64.0026 102.195 63.9609C101.799 64.2057 101.602 64.4922 101.602 64.8203C101.602 65.0182 101.693 65.1667 101.875 65.2656C102.062 65.3646 102.404 65.4141 102.898 65.4141H104.406C105.359 65.4141 106.083 65.6172 106.578 66.0234C107.073 66.4297 107.32 67.0156 107.32 67.7812C107.32 68.7604 106.917 69.5156 106.109 70.0469C105.302 70.5781 104.135 70.8438 102.609 70.8438C101.432 70.8438 100.534 70.6354 99.9141 70.2188C99.2943 69.8021 98.9844 69.2083 98.9844 68.4375C98.9844 67.9062 99.151 67.4583 99.4844 67.0938C99.8229 66.7344 100.294 66.4844 100.898 66.3438C100.654 66.2396 100.451 66.0729 100.289 65.8438C100.133 65.6094 100.055 65.3646 100.055 65.1094C100.055 64.7865 100.146 64.513 100.328 64.2891C100.51 64.0651 100.781 63.8438 101.141 63.625C100.693 63.4323 100.328 63.1198 100.047 62.6875C99.7708 62.25 99.6328 61.7396 99.6328 61.1562C99.6328 60.2188 99.9271 59.4922 100.516 58.9766C101.109 58.4609 101.953 58.2031 103.047 58.2031C103.292 58.2031 103.547 58.2214 103.812 58.2578C104.083 58.2891 104.286 58.3229 104.422 58.3594H107.414ZM100.625 68.3438C100.625 68.7396 100.802 69.0443 101.156 69.2578C101.516 69.4714 102.018 69.5781 102.664 69.5781C103.664 69.5781 104.409 69.4349 104.898 69.1484C105.388 68.862 105.633 68.4818 105.633 68.0078C105.633 67.6328 105.497 67.3646 105.227 67.2031C104.961 67.0469 104.464 66.9688 103.734 66.9688H102.344C101.818 66.9688 101.398 67.0911 101.086 67.3359C100.779 67.5859 100.625 67.9219 100.625 68.3438ZM101.414 61.1562C101.414 61.6979 101.552 62.1146 101.828 62.4062C102.109 62.6979 102.51 62.8438 103.031 62.8438C104.094 62.8438 104.625 62.276 104.625 61.1406C104.625 60.5781 104.492 60.1458 104.227 59.8438C103.966 59.5365 103.568 59.3828 103.031 59.3828C102.5 59.3828 102.096 59.5339 101.82 59.8359C101.549 60.138 101.414 60.5781 101.414 61.1562ZM117.562 67.1562C116.469 67.1562 115.62 66.763 115.016 65.9766H114.906C114.979 66.7057 115.016 67.1484 115.016 67.3047V70.8438H113.18V58.3594H114.664C114.706 58.5208 114.792 58.9062 114.922 59.5156H115.016C115.589 58.6406 116.448 58.2031 117.594 58.2031C118.672 58.2031 119.51 58.5938 120.109 59.375C120.714 60.1562 121.016 61.2526 121.016 62.6641C121.016 64.0755 120.708 65.1771 120.094 65.9688C119.484 66.7604 118.641 67.1562 117.562 67.1562ZM117.117 59.7031C116.388 59.7031 115.854 59.9167 115.516 60.3438C115.182 60.7708 115.016 61.4531 115.016 62.3906V62.6641C115.016 63.7161 115.182 64.4792 115.516 64.9531C115.849 65.4219 116.393 65.6562 117.148 65.6562C117.784 65.6562 118.273 65.3958 118.617 64.875C118.961 64.3542 119.133 63.612 119.133 62.6484C119.133 61.6797 118.961 60.9479 118.617 60.4531C118.279 59.9531 117.779 59.7031 117.117 59.7031ZM126.922 67.1562C125.578 67.1562 124.526 66.7656 123.766 65.9844C123.01 65.1979 122.633 64.1172 122.633 62.7422C122.633 61.3307 122.984 60.2214 123.688 59.4141C124.391 58.6068 125.357 58.2031 126.586 58.2031C127.727 58.2031 128.628 58.5495 129.289 59.2422C129.951 59.9349 130.281 60.888 130.281 62.1016V63.0938H124.523C124.549 63.9323 124.776 64.5781 125.203 65.0312C125.63 65.4792 126.232 65.7031 127.008 65.7031C127.518 65.7031 127.992 65.6562 128.43 65.5625C128.872 65.4635 129.346 65.3021 129.852 65.0781V66.5703C129.404 66.7839 128.951 66.9349 128.492 67.0234C128.034 67.112 127.51 67.1562 126.922 67.1562ZM126.586 59.5938C126.003 59.5938 125.534 59.7786 125.18 60.1484C124.831 60.5182 124.622 61.0573 124.555 61.7656H128.477C128.466 61.0521 128.294 60.513 127.961 60.1484C127.628 59.7786 127.169 59.5938 126.586 59.5938ZM140.031 62.6641C140.031 64.0755 139.669 65.1771 138.945 65.9688C138.221 66.7604 137.214 67.1562 135.922 67.1562C135.115 67.1562 134.401 66.974 133.781 66.6094C133.161 66.2448 132.685 65.7214 132.352 65.0391C132.018 64.3568 131.852 63.5651 131.852 62.6641C131.852 61.263 132.211 60.1693 132.93 59.3828C133.648 58.5964 134.661 58.2031 135.969 58.2031C137.219 58.2031 138.208 58.6068 138.938 59.4141C139.667 60.2161 140.031 61.2995 140.031 62.6641ZM133.742 62.6641C133.742 64.6589 134.479 65.6562 135.953 65.6562C137.411 65.6562 138.141 64.6589 138.141 62.6641C138.141 60.6901 137.406 59.7031 135.938 59.7031C135.167 59.7031 134.607 59.9583 134.258 60.4688C133.914 60.9792 133.742 61.7109 133.742 62.6641ZM146.531 67.1562C145.438 67.1562 144.589 66.763 143.984 65.9766H143.875C143.948 66.7057 143.984 67.1484 143.984 67.3047V70.8438H142.148V58.3594H143.633C143.674 58.5208 143.76 58.9062 143.891 59.5156H143.984C144.557 58.6406 145.417 58.2031 146.562 58.2031C147.641 58.2031 148.479 58.5938 149.078 59.375C149.682 60.1562 149.984 61.2526 149.984 62.6641C149.984 64.0755 149.677 65.1771 149.062 65.9688C148.453 66.7604 147.609 67.1562 146.531 67.1562ZM146.086 59.7031C145.357 59.7031 144.823 59.9167 144.484 60.3438C144.151 60.7708 143.984 61.4531 143.984 62.3906V62.6641C143.984 63.7161 144.151 64.4792 144.484 64.9531C144.818 65.4219 145.362 65.6562 146.117 65.6562C146.753 65.6562 147.242 65.3958 147.586 64.875C147.93 64.3542 148.102 63.612 148.102 62.6484C148.102 61.6797 147.93 60.9479 147.586 60.4531C147.247 59.9531 146.747 59.7031 146.086 59.7031ZM153.953 67H152.117V54.8438H153.953V67ZM160.359 67.1562C159.016 67.1562 157.964 66.7656 157.203 65.9844C156.448 65.1979 156.07 64.1172 156.07 62.7422C156.07 61.3307 156.422 60.2214 157.125 59.4141C157.828 58.6068 158.794 58.2031 160.023 58.2031C161.164 58.2031 162.065 58.5495 162.727 59.2422C163.388 59.9349 163.719 60.888 163.719 62.1016V63.0938H157.961C157.987 63.9323 158.214 64.5781 158.641 65.0312C159.068 65.4792 159.669 65.7031 160.445 65.7031C160.956 65.7031 161.43 65.6562 161.867 65.5625C162.31 65.4635 162.784 65.3021 163.289 65.0781V66.5703C162.841 66.7839 162.388 66.9349 161.93 67.0234C161.471 67.112 160.948 67.1562 160.359 67.1562ZM160.023 59.5938C159.44 59.5938 158.971 59.7786 158.617 60.1484C158.268 60.5182 158.06 61.0573 157.992 61.7656H161.914C161.904 61.0521 161.732 60.513 161.398 60.1484C161.065 59.7786 160.607 59.5938 160.023 59.5938ZM9.65625 79.75H7.54688V87H5.70312V79.75H4.28125V78.8906L5.70312 78.3281V77.7656C5.70312 76.7448 5.94271 75.9896 6.42188 75.5C6.90104 75.0052 7.63281 74.7578 8.61719 74.7578C9.26302 74.7578 9.89844 74.8646 10.5234 75.0781L10.0391 76.4688C9.58594 76.3229 9.15365 76.25 8.74219 76.25C8.32552 76.25 8.02083 76.3802 7.82812 76.6406C7.64062 76.8958 7.54688 77.2812 7.54688 77.7969V78.3594H9.65625V79.75ZM15.5156 78.2031C15.8854 78.2031 16.1901 78.2292 16.4297 78.2812L16.25 79.9922C15.9896 79.9297 15.7188 79.8984 15.4375 79.8984C14.7031 79.8984 14.1068 80.138 13.6484 80.6172C13.1953 81.0964 12.9688 81.7188 12.9688 82.4844V87H11.1328V78.3594H12.5703L12.8125 79.8828H12.9062C13.1927 79.3672 13.5651 78.9583 14.0234 78.6562C14.487 78.3542 14.9844 78.2031 15.5156 78.2031ZM25.7031 82.6641C25.7031 84.0755 25.3411 85.1771 24.6172 85.9688C23.8932 86.7604 22.8854 87.1562 21.5938 87.1562C20.7865 87.1562 20.0729 86.974 19.4531 86.6094C18.8333 86.2448 18.3568 85.7214 18.0234 85.0391C17.6901 84.3568 17.5234 83.5651 17.5234 82.6641C17.5234 81.263 17.8828 80.1693 18.6016 79.3828C19.3203 78.5964 20.3333 78.2031 21.6406 78.2031C22.8906 78.2031 23.8802 78.6068 24.6094 79.4141C25.3385 80.2161 25.7031 81.2995 25.7031 82.6641ZM19.4141 82.6641C19.4141 84.6589 20.151 85.6562 21.625 85.6562C23.0833 85.6562 23.8125 84.6589 23.8125 82.6641C23.8125 80.6901 23.0781 79.7031 21.6094 79.7031C20.8385 79.7031 20.2786 79.9583 19.9297 80.4688C19.5859 80.9792 19.4141 81.7109 19.4141 82.6641ZM35.1016 87H33.2578V81.6719C33.2578 81.0104 33.1328 80.5182 32.8828 80.1953C32.6328 79.8672 32.2422 79.7031 31.7109 79.7031C31.0026 79.7031 30.4818 79.9349 30.1484 80.3984C29.8203 80.8568 29.6562 81.6224 29.6562 82.6953V87H27.8203V78.3594H29.2578L29.5156 79.4922H29.6094C29.849 79.0807 30.1953 78.763 30.6484 78.5391C31.1068 78.3151 31.6094 78.2031 32.1562 78.2031C33.4844 78.2031 34.3646 78.6562 34.7969 79.5625H34.9219C35.1771 79.1354 35.5365 78.8021 36 78.5625C36.4635 78.3229 36.9948 78.2031 37.5938 78.2031C38.625 78.2031 39.375 78.4635 39.8438 78.9844C40.3177 79.5052 40.5547 80.2995 40.5547 81.3672V87H38.7188V81.6719C38.7188 81.0104 38.5911 80.5182 38.3359 80.1953C38.0859 79.8672 37.6953 79.7031 37.1641 79.7031C36.4505 79.7031 35.9271 79.9271 35.5938 80.375C35.2656 80.8177 35.1016 81.5 35.1016 82.4219V87ZM52.6797 87L52.3125 85.7969H52.25C51.8333 86.3229 51.4141 86.6823 50.9922 86.875C50.5703 87.0625 50.0286 87.1562 49.3672 87.1562C48.5182 87.1562 47.8542 86.9271 47.375 86.4688C46.901 86.0104 46.6641 85.362 46.6641 84.5234C46.6641 83.6328 46.9948 82.9609 47.6562 82.5078C48.3177 82.0547 49.3255 81.8073 50.6797 81.7656L52.1719 81.7188V81.2578C52.1719 80.7057 52.0417 80.2943 51.7812 80.0234C51.526 79.7474 51.1276 79.6094 50.5859 79.6094C50.1432 79.6094 49.7188 79.6745 49.3125 79.8047C48.9062 79.9349 48.5156 80.0885 48.1406 80.2656L47.5469 78.9531C48.0156 78.7083 48.5286 78.5234 49.0859 78.3984C49.6432 78.2682 50.1693 78.2031 50.6641 78.2031C51.763 78.2031 52.5911 78.4427 53.1484 78.9219C53.7109 79.401 53.9922 80.1536 53.9922 81.1797V87H52.6797ZM49.9453 85.75C50.612 85.75 51.1458 85.5651 51.5469 85.1953C51.9531 84.8203 52.1562 84.2969 52.1562 83.625V82.875L51.0469 82.9219C50.1823 82.9531 49.5521 83.099 49.1562 83.3594C48.7656 83.6146 48.5703 84.0078 48.5703 84.5391C48.5703 84.9245 48.6849 85.224 48.9141 85.4375C49.1432 85.6458 49.487 85.75 49.9453 85.75ZM58.3906 87H56.5547V74.8438H58.3906V87ZM62.8594 87H61.0234V74.8438H62.8594V87ZM77.3125 82.6641C77.3125 84.0755 76.9505 85.1771 76.2266 85.9688C75.5026 86.7604 74.4948 87.1562 73.2031 87.1562C72.3958 87.1562 71.6823 86.974 71.0625 86.6094C70.4427 86.2448 69.9661 85.7214 69.6328 85.0391C69.2995 84.3568 69.1328 83.5651 69.1328 82.6641C69.1328 81.263 69.4922 80.1693 70.2109 79.3828C70.9297 78.5964 71.9427 78.2031 73.25 78.2031C74.5 78.2031 75.4896 78.6068 76.2188 79.4141C76.9479 80.2161 77.3125 81.2995 77.3125 82.6641ZM71.0234 82.6641C71.0234 84.6589 71.7604 85.6562 73.2344 85.6562C74.6927 85.6562 75.4219 84.6589 75.4219 82.6641C75.4219 80.6901 74.6875 79.7031 73.2188 79.7031C72.4479 79.7031 71.888 79.9583 71.5391 80.4688C71.1953 80.9792 71.0234 81.7109 71.0234 82.6641ZM81.3984 87L78.1172 78.3594H80.0547L81.8125 83.3828C82.1146 84.2266 82.2969 84.9089 82.3594 85.4297H82.4219C82.4688 85.0547 82.651 84.3724 82.9688 83.3828L84.7266 78.3594H86.6797L83.3828 87H81.3984ZM91.7656 87.1562C90.4219 87.1562 89.3698 86.7656 88.6094 85.9844C87.8542 85.1979 87.4766 84.1172 87.4766 82.7422C87.4766 81.3307 87.8281 80.2214 88.5312 79.4141C89.2344 78.6068 90.2005 78.2031 91.4297 78.2031C92.5703 78.2031 93.4714 78.5495 94.1328 79.2422C94.7943 79.9349 95.125 80.888 95.125 82.1016V83.0938H89.3672C89.3932 83.9323 89.6198 84.5781 90.0469 85.0312C90.474 85.4792 91.0755 85.7031 91.8516 85.7031C92.362 85.7031 92.8359 85.6562 93.2734 85.5625C93.7161 85.4635 94.1901 85.3021 94.6953 85.0781V86.5703C94.2474 86.7839 93.7943 86.9349 93.3359 87.0234C92.8776 87.112 92.3542 87.1562 91.7656 87.1562ZM91.4297 79.5938C90.8464 79.5938 90.3776 79.7786 90.0234 80.1484C89.6745 80.5182 89.4661 81.0573 89.3984 81.7656H93.3203C93.3099 81.0521 93.138 80.513 92.8047 80.1484C92.4714 79.7786 92.013 79.5938 91.4297 79.5938ZM101.594 78.2031C101.964 78.2031 102.268 78.2292 102.508 78.2812L102.328 79.9922C102.068 79.9297 101.797 79.8984 101.516 79.8984C100.781 79.8984 100.185 80.138 99.7266 80.6172C99.2734 81.0964 99.0469 81.7188 99.0469 82.4844V87H97.2109V78.3594H98.6484L98.8906 79.8828H98.9844C99.2708 79.3672 99.6432 78.9583 100.102 78.6562C100.565 78.3542 101.062 78.2031 101.594 78.2031ZM111.492 85.6719C111.94 85.6719 112.388 85.6016 112.836 85.4609V86.8438C112.633 86.9323 112.37 87.0052 112.047 87.0625C111.729 87.125 111.398 87.1562 111.055 87.1562C109.315 87.1562 108.445 86.2396 108.445 84.4062V79.75H107.266V78.9375L108.531 78.2656L109.156 76.4375H110.289V78.3594H112.75V79.75H110.289V84.375C110.289 84.8177 110.398 85.1458 110.617 85.3594C110.841 85.5677 111.133 85.6719 111.492 85.6719ZM122.172 87H120.328V81.6875C120.328 81.0208 120.193 80.5234 119.922 80.1953C119.656 79.8672 119.232 79.7031 118.648 79.7031C117.878 79.7031 117.31 79.9349 116.945 80.3984C116.586 80.8568 116.406 81.6276 116.406 82.7109V87H114.57V74.8438H116.406V77.9297C116.406 78.4245 116.375 78.9531 116.312 79.5156H116.43C116.68 79.099 117.026 78.776 117.469 78.5469C117.917 78.3177 118.438 78.2031 119.031 78.2031C121.125 78.2031 122.172 79.2578 122.172 81.3672V87ZM128.5 87.1562C127.156 87.1562 126.104 86.7656 125.344 85.9844C124.589 85.1979 124.211 84.1172 124.211 82.7422C124.211 81.3307 124.562 80.2214 125.266 79.4141C125.969 78.6068 126.935 78.2031 128.164 78.2031C129.305 78.2031 130.206 78.5495 130.867 79.2422C131.529 79.9349 131.859 80.888 131.859 82.1016V83.0938H126.102C126.128 83.9323 126.354 84.5781 126.781 85.0312C127.208 85.4792 127.81 85.7031 128.586 85.7031C129.096 85.7031 129.57 85.6562 130.008 85.5625C130.451 85.4635 130.924 85.3021 131.43 85.0781V86.5703C130.982 86.7839 130.529 86.9349 130.07 87.0234C129.612 87.112 129.089 87.1562 128.5 87.1562ZM128.164 79.5938C127.581 79.5938 127.112 79.7786 126.758 80.1484C126.409 80.5182 126.201 81.0573 126.133 81.7656H130.055C130.044 81.0521 129.872 80.513 129.539 80.1484C129.206 79.7786 128.747 79.5938 128.164 79.5938ZM145.188 87L144.07 82.9688C143.935 82.5417 143.69 81.5495 143.336 79.9922H143.266C142.964 81.3984 142.724 82.3958 142.547 82.9844L141.398 87H139.367L136.945 78.3594H138.82L139.922 82.6172C140.172 83.6693 140.349 84.5703 140.453 85.3203H140.5C140.552 84.9401 140.63 84.5052 140.734 84.0156C140.844 83.5208 140.938 83.151 141.016 82.9062L142.328 78.3594H144.344L145.617 82.9062C145.695 83.1615 145.792 83.5521 145.906 84.0781C146.026 84.6042 146.096 85.013 146.117 85.3047H146.18C146.258 84.6641 146.44 83.7682 146.727 82.6172L147.844 78.3594H149.688L147.25 87H145.188ZM158.844 82.6641C158.844 84.0755 158.482 85.1771 157.758 85.9688C157.034 86.7604 156.026 87.1562 154.734 87.1562C153.927 87.1562 153.214 86.974 152.594 86.6094C151.974 86.2448 151.497 85.7214 151.164 85.0391C150.831 84.3568 150.664 83.5651 150.664 82.6641C150.664 81.263 151.023 80.1693 151.742 79.3828C152.461 78.5964 153.474 78.2031 154.781 78.2031C156.031 78.2031 157.021 78.6068 157.75 79.4141C158.479 80.2161 158.844 81.2995 158.844 82.6641ZM152.555 82.6641C152.555 84.6589 153.292 85.6562 154.766 85.6562C156.224 85.6562 156.953 84.6589 156.953 82.6641C156.953 80.6901 156.219 79.7031 154.75 79.7031C153.979 79.7031 153.419 79.9583 153.07 80.4688C152.727 80.9792 152.555 81.7109 152.555 82.6641ZM165.344 78.2031C165.714 78.2031 166.018 78.2292 166.258 78.2812L166.078 79.9922C165.818 79.9297 165.547 79.8984 165.266 79.8984C164.531 79.8984 163.935 80.138 163.477 80.6172C163.023 81.0964 162.797 81.7188 162.797 82.4844V87H160.961V78.3594H162.398L162.641 79.8828H162.734C163.021 79.3672 163.393 78.9583 163.852 78.6562C164.315 78.3542 164.812 78.2031 165.344 78.2031ZM169.703 87H167.867V74.8438H169.703V87ZM175.25 87.1562C174.172 87.1562 173.331 86.7656 172.727 85.9844C172.122 85.2031 171.82 84.1068 171.82 82.6953C171.82 81.2786 172.125 80.1771 172.734 79.3906C173.349 78.599 174.198 78.2031 175.281 78.2031C176.417 78.2031 177.281 78.6224 177.875 79.4609H177.969C177.88 78.8411 177.836 78.3516 177.836 77.9922V74.8438H179.68V87H178.242L177.922 85.8672H177.836C177.247 86.7266 176.385 87.1562 175.25 87.1562ZM175.742 85.6719C176.497 85.6719 177.047 85.4609 177.391 85.0391C177.734 84.612 177.911 83.9219 177.922 82.9688V82.7109C177.922 81.6224 177.745 80.849 177.391 80.3906C177.036 79.9323 176.482 79.7031 175.727 79.7031C175.081 79.7031 174.583 79.9661 174.234 80.4922C173.885 81.013 173.711 81.7578 173.711 82.7266C173.711 83.6849 173.88 84.4167 174.219 84.9219C174.557 85.4219 175.065 85.6719 175.742 85.6719Z" fill="black"/>
<path d="M3.4209 128L0.549805 120.569H1.24707L3.16797 125.621C3.42318 126.268 3.61458 126.833 3.74219 127.316H3.7832C3.97005 126.697 4.16146 126.127 4.35742 125.607L6.27832 120.569H6.97559L4.10449 128H3.4209ZM8.89648 128H8.21973V120.569H8.89648V128ZM8.12402 118.505C8.12402 118.067 8.26758 117.849 8.55469 117.849C8.69596 117.849 8.80534 117.906 8.88281 118.02C8.96484 118.133 9.00586 118.295 9.00586 118.505C9.00586 118.71 8.96484 118.872 8.88281 118.99C8.80534 119.109 8.69596 119.168 8.55469 119.168C8.26758 119.168 8.12402 118.947 8.12402 118.505ZM15.9033 128L15.7324 126.824H15.6777C15.304 127.303 14.9189 127.642 14.5225 127.843C14.1305 128.039 13.6657 128.137 13.1279 128.137C12.3988 128.137 11.8314 127.95 11.4258 127.576C11.0202 127.202 10.8174 126.685 10.8174 126.024C10.8174 125.3 11.1182 124.737 11.7197 124.336C12.3258 123.935 13.2008 123.723 14.3447 123.7L15.7598 123.659V123.167C15.7598 122.461 15.6162 121.927 15.3291 121.567C15.042 121.207 14.5794 121.027 13.9414 121.027C13.2533 121.027 12.54 121.219 11.8018 121.602L11.5488 121.014C12.3646 120.631 13.1712 120.439 13.9688 120.439C14.7845 120.439 15.3929 120.651 15.7939 121.075C16.1995 121.499 16.4023 122.16 16.4023 123.058V128H15.9033ZM13.1689 127.521C13.9619 127.521 14.5863 127.296 15.042 126.845C15.5023 126.389 15.7324 125.758 15.7324 124.951V124.22L14.4336 124.274C13.39 124.325 12.6449 124.489 12.1982 124.767C11.7562 125.04 11.5352 125.468 11.5352 126.052C11.5352 126.517 11.6764 126.879 11.959 127.139C12.2461 127.394 12.6494 127.521 13.1689 127.521ZM24.0791 128L21.208 120.569H21.9053L23.8262 125.621C24.0814 126.268 24.2728 126.833 24.4004 127.316H24.4414C24.6283 126.697 24.8197 126.127 25.0156 125.607L26.9365 120.569H27.6338L24.7627 128H24.0791ZM29.5547 128H28.8779V120.569H29.5547V128ZM28.7822 118.505C28.7822 118.067 28.9258 117.849 29.2129 117.849C29.3542 117.849 29.4635 117.906 29.541 118.02C29.623 118.133 29.6641 118.295 29.6641 118.505C29.6641 118.71 29.623 118.872 29.541 118.99C29.4635 119.109 29.3542 119.168 29.2129 119.168C28.9258 119.168 28.7822 118.947 28.7822 118.505ZM34.7705 120.426C35.3083 120.426 35.7731 120.524 36.165 120.72C36.557 120.916 36.9079 121.251 37.2178 121.725H37.2588C37.2314 121.15 37.2178 120.588 37.2178 120.036V117.363H37.8877V128H37.4434L37.2725 126.865H37.2178C36.6527 127.713 35.8415 128.137 34.7842 128.137C33.7588 128.137 32.9749 127.818 32.4326 127.18C31.8903 126.542 31.6191 125.612 31.6191 124.391C31.6191 123.105 31.888 122.123 32.4258 121.444C32.9635 120.765 33.7451 120.426 34.7705 120.426ZM34.7705 121.041C33.9593 121.041 33.3486 121.326 32.9385 121.896C32.5329 122.465 32.3301 123.292 32.3301 124.377C32.3301 126.482 33.1481 127.535 34.7842 127.535C35.6227 127.535 36.238 127.291 36.6299 126.804C37.0218 126.316 37.2178 125.512 37.2178 124.391V124.274C37.2178 123.126 37.0241 122.301 36.6367 121.8C36.2539 121.294 35.6318 121.041 34.7705 121.041ZM43.3906 128.137C42.3105 128.137 41.4674 127.804 40.8613 127.139C40.2598 126.473 39.959 125.541 39.959 124.343C39.959 123.158 40.2507 122.21 40.834 121.499C41.4173 120.784 42.2035 120.426 43.1924 120.426C44.0674 120.426 44.7578 120.731 45.2637 121.342C45.7695 121.952 46.0225 122.782 46.0225 123.83V124.377H40.6699C40.679 125.398 40.916 126.177 41.3809 126.715C41.8503 127.253 42.5202 127.521 43.3906 127.521C43.8145 127.521 44.1859 127.492 44.5049 127.433C44.8285 127.373 45.2363 127.246 45.7285 127.05V127.665C45.3092 127.847 44.9219 127.97 44.5664 128.034C44.2109 128.103 43.819 128.137 43.3906 128.137ZM43.1924 121.027C42.4769 121.027 41.9027 121.264 41.4697 121.738C41.0368 122.208 40.7839 122.887 40.7109 123.775H45.3047C45.3047 122.914 45.1178 122.242 44.7441 121.759C44.3704 121.271 43.8532 121.027 43.1924 121.027ZM54.2188 124.274C54.2188 125.487 53.9248 126.435 53.3369 127.118C52.749 127.797 51.9378 128.137 50.9033 128.137C50.2516 128.137 49.6774 127.979 49.1807 127.665C48.6839 127.351 48.3034 126.899 48.0391 126.312C47.7747 125.724 47.6426 125.045 47.6426 124.274C47.6426 123.062 47.9365 122.119 48.5244 121.444C49.1123 120.765 49.9189 120.426 50.9443 120.426C51.9652 120.426 52.765 120.77 53.3438 121.458C53.9271 122.142 54.2188 123.08 54.2188 124.274ZM48.3535 124.274C48.3535 125.295 48.5768 126.093 49.0234 126.667C49.4746 127.237 50.1104 127.521 50.9307 127.521C51.751 127.521 52.3844 127.237 52.8311 126.667C53.2822 126.093 53.5078 125.295 53.5078 124.274C53.5078 123.249 53.2799 122.454 52.8242 121.889C52.373 121.324 51.7373 121.041 50.917 121.041C50.0967 121.041 49.4632 121.324 49.0166 121.889C48.5745 122.449 48.3535 123.244 48.3535 124.274ZM62.8799 128.137C61.818 128.137 60.9863 127.802 60.3848 127.132C59.7832 126.462 59.4824 125.528 59.4824 124.329C59.4824 123.099 59.7946 122.142 60.4189 121.458C61.0433 120.77 61.8978 120.426 62.9824 120.426C63.625 120.426 64.2402 120.537 64.8281 120.761L64.6436 121.362C64.001 121.148 63.4427 121.041 62.9688 121.041C62.0573 121.041 61.3669 121.324 60.8975 121.889C60.4281 122.449 60.1934 123.258 60.1934 124.315C60.1934 125.318 60.4281 126.104 60.8975 126.674C61.3669 127.239 62.0231 127.521 62.8662 127.521C63.5407 127.521 64.1673 127.401 64.7461 127.159V127.788C64.2721 128.021 63.6501 128.137 62.8799 128.137ZM71.083 128L70.9121 126.824H70.8574C70.4837 127.303 70.0986 127.642 69.7021 127.843C69.3102 128.039 68.8454 128.137 68.3076 128.137C67.5785 128.137 67.0111 127.95 66.6055 127.576C66.1999 127.202 65.9971 126.685 65.9971 126.024C65.9971 125.3 66.2979 124.737 66.8994 124.336C67.5055 123.935 68.3805 123.723 69.5244 123.7L70.9395 123.659V123.167C70.9395 122.461 70.7959 121.927 70.5088 121.567C70.2217 121.207 69.7591 121.027 69.1211 121.027C68.4329 121.027 67.7197 121.219 66.9814 121.602L66.7285 121.014C67.5443 120.631 68.3509 120.439 69.1484 120.439C69.9642 120.439 70.5726 120.651 70.9736 121.075C71.3792 121.499 71.582 122.16 71.582 123.058V128H71.083ZM68.3486 127.521C69.1416 127.521 69.766 127.296 70.2217 126.845C70.682 126.389 70.9121 125.758 70.9121 124.951V124.22L69.6133 124.274C68.5697 124.325 67.8245 124.489 67.3779 124.767C66.9359 125.04 66.7148 125.468 66.7148 126.052C66.7148 126.517 66.8561 126.879 67.1387 127.139C67.4258 127.394 67.8291 127.521 68.3486 127.521ZM74.6719 128H73.9951V117.363H74.6719V128ZM77.8438 128H77.167V117.363H77.8438V128ZM88.4873 128L88.3164 126.824H88.2617C87.888 127.303 87.5029 127.642 87.1064 127.843C86.7145 128.039 86.2497 128.137 85.7119 128.137C84.9827 128.137 84.4154 127.95 84.0098 127.576C83.6042 127.202 83.4014 126.685 83.4014 126.024C83.4014 125.3 83.7021 124.737 84.3037 124.336C84.9098 123.935 85.7848 123.723 86.9287 123.7L88.3438 123.659V123.167C88.3438 122.461 88.2002 121.927 87.9131 121.567C87.626 121.207 87.1634 121.027 86.5254 121.027C85.8372 121.027 85.124 121.219 84.3857 121.602L84.1328 121.014C84.9486 120.631 85.7552 120.439 86.5527 120.439C87.3685 120.439 87.9769 120.651 88.3779 121.075C88.7835 121.499 88.9863 122.16 88.9863 123.058V128H88.4873ZM85.7529 127.521C86.5459 127.521 87.1702 127.296 87.626 126.845C88.0863 126.389 88.3164 125.758 88.3164 124.951V124.22L87.0176 124.274C85.974 124.325 85.2288 124.489 84.7822 124.767C84.3402 125.04 84.1191 125.468 84.1191 126.052C84.1191 126.517 84.2604 126.879 84.543 127.139C84.8301 127.394 85.2334 127.521 85.7529 127.521ZM96.5811 128V123.181C96.5811 122.433 96.4238 121.891 96.1094 121.554C95.7949 121.212 95.3073 121.041 94.6465 121.041C93.7578 121.041 93.1061 121.267 92.6914 121.718C92.2812 122.164 92.0762 122.891 92.0762 123.898V128H91.3994V120.569H91.9736L92.1035 121.588H92.1445C92.6276 120.813 93.4867 120.426 94.7217 120.426C96.4079 120.426 97.251 121.33 97.251 123.14V128H96.5811ZM102.378 120.426C102.916 120.426 103.381 120.524 103.772 120.72C104.164 120.916 104.515 121.251 104.825 121.725H104.866C104.839 121.15 104.825 120.588 104.825 120.036V117.363H105.495V128H105.051L104.88 126.865H104.825C104.26 127.713 103.449 128.137 102.392 128.137C101.366 128.137 100.582 127.818 100.04 127.18C99.4977 126.542 99.2266 125.612 99.2266 124.391C99.2266 123.105 99.4954 122.123 100.033 121.444C100.571 120.765 101.353 120.426 102.378 120.426ZM102.378 121.041C101.567 121.041 100.956 121.326 100.546 121.896C100.14 122.465 99.9375 123.292 99.9375 124.377C99.9375 126.482 100.756 127.535 102.392 127.535C103.23 127.535 103.845 127.291 104.237 126.804C104.629 126.316 104.825 125.512 104.825 124.391V124.274C104.825 123.126 104.632 122.301 104.244 121.8C103.861 121.294 103.239 121.041 102.378 121.041ZM116.146 128L115.975 126.824H115.92C115.546 127.303 115.161 127.642 114.765 127.843C114.373 128.039 113.908 128.137 113.37 128.137C112.641 128.137 112.074 127.95 111.668 127.576C111.262 127.202 111.06 126.685 111.06 126.024C111.06 125.3 111.36 124.737 111.962 124.336C112.568 123.935 113.443 123.723 114.587 123.7L116.002 123.659V123.167C116.002 122.461 115.858 121.927 115.571 121.567C115.284 121.207 114.822 121.027 114.184 121.027C113.495 121.027 112.782 121.219 112.044 121.602L111.791 121.014C112.607 120.631 113.413 120.439 114.211 120.439C115.027 120.439 115.635 120.651 116.036 121.075C116.442 121.499 116.645 122.16 116.645 123.058V128H116.146ZM113.411 127.521C114.204 127.521 114.828 127.296 115.284 126.845C115.744 126.389 115.975 125.758 115.975 124.951V124.22L114.676 124.274C113.632 124.325 112.887 124.489 112.44 124.767C111.998 125.04 111.777 125.468 111.777 126.052C111.777 126.517 111.919 126.879 112.201 127.139C112.488 127.394 112.892 127.521 113.411 127.521ZM125.415 120.426C125.953 120.426 126.418 120.524 126.81 120.72C127.201 120.916 127.552 121.251 127.862 121.725H127.903C127.876 121.15 127.862 120.588 127.862 120.036V117.363H128.532V128H128.088L127.917 126.865H127.862C127.297 127.713 126.486 128.137 125.429 128.137C124.403 128.137 123.619 127.818 123.077 127.18C122.535 126.542 122.264 125.612 122.264 124.391C122.264 123.105 122.533 122.123 123.07 121.444C123.608 120.765 124.39 120.426 125.415 120.426ZM125.415 121.041C124.604 121.041 123.993 121.326 123.583 121.896C123.177 122.465 122.975 123.292 122.975 124.377C122.975 126.482 123.793 127.535 125.429 127.535C126.267 127.535 126.882 127.291 127.274 126.804C127.666 126.316 127.862 125.512 127.862 124.391V124.274C127.862 123.126 127.669 122.301 127.281 121.8C126.898 121.294 126.276 121.041 125.415 121.041ZM134.035 128.137C132.955 128.137 132.112 127.804 131.506 127.139C130.904 126.473 130.604 125.541 130.604 124.343C130.604 123.158 130.895 122.21 131.479 121.499C132.062 120.784 132.848 120.426 133.837 120.426C134.712 120.426 135.402 120.731 135.908 121.342C136.414 121.952 136.667 122.782 136.667 123.83V124.377H131.314C131.324 125.398 131.561 126.177 132.025 126.715C132.495 127.253 133.165 127.521 134.035 127.521C134.459 127.521 134.83 127.492 135.149 127.433C135.473 127.373 135.881 127.246 136.373 127.05V127.665C135.954 127.847 135.566 127.97 135.211 128.034C134.855 128.103 134.464 128.137 134.035 128.137ZM133.837 121.027C133.121 121.027 132.547 121.264 132.114 121.738C131.681 122.208 131.428 122.887 131.355 123.775H135.949C135.949 122.914 135.762 122.242 135.389 121.759C135.015 121.271 134.498 121.027 133.837 121.027ZM143.325 126.065C143.325 126.731 143.072 127.243 142.566 127.604C142.061 127.959 141.343 128.137 140.413 128.137C139.42 128.137 138.631 127.984 138.048 127.679V126.947C138.795 127.321 139.584 127.508 140.413 127.508C141.147 127.508 141.703 127.387 142.081 127.146C142.464 126.899 142.655 126.574 142.655 126.168C142.655 125.794 142.503 125.48 142.197 125.225C141.896 124.969 141.4 124.719 140.707 124.473C139.964 124.204 139.442 123.974 139.142 123.782C138.841 123.586 138.613 123.368 138.458 123.126C138.308 122.88 138.232 122.581 138.232 122.23C138.232 121.674 138.465 121.235 138.93 120.911C139.399 120.588 140.053 120.426 140.892 120.426C141.694 120.426 142.455 120.576 143.175 120.877L142.922 121.492C142.193 121.191 141.516 121.041 140.892 121.041C140.285 121.041 139.805 121.141 139.449 121.342C139.094 121.542 138.916 121.82 138.916 122.176C138.916 122.563 139.053 122.873 139.326 123.105C139.604 123.338 140.144 123.598 140.946 123.885C141.616 124.126 142.104 124.345 142.409 124.541C142.715 124.732 142.942 124.951 143.093 125.197C143.248 125.443 143.325 125.733 143.325 126.065ZM145.916 128H145.239V120.569H145.916V128ZM145.144 118.505C145.144 118.067 145.287 117.849 145.574 117.849C145.715 117.849 145.825 117.906 145.902 118.02C145.984 118.133 146.025 118.295 146.025 118.505C146.025 118.71 145.984 118.872 145.902 118.99C145.825 119.109 145.715 119.168 145.574 119.168C145.287 119.168 145.144 118.947 145.144 118.505ZM154.208 120.569V121.041L152.67 121.137C153.08 121.647 153.285 122.208 153.285 122.818C153.285 123.534 153.046 124.115 152.567 124.562C152.093 125.004 151.455 125.225 150.653 125.225C150.316 125.225 150.079 125.211 149.942 125.184C149.674 125.325 149.468 125.491 149.327 125.683C149.186 125.874 149.115 126.077 149.115 126.291C149.115 126.528 149.204 126.701 149.382 126.811C149.564 126.92 149.867 126.975 150.291 126.975H151.59C152.396 126.975 153.014 127.139 153.442 127.467C153.871 127.79 154.085 128.271 154.085 128.909C154.085 129.693 153.766 130.297 153.128 130.721C152.494 131.149 151.59 131.363 150.414 131.363C149.48 131.363 148.755 131.183 148.24 130.823C147.73 130.463 147.475 129.962 147.475 129.319C147.475 128.809 147.632 128.385 147.946 128.048C148.265 127.711 148.696 127.48 149.238 127.357C149.015 127.262 148.835 127.127 148.698 126.954C148.566 126.776 148.5 126.574 148.5 126.346C148.5 125.849 148.817 125.411 149.45 125.033C149.017 124.855 148.68 124.577 148.438 124.199C148.197 123.816 148.076 123.379 148.076 122.887C148.076 122.144 148.311 121.549 148.78 121.103C149.254 120.651 149.892 120.426 150.694 120.426C151.182 120.426 151.56 120.474 151.829 120.569H154.208ZM148.192 129.258C148.192 130.279 148.951 130.789 150.469 130.789C152.419 130.789 153.395 130.167 153.395 128.923C153.395 128.476 153.242 128.153 152.937 127.952C152.631 127.752 152.137 127.651 151.453 127.651H150.236C148.874 127.651 148.192 128.187 148.192 129.258ZM148.76 122.887C148.76 123.461 148.933 123.908 149.279 124.227C149.63 124.541 150.097 124.698 150.681 124.698C151.3 124.698 151.774 124.541 152.103 124.227C152.435 123.912 152.602 123.456 152.602 122.859C152.602 122.226 152.431 121.752 152.089 121.438C151.752 121.118 151.278 120.959 150.667 120.959C150.075 120.959 149.607 121.13 149.266 121.472C148.928 121.809 148.76 122.281 148.76 122.887ZM160.921 128V123.181C160.921 122.433 160.764 121.891 160.449 121.554C160.135 121.212 159.647 121.041 158.986 121.041C158.098 121.041 157.446 121.267 157.031 121.718C156.621 122.164 156.416 122.891 156.416 123.898V128H155.739V120.569H156.313L156.443 121.588H156.484C156.967 120.813 157.826 120.426 159.062 120.426C160.748 120.426 161.591 121.33 161.591 123.14V128H160.921ZM166.998 128.137C165.918 128.137 165.075 127.804 164.469 127.139C163.867 126.473 163.566 125.541 163.566 124.343C163.566 123.158 163.858 122.21 164.441 121.499C165.025 120.784 165.811 120.426 166.8 120.426C167.675 120.426 168.365 120.731 168.871 121.342C169.377 121.952 169.63 122.782 169.63 123.83V124.377H164.277C164.286 125.398 164.523 126.177 164.988 126.715C165.458 127.253 166.128 127.521 166.998 127.521C167.422 127.521 167.793 127.492 168.112 127.433C168.436 127.373 168.844 127.246 169.336 127.05V127.665C168.917 127.847 168.529 127.97 168.174 128.034C167.818 128.103 167.426 128.137 166.998 128.137ZM166.8 121.027C166.084 121.027 165.51 121.264 165.077 121.738C164.644 122.208 164.391 122.887 164.318 123.775H168.912C168.912 122.914 168.725 122.242 168.352 121.759C167.978 121.271 167.461 121.027 166.8 121.027ZM174.606 120.426C174.921 120.426 175.258 120.458 175.618 120.521L175.488 121.171C175.178 121.093 174.857 121.055 174.524 121.055C173.891 121.055 173.371 121.324 172.966 121.861C172.56 122.399 172.357 123.078 172.357 123.898V128H171.681V120.569H172.255L172.323 121.909H172.371C172.676 121.362 173.002 120.979 173.349 120.761C173.695 120.537 174.114 120.426 174.606 120.426ZM177.642 118.006L177.724 118.143C177.382 119.35 176.985 120.446 176.534 121.431H176.09C176.222 120.993 176.361 120.444 176.507 119.783C176.653 119.118 176.764 118.525 176.842 118.006H177.642ZM183.78 126.065C183.78 126.731 183.527 127.243 183.021 127.604C182.516 127.959 181.798 128.137 180.868 128.137C179.875 128.137 179.086 127.984 178.503 127.679V126.947C179.25 127.321 180.039 127.508 180.868 127.508C181.602 127.508 182.158 127.387 182.536 127.146C182.919 126.899 183.11 126.574 183.11 126.168C183.11 125.794 182.958 125.48 182.652 125.225C182.352 124.969 181.855 124.719 181.162 124.473C180.419 124.204 179.897 123.974 179.597 123.782C179.296 123.586 179.068 123.368 178.913 123.126C178.763 122.88 178.688 122.581 178.688 122.23C178.688 121.674 178.92 121.235 179.385 120.911C179.854 120.588 180.508 120.426 181.347 120.426C182.149 120.426 182.91 120.576 183.63 120.877L183.377 121.492C182.648 121.191 181.971 121.041 181.347 121.041C180.741 121.041 180.26 121.141 179.904 121.342C179.549 121.542 179.371 121.82 179.371 122.176C179.371 122.563 179.508 122.873 179.781 123.105C180.059 123.338 180.599 123.598 181.401 123.885C182.071 124.126 182.559 124.345 182.864 124.541C183.17 124.732 183.397 124.951 183.548 125.197C183.703 125.443 183.78 125.733 183.78 126.065ZM61.5195 148.137C60.4577 148.137 59.626 147.802 59.0244 147.132C58.4229 146.462 58.1221 145.528 58.1221 144.329C58.1221 143.099 58.4342 142.142 59.0586 141.458C59.6829 140.77 60.5374 140.426 61.6221 140.426C62.2646 140.426 62.8799 140.537 63.4678 140.761L63.2832 141.362C62.6406 141.148 62.0824 141.041 61.6084 141.041C60.6969 141.041 60.0065 141.324 59.5371 141.889C59.0677 142.449 58.833 143.258 58.833 144.315C58.833 145.318 59.0677 146.104 59.5371 146.674C60.0065 147.239 60.6628 147.521 61.5059 147.521C62.1803 147.521 62.807 147.401 63.3857 147.159V147.788C62.9118 148.021 62.2897 148.137 61.5195 148.137ZM71.3564 144.274C71.3564 145.487 71.0625 146.435 70.4746 147.118C69.8867 147.797 69.0755 148.137 68.041 148.137C67.3893 148.137 66.8151 147.979 66.3184 147.665C65.8216 147.351 65.4411 146.899 65.1768 146.312C64.9124 145.724 64.7803 145.045 64.7803 144.274C64.7803 143.062 65.0742 142.119 65.6621 141.444C66.25 140.765 67.0566 140.426 68.082 140.426C69.1029 140.426 69.9027 140.77 70.4814 141.458C71.0648 142.142 71.3564 143.08 71.3564 144.274ZM65.4912 144.274C65.4912 145.295 65.7145 146.093 66.1611 146.667C66.6123 147.237 67.248 147.521 68.0684 147.521C68.8887 147.521 69.5221 147.237 69.9688 146.667C70.4199 146.093 70.6455 145.295 70.6455 144.274C70.6455 143.249 70.4176 142.454 69.9619 141.889C69.5107 141.324 68.875 141.041 68.0547 141.041C67.2344 141.041 66.6009 141.324 66.1543 141.889C65.7122 142.449 65.4912 143.244 65.4912 144.274ZM82.6973 148V143.126C82.6973 142.401 82.556 141.873 82.2734 141.54C81.9909 141.207 81.5579 141.041 80.9746 141.041C80.2135 141.041 79.6507 141.251 79.2861 141.67C78.9215 142.089 78.7393 142.748 78.7393 143.646V148H78.0488V142.921C78.0488 141.668 77.4746 141.041 76.3262 141.041C75.5469 141.041 74.9795 141.269 74.624 141.725C74.2686 142.176 74.0908 142.9 74.0908 143.898V148H73.4141V140.569H73.9746L74.1182 141.588H74.1592C74.3643 141.219 74.6559 140.934 75.0342 140.733C75.4124 140.528 75.8294 140.426 76.2852 140.426C77.4564 140.426 78.2083 140.866 78.541 141.745H78.5684C78.8099 141.321 79.1335 140.995 79.5391 140.768C79.9492 140.54 80.4141 140.426 80.9336 140.426C81.7448 140.426 82.3532 140.642 82.7588 141.075C83.1644 141.508 83.3672 142.196 83.3672 143.14V148H82.6973ZM95.0566 148V143.126C95.0566 142.401 94.9154 141.873 94.6328 141.54C94.3503 141.207 93.9173 141.041 93.334 141.041C92.5729 141.041 92.0101 141.251 91.6455 141.67C91.2809 142.089 91.0986 142.748 91.0986 143.646V148H90.4082V142.921C90.4082 141.668 89.834 141.041 88.6855 141.041C87.9062 141.041 87.3389 141.269 86.9834 141.725C86.6279 142.176 86.4502 142.9 86.4502 143.898V148H85.7734V140.569H86.334L86.4775 141.588H86.5186C86.7236 141.219 87.0153 140.934 87.3936 140.733C87.7718 140.528 88.1888 140.426 88.6445 140.426C89.8158 140.426 90.5677 140.866 90.9004 141.745H90.9277C91.1693 141.321 91.4928 140.995 91.8984 140.768C92.3086 140.54 92.7734 140.426 93.293 140.426C94.1042 140.426 94.7126 140.642 95.1182 141.075C95.5238 141.508 95.7266 142.196 95.7266 143.14V148H95.0566ZM98.7207 140.569V145.382C98.7207 146.129 98.8779 146.674 99.1924 147.016C99.5068 147.353 99.9945 147.521 100.655 147.521C101.539 147.521 102.189 147.298 102.604 146.852C103.023 146.405 103.232 145.678 103.232 144.671V140.569H103.902V148H103.328L103.205 146.975H103.164C102.681 147.749 101.822 148.137 100.587 148.137C98.8962 148.137 98.0508 147.232 98.0508 145.423V140.569H98.7207ZM111.572 148V143.181C111.572 142.433 111.415 141.891 111.101 141.554C110.786 141.212 110.299 141.041 109.638 141.041C108.749 141.041 108.097 141.267 107.683 141.718C107.272 142.164 107.067 142.891 107.067 143.898V148H106.391V140.569H106.965L107.095 141.588H107.136C107.619 140.813 108.478 140.426 109.713 140.426C111.399 140.426 112.242 141.33 112.242 143.14V148H111.572ZM115.325 148H114.648V140.569H115.325V148ZM114.553 138.505C114.553 138.067 114.696 137.849 114.983 137.849C115.125 137.849 115.234 137.906 115.312 138.02C115.394 138.133 115.435 138.295 115.435 138.505C115.435 138.71 115.394 138.872 115.312 138.99C115.234 139.109 115.125 139.168 114.983 139.168C114.696 139.168 114.553 138.947 114.553 138.505ZM119.782 147.535C120.211 147.535 120.584 147.499 120.903 147.426V147.973C120.575 148.082 120.197 148.137 119.769 148.137C119.112 148.137 118.627 147.961 118.312 147.61C118.003 147.259 117.848 146.708 117.848 145.956V141.157H116.747V140.761L117.848 140.453L118.189 138.771H118.538V140.569H120.719V141.157H118.538V145.86C118.538 146.43 118.638 146.852 118.839 147.125C119.039 147.398 119.354 147.535 119.782 147.535ZM121.266 140.569H121.963L123.535 144.739C124.014 146.02 124.317 146.883 124.444 147.33H124.485C124.677 146.742 124.989 145.865 125.422 144.698L126.994 140.569H127.691L124.362 149.203C124.093 149.905 123.868 150.379 123.686 150.625C123.503 150.871 123.289 151.056 123.043 151.179C122.801 151.302 122.507 151.363 122.161 151.363C121.901 151.363 121.612 151.315 121.293 151.22V150.632C121.557 150.705 121.842 150.741 122.147 150.741C122.38 150.741 122.585 150.687 122.763 150.577C122.94 150.468 123.1 150.297 123.241 150.064C123.387 149.837 123.553 149.472 123.74 148.971C123.932 148.474 124.055 148.15 124.109 148L121.266 140.569Z" fill="black"/>
<rect x="10" y="102" width="165" height="1" fill="#323232"/>
<path d="M113.818 9.93845C113.558 9.65123 113.114 9.62942 112.826 9.88986L110.751 11.7716C110.664 11.8504 110.529 11.8439 110.45 11.7569L108.932 10.0833C108.672 9.79606 108.228 9.77425 107.941 10.0347C107.653 10.2951 107.632 10.7392 107.892 11.0265L109.13 12.3924L107.037 14.2909C106.931 14.3862 106.858 14.5111 106.825 14.6492L106.249 17.0812C105.938 18.3942 105.245 19.5672 104.245 20.4736L100.129 24.2058C99.713 24.5829 99.0679 24.5512 98.6907 24.1354C98.5081 23.9339 98.4147 23.6733 98.428 23.4017C98.4413 23.1301 98.5596 22.8799 98.7611 22.6972L100.557 21.0693C100.844 20.8089 100.866 20.3648 100.605 20.0775C100.345 19.7903 99.9007 19.7685 99.6134 20.0289L97.8179 21.6568C97.5342 21.9141 97.3204 22.2279 97.1862 22.575C96.8867 22.4342 96.5575 22.3596 96.2168 22.3593H96.2142C95.8611 22.3593 95.5264 22.4398 95.2274 22.5834C95.1537 22.3498 95.0433 22.1326 94.9032 21.9379L96.6559 20.3487C96.9432 20.0883 96.965 19.6443 96.7045 19.3569C96.4441 19.0697 96 19.0479 95.7127 19.3084L94.7183 20.2099C94.6023 19.8943 94.4151 19.5999 94.1578 19.3513L93.6033 18.8156L94.5027 18.0002C94.79 17.7398 94.8118 17.2958 94.5513 17.0085C94.2909 16.7211 93.8468 16.6994 93.5595 16.9599L92.5912 17.8378L90.6138 15.9274C90.9262 15.8044 91.218 15.615 91.4661 15.3583C92.3392 14.4544 92.3671 13.0408 91.5673 12.1039L94.5504 9.39921C95.9702 8.11197 97.7126 7.22654 99.5894 6.83858C99.7123 6.81321 99.826 6.75536 99.919 6.6711L102.128 4.66834L105.88 8.80671C106.018 8.95959 106.209 9.03719 106.4 9.03719C106.568 9.03719 106.737 8.97709 106.872 8.8552C107.159 8.59476 107.181 8.15073 106.92 7.86342L102.889 3.41733C102.81 3.33026 102.817 3.19527 102.904 3.11635L104.979 1.23454C105.267 0.974096 105.288 0.530068 105.028 0.242755C104.767 -0.0445574 104.323 -0.0662767 104.036 0.194167L101.961 2.07598C101.576 2.4247 101.4 2.91778 101.437 3.39935L99.1155 5.50407C97.0656 5.96214 95.1647 6.94662 93.6073 8.35875L90.5638 11.1182L87.4108 8.07284C86.2354 6.93726 84.7622 6.19384 83.1505 5.923L80.9005 5.54488L78.7795 3.49578C78.8316 3.01562 78.6711 2.51719 78.2977 2.15639L76.283 0.209895C76.0041 -0.0595363 75.5596 -0.0519532 75.2901 0.227027C75.0207 0.505914 75.0284 0.950411 75.3073 1.21984L77.322 3.16634C77.4066 3.24807 77.4089 3.38325 77.3273 3.46779L69.5062 11.5634C69.4554 11.6159 69.3969 11.6277 69.3566 11.6283C69.3169 11.6276 69.2572 11.6192 69.2048 11.5685L67.19 9.62202C66.9111 9.35259 66.4666 9.36027 66.1972 9.63916C65.9277 9.91804 65.9354 10.3625 66.2143 10.632L68.229 12.5785C68.5329 12.8721 68.9307 13.0327 69.3521 13.0327C69.3616 13.0327 69.3712 13.0326 69.3807 13.0324C69.4498 13.0312 69.5178 13.0242 69.5851 13.0145L71.8377 15.1909C72.4303 17.2059 73.5383 19.0376 75.0502 20.4983L76.5155 21.914C76.6518 22.0456 76.8276 22.1112 77.0033 22.1112C77.187 22.1112 77.3705 22.0395 77.5083 21.8969C77.7778 21.618 77.7701 21.1735 77.4912 20.9041L76.0259 19.4884C74.6476 18.1568 73.6488 16.4767 73.1378 14.6296C73.1044 14.5088 73.0391 14.399 72.9489 14.3119L70.8045 12.2403L78.0483 4.7423L80.0812 6.7063C80.1833 6.80488 80.3127 6.87023 80.4527 6.89373L82.9175 7.30798C84.2481 7.53164 85.4645 8.1453 86.4349 9.08288L90.431 12.9435C90.8348 13.3336 90.8459 13.9794 90.4559 14.383C90.1082 14.7429 89.5577 14.79 89.1561 14.5198L87.2732 12.7239C86.9943 12.4544 86.5498 12.462 86.2804 12.741C86.011 13.0199 86.0186 13.4644 86.2975 13.7338L93.1819 20.3617C93.3666 20.5401 93.4576 20.7797 93.4506 21.0197C93.3199 20.9962 93.1855 20.9832 93.0481 20.9831H93.0456C92.7313 20.9831 92.4316 21.0468 92.1587 21.1621C92.1211 20.6122 91.8899 20.1002 91.4968 19.7062C91.0653 19.2738 90.4912 19.0353 89.8804 19.0346H89.8776C89.6854 19.0346 89.4967 19.0583 89.3149 19.1041L86.8136 16.6876C86.5347 16.4182 86.0902 16.4258 85.8208 16.7048C85.5514 16.9836 85.5591 17.4281 85.8379 17.6976L88.0999 19.8829C87.9115 20.1149 87.7721 20.3783 87.6874 20.6606C87.3854 20.5171 87.053 20.4411 86.7088 20.4408H86.7062C86.5322 20.4408 86.3614 20.4607 86.1958 20.4983L84.6111 18.9674C84.3322 18.698 83.8877 18.7056 83.6183 18.9845C83.3488 19.2634 83.3565 19.7079 83.6354 19.9774L84.9574 21.2545C84.6099 21.6656 84.4197 22.1806 84.4192 22.7253L84.4187 23.1891L82.4086 21.2472C82.1298 20.9777 81.6853 20.9853 81.4158 21.2643C81.1464 21.5432 81.1541 21.9877 81.433 22.2571L84.4166 25.1395L84.414 27.3786C84.2433 27.3495 84.0819 27.2714 83.9512 27.1451L79.6436 22.9836C79.3648 22.7142 78.9202 22.7218 78.6508 23.0007C78.3814 23.2796 78.3891 23.7241 78.668 23.9935L82.4217 27.62C82.1494 27.7392 81.8988 27.9087 81.6822 28.1249C81.2241 28.5818 80.9715 29.1899 80.9708 29.837L80.9646 35.3933C80.9627 37.0276 81.45 38.6043 82.3735 39.9526L83.6627 41.8349L83.6595 44.7828C83.6057 44.8245 83.5534 44.8684 83.5045 44.9173C83.1987 45.2224 83.03 45.6284 83.0295 46.0593L83.0263 47.2693C83.0253 47.6571 83.3388 47.9723 83.7266 47.9733H83.7285C84.1154 47.9733 84.4296 47.6602 84.4306 47.2731L84.4338 46.062C84.4339 45.9891 84.4679 45.9399 84.4963 45.9114C84.5248 45.8829 84.5702 45.8473 84.647 45.8491L95.9034 45.8616C96.0209 45.8617 96.1164 45.9575 96.1163 46.074L96.1132 47.2839C96.1122 47.6717 96.4257 47.9868 96.8136 47.9878H96.8155C97.2024 47.9878 97.5166 47.6747 97.5176 47.2875L97.5207 46.0765C97.5213 45.5572 97.2748 45.0953 96.8935 44.7987L96.897 41.6653C97.9365 39.8403 98.4863 37.7713 98.4886 35.6691L98.4893 35.0291C98.4898 34.6412 98.1758 34.3266 97.788 34.3261H97.7872C97.3998 34.3261 97.0855 34.64 97.0851 35.0274L97.0843 35.6674C97.0822 37.5838 96.5657 39.4688 95.5906 41.1186C95.5267 41.2266 95.493 41.3497 95.4929 41.4751L95.4895 44.4568L85.064 44.4452L85.0672 41.6186C85.0673 41.4766 85.0245 41.3381 84.9444 41.221L83.5321 39.1589C82.7695 38.0457 82.3674 36.7441 82.3689 35.3947L82.375 29.8384C82.3753 29.5664 82.4816 29.3108 82.674 29.1187C82.8662 28.927 83.1216 28.8214 83.3931 28.8214H83.3943C83.9558 28.8221 84.412 29.2793 84.4113 29.8406L84.4086 32.2643C84.4082 32.6521 84.7222 32.9668 85.11 32.9672H85.1107C85.4981 32.9672 85.8125 32.6533 85.8129 32.2658L85.8156 29.8421L85.8234 22.7267C85.8237 22.4909 85.9157 22.2693 86.0828 22.1027C86.2494 21.9365 86.4709 21.8449 86.7063 21.8449H86.7073C86.9431 21.8452 87.1647 21.9372 87.3312 22.1042C87.4978 22.2713 87.5893 22.4929 87.5891 22.7288L87.5812 29.8442C87.5808 30.2319 87.8948 30.5467 88.2826 30.5471H88.2833C88.6466 30.5471 88.9455 30.2712 88.9818 29.9175C88.9842 29.8939 88.9855 29.8699 88.9855 29.8458L88.995 21.3207C88.9953 21.0848 89.0873 20.8633 89.2543 20.6967C89.421 20.5304 89.6424 20.4389 89.8778 20.4389H89.8789C90.1147 20.4392 90.3363 20.5312 90.5028 20.6982C90.6694 20.8651 90.7609 21.0869 90.7606 21.3227L90.7512 29.8478C90.7508 30.2356 91.0648 30.5503 91.4526 30.5507H91.4533C91.8166 30.5507 92.1155 30.2748 92.1518 29.9211C92.1542 29.8975 92.1555 29.8736 92.1555 29.8494L92.1628 23.2693C92.163 23.0335 92.2551 22.8119 92.4221 22.6454C92.5887 22.479 92.8102 22.3874 93.0457 22.3874H93.0466C93.5334 22.388 93.929 22.7845 93.9285 23.2713L93.9212 29.8514C93.9208 30.2391 94.2348 30.5539 94.6226 30.5543H94.6233C94.9865 30.5543 95.2855 30.2784 95.3218 29.9247C95.3242 29.9011 95.3254 29.8771 95.3254 29.853L95.3312 24.6451C95.3321 24.159 95.7279 23.7638 96.2141 23.7638H96.215C96.4508 23.7641 96.6724 23.8561 96.839 24.0231C97.0055 24.19 97.0971 24.4118 97.0968 24.6477L97.0886 32.0283C97.0883 32.416 97.4023 32.7308 97.79 32.7312H97.7908C98.1782 32.7312 98.4925 32.4173 98.4929 32.0298L98.4999 25.6832C98.7587 25.7926 99.0374 25.857 99.3264 25.8711C99.3669 25.8731 99.4073 25.8741 99.4476 25.8741C100.05 25.8741 100.623 25.6537 101.072 25.2462L105.188 21.5141C106.399 20.4162 107.238 18.9954 107.615 17.4051L108.141 15.1851L110.325 13.205C110.392 13.2168 110.46 13.2259 110.529 13.2293C110.556 13.2306 110.583 13.2313 110.609 13.2313C111.012 13.2313 111.394 13.084 111.694 12.812L113.769 10.9302C114.057 10.6698 114.078 10.2258 113.818 9.93845Z" fill="black"/>
</svg>
