<svg width="48" height="48" viewBox="0 0 48 48" fill="none" xmlns="http://www.w3.org/2000/svg">
<path d="M47.818 9.93845C47.5576 9.65123 47.1135 9.62942 46.8262 9.88986L44.7508 11.7716C44.6638 11.8504 44.5288 11.8439 44.4498 11.7569L42.9325 10.0833C42.672 9.79606 42.228 9.77425 41.9407 10.0347C41.6534 10.2951 41.6317 10.7392 41.8921 11.0265L43.1305 12.3924L41.0365 14.2909C40.9314 14.3862 40.8576 14.5111 40.825 14.6492L40.2486 17.0812C39.9376 18.3942 39.2448 19.5672 38.2451 20.4736L34.1289 24.2058C33.713 24.5829 33.0679 24.5512 32.6907 24.1354C32.5081 23.9339 32.4147 23.6733 32.428 23.4017C32.4413 23.1301 32.5596 22.8799 32.7611 22.6972L34.5566 21.0693C34.8439 20.8089 34.8656 20.3648 34.6052 20.0775C34.3447 19.7903 33.9007 19.7685 33.6134 20.0289L31.8179 21.6568C31.5342 21.9141 31.3204 22.2279 31.1862 22.575C30.8867 22.4342 30.5575 22.3596 30.2168 22.3593H30.2142C29.8611 22.3593 29.5264 22.4398 29.2274 22.5834C29.1537 22.3498 29.0433 22.1326 28.9032 21.9379L30.6559 20.3487C30.9432 20.0883 30.965 19.6443 30.7045 19.3569C30.4441 19.0697 30 19.0479 29.7127 19.3084L28.7183 20.2099C28.6023 19.8943 28.4151 19.5999 28.1578 19.3513L27.6033 18.8156L28.5027 18.0002C28.79 17.7398 28.8118 17.2958 28.5513 17.0085C28.2909 16.7211 27.8468 16.6994 27.5595 16.9599L26.5912 17.8378L24.6138 15.9274C24.9262 15.8044 25.218 15.615 25.4661 15.3583C26.3392 14.4544 26.3671 13.0408 25.5673 12.1039L28.5504 9.39921C29.9702 8.11197 31.7126 7.22654 33.5894 6.83858C33.7123 6.81321 33.826 6.75536 33.919 6.6711L36.1278 4.66834L39.8799 8.80671C40.0184 8.95959 40.209 9.03719 40.4003 9.03719C40.5684 9.03719 40.7373 8.97709 40.8717 8.8552C41.159 8.59476 41.1807 8.15073 40.9203 7.86342L36.8891 3.41733C36.8102 3.33026 36.8168 3.19527 36.9039 3.11635L38.9793 1.23454C39.2666 0.974096 39.2883 0.530068 39.0279 0.242755C38.7674 -0.0445574 38.3235 -0.0662767 38.0361 0.194167L35.9607 2.07598C35.576 2.4247 35.3999 2.91778 35.4368 3.39935L33.1155 5.50407C31.0656 5.96214 29.1647 6.94662 27.6073 8.35875L24.5638 11.1182L21.4108 8.07284C20.2354 6.93726 18.7622 6.19384 17.1505 5.923L14.9005 5.54488L12.7795 3.49578C12.8316 3.01562 12.6711 2.51719 12.2977 2.15639L10.283 0.209895C10.0041 -0.0595363 9.55958 -0.0519532 9.29014 0.227027C9.02071 0.505914 9.02839 0.950411 9.30728 1.21984L11.322 3.16634C11.4066 3.24807 11.4089 3.38325 11.3273 3.46779L3.50617 11.5634C3.45543 11.6159 3.39692 11.6277 3.35657 11.6283C3.31687 11.6276 3.25724 11.6192 3.20481 11.5685L1.18997 9.62202C0.911087 9.35259 0.46659 9.36027 0.197159 9.63916C-0.0722729 9.91804 -0.0645963 10.3625 0.214291 10.632L2.22904 12.5785C2.53292 12.8721 2.9307 13.0327 3.35207 13.0327C3.36162 13.0327 3.37117 13.0326 3.38072 13.0324C3.44981 13.0312 3.51778 13.0242 3.58509 13.0145L5.83771 15.1909C6.43031 17.2059 7.53828 19.0376 9.0502 20.4983L10.5155 21.914C10.6518 22.0456 10.8276 22.1112 11.0033 22.1112C11.187 22.1112 11.3705 22.0395 11.5083 21.8969C11.7778 21.618 11.7701 21.1735 11.4912 20.9041L10.0259 19.4884C8.64755 18.1568 7.64884 16.4767 7.13778 14.6296C7.10436 14.5088 7.03911 14.399 6.94886 14.3119L4.80455 12.2403L12.0483 4.7423L14.0812 6.7063C14.1833 6.80488 14.3127 6.87023 14.4527 6.89373L16.9175 7.30798C18.2481 7.53164 19.4645 8.1453 20.4349 9.08288L24.431 12.9435C24.8348 13.3336 24.8459 13.9794 24.4559 14.383C24.1082 14.7429 23.5577 14.79 23.1561 14.5198L21.2732 12.7239C20.9943 12.4544 20.5498 12.462 20.2804 12.741C20.011 13.0199 20.0186 13.4644 20.2975 13.7338L27.1819 20.3617C27.3666 20.5401 27.4576 20.7797 27.4506 21.0197C27.3199 20.9962 27.1855 20.9832 27.0481 20.9831H27.0456C26.7313 20.9831 26.4316 21.0468 26.1587 21.1621C26.1211 20.6122 25.8899 20.1002 25.4968 19.7062C25.0653 19.2738 24.4912 19.0353 23.8804 19.0346H23.8776C23.6854 19.0346 23.4967 19.0583 23.3149 19.1041L20.8136 16.6876C20.5347 16.4182 20.0902 16.4258 19.8208 16.7048C19.5514 16.9836 19.5591 17.4281 19.8379 17.6976L22.0999 19.8829C21.9115 20.1149 21.7721 20.3783 21.6874 20.6606C21.3854 20.5171 21.053 20.4411 20.7088 20.4408H20.7062C20.5322 20.4408 20.3614 20.4607 20.1958 20.4983L18.6111 18.9674C18.3322 18.698 17.8877 18.7056 17.6183 18.9845C17.3488 19.2634 17.3565 19.7079 17.6354 19.9774L18.9574 21.2545C18.6099 21.6656 18.4197 22.1806 18.4192 22.7253L18.4187 23.1891L16.4086 21.2472C16.1298 20.9777 15.6853 20.9853 15.4158 21.2643C15.1464 21.5432 15.1541 21.9877 15.433 22.2571L18.4166 25.1395L18.414 27.3786C18.2433 27.3495 18.0819 27.2714 17.9512 27.1451L13.6436 22.9836C13.3648 22.7142 12.9202 22.7218 12.6508 23.0007C12.3814 23.2796 12.3891 23.7241 12.668 23.9935L16.4217 27.62C16.1494 27.7392 15.8988 27.9087 15.6822 28.1249C15.2241 28.5818 14.9715 29.1899 14.9708 29.837L14.9646 35.3933C14.9627 37.0276 15.45 38.6043 16.3735 39.9526L17.6627 41.8349L17.6595 44.7828C17.6057 44.8245 17.5534 44.8684 17.5045 44.9173C17.1987 45.2224 17.03 45.6284 17.0295 46.0593L17.0263 47.2693C17.0253 47.6571 17.3388 47.9723 17.7266 47.9733H17.7285C18.1154 47.9733 18.4296 47.6602 18.4306 47.2731L18.4338 46.062C18.4339 45.9891 18.4679 45.9399 18.4963 45.9114C18.5248 45.8829 18.5702 45.8473 18.647 45.8491L29.9034 45.8616C30.0209 45.8617 30.1164 45.9575 30.1163 46.074L30.1132 47.2839C30.1122 47.6717 30.4257 47.9868 30.8136 47.9878H30.8155C31.2024 47.9878 31.5166 47.6747 31.5176 47.2875L31.5207 46.0765C31.5213 45.5572 31.2748 45.0953 30.8935 44.7987L30.897 41.6653C31.9365 39.8403 32.4863 37.7713 32.4886 35.6691L32.4893 35.0291C32.4898 34.6412 32.1758 34.3266 31.788 34.3261H31.7872C31.3998 34.3261 31.0855 34.64 31.0851 35.0274L31.0843 35.6674C31.0822 37.5838 30.5657 39.4688 29.5906 41.1186C29.5267 41.2266 29.493 41.3497 29.4929 41.4751L29.4895 44.4568L19.064 44.4452L19.0672 41.6186C19.0673 41.4766 19.0245 41.3381 18.9444 41.221L17.5321 39.1589C16.7695 38.0457 16.3674 36.7441 16.3689 35.3947L16.375 29.8384C16.3753 29.5664 16.4816 29.3108 16.674 29.1187C16.8662 28.927 17.1216 28.8214 17.3931 28.8214H17.3943C17.9558 28.8221 18.412 29.2793 18.4113 29.8406L18.4086 32.2643C18.4082 32.6521 18.7222 32.9668 19.11 32.9672H19.1107C19.4981 32.9672 19.8125 32.6533 19.8129 32.2658L19.8156 29.8421L19.8234 22.7267C19.8237 22.4909 19.9157 22.2693 20.0828 22.1027C20.2494 21.9365 20.4709 21.8449 20.7063 21.8449H20.7073C20.9431 21.8452 21.1647 21.9372 21.3312 22.1042C21.4978 22.2713 21.5893 22.4929 21.5891 22.7288L21.5812 29.8442C21.5808 30.2319 21.8948 30.5467 22.2826 30.5471H22.2833C22.6466 30.5471 22.9455 30.2712 22.9818 29.9175C22.9842 29.8939 22.9855 29.8699 22.9855 29.8458L22.995 21.3207C22.9953 21.0848 23.0873 20.8633 23.2543 20.6967C23.421 20.5304 23.6424 20.4389 23.8778 20.4389H23.8789C24.1147 20.4392 24.3363 20.5312 24.5028 20.6982C24.6694 20.8651 24.7609 21.0869 24.7606 21.3227L24.7512 29.8478C24.7508 30.2356 25.0648 30.5503 25.4526 30.5507H25.4533C25.8166 30.5507 26.1155 30.2748 26.1518 29.9211C26.1542 29.8975 26.1555 29.8736 26.1555 29.8494L26.1628 23.2693C26.163 23.0335 26.2551 22.8119 26.4221 22.6454C26.5887 22.479 26.8102 22.3874 27.0457 22.3874H27.0466C27.5334 22.388 27.929 22.7845 27.9285 23.2713L27.9212 29.8514C27.9208 30.2391 28.2348 30.5539 28.6226 30.5543H28.6233C28.9865 30.5543 29.2855 30.2784 29.3218 29.9247C29.3242 29.9011 29.3254 29.8771 29.3254 29.853L29.3312 24.6451C29.3321 24.159 29.7279 23.7638 30.2141 23.7638H30.215C30.4508 23.7641 30.6724 23.8561 30.839 24.0231C31.0055 24.19 31.0971 24.4118 31.0968 24.6477L31.0886 32.0283C31.0883 32.416 31.4023 32.7308 31.79 32.7312H31.7908C32.1782 32.7312 32.4925 32.4173 32.4929 32.0298L32.4999 25.6832C32.7587 25.7926 33.0374 25.857 33.3264 25.8711C33.3669 25.8731 33.4073 25.8741 33.4476 25.8741C34.0499 25.8741 34.6226 25.6537 35.0719 25.2462L39.1881 21.5141C40.399 20.4162 41.2381 18.9954 41.6149 17.4051L42.1409 15.1851L44.3249 13.205C44.3919 13.2168 44.4596 13.2259 44.5286 13.2293C44.5556 13.2306 44.5826 13.2313 44.6094 13.2313C45.0115 13.2313 45.394 13.084 45.6939 12.812L47.7693 10.9302C48.0568 10.6698 48.0784 10.2258 47.818 9.93845Z" fill="black"/>
</svg>
