<svg width="793" height="612" viewBox="0 0 793 612" fill="none" xmlns="http://www.w3.org/2000/svg">
<path d="M8.064 11.724V19.392H20.232V23.352H8.064V33H3.384V7.8H21.78V11.724H8.064ZM37.7966 33.36C35.2286 33.36 32.9126 32.808 30.8486 31.704C28.7846 30.576 27.1646 29.028 25.9886 27.06C24.8126 25.068 24.2246 22.848 24.2246 20.4C24.2246 17.952 24.8126 15.744 25.9886 13.776C27.1646 11.784 28.7846 10.236 30.8486 9.132C32.9126 8.004 35.2286 7.44 37.7966 7.44C40.3646 7.44 42.6806 8.004 44.7446 9.132C46.8086 10.236 48.4286 11.772 49.6046 13.74C50.7806 15.708 51.3686 17.928 51.3686 20.4C51.3686 22.872 50.7806 25.092 49.6046 27.06C48.4286 29.028 46.8086 30.576 44.7446 31.704C42.6806 32.808 40.3646 33.36 37.7966 33.36ZM37.7966 29.256C39.4766 29.256 40.9886 28.884 42.3326 28.14C43.6766 27.372 44.7326 26.316 45.5006 24.972C46.2686 23.604 46.6526 22.08 46.6526 20.4C46.6526 18.72 46.2686 17.208 45.5006 15.864C44.7326 14.496 43.6766 13.44 42.3326 12.696C40.9886 11.928 39.4766 11.544 37.7966 11.544C36.1166 11.544 34.6046 11.928 33.2606 12.696C31.9166 13.44 30.8606 14.496 30.0926 15.864C29.3246 17.208 28.9406 18.72 28.9406 20.4C28.9406 22.08 29.3246 23.604 30.0926 24.972C30.8606 26.316 31.9166 27.372 33.2606 28.14C34.6046 28.884 36.1166 29.256 37.7966 29.256ZM72.8173 33L67.6693 25.62C67.4533 25.644 67.1293 25.656 66.6973 25.656H61.0093V33H56.3293V7.8H66.6973C68.8813 7.8 70.7773 8.16 72.3853 8.88C74.0173 9.6 75.2653 10.632 76.1293 11.976C76.9933 13.32 77.4253 14.916 77.4253 16.764C77.4253 18.66 76.9573 20.292 76.0213 21.66C75.1093 23.028 73.7893 24.048 72.0613 24.72L77.8573 33H72.8173ZM72.7093 16.764C72.7093 15.156 72.1813 13.92 71.1253 13.056C70.0693 12.192 68.5213 11.76 66.4813 11.76H61.0093V21.804H66.4813C68.5213 21.804 70.0693 21.372 71.1253 20.508C72.1813 19.62 72.7093 18.372 72.7093 16.764ZM105.809 33L105.773 16.296L97.4933 30.12H95.4053L87.1253 16.512V33H82.6613V7.8H86.5133L96.5213 24.504L106.349 7.8H110.201L110.237 33H105.809ZM124.856 33.36C122.912 33.36 121.028 33.084 119.204 32.532C117.404 31.98 115.976 31.248 114.92 30.336L116.54 26.7C117.572 27.516 118.832 28.188 120.32 28.716C121.832 29.22 123.344 29.472 124.856 29.472C126.728 29.472 128.12 29.172 129.032 28.572C129.968 27.972 130.436 27.18 130.436 26.196C130.436 25.476 130.172 24.888 129.644 24.432C129.14 23.952 128.492 23.58 127.7 23.316C126.908 23.052 125.828 22.752 124.46 22.416C122.54 21.96 120.98 21.504 119.78 21.048C118.604 20.592 117.584 19.884 116.72 18.924C115.88 17.94 115.46 16.62 115.46 14.964C115.46 13.572 115.832 12.312 116.576 11.184C117.344 10.032 118.484 9.12 119.996 8.448C121.532 7.776 123.404 7.44 125.612 7.44C127.148 7.44 128.66 7.632 130.148 8.016C131.636 8.4 132.92 8.952 134 9.672L132.524 13.308C131.42 12.66 130.268 12.168 129.068 11.832C127.868 11.496 126.704 11.328 125.576 11.328C123.728 11.328 122.348 11.64 121.436 12.264C120.548 12.888 120.104 13.716 120.104 14.748C120.104 15.468 120.356 16.056 120.86 16.512C121.388 16.968 122.048 17.328 122.84 17.592C123.632 17.856 124.712 18.156 126.08 18.492C127.952 18.924 129.488 19.38 130.688 19.86C131.888 20.316 132.908 21.024 133.748 21.984C134.612 22.944 135.044 24.24 135.044 25.872C135.044 27.264 134.66 28.524 133.892 29.652C133.148 30.78 132.008 31.68 130.472 32.352C128.936 33.024 127.064 33.36 124.856 33.36ZM168.534 33.396L165.366 30.336C163.014 32.352 160.194 33.36 156.906 33.36C155.154 33.36 153.582 33.072 152.19 32.496C150.798 31.92 149.706 31.128 148.914 30.12C148.122 29.088 147.726 27.924 147.726 26.628C147.726 25.068 148.182 23.7 149.094 22.524C150.006 21.324 151.494 20.148 153.558 18.996C152.55 17.988 151.83 17.052 151.398 16.188C150.966 15.3 150.75 14.388 150.75 13.452C150.75 11.676 151.41 10.248 152.73 9.168C154.074 8.064 155.85 7.512 158.058 7.512C160.098 7.512 161.73 8.016 162.954 9.024C164.178 10.008 164.79 11.352 164.79 13.056C164.79 14.352 164.382 15.504 163.566 16.512C162.774 17.52 161.466 18.54 159.642 19.572L165.078 24.756C165.678 23.58 166.146 22.164 166.482 20.508L170.118 21.696C169.638 23.928 168.882 25.848 167.85 27.456L171.018 30.48L168.534 33.396ZM158.058 10.716C157.074 10.716 156.294 10.968 155.718 11.472C155.142 11.952 154.854 12.588 154.854 13.38C154.854 13.956 155.01 14.508 155.322 15.036C155.634 15.54 156.234 16.236 157.122 17.124C158.562 16.332 159.558 15.648 160.11 15.072C160.686 14.472 160.974 13.824 160.974 13.128C160.974 12.384 160.71 11.796 160.182 11.364C159.678 10.932 158.97 10.716 158.058 10.716ZM157.23 29.688C159.318 29.688 161.142 29.052 162.702 27.78L156.042 21.408C154.602 22.2 153.582 22.968 152.982 23.712C152.406 24.432 152.118 25.248 152.118 26.16C152.118 27.216 152.586 28.068 153.522 28.716C154.458 29.364 155.694 29.688 157.23 29.688ZM196.665 33.36C194.121 33.36 191.817 32.808 189.753 31.704C187.713 30.576 186.105 29.028 184.929 27.06C183.777 25.092 183.201 22.872 183.201 20.4C183.201 17.928 183.789 15.708 184.965 13.74C186.141 11.772 187.749 10.236 189.789 9.132C191.853 8.004 194.157 7.44 196.701 7.44C198.765 7.44 200.649 7.8 202.353 8.52C204.057 9.24 205.497 10.284 206.673 11.652L203.649 14.496C201.825 12.528 199.581 11.544 196.917 11.544C195.189 11.544 193.641 11.928 192.273 12.696C190.905 13.44 189.837 14.484 189.069 15.828C188.301 17.172 187.917 18.696 187.917 20.4C187.917 22.104 188.301 23.628 189.069 24.972C189.837 26.316 190.905 27.372 192.273 28.14C193.641 28.884 195.189 29.256 196.917 29.256C199.581 29.256 201.825 28.26 203.649 26.268L206.673 29.148C205.497 30.516 204.045 31.56 202.317 32.28C200.613 33 198.729 33.36 196.665 33.36ZM222.402 33.36C219.834 33.36 217.518 32.808 215.454 31.704C213.39 30.576 211.77 29.028 210.594 27.06C209.418 25.068 208.83 22.848 208.83 20.4C208.83 17.952 209.418 15.744 210.594 13.776C211.77 11.784 213.39 10.236 215.454 9.132C217.518 8.004 219.834 7.44 222.402 7.44C224.97 7.44 227.286 8.004 229.35 9.132C231.414 10.236 233.034 11.772 234.21 13.74C235.386 15.708 235.974 17.928 235.974 20.4C235.974 22.872 235.386 25.092 234.21 27.06C233.034 29.028 231.414 30.576 229.35 31.704C227.286 32.808 224.97 33.36 222.402 33.36ZM222.402 29.256C224.082 29.256 225.594 28.884 226.938 28.14C228.282 27.372 229.338 26.316 230.106 24.972C230.874 23.604 231.258 22.08 231.258 20.4C231.258 18.72 230.874 17.208 230.106 15.864C229.338 14.496 228.282 13.44 226.938 12.696C225.594 11.928 224.082 11.544 222.402 11.544C220.722 11.544 219.21 11.928 217.866 12.696C216.522 13.44 215.466 14.496 214.698 15.864C213.93 17.208 213.546 18.72 213.546 20.4C213.546 22.08 213.93 23.604 214.698 24.972C215.466 26.316 216.522 27.372 217.866 28.14C219.21 28.884 220.722 29.256 222.402 29.256ZM240.935 7.8H245.615V29.04H258.791V33H240.935V7.8ZM273.801 33.36C271.233 33.36 268.917 32.808 266.853 31.704C264.789 30.576 263.169 29.028 261.993 27.06C260.817 25.068 260.229 22.848 260.229 20.4C260.229 17.952 260.817 15.744 261.993 13.776C263.169 11.784 264.789 10.236 266.853 9.132C268.917 8.004 271.233 7.44 273.801 7.44C276.369 7.44 278.685 8.004 280.749 9.132C282.813 10.236 284.433 11.772 285.609 13.74C286.785 15.708 287.373 17.928 287.373 20.4C287.373 22.872 286.785 25.092 285.609 27.06C284.433 29.028 282.813 30.576 280.749 31.704C278.685 32.808 276.369 33.36 273.801 33.36ZM273.801 29.256C275.481 29.256 276.993 28.884 278.337 28.14C279.681 27.372 280.737 26.316 281.505 24.972C282.273 23.604 282.657 22.08 282.657 20.4C282.657 18.72 282.273 17.208 281.505 15.864C280.737 14.496 279.681 13.44 278.337 12.696C276.993 11.928 275.481 11.544 273.801 11.544C272.121 11.544 270.609 11.928 269.265 12.696C267.921 13.44 266.865 14.496 266.097 15.864C265.329 17.208 264.945 18.72 264.945 20.4C264.945 22.08 265.329 23.604 266.097 24.972C266.865 26.316 267.921 27.372 269.265 28.14C270.609 28.884 272.121 29.256 273.801 29.256ZM303.169 33.36C299.689 33.36 296.977 32.388 295.033 30.444C293.089 28.476 292.117 25.668 292.117 22.02V7.8H296.797V21.84C296.797 26.784 298.933 29.256 303.205 29.256C307.453 29.256 309.577 26.784 309.577 21.84V7.8H314.185V22.02C314.185 25.668 313.213 28.476 311.269 30.444C309.349 32.388 306.649 33.36 303.169 33.36ZM337.227 33L332.079 25.62C331.863 25.644 331.539 25.656 331.107 25.656H325.419V33H320.739V7.8H331.107C333.291 7.8 335.187 8.16 336.795 8.88C338.427 9.6 339.675 10.632 340.539 11.976C341.403 13.32 341.835 14.916 341.835 16.764C341.835 18.66 341.367 20.292 340.431 21.66C339.519 23.028 338.199 24.048 336.471 24.72L342.267 33H337.227ZM337.119 16.764C337.119 15.156 336.591 13.92 335.535 13.056C334.479 12.192 332.931 11.76 330.891 11.76H325.419V21.804H330.891C332.931 21.804 334.479 21.372 335.535 20.508C336.591 19.62 337.119 18.372 337.119 16.764Z" fill="#323232"/>
<path d="M0 46H376V48H0V46Z" fill="#323232"/>
<path d="M9.8418 306H2.81934V293.15H9.8418V293.977H3.71582V298.837H9.49902V299.663H3.71582V305.174H9.8418V306ZM24.0588 306V299.733C24.0588 298.802 23.8772 298.122 23.5139 297.694C23.1506 297.267 22.594 297.053 21.844 297.053C20.8654 297.053 20.1418 297.322 19.6731 297.861C19.2043 298.4 18.9699 299.247 18.9699 300.401V306H18.0822V299.47C18.0822 297.858 17.344 297.053 15.8674 297.053C14.8654 297.053 14.1359 297.346 13.6789 297.932C13.2219 298.512 12.9934 299.443 12.9934 300.727V306H12.1233V296.446H12.844L13.0285 297.756H13.0813C13.3449 297.281 13.7199 296.915 14.2063 296.657C14.6926 296.394 15.2287 296.262 15.8147 296.262C17.3205 296.262 18.2873 296.827 18.715 297.958H18.7502C19.0608 297.413 19.4768 296.994 19.9983 296.701C20.5256 296.408 21.1233 296.262 21.7912 296.262C22.8342 296.262 23.6164 296.54 24.1379 297.097C24.6594 297.653 24.9201 298.538 24.9201 299.751V306H24.0588ZM33.4067 306L33.1869 304.488H33.1166C32.6361 305.104 32.141 305.54 31.6313 305.798C31.1274 306.05 30.5297 306.176 29.8383 306.176C28.9008 306.176 28.1713 305.936 27.6498 305.455C27.1283 304.975 26.8676 304.31 26.8676 303.46C26.8676 302.528 27.2543 301.805 28.0278 301.289C28.807 300.773 29.932 300.501 31.4028 300.472L33.2221 300.419V299.786C33.2221 298.878 33.0375 298.192 32.6684 297.729C32.2992 297.267 31.7045 297.035 30.8842 297.035C29.9994 297.035 29.0824 297.281 28.1332 297.773L27.808 297.018C28.8569 296.525 29.894 296.279 30.9194 296.279C31.9682 296.279 32.7504 296.552 33.266 297.097C33.7875 297.642 34.0483 298.491 34.0483 299.646V306H33.4067ZM29.891 305.385C30.9106 305.385 31.7133 305.095 32.2992 304.515C32.891 303.929 33.1869 303.117 33.1869 302.08V301.14L31.517 301.21C30.1752 301.274 29.2172 301.485 28.643 301.843C28.0746 302.194 27.7904 302.745 27.7904 303.495C27.7904 304.093 27.9721 304.559 28.3354 304.893C28.7045 305.221 29.2231 305.385 29.891 305.385ZM37.6129 306H36.7428V296.446H37.6129V306ZM36.6198 293.792C36.6198 293.229 36.8043 292.948 37.1735 292.948C37.3551 292.948 37.4957 293.021 37.5953 293.168C37.7008 293.314 37.7535 293.522 37.7535 293.792C37.7535 294.056 37.7008 294.264 37.5953 294.416C37.4957 294.568 37.3551 294.645 37.1735 294.645C36.8043 294.645 36.6198 294.36 36.6198 293.792ZM41.283 306H40.4129V292.324H41.283V306Z" fill="#A9A9A9"/>
<path d="M10.5537 355.842C10.5537 357.084 10.1318 358.036 9.28809 358.698C8.44434 359.36 7.24902 359.691 5.70215 359.691H3.71582V365H2.81934V352.15H5.96582C9.02441 352.15 10.5537 353.381 10.5537 355.842ZM3.71582 358.918H5.48242C6.92969 358.918 7.97559 358.681 8.62012 358.206C9.26465 357.726 9.58691 356.949 9.58691 355.877C9.58691 354.887 9.28223 354.154 8.67285 353.68C8.06348 353.199 7.12012 352.959 5.84277 352.959H3.71582V358.918ZM18.5217 365L18.302 363.488H18.2316C17.7512 364.104 17.2561 364.54 16.7463 364.798C16.2424 365.05 15.6447 365.176 14.9533 365.176C14.0158 365.176 13.2863 364.936 12.7649 364.455C12.2434 363.975 11.9826 363.31 11.9826 362.46C11.9826 361.528 12.3693 360.805 13.1428 360.289C13.9221 359.773 15.0471 359.501 16.5178 359.472L18.3371 359.419V358.786C18.3371 357.878 18.1525 357.192 17.7834 356.729C17.4143 356.267 16.8195 356.035 15.9992 356.035C15.1145 356.035 14.1975 356.281 13.2483 356.773L12.9231 356.018C13.9719 355.525 15.009 355.279 16.0344 355.279C17.0832 355.279 17.8654 355.552 18.3811 356.097C18.9025 356.642 19.1633 357.491 19.1633 358.646V365H18.5217ZM15.0061 364.385C16.0256 364.385 16.8283 364.095 17.4143 363.515C18.0061 362.929 18.302 362.117 18.302 361.08V360.14L16.632 360.21C15.2902 360.274 14.3322 360.485 13.758 360.843C13.1897 361.194 12.9055 361.745 12.9055 362.495C12.9055 363.093 13.0871 363.559 13.4504 363.893C13.8195 364.221 14.3381 364.385 15.0061 364.385ZM27.7817 362.513C27.7817 363.368 27.4565 364.027 26.8061 364.49C26.1557 364.947 25.2328 365.176 24.0375 365.176C22.7602 365.176 21.7465 364.979 20.9965 364.587V363.646C21.9574 364.127 22.9711 364.367 24.0375 364.367C24.9809 364.367 25.6957 364.212 26.182 363.901C26.6742 363.585 26.9203 363.166 26.9203 362.645C26.9203 362.164 26.724 361.76 26.3315 361.432C25.9447 361.104 25.3061 360.781 24.4154 360.465C23.4604 360.119 22.7895 359.823 22.4028 359.577C22.016 359.325 21.7231 359.044 21.5238 358.733C21.3305 358.417 21.2338 358.033 21.2338 357.582C21.2338 356.867 21.5326 356.302 22.1303 355.886C22.7338 355.47 23.5746 355.262 24.6528 355.262C25.684 355.262 26.6625 355.455 27.5883 355.842L27.2631 356.633C26.3256 356.246 25.4555 356.053 24.6528 356.053C23.8735 356.053 23.2553 356.182 22.7983 356.439C22.3412 356.697 22.1127 357.055 22.1127 357.512C22.1127 358.01 22.2885 358.408 22.6401 358.707C22.9975 359.006 23.6918 359.34 24.7231 359.709C25.5844 360.02 26.2113 360.301 26.6039 360.553C26.9965 360.799 27.2895 361.08 27.4828 361.396C27.682 361.713 27.7817 362.085 27.7817 362.513ZM35.7584 362.513C35.7584 363.368 35.4332 364.027 34.7828 364.49C34.1324 364.947 33.2096 365.176 32.0143 365.176C30.7369 365.176 29.7233 364.979 28.9733 364.587V363.646C29.9342 364.127 30.9479 364.367 32.0143 364.367C32.9576 364.367 33.6725 364.212 34.1588 363.901C34.651 363.585 34.8971 363.166 34.8971 362.645C34.8971 362.164 34.7008 361.76 34.3082 361.432C33.9215 361.104 33.2828 360.781 32.3922 360.465C31.4371 360.119 30.7662 359.823 30.3795 359.577C29.9928 359.325 29.6998 359.044 29.5006 358.733C29.3073 358.417 29.2106 358.033 29.2106 357.582C29.2106 356.867 29.5094 356.302 30.1071 355.886C30.7106 355.47 31.5514 355.262 32.6295 355.262C33.6608 355.262 34.6393 355.455 35.5651 355.842L35.2399 356.633C34.3024 356.246 33.4323 356.053 32.6295 356.053C31.8502 356.053 31.2321 356.182 30.775 356.439C30.318 356.697 30.0895 357.055 30.0895 357.512C30.0895 358.01 30.2653 358.408 30.6168 358.707C30.9742 359.006 31.6686 359.34 32.6998 359.709C33.5612 360.02 34.1881 360.301 34.5807 360.553C34.9733 360.799 35.2662 361.08 35.4596 361.396C35.6588 361.713 35.7584 362.085 35.7584 362.513ZM45.4491 365L43.3573 358.61C43.2225 358.177 43.0496 357.541 42.8387 356.703H42.786L42.6014 357.354L42.2059 358.628L40.0789 365H39.2176L36.4842 355.446H37.4159L38.9451 360.983C39.3026 362.354 39.5369 363.362 39.6483 364.007H39.701C40.0467 362.636 40.2987 361.725 40.4569 361.273L42.4256 355.446H43.2166L45.0887 361.256C45.5106 362.633 45.7684 363.544 45.8621 363.989H45.9149C45.9618 363.608 46.1961 362.589 46.618 360.931L48.077 355.446H48.9559L46.3631 365H45.4491ZM58.3301 360.21C58.3301 361.769 57.9522 362.987 57.1963 363.866C56.4405 364.739 55.3975 365.176 54.0674 365.176C53.2295 365.176 52.4912 364.974 51.8526 364.569C51.2139 364.165 50.7246 363.585 50.3848 362.829C50.045 362.073 49.875 361.2 49.875 360.21C49.875 358.651 50.253 357.438 51.0088 356.571C51.7647 355.698 52.8018 355.262 54.1202 355.262C55.4327 355.262 56.461 355.704 57.2051 356.589C57.9551 357.468 58.3301 358.675 58.3301 360.21ZM50.7891 360.21C50.7891 361.522 51.0762 362.548 51.6504 363.286C52.2305 364.019 53.0479 364.385 54.1026 364.385C55.1573 364.385 55.9717 364.019 56.5459 363.286C57.126 362.548 57.4161 361.522 57.4161 360.21C57.4161 358.892 57.1231 357.869 56.5371 357.143C55.9571 356.416 55.1397 356.053 54.085 356.053C53.0303 356.053 52.2159 356.416 51.6416 357.143C51.0733 357.863 50.7891 358.886 50.7891 360.21ZM64.3293 355.262C64.7336 355.262 65.1672 355.303 65.6301 355.385L65.4631 356.22C65.0647 356.12 64.6516 356.07 64.2239 356.07C63.4094 356.07 62.7415 356.416 62.22 357.107C61.6985 357.799 61.4377 358.672 61.4377 359.727V365H60.5676V355.446H61.3059L61.3938 357.169H61.4553C61.8479 356.466 62.2668 355.974 62.7122 355.692C63.1575 355.405 63.6965 355.262 64.3293 355.262ZM70.6713 355.262C71.3627 355.262 71.9604 355.388 72.4643 355.64C72.9682 355.892 73.4194 356.322 73.8178 356.932H73.8706C73.8354 356.193 73.8178 355.47 73.8178 354.761V351.324H74.6792V365H74.1079L73.8881 363.541H73.8178C73.0913 364.631 72.0483 365.176 70.6889 365.176C69.3706 365.176 68.3627 364.766 67.6655 363.945C66.9682 363.125 66.6196 361.93 66.6196 360.359C66.6196 358.707 66.9653 357.444 67.6567 356.571C68.3481 355.698 69.353 355.262 70.6713 355.262ZM70.6713 356.053C69.6284 356.053 68.8432 356.419 68.3159 357.151C67.7944 357.884 67.5336 358.947 67.5336 360.342C67.5336 363.049 68.5854 364.402 70.6889 364.402C71.767 364.402 72.5581 364.089 73.062 363.462C73.5659 362.835 73.8178 361.801 73.8178 360.359V360.21C73.8178 358.733 73.5688 357.673 73.0708 357.028C72.5786 356.378 71.7788 356.053 70.6713 356.053Z" fill="#A9A9A9"/>
<path d="M12.1621 248H11.2568L3.64551 236.592H3.5752C3.64551 237.951 3.68066 238.977 3.68066 239.668V248H2.81934V235.15H3.71582L11.3184 246.541H11.3711C11.3184 245.486 11.292 244.484 11.292 243.535V235.15H12.1621V248ZM20.9826 248L20.7629 246.488H20.6926C20.2121 247.104 19.717 247.54 19.2072 247.798C18.7033 248.05 18.1057 248.176 17.4143 248.176C16.4768 248.176 15.7473 247.936 15.2258 247.455C14.7043 246.975 14.4436 246.31 14.4436 245.46C14.4436 244.528 14.8303 243.805 15.6037 243.289C16.383 242.773 17.508 242.501 18.9787 242.472L20.7981 242.419V241.786C20.7981 240.878 20.6135 240.192 20.2443 239.729C19.8752 239.267 19.2805 239.035 18.4602 239.035C17.5754 239.035 16.6584 239.281 15.7092 239.773L15.384 239.018C16.4328 238.525 17.4699 238.279 18.4953 238.279C19.5441 238.279 20.3264 238.552 20.842 239.097C21.3635 239.642 21.6242 240.491 21.6242 241.646V248H20.9826ZM17.467 247.385C18.4865 247.385 19.2893 247.095 19.8752 246.515C20.467 245.929 20.7629 245.117 20.7629 244.08V243.14L19.093 243.21C17.7512 243.274 16.7932 243.485 16.219 243.843C15.6506 244.194 15.3664 244.745 15.3664 245.495C15.3664 246.093 15.5481 246.559 15.9113 246.893C16.2805 247.221 16.799 247.385 17.467 247.385ZM36.2543 248V241.733C36.2543 240.802 36.0727 240.122 35.7094 239.694C35.3461 239.267 34.7895 239.053 34.0395 239.053C33.061 239.053 32.3373 239.322 31.8686 239.861C31.3998 240.4 31.1654 241.247 31.1654 242.401V248H30.2778V241.47C30.2778 239.858 29.5395 239.053 28.0629 239.053C27.061 239.053 26.3315 239.346 25.8744 239.932C25.4174 240.512 25.1889 241.443 25.1889 242.727V248H24.3188V238.446H25.0395L25.224 239.756H25.2768C25.5404 239.281 25.9154 238.915 26.4018 238.657C26.8881 238.394 27.4242 238.262 28.0102 238.262C29.516 238.262 30.4828 238.827 30.9106 239.958H30.9457C31.2563 239.413 31.6723 238.994 32.1938 238.701C32.7211 238.408 33.3188 238.262 33.9867 238.262C35.0297 238.262 35.8119 238.54 36.3334 239.097C36.8549 239.653 37.1156 240.538 37.1156 241.751V248H36.2543ZM43.6598 248.176C42.2711 248.176 41.1871 247.748 40.4078 246.893C39.6344 246.037 39.2477 244.839 39.2477 243.298C39.2477 241.774 39.6227 240.556 40.3727 239.642C41.1227 238.722 42.1334 238.262 43.4049 238.262C44.5299 238.262 45.4176 238.654 46.068 239.439C46.7184 240.225 47.0436 241.291 47.0436 242.639V243.342H40.1617C40.1735 244.654 40.4781 245.656 41.0758 246.348C41.6793 247.039 42.5406 247.385 43.6598 247.385C44.2047 247.385 44.6823 247.347 45.0924 247.271C45.5084 247.194 46.0328 247.03 46.6656 246.778V247.569C46.1266 247.804 45.6285 247.962 45.1715 248.044C44.7145 248.132 44.2106 248.176 43.6598 248.176ZM43.4049 239.035C42.485 239.035 41.7467 239.34 41.1901 239.949C40.6334 240.553 40.3082 241.426 40.2145 242.568H46.1207C46.1207 241.461 45.8805 240.597 45.4 239.976C44.9196 239.349 44.2545 239.035 43.4049 239.035Z" fill="#A9A9A9"/>
<rect y="270" width="344" height="0.5" fill="#A9A9A9"/>
<rect y="328" width="344" height="0.5" fill="#A9A9A9"/>
<rect y="387" width="344" height="0.5" fill="#A9A9A9"/>
<path d="M7.09766 520.262C7.78906 520.262 8.38672 520.388 8.89062 520.64C9.39453 520.892 9.8457 521.322 10.2441 521.932H10.2969C10.2617 521.193 10.2441 520.47 10.2441 519.761V516.324H11.1055V530H10.5342L10.3145 528.541H10.2441C9.51758 529.631 8.47461 530.176 7.11523 530.176C5.79688 530.176 4.78906 529.766 4.0918 528.945C3.39453 528.125 3.0459 526.93 3.0459 525.359C3.0459 523.707 3.3916 522.444 4.08301 521.571C4.77441 520.698 5.7793 520.262 7.09766 520.262ZM7.09766 521.053C6.05469 521.053 5.26953 521.419 4.74219 522.151C4.2207 522.884 3.95996 523.947 3.95996 525.342C3.95996 528.049 5.01172 529.402 7.11523 529.402C8.19336 529.402 8.98438 529.089 9.48828 528.462C9.99219 527.835 10.2441 526.801 10.2441 525.359V525.21C10.2441 523.733 9.99512 522.673 9.49707 522.028C9.00488 521.378 8.20508 521.053 7.09766 521.053ZM21.8156 525.21C21.8156 526.769 21.4377 527.987 20.6818 528.866C19.926 529.739 18.883 530.176 17.5529 530.176C16.715 530.176 15.9768 529.974 15.3381 529.569C14.6994 529.165 14.2102 528.585 13.8703 527.829C13.5305 527.073 13.3606 526.2 13.3606 525.21C13.3606 523.651 13.7385 522.438 14.4943 521.571C15.2502 520.698 16.2873 520.262 17.6057 520.262C18.9182 520.262 19.9465 520.704 20.6906 521.589C21.4406 522.468 21.8156 523.675 21.8156 525.21ZM14.2746 525.21C14.2746 526.522 14.5617 527.548 15.1359 528.286C15.716 529.019 16.5334 529.385 17.5881 529.385C18.6428 529.385 19.4572 529.019 20.0315 528.286C20.6115 527.548 20.9016 526.522 20.9016 525.21C20.9016 523.892 20.6086 522.869 20.0227 522.143C19.4426 521.416 18.6252 521.053 17.5705 521.053C16.5158 521.053 15.7014 521.416 15.1272 522.143C14.5588 522.863 14.2746 523.886 14.2746 525.21ZM27.9115 530.176C26.5229 530.176 25.4389 529.748 24.6596 528.893C23.8861 528.037 23.4994 526.839 23.4994 525.298C23.4994 523.774 23.8744 522.556 24.6244 521.642C25.3744 520.722 26.3852 520.262 27.6567 520.262C28.7817 520.262 29.6694 520.654 30.3197 521.439C30.9701 522.225 31.2953 523.291 31.2953 524.639V525.342H24.4135C24.4252 526.654 24.7299 527.656 25.3276 528.348C25.9311 529.039 26.7924 529.385 27.9115 529.385C28.4565 529.385 28.934 529.347 29.3442 529.271C29.7602 529.194 30.2846 529.03 30.9174 528.778V529.569C30.3783 529.804 29.8803 529.962 29.4233 530.044C28.9662 530.132 28.4623 530.176 27.9115 530.176ZM27.6567 521.035C26.7367 521.035 25.9985 521.34 25.4418 521.949C24.8852 522.553 24.56 523.426 24.4662 524.568H30.3725C30.3725 523.461 30.1322 522.597 29.6518 521.976C29.1713 521.349 28.5063 521.035 27.6567 521.035ZM46.8834 523.628C46.8834 524.964 46.6168 526.036 46.0836 526.845C45.5563 527.653 44.8385 528.058 43.9303 528.058C43.4088 528.058 42.984 527.899 42.6559 527.583C42.3336 527.267 42.1461 526.836 42.0934 526.291H42.0582C41.8063 526.877 41.443 527.319 40.9684 527.618C40.4938 527.911 39.9401 528.058 39.3073 528.058C38.4401 528.058 37.7692 527.776 37.2946 527.214C36.8199 526.646 36.5826 525.852 36.5826 524.832C36.5826 523.648 36.9342 522.682 37.6373 521.932C38.3463 521.176 39.2692 520.798 40.4059 520.798C41.2145 520.798 42.0524 520.918 42.9196 521.158L42.7262 525.236V525.5C42.7262 526.109 42.8287 526.569 43.0338 526.88C43.2389 527.185 43.5787 527.337 44.0533 527.337C44.6569 527.337 45.149 526.997 45.5299 526.317C45.9166 525.632 46.11 524.741 46.11 523.646C46.11 522.509 45.8785 521.513 45.4156 520.657C44.9528 519.802 44.2906 519.146 43.4293 518.688C42.5739 518.226 41.5953 517.994 40.4938 517.994C39.1461 517.994 37.9567 518.287 36.9254 518.873C35.9 519.453 35.109 520.276 34.5524 521.343C34.0016 522.409 33.7262 523.634 33.7262 525.017C33.7262 526.903 34.2155 528.362 35.194 529.394C36.1725 530.419 37.5612 530.932 39.36 530.932C39.9049 530.932 40.4557 530.879 41.0123 530.773C41.5748 530.668 42.2545 530.463 43.0514 530.158V531.028C41.8619 531.497 40.649 531.731 39.4127 531.731C37.3678 531.731 35.774 531.146 34.6315 529.974C33.4889 528.796 32.9176 527.161 32.9176 525.069C32.9176 523.569 33.234 522.222 33.8668 521.026C34.5055 519.825 35.4049 518.894 36.5651 518.231C37.7311 517.569 39.0465 517.238 40.5114 517.238C41.7711 517.238 42.8844 517.499 43.8512 518.021C44.8239 518.542 45.5709 519.289 46.0924 520.262C46.6198 521.229 46.8834 522.351 46.8834 523.628ZM37.4879 524.814C37.4879 525.652 37.649 526.282 37.9713 526.704C38.2936 527.126 38.8033 527.337 39.5006 527.337C40.9948 527.337 41.7946 526.323 41.9 524.296L42.0406 521.738C41.5778 521.58 41.0123 521.501 40.3444 521.501C39.4713 521.501 38.777 521.803 38.2614 522.406C37.7457 523.004 37.4879 523.807 37.4879 524.814ZM56.5301 520.446V521.053L54.5526 521.176C55.0799 521.832 55.3436 522.553 55.3436 523.338C55.3436 524.258 55.036 525.005 54.4207 525.579C53.8114 526.147 52.991 526.432 51.9598 526.432C51.5262 526.432 51.2215 526.414 51.0457 526.379C50.7 526.561 50.4364 526.774 50.2547 527.021C50.0731 527.267 49.9823 527.527 49.9823 527.803C49.9823 528.107 50.0965 528.33 50.325 528.471C50.5594 528.611 50.9491 528.682 51.494 528.682H53.1639C54.201 528.682 54.995 528.893 55.5457 529.314C56.0965 529.73 56.3719 530.349 56.3719 531.169C56.3719 532.177 55.9618 532.953 55.1414 533.498C54.327 534.049 53.1639 534.324 51.6522 534.324C50.451 534.324 49.5194 534.093 48.8573 533.63C48.201 533.167 47.8729 532.522 47.8729 531.696C47.8729 531.04 48.075 530.495 48.4793 530.062C48.8895 529.628 49.4432 529.332 50.1405 529.174C49.8534 529.051 49.6219 528.878 49.4461 528.655C49.2762 528.427 49.1912 528.166 49.1912 527.873C49.1912 527.234 49.5985 526.672 50.4129 526.186C49.8563 525.957 49.4227 525.6 49.1121 525.113C48.8016 524.621 48.6463 524.059 48.6463 523.426C48.6463 522.471 48.9481 521.706 49.5516 521.132C50.161 520.552 50.9813 520.262 52.0125 520.262C52.6395 520.262 53.1258 520.323 53.4715 520.446H56.5301ZM48.7957 531.617C48.7957 532.93 49.7713 533.586 51.7225 533.586C54.2303 533.586 55.4842 532.786 55.4842 531.187C55.4842 530.612 55.2879 530.196 54.8953 529.938C54.5028 529.681 53.867 529.552 52.9881 529.552H51.4237C49.6717 529.552 48.7957 530.24 48.7957 531.617ZM49.5252 523.426C49.5252 524.164 49.7479 524.738 50.1932 525.148C50.6444 525.553 51.245 525.755 51.995 525.755C52.7918 525.755 53.4012 525.553 53.8231 525.148C54.2508 524.744 54.4647 524.158 54.4647 523.391C54.4647 522.576 54.245 521.967 53.8055 521.562C53.3719 521.152 52.7625 520.947 51.9774 520.947C51.2157 520.947 50.6151 521.167 50.1756 521.606C49.742 522.04 49.5252 522.646 49.5252 523.426ZM70.0264 530V523.733C70.0264 522.802 69.8448 522.122 69.4815 521.694C69.1182 521.267 68.5616 521.053 67.8116 521.053C66.833 521.053 66.1094 521.322 65.6407 521.861C65.1719 522.4 64.9375 523.247 64.9375 524.401V530H64.0498V523.47C64.0498 521.858 63.3116 521.053 61.835 521.053C60.833 521.053 60.1036 521.346 59.6465 521.932C59.1895 522.512 58.961 523.443 58.961 524.727V530H58.0909V520.446H58.8116L58.9961 521.756H59.0489C59.3125 521.281 59.6875 520.915 60.1739 520.657C60.6602 520.394 61.1963 520.262 61.7823 520.262C63.2881 520.262 64.2549 520.827 64.6827 521.958H64.7178C65.0284 521.413 65.4444 520.994 65.9659 520.701C66.4932 520.408 67.0909 520.262 67.7588 520.262C68.8018 520.262 69.584 520.54 70.1055 521.097C70.627 521.653 70.8877 522.538 70.8877 523.751V530H70.0264ZM79.3743 530L79.1545 528.488H79.0842C78.6038 529.104 78.1086 529.54 77.5989 529.798C77.095 530.05 76.4973 530.176 75.8059 530.176C74.8684 530.176 74.1389 529.936 73.6174 529.455C73.0959 528.975 72.8352 528.31 72.8352 527.46C72.8352 526.528 73.2219 525.805 73.9954 525.289C74.7747 524.773 75.8997 524.501 77.3704 524.472L79.1897 524.419V523.786C79.1897 522.878 79.0051 522.192 78.636 521.729C78.2668 521.267 77.6721 521.035 76.8518 521.035C75.967 521.035 75.05 521.281 74.1008 521.773L73.7756 521.018C74.8245 520.525 75.8616 520.279 76.887 520.279C77.9358 520.279 78.718 520.552 79.2336 521.097C79.7551 521.642 80.0159 522.491 80.0159 523.646V530H79.3743ZM75.8586 529.385C76.8782 529.385 77.6809 529.095 78.2668 528.515C78.8586 527.929 79.1545 527.117 79.1545 526.08V525.14L77.4846 525.21C76.1428 525.274 75.1848 525.485 74.6106 525.843C74.0422 526.194 73.7581 526.745 73.7581 527.495C73.7581 528.093 73.9397 528.559 74.303 528.893C74.6721 529.221 75.1907 529.385 75.8586 529.385ZM83.5805 530H82.7104V520.446H83.5805V530ZM82.5874 517.792C82.5874 517.229 82.7719 516.948 83.1411 516.948C83.3227 516.948 83.4633 517.021 83.5629 517.168C83.6684 517.314 83.7211 517.522 83.7211 517.792C83.7211 518.056 83.6684 518.264 83.5629 518.416C83.4633 518.568 83.3227 518.645 83.1411 518.645C82.7719 518.645 82.5874 518.36 82.5874 517.792ZM87.2506 530H86.3805V516.324H87.2506V530ZM89.8749 529.314C89.8749 528.74 90.1093 528.453 90.578 528.453C91.0585 528.453 91.2987 528.74 91.2987 529.314C91.2987 529.889 91.0585 530.176 90.578 530.176C90.1093 530.176 89.8749 529.889 89.8749 529.314ZM97.7462 530.176C96.3809 530.176 95.3116 529.745 94.5382 528.884C93.7647 528.022 93.378 526.821 93.378 525.28C93.378 523.698 93.7794 522.468 94.5821 521.589C95.3848 520.704 96.4835 520.262 97.878 520.262C98.7042 520.262 99.4952 520.405 100.251 520.692L100.014 521.466C99.1876 521.19 98.4698 521.053 97.8604 521.053C96.6886 521.053 95.8009 521.416 95.1973 522.143C94.5938 522.863 94.2921 523.903 94.2921 525.263C94.2921 526.552 94.5938 527.562 95.1973 528.295C95.8009 529.021 96.6446 529.385 97.7286 529.385C98.5958 529.385 99.4014 529.229 100.146 528.919V529.728C99.5362 530.026 98.7364 530.176 97.7462 530.176ZM109.986 525.21C109.986 526.769 109.608 527.987 108.852 528.866C108.096 529.739 107.053 530.176 105.723 530.176C104.885 530.176 104.147 529.974 103.508 529.569C102.869 529.165 102.38 528.585 102.04 527.829C101.7 527.073 101.531 526.2 101.531 525.21C101.531 523.651 101.908 522.438 102.664 521.571C103.42 520.698 104.457 520.262 105.776 520.262C107.088 520.262 108.116 520.704 108.861 521.589C109.611 522.468 109.986 523.675 109.986 525.21ZM102.445 525.21C102.445 526.522 102.732 527.548 103.306 528.286C103.886 529.019 104.703 529.385 105.758 529.385C106.813 529.385 107.627 529.019 108.201 528.286C108.782 527.548 109.072 526.522 109.072 525.21C109.072 523.892 108.779 522.869 108.193 522.143C107.613 521.416 106.795 521.053 105.741 521.053C104.686 521.053 103.871 521.416 103.297 522.143C102.729 522.863 102.445 523.886 102.445 525.21ZM124.159 530V523.733C124.159 522.802 123.977 522.122 123.614 521.694C123.25 521.267 122.694 521.053 121.944 521.053C120.965 521.053 120.242 521.322 119.773 521.861C119.304 522.4 119.07 523.247 119.07 524.401V530H118.182V523.47C118.182 521.858 117.444 521.053 115.967 521.053C114.965 521.053 114.236 521.346 113.779 521.932C113.322 522.512 113.093 523.443 113.093 524.727V530H112.223V520.446H112.944L113.128 521.756H113.181C113.445 521.281 113.82 520.915 114.306 520.657C114.792 520.394 115.329 520.262 115.915 520.262C117.42 520.262 118.387 520.827 118.815 521.958H118.85C119.161 521.413 119.577 520.994 120.098 520.701C120.625 520.408 121.223 520.262 121.891 520.262C122.934 520.262 123.716 520.54 124.238 521.097C124.759 521.653 125.02 522.538 125.02 523.751V530H124.159Z" fill="#323232"/>
<path d="M7.5459 575.324L7.2207 578.884L10.7803 577.97L10.9648 579.121L7.49316 579.464L9.66406 582.452L8.57422 583.076L6.89551 579.745L5.31348 583.076L4.21484 582.452L6.3418 579.464L2.91406 579.121L3.08105 577.97L6.60547 578.884L6.2627 575.324H7.5459ZM17.052 575.324L16.7268 578.884L20.2863 577.97L20.4709 579.121L16.9992 579.464L19.1701 582.452L18.0803 583.076L16.4016 579.745L14.8195 583.076L13.7209 582.452L15.8479 579.464L12.4201 579.121L12.5871 577.97L16.1115 578.884L15.7688 575.324H17.052ZM26.558 575.324L26.2328 578.884L29.7924 577.97L29.977 579.121L26.5053 579.464L28.6762 582.452L27.5863 583.076L25.9076 579.745L24.3256 583.076L23.227 582.452L25.3539 579.464L21.9262 579.121L22.0932 577.97L25.6176 578.884L25.2748 575.324H26.558ZM36.0641 575.324L35.7389 578.884L39.2985 577.97L39.483 579.121L36.0114 579.464L38.1823 582.452L37.0924 583.076L35.4137 579.745L33.8317 583.076L32.733 582.452L34.86 579.464L31.4323 579.121L31.5992 577.97L35.1237 578.884L34.7809 575.324H36.0641ZM45.5701 575.324L45.245 578.884L48.8045 577.97L48.9891 579.121L45.5174 579.464L47.6883 582.452L46.5985 583.076L44.9198 579.745L43.3377 583.076L42.2391 582.452L44.366 579.464L40.9383 579.121L41.1053 577.97L44.6297 578.884L44.2869 575.324H45.5701ZM55.0762 575.324L54.751 578.884L58.3106 577.97L58.4952 579.121L55.0235 579.464L57.1944 582.452L56.1045 583.076L54.4258 579.745L52.8438 583.076L51.7452 582.452L53.8721 579.464L50.4444 579.121L50.6114 577.97L54.1358 578.884L53.793 575.324H55.0762ZM64.5823 575.324L64.2571 578.884L67.8167 577.97L68.0012 579.121L64.5295 579.464L66.7004 582.452L65.6106 583.076L63.9319 579.745L62.3499 583.076L61.2512 582.452L63.3782 579.464L59.9504 579.121L60.1174 577.97L63.6418 578.884L63.2991 575.324H64.5823ZM74.0883 575.324L73.7631 578.884L77.3227 577.97L77.5073 579.121L74.0356 579.464L76.2065 582.452L75.1167 583.076L73.4379 579.745L71.8559 583.076L70.7573 582.452L72.8842 579.464L69.4565 579.121L69.6235 577.97L73.1479 578.884L72.8051 575.324H74.0883ZM83.5944 575.324L83.2692 578.884L86.8288 577.97L87.0133 579.121L83.5417 579.464L85.7126 582.452L84.6227 583.076L82.944 579.745L81.362 583.076L80.2633 582.452L82.3903 579.464L78.9626 579.121L79.1296 577.97L82.654 578.884L82.3112 575.324H83.5944ZM93.1005 575.324L92.7753 578.884L96.3348 577.97L96.5194 579.121L93.0477 579.464L95.2186 582.452L94.1288 583.076L92.4501 579.745L90.868 583.076L89.7694 582.452L91.8964 579.464L88.4686 579.121L88.6356 577.97L92.16 578.884L91.8173 575.324H93.1005Z" fill="#323232"/>
<path d="M1.70996 475.243C1.1709 475.243 0.728516 475.164 0.382812 475.006V474.232C0.839844 474.35 1.27637 474.408 1.69238 474.408C3.11035 474.408 3.81934 473.635 3.81934 472.088V459.15H4.71582V472C4.71582 474.162 3.71387 475.243 1.70996 475.243ZM13.4397 472L13.2199 470.488H13.1496C12.6691 471.104 12.174 471.54 11.6643 471.798C11.1604 472.05 10.5627 472.176 9.8713 472.176C8.9338 472.176 8.2043 471.936 7.68282 471.455C7.16134 470.975 6.90059 470.31 6.90059 469.46C6.90059 468.528 7.28731 467.805 8.06075 467.289C8.84005 466.773 9.96505 466.501 11.4358 466.472L13.2551 466.419V465.786C13.2551 464.878 13.0705 464.192 12.7014 463.729C12.3322 463.267 11.7375 463.035 10.9172 463.035C10.0324 463.035 9.11544 463.281 8.16622 463.773L7.84102 463.018C8.88985 462.525 9.92696 462.279 10.9524 462.279C12.0012 462.279 12.7834 462.552 13.299 463.097C13.8205 463.642 14.0813 464.491 14.0813 465.646V472H13.4397ZM9.92403 471.385C10.9436 471.385 11.7463 471.095 12.3322 470.515C12.924 469.929 13.2199 469.117 13.2199 468.08V467.14L11.55 467.21C10.2082 467.274 9.2502 467.485 8.67598 467.843C8.10763 468.194 7.82345 468.745 7.82345 469.495C7.82345 470.093 8.00509 470.559 8.36837 470.893C8.73751 471.221 9.25606 471.385 9.92403 471.385ZM23.4379 472V465.804C23.4379 464.843 23.2358 464.146 22.8315 463.712C22.4272 463.272 21.8002 463.053 20.9506 463.053C19.808 463.053 18.9701 463.343 18.4369 463.923C17.9096 464.497 17.6459 465.432 17.6459 466.727V472H16.7758V462.446H17.5141L17.6811 463.756H17.7338C18.3549 462.76 19.4594 462.262 21.0473 462.262C23.2153 462.262 24.2992 463.425 24.2992 465.751V472H23.4379ZM30.8434 472.176C29.4547 472.176 28.3707 471.748 27.5914 470.893C26.818 470.037 26.4313 468.839 26.4313 467.298C26.4313 465.774 26.8063 464.556 27.5563 463.642C28.3063 462.722 29.317 462.262 30.5885 462.262C31.7135 462.262 32.6012 462.654 33.2516 463.439C33.902 464.225 34.2272 465.291 34.2272 466.639V467.342H27.3453C27.3571 468.654 27.6617 469.656 28.2594 470.348C28.8629 471.039 29.7242 471.385 30.8434 471.385C31.3883 471.385 31.8658 471.347 32.276 471.271C32.692 471.194 33.2164 471.03 33.8492 470.778V471.569C33.3102 471.804 32.8121 471.962 32.3551 472.044C31.8981 472.132 31.3942 472.176 30.8434 472.176ZM30.5885 463.035C29.6686 463.035 28.9303 463.34 28.3737 463.949C27.817 464.553 27.4918 465.426 27.3981 466.568H33.3043C33.3043 465.461 33.0641 464.597 32.5836 463.976C32.1031 463.349 31.4381 463.035 30.5885 463.035ZM50.6993 465.452C50.6993 467.608 50.1338 469.24 49.003 470.348C47.8721 471.449 46.211 472 44.0196 472H40.9434V459.15H44.4151C46.4659 459.15 48.0245 459.687 49.0909 460.759C50.1631 461.831 50.6993 463.396 50.6993 465.452ZM49.7237 465.487C49.7237 463.647 49.2549 462.265 48.3174 461.339C47.3858 460.407 46.0147 459.941 44.2041 459.941H41.8399V471.209H43.9668C47.8047 471.209 49.7237 469.302 49.7237 465.487ZM60.926 467.21C60.926 468.769 60.5481 469.987 59.7922 470.866C59.0364 471.739 57.9934 472.176 56.6633 472.176C55.8254 472.176 55.0872 471.974 54.4485 471.569C53.8098 471.165 53.3206 470.585 52.9807 469.829C52.6409 469.073 52.4709 468.2 52.4709 467.21C52.4709 465.651 52.8489 464.438 53.6047 463.571C54.3606 462.698 55.3977 462.262 56.7161 462.262C58.0286 462.262 59.0569 462.704 59.801 463.589C60.551 464.468 60.926 465.675 60.926 467.21ZM53.385 467.21C53.385 468.522 53.6721 469.548 54.2463 470.286C54.8264 471.019 55.6438 471.385 56.6985 471.385C57.7532 471.385 58.5676 471.019 59.1418 470.286C59.7219 469.548 60.012 468.522 60.012 467.21C60.012 465.892 59.719 464.869 59.1331 464.143C58.553 463.416 57.7356 463.053 56.6809 463.053C55.6262 463.053 54.8118 463.416 54.2375 464.143C53.6692 464.863 53.385 465.886 53.385 467.21ZM67.0219 472.176C65.6333 472.176 64.5493 471.748 63.77 470.893C62.9965 470.037 62.6098 468.839 62.6098 467.298C62.6098 465.774 62.9848 464.556 63.7348 463.642C64.4848 462.722 65.4956 462.262 66.767 462.262C67.892 462.262 68.7797 462.654 69.4301 463.439C70.0805 464.225 70.4057 465.291 70.4057 466.639V467.342H63.5239C63.5356 468.654 63.8403 469.656 64.4379 470.348C65.0415 471.039 65.9028 471.385 67.0219 471.385C67.5669 471.385 68.0444 471.347 68.4545 471.271C68.8706 471.194 69.395 471.03 70.0278 470.778V471.569C69.4887 471.804 68.9907 471.962 68.5336 472.044C68.0766 472.132 67.5727 472.176 67.0219 472.176ZM66.767 463.035C65.8471 463.035 65.1088 463.34 64.5522 463.949C63.9956 464.553 63.6704 465.426 63.5766 466.568H69.4829C69.4829 465.461 69.2426 464.597 68.7622 463.976C68.2817 463.349 67.6167 463.035 66.767 463.035Z" fill="#323232"/>
<rect x="1" y="494" width="344" height="0.5" fill="#323232"/>
<rect x="1" y="552" width="344" height="0.5" fill="#323232"/>
<rect x="1" y="611" width="344" height="0.5" fill="#323232"/>
<path d="M455.098 299.262C455.789 299.262 456.387 299.388 456.891 299.64C457.395 299.892 457.846 300.322 458.244 300.932H458.297C458.262 300.193 458.244 299.47 458.244 298.761V295.324H459.105V309H458.534L458.314 307.541H458.244C457.518 308.631 456.475 309.176 455.115 309.176C453.797 309.176 452.789 308.766 452.092 307.945C451.395 307.125 451.046 305.93 451.046 304.359C451.046 302.707 451.392 301.444 452.083 300.571C452.774 299.698 453.779 299.262 455.098 299.262ZM455.098 300.053C454.055 300.053 453.27 300.419 452.742 301.151C452.221 301.884 451.96 302.947 451.96 304.342C451.96 307.049 453.012 308.402 455.115 308.402C456.193 308.402 456.984 308.089 457.488 307.462C457.992 306.835 458.244 305.801 458.244 304.359V304.21C458.244 302.733 457.995 301.673 457.497 301.028C457.005 300.378 456.205 300.053 455.098 300.053ZM469.816 304.21C469.816 305.769 469.438 306.987 468.682 307.866C467.926 308.739 466.883 309.176 465.553 309.176C464.715 309.176 463.977 308.974 463.338 308.569C462.699 308.165 462.21 307.585 461.87 306.829C461.53 306.073 461.361 305.2 461.361 304.21C461.361 302.651 461.738 301.438 462.494 300.571C463.25 299.698 464.287 299.262 465.606 299.262C466.918 299.262 467.946 299.704 468.691 300.589C469.441 301.468 469.816 302.675 469.816 304.21ZM462.275 304.21C462.275 305.522 462.562 306.548 463.136 307.286C463.716 308.019 464.533 308.385 465.588 308.385C466.643 308.385 467.457 308.019 468.031 307.286C468.612 306.548 468.902 305.522 468.902 304.21C468.902 302.892 468.609 301.869 468.023 301.143C467.443 300.416 466.625 300.053 465.571 300.053C464.516 300.053 463.701 300.416 463.127 301.143C462.559 301.863 462.275 302.886 462.275 304.21ZM475.912 309.176C474.523 309.176 473.439 308.748 472.66 307.893C471.886 307.037 471.499 305.839 471.499 304.298C471.499 302.774 471.874 301.556 472.624 300.642C473.374 299.722 474.385 299.262 475.657 299.262C476.782 299.262 477.669 299.654 478.32 300.439C478.97 301.225 479.295 302.291 479.295 303.639V304.342H472.413C472.425 305.654 472.73 306.656 473.328 307.348C473.931 308.039 474.792 308.385 475.912 308.385C476.456 308.385 476.934 308.347 477.344 308.271C477.76 308.194 478.285 308.03 478.917 307.778V308.569C478.378 308.804 477.88 308.962 477.423 309.044C476.966 309.132 476.462 309.176 475.912 309.176ZM475.657 300.035C474.737 300.035 473.998 300.34 473.442 300.949C472.885 301.553 472.56 302.426 472.466 303.568H478.372C478.372 302.461 478.132 301.597 477.652 300.976C477.171 300.349 476.506 300.035 475.657 300.035ZM494.883 302.628C494.883 303.964 494.617 305.036 494.084 305.845C493.556 306.653 492.839 307.058 491.93 307.058C491.409 307.058 490.984 306.899 490.656 306.583C490.334 306.267 490.146 305.836 490.093 305.291H490.058C489.806 305.877 489.443 306.319 488.968 306.618C488.494 306.911 487.94 307.058 487.307 307.058C486.44 307.058 485.769 306.776 485.295 306.214C484.82 305.646 484.583 304.852 484.583 303.832C484.583 302.648 484.934 301.682 485.637 300.932C486.346 300.176 487.269 299.798 488.406 299.798C489.214 299.798 490.052 299.918 490.92 300.158L490.726 304.236V304.5C490.726 305.109 490.829 305.569 491.034 305.88C491.239 306.185 491.579 306.337 492.053 306.337C492.657 306.337 493.149 305.997 493.53 305.317C493.917 304.632 494.11 303.741 494.11 302.646C494.11 301.509 493.879 300.513 493.416 299.657C492.953 298.802 492.291 298.146 491.429 297.688C490.574 297.226 489.595 296.994 488.494 296.994C487.146 296.994 485.957 297.287 484.925 297.873C483.9 298.453 483.109 299.276 482.552 300.343C482.002 301.409 481.726 302.634 481.726 304.017C481.726 305.903 482.215 307.362 483.194 308.394C484.172 309.419 485.561 309.932 487.36 309.932C487.905 309.932 488.456 309.879 489.012 309.773C489.575 309.668 490.255 309.463 491.051 309.158V310.028C489.862 310.497 488.649 310.731 487.413 310.731C485.368 310.731 483.774 310.146 482.631 308.974C481.489 307.796 480.918 306.161 480.918 304.069C480.918 302.569 481.234 301.222 481.867 300.026C482.505 298.825 483.405 297.894 484.565 297.231C485.731 296.569 487.047 296.238 488.511 296.238C489.771 296.238 490.884 296.499 491.851 297.021C492.824 297.542 493.571 298.289 494.092 299.262C494.62 300.229 494.883 301.351 494.883 302.628ZM485.488 303.814C485.488 304.652 485.649 305.282 485.971 305.704C486.294 306.126 486.803 306.337 487.501 306.337C488.995 306.337 489.795 305.323 489.9 303.296L490.041 300.738C489.578 300.58 489.012 300.501 488.344 300.501C487.471 300.501 486.777 300.803 486.261 301.406C485.746 302.004 485.488 302.807 485.488 303.814ZM504.53 299.446V300.053L502.553 300.176C503.08 300.832 503.344 301.553 503.344 302.338C503.344 303.258 503.036 304.005 502.421 304.579C501.811 305.147 500.991 305.432 499.96 305.432C499.526 305.432 499.222 305.414 499.046 305.379C498.7 305.561 498.436 305.774 498.255 306.021C498.073 306.267 497.982 306.527 497.982 306.803C497.982 307.107 498.097 307.33 498.325 307.471C498.559 307.611 498.949 307.682 499.494 307.682H501.164C502.201 307.682 502.995 307.893 503.546 308.314C504.097 308.73 504.372 309.349 504.372 310.169C504.372 311.177 503.962 311.953 503.141 312.498C502.327 313.049 501.164 313.324 499.652 313.324C498.451 313.324 497.519 313.093 496.857 312.63C496.201 312.167 495.873 311.522 495.873 310.696C495.873 310.04 496.075 309.495 496.479 309.062C496.889 308.628 497.443 308.332 498.14 308.174C497.853 308.051 497.622 307.878 497.446 307.655C497.276 307.427 497.191 307.166 497.191 306.873C497.191 306.234 497.598 305.672 498.413 305.186C497.856 304.957 497.423 304.6 497.112 304.113C496.802 303.621 496.646 303.059 496.646 302.426C496.646 301.471 496.948 300.706 497.552 300.132C498.161 299.552 498.981 299.262 500.013 299.262C500.639 299.262 501.126 299.323 501.472 299.446H504.53ZM496.796 310.617C496.796 311.93 497.771 312.586 499.722 312.586C502.23 312.586 503.484 311.786 503.484 310.187C503.484 309.612 503.288 309.196 502.895 308.938C502.503 308.681 501.867 308.552 500.988 308.552H499.424C497.672 308.552 496.796 309.24 496.796 310.617ZM497.525 302.426C497.525 303.164 497.748 303.738 498.193 304.148C498.644 304.553 499.245 304.755 499.995 304.755C500.792 304.755 501.401 304.553 501.823 304.148C502.251 303.744 502.465 303.158 502.465 302.391C502.465 301.576 502.245 300.967 501.806 300.562C501.372 300.152 500.763 299.947 499.977 299.947C499.216 299.947 498.615 300.167 498.176 300.606C497.742 301.04 497.525 301.646 497.525 302.426ZM518.026 309V302.733C518.026 301.802 517.845 301.122 517.481 300.694C517.118 300.267 516.562 300.053 515.812 300.053C514.833 300.053 514.109 300.322 513.641 300.861C513.172 301.4 512.938 302.247 512.938 303.401V309H512.05V302.47C512.05 300.858 511.312 300.053 509.835 300.053C508.833 300.053 508.104 300.346 507.647 300.932C507.189 301.512 506.961 302.443 506.961 303.727V309H506.091V299.446H506.812L506.996 300.756H507.049C507.313 300.281 507.688 299.915 508.174 299.657C508.66 299.394 509.196 299.262 509.782 299.262C511.288 299.262 512.255 299.827 512.683 300.958H512.718C513.028 300.413 513.444 299.994 513.966 299.701C514.493 299.408 515.091 299.262 515.759 299.262C516.802 299.262 517.584 299.54 518.106 300.097C518.627 300.653 518.888 301.538 518.888 302.751V309H518.026ZM527.374 309L527.155 307.488H527.084C526.604 308.104 526.109 308.54 525.599 308.798C525.095 309.05 524.497 309.176 523.806 309.176C522.868 309.176 522.139 308.936 521.617 308.455C521.096 307.975 520.835 307.31 520.835 306.46C520.835 305.528 521.222 304.805 521.995 304.289C522.775 303.773 523.9 303.501 525.37 303.472L527.19 303.419V302.786C527.19 301.878 527.005 301.192 526.636 300.729C526.267 300.267 525.672 300.035 524.852 300.035C523.967 300.035 523.05 300.281 522.101 300.773L521.776 300.018C522.824 299.525 523.862 299.279 524.887 299.279C525.936 299.279 526.718 299.552 527.234 300.097C527.755 300.642 528.016 301.491 528.016 302.646V309H527.374ZM523.859 308.385C524.878 308.385 525.681 308.095 526.267 307.515C526.859 306.929 527.155 306.117 527.155 305.08V304.14L525.485 304.21C524.143 304.274 523.185 304.485 522.611 304.843C522.042 305.194 521.758 305.745 521.758 306.495C521.758 307.093 521.94 307.559 522.303 307.893C522.672 308.221 523.191 308.385 523.859 308.385ZM531.581 309H530.71V299.446H531.581V309ZM530.587 296.792C530.587 296.229 530.772 295.948 531.141 295.948C531.323 295.948 531.463 296.021 531.563 296.168C531.668 296.314 531.721 296.522 531.721 296.792C531.721 297.056 531.668 297.264 531.563 297.416C531.463 297.568 531.323 297.645 531.141 297.645C530.772 297.645 530.587 297.36 530.587 296.792ZM535.251 309H534.381V295.324H535.251V309ZM537.875 308.314C537.875 307.74 538.109 307.453 538.578 307.453C539.058 307.453 539.299 307.74 539.299 308.314C539.299 308.889 539.058 309.176 538.578 309.176C538.109 309.176 537.875 308.889 537.875 308.314ZM545.746 309.176C544.381 309.176 543.312 308.745 542.538 307.884C541.765 307.022 541.378 305.821 541.378 304.28C541.378 302.698 541.779 301.468 542.582 300.589C543.385 299.704 544.483 299.262 545.878 299.262C546.704 299.262 547.495 299.405 548.251 299.692L548.014 300.466C547.188 300.19 546.47 300.053 545.86 300.053C544.689 300.053 543.801 300.416 543.197 301.143C542.594 301.863 542.292 302.903 542.292 304.263C542.292 305.552 542.594 306.562 543.197 307.295C543.801 308.021 544.645 308.385 545.729 308.385C546.596 308.385 547.401 308.229 548.146 307.919V308.728C547.536 309.026 546.736 309.176 545.746 309.176Z" fill="#FF0C0C"/>
<path d="M455.546 354.324L455.221 357.884L458.78 356.97L458.965 358.121L455.493 358.464L457.664 361.452L456.574 362.076L454.896 358.745L453.313 362.076L452.215 361.452L454.342 358.464L450.914 358.121L451.081 356.97L454.605 357.884L454.263 354.324H455.546ZM465.052 354.324L464.727 357.884L468.286 356.97L468.471 358.121L464.999 358.464L467.17 361.452L466.08 362.076L464.402 358.745L462.82 362.076L461.721 361.452L463.848 358.464L460.42 358.121L460.587 356.97L464.112 357.884L463.769 354.324H465.052ZM474.558 354.324L474.233 357.884L477.792 356.97L477.977 358.121L474.505 358.464L476.676 361.452L475.586 362.076L473.908 358.745L472.326 362.076L471.227 361.452L473.354 358.464L469.926 358.121L470.093 356.97L473.618 357.884L473.275 354.324H474.558ZM484.064 354.324L483.739 357.884L487.298 356.97L487.483 358.121L484.011 358.464L486.182 361.452L485.092 362.076L483.414 358.745L481.832 362.076L480.733 361.452L482.86 358.464L479.432 358.121L479.599 356.97L483.124 357.884L482.781 354.324H484.064ZM493.57 354.324L493.245 357.884L496.805 356.97L496.989 358.121L493.517 358.464L495.688 361.452L494.598 362.076L492.92 358.745L491.338 362.076L490.239 361.452L492.366 358.464L488.938 358.121L489.105 356.97L492.63 357.884L492.287 354.324H493.57ZM503.076 354.324L502.751 357.884L506.311 356.97L506.495 358.121L503.023 358.464L505.194 361.452L504.105 362.076L502.426 358.745L500.844 362.076L499.745 361.452L501.872 358.464L498.444 358.121L498.611 356.97L502.136 357.884L501.793 354.324H503.076ZM512.582 354.324L512.257 357.884L515.817 356.97L516.001 358.121L512.53 358.464L514.7 361.452L513.611 362.076L511.932 358.745L510.35 362.076L509.251 361.452L511.378 358.464L507.95 358.121L508.117 356.97L511.642 357.884L511.299 354.324H512.582ZM522.088 354.324L521.763 357.884L525.323 356.97L525.507 358.121L522.036 358.464L524.206 361.452L523.117 362.076L521.438 358.745L519.856 362.076L518.757 361.452L520.884 358.464L517.456 358.121L517.623 356.97L521.148 357.884L520.805 354.324H522.088ZM531.594 354.324L531.269 357.884L534.829 356.97L535.013 358.121L531.542 358.464L533.713 361.452L532.623 362.076L530.944 358.745L529.362 362.076L528.263 361.452L530.39 358.464L526.963 358.121L527.13 356.97L530.654 357.884L530.311 354.324H531.594ZM541.1 354.324L540.775 357.884L544.335 356.97L544.519 358.121L541.048 358.464L543.219 361.452L542.129 362.076L540.45 358.745L538.868 362.076L537.769 361.452L539.896 358.464L536.469 358.121L536.636 356.97L540.16 357.884L539.817 354.324H541.1Z" fill="#323232"/>
<path d="M449.71 254.243C449.171 254.243 448.729 254.164 448.383 254.006V253.232C448.84 253.35 449.276 253.408 449.692 253.408C451.11 253.408 451.819 252.635 451.819 251.088V238.15H452.716V251C452.716 253.162 451.714 254.243 449.71 254.243ZM461.44 251L461.22 249.488H461.15C460.669 250.104 460.174 250.54 459.664 250.798C459.16 251.05 458.563 251.176 457.871 251.176C456.934 251.176 456.204 250.936 455.683 250.455C455.161 249.975 454.901 249.31 454.901 248.46C454.901 247.528 455.287 246.805 456.061 246.289C456.84 245.773 457.965 245.501 459.436 245.472L461.255 245.419V244.786C461.255 243.878 461.071 243.192 460.701 242.729C460.332 242.267 459.738 242.035 458.917 242.035C458.032 242.035 457.115 242.281 456.166 242.773L455.841 242.018C456.89 241.525 457.927 241.279 458.952 241.279C460.001 241.279 460.783 241.552 461.299 242.097C461.821 242.642 462.081 243.491 462.081 244.646V251H461.44ZM457.924 250.385C458.944 250.385 459.746 250.095 460.332 249.515C460.924 248.929 461.22 248.117 461.22 247.08V246.14L459.55 246.21C458.208 246.274 457.25 246.485 456.676 246.843C456.108 247.194 455.823 247.745 455.823 248.495C455.823 249.093 456.005 249.559 456.368 249.893C456.738 250.221 457.256 250.385 457.924 250.385ZM471.438 251V244.804C471.438 243.843 471.236 243.146 470.831 242.712C470.427 242.272 469.8 242.053 468.951 242.053C467.808 242.053 466.97 242.343 466.437 242.923C465.91 243.497 465.646 244.432 465.646 245.727V251H464.776V241.446H465.514L465.681 242.756H465.734C466.355 241.76 467.459 241.262 469.047 241.262C471.215 241.262 472.299 242.425 472.299 244.751V251H471.438ZM478.843 251.176C477.455 251.176 476.371 250.748 475.591 249.893C474.818 249.037 474.431 247.839 474.431 246.298C474.431 244.774 474.806 243.556 475.556 242.642C476.306 241.722 477.317 241.262 478.589 241.262C479.714 241.262 480.601 241.654 481.252 242.439C481.902 243.225 482.227 244.291 482.227 245.639V246.342H475.345C475.357 247.654 475.662 248.656 476.259 249.348C476.863 250.039 477.724 250.385 478.843 250.385C479.388 250.385 479.866 250.347 480.276 250.271C480.692 250.194 481.216 250.03 481.849 249.778V250.569C481.31 250.804 480.812 250.962 480.355 251.044C479.898 251.132 479.394 251.176 478.843 251.176ZM478.589 242.035C477.669 242.035 476.93 242.34 476.374 242.949C475.817 243.553 475.492 244.426 475.398 245.568H481.304C481.304 244.461 481.064 243.597 480.584 242.976C480.103 242.349 479.438 242.035 478.589 242.035ZM498.699 244.452C498.699 246.608 498.134 248.24 497.003 249.348C495.872 250.449 494.211 251 492.02 251H488.943V238.15H492.415C494.466 238.15 496.024 238.687 497.091 239.759C498.163 240.831 498.699 242.396 498.699 244.452ZM497.724 244.487C497.724 242.647 497.255 241.265 496.317 240.339C495.386 239.407 494.015 238.941 492.204 238.941H489.84V250.209H491.967C495.805 250.209 497.724 248.302 497.724 244.487ZM508.926 246.21C508.926 247.769 508.548 248.987 507.792 249.866C507.036 250.739 505.993 251.176 504.663 251.176C503.825 251.176 503.087 250.974 502.448 250.569C501.81 250.165 501.321 249.585 500.981 248.829C500.641 248.073 500.471 247.2 500.471 246.21C500.471 244.651 500.849 243.438 501.605 242.571C502.361 241.698 503.398 241.262 504.716 241.262C506.029 241.262 507.057 241.704 507.801 242.589C508.551 243.468 508.926 244.675 508.926 246.21ZM501.385 246.21C501.385 247.522 501.672 248.548 502.246 249.286C502.826 250.019 503.644 250.385 504.698 250.385C505.753 250.385 506.568 250.019 507.142 249.286C507.722 248.548 508.012 247.522 508.012 246.21C508.012 244.892 507.719 243.869 507.133 243.143C506.553 242.416 505.736 242.053 504.681 242.053C503.626 242.053 502.812 242.416 502.238 243.143C501.669 243.863 501.385 244.886 501.385 246.21ZM515.022 251.176C513.633 251.176 512.549 250.748 511.77 249.893C510.997 249.037 510.61 247.839 510.61 246.298C510.61 244.774 510.985 243.556 511.735 242.642C512.485 241.722 513.496 241.262 514.767 241.262C515.892 241.262 516.78 241.654 517.43 242.439C518.081 243.225 518.406 244.291 518.406 245.639V246.342H511.524C511.536 247.654 511.84 248.656 512.438 249.348C513.041 250.039 513.903 250.385 515.022 250.385C515.567 250.385 516.044 250.347 516.455 250.271C516.871 250.194 517.395 250.03 518.028 249.778V250.569C517.489 250.804 516.991 250.962 516.534 251.044C516.077 251.132 515.573 251.176 515.022 251.176ZM514.767 242.035C513.847 242.035 513.109 242.34 512.552 242.949C511.996 243.553 511.67 244.426 511.577 245.568H517.483C517.483 244.461 517.243 243.597 516.762 242.976C516.282 242.349 515.617 242.035 514.767 242.035Z" fill="#323232"/>
<rect x="449" y="273" width="344" height="0.5" fill="#323232"/>
<rect x="449" y="331" width="344" height="0.5" fill="#323232"/>
<rect x="449" y="390" width="344" height="0.5" fill="#323232"/>
<path d="M10.0195 69.2012C10.0195 70.4577 9.5638 71.4375 8.65234 72.1406C7.74089 72.8438 6.50391 73.1953 4.94141 73.1953C3.2487 73.1953 1.94661 72.9772 1.03516 72.541V70.9395C1.62109 71.1868 2.25911 71.3822 2.94922 71.5254C3.63932 71.6686 4.32292 71.7402 5 71.7402C6.10677 71.7402 6.9401 71.5319 7.5 71.1152C8.0599 70.6921 8.33984 70.1061 8.33984 69.3574C8.33984 68.8626 8.23893 68.459 8.03711 68.1465C7.8418 67.8275 7.50977 67.5345 7.04102 67.2676C6.57878 67.0007 5.8724 66.6979 4.92188 66.3594C3.59375 65.8841 2.64323 65.321 2.07031 64.6699C1.50391 64.0189 1.2207 63.1693 1.2207 62.1211C1.2207 61.0208 1.63411 60.1452 2.46094 59.4941C3.28776 58.8431 4.38151 58.5176 5.74219 58.5176C7.16146 58.5176 8.4668 58.778 9.6582 59.2988L9.14062 60.7441C7.96224 60.2493 6.81641 60.002 5.70312 60.002C4.82422 60.002 4.13737 60.1908 3.64258 60.5684C3.14779 60.946 2.90039 61.4701 2.90039 62.1406C2.90039 62.6354 2.99154 63.0423 3.17383 63.3613C3.35612 63.6738 3.66211 63.9635 4.0918 64.2305C4.52799 64.4909 5.19206 64.7806 6.08398 65.0996C7.58138 65.6335 8.61003 66.2064 9.16992 66.8184C9.73633 67.4303 10.0195 68.2246 10.0195 69.2012ZM16.1523 71.8574C16.4388 71.8574 16.7155 71.8379 16.9824 71.7988C17.2493 71.7533 17.4609 71.7077 17.6172 71.6621V72.9023C17.4414 72.987 17.181 73.0553 16.8359 73.1074C16.4974 73.166 16.1914 73.1953 15.918 73.1953C13.8477 73.1953 12.8125 72.1048 12.8125 69.9238V63.5566H11.2793V62.7754L12.8125 62.1016L13.4961 59.8164H14.4336V62.2969H17.5391V63.5566H14.4336V69.8555C14.4336 70.5 14.5866 70.9948 14.8926 71.3398C15.1986 71.6849 15.6185 71.8574 16.1523 71.8574ZM26.3477 73L26.0254 71.4766H25.9473C25.4134 72.1471 24.8796 72.6029 24.3457 72.8438C23.8184 73.0781 23.1576 73.1953 22.3633 73.1953C21.3021 73.1953 20.4688 72.9219 19.8633 72.375C19.2643 71.8281 18.9648 71.0501 18.9648 70.041C18.9648 67.8796 20.6934 66.7467 24.1504 66.6426L25.9668 66.584V65.9199C25.9668 65.0801 25.7845 64.4616 25.4199 64.0645C25.0618 63.6608 24.4857 63.459 23.6914 63.459C22.7995 63.459 21.7904 63.7324 20.6641 64.2793L20.166 63.0391C20.6934 62.7526 21.2695 62.528 21.8945 62.3652C22.526 62.2025 23.1576 62.1211 23.7891 62.1211C25.0651 62.1211 26.0091 62.4043 26.6211 62.9707C27.2396 63.5371 27.5488 64.4453 27.5488 65.6953V73H26.3477ZM22.6855 71.8574C23.6947 71.8574 24.4857 71.5807 25.0586 71.0273C25.638 70.474 25.9277 69.6992 25.9277 68.7031V67.7363L24.3066 67.8047C23.0176 67.8503 22.0866 68.0521 21.5137 68.4102C20.9473 68.7617 20.6641 69.3118 20.6641 70.0605C20.6641 70.6465 20.8398 71.0924 21.1914 71.3984C21.5495 71.7044 22.0475 71.8574 22.6855 71.8574ZM34.3555 71.8574C34.6419 71.8574 34.9186 71.8379 35.1855 71.7988C35.4525 71.7533 35.6641 71.7077 35.8203 71.6621V72.9023C35.6445 72.987 35.3841 73.0553 35.0391 73.1074C34.7005 73.166 34.3945 73.1953 34.1211 73.1953C32.0508 73.1953 31.0156 72.1048 31.0156 69.9238V63.5566H29.4824V62.7754L31.0156 62.1016L31.6992 59.8164H32.6367V62.2969H35.7422V63.5566H32.6367V69.8555C32.6367 70.5 32.7897 70.9948 33.0957 71.3398C33.4017 71.6849 33.8216 71.8574 34.3555 71.8574ZM39.4922 62.2969V69.2402C39.4922 70.1126 39.6908 70.7637 40.0879 71.1934C40.485 71.623 41.1068 71.8379 41.9531 71.8379C43.0729 71.8379 43.89 71.5319 44.4043 70.9199C44.9251 70.3079 45.1855 69.3086 45.1855 67.9219V62.2969H46.8066V73H45.4688L45.2344 71.5645H45.1465C44.8145 72.0918 44.3522 72.4954 43.7598 72.7754C43.1738 73.0553 42.5033 73.1953 41.748 73.1953C40.446 73.1953 39.4694 72.8861 38.8184 72.2676C38.1738 71.6491 37.8516 70.6595 37.8516 69.2988V62.2969H39.4922ZM57.1582 70.0801C57.1582 71.0762 56.7871 71.8444 56.0449 72.3848C55.3027 72.9251 54.2611 73.1953 52.9199 73.1953C51.5007 73.1953 50.3939 72.9707 49.5996 72.5215V71.0176C50.1139 71.278 50.6641 71.4831 51.25 71.6328C51.8424 71.7826 52.4121 71.8574 52.959 71.8574C53.8053 71.8574 54.4564 71.724 54.9121 71.457C55.3678 71.1836 55.5957 70.7702 55.5957 70.2168C55.5957 69.8001 55.4134 69.4453 55.0488 69.1523C54.6908 68.8529 53.9876 68.5013 52.9395 68.0977C51.9434 67.7266 51.2337 67.4043 50.8105 67.1309C50.3939 66.8509 50.0814 66.5352 49.873 66.1836C49.6712 65.832 49.5703 65.4121 49.5703 64.9238C49.5703 64.0514 49.9251 63.3646 50.6348 62.8633C51.3444 62.3555 52.3177 62.1016 53.5547 62.1016C54.707 62.1016 55.8333 62.3359 56.9336 62.8047L56.3574 64.123C55.2832 63.6803 54.3099 63.459 53.4375 63.459C52.6693 63.459 52.0898 63.5794 51.6992 63.8203C51.3086 64.0612 51.1133 64.3932 51.1133 64.8164C51.1133 65.1029 51.1849 65.347 51.3281 65.5488C51.4779 65.7507 51.7155 65.9427 52.041 66.125C52.3665 66.3073 52.9915 66.571 53.916 66.916C55.1855 67.3783 56.0417 67.8438 56.4844 68.3125C56.9336 68.7812 57.1582 69.3704 57.1582 70.0801ZM59.5703 71.9648C59.5703 71.5286 59.668 71.1999 59.8633 70.9785C60.0651 70.7507 60.3516 70.6367 60.7227 70.6367C61.1003 70.6367 61.3932 70.7507 61.6016 70.9785C61.8164 71.1999 61.9238 71.5286 61.9238 71.9648C61.9238 72.388 61.8164 72.7135 61.6016 72.9414C61.3867 73.1693 61.0938 73.2832 60.7227 73.2832C60.3906 73.2832 60.1139 73.1823 59.8926 72.9805C59.6777 72.7721 59.5703 72.4336 59.5703 71.9648ZM59.5703 63.3418C59.5703 62.4629 59.9544 62.0234 60.7227 62.0234C61.5234 62.0234 61.9238 62.4629 61.9238 63.3418C61.9238 63.765 61.8164 64.0905 61.6016 64.3184C61.3867 64.5462 61.0938 64.6602 60.7227 64.6602C60.3906 64.6602 60.1139 64.5592 59.8926 64.3574C59.6777 64.1491 59.5703 63.8105 59.5703 63.3418ZM6.24023 100.195C4.6582 100.195 3.4082 99.7135 2.49023 98.75C1.57878 97.7865 1.12305 96.4486 1.12305 94.7363C1.12305 93.0111 1.54622 91.6406 2.39258 90.625C3.24544 89.6094 4.38802 89.1016 5.82031 89.1016C7.16146 89.1016 8.22266 89.5443 9.00391 90.4297C9.78516 91.3086 10.1758 92.4707 10.1758 93.916V94.9414H2.80273C2.83529 96.1979 3.15104 97.1517 3.75 97.8027C4.35547 98.4538 5.20508 98.7793 6.29883 98.7793C7.45117 98.7793 8.59049 98.5384 9.7168 98.0566V99.502C9.14388 99.7493 8.60026 99.9251 8.08594 100.029C7.57812 100.14 6.96289 100.195 6.24023 100.195ZM5.80078 90.459C4.94141 90.459 4.25456 90.7389 3.74023 91.2988C3.23242 91.8587 2.93294 92.6335 2.8418 93.623H8.4375C8.4375 92.6009 8.20964 91.8197 7.75391 91.2793C7.29818 90.7324 6.64714 90.459 5.80078 90.459ZM26.5918 100V93.0371C26.5918 92.1842 26.4095 91.5462 26.0449 91.123C25.6803 90.6934 25.1139 90.4785 24.3457 90.4785C23.3366 90.4785 22.5911 90.7682 22.1094 91.3477C21.6276 91.9271 21.3867 92.819 21.3867 94.0234V100H19.7656V93.0371C19.7656 92.1842 19.5833 91.5462 19.2188 91.123C18.8542 90.6934 18.2845 90.4785 17.5098 90.4785C16.4941 90.4785 15.7487 90.7845 15.2734 91.3965C14.8047 92.002 14.5703 92.998 14.5703 94.3848V100H12.9492V89.2969H14.2676L14.5312 90.7617H14.6094C14.9154 90.2409 15.3451 89.834 15.8984 89.541C16.4583 89.248 17.0833 89.1016 17.7734 89.1016C19.4466 89.1016 20.5404 89.707 21.0547 90.918H21.1328C21.4518 90.3581 21.9141 89.9154 22.5195 89.5898C23.125 89.2643 23.8151 89.1016 24.5898 89.1016C25.8008 89.1016 26.7057 89.4141 27.3047 90.0391C27.9102 90.6576 28.2129 91.6504 28.2129 93.0176V100H26.5918ZM36.543 100.195C35.8464 100.195 35.2083 100.068 34.6289 99.8145C34.056 99.554 33.5742 99.1569 33.1836 98.623H33.0664C33.1445 99.248 33.1836 99.8405 33.1836 100.4V104.805H31.5625V89.2969H32.8809L33.1055 90.7617H33.1836C33.6003 90.1758 34.0853 89.7526 34.6387 89.4922C35.1921 89.2318 35.8268 89.1016 36.543 89.1016C37.9622 89.1016 39.056 89.5866 39.8242 90.5566C40.599 91.5267 40.9863 92.8874 40.9863 94.6387C40.9863 96.3965 40.5924 97.7637 39.8047 98.7402C39.0234 99.7103 37.9362 100.195 36.543 100.195ZM36.3086 90.4785C35.2148 90.4785 34.4238 90.7812 33.9355 91.3867C33.4473 91.9922 33.1966 92.9557 33.1836 94.2773V94.6387C33.1836 96.1426 33.4342 97.2201 33.9355 97.8711C34.4368 98.5156 35.2409 98.8379 36.3477 98.8379C37.2721 98.8379 37.9948 98.4635 38.5156 97.7148C39.043 96.9661 39.3066 95.9342 39.3066 94.6191C39.3066 93.2845 39.043 92.2624 38.5156 91.5527C37.9948 90.8366 37.2591 90.4785 36.3086 90.4785ZM47.2852 98.8574C47.5716 98.8574 47.8483 98.8379 48.1152 98.7988C48.3822 98.7533 48.5938 98.7077 48.75 98.6621V99.9023C48.5742 99.987 48.3138 100.055 47.9688 100.107C47.6302 100.166 47.3242 100.195 47.0508 100.195C44.9805 100.195 43.9453 99.1048 43.9453 96.9238V90.5566H42.4121V89.7754L43.9453 89.1016L44.6289 86.8164H45.5664V89.2969H48.6719V90.5566H45.5664V96.8555C45.5664 97.5 45.7194 97.9948 46.0254 98.3398C46.3314 98.6849 46.7513 98.8574 47.2852 98.8574ZM49.1992 89.2969H50.9375L53.2812 95.4004C53.7956 96.7936 54.1146 97.7995 54.2383 98.418H54.3164C54.401 98.0859 54.5768 97.5195 54.8438 96.7188C55.1172 95.9115 56.0026 93.4375 57.5 89.2969H59.2383L54.6387 101.484C54.1829 102.689 53.6491 103.542 53.0371 104.043C52.4316 104.551 51.6862 104.805 50.8008 104.805C50.306 104.805 49.8177 104.749 49.3359 104.639V103.34C49.694 103.418 50.0944 103.457 50.5371 103.457C51.6504 103.457 52.4447 102.832 52.9199 101.582L53.5156 100.059L49.1992 89.2969ZM65.2734 95.3809V93.8965H70.0684V95.3809H65.2734ZM85.6738 91.2207L85.0293 94.541H87.793V95.8008H84.7949L83.9746 100H82.6367L83.457 95.8008H80.498L79.6973 100H78.3691L79.1504 95.8008H76.5918V94.541H79.3945L80.0586 91.2207H77.3535V89.9805H80.2734L81.0742 85.7227H82.4316L81.6309 89.9805H84.6094L85.4297 85.7227H86.7383L85.918 89.9805H88.4961V91.2207H85.6738ZM80.7324 94.541H83.6914L84.3359 91.2207H81.377L80.7324 94.541ZM99.9609 100L98.1836 95.459H92.4609L90.7031 100H89.0234L94.668 85.6641H96.0645L101.68 100H99.9609ZM97.666 93.9648L96.0059 89.541C95.791 88.9811 95.5697 88.2943 95.3418 87.4805C95.1986 88.1055 94.9935 88.7923 94.7266 89.541L93.0469 93.9648H97.666ZM112.041 91.8164C112.041 97.4023 109.88 100.195 105.557 100.195C104.801 100.195 104.202 100.13 103.76 100V98.6035C104.281 98.7728 104.873 98.8574 105.537 98.8574C107.1 98.8574 108.278 98.3757 109.072 97.4121C109.873 96.4421 110.309 94.9577 110.381 92.959H110.264C109.906 93.4993 109.43 93.9128 108.838 94.1992C108.245 94.4792 107.578 94.6191 106.836 94.6191C105.573 94.6191 104.57 94.2415 103.828 93.4863C103.086 92.7311 102.715 91.6764 102.715 90.3223C102.715 88.8379 103.128 87.666 103.955 86.8066C104.788 85.9473 105.882 85.5176 107.236 85.5176C108.206 85.5176 109.053 85.7682 109.775 86.2695C110.505 86.7643 111.064 87.4902 111.455 88.4473C111.846 89.3978 112.041 90.5208 112.041 91.8164ZM107.236 86.9043C106.305 86.9043 105.586 87.2038 105.078 87.8027C104.57 88.4017 104.316 89.235 104.316 90.3027C104.316 91.2402 104.551 91.9792 105.02 92.5195C105.488 93.0534 106.201 93.3203 107.158 93.3203C107.751 93.3203 108.294 93.1999 108.789 92.959C109.29 92.7181 109.684 92.3893 109.971 91.9727C110.257 91.556 110.4 91.1198 110.4 90.6641C110.4 89.9805 110.267 89.349 110 88.7695C109.733 88.1901 109.359 87.7344 108.877 87.4023C108.402 87.0703 107.855 86.9043 107.236 86.9043ZM124.062 100L122.285 95.459H116.562L114.805 100H113.125L118.77 85.6641H120.166L125.781 100H124.062ZM121.768 93.9648L120.107 89.541C119.893 88.9811 119.671 88.2943 119.443 87.4805C119.3 88.1055 119.095 88.7923 118.828 89.541L117.148 93.9648H121.768ZM136.143 91.8164C136.143 97.4023 133.981 100.195 129.658 100.195C128.903 100.195 128.304 100.13 127.861 100V98.6035C128.382 98.7728 128.975 98.8574 129.639 98.8574C131.201 98.8574 132.38 98.3757 133.174 97.4121C133.975 96.4421 134.411 94.9577 134.482 92.959H134.365C134.007 93.4993 133.532 93.9128 132.939 94.1992C132.347 94.4792 131.68 94.6191 130.938 94.6191C129.674 94.6191 128.672 94.2415 127.93 93.4863C127.188 92.7311 126.816 91.6764 126.816 90.3223C126.816 88.8379 127.23 87.666 128.057 86.8066C128.89 85.9473 129.984 85.5176 131.338 85.5176C132.308 85.5176 133.154 85.7682 133.877 86.2695C134.606 86.7643 135.166 87.4902 135.557 88.4473C135.947 89.3978 136.143 90.5208 136.143 91.8164ZM131.338 86.9043C130.407 86.9043 129.688 87.2038 129.18 87.8027C128.672 88.4017 128.418 89.235 128.418 90.3027C128.418 91.2402 128.652 91.9792 129.121 92.5195C129.59 93.0534 130.303 93.3203 131.26 93.3203C131.852 93.3203 132.396 93.1999 132.891 92.959C133.392 92.7181 133.786 92.3893 134.072 91.9727C134.359 91.556 134.502 91.1198 134.502 90.6641C134.502 89.9805 134.368 89.349 134.102 88.7695C133.835 88.1901 133.46 87.7344 132.979 87.4023C132.503 87.0703 131.956 86.9043 131.338 86.9043ZM148.164 100L146.387 95.459H140.664L138.906 100H137.227L142.871 85.6641H144.268L149.883 100H148.164ZM145.869 93.9648L144.209 89.541C143.994 88.9811 143.773 88.2943 143.545 87.4805C143.402 88.1055 143.197 88.7923 142.93 89.541L141.25 93.9648H145.869ZM160.244 91.8164C160.244 97.4023 158.083 100.195 153.76 100.195C153.005 100.195 152.406 100.13 151.963 100V98.6035C152.484 98.7728 153.076 98.8574 153.74 98.8574C155.303 98.8574 156.481 98.3757 157.275 97.4121C158.076 96.4421 158.512 94.9577 158.584 92.959H158.467C158.109 93.4993 157.633 93.9128 157.041 94.1992C156.449 94.4792 155.781 94.6191 155.039 94.6191C153.776 94.6191 152.773 94.2415 152.031 93.4863C151.289 92.7311 150.918 91.6764 150.918 90.3223C150.918 88.8379 151.331 87.666 152.158 86.8066C152.992 85.9473 154.085 85.5176 155.439 85.5176C156.41 85.5176 157.256 85.7682 157.979 86.2695C158.708 86.7643 159.268 87.4902 159.658 88.4473C160.049 89.3978 160.244 90.5208 160.244 91.8164ZM155.439 86.9043C154.508 86.9043 153.789 87.2038 153.281 87.8027C152.773 88.4017 152.52 89.235 152.52 90.3027C152.52 91.2402 152.754 91.9792 153.223 92.5195C153.691 93.0534 154.404 93.3203 155.361 93.3203C155.954 93.3203 156.497 93.1999 156.992 92.959C157.493 92.7181 157.887 92.3893 158.174 91.9727C158.46 91.556 158.604 91.1198 158.604 90.6641C158.604 89.9805 158.47 89.349 158.203 88.7695C157.936 88.1901 157.562 87.7344 157.08 87.4023C156.605 87.0703 156.058 86.9043 155.439 86.9043ZM8.30078 127L7.97852 125.477H7.90039C7.36654 126.147 6.83268 126.603 6.29883 126.844C5.77148 127.078 5.11068 127.195 4.31641 127.195C3.25521 127.195 2.42188 126.922 1.81641 126.375C1.21745 125.828 0.917969 125.05 0.917969 124.041C0.917969 121.88 2.64648 120.747 6.10352 120.643L7.91992 120.584V119.92C7.91992 119.08 7.73763 118.462 7.37305 118.064C7.01497 117.661 6.4388 117.459 5.64453 117.459C4.7526 117.459 3.74349 117.732 2.61719 118.279L2.11914 117.039C2.64648 116.753 3.22266 116.528 3.84766 116.365C4.47917 116.202 5.11068 116.121 5.74219 116.121C7.01823 116.121 7.96224 116.404 8.57422 116.971C9.19271 117.537 9.50195 118.445 9.50195 119.695V127H8.30078ZM4.63867 125.857C5.64779 125.857 6.4388 125.581 7.01172 125.027C7.59115 124.474 7.88086 123.699 7.88086 122.703V121.736L6.25977 121.805C4.9707 121.85 4.03971 122.052 3.4668 122.41C2.90039 122.762 2.61719 123.312 2.61719 124.061C2.61719 124.646 2.79297 125.092 3.14453 125.398C3.5026 125.704 4.00065 125.857 4.63867 125.857ZM17.1289 127.195C15.5794 127.195 14.3783 126.72 13.5254 125.77C12.679 124.812 12.2559 123.462 12.2559 121.717C12.2559 119.926 12.6855 118.543 13.5449 117.566C14.4108 116.59 15.6413 116.102 17.2363 116.102C17.7507 116.102 18.265 116.157 18.7793 116.268C19.2936 116.378 19.6973 116.508 19.9902 116.658L19.4922 118.035C19.1341 117.892 18.7435 117.775 18.3203 117.684C17.8971 117.586 17.5228 117.537 17.1973 117.537C15.0228 117.537 13.9355 118.924 13.9355 121.697C13.9355 123.012 14.1992 124.021 14.7266 124.725C15.2604 125.428 16.0482 125.779 17.0898 125.779C17.9818 125.779 18.8965 125.587 19.834 125.203V126.639C19.1178 127.01 18.2161 127.195 17.1289 127.195ZM25.8398 125.857C26.1263 125.857 26.403 125.838 26.6699 125.799C26.9368 125.753 27.1484 125.708 27.3047 125.662V126.902C27.1289 126.987 26.8685 127.055 26.5234 127.107C26.1849 127.166 25.8789 127.195 25.6055 127.195C23.5352 127.195 22.5 126.105 22.5 123.924V117.557H20.9668V116.775L22.5 116.102L23.1836 113.816H24.1211V116.297H27.2266V117.557H24.1211V123.855C24.1211 124.5 24.2741 124.995 24.5801 125.34C24.8861 125.685 25.306 125.857 25.8398 125.857ZM31.0742 127H29.4531V116.297H31.0742V127ZM29.3164 113.396C29.3164 113.025 29.4076 112.755 29.5898 112.586C29.7721 112.41 30 112.322 30.2734 112.322C30.5339 112.322 30.7585 112.41 30.9473 112.586C31.1361 112.762 31.2305 113.032 31.2305 113.396C31.2305 113.761 31.1361 114.035 30.9473 114.217C30.7585 114.393 30.5339 114.48 30.2734 114.48C30 114.48 29.7721 114.393 29.5898 114.217C29.4076 114.035 29.3164 113.761 29.3164 113.396ZM36.8555 127L32.793 116.297H34.5312L36.8359 122.645C37.3568 124.129 37.6628 125.092 37.7539 125.535H37.832C37.9036 125.19 38.1283 124.477 38.5059 123.396C38.89 122.309 39.7461 119.943 41.0742 116.297H42.8125L38.75 127H36.8555ZM49.0527 127.195C47.4707 127.195 46.2207 126.714 45.3027 125.75C44.3913 124.786 43.9355 123.449 43.9355 121.736C43.9355 120.011 44.3587 118.641 45.2051 117.625C46.0579 116.609 47.2005 116.102 48.6328 116.102C49.974 116.102 51.0352 116.544 51.8164 117.43C52.5977 118.309 52.9883 119.471 52.9883 120.916V121.941H45.6152C45.6478 123.198 45.9635 124.152 46.5625 124.803C47.168 125.454 48.0176 125.779 49.1113 125.779C50.2637 125.779 51.403 125.538 52.5293 125.057V126.502C51.9564 126.749 51.4128 126.925 50.8984 127.029C50.3906 127.14 49.7754 127.195 49.0527 127.195ZM48.6133 117.459C47.7539 117.459 47.0671 117.739 46.5527 118.299C46.0449 118.859 45.7454 119.633 45.6543 120.623H51.25C51.25 119.601 51.0221 118.82 50.5664 118.279C50.1107 117.732 49.4596 117.459 48.6133 117.459ZM60.0586 122.381V120.896H64.8535V122.381H60.0586ZM80.459 118.221L79.8145 121.541H82.5781V122.801H79.5801L78.7598 127H77.4219L78.2422 122.801H75.2832L74.4824 127H73.1543L73.9355 122.801H71.377V121.541H74.1797L74.8438 118.221H72.1387V116.98H75.0586L75.8594 112.723H77.2168L76.416 116.98H79.3945L80.2148 112.723H81.5234L80.7031 116.98H83.2812V118.221H80.459ZM75.5176 121.541H78.4766L79.1211 118.221H76.1621L75.5176 121.541ZM93.6328 116.082C93.6328 116.993 93.3757 117.739 92.8613 118.318C92.3535 118.898 91.6309 119.285 90.6934 119.48V119.559C91.8392 119.702 92.6888 120.066 93.2422 120.652C93.7956 121.238 94.0723 122.007 94.0723 122.957C94.0723 124.318 93.6003 125.366 92.6562 126.102C91.7122 126.831 90.3711 127.195 88.6328 127.195C87.8776 127.195 87.1842 127.137 86.5527 127.02C85.9277 126.909 85.319 126.71 84.7266 126.424V124.881C85.3451 125.187 86.0026 125.421 86.6992 125.584C87.4023 125.74 88.0664 125.818 88.6914 125.818C91.1589 125.818 92.3926 124.852 92.3926 122.918C92.3926 121.186 91.0319 120.32 88.3105 120.32H86.9043V118.924H88.3301C89.4434 118.924 90.3255 118.68 90.9766 118.191C91.6276 117.697 91.9531 117.013 91.9531 116.141C91.9531 115.444 91.7122 114.897 91.2305 114.5C90.7552 114.103 90.1074 113.904 89.2871 113.904C88.6621 113.904 88.0729 113.989 87.5195 114.158C86.9661 114.327 86.3346 114.64 85.625 115.096L84.8047 114.002C85.3906 113.54 86.0645 113.178 86.8262 112.918C87.5944 112.651 88.4017 112.518 89.248 112.518C90.6348 112.518 91.7122 112.837 92.4805 113.475C93.2487 114.106 93.6328 114.975 93.6328 116.082ZM105.615 127H96.2305V125.604L99.9902 121.824C101.136 120.665 101.891 119.839 102.256 119.344C102.62 118.849 102.894 118.367 103.076 117.898C103.258 117.43 103.35 116.925 103.35 116.385C103.35 115.623 103.118 115.021 102.656 114.578C102.194 114.129 101.553 113.904 100.732 113.904C100.14 113.904 99.5768 114.002 99.043 114.197C98.5156 114.393 97.9264 114.747 97.2754 115.262L96.416 114.158C97.7311 113.064 99.1634 112.518 100.713 112.518C102.054 112.518 103.105 112.863 103.867 113.553C104.629 114.236 105.01 115.158 105.01 116.316C105.01 117.221 104.756 118.117 104.248 119.002C103.74 119.887 102.79 121.007 101.396 122.361L98.2715 125.418V125.496H105.615V127ZM116.523 116.082C116.523 116.993 116.266 117.739 115.752 118.318C115.244 118.898 114.521 119.285 113.584 119.48V119.559C114.73 119.702 115.579 120.066 116.133 120.652C116.686 121.238 116.963 122.007 116.963 122.957C116.963 124.318 116.491 125.366 115.547 126.102C114.603 126.831 113.262 127.195 111.523 127.195C110.768 127.195 110.075 127.137 109.443 127.02C108.818 126.909 108.21 126.71 107.617 126.424V124.881C108.236 125.187 108.893 125.421 109.59 125.584C110.293 125.74 110.957 125.818 111.582 125.818C114.049 125.818 115.283 124.852 115.283 122.918C115.283 121.186 113.923 120.32 111.201 120.32H109.795V118.924H111.221C112.334 118.924 113.216 118.68 113.867 118.191C114.518 117.697 114.844 117.013 114.844 116.141C114.844 115.444 114.603 114.897 114.121 114.5C113.646 114.103 112.998 113.904 112.178 113.904C111.553 113.904 110.964 113.989 110.41 114.158C109.857 114.327 109.225 114.64 108.516 115.096L107.695 114.002C108.281 113.54 108.955 113.178 109.717 112.918C110.485 112.651 111.292 112.518 112.139 112.518C113.525 112.518 114.603 112.837 115.371 113.475C116.139 114.106 116.523 114.975 116.523 116.082ZM128.506 127H119.121V125.604L122.881 121.824C124.027 120.665 124.782 119.839 125.146 119.344C125.511 118.849 125.785 118.367 125.967 117.898C126.149 117.43 126.24 116.925 126.24 116.385C126.24 115.623 126.009 115.021 125.547 114.578C125.085 114.129 124.443 113.904 123.623 113.904C123.031 113.904 122.467 114.002 121.934 114.197C121.406 114.393 120.817 114.747 120.166 115.262L119.307 114.158C120.622 113.064 122.054 112.518 123.604 112.518C124.945 112.518 125.996 112.863 126.758 113.553C127.52 114.236 127.9 115.158 127.9 116.316C127.9 117.221 127.646 118.117 127.139 119.002C126.631 119.887 125.68 121.007 124.287 122.361L121.162 125.418V125.496H128.506V127ZM139.414 116.082C139.414 116.993 139.157 117.739 138.643 118.318C138.135 118.898 137.412 119.285 136.475 119.48V119.559C137.62 119.702 138.47 120.066 139.023 120.652C139.577 121.238 139.854 122.007 139.854 122.957C139.854 124.318 139.382 125.366 138.438 126.102C137.493 126.831 136.152 127.195 134.414 127.195C133.659 127.195 132.965 127.137 132.334 127.02C131.709 126.909 131.1 126.71 130.508 126.424V124.881C131.126 125.187 131.784 125.421 132.48 125.584C133.184 125.74 133.848 125.818 134.473 125.818C136.94 125.818 138.174 124.852 138.174 122.918C138.174 121.186 136.813 120.32 134.092 120.32H132.686V118.924H134.111C135.225 118.924 136.107 118.68 136.758 118.191C137.409 117.697 137.734 117.013 137.734 116.141C137.734 115.444 137.493 114.897 137.012 114.5C136.536 114.103 135.889 113.904 135.068 113.904C134.443 113.904 133.854 113.989 133.301 114.158C132.747 114.327 132.116 114.64 131.406 115.096L130.586 114.002C131.172 113.54 131.846 113.178 132.607 112.918C133.376 112.651 134.183 112.518 135.029 112.518C136.416 112.518 137.493 112.837 138.262 113.475C139.03 114.106 139.414 114.975 139.414 116.082ZM151.396 127H142.012V125.604L145.771 121.824C146.917 120.665 147.673 119.839 148.037 119.344C148.402 118.849 148.675 118.367 148.857 117.898C149.04 117.43 149.131 116.925 149.131 116.385C149.131 115.623 148.9 115.021 148.438 114.578C147.975 114.129 147.334 113.904 146.514 113.904C145.921 113.904 145.358 114.002 144.824 114.197C144.297 114.393 143.708 114.747 143.057 115.262L142.197 114.158C143.512 113.064 144.945 112.518 146.494 112.518C147.835 112.518 148.887 112.863 149.648 113.553C150.41 114.236 150.791 115.158 150.791 116.316C150.791 117.221 150.537 118.117 150.029 119.002C149.521 119.887 148.571 121.007 147.178 122.361L144.053 125.418V125.496H151.396V127ZM8.30078 154L7.97852 152.477H7.90039C7.36654 153.147 6.83268 153.603 6.29883 153.844C5.77148 154.078 5.11068 154.195 4.31641 154.195C3.25521 154.195 2.42188 153.922 1.81641 153.375C1.21745 152.828 0.917969 152.05 0.917969 151.041C0.917969 148.88 2.64648 147.747 6.10352 147.643L7.91992 147.584V146.92C7.91992 146.08 7.73763 145.462 7.37305 145.064C7.01497 144.661 6.4388 144.459 5.64453 144.459C4.7526 144.459 3.74349 144.732 2.61719 145.279L2.11914 144.039C2.64648 143.753 3.22266 143.528 3.84766 143.365C4.47917 143.202 5.11068 143.121 5.74219 143.121C7.01823 143.121 7.96224 143.404 8.57422 143.971C9.19271 144.537 9.50195 145.445 9.50195 146.695V154H8.30078ZM4.63867 152.857C5.64779 152.857 6.4388 152.581 7.01172 152.027C7.59115 151.474 7.88086 150.699 7.88086 149.703V148.736L6.25977 148.805C4.9707 148.85 4.03971 149.052 3.4668 149.41C2.90039 149.762 2.61719 150.312 2.61719 151.061C2.61719 151.646 2.79297 152.092 3.14453 152.398C3.5026 152.704 4.00065 152.857 4.63867 152.857ZM14.4727 154H12.8516V138.805H14.4727V154ZM22.4316 154.195C20.8496 154.195 19.5996 153.714 18.6816 152.75C17.7702 151.786 17.3145 150.449 17.3145 148.736C17.3145 147.011 17.7376 145.641 18.584 144.625C19.4368 143.609 20.5794 143.102 22.0117 143.102C23.3529 143.102 24.4141 143.544 25.1953 144.43C25.9766 145.309 26.3672 146.471 26.3672 147.916V148.941H18.9941C19.0267 150.198 19.3424 151.152 19.9414 151.803C20.5469 152.454 21.3965 152.779 22.4902 152.779C23.6426 152.779 24.7819 152.538 25.9082 152.057V153.502C25.3353 153.749 24.7917 153.925 24.2773 154.029C23.7695 154.14 23.1543 154.195 22.4316 154.195ZM21.9922 144.459C21.1328 144.459 20.446 144.739 19.9316 145.299C19.4238 145.859 19.1243 146.633 19.0332 147.623H24.6289C24.6289 146.601 24.401 145.82 23.9453 145.279C23.4896 144.732 22.8385 144.459 21.9922 144.459ZM34.0234 143.102C34.4987 143.102 34.9251 143.141 35.3027 143.219L35.0781 144.723C34.6354 144.625 34.2448 144.576 33.9062 144.576C33.0404 144.576 32.2982 144.928 31.6797 145.631C31.0677 146.334 30.7617 147.21 30.7617 148.258V154H29.1406V143.297H30.4785L30.6641 145.279H30.7422C31.1393 144.583 31.6178 144.046 32.1777 143.668C32.7376 143.29 33.3529 143.102 34.0234 143.102ZM40.7617 152.857C41.0482 152.857 41.3249 152.838 41.5918 152.799C41.8587 152.753 42.0703 152.708 42.2266 152.662V153.902C42.0508 153.987 41.7904 154.055 41.4453 154.107C41.1068 154.166 40.8008 154.195 40.5273 154.195C38.457 154.195 37.4219 153.105 37.4219 150.924V144.557H35.8887V143.775L37.4219 143.102L38.1055 140.816H39.043V143.297H42.1484V144.557H39.043V150.855C39.043 151.5 39.196 151.995 39.502 152.34C39.8079 152.685 40.2279 152.857 40.7617 152.857ZM48.6719 149.381V147.896H53.4668V149.381H48.6719ZM69.0723 145.221L68.4277 148.541H71.1914V149.801H68.1934L67.373 154H66.0352L66.8555 149.801H63.8965L63.0957 154H61.7676L62.5488 149.801H59.9902V148.541H62.793L63.457 145.221H60.752V143.98H63.6719L64.4727 139.723H65.8301L65.0293 143.98H68.0078L68.8281 139.723H70.1367L69.3164 143.98H71.8945V145.221H69.0723ZM64.1309 148.541H67.0898L67.7344 145.221H64.7754L64.1309 148.541ZM76.0449 154H74.3848V139.723H82.3438V141.197H76.0449V146.422H81.9629V147.896H76.0449V154ZM86.377 154H84.7168V139.723H92.6758V141.197H86.377V146.422H92.2949V147.896H86.377V154ZM103.525 146.842C103.525 149.309 103.135 151.152 102.354 152.369C101.579 153.587 100.391 154.195 98.7891 154.195C97.2526 154.195 96.084 153.574 95.2832 152.33C94.4824 151.08 94.082 149.251 94.082 146.842C94.082 144.355 94.4694 142.509 95.2441 141.305C96.0189 140.1 97.2005 139.498 98.7891 139.498C100.339 139.498 101.514 140.126 102.314 141.383C103.122 142.639 103.525 144.459 103.525 146.842ZM95.7227 146.842C95.7227 148.919 95.9668 150.432 96.4551 151.383C96.9434 152.327 97.7214 152.799 98.7891 152.799C99.8698 152.799 100.651 152.32 101.133 151.363C101.621 150.4 101.865 148.893 101.865 146.842C101.865 144.791 101.621 143.29 101.133 142.34C100.651 141.383 99.8698 140.904 98.7891 140.904C97.7214 140.904 96.9434 141.376 96.4551 142.32C95.9668 143.258 95.7227 144.765 95.7227 146.842ZM112.607 141.002C111.038 141.002 109.798 141.526 108.887 142.574C107.982 143.616 107.529 145.045 107.529 146.861C107.529 148.73 107.965 150.175 108.838 151.197C109.717 152.213 110.967 152.721 112.588 152.721C113.584 152.721 114.72 152.542 115.996 152.184V153.639C115.007 154.01 113.786 154.195 112.334 154.195C110.231 154.195 108.607 153.557 107.461 152.281C106.322 151.005 105.752 149.192 105.752 146.842C105.752 145.37 106.025 144.081 106.572 142.975C107.126 141.868 107.92 141.015 108.955 140.416C109.997 139.817 111.221 139.518 112.627 139.518C114.124 139.518 115.433 139.791 116.553 140.338L115.85 141.764C114.769 141.256 113.688 141.002 112.607 141.002ZM127.588 146.842C127.588 149.309 127.197 151.152 126.416 152.369C125.641 153.587 124.453 154.195 122.852 154.195C121.315 154.195 120.146 153.574 119.346 152.33C118.545 151.08 118.145 149.251 118.145 146.842C118.145 144.355 118.532 142.509 119.307 141.305C120.081 140.1 121.263 139.498 122.852 139.498C124.401 139.498 125.576 140.126 126.377 141.383C127.184 142.639 127.588 144.459 127.588 146.842ZM119.785 146.842C119.785 148.919 120.029 150.432 120.518 151.383C121.006 152.327 121.784 152.799 122.852 152.799C123.932 152.799 124.714 152.32 125.195 151.363C125.684 150.4 125.928 148.893 125.928 146.842C125.928 144.791 125.684 143.29 125.195 142.34C124.714 141.383 123.932 140.904 122.852 140.904C121.784 140.904 121.006 141.376 120.518 142.32C120.029 143.258 119.785 144.765 119.785 146.842ZM136.67 141.002C135.101 141.002 133.861 141.526 132.949 142.574C132.044 143.616 131.592 145.045 131.592 146.861C131.592 148.73 132.028 150.175 132.9 151.197C133.779 152.213 135.029 152.721 136.65 152.721C137.646 152.721 138.783 152.542 140.059 152.184V153.639C139.069 154.01 137.848 154.195 136.396 154.195C134.294 154.195 132.669 153.557 131.523 152.281C130.384 151.005 129.814 149.192 129.814 146.842C129.814 145.37 130.088 144.081 130.635 142.975C131.188 141.868 131.982 141.015 133.018 140.416C134.059 139.817 135.283 139.518 136.689 139.518C138.187 139.518 139.495 139.791 140.615 140.338L139.912 141.764C138.831 141.256 137.751 141.002 136.67 141.002Z" fill="black"/>
</svg>
