<svg width="376" height="446" viewBox="0 0 376 446" fill="none" xmlns="http://www.w3.org/2000/svg">
<path d="M3.384 7.8H8.064V33H3.384V7.8ZM26.5441 33.36C24.0001 33.36 21.6961 32.808 19.6321 31.704C17.5921 30.576 15.9841 29.028 14.8081 27.06C13.6561 25.092 13.0801 22.872 13.0801 20.4C13.0801 17.928 13.6681 15.708 14.8441 13.74C16.0201 11.772 17.6281 10.236 19.6681 9.132C21.7321 8.004 24.0361 7.44 26.5801 7.44C28.6441 7.44 30.5281 7.8 32.2321 8.52C33.9361 9.24 35.3761 10.284 36.5521 11.652L33.5281 14.496C31.7041 12.528 29.4601 11.544 26.7961 11.544C25.0681 11.544 23.5201 11.928 22.1521 12.696C20.7841 13.44 19.7161 14.484 18.9481 15.828C18.1801 17.172 17.7961 18.696 17.7961 20.4C17.7961 22.104 18.1801 23.628 18.9481 24.972C19.7161 26.316 20.7841 27.372 22.1521 28.14C23.5201 28.884 25.0681 29.256 26.7961 29.256C29.4601 29.256 31.7041 28.26 33.5281 26.268L36.5521 29.148C35.3761 30.516 33.9241 31.56 32.1961 32.28C30.4921 33 28.6081 33.36 26.5441 33.36ZM52.281 33.36C49.713 33.36 47.397 32.808 45.333 31.704C43.269 30.576 41.649 29.028 40.473 27.06C39.297 25.068 38.709 22.848 38.709 20.4C38.709 17.952 39.297 15.744 40.473 13.776C41.649 11.784 43.269 10.236 45.333 9.132C47.397 8.004 49.713 7.44 52.281 7.44C54.849 7.44 57.165 8.004 59.229 9.132C61.293 10.236 62.913 11.772 64.089 13.74C65.265 15.708 65.853 17.928 65.853 20.4C65.853 22.872 65.265 25.092 64.089 27.06C62.913 29.028 61.293 30.576 59.229 31.704C57.165 32.808 54.849 33.36 52.281 33.36ZM52.281 29.256C53.961 29.256 55.473 28.884 56.817 28.14C58.161 27.372 59.217 26.316 59.985 24.972C60.753 23.604 61.137 22.08 61.137 20.4C61.137 18.72 60.753 17.208 59.985 15.864C59.217 14.496 58.161 13.44 56.817 12.696C55.473 11.928 53.961 11.544 52.281 11.544C50.601 11.544 49.089 11.928 47.745 12.696C46.401 13.44 45.345 14.496 44.577 15.864C43.809 17.208 43.425 18.72 43.425 20.4C43.425 22.08 43.809 23.604 44.577 24.972C45.345 26.316 46.401 27.372 47.745 28.14C49.089 28.884 50.601 29.256 52.281 29.256ZM93.2057 7.8V33H89.3537L75.4577 15.936V33H70.8137V7.8H74.6657L88.5617 24.864V7.8H93.2057ZM111.73 33.36C109.162 33.36 106.846 32.808 104.782 31.704C102.718 30.576 101.098 29.028 99.9222 27.06C98.7462 25.068 98.1582 22.848 98.1582 20.4C98.1582 17.952 98.7462 15.744 99.9222 13.776C101.098 11.784 102.718 10.236 104.782 9.132C106.846 8.004 109.162 7.44 111.73 7.44C114.298 7.44 116.614 8.004 118.678 9.132C120.742 10.236 122.362 11.772 123.538 13.74C124.714 15.708 125.302 17.928 125.302 20.4C125.302 22.872 124.714 25.092 123.538 27.06C122.362 29.028 120.742 30.576 118.678 31.704C116.614 32.808 114.298 33.36 111.73 33.36ZM111.73 29.256C113.41 29.256 114.922 28.884 116.266 28.14C117.61 27.372 118.666 26.316 119.434 24.972C120.202 23.604 120.586 22.08 120.586 20.4C120.586 18.72 120.202 17.208 119.434 15.864C118.666 14.496 117.61 13.44 116.266 12.696C114.922 11.928 113.41 11.544 111.73 11.544C110.05 11.544 108.538 11.928 107.194 12.696C105.85 13.44 104.794 14.496 104.026 15.864C103.258 17.208 102.874 18.72 102.874 20.4C102.874 22.08 103.258 23.604 104.026 24.972C104.794 26.316 105.85 27.372 107.194 28.14C108.538 28.884 110.05 29.256 111.73 29.256ZM147.471 20.112H151.899V30.156C150.603 31.188 149.091 31.98 147.363 32.532C145.635 33.084 143.859 33.36 142.035 33.36C139.467 33.36 137.151 32.808 135.087 31.704C133.023 30.576 131.403 29.028 130.227 27.06C129.051 25.092 128.463 22.872 128.463 20.4C128.463 17.928 129.051 15.708 130.227 13.74C131.403 11.772 133.023 10.236 135.087 9.132C137.175 8.004 139.515 7.44 142.107 7.44C144.219 7.44 146.139 7.788 147.867 8.484C149.595 9.18 151.047 10.2 152.223 11.544L149.271 14.424C147.351 12.504 145.035 11.544 142.323 11.544C140.547 11.544 138.963 11.916 137.571 12.66C136.203 13.404 135.123 14.448 134.331 15.792C133.563 17.136 133.179 18.672 133.179 20.4C133.179 22.08 133.563 23.592 134.331 24.936C135.123 26.28 136.203 27.336 137.571 28.104C138.963 28.872 140.535 29.256 142.287 29.256C144.255 29.256 145.983 28.824 147.471 27.96V20.112ZM174.56 33L169.412 25.62C169.196 25.644 168.872 25.656 168.44 25.656H162.752V33H158.072V7.8H168.44C170.624 7.8 172.52 8.16 174.128 8.88C175.76 9.6 177.008 10.632 177.872 11.976C178.736 13.32 179.168 14.916 179.168 16.764C179.168 18.66 178.7 20.292 177.764 21.66C176.852 23.028 175.532 24.048 173.804 24.72L179.6 33H174.56ZM174.452 16.764C174.452 15.156 173.924 13.92 172.867 13.056C171.812 12.192 170.264 11.76 168.224 11.76H162.752V21.804H168.224C170.264 21.804 171.812 21.372 172.867 20.508C173.924 19.62 174.452 18.372 174.452 16.764ZM200.748 27.168H188.148L185.664 33H180.84L192.18 7.8H196.788L208.164 33H203.268L200.748 27.168ZM199.2 23.496L194.448 12.48L189.732 23.496H199.2ZM221.736 7.8C223.92 7.8 225.816 8.16 227.424 8.88C229.056 9.6 230.304 10.632 231.168 11.976C232.032 13.32 232.464 14.916 232.464 16.764C232.464 18.588 232.032 20.184 231.168 21.552C230.304 22.896 229.056 23.928 227.424 24.648C225.816 25.368 223.92 25.728 221.736 25.728H216.048V33H211.368V7.8H221.736ZM221.52 21.768C223.56 21.768 225.108 21.336 226.164 20.472C227.22 19.608 227.748 18.372 227.748 16.764C227.748 15.156 227.22 13.92 226.164 13.056C225.108 12.192 223.56 11.76 221.52 11.76H216.048V21.768H221.52ZM259.53 7.8V33H254.85V22.2H241.818V33H237.138V7.8H241.818V18.204H254.85V7.8H259.53ZM277.154 24.108V33H272.474V24.18L262.574 7.8H267.578L274.958 20.076L282.41 7.8H287.018L277.154 24.108Z" fill="#323232"/>
<path d="M0 46H376V48H0V46Z" fill="#323232"/>
<path d="M133 299L111 311L119 315.36V327.36L133 335L147 327.36V315.36L151 313.18V327H155V311L133 299ZM146.64 311L133 318.44L119.36 311L133 303.56L146.64 311ZM143 324.98L133 330.44L123 324.98V317.54L133 323L143 317.54V324.98Z" fill="black"/>
<path d="M24 304.38L34 313.38V329H30V317H18V329H14V313.38L24 304.38ZM24 299L4 317H10V333H22V321H26V333H38V317H44L24 299Z" fill="black"/>
<path d="M365 192H363V188H359V192H343V188H339V192H337C334.78 192 333.02 193.8 333.02 196L333 224C333 226.2 334.78 228 337 228H365C367.2 228 369 226.2 369 224V196C369 193.8 367.2 192 365 192ZM365 224H337V204H365V224ZM365 200H337V196H365V200ZM351 210H361V220H351V210Z" fill="black"/>
<path d="M256.86 209.96C256.94 209.32 257 208.68 257 208C257 207.32 256.94 206.68 256.86 206.04L261.08 202.74C261.46 202.44 261.56 201.9 261.32 201.46L257.32 194.54C257.14 194.22 256.8 194.04 256.44 194.04C256.32 194.04 256.2 194.06 256.1 194.1L251.12 196.1C250.08 195.3 248.96 194.64 247.74 194.14L246.98 188.84C246.92 188.36 246.5 188 246 188H238C237.5 188 237.08 188.36 237.02 188.84L236.26 194.14C235.04 194.64 233.92 195.32 232.88 196.1L227.9 194.1C227.78 194.06 227.66 194.04 227.54 194.04C227.2 194.04 226.86 194.22 226.68 194.54L222.68 201.46C222.42 201.9 222.54 202.44 222.92 202.74L227.14 206.04C227.06 206.68 227 207.34 227 208C227 208.66 227.06 209.32 227.14 209.96L222.92 213.26C222.54 213.56 222.44 214.1 222.68 214.54L226.68 221.46C226.86 221.78 227.2 221.96 227.56 221.96C227.68 221.96 227.8 221.94 227.9 221.9L232.88 219.9C233.92 220.7 235.04 221.36 236.26 221.86L237.02 227.16C237.08 227.64 237.5 228 238 228H246C246.5 228 246.92 227.64 246.98 227.16L247.74 221.86C248.96 221.36 250.08 220.68 251.12 219.9L256.1 221.9C256.22 221.94 256.34 221.96 256.46 221.96C256.8 221.96 257.14 221.78 257.32 221.46L261.32 214.54C261.56 214.1 261.46 213.56 261.08 213.26L256.86 209.96ZM252.9 206.54C252.98 207.16 253 207.58 253 208C253 208.42 252.96 208.86 252.9 209.46L252.62 211.72L254.4 213.12L256.56 214.8L255.16 217.22L252.62 216.2L250.54 215.36L248.74 216.72C247.88 217.36 247.06 217.84 246.24 218.18L244.12 219.04L243.8 221.3L243.4 224H240.6L240.22 221.3L239.9 219.04L237.78 218.18C236.92 217.82 236.12 217.36 235.32 216.76L233.5 215.36L231.38 216.22L228.84 217.24L227.44 214.82L229.6 213.14L231.38 211.74L231.1 209.48C231.04 208.86 231 208.4 231 208C231 207.6 231.04 207.14 231.1 206.54L231.38 204.28L229.6 202.88L227.44 201.2L228.84 198.78L231.38 199.8L233.46 200.64L235.26 199.28C236.12 198.64 236.94 198.16 237.76 197.82L239.88 196.96L240.2 194.7L240.6 192H243.38L243.76 194.7L244.08 196.96L246.2 197.82C247.06 198.18 247.86 198.64 248.66 199.24L250.48 200.64L252.6 199.78L255.14 198.76L256.54 201.18L254.4 202.88L252.62 204.28L252.9 206.54ZM242 200C237.58 200 234 203.58 234 208C234 212.42 237.58 216 242 216C246.42 216 250 212.42 250 208C250 203.58 246.42 200 242 200ZM242 212C239.8 212 238 210.2 238 208C238 205.8 239.8 204 242 204C244.2 204 246 205.8 246 208C246 210.2 244.2 212 242 212Z" fill="black"/>
<path d="M40.58 221.761L29.46 210.641C31.72 207.541 32.72 203.481 31.42 199.161C30.06 194.701 26.28 191.201 21.72 190.281C12.42 188.401 4.4 196.441 6.28 205.721C7.2 210.301 10.7 214.081 15.16 215.421C19.48 216.721 23.54 215.721 26.64 213.461L37.76 224.581C38.54 225.361 39.8 225.361 40.58 224.581C41.36 223.801 41.36 222.541 40.58 221.761ZM10 203.001C10 198.021 14.02 194.001 19 194.001C23.98 194.001 28 198.021 28 203.001C28 207.981 23.98 212.001 19 212.001C14.02 212.001 10 207.981 10 203.001Z" fill="black"/>
<path d="M242 305C244.2 305 246 306.8 246 309C246 311.2 244.2 313 242 313C239.8 313 238 311.2 238 309C238 306.8 239.8 305 242 305ZM242 325C247.4 325 253.6 327.58 254 329H230C230.46 327.56 236.62 325 242 325ZM242 301C237.58 301 234 304.58 234 309C234 313.42 237.58 317 242 317C246.42 317 250 313.42 250 309C250 304.58 246.42 301 242 301ZM242 321C236.66 321 226 323.68 226 329V333H258V329C258 323.68 247.34 321 242 321Z" fill="black"/>
<path d="M133 228C135.2 228 137 226.2 137 224H129C129 226.2 130.8 228 133 228ZM145 216V206C145 199.86 141.74 194.72 136 193.36V192C136 190.34 134.66 189 133 189C131.34 189 130 190.34 130 192V193.36C124.28 194.72 121 199.84 121 206V216L117 220V222H149V220L145 216ZM141 218H125V206C125 201.04 128.02 197 133 197C137.98 197 141 201.04 141 206V218Z" fill="black"/>
<path d="M133 412.26L134.94 416.84L135.88 419.06L138.28 419.26L143.22 419.68L139.46 422.94L137.64 424.52L138.18 426.88L139.3 431.7L135.06 429.14L133 427.86L130.94 429.1L126.7 431.66L127.82 426.84L128.36 424.48L126.54 422.9L122.78 419.64L127.72 419.22L130.12 419.02L131.06 416.8L133 412.26ZM133 402L127.38 415.26L113 416.48L123.92 425.94L120.64 440L133 432.54L145.36 440L142.08 425.94L153 416.48L138.62 415.26L133 402Z" fill="black"/>
<path d="M360 299C356.52 299 353.18 300.62 351 303.18C348.82 300.62 345.48 299 342 299C335.84 299 331 303.84 331 310C331 317.56 337.8 323.72 348.1 333.08L351 335.7L353.9 333.06C364.2 323.72 371 317.56 371 310C371 303.84 366.16 299 360 299ZM351.2 330.1L351 330.3L350.8 330.1C341.28 321.48 335 315.78 335 310C335 306 338 303 342 303C345.08 303 348.08 304.98 349.14 307.72H352.88C353.92 304.98 356.92 303 360 303C364 303 367 306 367 310C367 315.78 360.72 321.48 351.2 330.1Z" fill="black"/>
<path d="M38 424H26V436H22V424H10V420H22V408H26V420H38V424Z" fill="black"/>
<path d="M253.02 405.739L249.46 402.199L229.68 421.999L249.48 441.799L253.02 438.259L236.76 421.999L253.02 405.739Z" fill="black"/>
<path d="M339.98 438.259L343.52 441.799L363.32 421.999L343.52 402.199L339.98 405.739L356.24 421.999L339.98 438.259Z" fill="black"/>
<path d="M1.96289 73V58.7227H3.62305V73H1.96289ZM11.582 73.1953C10.0326 73.1953 8.83138 72.7201 7.97852 71.7695C7.13216 70.8125 6.70898 69.4616 6.70898 67.7168C6.70898 65.9264 7.13867 64.543 7.99805 63.5664C8.86393 62.5898 10.0944 62.1016 11.6895 62.1016C12.2038 62.1016 12.7181 62.1569 13.2324 62.2676C13.7467 62.3783 14.1504 62.5085 14.4434 62.6582L13.9453 64.0352C13.5872 63.8919 13.1966 63.7747 12.7734 63.6836C12.3503 63.5859 11.9759 63.5371 11.6504 63.5371C9.47591 63.5371 8.38867 64.9238 8.38867 67.6973C8.38867 69.0124 8.65234 70.0215 9.17969 70.7246C9.71354 71.4277 10.5013 71.7793 11.543 71.7793C12.4349 71.7793 13.3496 71.5872 14.2871 71.2031V72.6387C13.571 73.0098 12.6693 73.1953 11.582 73.1953ZM26.0742 67.6387C26.0742 69.3835 25.6348 70.7474 24.7559 71.7305C23.877 72.707 22.6628 73.1953 21.1133 73.1953C20.1562 73.1953 19.3066 72.9707 18.5645 72.5215C17.8223 72.0723 17.2493 71.4277 16.8457 70.5879C16.4421 69.748 16.2402 68.765 16.2402 67.6387C16.2402 65.8939 16.6764 64.5365 17.5488 63.5664C18.4212 62.5898 19.6322 62.1016 21.1816 62.1016C22.679 62.1016 23.8672 62.5996 24.7461 63.5957C25.6315 64.5918 26.0742 65.9395 26.0742 67.6387ZM17.9199 67.6387C17.9199 69.0059 18.1934 70.0475 18.7402 70.7637C19.2871 71.4798 20.0911 71.8379 21.1523 71.8379C22.2135 71.8379 23.0176 71.4831 23.5645 70.7734C24.1178 70.0573 24.3945 69.0124 24.3945 67.6387C24.3945 66.278 24.1178 65.2461 23.5645 64.543C23.0176 63.8333 22.207 63.4785 21.1328 63.4785C20.0716 63.4785 19.2708 63.8268 18.7305 64.5234C18.1901 65.2201 17.9199 66.2585 17.9199 67.6387ZM36.25 73V66.0762C36.25 65.2038 36.0514 64.5527 35.6543 64.123C35.2572 63.6934 34.6354 63.4785 33.7891 63.4785C32.6693 63.4785 31.849 63.7812 31.3281 64.3867C30.8073 64.9922 30.5469 65.9915 30.5469 67.3848V73H28.9258V62.2969H30.2441L30.5078 63.7617H30.5859C30.918 63.2344 31.3835 62.8275 31.9824 62.541C32.5814 62.248 33.2487 62.1016 33.9844 62.1016C35.2734 62.1016 36.2435 62.4141 36.8945 63.0391C37.5456 63.6576 37.8711 64.6504 37.8711 66.0176V73H36.25ZM48.1152 70.0801C48.1152 71.0762 47.7441 71.8444 47.002 72.3848C46.2598 72.9251 45.2181 73.1953 43.877 73.1953C42.4577 73.1953 41.3509 72.9707 40.5566 72.5215V71.0176C41.071 71.278 41.6211 71.4831 42.207 71.6328C42.7995 71.7826 43.3691 71.8574 43.916 71.8574C44.7624 71.8574 45.4134 71.724 45.8691 71.457C46.3249 71.1836 46.5527 70.7702 46.5527 70.2168C46.5527 69.8001 46.3704 69.4453 46.0059 69.1523C45.6478 68.8529 44.9447 68.5013 43.8965 68.0977C42.9004 67.7266 42.1908 67.4043 41.7676 67.1309C41.3509 66.8509 41.0384 66.5352 40.8301 66.1836C40.6283 65.832 40.5273 65.4121 40.5273 64.9238C40.5273 64.0514 40.8822 63.3646 41.5918 62.8633C42.3014 62.3555 43.2747 62.1016 44.5117 62.1016C45.6641 62.1016 46.7904 62.3359 47.8906 62.8047L47.3145 64.123C46.2402 63.6803 45.2669 63.459 44.3945 63.459C43.6263 63.459 43.0469 63.5794 42.6562 63.8203C42.2656 64.0612 42.0703 64.3932 42.0703 64.8164C42.0703 65.1029 42.1419 65.347 42.2852 65.5488C42.4349 65.7507 42.6725 65.9427 42.998 66.125C43.3236 66.3073 43.9486 66.571 44.873 66.916C46.1426 67.3783 46.9987 67.8438 47.4414 68.3125C47.8906 68.7812 48.1152 69.3704 48.1152 70.0801ZM67.3411 73L67.0189 71.4766H66.9408C66.4069 72.1471 65.873 72.6029 65.3392 72.8438C64.8118 73.0781 64.151 73.1953 63.3568 73.1953C62.2956 73.1953 61.4622 72.9219 60.8568 72.375C60.2578 71.8281 59.9583 71.0501 59.9583 70.041C59.9583 67.8796 61.6868 66.7467 65.1439 66.6426L66.9603 66.584V65.9199C66.9603 65.0801 66.778 64.4616 66.4134 64.0645C66.0553 63.6608 65.4792 63.459 64.6849 63.459C63.793 63.459 62.7839 63.7324 61.6576 64.2793L61.1595 63.0391C61.6868 62.7526 62.263 62.528 62.888 62.3652C63.5195 62.2025 64.151 62.1211 64.7826 62.1211C66.0586 62.1211 67.0026 62.4043 67.6146 62.9707C68.2331 63.5371 68.5423 64.4453 68.5423 65.6953V73H67.3411ZM63.679 71.8574C64.6881 71.8574 65.4792 71.5807 66.0521 71.0273C66.6315 70.474 66.9212 69.6992 66.9212 68.7031V67.7363L65.3001 67.8047C64.0111 67.8503 63.0801 68.0521 62.5072 68.4102C61.9408 68.7617 61.6576 69.3118 61.6576 70.0605C61.6576 70.6465 61.8333 71.0924 62.1849 71.3984C62.543 71.7044 63.041 71.8574 63.679 71.8574ZM76.7747 62.1016C77.25 62.1016 77.6764 62.1406 78.054 62.2188L77.8294 63.7227C77.3867 63.625 76.9961 63.5762 76.6576 63.5762C75.7917 63.5762 75.0495 63.9277 74.431 64.6309C73.819 65.334 73.513 66.2096 73.513 67.2578V73H71.8919V62.2969H73.2298L73.4154 64.2793H73.4935C73.8906 63.5827 74.3691 63.0456 74.929 62.668C75.4889 62.2904 76.1042 62.1016 76.7747 62.1016ZM84.5775 73.1953C82.9954 73.1953 81.7454 72.7135 80.8275 71.75C79.916 70.7865 79.4603 69.4486 79.4603 67.7363C79.4603 66.0111 79.8835 64.6406 80.7298 63.625C81.5827 62.6094 82.7253 62.1016 84.1576 62.1016C85.4987 62.1016 86.5599 62.5443 87.3411 63.4297C88.1224 64.3086 88.513 65.4707 88.513 66.916V67.9414H81.14C81.1725 69.1979 81.4883 70.1517 82.0872 70.8027C82.6927 71.4538 83.5423 71.7793 84.6361 71.7793C85.7884 71.7793 86.9277 71.5384 88.054 71.0566V72.502C87.4811 72.7493 86.9375 72.9251 86.4232 73.0293C85.9154 73.14 85.3001 73.1953 84.5775 73.1953ZM84.138 63.459C83.2786 63.459 82.5918 63.7389 82.0775 64.2988C81.5697 64.8587 81.2702 65.6335 81.179 66.623H86.7747C86.7747 65.6009 86.5469 64.8197 86.0911 64.2793C85.6354 63.7324 84.9844 63.459 84.138 63.459ZM110.522 67.6387C110.522 69.3835 110.083 70.7474 109.204 71.7305C108.325 72.707 107.111 73.1953 105.561 73.1953C104.604 73.1953 103.755 72.9707 103.012 72.5215C102.27 72.0723 101.697 71.4277 101.294 70.5879C100.89 69.748 100.688 68.765 100.688 67.6387C100.688 65.8939 101.124 64.5365 101.997 63.5664C102.869 62.5898 104.08 62.1016 105.63 62.1016C107.127 62.1016 108.315 62.5996 109.194 63.5957C110.079 64.5918 110.522 65.9395 110.522 67.6387ZM102.368 67.6387C102.368 69.0059 102.641 70.0475 103.188 70.7637C103.735 71.4798 104.539 71.8379 105.6 71.8379C106.661 71.8379 107.465 71.4831 108.012 70.7734C108.566 70.0573 108.842 69.0124 108.842 67.6387C108.842 66.278 108.566 65.2461 108.012 64.543C107.465 63.8333 106.655 63.4785 105.581 63.4785C104.52 63.4785 103.719 63.8268 103.178 64.5234C102.638 65.2201 102.368 66.2585 102.368 67.6387ZM114.897 62.2969V69.2402C114.897 70.1126 115.096 70.7637 115.493 71.1934C115.89 71.623 116.512 71.8379 117.358 71.8379C118.478 71.8379 119.295 71.5319 119.809 70.9199C120.33 70.3079 120.59 69.3086 120.59 67.9219V62.2969H122.212V73H120.874L120.639 71.5645H120.551C120.219 72.0918 119.757 72.4954 119.165 72.7754C118.579 73.0553 117.908 73.1953 117.153 73.1953C115.851 73.1953 114.874 72.8861 114.223 72.2676C113.579 71.6491 113.257 70.6595 113.257 69.2988V62.2969H114.897ZM129.116 71.8574C129.402 71.8574 129.679 71.8379 129.946 71.7988C130.213 71.7533 130.424 71.7077 130.581 71.6621V72.9023C130.405 72.987 130.145 73.0553 129.799 73.1074C129.461 73.166 129.155 73.1953 128.882 73.1953C126.811 73.1953 125.776 72.1048 125.776 69.9238V63.5566H124.243V62.7754L125.776 62.1016L126.46 59.8164H127.397V62.2969H130.503V63.5566H127.397V69.8555C127.397 70.5 127.55 70.9948 127.856 71.3398C128.162 71.6849 128.582 71.8574 129.116 71.8574ZM134.35 73H132.729V57.8047H134.35V73ZM139.409 73H137.788V62.2969H139.409V73ZM137.651 59.3965C137.651 59.0254 137.742 58.7552 137.924 58.5859C138.107 58.4102 138.335 58.3223 138.608 58.3223C138.868 58.3223 139.093 58.4102 139.282 58.5859C139.471 58.7617 139.565 59.0319 139.565 59.3965C139.565 59.7611 139.471 60.0345 139.282 60.2168C139.093 60.3926 138.868 60.4805 138.608 60.4805C138.335 60.4805 138.107 60.3926 137.924 60.2168C137.742 60.0345 137.651 59.7611 137.651 59.3965ZM150.171 73V66.0762C150.171 65.2038 149.972 64.5527 149.575 64.123C149.178 63.6934 148.556 63.4785 147.71 63.4785C146.59 63.4785 145.77 63.7812 145.249 64.3867C144.728 64.9922 144.467 65.9915 144.467 67.3848V73H142.846V62.2969H144.165L144.428 63.7617H144.507C144.839 63.2344 145.304 62.8275 145.903 62.541C146.502 62.248 147.169 62.1016 147.905 62.1016C149.194 62.1016 150.164 62.4141 150.815 63.0391C151.466 63.6576 151.792 64.6504 151.792 66.0176V73H150.171ZM159.653 73.1953C158.071 73.1953 156.821 72.7135 155.903 71.75C154.992 70.7865 154.536 69.4486 154.536 67.7363C154.536 66.0111 154.959 64.6406 155.805 63.625C156.658 62.6094 157.801 62.1016 159.233 62.1016C160.574 62.1016 161.635 62.5443 162.417 63.4297C163.198 64.3086 163.589 65.4707 163.589 66.916V67.9414H156.215C156.248 69.1979 156.564 70.1517 157.163 70.8027C157.768 71.4538 158.618 71.7793 159.712 71.7793C160.864 71.7793 162.003 71.5384 163.13 71.0566V72.502C162.557 72.7493 162.013 72.9251 161.499 73.0293C160.991 73.14 160.376 73.1953 159.653 73.1953ZM159.214 63.459C158.354 63.459 157.667 63.7389 157.153 64.2988C156.645 64.8587 156.346 65.6335 156.255 66.623H161.85C161.85 65.6009 161.622 64.8197 161.167 64.2793C160.711 63.7324 160.06 63.459 159.214 63.459ZM173.647 71.5645H173.559C172.811 72.6517 171.691 73.1953 170.2 73.1953C168.8 73.1953 167.71 72.7168 166.928 71.7598C166.154 70.8027 165.766 69.4421 165.766 67.6777C165.766 65.9134 166.157 64.543 166.938 63.5664C167.719 62.5898 168.807 62.1016 170.2 62.1016C171.652 62.1016 172.765 62.6289 173.54 63.6836H173.667L173.598 62.9121L173.559 62.1602V57.8047H175.18V73H173.862L173.647 71.5645ZM170.405 71.8379C171.512 71.8379 172.313 71.5384 172.807 70.9395C173.309 70.334 173.559 69.3607 173.559 68.0195V67.6777C173.559 66.1608 173.305 65.0801 172.798 64.4355C172.296 63.7845 171.492 63.459 170.385 63.459C169.435 63.459 168.706 63.8301 168.198 64.5723C167.697 65.3079 167.446 66.3496 167.446 67.6973C167.446 69.0645 167.697 70.0964 168.198 70.793C168.699 71.4896 169.435 71.8379 170.405 71.8379ZM178.393 71.9648C178.393 71.5286 178.491 71.1999 178.686 70.9785C178.888 70.7507 179.174 70.6367 179.546 70.6367C179.923 70.6367 180.216 70.7507 180.424 70.9785C180.639 71.1999 180.747 71.5286 180.747 71.9648C180.747 72.388 180.639 72.7135 180.424 72.9414C180.21 73.1693 179.917 73.2832 179.546 73.2832C179.214 73.2832 178.937 73.1823 178.715 72.9805C178.501 72.7721 178.393 72.4336 178.393 71.9648ZM203.254 62.8828C203.254 64.3281 202.759 65.4414 201.77 66.2227C200.786 66.9974 199.377 67.3848 197.541 67.3848H195.861V73H194.201V58.7227H197.902C201.47 58.7227 203.254 60.1094 203.254 62.8828ZM195.861 65.959H197.355C198.827 65.959 199.891 65.7214 200.549 65.2461C201.206 64.7708 201.535 64.0091 201.535 62.9609C201.535 62.0169 201.226 61.3138 200.607 60.8516C199.989 60.3893 199.025 60.1582 197.717 60.1582H195.861V65.959ZM207.629 73H206.008V57.8047H207.629V73ZM217.971 70.0801C217.971 71.0762 217.6 71.8444 216.857 72.3848C216.115 72.9251 215.074 73.1953 213.732 73.1953C212.313 73.1953 211.206 72.9707 210.412 72.5215V71.0176C210.926 71.278 211.477 71.4831 212.062 71.6328C212.655 71.7826 213.225 71.8574 213.771 71.8574C214.618 71.8574 215.269 71.724 215.725 71.457C216.18 71.1836 216.408 70.7702 216.408 70.2168C216.408 69.8001 216.226 69.4453 215.861 69.1523C215.503 68.8529 214.8 68.5013 213.752 68.0977C212.756 67.7266 212.046 67.4043 211.623 67.1309C211.206 66.8509 210.894 66.5352 210.686 66.1836C210.484 65.832 210.383 65.4121 210.383 64.9238C210.383 64.0514 210.738 63.3646 211.447 62.8633C212.157 62.3555 213.13 62.1016 214.367 62.1016C215.52 62.1016 216.646 62.3359 217.746 62.8047L217.17 64.123C216.096 63.6803 215.122 63.459 214.25 63.459C213.482 63.459 212.902 63.5794 212.512 63.8203C212.121 64.0612 211.926 64.3932 211.926 64.8164C211.926 65.1029 211.997 65.347 212.141 65.5488C212.29 65.7507 212.528 65.9427 212.854 66.125C213.179 66.3073 213.804 66.571 214.729 66.916C215.998 67.3783 216.854 67.8438 217.297 68.3125C217.746 68.7812 217.971 69.3704 217.971 70.0801ZM235.497 62.1016C235.973 62.1016 236.399 62.1406 236.777 62.2188L236.552 63.7227C236.109 63.625 235.719 63.5762 235.38 63.5762C234.514 63.5762 233.772 63.9277 233.154 64.6309C232.542 65.334 232.236 66.2096 232.236 67.2578V73H230.615V62.2969H231.952L232.138 64.2793H232.216C232.613 63.5827 233.092 63.0456 233.652 62.668C234.212 62.2904 234.827 62.1016 235.497 62.1016ZM243.3 73.1953C241.718 73.1953 240.468 72.7135 239.55 71.75C238.639 70.7865 238.183 69.4486 238.183 67.7363C238.183 66.0111 238.606 64.6406 239.452 63.625C240.305 62.6094 241.448 62.1016 242.88 62.1016C244.221 62.1016 245.283 62.5443 246.064 63.4297C246.845 64.3086 247.236 65.4707 247.236 66.916V67.9414H239.863C239.895 69.1979 240.211 70.1517 240.81 70.8027C241.415 71.4538 242.265 71.7793 243.359 71.7793C244.511 71.7793 245.65 71.5384 246.777 71.0566V72.502C246.204 72.7493 245.66 72.9251 245.146 73.0293C244.638 73.14 244.023 73.1953 243.3 73.1953ZM242.861 63.459C242.001 63.459 241.314 63.7389 240.8 64.2988C240.292 64.8587 239.993 65.6335 239.902 66.623H245.497C245.497 65.6009 245.27 64.8197 244.814 64.2793C244.358 63.7324 243.707 63.459 242.861 63.459ZM254.833 63.5566H252.109V73H250.488V63.5566H248.574V62.8242L250.488 62.2383V61.6426C250.488 59.0124 251.637 57.6973 253.935 57.6973C254.501 57.6973 255.165 57.8112 255.927 58.0391L255.507 59.3379C254.882 59.1361 254.348 59.0352 253.906 59.0352C253.294 59.0352 252.841 59.2402 252.548 59.6504C252.255 60.054 252.109 60.7051 252.109 61.6035V62.2969H254.833V63.5566ZM261.308 73.1953C259.726 73.1953 258.476 72.7135 257.558 71.75C256.646 70.7865 256.191 69.4486 256.191 67.7363C256.191 66.0111 256.614 64.6406 257.46 63.625C258.313 62.6094 259.456 62.1016 260.888 62.1016C262.229 62.1016 263.29 62.5443 264.072 63.4297C264.853 64.3086 265.243 65.4707 265.243 66.916V67.9414H257.87C257.903 69.1979 258.219 70.1517 258.818 70.8027C259.423 71.4538 260.273 71.7793 261.367 71.7793C262.519 71.7793 263.658 71.5384 264.785 71.0566V72.502C264.212 72.7493 263.668 72.9251 263.154 73.0293C262.646 73.14 262.031 73.1953 261.308 73.1953ZM260.868 63.459C260.009 63.459 259.322 63.7389 258.808 64.2988C258.3 64.8587 258.001 65.6335 257.91 66.623H263.505C263.505 65.6009 263.277 64.8197 262.822 64.2793C262.366 63.7324 261.715 63.459 260.868 63.459ZM272.9 62.1016C273.375 62.1016 273.801 62.1406 274.179 62.2188L273.954 63.7227C273.512 63.625 273.121 63.5762 272.783 63.5762C271.917 63.5762 271.174 63.9277 270.556 64.6309C269.944 65.334 269.638 66.2096 269.638 67.2578V73H268.017V62.2969H269.355L269.54 64.2793H269.618C270.016 63.5827 270.494 63.0456 271.054 62.668C271.614 62.2904 272.229 62.1016 272.9 62.1016ZM289.635 71.8574C289.922 71.8574 290.199 71.8379 290.465 71.7988C290.732 71.7533 290.944 71.7077 291.1 71.6621V72.9023C290.924 72.987 290.664 73.0553 290.319 73.1074C289.98 73.166 289.674 73.1953 289.401 73.1953C287.331 73.1953 286.296 72.1048 286.296 69.9238V63.5566H284.762V62.7754L286.296 62.1016L286.979 59.8164H287.917V62.2969H291.022V63.5566H287.917V69.8555C287.917 70.5 288.07 70.9948 288.376 71.3398C288.682 71.6849 289.102 71.8574 289.635 71.8574ZM302.487 67.6387C302.487 69.3835 302.048 70.7474 301.169 71.7305C300.29 72.707 299.076 73.1953 297.526 73.1953C296.569 73.1953 295.719 72.9707 294.977 72.5215C294.235 72.0723 293.662 71.4277 293.258 70.5879C292.855 69.748 292.653 68.765 292.653 67.6387C292.653 65.8939 293.089 64.5365 293.962 63.5664C294.834 62.5898 296.045 62.1016 297.594 62.1016C299.092 62.1016 300.28 62.5996 301.159 63.5957C302.044 64.5918 302.487 65.9395 302.487 67.6387ZM294.333 67.6387C294.333 69.0059 294.606 70.0475 295.153 70.7637C295.7 71.4798 296.504 71.8379 297.565 71.8379C298.626 71.8379 299.43 71.4831 299.977 70.7734C300.531 70.0573 300.807 69.0124 300.807 67.6387C300.807 66.278 300.531 65.2461 299.977 64.543C299.43 63.8333 298.62 63.4785 297.546 63.4785C296.484 63.4785 295.684 63.8268 295.143 64.5234C294.603 65.2201 294.333 66.2585 294.333 67.6387ZM324.096 62.2969V63.3223L322.113 63.5566C322.296 63.7845 322.458 64.084 322.602 64.4551C322.745 64.8197 322.816 65.2331 322.816 65.6953C322.816 66.7435 322.458 67.5801 321.742 68.2051C321.026 68.8301 320.043 69.1426 318.793 69.1426C318.474 69.1426 318.174 69.1165 317.895 69.0645C317.204 69.429 316.859 69.888 316.859 70.4414C316.859 70.7344 316.98 70.9525 317.221 71.0957C317.462 71.2324 317.875 71.3008 318.461 71.3008H320.355C321.514 71.3008 322.403 71.5449 323.021 72.0332C323.646 72.5215 323.959 73.2311 323.959 74.1621C323.959 75.347 323.484 76.2487 322.533 76.8672C321.583 77.4922 320.196 77.8047 318.373 77.8047C316.973 77.8047 315.893 77.5443 315.131 77.0234C314.376 76.5026 313.998 75.7669 313.998 74.8164C313.998 74.1654 314.206 73.6022 314.623 73.127C315.04 72.6517 315.626 72.3294 316.381 72.1602C316.107 72.0365 315.876 71.8444 315.688 71.584C315.505 71.3236 315.414 71.0208 315.414 70.6758C315.414 70.2852 315.518 69.9434 315.727 69.6504C315.935 69.3574 316.264 69.0742 316.713 68.8008C316.16 68.5729 315.707 68.1855 315.355 67.6387C315.01 67.0918 314.838 66.4668 314.838 65.7637C314.838 64.5918 315.189 63.6901 315.893 63.0586C316.596 62.4206 317.592 62.1016 318.881 62.1016C319.441 62.1016 319.945 62.1667 320.395 62.2969H324.096ZM315.561 74.7969C315.561 75.3763 315.805 75.8158 316.293 76.1152C316.781 76.4147 317.481 76.5645 318.393 76.5645C319.753 76.5645 320.759 76.3594 321.41 75.9492C322.068 75.5456 322.396 74.9954 322.396 74.2988C322.396 73.7194 322.217 73.3158 321.859 73.0879C321.501 72.8665 320.827 72.7559 319.838 72.7559H317.895C317.159 72.7559 316.586 72.9316 316.176 73.2832C315.766 73.6348 315.561 74.1393 315.561 74.7969ZM316.439 65.7246C316.439 66.4733 316.651 67.0397 317.074 67.4238C317.497 67.8079 318.087 68 318.842 68C320.424 68 321.215 67.2318 321.215 65.6953C321.215 64.0872 320.414 63.2832 318.812 63.2832C318.051 63.2832 317.465 63.4883 317.055 63.8984C316.645 64.3086 316.439 64.9173 316.439 65.7246ZM335.531 67.6387C335.531 69.3835 335.092 70.7474 334.213 71.7305C333.334 72.707 332.12 73.1953 330.57 73.1953C329.613 73.1953 328.764 72.9707 328.021 72.5215C327.279 72.0723 326.706 71.4277 326.303 70.5879C325.899 69.748 325.697 68.765 325.697 67.6387C325.697 65.8939 326.133 64.5365 327.006 63.5664C327.878 62.5898 329.089 62.1016 330.639 62.1016C332.136 62.1016 333.324 62.5996 334.203 63.5957C335.089 64.5918 335.531 65.9395 335.531 67.6387ZM327.377 67.6387C327.377 69.0059 327.65 70.0475 328.197 70.7637C328.744 71.4798 329.548 71.8379 330.609 71.8379C331.671 71.8379 332.475 71.4831 333.021 70.7734C333.575 70.0573 333.852 69.0124 333.852 67.6387C333.852 66.278 333.575 65.2461 333.021 64.543C332.475 63.8333 331.664 63.4785 330.59 63.4785C329.529 63.4785 328.728 63.8268 328.188 64.5234C327.647 65.2201 327.377 66.2585 327.377 67.6387ZM347.621 67.6387C347.621 69.3835 347.182 70.7474 346.303 71.7305C345.424 72.707 344.21 73.1953 342.66 73.1953C341.703 73.1953 340.854 72.9707 340.111 72.5215C339.369 72.0723 338.796 71.4277 338.393 70.5879C337.989 69.748 337.787 68.765 337.787 67.6387C337.787 65.8939 338.223 64.5365 339.096 63.5664C339.968 62.5898 341.179 62.1016 342.729 62.1016C344.226 62.1016 345.414 62.5996 346.293 63.5957C347.178 64.5918 347.621 65.9395 347.621 67.6387ZM339.467 67.6387C339.467 69.0059 339.74 70.0475 340.287 70.7637C340.834 71.4798 341.638 71.8379 342.699 71.8379C343.76 71.8379 344.564 71.4831 345.111 70.7734C345.665 70.0573 345.941 69.0124 345.941 67.6387C345.941 66.278 345.665 65.2461 345.111 64.543C344.564 63.8333 343.754 63.4785 342.68 63.4785C341.618 63.4785 340.818 63.8268 340.277 64.5234C339.737 65.2201 339.467 66.2585 339.467 67.6387ZM359.232 62.2969V63.3223L357.25 63.5566C357.432 63.7845 357.595 64.084 357.738 64.4551C357.882 64.8197 357.953 65.2331 357.953 65.6953C357.953 66.7435 357.595 67.5801 356.879 68.2051C356.163 68.8301 355.18 69.1426 353.93 69.1426C353.611 69.1426 353.311 69.1165 353.031 69.0645C352.341 69.429 351.996 69.888 351.996 70.4414C351.996 70.7344 352.117 70.9525 352.357 71.0957C352.598 71.2324 353.012 71.3008 353.598 71.3008H355.492C356.651 71.3008 357.54 71.5449 358.158 72.0332C358.783 72.5215 359.096 73.2311 359.096 74.1621C359.096 75.347 358.62 76.2487 357.67 76.8672C356.719 77.4922 355.333 77.8047 353.51 77.8047C352.11 77.8047 351.029 77.5443 350.268 77.0234C349.512 76.5026 349.135 75.7669 349.135 74.8164C349.135 74.1654 349.343 73.6022 349.76 73.127C350.176 72.6517 350.762 72.3294 351.518 72.1602C351.244 72.0365 351.013 71.8444 350.824 71.584C350.642 71.3236 350.551 71.0208 350.551 70.6758C350.551 70.2852 350.655 69.9434 350.863 69.6504C351.072 69.3574 351.4 69.0742 351.85 68.8008C351.296 68.5729 350.844 68.1855 350.492 67.6387C350.147 67.0918 349.975 66.4668 349.975 65.7637C349.975 64.5918 350.326 63.6901 351.029 63.0586C351.732 62.4206 352.729 62.1016 354.018 62.1016C354.577 62.1016 355.082 62.1667 355.531 62.2969H359.232ZM350.697 74.7969C350.697 75.3763 350.941 75.8158 351.43 76.1152C351.918 76.4147 352.618 76.5645 353.529 76.5645C354.89 76.5645 355.896 76.3594 356.547 75.9492C357.204 75.5456 357.533 74.9954 357.533 74.2988C357.533 73.7194 357.354 73.3158 356.996 73.0879C356.638 72.8665 355.964 72.7559 354.975 72.7559H353.031C352.296 72.7559 351.723 72.9316 351.312 73.2832C350.902 73.6348 350.697 74.1393 350.697 74.7969ZM351.576 65.7246C351.576 66.4733 351.788 67.0397 352.211 67.4238C352.634 67.8079 353.223 68 353.979 68C355.561 68 356.352 67.2318 356.352 65.6953C356.352 64.0872 355.551 63.2832 353.949 63.2832C353.188 63.2832 352.602 63.4883 352.191 63.8984C351.781 64.3086 351.576 64.9173 351.576 65.7246ZM363.051 73H361.43V57.8047H363.051V73ZM371.01 73.1953C369.428 73.1953 368.178 72.7135 367.26 71.75C366.348 70.7865 365.893 69.4486 365.893 67.7363C365.893 66.0111 366.316 64.6406 367.162 63.625C368.015 62.6094 369.158 62.1016 370.59 62.1016C371.931 62.1016 372.992 62.5443 373.773 63.4297C374.555 64.3086 374.945 65.4707 374.945 66.916V67.9414H367.572C367.605 69.1979 367.921 70.1517 368.52 70.8027C369.125 71.4538 369.975 71.7793 371.068 71.7793C372.221 71.7793 373.36 71.5384 374.486 71.0566V72.502C373.913 72.7493 373.37 72.9251 372.855 73.0293C372.348 73.14 371.732 73.1953 371.01 73.1953ZM370.57 63.459C369.711 63.459 369.024 63.7389 368.51 64.2988C368.002 64.8587 367.702 65.6335 367.611 66.623H373.207C373.207 65.6009 372.979 64.8197 372.523 64.2793C372.068 63.7324 371.417 63.459 370.57 63.459ZM15.3613 100V93.0371C15.3613 92.1842 15.179 91.5462 14.8145 91.123C14.4499 90.6934 13.8835 90.4785 13.1152 90.4785C12.1061 90.4785 11.3607 90.7682 10.8789 91.3477C10.3971 91.9271 10.1562 92.819 10.1562 94.0234V100H8.53516V93.0371C8.53516 92.1842 8.35286 91.5462 7.98828 91.123C7.6237 90.6934 7.05404 90.4785 6.2793 90.4785C5.26367 90.4785 4.51823 90.7845 4.04297 91.3965C3.57422 92.002 3.33984 92.998 3.33984 94.3848V100H1.71875V89.2969H3.03711L3.30078 90.7617H3.37891C3.6849 90.2409 4.11458 89.834 4.66797 89.541C5.22786 89.248 5.85286 89.1016 6.54297 89.1016C8.21615 89.1016 9.3099 89.707 9.82422 90.918H9.90234C10.2214 90.3581 10.6836 89.9154 11.2891 89.5898C11.8945 89.2643 12.5846 89.1016 13.3594 89.1016C14.5703 89.1016 15.4753 89.4141 16.0742 90.0391C16.6797 90.6576 16.9824 91.6504 16.9824 93.0176V100H15.3613ZM26.9141 100L26.5918 98.4766H26.5137C25.9798 99.1471 25.446 99.6029 24.9121 99.8438C24.3848 100.078 23.724 100.195 22.9297 100.195C21.8685 100.195 21.0352 99.9219 20.4297 99.375C19.8307 98.8281 19.5312 98.0501 19.5312 97.041C19.5312 94.8796 21.2598 93.7467 24.7168 93.6426L26.5332 93.584V92.9199C26.5332 92.0801 26.3509 91.4616 25.9863 91.0645C25.6283 90.6608 25.0521 90.459 24.2578 90.459C23.3659 90.459 22.3568 90.7324 21.2305 91.2793L20.7324 90.0391C21.2598 89.7526 21.8359 89.528 22.4609 89.3652C23.0924 89.2025 23.724 89.1211 24.3555 89.1211C25.6315 89.1211 26.5755 89.4043 27.1875 89.9707C27.806 90.5371 28.1152 91.4453 28.1152 92.6953V100H26.9141ZM23.252 98.8574C24.2611 98.8574 25.0521 98.5807 25.625 98.0273C26.2044 97.474 26.4941 96.6992 26.4941 95.7031V94.7363L24.873 94.8047C23.584 94.8503 22.653 95.0521 22.0801 95.4102C21.5137 95.7617 21.2305 96.3118 21.2305 97.0605C21.2305 97.6465 21.4062 98.0924 21.7578 98.3984C22.1159 98.7044 22.6139 98.8574 23.252 98.8574ZM34.9219 98.8574C35.2083 98.8574 35.485 98.8379 35.752 98.7988C36.0189 98.7533 36.2305 98.7077 36.3867 98.6621V99.9023C36.2109 99.987 35.9505 100.055 35.6055 100.107C35.2669 100.166 34.9609 100.195 34.6875 100.195C32.6172 100.195 31.582 99.1048 31.582 96.9238V90.5566H30.0488V89.7754L31.582 89.1016L32.2656 86.8164H33.2031V89.2969H36.3086V90.5566H33.2031V96.8555C33.2031 97.5 33.3561 97.9948 33.6621 98.3398C33.9681 98.6849 34.388 98.8574 34.9219 98.8574ZM43.0566 100.195C41.4746 100.195 40.2246 99.7135 39.3066 98.75C38.3952 97.7865 37.9395 96.4486 37.9395 94.7363C37.9395 93.0111 38.3626 91.6406 39.209 90.625C40.0618 89.6094 41.2044 89.1016 42.6367 89.1016C43.9779 89.1016 45.0391 89.5443 45.8203 90.4297C46.6016 91.3086 46.9922 92.4707 46.9922 93.916V94.9414H39.6191C39.6517 96.1979 39.9674 97.1517 40.5664 97.8027C41.1719 98.4538 42.0215 98.7793 43.1152 98.7793C44.2676 98.7793 45.4069 98.5384 46.5332 98.0566V99.502C45.9603 99.7493 45.4167 99.9251 44.9023 100.029C44.3945 100.14 43.7793 100.195 43.0566 100.195ZM42.6172 90.459C41.7578 90.459 41.071 90.7389 40.5566 91.2988C40.0488 91.8587 39.7493 92.6335 39.6582 93.623H45.2539C45.2539 92.6009 45.026 91.8197 44.5703 91.2793C44.1146 90.7324 43.4635 90.459 42.6172 90.459ZM54.6484 89.1016C55.1237 89.1016 55.5501 89.1406 55.9277 89.2188L55.7031 90.7227C55.2604 90.625 54.8698 90.5762 54.5312 90.5762C53.6654 90.5762 52.9232 90.9277 52.3047 91.6309C51.6927 92.334 51.3867 93.2096 51.3867 94.2578V100H49.7656V89.2969H51.1035L51.2891 91.2793H51.3672C51.7643 90.5827 52.2428 90.0456 52.8027 89.668C53.3626 89.2904 53.9779 89.1016 54.6484 89.1016ZM59.5508 100H57.9297V89.2969H59.5508V100ZM57.793 86.3965C57.793 86.0254 57.8841 85.7552 58.0664 85.5859C58.2487 85.4102 58.4766 85.3223 58.75 85.3223C59.0104 85.3223 59.235 85.4102 59.4238 85.5859C59.6126 85.7617 59.707 86.0319 59.707 86.3965C59.707 86.7611 59.6126 87.0345 59.4238 87.2168C59.235 87.3926 59.0104 87.4805 58.75 87.4805C58.4766 87.4805 58.2487 87.3926 58.0664 87.2168C57.8841 87.0345 57.793 86.7611 57.793 86.3965ZM69.5703 100L69.248 98.4766H69.1699C68.6361 99.1471 68.1022 99.6029 67.5684 99.8438C67.041 100.078 66.3802 100.195 65.5859 100.195C64.5247 100.195 63.6914 99.9219 63.0859 99.375C62.487 98.8281 62.1875 98.0501 62.1875 97.041C62.1875 94.8796 63.916 93.7467 67.373 93.6426L69.1895 93.584V92.9199C69.1895 92.0801 69.0072 91.4616 68.6426 91.0645C68.2845 90.6608 67.7083 90.459 66.9141 90.459C66.0221 90.459 65.013 90.7324 63.8867 91.2793L63.3887 90.0391C63.916 89.7526 64.4922 89.528 65.1172 89.3652C65.7487 89.2025 66.3802 89.1211 67.0117 89.1211C68.2878 89.1211 69.2318 89.4043 69.8438 89.9707C70.4622 90.5371 70.7715 91.4453 70.7715 92.6953V100H69.5703ZM65.9082 98.8574C66.9173 98.8574 67.7083 98.5807 68.2812 98.0273C68.8607 97.474 69.1504 96.6992 69.1504 95.7031V94.7363L67.5293 94.8047C66.2402 94.8503 65.3092 95.0521 64.7363 95.4102C64.1699 95.7617 63.8867 96.3118 63.8867 97.0605C63.8867 97.6465 64.0625 98.0924 64.4141 98.3984C64.7721 98.7044 65.2702 98.8574 65.9082 98.8574ZM75.7422 100H74.1211V84.8047H75.7422V100ZM85.9961 100H84.375V89.2969H85.9961V100ZM84.2383 86.3965C84.2383 86.0254 84.3294 85.7552 84.5117 85.5859C84.694 85.4102 84.9219 85.3223 85.1953 85.3223C85.4557 85.3223 85.6803 85.4102 85.8691 85.5859C86.0579 85.7617 86.1523 86.0319 86.1523 86.3965C86.1523 86.7611 86.0579 87.0345 85.8691 87.2168C85.6803 87.3926 85.4557 87.4805 85.1953 87.4805C84.9219 87.4805 84.694 87.3926 84.5117 87.2168C84.3294 87.0345 84.2383 86.7611 84.2383 86.3965ZM94.2578 90.5566H91.5332V100H89.9121V90.5566H87.998V89.8242L89.9121 89.2383V88.6426C89.9121 86.0124 91.0612 84.6973 93.3594 84.6973C93.9258 84.6973 94.5898 84.8112 95.3516 85.0391L94.9316 86.3379C94.3066 86.1361 93.7728 86.0352 93.3301 86.0352C92.7181 86.0352 92.2656 86.2402 91.9727 86.6504C91.6797 87.054 91.5332 87.7051 91.5332 88.6035V89.2969H94.2578V90.5566ZM103.027 100H101.406V89.2969H103.027V100ZM101.27 86.3965C101.27 86.0254 101.361 85.7552 101.543 85.5859C101.725 85.4102 101.953 85.3223 102.227 85.3223C102.487 85.3223 102.712 85.4102 102.9 85.5859C103.089 85.7617 103.184 86.0319 103.184 86.3965C103.184 86.7611 103.089 87.0345 102.9 87.2168C102.712 87.3926 102.487 87.4805 102.227 87.4805C101.953 87.4805 101.725 87.3926 101.543 87.2168C101.361 87.0345 101.27 86.7611 101.27 86.3965ZM110.742 100.195C109.193 100.195 107.992 99.7201 107.139 98.7695C106.292 97.8125 105.869 96.4616 105.869 94.7168C105.869 92.9264 106.299 91.543 107.158 90.5664C108.024 89.5898 109.255 89.1016 110.85 89.1016C111.364 89.1016 111.878 89.1569 112.393 89.2676C112.907 89.3783 113.311 89.5085 113.604 89.6582L113.105 91.0352C112.747 90.8919 112.357 90.7747 111.934 90.6836C111.51 90.5859 111.136 90.5371 110.811 90.5371C108.636 90.5371 107.549 91.9238 107.549 94.6973C107.549 96.0124 107.812 97.0215 108.34 97.7246C108.874 98.4277 109.661 98.7793 110.703 98.7793C111.595 98.7793 112.51 98.5872 113.447 98.2031V99.6387C112.731 100.01 111.829 100.195 110.742 100.195ZM125.234 94.6387C125.234 96.3835 124.795 97.7474 123.916 98.7305C123.037 99.707 121.823 100.195 120.273 100.195C119.316 100.195 118.467 99.9707 117.725 99.5215C116.982 99.0723 116.41 98.4277 116.006 97.5879C115.602 96.748 115.4 95.765 115.4 94.6387C115.4 92.8939 115.837 91.5365 116.709 90.5664C117.581 89.5898 118.792 89.1016 120.342 89.1016C121.839 89.1016 123.027 89.5996 123.906 90.5957C124.792 91.5918 125.234 92.9395 125.234 94.6387ZM117.08 94.6387C117.08 96.0059 117.354 97.0475 117.9 97.7637C118.447 98.4798 119.251 98.8379 120.312 98.8379C121.374 98.8379 122.178 98.4831 122.725 97.7734C123.278 97.0573 123.555 96.0124 123.555 94.6387C123.555 93.278 123.278 92.2461 122.725 91.543C122.178 90.8333 121.367 90.4785 120.293 90.4785C119.232 90.4785 118.431 90.8268 117.891 91.5234C117.35 92.2201 117.08 93.2585 117.08 94.6387ZM135.41 100V93.0762C135.41 92.2038 135.212 91.5527 134.814 91.123C134.417 90.6934 133.796 90.4785 132.949 90.4785C131.829 90.4785 131.009 90.7812 130.488 91.3867C129.967 91.9922 129.707 92.9915 129.707 94.3848V100H128.086V89.2969H129.404L129.668 90.7617H129.746C130.078 90.2344 130.544 89.8275 131.143 89.541C131.742 89.248 132.409 89.1016 133.145 89.1016C134.434 89.1016 135.404 89.4141 136.055 90.0391C136.706 90.6576 137.031 91.6504 137.031 93.0176V100H135.41ZM147.275 97.0801C147.275 98.0762 146.904 98.8444 146.162 99.3848C145.42 99.9251 144.378 100.195 143.037 100.195C141.618 100.195 140.511 99.9707 139.717 99.5215V98.0176C140.231 98.278 140.781 98.4831 141.367 98.6328C141.96 98.7826 142.529 98.8574 143.076 98.8574C143.923 98.8574 144.574 98.724 145.029 98.457C145.485 98.1836 145.713 97.7702 145.713 97.2168C145.713 96.8001 145.531 96.4453 145.166 96.1523C144.808 95.8529 144.105 95.5013 143.057 95.0977C142.061 94.7266 141.351 94.4043 140.928 94.1309C140.511 93.8509 140.199 93.5352 139.99 93.1836C139.788 92.832 139.688 92.4121 139.688 91.9238C139.688 91.0514 140.042 90.3646 140.752 89.8633C141.462 89.3555 142.435 89.1016 143.672 89.1016C144.824 89.1016 145.951 89.3359 147.051 89.8047L146.475 91.123C145.4 90.6803 144.427 90.459 143.555 90.459C142.786 90.459 142.207 90.5794 141.816 90.8203C141.426 91.0612 141.23 91.3932 141.23 91.8164C141.23 92.1029 141.302 92.347 141.445 92.5488C141.595 92.7507 141.833 92.9427 142.158 93.125C142.484 93.3073 143.109 93.571 144.033 93.916C145.303 94.3783 146.159 94.8438 146.602 95.3125C147.051 95.7812 147.275 96.3704 147.275 97.0801ZM162.441 100V93.0762C162.441 92.2038 162.243 91.5527 161.846 91.123C161.449 90.6934 160.827 90.4785 159.98 90.4785C158.861 90.4785 158.04 90.7812 157.52 91.3867C156.999 91.9922 156.738 92.9915 156.738 94.3848V100H155.117V89.2969H156.436L156.699 90.7617H156.777C157.109 90.2344 157.575 89.8275 158.174 89.541C158.773 89.248 159.44 89.1016 160.176 89.1016C161.465 89.1016 162.435 89.4141 163.086 90.0391C163.737 90.6576 164.062 91.6504 164.062 93.0176V100H162.441ZM171.924 100.195C170.342 100.195 169.092 99.7135 168.174 98.75C167.262 97.7865 166.807 96.4486 166.807 94.7363C166.807 93.0111 167.23 91.6406 168.076 90.625C168.929 89.6094 170.072 89.1016 171.504 89.1016C172.845 89.1016 173.906 89.5443 174.688 90.4297C175.469 91.3086 175.859 92.4707 175.859 93.916V94.9414H168.486C168.519 96.1979 168.835 97.1517 169.434 97.8027C170.039 98.4538 170.889 98.7793 171.982 98.7793C173.135 98.7793 174.274 98.5384 175.4 98.0566V99.502C174.827 99.7493 174.284 99.9251 173.77 100.029C173.262 100.14 172.646 100.195 171.924 100.195ZM171.484 90.459C170.625 90.459 169.938 90.7389 169.424 91.2988C168.916 91.8587 168.617 92.6335 168.525 93.623H174.121C174.121 92.6009 173.893 91.8197 173.438 91.2793C172.982 90.7324 172.331 90.459 171.484 90.459ZM183.154 100.195C181.572 100.195 180.322 99.7135 179.404 98.75C178.493 97.7865 178.037 96.4486 178.037 94.7363C178.037 93.0111 178.46 91.6406 179.307 90.625C180.16 89.6094 181.302 89.1016 182.734 89.1016C184.076 89.1016 185.137 89.5443 185.918 90.4297C186.699 91.3086 187.09 92.4707 187.09 93.916V94.9414H179.717C179.749 96.1979 180.065 97.1517 180.664 97.8027C181.27 98.4538 182.119 98.7793 183.213 98.7793C184.365 98.7793 185.505 98.5384 186.631 98.0566V99.502C186.058 99.7493 185.514 99.9251 185 100.029C184.492 100.14 183.877 100.195 183.154 100.195ZM182.715 90.459C181.855 90.459 181.169 90.7389 180.654 91.2988C180.146 91.8587 179.847 92.6335 179.756 93.623H185.352C185.352 92.6009 185.124 91.8197 184.668 91.2793C184.212 90.7324 183.561 90.459 182.715 90.459ZM197.148 98.5645H197.061C196.312 99.6517 195.192 100.195 193.701 100.195C192.301 100.195 191.211 99.7168 190.43 98.7598C189.655 97.8027 189.268 96.4421 189.268 94.6777C189.268 92.9134 189.658 91.543 190.439 90.5664C191.221 89.5898 192.308 89.1016 193.701 89.1016C195.153 89.1016 196.266 89.6289 197.041 90.6836H197.168L197.1 89.9121L197.061 89.1602V84.8047H198.682V100H197.363L197.148 98.5645ZM193.906 98.8379C195.013 98.8379 195.814 98.5384 196.309 97.9395C196.81 97.334 197.061 96.3607 197.061 95.0195V94.6777C197.061 93.1608 196.807 92.0801 196.299 91.4355C195.798 90.7845 194.993 90.459 193.887 90.459C192.936 90.459 192.207 90.8301 191.699 91.5723C191.198 92.3079 190.947 93.3496 190.947 94.6973C190.947 96.0645 191.198 97.0964 191.699 97.793C192.201 98.4896 192.936 98.8379 193.906 98.8379ZM210.781 98.8574C211.068 98.8574 211.344 98.8379 211.611 98.7988C211.878 98.7533 212.09 98.7077 212.246 98.6621V99.9023C212.07 99.987 211.81 100.055 211.465 100.107C211.126 100.166 210.82 100.195 210.547 100.195C208.477 100.195 207.441 99.1048 207.441 96.9238V90.5566H205.908V89.7754L207.441 89.1016L208.125 86.8164H209.062V89.2969H212.168V90.5566H209.062V96.8555C209.062 97.5 209.215 97.9948 209.521 98.3398C209.827 98.6849 210.247 98.8574 210.781 98.8574ZM223.633 94.6387C223.633 96.3835 223.193 97.7474 222.314 98.7305C221.436 99.707 220.221 100.195 218.672 100.195C217.715 100.195 216.865 99.9707 216.123 99.5215C215.381 99.0723 214.808 98.4277 214.404 97.5879C214.001 96.748 213.799 95.765 213.799 94.6387C213.799 92.8939 214.235 91.5365 215.107 90.5664C215.98 89.5898 217.191 89.1016 218.74 89.1016C220.238 89.1016 221.426 89.5996 222.305 90.5957C223.19 91.5918 223.633 92.9395 223.633 94.6387ZM215.479 94.6387C215.479 96.0059 215.752 97.0475 216.299 97.7637C216.846 98.4798 217.65 98.8379 218.711 98.8379C219.772 98.8379 220.576 98.4831 221.123 97.7734C221.676 97.0573 221.953 96.0124 221.953 94.6387C221.953 93.278 221.676 92.2461 221.123 91.543C220.576 90.8333 219.766 90.4785 218.691 90.4785C217.63 90.4785 216.829 90.8268 216.289 91.5234C215.749 92.2201 215.479 93.2585 215.479 94.6387ZM236.66 89.1211C238.066 89.1211 239.157 89.6029 239.932 90.5664C240.713 91.5234 241.104 92.8809 241.104 94.6387C241.104 96.3965 240.71 97.7637 239.922 98.7402C239.141 99.7103 238.053 100.195 236.66 100.195C235.964 100.195 235.326 100.068 234.746 99.8145C234.173 99.554 233.691 99.1569 233.301 98.623H233.184L232.842 100H231.68V84.8047H233.301V88.4961C233.301 89.3229 233.275 90.0651 233.223 90.7227H233.301C234.056 89.6549 235.176 89.1211 236.66 89.1211ZM236.426 90.4785C235.319 90.4785 234.521 90.7975 234.033 91.4355C233.545 92.0671 233.301 93.1348 233.301 94.6387C233.301 96.1426 233.551 97.2201 234.053 97.8711C234.554 98.5156 235.358 98.8379 236.465 98.8379C237.461 98.8379 238.203 98.4766 238.691 97.7539C239.18 97.0247 239.424 95.9798 239.424 94.6191C239.424 93.2259 239.18 92.1875 238.691 91.5039C238.203 90.8203 237.448 90.4785 236.426 90.4785ZM248.467 100.195C246.885 100.195 245.635 99.7135 244.717 98.75C243.805 97.7865 243.35 96.4486 243.35 94.7363C243.35 93.0111 243.773 91.6406 244.619 90.625C245.472 89.6094 246.615 89.1016 248.047 89.1016C249.388 89.1016 250.449 89.5443 251.23 90.4297C252.012 91.3086 252.402 92.4707 252.402 93.916V94.9414H245.029C245.062 96.1979 245.378 97.1517 245.977 97.8027C246.582 98.4538 247.432 98.7793 248.525 98.7793C249.678 98.7793 250.817 98.5384 251.943 98.0566V99.502C251.37 99.7493 250.827 99.9251 250.312 100.029C249.805 100.14 249.189 100.195 248.467 100.195ZM248.027 90.459C247.168 90.459 246.481 90.7389 245.967 91.2988C245.459 91.8587 245.16 92.6335 245.068 93.623H250.664C250.664 92.6009 250.436 91.8197 249.98 91.2793C249.525 90.7324 248.874 90.459 248.027 90.459ZM266.953 100L266.631 98.4766H266.553C266.019 99.1471 265.485 99.6029 264.951 99.8438C264.424 100.078 263.763 100.195 262.969 100.195C261.908 100.195 261.074 99.9219 260.469 99.375C259.87 98.8281 259.57 98.0501 259.57 97.041C259.57 94.8796 261.299 93.7467 264.756 93.6426L266.572 93.584V92.9199C266.572 92.0801 266.39 91.4616 266.025 91.0645C265.667 90.6608 265.091 90.459 264.297 90.459C263.405 90.459 262.396 90.7324 261.27 91.2793L260.771 90.0391C261.299 89.7526 261.875 89.528 262.5 89.3652C263.132 89.2025 263.763 89.1211 264.395 89.1211C265.671 89.1211 266.615 89.4043 267.227 89.9707C267.845 90.5371 268.154 91.4453 268.154 92.6953V100H266.953ZM263.291 98.8574C264.3 98.8574 265.091 98.5807 265.664 98.0273C266.243 97.474 266.533 96.6992 266.533 95.7031V94.7363L264.912 94.8047C263.623 94.8503 262.692 95.0521 262.119 95.4102C261.553 95.7617 261.27 96.3118 261.27 97.0605C261.27 97.6465 261.445 98.0924 261.797 98.3984C262.155 98.7044 262.653 98.8574 263.291 98.8574ZM278.789 98.5645H278.701C277.952 99.6517 276.833 100.195 275.342 100.195C273.942 100.195 272.852 99.7168 272.07 98.7598C271.296 97.8027 270.908 96.4421 270.908 94.6777C270.908 92.9134 271.299 91.543 272.08 90.5664C272.861 89.5898 273.949 89.1016 275.342 89.1016C276.794 89.1016 277.907 89.6289 278.682 90.6836H278.809L278.74 89.9121L278.701 89.1602V84.8047H280.322V100H279.004L278.789 98.5645ZM275.547 98.8379C276.654 98.8379 277.454 98.5384 277.949 97.9395C278.451 97.334 278.701 96.3607 278.701 95.0195V94.6777C278.701 93.1608 278.447 92.0801 277.939 91.4355C277.438 90.7845 276.634 90.459 275.527 90.459C274.577 90.459 273.848 90.8301 273.34 91.5723C272.839 92.3079 272.588 93.3496 272.588 94.6973C272.588 96.0645 272.839 97.0964 273.34 97.793C273.841 98.4896 274.577 98.8379 275.547 98.8379ZM291.055 98.5645H290.967C290.218 99.6517 289.098 100.195 287.607 100.195C286.208 100.195 285.117 99.7168 284.336 98.7598C283.561 97.8027 283.174 96.4421 283.174 94.6777C283.174 92.9134 283.564 91.543 284.346 90.5664C285.127 89.5898 286.214 89.1016 287.607 89.1016C289.059 89.1016 290.173 89.6289 290.947 90.6836H291.074L291.006 89.9121L290.967 89.1602V84.8047H292.588V100H291.27L291.055 98.5645ZM287.812 98.8379C288.919 98.8379 289.72 98.5384 290.215 97.9395C290.716 97.334 290.967 96.3607 290.967 95.0195V94.6777C290.967 93.1608 290.713 92.0801 290.205 91.4355C289.704 90.7845 288.9 90.459 287.793 90.459C286.842 90.459 286.113 90.8301 285.605 91.5723C285.104 92.3079 284.854 93.3496 284.854 94.6973C284.854 96.0645 285.104 97.0964 285.605 97.793C286.107 98.4896 286.842 98.8379 287.812 98.8379ZM300.557 100.195C298.975 100.195 297.725 99.7135 296.807 98.75C295.895 97.7865 295.439 96.4486 295.439 94.7363C295.439 93.0111 295.863 91.6406 296.709 90.625C297.562 89.6094 298.704 89.1016 300.137 89.1016C301.478 89.1016 302.539 89.5443 303.32 90.4297C304.102 91.3086 304.492 92.4707 304.492 93.916V94.9414H297.119C297.152 96.1979 297.467 97.1517 298.066 97.8027C298.672 98.4538 299.521 98.7793 300.615 98.7793C301.768 98.7793 302.907 98.5384 304.033 98.0566V99.502C303.46 99.7493 302.917 99.9251 302.402 100.029C301.895 100.14 301.279 100.195 300.557 100.195ZM300.117 90.459C299.258 90.459 298.571 90.7389 298.057 91.2988C297.549 91.8587 297.249 92.6335 297.158 93.623H302.754C302.754 92.6009 302.526 91.8197 302.07 91.2793C301.615 90.7324 300.964 90.459 300.117 90.459ZM314.551 98.5645H314.463C313.714 99.6517 312.594 100.195 311.104 100.195C309.704 100.195 308.613 99.7168 307.832 98.7598C307.057 97.8027 306.67 96.4421 306.67 94.6777C306.67 92.9134 307.061 91.543 307.842 90.5664C308.623 89.5898 309.71 89.1016 311.104 89.1016C312.555 89.1016 313.669 89.6289 314.443 90.6836H314.57L314.502 89.9121L314.463 89.1602V84.8047H316.084V100H314.766L314.551 98.5645ZM311.309 98.8379C312.415 98.8379 313.216 98.5384 313.711 97.9395C314.212 97.334 314.463 96.3607 314.463 95.0195V94.6777C314.463 93.1608 314.209 92.0801 313.701 91.4355C313.2 90.7845 312.396 90.459 311.289 90.459C310.339 90.459 309.609 90.8301 309.102 91.5723C308.6 92.3079 308.35 93.3496 308.35 94.6973C308.35 96.0645 308.6 97.0964 309.102 97.793C309.603 98.4896 310.339 98.8379 311.309 98.8379ZM319.297 98.9648C319.297 98.5286 319.395 98.1999 319.59 97.9785C319.792 97.7507 320.078 97.6367 320.449 97.6367C320.827 97.6367 321.12 97.7507 321.328 97.9785C321.543 98.1999 321.65 98.5286 321.65 98.9648C321.65 99.388 321.543 99.7135 321.328 99.9414C321.113 100.169 320.82 100.283 320.449 100.283C320.117 100.283 319.84 100.182 319.619 99.9805C319.404 99.7721 319.297 99.4336 319.297 98.9648Z" fill="black"/>
</svg>
