<svg width="185" height="159" viewBox="0 0 185 159" fill="none" xmlns="http://www.w3.org/2000/svg">
<path d="M32.2109 74V62.5781H34.0781V74H32.2109ZM44.5078 74H42.6641V68.6875C42.6641 68.0208 42.5286 67.5234 42.2578 67.1953C41.9922 66.8672 41.5677 66.7031 40.9844 66.7031C40.2083 66.7031 39.6406 66.9323 39.2812 67.3906C38.9219 67.849 38.7422 68.6172 38.7422 69.6953V74H36.9062V65.3594H38.3438L38.6016 66.4922H38.6953C38.9557 66.0807 39.3255 65.763 39.8047 65.5391C40.2839 65.3151 40.8151 65.2031 41.3984 65.2031C43.4714 65.2031 44.5078 66.2578 44.5078 68.3672V74ZM50.2812 72.6719C50.7292 72.6719 51.1771 72.6016 51.625 72.4609V73.8438C51.4219 73.9323 51.1589 74.0052 50.8359 74.0625C50.5182 74.125 50.1875 74.1562 49.8438 74.1562C48.1042 74.1562 47.2344 73.2396 47.2344 71.4062V66.75H46.0547V65.9375L47.3203 65.2656L47.9453 63.4375H49.0781V65.3594H51.5391V66.75H49.0781V71.375C49.0781 71.8177 49.1875 72.1458 49.4062 72.3594C49.6302 72.5677 49.9219 72.6719 50.2812 72.6719ZM57.7422 65.2031C58.112 65.2031 58.4167 65.2292 58.6562 65.2812L58.4766 66.9922C58.2161 66.9297 57.9453 66.8984 57.6641 66.8984C56.9297 66.8984 56.3333 67.138 55.875 67.6172C55.4219 68.0964 55.1953 68.7188 55.1953 69.4844V74H53.3594V65.3594H54.7969L55.0391 66.8828H55.1328C55.4193 66.3672 55.7917 65.9583 56.25 65.6562C56.7135 65.3542 57.2109 65.2031 57.7422 65.2031ZM67.9297 69.6641C67.9297 71.0755 67.5677 72.1771 66.8438 72.9688C66.1198 73.7604 65.112 74.1562 63.8203 74.1562C63.013 74.1562 62.2995 73.974 61.6797 73.6094C61.0599 73.2448 60.5833 72.7214 60.25 72.0391C59.9167 71.3568 59.75 70.5651 59.75 69.6641C59.75 68.263 60.1094 67.1693 60.8281 66.3828C61.5469 65.5964 62.5599 65.2031 63.8672 65.2031C65.1172 65.2031 66.1068 65.6068 66.8359 66.4141C67.5651 67.2161 67.9297 68.2995 67.9297 69.6641ZM61.6406 69.6641C61.6406 71.6589 62.3776 72.6562 63.8516 72.6562C65.3099 72.6562 66.0391 71.6589 66.0391 69.6641C66.0391 67.6901 65.3047 66.7031 63.8359 66.7031C63.0651 66.7031 62.5052 66.9583 62.1562 67.4688C61.8125 67.9792 61.6406 68.7109 61.6406 69.6641ZM72.9609 74.1562C71.8828 74.1562 71.0417 73.7656 70.4375 72.9844C69.8333 72.2031 69.5312 71.1068 69.5312 69.6953C69.5312 68.2786 69.8359 67.1771 70.4453 66.3906C71.0599 65.599 71.9089 65.2031 72.9922 65.2031C74.1276 65.2031 74.9922 65.6224 75.5859 66.4609H75.6797C75.5911 65.8411 75.5469 65.3516 75.5469 64.9922V61.8438H77.3906V74H75.9531L75.6328 72.8672H75.5469C74.9583 73.7266 74.0964 74.1562 72.9609 74.1562ZM73.4531 72.6719C74.2083 72.6719 74.7578 72.4609 75.1016 72.0391C75.4453 71.612 75.6224 70.9219 75.6328 69.9688V69.7109C75.6328 68.6224 75.4557 67.849 75.1016 67.3906C74.7474 66.9323 74.1927 66.7031 73.4375 66.7031C72.7917 66.7031 72.2943 66.9661 71.9453 67.4922C71.5964 68.013 71.4219 68.7578 71.4219 69.7266C71.4219 70.6849 71.5911 71.4167 71.9297 71.9219C72.2682 72.4219 72.776 72.6719 73.4531 72.6719ZM86.1094 74L85.8516 72.8672H85.7578C85.5026 73.2682 85.138 73.5833 84.6641 73.8125C84.1953 74.0417 83.6589 74.1562 83.0547 74.1562C82.0078 74.1562 81.2266 73.8958 80.7109 73.375C80.1953 72.8542 79.9375 72.0651 79.9375 71.0078V65.3594H81.7891V70.6875C81.7891 71.349 81.9245 71.8464 82.1953 72.1797C82.4661 72.5078 82.8906 72.6719 83.4688 72.6719C84.2396 72.6719 84.8047 72.4427 85.1641 71.9844C85.5286 71.5208 85.7109 70.7474 85.7109 69.6641V65.3594H87.5547V74H86.1094ZM93.6562 74.1562C92.349 74.1562 91.3542 73.776 90.6719 73.0156C89.9948 72.25 89.6562 71.1536 89.6562 69.7266C89.6562 68.2734 90.0104 67.1562 90.7188 66.375C91.4323 65.5938 92.4609 65.2031 93.8047 65.2031C94.7161 65.2031 95.5365 65.3724 96.2656 65.7109L95.7109 67.1875C94.9349 66.8854 94.2943 66.7344 93.7891 66.7344C92.2943 66.7344 91.5469 67.7266 91.5469 69.7109C91.5469 70.6797 91.7318 71.4089 92.1016 71.8984C92.4766 72.3828 93.0234 72.625 93.7422 72.625C94.5599 72.625 95.3333 72.4219 96.0625 72.0156V73.6172C95.7344 73.8099 95.3828 73.9479 95.0078 74.0312C94.638 74.1146 94.1875 74.1562 93.6562 74.1562ZM99.9297 74H98.0938V65.3594H99.9297V74ZM97.9844 63.0703C97.9844 62.7422 98.0729 62.4896 98.25 62.3125C98.4323 62.1354 98.6901 62.0469 99.0234 62.0469C99.3464 62.0469 99.5964 62.1354 99.7734 62.3125C99.9557 62.4896 100.047 62.7422 100.047 63.0703C100.047 63.3828 99.9557 63.6302 99.7734 63.8125C99.5964 63.9896 99.3464 64.0781 99.0234 64.0781C98.6901 64.0781 98.4323 63.9896 98.25 63.8125C98.0729 63.6302 97.9844 63.3828 97.9844 63.0703ZM110.164 74H108.32V68.6875C108.32 68.0208 108.185 67.5234 107.914 67.1953C107.648 66.8672 107.224 66.7031 106.641 66.7031C105.865 66.7031 105.297 66.9323 104.938 67.3906C104.578 67.849 104.398 68.6172 104.398 69.6953V74H102.562V65.3594H104L104.258 66.4922H104.352C104.612 66.0807 104.982 65.763 105.461 65.5391C105.94 65.3151 106.471 65.2031 107.055 65.2031C109.128 65.2031 110.164 66.2578 110.164 68.3672V74ZM120.016 65.3594V66.3672L118.539 66.6406C118.674 66.8229 118.786 67.0469 118.875 67.3125C118.964 67.5781 119.008 67.8594 119.008 68.1562C119.008 69.0469 118.701 69.7474 118.086 70.2578C117.471 70.7682 116.625 71.0234 115.547 71.0234C115.271 71.0234 115.021 71.0026 114.797 70.9609C114.401 71.2057 114.203 71.4922 114.203 71.8203C114.203 72.0182 114.294 72.1667 114.477 72.2656C114.664 72.3646 115.005 72.4141 115.5 72.4141H117.008C117.961 72.4141 118.685 72.6172 119.18 73.0234C119.674 73.4297 119.922 74.0156 119.922 74.7812C119.922 75.7604 119.518 76.5156 118.711 77.0469C117.904 77.5781 116.737 77.8438 115.211 77.8438C114.034 77.8438 113.135 77.6354 112.516 77.2188C111.896 76.8021 111.586 76.2083 111.586 75.4375C111.586 74.9062 111.753 74.4583 112.086 74.0938C112.424 73.7344 112.896 73.4844 113.5 73.3438C113.255 73.2396 113.052 73.0729 112.891 72.8438C112.734 72.6094 112.656 72.3646 112.656 72.1094C112.656 71.7865 112.747 71.513 112.93 71.2891C113.112 71.0651 113.383 70.8438 113.742 70.625C113.294 70.4323 112.93 70.1198 112.648 69.6875C112.372 69.25 112.234 68.7396 112.234 68.1562C112.234 67.2188 112.529 66.4922 113.117 65.9766C113.711 65.4609 114.555 65.2031 115.648 65.2031C115.893 65.2031 116.148 65.2214 116.414 65.2578C116.685 65.2891 116.888 65.3229 117.023 65.3594H120.016ZM113.227 75.3438C113.227 75.7396 113.404 76.0443 113.758 76.2578C114.117 76.4714 114.62 76.5781 115.266 76.5781C116.266 76.5781 117.01 76.4349 117.5 76.1484C117.99 75.862 118.234 75.4818 118.234 75.0078C118.234 74.6328 118.099 74.3646 117.828 74.2031C117.562 74.0469 117.065 73.9688 116.336 73.9688H114.945C114.419 73.9688 114 74.0911 113.688 74.3359C113.38 74.5859 113.227 74.9219 113.227 75.3438ZM114.016 68.1562C114.016 68.6979 114.154 69.1146 114.43 69.4062C114.711 69.6979 115.112 69.8438 115.633 69.8438C116.695 69.8438 117.227 69.276 117.227 68.1406C117.227 67.5781 117.094 67.1458 116.828 66.8438C116.568 66.5365 116.169 66.3828 115.633 66.3828C115.102 66.3828 114.698 66.5339 114.422 66.8359C114.151 67.138 114.016 67.5781 114.016 68.1562ZM129 72.6719C129.448 72.6719 129.896 72.6016 130.344 72.4609V73.8438C130.141 73.9323 129.878 74.0052 129.555 74.0625C129.237 74.125 128.906 74.1562 128.562 74.1562C126.823 74.1562 125.953 73.2396 125.953 71.4062V66.75H124.773V65.9375L126.039 65.2656L126.664 63.4375H127.797V65.3594H130.258V66.75H127.797V71.375C127.797 71.8177 127.906 72.1458 128.125 72.3594C128.349 72.5677 128.641 72.6719 129 72.6719ZM139.68 74H137.836V68.6875C137.836 68.0208 137.701 67.5234 137.43 67.1953C137.164 66.8672 136.74 66.7031 136.156 66.7031C135.385 66.7031 134.818 66.9349 134.453 67.3984C134.094 67.8568 133.914 68.6276 133.914 69.7109V74H132.078V61.8438H133.914V64.9297C133.914 65.4245 133.883 65.9531 133.82 66.5156H133.938C134.188 66.099 134.534 65.776 134.977 65.5469C135.424 65.3177 135.945 65.2031 136.539 65.2031C138.633 65.2031 139.68 66.2578 139.68 68.3672V74ZM146.008 74.1562C144.664 74.1562 143.612 73.7656 142.852 72.9844C142.096 72.1979 141.719 71.1172 141.719 69.7422C141.719 68.3307 142.07 67.2214 142.773 66.4141C143.477 65.6068 144.443 65.2031 145.672 65.2031C146.812 65.2031 147.714 65.5495 148.375 66.2422C149.036 66.9349 149.367 67.888 149.367 69.1016V70.0938H143.609C143.635 70.9323 143.862 71.5781 144.289 72.0312C144.716 72.4792 145.318 72.7031 146.094 72.7031C146.604 72.7031 147.078 72.6562 147.516 72.5625C147.958 72.4635 148.432 72.3021 148.938 72.0781V73.5703C148.49 73.7839 148.036 73.9349 147.578 74.0234C147.12 74.112 146.596 74.1562 146.008 74.1562ZM145.672 66.5938C145.089 66.5938 144.62 66.7786 144.266 67.1484C143.917 67.5182 143.708 68.0573 143.641 68.7656H147.562C147.552 68.0521 147.38 67.513 147.047 67.1484C146.714 66.7786 146.255 66.5938 145.672 66.5938ZM72.5703 91.5391C72.5703 92.3828 72.263 93.0312 71.6484 93.4844C71.0339 93.9323 70.1536 94.1562 69.0078 94.1562C67.8568 94.1562 66.9323 93.9818 66.2344 93.6328V92.0469C67.25 92.5156 68.1953 92.75 69.0703 92.75C70.2005 92.75 70.7656 92.4089 70.7656 91.7266C70.7656 91.5078 70.7031 91.3255 70.5781 91.1797C70.4531 91.0339 70.2474 90.8828 69.9609 90.7266C69.6745 90.5703 69.276 90.3932 68.7656 90.1953C67.7708 89.8099 67.0964 89.4245 66.7422 89.0391C66.3932 88.6536 66.2188 88.1536 66.2188 87.5391C66.2188 86.7995 66.5156 86.2266 67.1094 85.8203C67.7083 85.4089 68.5208 85.2031 69.5469 85.2031C70.5625 85.2031 71.5234 85.4089 72.4297 85.8203L71.8359 87.2031C70.9036 86.8177 70.1198 86.625 69.4844 86.625C68.5156 86.625 68.0312 86.901 68.0312 87.4531C68.0312 87.724 68.1562 87.9531 68.4062 88.1406C68.6615 88.3281 69.2135 88.5859 70.0625 88.9141C70.776 89.1901 71.2943 89.4427 71.6172 89.6719C71.9401 89.901 72.1797 90.1667 72.3359 90.4688C72.4922 90.7656 72.5703 91.1224 72.5703 91.5391ZM78.3359 94.1562C76.9922 94.1562 75.9401 93.7656 75.1797 92.9844C74.4245 92.1979 74.0469 91.1172 74.0469 89.7422C74.0469 88.3307 74.3984 87.2214 75.1016 86.4141C75.8047 85.6068 76.7708 85.2031 78 85.2031C79.1406 85.2031 80.0417 85.5495 80.7031 86.2422C81.3646 86.9349 81.6953 87.888 81.6953 89.1016V90.0938H75.9375C75.9635 90.9323 76.1901 91.5781 76.6172 92.0312C77.0443 92.4792 77.6458 92.7031 78.4219 92.7031C78.9323 92.7031 79.4062 92.6562 79.8438 92.5625C80.2865 92.4635 80.7604 92.3021 81.2656 92.0781V93.5703C80.8177 93.7839 80.3646 93.9349 79.9062 94.0234C79.4479 94.112 78.9245 94.1562 78.3359 94.1562ZM78 86.5938C77.4167 86.5938 76.9479 86.7786 76.5938 87.1484C76.2448 87.5182 76.0365 88.0573 75.9688 88.7656H79.8906C79.8802 88.0521 79.7083 87.513 79.375 87.1484C79.0417 86.7786 78.5833 86.5938 78 86.5938ZM88.1641 85.2031C88.5339 85.2031 88.8385 85.2292 89.0781 85.2812L88.8984 86.9922C88.638 86.9297 88.3672 86.8984 88.0859 86.8984C87.3516 86.8984 86.7552 87.138 86.2969 87.6172C85.8438 88.0964 85.6172 88.7188 85.6172 89.4844V94H83.7812V85.3594H85.2188L85.4609 86.8828H85.5547C85.8411 86.3672 86.2135 85.9583 86.6719 85.6562C87.1354 85.3542 87.6328 85.2031 88.1641 85.2031ZM92.6562 94L89.375 85.3594H91.3125L93.0703 90.3828C93.3724 91.2266 93.5547 91.9089 93.6172 92.4297H93.6797C93.7266 92.0547 93.9089 91.3724 94.2266 90.3828L95.9844 85.3594H97.9375L94.6406 94H92.6562ZM101.086 94H99.25V85.3594H101.086V94ZM99.1406 83.0703C99.1406 82.7422 99.2292 82.4896 99.4062 82.3125C99.5885 82.1354 99.8464 82.0469 100.18 82.0469C100.503 82.0469 100.753 82.1354 100.93 82.3125C101.112 82.4896 101.203 82.7422 101.203 83.0703C101.203 83.3828 101.112 83.6302 100.93 83.8125C100.753 83.9896 100.503 84.0781 100.18 84.0781C99.8464 84.0781 99.5885 83.9896 99.4062 83.8125C99.2292 83.6302 99.1406 83.3828 99.1406 83.0703ZM107.203 94.1562C105.896 94.1562 104.901 93.776 104.219 93.0156C103.542 92.25 103.203 91.1536 103.203 89.7266C103.203 88.2734 103.557 87.1562 104.266 86.375C104.979 85.5938 106.008 85.2031 107.352 85.2031C108.263 85.2031 109.083 85.3724 109.812 85.7109L109.258 87.1875C108.482 86.8854 107.841 86.7344 107.336 86.7344C105.841 86.7344 105.094 87.7266 105.094 89.7109C105.094 90.6797 105.279 91.4089 105.648 91.8984C106.023 92.3828 106.57 92.625 107.289 92.625C108.107 92.625 108.88 92.4219 109.609 92.0156V93.6172C109.281 93.8099 108.93 93.9479 108.555 94.0312C108.185 94.1146 107.734 94.1562 107.203 94.1562ZM115.414 94.1562C114.07 94.1562 113.018 93.7656 112.258 92.9844C111.503 92.1979 111.125 91.1172 111.125 89.7422C111.125 88.3307 111.477 87.2214 112.18 86.4141C112.883 85.6068 113.849 85.2031 115.078 85.2031C116.219 85.2031 117.12 85.5495 117.781 86.2422C118.443 86.9349 118.773 87.888 118.773 89.1016V90.0938H113.016C113.042 90.9323 113.268 91.5781 113.695 92.0312C114.122 92.4792 114.724 92.7031 115.5 92.7031C116.01 92.7031 116.484 92.6562 116.922 92.5625C117.365 92.4635 117.839 92.3021 118.344 92.0781V93.5703C117.896 93.7839 117.443 93.9349 116.984 94.0234C116.526 94.112 116.003 94.1562 115.414 94.1562ZM115.078 86.5938C114.495 86.5938 114.026 86.7786 113.672 87.1484C113.323 87.5182 113.115 88.0573 113.047 88.7656H116.969C116.958 88.0521 116.786 87.513 116.453 87.1484C116.12 86.7786 115.661 86.5938 115.078 86.5938Z" fill="black"/>
<path d="M33.3828 135L33.2119 133.824H33.1572C32.7835 134.303 32.3984 134.642 32.002 134.843C31.61 135.039 31.1452 135.137 30.6074 135.137C29.8783 135.137 29.3109 134.95 28.9053 134.576C28.4997 134.202 28.2969 133.685 28.2969 133.024C28.2969 132.3 28.5977 131.737 29.1992 131.336C29.8053 130.935 30.6803 130.723 31.8242 130.7L33.2393 130.659V130.167C33.2393 129.461 33.0957 128.927 32.8086 128.567C32.5215 128.207 32.0589 128.027 31.4209 128.027C30.7327 128.027 30.0195 128.219 29.2812 128.602L29.0283 128.014C29.8441 127.631 30.6507 127.439 31.4482 127.439C32.264 127.439 32.8724 127.651 33.2734 128.075C33.679 128.499 33.8818 129.16 33.8818 130.058V135H33.3828ZM30.6484 134.521C31.4414 134.521 32.0658 134.296 32.5215 133.845C32.9818 133.389 33.2119 132.758 33.2119 131.951V131.22L31.9131 131.274C30.8695 131.325 30.1243 131.489 29.6777 131.767C29.2357 132.04 29.0146 132.468 29.0146 133.052C29.0146 133.517 29.1559 133.879 29.4385 134.139C29.7256 134.394 30.1289 134.521 30.6484 134.521ZM41.4766 135V130.181C41.4766 129.433 41.3193 128.891 41.0049 128.554C40.6904 128.212 40.2028 128.041 39.542 128.041C38.6533 128.041 38.0016 128.267 37.5869 128.718C37.1768 129.164 36.9717 129.891 36.9717 130.898V135H36.2949V127.569H36.8691L36.999 128.588H37.04C37.5231 127.813 38.3822 127.426 39.6172 127.426C41.3034 127.426 42.1465 128.33 42.1465 130.14V135H41.4766ZM47.2734 127.426C47.8112 127.426 48.276 127.524 48.668 127.72C49.0599 127.916 49.4108 128.251 49.7207 128.725H49.7617C49.7344 128.15 49.7207 127.588 49.7207 127.036V124.363H50.3906V135H49.9463L49.7754 133.865H49.7207C49.1556 134.713 48.3444 135.137 47.2871 135.137C46.2617 135.137 45.4779 134.818 44.9355 134.18C44.3932 133.542 44.1221 132.612 44.1221 131.391C44.1221 130.105 44.391 129.123 44.9287 128.444C45.4665 127.765 46.248 127.426 47.2734 127.426ZM47.2734 128.041C46.4622 128.041 45.8516 128.326 45.4414 128.896C45.0358 129.465 44.833 130.292 44.833 131.377C44.833 133.482 45.651 134.535 47.2871 134.535C48.1257 134.535 48.7409 134.291 49.1328 133.804C49.5247 133.316 49.7207 132.512 49.7207 131.391V131.274C49.7207 130.126 49.527 129.301 49.1396 128.8C48.7568 128.294 48.1348 128.041 47.2734 128.041ZM65.8125 135V130.126C65.8125 129.401 65.6712 128.873 65.3887 128.54C65.1061 128.207 64.6732 128.041 64.0898 128.041C63.3288 128.041 62.766 128.251 62.4014 128.67C62.0368 129.089 61.8545 129.748 61.8545 130.646V135H61.1641V129.921C61.1641 128.668 60.5898 128.041 59.4414 128.041C58.6621 128.041 58.0947 128.269 57.7393 128.725C57.3838 129.176 57.2061 129.9 57.2061 130.898V135H56.5293V127.569H57.0898L57.2334 128.588H57.2744C57.4795 128.219 57.7712 127.934 58.1494 127.733C58.5277 127.528 58.9447 127.426 59.4004 127.426C60.5716 127.426 61.3236 127.866 61.6562 128.745H61.6836C61.9251 128.321 62.2487 127.995 62.6543 127.768C63.0645 127.54 63.5293 127.426 64.0488 127.426C64.86 127.426 65.4684 127.642 65.874 128.075C66.2796 128.508 66.4824 129.196 66.4824 130.14V135H65.8125ZM73.4004 135L73.2295 133.824H73.1748C72.8011 134.303 72.416 134.642 72.0195 134.843C71.6276 135.039 71.1628 135.137 70.625 135.137C69.8958 135.137 69.3285 134.95 68.9229 134.576C68.5173 134.202 68.3145 133.685 68.3145 133.024C68.3145 132.3 68.6152 131.737 69.2168 131.336C69.8229 130.935 70.6979 130.723 71.8418 130.7L73.2568 130.659V130.167C73.2568 129.461 73.1133 128.927 72.8262 128.567C72.5391 128.207 72.0765 128.027 71.4385 128.027C70.7503 128.027 70.0371 128.219 69.2988 128.602L69.0459 128.014C69.8617 127.631 70.6683 127.439 71.4658 127.439C72.2816 127.439 72.89 127.651 73.291 128.075C73.6966 128.499 73.8994 129.16 73.8994 130.058V135H73.4004ZM70.666 134.521C71.459 134.521 72.0833 134.296 72.5391 133.845C72.9993 133.389 73.2295 132.758 73.2295 131.951V131.22L71.9307 131.274C70.887 131.325 70.1419 131.489 69.6953 131.767C69.2533 132.04 69.0322 132.468 69.0322 133.052C69.0322 133.517 69.1735 133.879 69.4561 134.139C69.7432 134.394 70.1465 134.521 70.666 134.521ZM76.9756 131.739L80.7695 127.569H81.5898L78.6641 130.741L81.8428 135H81.0293L78.2061 131.247L76.9893 132.354V135H76.3125V124.363H76.9893V129.695L76.9414 131.739H76.9756ZM83.7705 135H83.0938V127.569H83.7705V135ZM82.998 125.505C82.998 125.067 83.1416 124.849 83.4287 124.849C83.57 124.849 83.6794 124.906 83.7568 125.02C83.8389 125.133 83.8799 125.295 83.8799 125.505C83.8799 125.71 83.8389 125.872 83.7568 125.99C83.6794 126.109 83.57 126.168 83.4287 126.168C83.1416 126.168 82.998 125.947 82.998 125.505ZM91.4473 135V130.181C91.4473 129.433 91.29 128.891 90.9756 128.554C90.6611 128.212 90.1735 128.041 89.5127 128.041C88.624 128.041 87.9723 128.267 87.5576 128.718C87.1475 129.164 86.9424 129.891 86.9424 130.898V135H86.2656V127.569H86.8398L86.9697 128.588H87.0107C87.4938 127.813 88.3529 127.426 89.5879 127.426C91.2741 127.426 92.1172 128.33 92.1172 130.14V135H91.4473ZM100.32 127.569V128.041L98.7822 128.137C99.1924 128.647 99.3975 129.208 99.3975 129.818C99.3975 130.534 99.1582 131.115 98.6797 131.562C98.2057 132.004 97.5677 132.225 96.7656 132.225C96.4284 132.225 96.1914 132.211 96.0547 132.184C95.7858 132.325 95.5807 132.491 95.4395 132.683C95.2982 132.874 95.2275 133.077 95.2275 133.291C95.2275 133.528 95.3164 133.701 95.4941 133.811C95.6764 133.92 95.9795 133.975 96.4033 133.975H97.7021C98.5088 133.975 99.1263 134.139 99.5547 134.467C99.9831 134.79 100.197 135.271 100.197 135.909C100.197 136.693 99.8783 137.297 99.2402 137.721C98.6068 138.149 97.7021 138.363 96.5264 138.363C95.5921 138.363 94.8675 138.183 94.3525 137.823C93.8421 137.463 93.5869 136.962 93.5869 136.319C93.5869 135.809 93.7441 135.385 94.0586 135.048C94.3776 134.711 94.8083 134.48 95.3506 134.357C95.1273 134.262 94.9473 134.127 94.8105 133.954C94.6784 133.776 94.6123 133.574 94.6123 133.346C94.6123 132.849 94.929 132.411 95.5625 132.033C95.1296 131.855 94.7923 131.577 94.5508 131.199C94.3092 130.816 94.1885 130.379 94.1885 129.887C94.1885 129.144 94.4232 128.549 94.8926 128.103C95.3665 127.651 96.0046 127.426 96.8066 127.426C97.2943 127.426 97.6725 127.474 97.9414 127.569H100.32ZM94.3047 136.258C94.3047 137.279 95.0635 137.789 96.5811 137.789C98.5316 137.789 99.5068 137.167 99.5068 135.923C99.5068 135.476 99.3542 135.153 99.0488 134.952C98.7435 134.752 98.249 134.651 97.5654 134.651H96.3486C94.986 134.651 94.3047 135.187 94.3047 136.258ZM94.8721 129.887C94.8721 130.461 95.0452 130.908 95.3916 131.227C95.7425 131.541 96.2096 131.698 96.793 131.698C97.4128 131.698 97.8867 131.541 98.2148 131.227C98.5475 130.912 98.7139 130.456 98.7139 129.859C98.7139 129.226 98.543 128.752 98.2012 128.438C97.8639 128.118 97.39 127.959 96.7793 127.959C96.1868 127.959 95.7197 128.13 95.3779 128.472C95.0407 128.809 94.8721 129.281 94.8721 129.887ZM106.165 135H105.488V127.569H106.165V135ZM105.393 125.505C105.393 125.067 105.536 124.849 105.823 124.849C105.965 124.849 106.074 124.906 106.151 125.02C106.233 125.133 106.274 125.295 106.274 125.505C106.274 125.71 106.233 125.872 106.151 125.99C106.074 126.109 105.965 126.168 105.823 126.168C105.536 126.168 105.393 125.947 105.393 125.505ZM110.622 134.535C111.05 134.535 111.424 134.499 111.743 134.426V134.973C111.415 135.082 111.037 135.137 110.608 135.137C109.952 135.137 109.467 134.961 109.152 134.61C108.842 134.259 108.688 133.708 108.688 132.956V128.157H107.587V127.761L108.688 127.453L109.029 125.771H109.378V127.569H111.559V128.157H109.378V132.86C109.378 133.43 109.478 133.852 109.679 134.125C109.879 134.398 110.194 134.535 110.622 134.535ZM117.649 131.739L121.443 127.569H122.264L119.338 130.741L122.517 135H121.703L118.88 131.247L117.663 132.354V135H116.986V124.363H117.663V129.695L117.615 131.739H117.649ZM128.949 135V130.181C128.949 129.433 128.792 128.891 128.478 128.554C128.163 128.212 127.675 128.041 127.015 128.041C126.126 128.041 125.474 128.267 125.06 128.718C124.649 129.164 124.444 129.891 124.444 130.898V135H123.768V127.569H124.342L124.472 128.588H124.513C124.996 127.813 125.855 127.426 127.09 127.426C128.776 127.426 129.619 128.33 129.619 130.14V135H128.949ZM138.171 131.274C138.171 132.487 137.877 133.435 137.289 134.118C136.701 134.797 135.89 135.137 134.855 135.137C134.204 135.137 133.63 134.979 133.133 134.665C132.636 134.351 132.256 133.899 131.991 133.312C131.727 132.724 131.595 132.045 131.595 131.274C131.595 130.062 131.889 129.119 132.477 128.444C133.064 127.765 133.871 127.426 134.896 127.426C135.917 127.426 136.717 127.77 137.296 128.458C137.879 129.142 138.171 130.08 138.171 131.274ZM132.306 131.274C132.306 132.295 132.529 133.093 132.976 133.667C133.427 134.237 134.062 134.521 134.883 134.521C135.703 134.521 136.337 134.237 136.783 133.667C137.234 133.093 137.46 132.295 137.46 131.274C137.46 130.249 137.232 129.454 136.776 128.889C136.325 128.324 135.689 128.041 134.869 128.041C134.049 128.041 133.415 128.324 132.969 128.889C132.527 129.449 132.306 130.244 132.306 131.274ZM146.169 135L144.542 130.03C144.437 129.693 144.303 129.199 144.139 128.547H144.098L143.954 129.053L143.646 130.044L141.992 135H141.322L139.196 127.569H139.921L141.11 131.876C141.388 132.942 141.571 133.726 141.657 134.228H141.698C141.967 133.161 142.163 132.452 142.286 132.102L143.817 127.569H144.433L145.889 132.088C146.217 133.159 146.417 133.868 146.49 134.214H146.531C146.568 133.918 146.75 133.125 147.078 131.835L148.213 127.569H148.896L146.88 135H146.169ZM155.541 135V130.181C155.541 129.433 155.384 128.891 155.069 128.554C154.755 128.212 154.267 128.041 153.606 128.041C152.718 128.041 152.066 128.267 151.651 128.718C151.241 129.164 151.036 129.891 151.036 130.898V135H150.359V127.569H150.934L151.063 128.588H151.104C151.588 127.813 152.447 127.426 153.682 127.426C155.368 127.426 156.211 128.33 156.211 130.14V135H155.541Z" fill="black"/>
<rect x="10" y="109" width="165" height="1" fill="#323232"/>
<path d="M113.934 38.5705H113.637V16.0778C113.637 15.1787 112.906 14.4472 112.007 14.4472H110.966C112.203 13.0926 113.368 11.673 114.453 10.1934L114.917 10.5372C115.282 10.8075 115.762 10.8523 116.17 10.6539C116.579 10.4556 116.841 10.0504 116.854 9.59668L116.999 4.57067C117.011 4.1739 116.827 3.7959 116.508 3.55965C116.189 3.32341 115.774 3.25811 115.398 3.38468L110.633 4.98827C110.203 5.13294 109.891 5.50138 109.821 5.94975C109.75 6.39812 109.932 6.84462 110.297 7.11501L111.06 7.68C110.371 8.62028 109.641 9.54348 108.885 10.4314C108.632 10.7271 108.668 11.1713 108.964 11.4234C109.259 11.6754 109.703 11.6401 109.956 11.3443C110.889 10.2495 111.782 9.10252 112.611 7.93538C112.832 7.62296 112.764 7.19063 112.456 6.96265L111.432 6.2041L115.585 4.80673L115.458 9.1864L114.718 8.63858C114.566 8.52608 114.376 8.47898 114.189 8.50901C114.002 8.53856 113.835 8.64205 113.726 8.79601C109.11 15.2832 102.929 20.6423 95.8521 24.2942C88.7696 27.9488 80.8138 29.8805 72.8446 29.8805H71.111C70.7229 29.8805 70.4073 29.5648 70.4073 29.1768C70.4073 28.7888 70.7229 28.4731 71.111 28.4731H72.8448C79.4513 28.4731 85.8819 27.1604 91.958 24.5712C97.988 22.0017 103.354 18.3113 107.906 13.6026C108.176 13.3231 108.168 12.8777 107.889 12.6076C107.61 12.3375 107.164 12.3451 106.894 12.6245C105.13 14.449 103.24 16.1156 101.234 17.619C101.231 17.619 101.227 17.6185 101.224 17.6185H95.6101C94.711 17.6185 93.9795 18.3499 93.9795 19.2489V22.0888C93.3517 22.4013 92.7157 22.7006 92.0716 22.9866V21.9877C92.0716 21.0887 91.3402 20.3572 90.4412 20.3572H84.8273C83.9282 20.3572 83.1968 21.0887 83.1968 21.9877V25.925C82.5636 26.067 81.9275 26.1961 81.2888 26.3117V24.2199C81.2888 23.3209 80.5574 22.5894 79.6584 22.5894H74.0443C73.1452 22.5894 72.4139 23.3209 72.4139 24.2199V27.0658H71.111C69.9469 27.0658 69 28.0129 69 29.1768C69 30.3407 69.9469 31.2878 71.111 31.2878H72.4138V38.5705H72.0351C70.3967 38.5705 69.0638 39.9034 69.0638 41.5417V43.4699C69.0638 44.1362 69.6059 44.6783 70.2722 44.6783H115.697C116.363 44.6783 116.906 44.1362 116.906 43.4699V41.5417C116.906 39.9034 115.573 38.5705 113.934 38.5705ZM95.3869 19.2488C95.3869 19.1257 95.487 19.0257 95.6101 19.0257H99.2519C98.0039 19.8635 96.7146 20.6412 95.3869 21.3584V19.2488ZM84.604 21.9877C84.604 21.8647 84.7041 21.7645 84.8271 21.7645H90.441C90.5641 21.7645 90.6641 21.8647 90.6641 21.9877V23.5846C88.6796 24.3914 86.6574 25.06 84.6039 25.5875V21.9877H84.604ZM74.0443 23.9967H79.6582C79.7813 23.9967 79.8813 24.0968 79.8813 24.2199V26.5444C77.8833 26.8434 75.8612 27.0138 73.8211 27.055V24.2198C73.8211 24.0968 73.9212 23.9967 74.0443 23.9967ZM109.634 15.8546H112.007C112.13 15.8546 112.23 15.9547 112.23 16.0778V38.5705H106.17V19.0676C107.372 18.0494 108.529 16.9776 109.634 15.8546ZM96.4976 25.5448C98.2011 24.6658 99.8534 23.6897 101.447 22.6257V30.1192C101.447 30.5079 101.762 30.8229 102.151 30.8229C102.539 30.8229 102.854 30.5079 102.854 30.1192V21.6536C103.501 21.19 104.137 20.7108 104.762 20.218V38.5705H102.854V33.1198C102.854 32.7311 102.539 32.4162 102.151 32.4162C101.762 32.4162 101.447 32.7311 101.447 33.1198V38.5705H95.3869V26.0994C95.7591 25.9186 96.1298 25.7346 96.4976 25.5448ZM84.604 29.9213C86.6584 29.44 88.6834 28.834 90.6642 28.1065V38.5705H84.604V29.9213ZM92.0716 27.5661C92.713 27.309 93.3491 27.0391 93.9795 26.7563V38.5705H92.0716V27.5661ZM73.8211 31.2773C75.8487 31.2382 77.8731 31.0784 79.8813 30.8003V33.1326C79.8813 33.5213 80.1964 33.8362 80.585 33.8362C80.9736 33.8362 81.2886 33.5213 81.2886 33.1326V30.5863C81.9269 30.48 82.5628 30.3606 83.1967 30.2305V38.5705H81.2886V36.1333C81.2886 35.7446 80.9736 35.4296 80.585 35.4296C80.1964 35.4296 79.8813 35.7446 79.8813 36.1333V38.5705H73.8211V31.2773ZM115.498 43.271H70.4711V41.5417C70.4711 40.6794 71.1727 39.9778 72.0351 39.9778H113.934C114.797 39.9778 115.498 40.6794 115.498 41.5417V43.271Z" fill="black"/>
</svg>
