<svg width="185" height="159" viewBox="0 0 185 159" fill="none" xmlns="http://www.w3.org/2000/svg">
<path d="M17.8594 68.2734C17.8594 70.1328 17.3932 71.5781 16.4609 72.6094C15.5339 73.6406 14.2188 74.1562 12.5156 74.1562C10.7917 74.1562 9.46615 73.6458 8.53906 72.625C7.61719 71.599 7.15625 70.1432 7.15625 68.2578C7.15625 66.3724 7.61979 64.9245 8.54688 63.9141C9.47917 62.9036 10.8073 62.3984 12.5312 62.3984C14.2292 62.3984 15.5417 62.9115 16.4688 63.9375C17.3958 64.9635 17.8594 66.4089 17.8594 68.2734ZM9.14062 68.2734C9.14062 69.6797 9.42448 70.7474 9.99219 71.4766C10.5599 72.2005 11.401 72.5625 12.5156 72.5625C13.625 72.5625 14.4609 72.2031 15.0234 71.4844C15.5911 70.7656 15.875 69.6953 15.875 68.2734C15.875 66.8724 15.5938 65.8099 15.0312 65.0859C14.474 64.362 13.6406 64 12.5312 64C11.4115 64 10.5651 64.362 9.99219 65.0859C9.42448 65.8099 9.14062 66.8724 9.14062 68.2734ZM24.4531 66.75H22.3438V74H20.5V66.75H19.0781V65.8906L20.5 65.3281V64.7656C20.5 63.7448 20.7396 62.9896 21.2188 62.5C21.6979 62.0052 22.4297 61.7578 23.4141 61.7578C24.0599 61.7578 24.6953 61.8646 25.3203 62.0781L24.8359 63.4688C24.3828 63.3229 23.9505 63.25 23.5391 63.25C23.1224 63.25 22.8177 63.3802 22.625 63.6406C22.4375 63.8958 22.3438 64.2812 22.3438 64.7969V65.3594H24.4531V66.75ZM30.2578 66.75H28.1484V74H26.3047V66.75H24.8828V65.8906L26.3047 65.3281V64.7656C26.3047 63.7448 26.5443 62.9896 27.0234 62.5C27.5026 62.0052 28.2344 61.7578 29.2188 61.7578C29.8646 61.7578 30.5 61.8646 31.125 62.0781L30.6406 63.4688C30.1875 63.3229 29.7552 63.25 29.3438 63.25C28.9271 63.25 28.6224 63.3802 28.4297 63.6406C28.2422 63.8958 28.1484 64.2812 28.1484 64.7969V65.3594H30.2578V66.75ZM35.5156 74.1562C34.1719 74.1562 33.1198 73.7656 32.3594 72.9844C31.6042 72.1979 31.2266 71.1172 31.2266 69.7422C31.2266 68.3307 31.5781 67.2214 32.2812 66.4141C32.9844 65.6068 33.9505 65.2031 35.1797 65.2031C36.3203 65.2031 37.2214 65.5495 37.8828 66.2422C38.5443 66.9349 38.875 67.888 38.875 69.1016V70.0938H33.1172C33.1432 70.9323 33.3698 71.5781 33.7969 72.0312C34.224 72.4792 34.8255 72.7031 35.6016 72.7031C36.112 72.7031 36.5859 72.6562 37.0234 72.5625C37.4661 72.4635 37.9401 72.3021 38.4453 72.0781V73.5703C37.9974 73.7839 37.5443 73.9349 37.0859 74.0234C36.6276 74.112 36.1042 74.1562 35.5156 74.1562ZM35.1797 66.5938C34.5964 66.5938 34.1276 66.7786 33.7734 67.1484C33.4245 67.5182 33.2161 68.0573 33.1484 68.7656H37.0703C37.0599 68.0521 36.888 67.513 36.5547 67.1484C36.2214 66.7786 35.763 66.5938 35.1797 66.5938ZM45.3438 65.2031C45.7135 65.2031 46.0182 65.2292 46.2578 65.2812L46.0781 66.9922C45.8177 66.9297 45.5469 66.8984 45.2656 66.8984C44.5312 66.8984 43.9349 67.138 43.4766 67.6172C43.0234 68.0964 42.7969 68.7188 42.7969 69.4844V74H40.9609V65.3594H42.3984L42.6406 66.8828H42.7344C43.0208 66.3672 43.3932 65.9583 43.8516 65.6562C44.3151 65.3542 44.8125 65.2031 45.3438 65.2031ZM49.7031 74H47.8672V65.3594H49.7031V74ZM47.7578 63.0703C47.7578 62.7422 47.8464 62.4896 48.0234 62.3125C48.2057 62.1354 48.4635 62.0469 48.7969 62.0469C49.1198 62.0469 49.3698 62.1354 49.5469 62.3125C49.7292 62.4896 49.8203 62.7422 49.8203 63.0703C49.8203 63.3828 49.7292 63.6302 49.5469 63.8125C49.3698 63.9896 49.1198 64.0781 48.7969 64.0781C48.4635 64.0781 48.2057 63.9896 48.0234 63.8125C47.8464 63.6302 47.7578 63.3828 47.7578 63.0703ZM59.9375 74H58.0938V68.6875C58.0938 68.0208 57.9583 67.5234 57.6875 67.1953C57.4219 66.8672 56.9974 66.7031 56.4141 66.7031C55.638 66.7031 55.0703 66.9323 54.7109 67.3906C54.3516 67.849 54.1719 68.6172 54.1719 69.6953V74H52.3359V65.3594H53.7734L54.0312 66.4922H54.125C54.3854 66.0807 54.7552 65.763 55.2344 65.5391C55.7135 65.3151 56.2448 65.2031 56.8281 65.2031C58.901 65.2031 59.9375 66.2578 59.9375 68.3672V74ZM69.7891 65.3594V66.3672L68.3125 66.6406C68.4479 66.8229 68.5599 67.0469 68.6484 67.3125C68.737 67.5781 68.7812 67.8594 68.7812 68.1562C68.7812 69.0469 68.474 69.7474 67.8594 70.2578C67.2448 70.7682 66.3984 71.0234 65.3203 71.0234C65.0443 71.0234 64.7943 71.0026 64.5703 70.9609C64.1745 71.2057 63.9766 71.4922 63.9766 71.8203C63.9766 72.0182 64.0677 72.1667 64.25 72.2656C64.4375 72.3646 64.7786 72.4141 65.2734 72.4141H66.7812C67.7344 72.4141 68.4583 72.6172 68.9531 73.0234C69.4479 73.4297 69.6953 74.0156 69.6953 74.7812C69.6953 75.7604 69.2917 76.5156 68.4844 77.0469C67.6771 77.5781 66.5104 77.8438 64.9844 77.8438C63.8073 77.8438 62.9089 77.6354 62.2891 77.2188C61.6693 76.8021 61.3594 76.2083 61.3594 75.4375C61.3594 74.9062 61.526 74.4583 61.8594 74.0938C62.1979 73.7344 62.6693 73.4844 63.2734 73.3438C63.0286 73.2396 62.8255 73.0729 62.6641 72.8438C62.5078 72.6094 62.4297 72.3646 62.4297 72.1094C62.4297 71.7865 62.5208 71.513 62.7031 71.2891C62.8854 71.0651 63.1562 70.8438 63.5156 70.625C63.0677 70.4323 62.7031 70.1198 62.4219 69.6875C62.1458 69.25 62.0078 68.7396 62.0078 68.1562C62.0078 67.2188 62.3021 66.4922 62.8906 65.9766C63.4844 65.4609 64.3281 65.2031 65.4219 65.2031C65.6667 65.2031 65.9219 65.2214 66.1875 65.2578C66.4583 65.2891 66.6615 65.3229 66.7969 65.3594H69.7891ZM63 75.3438C63 75.7396 63.1771 76.0443 63.5312 76.2578C63.8906 76.4714 64.3932 76.5781 65.0391 76.5781C66.0391 76.5781 66.7839 76.4349 67.2734 76.1484C67.763 75.862 68.0078 75.4818 68.0078 75.0078C68.0078 74.6328 67.8724 74.3646 67.6016 74.2031C67.3359 74.0469 66.8385 73.9688 66.1094 73.9688H64.7188C64.1927 73.9688 63.7734 74.0911 63.4609 74.3359C63.1536 74.5859 63 74.9219 63 75.3438ZM63.7891 68.1562C63.7891 68.6979 63.9271 69.1146 64.2031 69.4062C64.4844 69.6979 64.8854 69.8438 65.4062 69.8438C66.4688 69.8438 67 69.276 67 68.1406C67 67.5781 66.8672 67.1458 66.6016 66.8438C66.3411 66.5365 65.9427 66.3828 65.4062 66.3828C64.875 66.3828 64.4714 66.5339 64.1953 66.8359C63.9245 67.138 63.7891 67.5781 63.7891 68.1562ZM80.9609 74L80.5938 72.7969H80.5312C80.1146 73.3229 79.6953 73.6823 79.2734 73.875C78.8516 74.0625 78.3099 74.1562 77.6484 74.1562C76.7995 74.1562 76.1354 73.9271 75.6562 73.4688C75.1823 73.0104 74.9453 72.362 74.9453 71.5234C74.9453 70.6328 75.276 69.9609 75.9375 69.5078C76.599 69.0547 77.6068 68.8073 78.9609 68.7656L80.4531 68.7188V68.2578C80.4531 67.7057 80.3229 67.2943 80.0625 67.0234C79.8073 66.7474 79.4089 66.6094 78.8672 66.6094C78.4245 66.6094 78 66.6745 77.5938 66.8047C77.1875 66.9349 76.7969 67.0885 76.4219 67.2656L75.8281 65.9531C76.2969 65.7083 76.8099 65.5234 77.3672 65.3984C77.9245 65.2682 78.4505 65.2031 78.9453 65.2031C80.0443 65.2031 80.8724 65.4427 81.4297 65.9219C81.9922 66.401 82.2734 67.1536 82.2734 68.1797V74H80.9609ZM78.2266 72.75C78.8932 72.75 79.4271 72.5651 79.8281 72.1953C80.2344 71.8203 80.4375 71.2969 80.4375 70.625V69.875L79.3281 69.9219C78.4635 69.9531 77.8333 70.099 77.4375 70.3594C77.0469 70.6146 76.8516 71.0078 76.8516 71.5391C76.8516 71.9245 76.9661 72.224 77.1953 72.4375C77.4245 72.6458 77.7682 72.75 78.2266 72.75ZM92.4375 74H90.5938V68.6875C90.5938 68.0208 90.4583 67.5234 90.1875 67.1953C89.9219 66.8672 89.4974 66.7031 88.9141 66.7031C88.138 66.7031 87.5703 66.9323 87.2109 67.3906C86.8516 67.849 86.6719 68.6172 86.6719 69.6953V74H84.8359V65.3594H86.2734L86.5312 66.4922H86.625C86.8854 66.0807 87.2552 65.763 87.7344 65.5391C88.2135 65.3151 88.7448 65.2031 89.3281 65.2031C91.401 65.2031 92.4375 66.2578 92.4375 68.3672V74ZM100.984 74H99.1484V65.3594H100.984V74ZM99.0391 63.0703C99.0391 62.7422 99.1276 62.4896 99.3047 62.3125C99.487 62.1354 99.7448 62.0469 100.078 62.0469C100.401 62.0469 100.651 62.1354 100.828 62.3125C101.01 62.4896 101.102 62.7422 101.102 63.0703C101.102 63.3828 101.01 63.6302 100.828 63.8125C100.651 63.9896 100.401 64.0781 100.078 64.0781C99.7448 64.0781 99.487 63.9896 99.3047 63.8125C99.1276 63.6302 99.0391 63.3828 99.0391 63.0703ZM111.219 74H109.375V68.6875C109.375 68.0208 109.24 67.5234 108.969 67.1953C108.703 66.8672 108.279 66.7031 107.695 66.7031C106.919 66.7031 106.352 66.9323 105.992 67.3906C105.633 67.849 105.453 68.6172 105.453 69.6953V74H103.617V65.3594H105.055L105.312 66.4922H105.406C105.667 66.0807 106.036 65.763 106.516 65.5391C106.995 65.3151 107.526 65.2031 108.109 65.2031C110.182 65.2031 111.219 66.2578 111.219 68.3672V74ZM121.375 74H119.531V68.6875C119.531 68.0208 119.396 67.5234 119.125 67.1953C118.859 66.8672 118.435 66.7031 117.852 66.7031C117.076 66.7031 116.508 66.9323 116.148 67.3906C115.789 67.849 115.609 68.6172 115.609 69.6953V74H113.773V65.3594H115.211L115.469 66.4922H115.562C115.823 66.0807 116.193 65.763 116.672 65.5391C117.151 65.3151 117.682 65.2031 118.266 65.2031C120.339 65.2031 121.375 66.2578 121.375 68.3672V74ZM131.594 69.6641C131.594 71.0755 131.232 72.1771 130.508 72.9688C129.784 73.7604 128.776 74.1562 127.484 74.1562C126.677 74.1562 125.964 73.974 125.344 73.6094C124.724 73.2448 124.247 72.7214 123.914 72.0391C123.581 71.3568 123.414 70.5651 123.414 69.6641C123.414 68.263 123.773 67.1693 124.492 66.3828C125.211 65.5964 126.224 65.2031 127.531 65.2031C128.781 65.2031 129.771 65.6068 130.5 66.4141C131.229 67.2161 131.594 68.2995 131.594 69.6641ZM125.305 69.6641C125.305 71.6589 126.042 72.6562 127.516 72.6562C128.974 72.6562 129.703 71.6589 129.703 69.6641C129.703 67.6901 128.969 66.7031 127.5 66.7031C126.729 66.7031 126.169 66.9583 125.82 67.4688C125.477 67.9792 125.305 68.7109 125.305 69.6641ZM135.68 74L132.398 65.3594H134.336L136.094 70.3828C136.396 71.2266 136.578 71.9089 136.641 72.4297H136.703C136.75 72.0547 136.932 71.3724 137.25 70.3828L139.008 65.3594H140.961L137.664 74H135.68ZM147.68 74L147.312 72.7969H147.25C146.833 73.3229 146.414 73.6823 145.992 73.875C145.57 74.0625 145.029 74.1562 144.367 74.1562C143.518 74.1562 142.854 73.9271 142.375 73.4688C141.901 73.0104 141.664 72.362 141.664 71.5234C141.664 70.6328 141.995 69.9609 142.656 69.5078C143.318 69.0547 144.326 68.8073 145.68 68.7656L147.172 68.7188V68.2578C147.172 67.7057 147.042 67.2943 146.781 67.0234C146.526 66.7474 146.128 66.6094 145.586 66.6094C145.143 66.6094 144.719 66.6745 144.312 66.8047C143.906 66.9349 143.516 67.0885 143.141 67.2656L142.547 65.9531C143.016 65.7083 143.529 65.5234 144.086 65.3984C144.643 65.2682 145.169 65.2031 145.664 65.2031C146.763 65.2031 147.591 65.4427 148.148 65.9219C148.711 66.401 148.992 67.1536 148.992 68.1797V74H147.68ZM144.945 72.75C145.612 72.75 146.146 72.5651 146.547 72.1953C146.953 71.8203 147.156 71.2969 147.156 70.625V69.875L146.047 69.9219C145.182 69.9531 144.552 70.099 144.156 70.3594C143.766 70.6146 143.57 71.0078 143.57 71.5391C143.57 71.9245 143.685 72.224 143.914 72.4375C144.143 72.6458 144.487 72.75 144.945 72.75ZM154.773 72.6719C155.221 72.6719 155.669 72.6016 156.117 72.4609V73.8438C155.914 73.9323 155.651 74.0052 155.328 74.0625C155.01 74.125 154.68 74.1562 154.336 74.1562C152.596 74.1562 151.727 73.2396 151.727 71.4062V66.75H150.547V65.9375L151.812 65.2656L152.438 63.4375H153.57V65.3594H156.031V66.75H153.57V71.375C153.57 71.8177 153.68 72.1458 153.898 72.3594C154.122 72.5677 154.414 72.6719 154.773 72.6719ZM159.688 74H157.852V65.3594H159.688V74ZM157.742 63.0703C157.742 62.7422 157.831 62.4896 158.008 62.3125C158.19 62.1354 158.448 62.0469 158.781 62.0469C159.104 62.0469 159.354 62.1354 159.531 62.3125C159.714 62.4896 159.805 62.7422 159.805 63.0703C159.805 63.3828 159.714 63.6302 159.531 63.8125C159.354 63.9896 159.104 64.0781 158.781 64.0781C158.448 64.0781 158.19 63.9896 158.008 63.8125C157.831 63.6302 157.742 63.3828 157.742 63.0703ZM164.289 74L161.008 65.3594H162.945L164.703 70.3828C165.005 71.2266 165.188 71.9089 165.25 72.4297H165.312C165.359 72.0547 165.542 71.3724 165.859 70.3828L167.617 65.3594H169.57L166.273 74H164.289ZM174.656 74.1562C173.312 74.1562 172.26 73.7656 171.5 72.9844C170.745 72.1979 170.367 71.1172 170.367 69.7422C170.367 68.3307 170.719 67.2214 171.422 66.4141C172.125 65.6068 173.091 65.2031 174.32 65.2031C175.461 65.2031 176.362 65.5495 177.023 66.2422C177.685 66.9349 178.016 67.888 178.016 69.1016V70.0938H172.258C172.284 70.9323 172.51 71.5781 172.938 72.0312C173.365 72.4792 173.966 72.7031 174.742 72.7031C175.253 72.7031 175.727 72.6562 176.164 72.5625C176.607 72.4635 177.081 72.3021 177.586 72.0781V73.5703C177.138 73.7839 176.685 73.9349 176.227 74.0234C175.768 74.112 175.245 74.1562 174.656 74.1562ZM174.32 66.5938C173.737 66.5938 173.268 66.7786 172.914 67.1484C172.565 67.5182 172.357 68.0573 172.289 68.7656H176.211C176.201 68.0521 176.029 67.513 175.695 67.1484C175.362 66.7786 174.904 66.5938 174.32 66.5938ZM68.1641 91.5391C68.1641 92.3828 67.8568 93.0312 67.2422 93.4844C66.6276 93.9323 65.7474 94.1562 64.6016 94.1562C63.4505 94.1562 62.526 93.9818 61.8281 93.6328V92.0469C62.8438 92.5156 63.7891 92.75 64.6641 92.75C65.7943 92.75 66.3594 92.4089 66.3594 91.7266C66.3594 91.5078 66.2969 91.3255 66.1719 91.1797C66.0469 91.0339 65.8411 90.8828 65.5547 90.7266C65.2682 90.5703 64.8698 90.3932 64.3594 90.1953C63.3646 89.8099 62.6901 89.4245 62.3359 89.0391C61.987 88.6536 61.8125 88.1536 61.8125 87.5391C61.8125 86.7995 62.1094 86.2266 62.7031 85.8203C63.3021 85.4089 64.1146 85.2031 65.1406 85.2031C66.1562 85.2031 67.1172 85.4089 68.0234 85.8203L67.4297 87.2031C66.4974 86.8177 65.7135 86.625 65.0781 86.625C64.1094 86.625 63.625 86.901 63.625 87.4531C63.625 87.724 63.75 87.9531 64 88.1406C64.2552 88.3281 64.8073 88.5859 65.6562 88.9141C66.3698 89.1901 66.888 89.4427 67.2109 89.6719C67.5339 89.901 67.7734 90.1667 67.9297 90.4688C68.0859 90.7656 68.1641 91.1224 68.1641 91.5391ZM77.8203 89.6641C77.8203 91.0755 77.4583 92.1771 76.7344 92.9688C76.0104 93.7604 75.0026 94.1562 73.7109 94.1562C72.9036 94.1562 72.1901 93.974 71.5703 93.6094C70.9505 93.2448 70.474 92.7214 70.1406 92.0391C69.8073 91.3568 69.6406 90.5651 69.6406 89.6641C69.6406 88.263 70 87.1693 70.7188 86.3828C71.4375 85.5964 72.4505 85.2031 73.7578 85.2031C75.0078 85.2031 75.9974 85.6068 76.7266 86.4141C77.4557 87.2161 77.8203 88.2995 77.8203 89.6641ZM71.5312 89.6641C71.5312 91.6589 72.2682 92.6562 73.7422 92.6562C75.2005 92.6562 75.9297 91.6589 75.9297 89.6641C75.9297 87.6901 75.1953 86.7031 73.7266 86.7031C72.9557 86.7031 72.3958 86.9583 72.0469 87.4688C71.7031 87.9792 71.5312 88.7109 71.5312 89.6641ZM81.7734 94H79.9375V81.8438H81.7734V94ZM90.5 94L90.2422 92.8672H90.1484C89.8932 93.2682 89.5286 93.5833 89.0547 93.8125C88.5859 94.0417 88.0495 94.1562 87.4453 94.1562C86.3984 94.1562 85.6172 93.8958 85.1016 93.375C84.5859 92.8542 84.3281 92.0651 84.3281 91.0078V85.3594H86.1797V90.6875C86.1797 91.349 86.3151 91.8464 86.5859 92.1797C86.8568 92.5078 87.2812 92.6719 87.8594 92.6719C88.6302 92.6719 89.1953 92.4427 89.5547 91.9844C89.9193 91.5208 90.1016 90.7474 90.1016 89.6641V85.3594H91.9453V94H90.5ZM97.7812 92.6719C98.2292 92.6719 98.6771 92.6016 99.125 92.4609V93.8438C98.9219 93.9323 98.6589 94.0052 98.3359 94.0625C98.0182 94.125 97.6875 94.1562 97.3438 94.1562C95.6042 94.1562 94.7344 93.2396 94.7344 91.4062V86.75H93.5547V85.9375L94.8203 85.2656L95.4453 83.4375H96.5781V85.3594H99.0391V86.75H96.5781V91.375C96.5781 91.8177 96.6875 92.1458 96.9062 92.3594C97.1302 92.5677 97.4219 92.6719 97.7812 92.6719ZM102.695 94H100.859V85.3594H102.695V94ZM100.75 83.0703C100.75 82.7422 100.839 82.4896 101.016 82.3125C101.198 82.1354 101.456 82.0469 101.789 82.0469C102.112 82.0469 102.362 82.1354 102.539 82.3125C102.721 82.4896 102.812 82.7422 102.812 83.0703C102.812 83.3828 102.721 83.6302 102.539 83.8125C102.362 83.9896 102.112 84.0781 101.789 84.0781C101.456 84.0781 101.198 83.9896 101.016 83.8125C100.839 83.6302 100.75 83.3828 100.75 83.0703ZM112.992 89.6641C112.992 91.0755 112.63 92.1771 111.906 92.9688C111.182 93.7604 110.174 94.1562 108.883 94.1562C108.076 94.1562 107.362 93.974 106.742 93.6094C106.122 93.2448 105.646 92.7214 105.312 92.0391C104.979 91.3568 104.812 90.5651 104.812 89.6641C104.812 88.263 105.172 87.1693 105.891 86.3828C106.609 85.5964 107.622 85.2031 108.93 85.2031C110.18 85.2031 111.169 85.6068 111.898 86.4141C112.628 87.2161 112.992 88.2995 112.992 89.6641ZM106.703 89.6641C106.703 91.6589 107.44 92.6562 108.914 92.6562C110.372 92.6562 111.102 91.6589 111.102 89.6641C111.102 87.6901 110.367 86.7031 108.898 86.7031C108.128 86.7031 107.568 86.9583 107.219 87.4688C106.875 87.9792 106.703 88.7109 106.703 89.6641ZM122.711 94H120.867V88.6875C120.867 88.0208 120.732 87.5234 120.461 87.1953C120.195 86.8672 119.771 86.7031 119.188 86.7031C118.411 86.7031 117.844 86.9323 117.484 87.3906C117.125 87.849 116.945 88.6172 116.945 89.6953V94H115.109V85.3594H116.547L116.805 86.4922H116.898C117.159 86.0807 117.529 85.763 118.008 85.5391C118.487 85.3151 119.018 85.2031 119.602 85.2031C121.674 85.2031 122.711 86.2578 122.711 88.3672V94Z" fill="black"/>
<path d="M6.60645 135L6.43555 133.824H6.38086C6.00716 134.303 5.62207 134.642 5.22559 134.843C4.83366 135.039 4.36882 135.137 3.83105 135.137C3.10189 135.137 2.53451 134.95 2.12891 134.576C1.72331 134.202 1.52051 133.685 1.52051 133.024C1.52051 132.3 1.82129 131.737 2.42285 131.336C3.02897 130.935 3.90397 130.723 5.04785 130.7L6.46289 130.659V130.167C6.46289 129.461 6.31934 128.927 6.03223 128.567C5.74512 128.207 5.28255 128.027 4.64453 128.027C3.95638 128.027 3.24316 128.219 2.50488 128.602L2.25195 128.014C3.06771 127.631 3.87435 127.439 4.67188 127.439C5.48763 127.439 6.09603 127.651 6.49707 128.075C6.90267 128.499 7.10547 129.16 7.10547 130.058V135H6.60645ZM3.87207 134.521C4.66504 134.521 5.28939 134.296 5.74512 133.845C6.2054 133.389 6.43555 132.758 6.43555 131.951V131.22L5.13672 131.274C4.0931 131.325 3.34798 131.489 2.90137 131.767C2.45931 132.04 2.23828 132.468 2.23828 133.052C2.23828 133.517 2.37956 133.879 2.66211 134.139C2.94922 134.394 3.35254 134.521 3.87207 134.521ZM14.126 133.065C14.126 133.731 13.873 134.243 13.3672 134.604C12.8613 134.959 12.1436 135.137 11.2139 135.137C10.2204 135.137 9.43197 134.984 8.84863 134.679V133.947C9.59603 134.321 10.3844 134.508 11.2139 134.508C11.9476 134.508 12.5036 134.387 12.8818 134.146C13.2646 133.899 13.4561 133.574 13.4561 133.168C13.4561 132.794 13.3034 132.48 12.998 132.225C12.6973 131.969 12.2005 131.719 11.5078 131.473C10.765 131.204 10.2432 130.974 9.94238 130.782C9.6416 130.586 9.41374 130.368 9.25879 130.126C9.1084 129.88 9.0332 129.581 9.0332 129.23C9.0332 128.674 9.26562 128.235 9.73047 127.911C10.1999 127.588 10.8538 127.426 11.6924 127.426C12.4945 127.426 13.2555 127.576 13.9756 127.877L13.7227 128.492C12.9935 128.191 12.3167 128.041 11.6924 128.041C11.0863 128.041 10.6055 128.141 10.25 128.342C9.89453 128.542 9.7168 128.82 9.7168 129.176C9.7168 129.563 9.85352 129.873 10.127 130.105C10.4049 130.338 10.945 130.598 11.7471 130.885C12.417 131.126 12.9046 131.345 13.21 131.541C13.5153 131.732 13.7432 131.951 13.8936 132.197C14.0485 132.443 14.126 132.733 14.126 133.065ZM25.8223 131.274C25.8223 132.487 25.5283 133.435 24.9404 134.118C24.3525 134.797 23.5413 135.137 22.5068 135.137C21.8551 135.137 21.2809 134.979 20.7842 134.665C20.2874 134.351 19.9069 133.899 19.6426 133.312C19.3783 132.724 19.2461 132.045 19.2461 131.274C19.2461 130.062 19.54 129.119 20.1279 128.444C20.7158 127.765 21.5225 127.426 22.5479 127.426C23.5687 127.426 24.3685 127.77 24.9473 128.458C25.5306 129.142 25.8223 130.08 25.8223 131.274ZM19.957 131.274C19.957 132.295 20.1803 133.093 20.627 133.667C21.0781 134.237 21.7139 134.521 22.5342 134.521C23.3545 134.521 23.988 134.237 24.4346 133.667C24.8857 133.093 25.1113 132.295 25.1113 131.274C25.1113 130.249 24.8835 129.454 24.4277 128.889C23.9766 128.324 23.3408 128.041 22.5205 128.041C21.7002 128.041 21.0667 128.324 20.6201 128.889C20.1781 129.449 19.957 130.244 19.957 131.274ZM33.0615 135V130.181C33.0615 129.433 32.9043 128.891 32.5898 128.554C32.2754 128.212 31.7878 128.041 31.127 128.041C30.2383 128.041 29.5866 128.267 29.1719 128.718C28.7617 129.164 28.5566 129.891 28.5566 130.898V135H27.8799V127.569H28.4541L28.584 128.588H28.625C29.1081 127.813 29.9671 127.426 31.2021 127.426C32.8883 127.426 33.7314 128.33 33.7314 130.14V135H33.0615ZM39.1387 135.137C38.0586 135.137 37.2155 134.804 36.6094 134.139C36.0078 133.473 35.707 132.541 35.707 131.343C35.707 130.158 35.9987 129.21 36.582 128.499C37.1654 127.784 37.9515 127.426 38.9404 127.426C39.8154 127.426 40.5059 127.731 41.0117 128.342C41.5176 128.952 41.7705 129.782 41.7705 130.83V131.377H36.418C36.4271 132.398 36.6641 133.177 37.1289 133.715C37.5983 134.253 38.2682 134.521 39.1387 134.521C39.5625 134.521 39.9339 134.492 40.2529 134.433C40.5765 134.373 40.9844 134.246 41.4766 134.05V134.665C41.0573 134.847 40.6699 134.97 40.3145 135.034C39.959 135.103 39.5671 135.137 39.1387 135.137ZM38.9404 128.027C38.2249 128.027 37.6507 128.264 37.2178 128.738C36.7848 129.208 36.5319 129.887 36.459 130.775H41.0527C41.0527 129.914 40.8659 129.242 40.4922 128.759C40.1185 128.271 39.6012 128.027 38.9404 128.027ZM53.6035 131.274C53.6035 132.487 53.3096 133.435 52.7217 134.118C52.1338 134.797 51.3226 135.137 50.2881 135.137C49.6364 135.137 49.0622 134.979 48.5654 134.665C48.0687 134.351 47.6882 133.899 47.4238 133.312C47.1595 132.724 47.0273 132.045 47.0273 131.274C47.0273 130.062 47.3213 129.119 47.9092 128.444C48.4971 127.765 49.3037 127.426 50.3291 127.426C51.3499 127.426 52.1497 127.77 52.7285 128.458C53.3118 129.142 53.6035 130.08 53.6035 131.274ZM47.7383 131.274C47.7383 132.295 47.9616 133.093 48.4082 133.667C48.8594 134.237 49.4951 134.521 50.3154 134.521C51.1357 134.521 51.7692 134.237 52.2158 133.667C52.667 133.093 52.8926 132.295 52.8926 131.274C52.8926 130.249 52.6647 129.454 52.209 128.889C51.7578 128.324 51.1221 128.041 50.3018 128.041C49.4814 128.041 48.848 128.324 48.4014 128.889C47.9593 129.449 47.7383 130.244 47.7383 131.274ZM58.4229 128.157H56.6729V135H55.9961V128.157H54.6152V127.761L55.9961 127.508V126.934C55.9961 126.022 56.1624 125.354 56.4951 124.931C56.8324 124.502 57.3815 124.288 58.1426 124.288C58.5527 124.288 58.9629 124.35 59.373 124.473L59.2158 125.061C58.8512 124.947 58.4889 124.89 58.1289 124.89C57.6003 124.89 57.2243 125.047 57.001 125.361C56.7822 125.671 56.6729 126.177 56.6729 126.879V127.569H58.4229V128.157ZM65.457 134.535C65.8854 134.535 66.2591 134.499 66.5781 134.426V134.973C66.25 135.082 65.8717 135.137 65.4434 135.137C64.7871 135.137 64.3018 134.961 63.9873 134.61C63.6774 134.259 63.5225 133.708 63.5225 132.956V128.157H62.4219V127.761L63.5225 127.453L63.8643 125.771H64.2129V127.569H66.3936V128.157H64.2129V132.86C64.2129 133.43 64.3132 133.852 64.5137 134.125C64.7142 134.398 65.0286 134.535 65.457 134.535ZM73.3662 135V130.181C73.3662 129.433 73.209 128.891 72.8945 128.554C72.5801 128.212 72.0924 128.041 71.4316 128.041C70.543 128.041 69.8913 128.267 69.4766 128.718C69.0664 129.164 68.8613 129.891 68.8613 130.898V135H68.1846V124.363H68.8613V127.747L68.8271 128.697H68.875C69.153 128.251 69.5039 127.927 69.9277 127.727C70.3516 127.526 70.8779 127.426 71.5068 127.426C73.193 127.426 74.0361 128.33 74.0361 130.14V135H73.3662ZM79.4434 135.137C78.3633 135.137 77.5202 134.804 76.9141 134.139C76.3125 133.473 76.0117 132.541 76.0117 131.343C76.0117 130.158 76.3034 129.21 76.8867 128.499C77.4701 127.784 78.2562 127.426 79.2451 127.426C80.1201 127.426 80.8105 127.731 81.3164 128.342C81.8223 128.952 82.0752 129.782 82.0752 130.83V131.377H76.7227C76.7318 132.398 76.9688 133.177 77.4336 133.715C77.903 134.253 78.5729 134.521 79.4434 134.521C79.8672 134.521 80.2386 134.492 80.5576 134.433C80.8812 134.373 81.2891 134.246 81.7812 134.05V134.665C81.362 134.847 80.9746 134.97 80.6191 135.034C80.2637 135.103 79.8717 135.137 79.4434 135.137ZM79.2451 128.027C78.5296 128.027 77.9554 128.264 77.5225 128.738C77.0895 129.208 76.8366 129.887 76.7637 130.775H81.3574C81.3574 129.914 81.1706 129.242 80.7969 128.759C80.4232 128.271 79.9059 128.027 79.2451 128.027ZM90.5244 128.157H88.7744V135H88.0977V128.157H86.7168V127.761L88.0977 127.508V126.934C88.0977 126.022 88.264 125.354 88.5967 124.931C88.9339 124.502 89.4831 124.288 90.2441 124.288C90.6543 124.288 91.0645 124.35 91.4746 124.473L91.3174 125.061C90.9528 124.947 90.5905 124.89 90.2305 124.89C89.7018 124.89 89.3258 125.047 89.1025 125.361C88.8838 125.671 88.7744 126.177 88.7744 126.879V127.569H90.5244V128.157ZM92.6367 135H91.96V127.569H92.6367V135ZM91.8643 125.505C91.8643 125.067 92.0078 124.849 92.2949 124.849C92.4362 124.849 92.5456 124.906 92.623 125.02C92.7051 125.133 92.7461 125.295 92.7461 125.505C92.7461 125.71 92.7051 125.872 92.623 125.99C92.5456 126.109 92.4362 126.168 92.2949 126.168C92.0078 126.168 91.8643 125.947 91.8643 125.505ZM98.0576 127.426C98.3721 127.426 98.7093 127.458 99.0693 127.521L98.9395 128.171C98.6296 128.093 98.3083 128.055 97.9756 128.055C97.3421 128.055 96.8226 128.324 96.417 128.861C96.0114 129.399 95.8086 130.078 95.8086 130.898V135H95.1318V127.569H95.7061L95.7744 128.909H95.8223C96.1276 128.362 96.4535 127.979 96.7998 127.761C97.1462 127.537 97.5654 127.426 98.0576 127.426ZM105.194 133.065C105.194 133.731 104.941 134.243 104.436 134.604C103.93 134.959 103.212 135.137 102.282 135.137C101.289 135.137 100.5 134.984 99.917 134.679V133.947C100.664 134.321 101.453 134.508 102.282 134.508C103.016 134.508 103.572 134.387 103.95 134.146C104.333 133.899 104.524 133.574 104.524 133.168C104.524 132.794 104.372 132.48 104.066 132.225C103.766 131.969 103.269 131.719 102.576 131.473C101.833 131.204 101.312 130.974 101.011 130.782C100.71 130.586 100.482 130.368 100.327 130.126C100.177 129.88 100.102 129.581 100.102 129.23C100.102 128.674 100.334 128.235 100.799 127.911C101.268 127.588 101.922 127.426 102.761 127.426C103.563 127.426 104.324 127.576 105.044 127.877L104.791 128.492C104.062 128.191 103.385 128.041 102.761 128.041C102.155 128.041 101.674 128.141 101.318 128.342C100.963 128.542 100.785 128.82 100.785 129.176C100.785 129.563 100.922 129.873 101.195 130.105C101.473 130.338 102.013 130.598 102.815 130.885C103.485 131.126 103.973 131.345 104.278 131.541C104.584 131.732 104.812 131.951 104.962 132.197C105.117 132.443 105.194 132.733 105.194 133.065ZM109.07 134.535C109.499 134.535 109.872 134.499 110.191 134.426V134.973C109.863 135.082 109.485 135.137 109.057 135.137C108.4 135.137 107.915 134.961 107.601 134.61C107.291 134.259 107.136 133.708 107.136 132.956V128.157H106.035V127.761L107.136 127.453L107.478 125.771H107.826V127.569H110.007V128.157H107.826V132.86C107.826 133.43 107.926 133.852 108.127 134.125C108.327 134.398 108.642 134.535 109.07 134.535ZM119.946 135L119.775 133.824H119.721C119.347 134.303 118.962 134.642 118.565 134.843C118.174 135.039 117.709 135.137 117.171 135.137C116.442 135.137 115.874 134.95 115.469 134.576C115.063 134.202 114.86 133.685 114.86 133.024C114.86 132.3 115.161 131.737 115.763 131.336C116.369 130.935 117.244 130.723 118.388 130.7L119.803 130.659V130.167C119.803 129.461 119.659 128.927 119.372 128.567C119.085 128.207 118.622 128.027 117.984 128.027C117.296 128.027 116.583 128.219 115.845 128.602L115.592 128.014C116.408 127.631 117.214 127.439 118.012 127.439C118.827 127.439 119.436 127.651 119.837 128.075C120.243 128.499 120.445 129.16 120.445 130.058V135H119.946ZM117.212 134.521C118.005 134.521 118.629 134.296 119.085 133.845C119.545 133.389 119.775 132.758 119.775 131.951V131.22L118.477 131.274C117.433 131.325 116.688 131.489 116.241 131.767C115.799 132.04 115.578 132.468 115.578 133.052C115.578 133.517 115.719 133.879 116.002 134.139C116.289 134.394 116.692 134.521 117.212 134.521ZM126.037 135.137C124.893 135.137 124.059 134.708 123.535 133.852H123.487L123.508 134.426C123.526 134.763 123.535 135.132 123.535 135.533V138.363H122.858V127.569H123.433L123.562 128.629H123.604C124.114 127.827 124.93 127.426 126.051 127.426C127.053 127.426 127.817 127.756 128.341 128.417C128.869 129.073 129.134 130.03 129.134 131.288C129.134 132.509 128.856 133.457 128.3 134.132C127.748 134.802 126.994 135.137 126.037 135.137ZM126.023 134.535C126.785 134.535 127.372 134.253 127.787 133.688C128.206 133.122 128.416 132.332 128.416 131.315C128.416 129.132 127.628 128.041 126.051 128.041C125.185 128.041 124.549 128.28 124.144 128.759C123.738 129.233 123.535 130.007 123.535 131.083V131.302C123.535 132.464 123.729 133.293 124.116 133.79C124.508 134.287 125.144 134.535 126.023 134.535ZM134.377 135.137C133.233 135.137 132.399 134.708 131.875 133.852H131.827L131.848 134.426C131.866 134.763 131.875 135.132 131.875 135.533V138.363H131.198V127.569H131.772L131.902 128.629H131.943C132.454 127.827 133.27 127.426 134.391 127.426C135.393 127.426 136.157 127.756 136.681 128.417C137.209 129.073 137.474 130.03 137.474 131.288C137.474 132.509 137.196 133.457 136.64 134.132C136.088 134.802 135.334 135.137 134.377 135.137ZM134.363 134.535C135.124 134.535 135.712 134.253 136.127 133.688C136.546 133.122 136.756 132.332 136.756 131.315C136.756 129.132 135.967 128.041 134.391 128.041C133.525 128.041 132.889 128.28 132.483 128.759C132.078 129.233 131.875 130.007 131.875 131.083V131.302C131.875 132.464 132.069 133.293 132.456 133.79C132.848 134.287 133.484 134.535 134.363 134.535ZM144.146 133.065C144.146 133.731 143.893 134.243 143.387 134.604C142.881 134.959 142.163 135.137 141.233 135.137C140.24 135.137 139.451 134.984 138.868 134.679V133.947C139.616 134.321 140.404 134.508 141.233 134.508C141.967 134.508 142.523 134.387 142.901 134.146C143.284 133.899 143.476 133.574 143.476 133.168C143.476 132.794 143.323 132.48 143.018 132.225C142.717 131.969 142.22 131.719 141.527 131.473C140.785 131.204 140.263 130.974 139.962 130.782C139.661 130.586 139.433 130.368 139.278 130.126C139.128 129.88 139.053 129.581 139.053 129.23C139.053 128.674 139.285 128.235 139.75 127.911C140.219 127.588 140.873 127.426 141.712 127.426C142.514 127.426 143.275 127.576 143.995 127.877L143.742 128.492C143.013 128.191 142.336 128.041 141.712 128.041C141.106 128.041 140.625 128.141 140.27 128.342C139.914 128.542 139.736 128.82 139.736 129.176C139.736 129.563 139.873 129.873 140.146 130.105C140.424 130.338 140.965 130.598 141.767 130.885C142.437 131.126 142.924 131.345 143.229 131.541C143.535 131.732 143.763 131.951 143.913 132.197C144.068 132.443 144.146 132.733 144.146 133.065ZM150.373 135H149.696V127.569H150.373V135ZM149.601 125.505C149.601 125.067 149.744 124.849 150.031 124.849C150.173 124.849 150.282 124.906 150.359 125.02C150.441 125.133 150.482 125.295 150.482 125.505C150.482 125.71 150.441 125.872 150.359 125.99C150.282 126.109 150.173 126.168 150.031 126.168C149.744 126.168 149.601 125.947 149.601 125.505ZM158.05 135V130.181C158.05 129.433 157.893 128.891 157.578 128.554C157.264 128.212 156.776 128.041 156.115 128.041C155.227 128.041 154.575 128.267 154.16 128.718C153.75 129.164 153.545 129.891 153.545 130.898V135H152.868V127.569H153.442L153.572 128.588H153.613C154.096 127.813 154.955 127.426 156.19 127.426C157.877 127.426 158.72 128.33 158.72 130.14V135H158.05ZM166.725 134.535C167.153 134.535 167.527 134.499 167.846 134.426V134.973C167.518 135.082 167.139 135.137 166.711 135.137C166.055 135.137 165.569 134.961 165.255 134.61C164.945 134.259 164.79 133.708 164.79 132.956V128.157H163.689V127.761L164.79 127.453L165.132 125.771H165.48V127.569H167.661V128.157H165.48V132.86C165.48 133.43 165.581 133.852 165.781 134.125C165.982 134.398 166.296 134.535 166.725 134.535ZM174.634 135V130.181C174.634 129.433 174.477 128.891 174.162 128.554C173.848 128.212 173.36 128.041 172.699 128.041C171.811 128.041 171.159 128.267 170.744 128.718C170.334 129.164 170.129 129.891 170.129 130.898V135H169.452V124.363H170.129V127.747L170.095 128.697H170.143C170.421 128.251 170.771 127.927 171.195 127.727C171.619 127.526 172.146 127.426 172.774 127.426C174.461 127.426 175.304 128.33 175.304 130.14V135H174.634ZM180.711 135.137C179.631 135.137 178.788 134.804 178.182 134.139C177.58 133.473 177.279 132.541 177.279 131.343C177.279 130.158 177.571 129.21 178.154 128.499C178.738 127.784 179.524 127.426 180.513 127.426C181.388 127.426 182.078 127.731 182.584 128.342C183.09 128.952 183.343 129.782 183.343 130.83V131.377H177.99C177.999 132.398 178.236 133.177 178.701 133.715C179.171 134.253 179.84 134.521 180.711 134.521C181.135 134.521 181.506 134.492 181.825 134.433C182.149 134.373 182.557 134.246 183.049 134.05V134.665C182.63 134.847 182.242 134.97 181.887 135.034C181.531 135.103 181.139 135.137 180.711 135.137ZM180.513 128.027C179.797 128.027 179.223 128.264 178.79 128.738C178.357 129.208 178.104 129.887 178.031 130.775H182.625C182.625 129.914 182.438 129.242 182.064 128.759C181.691 128.271 181.174 128.027 180.513 128.027ZM80.8311 155V150.126C80.8311 149.401 80.6898 148.873 80.4072 148.54C80.1247 148.207 79.6917 148.041 79.1084 148.041C78.3473 148.041 77.7845 148.251 77.4199 148.67C77.0553 149.089 76.873 149.748 76.873 150.646V155H76.1826V149.921C76.1826 148.668 75.6084 148.041 74.46 148.041C73.6807 148.041 73.1133 148.269 72.7578 148.725C72.4023 149.176 72.2246 149.9 72.2246 150.898V155H71.5479V147.569H72.1084L72.252 148.588H72.293C72.498 148.219 72.7897 147.934 73.168 147.733C73.5462 147.528 73.9632 147.426 74.4189 147.426C75.5902 147.426 76.3421 147.866 76.6748 148.745H76.7021C76.9437 148.321 77.2673 147.995 77.6729 147.768C78.083 147.54 78.5479 147.426 79.0674 147.426C79.8786 147.426 80.487 147.642 80.8926 148.075C81.2982 148.508 81.501 149.196 81.501 150.14V155H80.8311ZM88.4189 155L88.248 153.824H88.1934C87.8197 154.303 87.4346 154.642 87.0381 154.843C86.6462 155.039 86.1813 155.137 85.6436 155.137C84.9144 155.137 84.347 154.95 83.9414 154.576C83.5358 154.202 83.333 153.685 83.333 153.024C83.333 152.3 83.6338 151.737 84.2354 151.336C84.8415 150.935 85.7165 150.723 86.8604 150.7L88.2754 150.659V150.167C88.2754 149.461 88.1318 148.927 87.8447 148.567C87.5576 148.207 87.0951 148.027 86.457 148.027C85.7689 148.027 85.0557 148.219 84.3174 148.602L84.0645 148.014C84.8802 147.631 85.6868 147.439 86.4844 147.439C87.3001 147.439 87.9085 147.651 88.3096 148.075C88.7152 148.499 88.918 149.16 88.918 150.058V155H88.4189ZM85.6846 154.521C86.4775 154.521 87.1019 154.296 87.5576 153.845C88.0179 153.389 88.248 152.758 88.248 151.951V151.22L86.9492 151.274C85.9056 151.325 85.1605 151.489 84.7139 151.767C84.2718 152.04 84.0508 152.468 84.0508 153.052C84.0508 153.517 84.1921 153.879 84.4746 154.139C84.7617 154.394 85.165 154.521 85.6846 154.521ZM94.2568 147.426C94.5713 147.426 94.9085 147.458 95.2686 147.521L95.1387 148.171C94.8288 148.093 94.5075 148.055 94.1748 148.055C93.5413 148.055 93.0218 148.324 92.6162 148.861C92.2106 149.399 92.0078 150.078 92.0078 150.898V155H91.3311V147.569H91.9053L91.9736 148.909H92.0215C92.3268 148.362 92.6527 147.979 92.999 147.761C93.3454 147.537 93.7646 147.426 94.2568 147.426ZM97.4492 151.739L101.243 147.569H102.063L99.1377 150.741L102.316 155H101.503L98.6797 151.247L97.4629 152.354V155H96.7861V144.363H97.4629V149.695L97.415 151.739H97.4492ZM106.568 155.137C105.488 155.137 104.645 154.804 104.039 154.139C103.438 153.473 103.137 152.541 103.137 151.343C103.137 150.158 103.428 149.21 104.012 148.499C104.595 147.784 105.381 147.426 106.37 147.426C107.245 147.426 107.936 147.731 108.441 148.342C108.947 148.952 109.2 149.782 109.2 150.83V151.377H103.848C103.857 152.398 104.094 153.177 104.559 153.715C105.028 154.253 105.698 154.521 106.568 154.521C106.992 154.521 107.364 154.492 107.683 154.433C108.006 154.373 108.414 154.246 108.906 154.05V154.665C108.487 154.847 108.1 154.97 107.744 155.034C107.389 155.103 106.997 155.137 106.568 155.137ZM106.37 148.027C105.655 148.027 105.08 148.264 104.647 148.738C104.215 149.208 103.962 149.887 103.889 150.775H108.482C108.482 149.914 108.296 149.242 107.922 148.759C107.548 148.271 107.031 148.027 106.37 148.027ZM113.213 154.535C113.641 154.535 114.015 154.499 114.334 154.426V154.973C114.006 155.082 113.628 155.137 113.199 155.137C112.543 155.137 112.058 154.961 111.743 154.61C111.433 154.259 111.278 153.708 111.278 152.956V148.157H110.178V147.761L111.278 147.453L111.62 145.771H111.969V147.569H114.149V148.157H111.969V152.86C111.969 153.43 112.069 153.852 112.27 154.125C112.47 154.398 112.785 154.535 113.213 154.535Z" fill="black"/>
<rect x="10" y="109" width="165" height="1" fill="#323232"/>
<path d="M78.2893 31.3906C77.2144 32.3905 76.3511 33.5685 75.7232 34.8922L75.3915 35.5915L69.9957 42.4025C69.7539 42.7079 69.8053 43.1514 70.1107 43.3933C70.2402 43.496 70.3948 43.5458 70.5481 43.5458C70.7562 43.5458 70.9622 43.4542 71.1015 43.2784L76.5471 36.4044C76.5803 36.3626 76.6085 36.317 76.6314 36.2688L76.9977 35.4967C77.5487 34.3351 78.3065 33.3011 79.2501 32.4234C79.5352 32.1581 79.5514 31.7119 79.2861 31.4265C79.0208 31.1415 78.5746 31.1251 78.2893 31.3906Z" fill="black"/>
<path d="M115.515 26.6155C114.549 25.4749 112.835 25.3336 111.694 26.3L111.33 26.6091C111.244 26.1681 111.049 25.7425 110.738 25.3762C109.772 24.2359 108.058 24.0945 106.918 25.0608L106.594 25.3349C106.503 24.908 106.309 24.497 106.007 24.141C105.041 23.0007 103.327 22.8593 102.186 23.8256L96.765 28.4199C96.4866 28.3411 96.1935 28.2981 95.8902 28.2981H86.1498C84.3429 28.2981 82.5354 28.7314 80.9226 29.5513C80.5754 29.7278 80.437 30.1524 80.6135 30.4996C80.79 30.8468 81.2146 30.9853 81.5618 30.8087C82.9776 30.0891 84.564 29.7087 86.1498 29.7087H95.8903C96.8861 29.7087 97.6963 30.5189 97.6963 31.5147C97.6963 32.0047 97.5033 32.4634 97.153 32.806C96.8029 33.1485 96.343 33.3284 95.8509 33.3203C95.8457 33.3202 95.8406 33.3201 95.8353 33.3201H89.5487C89.1591 33.3201 88.8434 33.6358 88.8434 34.0254C88.8434 34.415 89.1591 34.7307 89.5487 34.7307H95.828C95.8497 34.7312 95.8714 34.7314 95.8931 34.7314C96.7379 34.7314 97.5331 34.4074 98.1393 33.8145C98.2282 33.7276 98.3108 33.6361 98.3881 33.5412H104.348C104.982 33.5412 105.599 33.3152 106.083 32.9047L112.606 27.3762C113.153 26.9126 113.975 26.9805 114.439 27.5274C114.903 28.0744 114.835 28.8966 114.288 29.3602L103.99 38.0876C103.029 38.9021 101.859 39.4122 100.609 39.5627L99.338 39.7156C98.9513 39.7621 98.6755 40.1133 98.722 40.5002C98.7651 40.8583 99.0695 41.1212 99.4214 41.1212C99.4496 41.1212 99.478 41.1194 99.5066 41.116L100.777 40.9631C102.303 40.7796 103.729 40.1575 104.902 39.1637L115.2 30.4363C116.34 29.4699 116.482 27.7558 115.515 26.6155ZM103.098 24.9017C103.645 24.4381 104.467 24.5061 104.931 25.053C105.358 25.5571 105.342 26.2913 104.896 26.7735L99.1024 31.6838C99.1053 31.6277 99.1069 31.5713 99.1069 31.5147C99.1069 30.5844 98.7096 29.7456 98.0762 29.1578L103.098 24.9017ZM100.757 32.1305L107.83 26.1369C108.377 25.6733 109.199 25.7413 109.662 26.2881C110.126 26.8351 110.058 27.6574 109.511 28.1209L105.171 31.8286C104.941 32.0232 104.649 32.1305 104.348 32.1305H100.757Z" fill="black"/>
<path d="M96.3416 40.0759L89.1091 40.9459C88.9307 40.9675 88.7672 41.0561 88.6521 41.194L83.9337 46.8425C83.684 47.1416 83.7239 47.5863 84.0229 47.836C84.1547 47.9462 84.3151 48 84.4746 48C84.6765 48 84.8768 47.9138 85.0163 47.7469L89.5553 42.313L96.5101 41.4764C96.8968 41.4299 97.1727 41.0787 97.1262 40.6919C97.0796 40.3052 96.7271 40.0297 96.3416 40.0759Z" fill="black"/>
<path d="M90.7409 20.1823C90.7409 20.1823 86.6191 13.7657 86.6132 13.7574C85.9155 12.7678 85.4521 11.6128 85.2732 10.4174C85.2156 10.0321 84.8561 9.76621 84.4713 9.82423C84.086 9.88179 83.8205 10.2409 83.8782 10.6261C84.0886 12.0328 84.6325 13.3918 85.4514 14.5574L89.4422 20.7704V21.799C89.4422 22.0969 89.5473 22.3705 89.7218 22.5855V25.0098C89.7218 26.1444 90.6449 27.0676 91.7796 27.0676H94.2679C95.4025 27.0676 96.3257 26.1445 96.3257 25.0098V22.5855C96.5002 22.3705 96.6053 22.0969 96.6053 21.799V20.7704L100.596 14.5574C101.693 12.9967 102.272 11.1608 102.272 9.24729C102.272 6.1899 100.763 3.33357 98.2358 1.6064C95.6539 -0.157915 92.4196 -0.485839 89.3627 0.706516C87.1482 1.57029 85.3774 3.32934 84.5044 5.53273C84.2651 6.13658 84.0821 6.75603 83.9605 7.37388C83.8851 7.75607 84.134 8.12697 84.516 8.2023C84.8991 8.27791 85.2691 8.02879 85.3445 7.6467C85.4496 7.11282 85.6082 6.57641 85.8159 6.05232C86.545 4.21211 88.0246 2.74261 89.8754 2.02075C92.4917 1.0003 95.2489 1.27396 97.4399 2.77111C99.5822 4.23524 100.861 6.65625 100.861 9.24738C100.861 10.8736 100.368 12.433 99.4341 13.7574C99.4282 13.7657 95.3063 20.1823 95.3063 20.1823C95.2333 20.2961 95.1945 20.4283 95.1945 20.5635V21.6391H95.0222L95.4239 14.8209H96.0963C97.1782 14.8209 98.0582 13.9408 98.0582 12.859V12.781C98.0582 11.6991 97.1782 10.8191 96.0963 10.8191C95.0591 10.8191 94.1988 11.6302 94.1378 12.6657L94.094 13.4103H91.9599L91.9161 12.6657C91.8551 11.6302 90.9948 10.8191 89.9575 10.8191C88.8756 10.8191 87.9956 11.6991 87.9956 12.781V12.859C87.9956 13.9408 88.8756 14.8209 89.9575 14.8209H90.63L91.0316 21.6391H90.8527V20.5635C90.8528 20.4283 90.8139 20.2961 90.7409 20.1823ZM95.5461 12.7486C95.5632 12.4575 95.8049 12.2295 96.0964 12.2295C96.4004 12.2295 96.6477 12.4769 96.6477 12.7808V12.8588C96.6477 13.1627 96.4004 13.41 96.0964 13.41H95.5071L95.5461 12.7486ZM89.9575 13.4101C89.6535 13.4101 89.4062 13.1628 89.4062 12.8589V12.7809C89.4062 12.477 89.6535 12.2296 89.9575 12.2296C90.249 12.2296 90.4908 12.4576 90.5079 12.7486L90.5469 13.4102H89.9575V13.4101ZM94.9149 25.0099C94.9149 25.3668 94.6246 25.6571 94.2677 25.6571H91.7794C91.4226 25.6571 91.1323 25.3668 91.1323 25.0099V23.0496H94.9149V25.0099ZM92.043 14.8208H94.0109L93.6091 21.639H92.4449L92.043 14.8208Z" fill="black"/>
<path d="M105.239 10.0134C105.239 10.403 105.555 10.7187 105.945 10.7187H107.607C107.997 10.7187 108.313 10.403 108.313 10.0134C108.313 9.6238 107.997 9.30811 107.607 9.30811H105.945C105.555 9.30811 105.239 9.6239 105.239 10.0134Z" fill="black"/>
<path d="M104.829 6.28436C104.91 6.28436 104.993 6.27016 105.074 6.24016L106.633 5.66228C106.998 5.52695 107.184 5.12107 107.049 4.75581C106.914 4.39055 106.508 4.20416 106.143 4.33958L104.584 4.91747C104.218 5.05279 104.032 5.45868 104.167 5.82394C104.273 6.10841 104.542 6.28436 104.829 6.28436Z" fill="black"/>
<path d="M104.584 15.109L106.143 15.6868C106.224 15.7167 106.306 15.731 106.388 15.731C106.674 15.731 106.944 15.555 107.049 15.2705C107.184 14.9053 106.998 14.4995 106.633 14.3641L105.074 13.7863C104.709 13.651 104.303 13.8373 104.167 14.2025C104.032 14.5678 104.219 14.9735 104.584 15.109Z" fill="black"/>
<path d="M78.4401 10.7187H80.1028C80.4924 10.7187 80.8081 10.403 80.8081 10.0134C80.8081 9.6238 80.4924 9.30811 80.1028 9.30811H78.4401C78.0505 9.30811 77.7348 9.6238 77.7348 10.0134C77.7348 10.403 78.0505 10.7187 78.4401 10.7187Z" fill="black"/>
<path d="M79.4143 5.66217L80.9732 6.24006C81.054 6.26996 81.1367 6.28426 81.2182 6.28426C81.5047 6.28426 81.7741 6.1083 81.8796 5.82383C82.0149 5.45857 81.8286 5.05278 81.4633 4.91736L79.9044 4.33947C79.5393 4.20433 79.1334 4.39044 78.9979 4.7557C78.8627 5.12096 79.0491 5.52675 79.4143 5.66217Z" fill="black"/>
<path d="M81.8797 14.2026C81.7444 13.8373 81.3386 13.6509 80.9733 13.7864L79.4143 14.3642C79.0491 14.4995 78.8628 14.9054 78.9981 15.2706C79.1035 15.555 79.3729 15.7311 79.6595 15.7311C79.7409 15.7311 79.8237 15.7169 79.9045 15.6869L81.4634 15.1091C81.8288 14.9736 82.0152 14.5678 81.8797 14.2026Z" fill="black"/>
</svg>
