<svg width="185" height="156" viewBox="0 0 185 156" fill="none" xmlns="http://www.w3.org/2000/svg">
<path d="M35.3359 63.0312C35.3359 64.224 34.9453 65.138 34.1641 65.7734C33.3828 66.4089 32.2708 66.7266 30.8281 66.7266H29.6406V71H27.7734V59.5781H31.0625C32.4896 59.5781 33.5573 59.8698 34.2656 60.4531C34.9792 61.0365 35.3359 61.8958 35.3359 63.0312ZM29.6406 65.1562H30.6328C31.5911 65.1562 32.2943 64.9896 32.7422 64.6562C33.1901 64.3229 33.4141 63.8021 33.4141 63.0938C33.4141 62.4375 33.2135 61.9479 32.8125 61.625C32.4115 61.3021 31.7865 61.1406 30.9375 61.1406H29.6406V65.1562ZM41.1953 71.1562C39.8516 71.1562 38.7995 70.7656 38.0391 69.9844C37.2839 69.1979 36.9062 68.1172 36.9062 66.7422C36.9062 65.3307 37.2578 64.2214 37.9609 63.4141C38.6641 62.6068 39.6302 62.2031 40.8594 62.2031C42 62.2031 42.901 62.5495 43.5625 63.2422C44.224 63.9349 44.5547 64.888 44.5547 66.1016V67.0938H38.7969C38.8229 67.9323 39.0495 68.5781 39.4766 69.0312C39.9036 69.4792 40.5052 69.7031 41.2812 69.7031C41.7917 69.7031 42.2656 69.6562 42.7031 69.5625C43.1458 69.4635 43.6198 69.3021 44.125 69.0781V70.5703C43.6771 70.7839 43.224 70.9349 42.7656 71.0234C42.3073 71.112 41.7839 71.1562 41.1953 71.1562ZM40.8594 63.5938C40.276 63.5938 39.8073 63.7786 39.4531 64.1484C39.1042 64.5182 38.8958 65.0573 38.8281 65.7656H42.75C42.7396 65.0521 42.5677 64.513 42.2344 64.1484C41.901 63.7786 41.4427 63.5938 40.8594 63.5938ZM51.0234 62.2031C51.3932 62.2031 51.6979 62.2292 51.9375 62.2812L51.7578 63.9922C51.4974 63.9297 51.2266 63.8984 50.9453 63.8984C50.2109 63.8984 49.6146 64.138 49.1562 64.6172C48.7031 65.0964 48.4766 65.7188 48.4766 66.4844V71H46.6406V62.3594H48.0781L48.3203 63.8828H48.4141C48.7005 63.3672 49.0729 62.9583 49.5312 62.6562C49.9948 62.3542 50.4922 62.2031 51.0234 62.2031ZM59.3516 68.5391C59.3516 69.3828 59.0443 70.0312 58.4297 70.4844C57.8151 70.9323 56.9349 71.1562 55.7891 71.1562C54.638 71.1562 53.7135 70.9818 53.0156 70.6328V69.0469C54.0312 69.5156 54.9766 69.75 55.8516 69.75C56.9818 69.75 57.5469 69.4089 57.5469 68.7266C57.5469 68.5078 57.4844 68.3255 57.3594 68.1797C57.2344 68.0339 57.0286 67.8828 56.7422 67.7266C56.4557 67.5703 56.0573 67.3932 55.5469 67.1953C54.5521 66.8099 53.8776 66.4245 53.5234 66.0391C53.1745 65.6536 53 65.1536 53 64.5391C53 63.7995 53.2969 63.2266 53.8906 62.8203C54.4896 62.4089 55.3021 62.2031 56.3281 62.2031C57.3438 62.2031 58.3047 62.4089 59.2109 62.8203L58.6172 64.2031C57.6849 63.8177 56.901 63.625 56.2656 63.625C55.2969 63.625 54.8125 63.901 54.8125 64.4531C54.8125 64.724 54.9375 64.9531 55.1875 65.1406C55.4427 65.3281 55.9948 65.5859 56.8438 65.9141C57.5573 66.1901 58.0755 66.4427 58.3984 66.6719C58.7214 66.901 58.9609 67.1667 59.1172 67.4688C59.2734 67.7656 59.3516 68.1224 59.3516 68.5391ZM69.0078 66.6641C69.0078 68.0755 68.6458 69.1771 67.9219 69.9688C67.1979 70.7604 66.1901 71.1562 64.8984 71.1562C64.0911 71.1562 63.3776 70.974 62.7578 70.6094C62.138 70.2448 61.6615 69.7214 61.3281 69.0391C60.9948 68.3568 60.8281 67.5651 60.8281 66.6641C60.8281 65.263 61.1875 64.1693 61.9062 63.3828C62.625 62.5964 63.638 62.2031 64.9453 62.2031C66.1953 62.2031 67.1849 62.6068 67.9141 63.4141C68.6432 64.2161 69.0078 65.2995 69.0078 66.6641ZM62.7188 66.6641C62.7188 68.6589 63.4557 69.6562 64.9297 69.6562C66.388 69.6562 67.1172 68.6589 67.1172 66.6641C67.1172 64.6901 66.3828 63.7031 64.9141 63.7031C64.1432 63.7031 63.5833 63.9583 63.2344 64.4688C62.8906 64.9792 62.7188 65.7109 62.7188 66.6641ZM78.7266 71H76.8828V65.6875C76.8828 65.0208 76.7474 64.5234 76.4766 64.1953C76.2109 63.8672 75.7865 63.7031 75.2031 63.7031C74.4271 63.7031 73.8594 63.9323 73.5 64.3906C73.1406 64.849 72.9609 65.6172 72.9609 66.6953V71H71.125V62.3594H72.5625L72.8203 63.4922H72.9141C73.1745 63.0807 73.5443 62.763 74.0234 62.5391C74.5026 62.3151 75.0339 62.2031 75.6172 62.2031C77.6901 62.2031 78.7266 63.2578 78.7266 65.3672V71ZM86.6875 71L86.3203 69.7969H86.2578C85.8411 70.3229 85.4219 70.6823 85 70.875C84.5781 71.0625 84.0365 71.1562 83.375 71.1562C82.526 71.1562 81.862 70.9271 81.3828 70.4688C80.9089 70.0104 80.6719 69.362 80.6719 68.5234C80.6719 67.6328 81.0026 66.9609 81.6641 66.5078C82.3255 66.0547 83.3333 65.8073 84.6875 65.7656L86.1797 65.7188V65.2578C86.1797 64.7057 86.0495 64.2943 85.7891 64.0234C85.5339 63.7474 85.1354 63.6094 84.5938 63.6094C84.151 63.6094 83.7266 63.6745 83.3203 63.8047C82.9141 63.9349 82.5234 64.0885 82.1484 64.2656L81.5547 62.9531C82.0234 62.7083 82.5365 62.5234 83.0938 62.3984C83.651 62.2682 84.1771 62.2031 84.6719 62.2031C85.7708 62.2031 86.599 62.4427 87.1562 62.9219C87.7188 63.401 88 64.1536 88 65.1797V71H86.6875ZM83.9531 69.75C84.6198 69.75 85.1536 69.5651 85.5547 69.1953C85.9609 68.8203 86.1641 68.2969 86.1641 67.625V66.875L85.0547 66.9219C84.1901 66.9531 83.5599 67.099 83.1641 67.3594C82.7734 67.6146 82.5781 68.0078 82.5781 68.5391C82.5781 68.9245 82.6927 69.224 82.9219 69.4375C83.151 69.6458 83.4948 69.75 83.9531 69.75ZM92.3984 71H90.5625V58.8438H92.3984V71ZM96.8672 71H95.0312V62.3594H96.8672V71ZM94.9219 60.0703C94.9219 59.7422 95.0104 59.4896 95.1875 59.3125C95.3698 59.1354 95.6276 59.0469 95.9609 59.0469C96.2839 59.0469 96.5339 59.1354 96.7109 59.3125C96.8932 59.4896 96.9844 59.7422 96.9844 60.0703C96.9844 60.3828 96.8932 60.6302 96.7109 60.8125C96.5339 60.9896 96.2839 61.0781 95.9609 61.0781C95.6276 61.0781 95.3698 60.9896 95.1875 60.8125C95.0104 60.6302 94.9219 60.3828 94.9219 60.0703ZM105.305 68.5391C105.305 69.3828 104.997 70.0312 104.383 70.4844C103.768 70.9323 102.888 71.1562 101.742 71.1562C100.591 71.1562 99.6667 70.9818 98.9688 70.6328V69.0469C99.9844 69.5156 100.93 69.75 101.805 69.75C102.935 69.75 103.5 69.4089 103.5 68.7266C103.5 68.5078 103.438 68.3255 103.312 68.1797C103.188 68.0339 102.982 67.8828 102.695 67.7266C102.409 67.5703 102.01 67.3932 101.5 67.1953C100.505 66.8099 99.8307 66.4245 99.4766 66.0391C99.1276 65.6536 98.9531 65.1536 98.9531 64.5391C98.9531 63.7995 99.25 63.2266 99.8438 62.8203C100.443 62.4089 101.255 62.2031 102.281 62.2031C103.297 62.2031 104.258 62.4089 105.164 62.8203L104.57 64.2031C103.638 63.8177 102.854 63.625 102.219 63.625C101.25 63.625 100.766 63.901 100.766 64.4531C100.766 64.724 100.891 64.9531 101.141 65.1406C101.396 65.3281 101.948 65.5859 102.797 65.9141C103.51 66.1901 104.029 66.4427 104.352 66.6719C104.674 66.901 104.914 67.1667 105.07 67.4688C105.227 67.7656 105.305 68.1224 105.305 68.5391ZM111.07 71.1562C109.727 71.1562 108.674 70.7656 107.914 69.9844C107.159 69.1979 106.781 68.1172 106.781 66.7422C106.781 65.3307 107.133 64.2214 107.836 63.4141C108.539 62.6068 109.505 62.2031 110.734 62.2031C111.875 62.2031 112.776 62.5495 113.438 63.2422C114.099 63.9349 114.43 64.888 114.43 66.1016V67.0938H108.672C108.698 67.9323 108.924 68.5781 109.352 69.0312C109.779 69.4792 110.38 69.7031 111.156 69.7031C111.667 69.7031 112.141 69.6562 112.578 69.5625C113.021 69.4635 113.495 69.3021 114 69.0781V70.5703C113.552 70.7839 113.099 70.9349 112.641 71.0234C112.182 71.112 111.659 71.1562 111.07 71.1562ZM110.734 63.5938C110.151 63.5938 109.682 63.7786 109.328 64.1484C108.979 64.5182 108.771 65.0573 108.703 65.7656H112.625C112.615 65.0521 112.443 64.513 112.109 64.1484C111.776 63.7786 111.318 63.5938 110.734 63.5938ZM119.43 71.1562C118.352 71.1562 117.51 70.7656 116.906 69.9844C116.302 69.2031 116 68.1068 116 66.6953C116 65.2786 116.305 64.1771 116.914 63.3906C117.529 62.599 118.378 62.2031 119.461 62.2031C120.596 62.2031 121.461 62.6224 122.055 63.4609H122.148C122.06 62.8411 122.016 62.3516 122.016 61.9922V58.8438H123.859V71H122.422L122.102 69.8672H122.016C121.427 70.7266 120.565 71.1562 119.43 71.1562ZM119.922 69.6719C120.677 69.6719 121.227 69.4609 121.57 69.0391C121.914 68.612 122.091 67.9219 122.102 66.9688V66.7109C122.102 65.6224 121.924 64.849 121.57 64.3906C121.216 63.9323 120.661 63.7031 119.906 63.7031C119.26 63.7031 118.763 63.9661 118.414 64.4922C118.065 65.013 117.891 65.7578 117.891 66.7266C117.891 67.6849 118.06 68.4167 118.398 68.9219C118.737 69.4219 119.245 69.6719 119.922 69.6719ZM136.047 71L135.68 69.7969H135.617C135.201 70.3229 134.781 70.6823 134.359 70.875C133.938 71.0625 133.396 71.1562 132.734 71.1562C131.885 71.1562 131.221 70.9271 130.742 70.4688C130.268 70.0104 130.031 69.362 130.031 68.5234C130.031 67.6328 130.362 66.9609 131.023 66.5078C131.685 66.0547 132.693 65.8073 134.047 65.7656L135.539 65.7188V65.2578C135.539 64.7057 135.409 64.2943 135.148 64.0234C134.893 63.7474 134.495 63.6094 133.953 63.6094C133.51 63.6094 133.086 63.6745 132.68 63.8047C132.273 63.9349 131.883 64.0885 131.508 64.2656L130.914 62.9531C131.383 62.7083 131.896 62.5234 132.453 62.3984C133.01 62.2682 133.536 62.2031 134.031 62.2031C135.13 62.2031 135.958 62.4427 136.516 62.9219C137.078 63.401 137.359 64.1536 137.359 65.1797V71H136.047ZM133.312 69.75C133.979 69.75 134.513 69.5651 134.914 69.1953C135.32 68.8203 135.523 68.2969 135.523 67.625V66.875L134.414 66.9219C133.549 66.9531 132.919 67.099 132.523 67.3594C132.133 67.6146 131.938 68.0078 131.938 68.5391C131.938 68.9245 132.052 69.224 132.281 69.4375C132.51 69.6458 132.854 69.75 133.312 69.75ZM147.523 71H145.68V65.6875C145.68 65.0208 145.544 64.5234 145.273 64.1953C145.008 63.8672 144.583 63.7031 144 63.7031C143.224 63.7031 142.656 63.9323 142.297 64.3906C141.938 64.849 141.758 65.6172 141.758 66.6953V71H139.922V62.3594H141.359L141.617 63.4922H141.711C141.971 63.0807 142.341 62.763 142.82 62.5391C143.299 62.3151 143.831 62.2031 144.414 62.2031C146.487 62.2031 147.523 63.2578 147.523 65.3672V71ZM152.992 71.1562C151.914 71.1562 151.073 70.7656 150.469 69.9844C149.865 69.2031 149.562 68.1068 149.562 66.6953C149.562 65.2786 149.867 64.1771 150.477 63.3906C151.091 62.599 151.94 62.2031 153.023 62.2031C154.159 62.2031 155.023 62.6224 155.617 63.4609H155.711C155.622 62.8411 155.578 62.3516 155.578 61.9922V58.8438H157.422V71H155.984L155.664 69.8672H155.578C154.99 70.7266 154.128 71.1562 152.992 71.1562ZM153.484 69.6719C154.24 69.6719 154.789 69.4609 155.133 69.0391C155.477 68.612 155.654 67.9219 155.664 66.9688V66.7109C155.664 65.6224 155.487 64.849 155.133 64.3906C154.779 63.9323 154.224 63.7031 153.469 63.7031C152.823 63.7031 152.326 63.9661 151.977 64.4922C151.628 65.013 151.453 65.7578 151.453 66.7266C151.453 67.6849 151.622 68.4167 151.961 68.9219C152.299 69.4219 152.807 69.6719 153.484 69.6719ZM26.2266 91.1562C24.9193 91.1562 23.9245 90.776 23.2422 90.0156C22.5651 89.25 22.2266 88.1536 22.2266 86.7266C22.2266 85.2734 22.5807 84.1562 23.2891 83.375C24.0026 82.5938 25.0312 82.2031 26.375 82.2031C27.2865 82.2031 28.1068 82.3724 28.8359 82.7109L28.2812 84.1875C27.5052 83.8854 26.8646 83.7344 26.3594 83.7344C24.8646 83.7344 24.1172 84.7266 24.1172 86.7109C24.1172 87.6797 24.3021 88.4089 24.6719 88.8984C25.0469 89.3828 25.5938 89.625 26.3125 89.625C27.1302 89.625 27.9036 89.4219 28.6328 89.0156V90.6172C28.3047 90.8099 27.9531 90.9479 27.5781 91.0312C27.2083 91.1146 26.7578 91.1562 26.2266 91.1562ZM36.7578 91L36.5 89.8672H36.4062C36.151 90.2682 35.7865 90.5833 35.3125 90.8125C34.8438 91.0417 34.3073 91.1562 33.7031 91.1562C32.6562 91.1562 31.875 90.8958 31.3594 90.375C30.8438 89.8542 30.5859 89.0651 30.5859 88.0078V82.3594H32.4375V87.6875C32.4375 88.349 32.5729 88.8464 32.8438 89.1797C33.1146 89.5078 33.5391 89.6719 34.1172 89.6719C34.888 89.6719 35.4531 89.4427 35.8125 88.9844C36.1771 88.5208 36.3594 87.7474 36.3594 86.6641V82.3594H38.2031V91H36.7578ZM46.625 88.5391C46.625 89.3828 46.3177 90.0312 45.7031 90.4844C45.0885 90.9323 44.2083 91.1562 43.0625 91.1562C41.9115 91.1562 40.987 90.9818 40.2891 90.6328V89.0469C41.3047 89.5156 42.25 89.75 43.125 89.75C44.2552 89.75 44.8203 89.4089 44.8203 88.7266C44.8203 88.5078 44.7578 88.3255 44.6328 88.1797C44.5078 88.0339 44.3021 87.8828 44.0156 87.7266C43.7292 87.5703 43.3307 87.3932 42.8203 87.1953C41.8255 86.8099 41.151 86.4245 40.7969 86.0391C40.4479 85.6536 40.2734 85.1536 40.2734 84.5391C40.2734 83.7995 40.5703 83.2266 41.1641 82.8203C41.763 82.4089 42.5755 82.2031 43.6016 82.2031C44.6172 82.2031 45.5781 82.4089 46.4844 82.8203L45.8906 84.2031C44.9583 83.8177 44.1745 83.625 43.5391 83.625C42.5703 83.625 42.0859 83.901 42.0859 84.4531C42.0859 84.724 42.2109 84.9531 42.4609 85.1406C42.7161 85.3281 43.2682 85.5859 44.1172 85.9141C44.8307 86.1901 45.349 86.4427 45.6719 86.6719C45.9948 86.901 46.2344 87.1667 46.3906 87.4688C46.5469 87.7656 46.625 88.1224 46.625 88.5391ZM51.8359 89.6719C52.2839 89.6719 52.7318 89.6016 53.1797 89.4609V90.8438C52.9766 90.9323 52.7135 91.0052 52.3906 91.0625C52.0729 91.125 51.7422 91.1562 51.3984 91.1562C49.6589 91.1562 48.7891 90.2396 48.7891 88.4062V83.75H47.6094V82.9375L48.875 82.2656L49.5 80.4375H50.6328V82.3594H53.0938V83.75H50.6328V88.375C50.6328 88.8177 50.7422 89.1458 50.9609 89.3594C51.1849 89.5677 51.4766 89.6719 51.8359 89.6719ZM62.5781 86.6641C62.5781 88.0755 62.2161 89.1771 61.4922 89.9688C60.7682 90.7604 59.7604 91.1562 58.4688 91.1562C57.6615 91.1562 56.9479 90.974 56.3281 90.6094C55.7083 90.2448 55.2318 89.7214 54.8984 89.0391C54.5651 88.3568 54.3984 87.5651 54.3984 86.6641C54.3984 85.263 54.7578 84.1693 55.4766 83.3828C56.1953 82.5964 57.2083 82.2031 58.5156 82.2031C59.7656 82.2031 60.7552 82.6068 61.4844 83.4141C62.2135 84.2161 62.5781 85.2995 62.5781 86.6641ZM56.2891 86.6641C56.2891 88.6589 57.026 89.6562 58.5 89.6562C59.9583 89.6562 60.6875 88.6589 60.6875 86.6641C60.6875 84.6901 59.9531 83.7031 58.4844 83.7031C57.7135 83.7031 57.1536 83.9583 56.8047 84.4688C56.4609 84.9792 56.2891 85.7109 56.2891 86.6641ZM71.9766 91H70.1328V85.6719C70.1328 85.0104 70.0078 84.5182 69.7578 84.1953C69.5078 83.8672 69.1172 83.7031 68.5859 83.7031C67.8776 83.7031 67.3568 83.9349 67.0234 84.3984C66.6953 84.8568 66.5312 85.6224 66.5312 86.6953V91H64.6953V82.3594H66.1328L66.3906 83.4922H66.4844C66.724 83.0807 67.0703 82.763 67.5234 82.5391C67.9818 82.3151 68.4844 82.2031 69.0312 82.2031C70.3594 82.2031 71.2396 82.6562 71.6719 83.5625H71.7969C72.0521 83.1354 72.4115 82.8021 72.875 82.5625C73.3385 82.3229 73.8698 82.2031 74.4688 82.2031C75.5 82.2031 76.25 82.4635 76.7188 82.9844C77.1927 83.5052 77.4297 84.2995 77.4297 85.3672V91H75.5938V85.6719C75.5938 85.0104 75.4661 84.5182 75.2109 84.1953C74.9609 83.8672 74.5703 83.7031 74.0391 83.7031C73.3255 83.7031 72.8021 83.9271 72.4688 84.375C72.1406 84.8177 71.9766 85.5 71.9766 86.4219V91ZM81.8281 91H79.9922V82.3594H81.8281V91ZM79.8828 80.0703C79.8828 79.7422 79.9714 79.4896 80.1484 79.3125C80.3307 79.1354 80.5885 79.0469 80.9219 79.0469C81.2448 79.0469 81.4948 79.1354 81.6719 79.3125C81.8542 79.4896 81.9453 79.7422 81.9453 80.0703C81.9453 80.3828 81.8542 80.6302 81.6719 80.8125C81.4948 80.9896 81.2448 81.0781 80.9219 81.0781C80.5885 81.0781 80.3307 80.9896 80.1484 80.8125C79.9714 80.6302 79.8828 80.3828 79.8828 80.0703ZM90.2344 91H83.6797V89.8672L88.0469 83.7656H83.9453V82.3594H90.1094V83.6406L85.8359 89.5938H90.2344V91ZM95.8906 91.1562C94.5469 91.1562 93.4948 90.7656 92.7344 89.9844C91.9792 89.1979 91.6016 88.1172 91.6016 86.7422C91.6016 85.3307 91.9531 84.2214 92.6562 83.4141C93.3594 82.6068 94.3255 82.2031 95.5547 82.2031C96.6953 82.2031 97.5964 82.5495 98.2578 83.2422C98.9193 83.9349 99.25 84.888 99.25 86.1016V87.0938H93.4922C93.5182 87.9323 93.7448 88.5781 94.1719 89.0312C94.599 89.4792 95.2005 89.7031 95.9766 89.7031C96.487 89.7031 96.9609 89.6562 97.3984 89.5625C97.8411 89.4635 98.3151 89.3021 98.8203 89.0781V90.5703C98.3724 90.7839 97.9193 90.9349 97.4609 91.0234C97.0026 91.112 96.4792 91.1562 95.8906 91.1562ZM95.5547 83.5938C94.9714 83.5938 94.5026 83.7786 94.1484 84.1484C93.7995 84.5182 93.5911 85.0573 93.5234 85.7656H97.4453C97.4349 85.0521 97.263 84.513 96.9297 84.1484C96.5964 83.7786 96.138 83.5938 95.5547 83.5938ZM104.25 91.1562C103.172 91.1562 102.331 90.7656 101.727 89.9844C101.122 89.2031 100.82 88.1068 100.82 86.6953C100.82 85.2786 101.125 84.1771 101.734 83.3906C102.349 82.599 103.198 82.2031 104.281 82.2031C105.417 82.2031 106.281 82.6224 106.875 83.4609H106.969C106.88 82.8411 106.836 82.3516 106.836 81.9922V78.8438H108.68V91H107.242L106.922 89.8672H106.836C106.247 90.7266 105.385 91.1562 104.25 91.1562ZM104.742 89.6719C105.497 89.6719 106.047 89.4609 106.391 89.0391C106.734 88.612 106.911 87.9219 106.922 86.9688V86.7109C106.922 85.6224 106.745 84.849 106.391 84.3906C106.036 83.9323 105.482 83.7031 104.727 83.7031C104.081 83.7031 103.583 83.9661 103.234 84.4922C102.885 85.013 102.711 85.7578 102.711 86.7266C102.711 87.6849 102.88 88.4167 103.219 88.9219C103.557 89.4219 104.065 89.6719 104.742 89.6719ZM120.867 91L120.5 89.7969H120.438C120.021 90.3229 119.602 90.6823 119.18 90.875C118.758 91.0625 118.216 91.1562 117.555 91.1562C116.706 91.1562 116.042 90.9271 115.562 90.4688C115.089 90.0104 114.852 89.362 114.852 88.5234C114.852 87.6328 115.182 86.9609 115.844 86.5078C116.505 86.0547 117.513 85.8073 118.867 85.7656L120.359 85.7188V85.2578C120.359 84.7057 120.229 84.2943 119.969 84.0234C119.714 83.7474 119.315 83.6094 118.773 83.6094C118.331 83.6094 117.906 83.6745 117.5 83.8047C117.094 83.9349 116.703 84.0885 116.328 84.2656L115.734 82.9531C116.203 82.7083 116.716 82.5234 117.273 82.3984C117.831 82.2682 118.357 82.2031 118.852 82.2031C119.951 82.2031 120.779 82.4427 121.336 82.9219C121.898 83.401 122.18 84.1536 122.18 85.1797V91H120.867ZM118.133 89.75C118.799 89.75 119.333 89.5651 119.734 89.1953C120.141 88.8203 120.344 88.2969 120.344 87.625V86.875L119.234 86.9219C118.37 86.9531 117.74 87.099 117.344 87.3594C116.953 87.6146 116.758 88.0078 116.758 88.5391C116.758 88.9245 116.872 89.224 117.102 89.4375C117.331 89.6458 117.674 89.75 118.133 89.75ZM127.656 91.1562C126.578 91.1562 125.737 90.7656 125.133 89.9844C124.529 89.2031 124.227 88.1068 124.227 86.6953C124.227 85.2786 124.531 84.1771 125.141 83.3906C125.755 82.599 126.604 82.2031 127.688 82.2031C128.823 82.2031 129.688 82.6224 130.281 83.4609H130.375C130.286 82.8411 130.242 82.3516 130.242 81.9922V78.8438H132.086V91H130.648L130.328 89.8672H130.242C129.654 90.7266 128.792 91.1562 127.656 91.1562ZM128.148 89.6719C128.904 89.6719 129.453 89.4609 129.797 89.0391C130.141 88.612 130.318 87.9219 130.328 86.9688V86.7109C130.328 85.6224 130.151 84.849 129.797 84.3906C129.443 83.9323 128.888 83.7031 128.133 83.7031C127.487 83.7031 126.99 83.9661 126.641 84.4922C126.292 85.013 126.117 85.7578 126.117 86.7266C126.117 87.6849 126.286 88.4167 126.625 88.9219C126.964 89.4219 127.471 89.6719 128.148 89.6719ZM136.68 91L133.398 82.3594H135.336L137.094 87.3828C137.396 88.2266 137.578 88.9089 137.641 89.4297H137.703C137.75 89.0547 137.932 88.3724 138.25 87.3828L140.008 82.3594H141.961L138.664 91H136.68ZM145.109 91H143.273V82.3594H145.109V91ZM143.164 80.0703C143.164 79.7422 143.253 79.4896 143.43 79.3125C143.612 79.1354 143.87 79.0469 144.203 79.0469C144.526 79.0469 144.776 79.1354 144.953 79.3125C145.135 79.4896 145.227 79.7422 145.227 80.0703C145.227 80.3828 145.135 80.6302 144.953 80.8125C144.776 80.9896 144.526 81.0781 144.203 81.0781C143.87 81.0781 143.612 80.9896 143.43 80.8125C143.253 80.6302 143.164 80.3828 143.164 80.0703ZM151.227 91.1562C149.919 91.1562 148.924 90.776 148.242 90.0156C147.565 89.25 147.227 88.1536 147.227 86.7266C147.227 85.2734 147.581 84.1562 148.289 83.375C149.003 82.5938 150.031 82.2031 151.375 82.2031C152.286 82.2031 153.107 82.3724 153.836 82.7109L153.281 84.1875C152.505 83.8854 151.865 83.7344 151.359 83.7344C149.865 83.7344 149.117 84.7266 149.117 86.7109C149.117 87.6797 149.302 88.4089 149.672 88.8984C150.047 89.3828 150.594 89.625 151.312 89.625C152.13 89.625 152.904 89.4219 153.633 89.0156V90.6172C153.305 90.8099 152.953 90.9479 152.578 91.0312C152.208 91.1146 151.758 91.1562 151.227 91.1562ZM159.438 91.1562C158.094 91.1562 157.042 90.7656 156.281 89.9844C155.526 89.1979 155.148 88.1172 155.148 86.7422C155.148 85.3307 155.5 84.2214 156.203 83.4141C156.906 82.6068 157.872 82.2031 159.102 82.2031C160.242 82.2031 161.143 82.5495 161.805 83.2422C162.466 83.9349 162.797 84.888 162.797 86.1016V87.0938H157.039C157.065 87.9323 157.292 88.5781 157.719 89.0312C158.146 89.4792 158.747 89.7031 159.523 89.7031C160.034 89.7031 160.508 89.6562 160.945 89.5625C161.388 89.4635 161.862 89.3021 162.367 89.0781V90.5703C161.919 90.7839 161.466 90.9349 161.008 91.0234C160.549 91.112 160.026 91.1562 159.438 91.1562ZM159.102 83.5938C158.518 83.5938 158.049 83.7786 157.695 84.1484C157.346 84.5182 157.138 85.0573 157.07 85.7656H160.992C160.982 85.0521 160.81 84.513 160.477 84.1484C160.143 83.7786 159.685 83.5938 159.102 83.5938Z" fill="black"/>
<path d="M17.2021 132V127.126C17.2021 126.401 17.0609 125.873 16.7783 125.54C16.4958 125.207 16.0628 125.041 15.4795 125.041C14.7184 125.041 14.1556 125.251 13.791 125.67C13.4264 126.089 13.2441 126.748 13.2441 127.646V132H12.5537V126.921C12.5537 125.668 11.9795 125.041 10.8311 125.041C10.0518 125.041 9.48438 125.269 9.12891 125.725C8.77344 126.176 8.5957 126.9 8.5957 127.898V132H7.91895V124.569H8.47949L8.62305 125.588H8.66406C8.86914 125.219 9.16081 124.934 9.53906 124.733C9.91732 124.528 10.3343 124.426 10.79 124.426C11.9613 124.426 12.7132 124.866 13.0459 125.745H13.0732C13.3148 125.321 13.6383 124.995 14.0439 124.768C14.4541 124.54 14.9189 124.426 15.4385 124.426C16.2497 124.426 16.8581 124.642 17.2637 125.075C17.6693 125.508 17.8721 126.196 17.8721 127.14V132H17.2021ZM24.79 132L24.6191 130.824H24.5645C24.1908 131.303 23.8057 131.642 23.4092 131.843C23.0173 132.039 22.5524 132.137 22.0146 132.137C21.2855 132.137 20.7181 131.95 20.3125 131.576C19.9069 131.202 19.7041 130.685 19.7041 130.024C19.7041 129.3 20.0049 128.737 20.6064 128.336C21.2126 127.935 22.0876 127.723 23.2314 127.7L24.6465 127.659V127.167C24.6465 126.461 24.5029 125.927 24.2158 125.567C23.9287 125.207 23.4661 125.027 22.8281 125.027C22.14 125.027 21.4268 125.219 20.6885 125.602L20.4355 125.014C21.2513 124.631 22.0579 124.439 22.8555 124.439C23.6712 124.439 24.2796 124.651 24.6807 125.075C25.0863 125.499 25.2891 126.16 25.2891 127.058V132H24.79ZM22.0557 131.521C22.8486 131.521 23.473 131.296 23.9287 130.845C24.389 130.389 24.6191 129.758 24.6191 128.951V128.22L23.3203 128.274C22.2767 128.325 21.5316 128.489 21.085 128.767C20.6429 129.04 20.4219 129.468 20.4219 130.052C20.4219 130.517 20.5632 130.879 20.8457 131.139C21.1328 131.394 21.5361 131.521 22.0557 131.521ZM29.6641 131.535C30.0924 131.535 30.4661 131.499 30.7852 131.426V131.973C30.457 132.082 30.0788 132.137 29.6504 132.137C28.9941 132.137 28.5088 131.961 28.1943 131.61C27.8844 131.259 27.7295 130.708 27.7295 129.956V125.157H26.6289V124.761L27.7295 124.453L28.0713 122.771H28.4199V124.569H30.6006V125.157H28.4199V129.86C28.4199 130.43 28.5202 130.852 28.7207 131.125C28.9212 131.398 29.2357 131.535 29.6641 131.535ZM35.3584 132.137C34.2965 132.137 33.4648 131.802 32.8633 131.132C32.2617 130.462 31.9609 129.528 31.9609 128.329C31.9609 127.099 32.2731 126.142 32.8975 125.458C33.5218 124.77 34.3763 124.426 35.4609 124.426C36.1035 124.426 36.7188 124.537 37.3066 124.761L37.1221 125.362C36.4795 125.148 35.9212 125.041 35.4473 125.041C34.5358 125.041 33.8454 125.324 33.376 125.889C32.9066 126.449 32.6719 127.258 32.6719 128.315C32.6719 129.318 32.9066 130.104 33.376 130.674C33.8454 131.239 34.5016 131.521 35.3447 131.521C36.0192 131.521 36.6458 131.401 37.2246 131.159V131.788C36.7507 132.021 36.1286 132.137 35.3584 132.137ZM44.2314 132V127.181C44.2314 126.433 44.0742 125.891 43.7598 125.554C43.4453 125.212 42.9577 125.041 42.2969 125.041C41.4082 125.041 40.7565 125.267 40.3418 125.718C39.9316 126.164 39.7266 126.891 39.7266 127.898V132H39.0498V121.363H39.7266V124.747L39.6924 125.697H39.7402C40.0182 125.251 40.3691 124.927 40.793 124.727C41.2168 124.526 41.7432 124.426 42.3721 124.426C44.0583 124.426 44.9014 125.33 44.9014 127.14V132H44.2314ZM47.9844 132H47.3076V124.569H47.9844V132ZM47.2119 122.505C47.2119 122.067 47.3555 121.849 47.6426 121.849C47.7839 121.849 47.8932 121.906 47.9707 122.02C48.0527 122.133 48.0938 122.295 48.0938 122.505C48.0938 122.71 48.0527 122.872 47.9707 122.99C47.8932 123.109 47.7839 123.168 47.6426 123.168C47.3555 123.168 47.2119 122.947 47.2119 122.505ZM55.6611 132V127.181C55.6611 126.433 55.5039 125.891 55.1895 125.554C54.875 125.212 54.3874 125.041 53.7266 125.041C52.8379 125.041 52.1862 125.267 51.7715 125.718C51.3613 126.164 51.1562 126.891 51.1562 127.898V132H50.4795V124.569H51.0537L51.1836 125.588H51.2246C51.7077 124.813 52.5667 124.426 53.8018 124.426C55.488 124.426 56.3311 125.33 56.3311 127.14V132H55.6611ZM64.5342 124.569V125.041L62.9961 125.137C63.4062 125.647 63.6113 126.208 63.6113 126.818C63.6113 127.534 63.3721 128.115 62.8936 128.562C62.4196 129.004 61.7816 129.225 60.9795 129.225C60.6423 129.225 60.4053 129.211 60.2686 129.184C59.9997 129.325 59.7946 129.491 59.6533 129.683C59.512 129.874 59.4414 130.077 59.4414 130.291C59.4414 130.528 59.5303 130.701 59.708 130.811C59.8903 130.92 60.1934 130.975 60.6172 130.975H61.916C62.7227 130.975 63.3402 131.139 63.7686 131.467C64.1969 131.79 64.4111 132.271 64.4111 132.909C64.4111 133.693 64.0921 134.297 63.4541 134.721C62.8206 135.149 61.916 135.363 60.7402 135.363C59.806 135.363 59.0814 135.183 58.5664 134.823C58.056 134.463 57.8008 133.962 57.8008 133.319C57.8008 132.809 57.958 132.385 58.2725 132.048C58.5915 131.711 59.0221 131.48 59.5645 131.357C59.3411 131.262 59.1611 131.127 59.0244 130.954C58.8923 130.776 58.8262 130.574 58.8262 130.346C58.8262 129.849 59.1429 129.411 59.7764 129.033C59.3434 128.855 59.0062 128.577 58.7646 128.199C58.5231 127.816 58.4023 127.379 58.4023 126.887C58.4023 126.144 58.637 125.549 59.1064 125.103C59.5804 124.651 60.2184 124.426 61.0205 124.426C61.5081 124.426 61.8864 124.474 62.1553 124.569H64.5342ZM58.5186 133.258C58.5186 134.279 59.2773 134.789 60.7949 134.789C62.7454 134.789 63.7207 134.167 63.7207 132.923C63.7207 132.476 63.568 132.153 63.2627 131.952C62.9574 131.752 62.4629 131.651 61.7793 131.651H60.5625C59.1999 131.651 58.5186 132.187 58.5186 133.258ZM59.0859 126.887C59.0859 127.461 59.2591 127.908 59.6055 128.227C59.9564 128.541 60.4235 128.698 61.0068 128.698C61.6266 128.698 62.1006 128.541 62.4287 128.227C62.7614 127.912 62.9277 127.456 62.9277 126.859C62.9277 126.226 62.7568 125.752 62.415 125.438C62.0778 125.118 61.6038 124.959 60.9932 124.959C60.4007 124.959 59.9336 125.13 59.5918 125.472C59.2546 125.809 59.0859 126.281 59.0859 126.887ZM72.6689 132.137C71.6071 132.137 70.7754 131.802 70.1738 131.132C69.5723 130.462 69.2715 129.528 69.2715 128.329C69.2715 127.099 69.5837 126.142 70.208 125.458C70.8324 124.77 71.6868 124.426 72.7715 124.426C73.4141 124.426 74.0293 124.537 74.6172 124.761L74.4326 125.362C73.79 125.148 73.2318 125.041 72.7578 125.041C71.8464 125.041 71.1559 125.324 70.6865 125.889C70.2171 126.449 69.9824 127.258 69.9824 128.315C69.9824 129.318 70.2171 130.104 70.6865 130.674C71.1559 131.239 71.8122 131.521 72.6553 131.521C73.3298 131.521 73.9564 131.401 74.5352 131.159V131.788C74.0612 132.021 73.4391 132.137 72.6689 132.137ZM79.2861 124.426C79.6006 124.426 79.9378 124.458 80.2979 124.521L80.168 125.171C79.8581 125.093 79.5368 125.055 79.2041 125.055C78.5706 125.055 78.0511 125.324 77.6455 125.861C77.2399 126.399 77.0371 127.078 77.0371 127.898V132H76.3604V124.569H76.9346L77.0029 125.909H77.0508C77.3561 125.362 77.682 124.979 78.0283 124.761C78.3747 124.537 78.7939 124.426 79.2861 124.426ZM84.8164 132.137C83.7363 132.137 82.8932 131.804 82.2871 131.139C81.6855 130.473 81.3848 129.541 81.3848 128.343C81.3848 127.158 81.6764 126.21 82.2598 125.499C82.8431 124.784 83.6292 124.426 84.6182 124.426C85.4932 124.426 86.1836 124.731 86.6895 125.342C87.1953 125.952 87.4482 126.782 87.4482 127.83V128.377H82.0957C82.1048 129.398 82.3418 130.177 82.8066 130.715C83.276 131.253 83.946 131.521 84.8164 131.521C85.2402 131.521 85.6117 131.492 85.9307 131.433C86.2542 131.373 86.6621 131.246 87.1543 131.05V131.665C86.735 131.847 86.3477 131.97 85.9922 132.034C85.6367 132.103 85.2448 132.137 84.8164 132.137ZM84.6182 125.027C83.9027 125.027 83.3285 125.264 82.8955 125.738C82.4626 126.208 82.2096 126.887 82.1367 127.775H86.7305C86.7305 126.914 86.5436 126.242 86.1699 125.759C85.7962 125.271 85.279 125.027 84.6182 125.027ZM94.0107 132L93.8398 130.824H93.7852C93.4115 131.303 93.0264 131.642 92.6299 131.843C92.238 132.039 91.7731 132.137 91.2354 132.137C90.5062 132.137 89.9388 131.95 89.5332 131.576C89.1276 131.202 88.9248 130.685 88.9248 130.024C88.9248 129.3 89.2256 128.737 89.8271 128.336C90.4333 127.935 91.3083 127.723 92.4521 127.7L93.8672 127.659V127.167C93.8672 126.461 93.7236 125.927 93.4365 125.567C93.1494 125.207 92.6868 125.027 92.0488 125.027C91.3607 125.027 90.6475 125.219 89.9092 125.602L89.6562 125.014C90.472 124.631 91.2786 124.439 92.0762 124.439C92.8919 124.439 93.5003 124.651 93.9014 125.075C94.307 125.499 94.5098 126.16 94.5098 127.058V132H94.0107ZM91.2764 131.521C92.0693 131.521 92.6937 131.296 93.1494 130.845C93.6097 130.389 93.8398 129.758 93.8398 128.951V128.22L92.541 128.274C91.4974 128.325 90.7523 128.489 90.3057 128.767C89.8636 129.04 89.6426 129.468 89.6426 130.052C89.6426 130.517 89.7839 130.879 90.0664 131.139C90.3535 131.394 90.7568 131.521 91.2764 131.521ZM98.8848 131.535C99.3132 131.535 99.6868 131.499 100.006 131.426V131.973C99.6777 132.082 99.2995 132.137 98.8711 132.137C98.2148 132.137 97.7295 131.961 97.415 131.61C97.1051 131.259 96.9502 130.708 96.9502 129.956V125.157H95.8496V124.761L96.9502 124.453L97.292 122.771H97.6406V124.569H99.8213V125.157H97.6406V129.86C97.6406 130.43 97.7409 130.852 97.9414 131.125C98.1419 131.398 98.4564 131.535 98.8848 131.535ZM102.289 132H101.612V124.569H102.289V132ZM101.517 122.505C101.517 122.067 101.66 121.849 101.947 121.849C102.089 121.849 102.198 121.906 102.275 122.02C102.357 122.133 102.398 122.295 102.398 122.505C102.398 122.71 102.357 122.872 102.275 122.99C102.198 123.109 102.089 123.168 101.947 123.168C101.66 123.168 101.517 122.947 101.517 122.505ZM106.411 132L103.54 124.569H104.237L106.158 129.621C106.413 130.268 106.605 130.833 106.732 131.316H106.773C106.96 130.697 107.152 130.127 107.348 129.607L109.269 124.569H109.966L107.095 132H106.411ZM114.211 132.137C113.131 132.137 112.288 131.804 111.682 131.139C111.08 130.473 110.779 129.541 110.779 128.343C110.779 127.158 111.071 126.21 111.654 125.499C112.238 124.784 113.024 124.426 114.013 124.426C114.888 124.426 115.578 124.731 116.084 125.342C116.59 125.952 116.843 126.782 116.843 127.83V128.377H111.49C111.499 129.398 111.736 130.177 112.201 130.715C112.671 131.253 113.34 131.521 114.211 131.521C114.635 131.521 115.006 131.492 115.325 131.433C115.649 131.373 116.057 131.246 116.549 131.05V131.665C116.13 131.847 115.742 131.97 115.387 132.034C115.031 132.103 114.639 132.137 114.211 132.137ZM114.013 125.027C113.297 125.027 112.723 125.264 112.29 125.738C111.857 126.208 111.604 126.887 111.531 127.775H116.125C116.125 126.914 115.938 126.242 115.564 125.759C115.191 125.271 114.674 125.027 114.013 125.027ZM123.501 130.065C123.501 130.731 123.248 131.243 122.742 131.604C122.236 131.959 121.519 132.137 120.589 132.137C119.595 132.137 118.807 131.984 118.224 131.679V130.947C118.971 131.321 119.759 131.508 120.589 131.508C121.323 131.508 121.879 131.387 122.257 131.146C122.64 130.899 122.831 130.574 122.831 130.168C122.831 129.794 122.678 129.48 122.373 129.225C122.072 128.969 121.576 128.719 120.883 128.473C120.14 128.204 119.618 127.974 119.317 127.782C119.017 127.586 118.789 127.368 118.634 127.126C118.483 126.88 118.408 126.581 118.408 126.23C118.408 125.674 118.641 125.235 119.105 124.911C119.575 124.588 120.229 124.426 121.067 124.426C121.869 124.426 122.631 124.576 123.351 124.877L123.098 125.492C122.368 125.191 121.692 125.041 121.067 125.041C120.461 125.041 119.98 125.141 119.625 125.342C119.27 125.542 119.092 125.82 119.092 126.176C119.092 126.563 119.229 126.873 119.502 127.105C119.78 127.338 120.32 127.598 121.122 127.885C121.792 128.126 122.28 128.345 122.585 128.541C122.89 128.732 123.118 128.951 123.269 129.197C123.424 129.443 123.501 129.733 123.501 130.065ZM134.992 132L133.365 127.03C133.26 126.693 133.126 126.199 132.962 125.547H132.921L132.777 126.053L132.47 127.044L130.815 132H130.146L128.02 124.569H128.744L129.934 128.876C130.212 129.942 130.394 130.726 130.48 131.228H130.521C130.79 130.161 130.986 129.452 131.109 129.102L132.641 124.569H133.256L134.712 129.088C135.04 130.159 135.241 130.868 135.313 131.214H135.354C135.391 130.918 135.573 130.125 135.901 128.835L137.036 124.569H137.72L135.703 132H134.992ZM139.859 132H139.183V124.569H139.859V132ZM139.087 122.505C139.087 122.067 139.23 121.849 139.518 121.849C139.659 121.849 139.768 121.906 139.846 122.02C139.928 122.133 139.969 122.295 139.969 122.505C139.969 122.71 139.928 122.872 139.846 122.99C139.768 123.109 139.659 123.168 139.518 123.168C139.23 123.168 139.087 122.947 139.087 122.505ZM144.316 131.535C144.745 131.535 145.118 131.499 145.438 131.426V131.973C145.109 132.082 144.731 132.137 144.303 132.137C143.646 132.137 143.161 131.961 142.847 131.61C142.537 131.259 142.382 130.708 142.382 129.956V125.157H141.281V124.761L142.382 124.453L142.724 122.771H143.072V124.569H145.253V125.157H143.072V129.86C143.072 130.43 143.173 130.852 143.373 131.125C143.574 131.398 143.888 131.535 144.316 131.535ZM152.226 132V127.181C152.226 126.433 152.068 125.891 151.754 125.554C151.439 125.212 150.952 125.041 150.291 125.041C149.402 125.041 148.751 125.267 148.336 125.718C147.926 126.164 147.721 126.891 147.721 127.898V132H147.044V121.363H147.721V124.747L147.687 125.697H147.734C148.012 125.251 148.363 124.927 148.787 124.727C149.211 124.526 149.737 124.426 150.366 124.426C152.052 124.426 152.896 125.33 152.896 127.14V132H152.226ZM160.9 131.535C161.329 131.535 161.702 131.499 162.021 131.426V131.973C161.693 132.082 161.315 132.137 160.887 132.137C160.23 132.137 159.745 131.961 159.431 131.61C159.121 131.259 158.966 130.708 158.966 129.956V125.157H157.865V124.761L158.966 124.453L159.308 122.771H159.656V124.569H161.837V125.157H159.656V129.86C159.656 130.43 159.757 130.852 159.957 131.125C160.158 131.398 160.472 131.535 160.9 131.535ZM168.81 132V127.181C168.81 126.433 168.652 125.891 168.338 125.554C168.023 125.212 167.536 125.041 166.875 125.041C165.986 125.041 165.335 125.267 164.92 125.718C164.51 126.164 164.305 126.891 164.305 127.898V132H163.628V121.363H164.305V124.747L164.271 125.697H164.318C164.596 125.251 164.947 124.927 165.371 124.727C165.795 124.526 166.321 124.426 166.95 124.426C168.636 124.426 169.479 125.33 169.479 127.14V132H168.81ZM174.887 132.137C173.807 132.137 172.964 131.804 172.357 131.139C171.756 130.473 171.455 129.541 171.455 128.343C171.455 127.158 171.747 126.21 172.33 125.499C172.913 124.784 173.7 124.426 174.688 124.426C175.563 124.426 176.254 124.731 176.76 125.342C177.266 125.952 177.519 126.782 177.519 127.83V128.377H172.166C172.175 129.398 172.412 130.177 172.877 130.715C173.346 131.253 174.016 131.521 174.887 131.521C175.311 131.521 175.682 131.492 176.001 131.433C176.325 131.373 176.732 131.246 177.225 131.05V131.665C176.805 131.847 176.418 131.97 176.062 132.034C175.707 132.103 175.315 132.137 174.887 132.137ZM174.688 125.027C173.973 125.027 173.399 125.264 172.966 125.738C172.533 126.208 172.28 126.887 172.207 127.775H176.801C176.801 126.914 176.614 126.242 176.24 125.759C175.867 125.271 175.349 125.027 174.688 125.027ZM13.2578 152.137C12.1139 152.137 11.2799 151.708 10.7559 150.852H10.708L10.7285 151.426C10.7467 151.763 10.7559 152.132 10.7559 152.533V155.363H10.0791V144.569H10.6533L10.7832 145.629H10.8242C11.3346 144.827 12.1504 144.426 13.2715 144.426C14.2741 144.426 15.0374 144.756 15.5615 145.417C16.0902 146.073 16.3545 147.03 16.3545 148.288C16.3545 149.509 16.0765 150.457 15.5205 151.132C14.9691 151.802 14.2148 152.137 13.2578 152.137ZM13.2441 151.535C14.0052 151.535 14.5931 151.253 15.0078 150.688C15.4271 150.122 15.6367 149.332 15.6367 148.315C15.6367 146.132 14.8483 145.041 13.2715 145.041C12.4056 145.041 11.7699 145.28 11.3643 145.759C10.9587 146.233 10.7559 147.007 10.7559 148.083V148.302C10.7559 149.464 10.9495 150.293 11.3369 150.79C11.7288 151.287 12.3646 151.535 13.2441 151.535ZM21.4199 152.137C20.3398 152.137 19.4967 151.804 18.8906 151.139C18.2891 150.473 17.9883 149.541 17.9883 148.343C17.9883 147.158 18.2799 146.21 18.8633 145.499C19.4466 144.784 20.2327 144.426 21.2217 144.426C22.0967 144.426 22.7871 144.731 23.293 145.342C23.7988 145.952 24.0518 146.782 24.0518 147.83V148.377H18.6992C18.7083 149.398 18.9453 150.177 19.4102 150.715C19.8796 151.253 20.5495 151.521 21.4199 151.521C21.8438 151.521 22.2152 151.492 22.5342 151.433C22.8577 151.373 23.2656 151.246 23.7578 151.05V151.665C23.3385 151.847 22.9512 151.97 22.5957 152.034C22.2402 152.103 21.8483 152.137 21.4199 152.137ZM21.2217 145.027C20.5062 145.027 19.932 145.264 19.499 145.738C19.0661 146.208 18.8132 146.887 18.7402 147.775H23.334C23.334 146.914 23.1471 146.242 22.7734 145.759C22.3997 145.271 21.8825 145.027 21.2217 145.027ZM29.0283 144.426C29.3428 144.426 29.68 144.458 30.04 144.521L29.9102 145.171C29.6003 145.093 29.279 145.055 28.9463 145.055C28.3128 145.055 27.7933 145.324 27.3877 145.861C26.9821 146.399 26.7793 147.078 26.7793 147.898V152H26.1025V144.569H26.6768L26.7451 145.909H26.793C27.0983 145.362 27.4242 144.979 27.7705 144.761C28.1169 144.537 28.5361 144.426 29.0283 144.426ZM34.3193 145.157H32.5693V152H31.8926V145.157H30.5117V144.761L31.8926 144.508V143.934C31.8926 143.022 32.0589 142.354 32.3916 141.931C32.7288 141.502 33.278 141.288 34.0391 141.288C34.4492 141.288 34.8594 141.35 35.2695 141.473L35.1123 142.061C34.7477 141.947 34.3854 141.89 34.0254 141.89C33.4967 141.89 33.1208 142.047 32.8975 142.361C32.6787 142.671 32.5693 143.177 32.5693 143.879V144.569H34.3193V145.157ZM38.7559 152.137C37.6758 152.137 36.8327 151.804 36.2266 151.139C35.625 150.473 35.3242 149.541 35.3242 148.343C35.3242 147.158 35.6159 146.21 36.1992 145.499C36.7826 144.784 37.5687 144.426 38.5576 144.426C39.4326 144.426 40.123 144.731 40.6289 145.342C41.1348 145.952 41.3877 146.782 41.3877 147.83V148.377H36.0352C36.0443 149.398 36.2812 150.177 36.7461 150.715C37.2155 151.253 37.8854 151.521 38.7559 151.521C39.1797 151.521 39.5511 151.492 39.8701 151.433C40.1937 151.373 40.6016 151.246 41.0938 151.05V151.665C40.6745 151.847 40.2871 151.97 39.9316 152.034C39.5762 152.103 39.1842 152.137 38.7559 152.137ZM38.5576 145.027C37.8421 145.027 37.2679 145.264 36.835 145.738C36.402 146.208 36.1491 146.887 36.0762 147.775H40.6699C40.6699 146.914 40.4831 146.242 40.1094 145.759C39.7357 145.271 39.2184 145.027 38.5576 145.027ZM46.4053 152.137C45.3434 152.137 44.5117 151.802 43.9102 151.132C43.3086 150.462 43.0078 149.528 43.0078 148.329C43.0078 147.099 43.32 146.142 43.9443 145.458C44.5687 144.77 45.4232 144.426 46.5078 144.426C47.1504 144.426 47.7656 144.537 48.3535 144.761L48.1689 145.362C47.5264 145.148 46.9681 145.041 46.4941 145.041C45.5827 145.041 44.8923 145.324 44.4229 145.889C43.9535 146.449 43.7188 147.258 43.7188 148.315C43.7188 149.318 43.9535 150.104 44.4229 150.674C44.8923 151.239 45.5485 151.521 46.3916 151.521C47.0661 151.521 47.6927 151.401 48.2715 151.159V151.788C47.7975 152.021 47.1755 152.137 46.4053 152.137ZM52.0586 151.535C52.487 151.535 52.8607 151.499 53.1797 151.426V151.973C52.8516 152.082 52.4733 152.137 52.0449 152.137C51.3887 152.137 50.9033 151.961 50.5889 151.61C50.279 151.259 50.124 150.708 50.124 149.956V145.157H49.0234V144.761L50.124 144.453L50.4658 142.771H50.8145V144.569H52.9951V145.157H50.8145V149.86C50.8145 150.43 50.9147 150.852 51.1152 151.125C51.3158 151.398 51.6302 151.535 52.0586 151.535ZM61.4238 152.137C60.3438 152.137 59.5007 151.804 58.8945 151.139C58.293 150.473 57.9922 149.541 57.9922 148.343C57.9922 147.158 58.2839 146.21 58.8672 145.499C59.4505 144.784 60.2367 144.426 61.2256 144.426C62.1006 144.426 62.791 144.731 63.2969 145.342C63.8027 145.952 64.0557 146.782 64.0557 147.83V148.377H58.7031C58.7122 149.398 58.9492 150.177 59.4141 150.715C59.8835 151.253 60.5534 151.521 61.4238 151.521C61.8477 151.521 62.2191 151.492 62.5381 151.433C62.8617 151.373 63.2695 151.246 63.7617 151.05V151.665C63.3424 151.847 62.9551 151.97 62.5996 152.034C62.2441 152.103 61.8522 152.137 61.4238 152.137ZM61.2256 145.027C60.5101 145.027 59.9359 145.264 59.5029 145.738C59.07 146.208 58.8171 146.887 58.7441 147.775H63.3379C63.3379 146.914 63.151 146.242 62.7773 145.759C62.4036 145.271 61.8864 145.027 61.2256 145.027ZM67.9316 148.179L65.3408 144.569H66.1201L68.335 147.7L70.5293 144.569H71.2744L68.7246 148.179L71.459 152H70.6729L68.335 148.685L65.9834 152H65.2383L67.9316 148.179ZM76.2578 152.137C75.1139 152.137 74.2799 151.708 73.7559 150.852H73.708L73.7285 151.426C73.7467 151.763 73.7559 152.132 73.7559 152.533V155.363H73.0791V144.569H73.6533L73.7832 145.629H73.8242C74.3346 144.827 75.1504 144.426 76.2715 144.426C77.2741 144.426 78.0374 144.756 78.5615 145.417C79.0902 146.073 79.3545 147.03 79.3545 148.288C79.3545 149.509 79.0765 150.457 78.5205 151.132C77.9691 151.802 77.2148 152.137 76.2578 152.137ZM76.2441 151.535C77.0052 151.535 77.5931 151.253 78.0078 150.688C78.4271 150.122 78.6367 149.332 78.6367 148.315C78.6367 146.132 77.8483 145.041 76.2715 145.041C75.4056 145.041 74.7699 145.28 74.3643 145.759C73.9587 146.233 73.7559 147.007 73.7559 148.083V148.302C73.7559 149.464 73.9495 150.293 74.3369 150.79C74.7288 151.287 75.3646 151.535 76.2441 151.535ZM84.4199 152.137C83.3398 152.137 82.4967 151.804 81.8906 151.139C81.2891 150.473 80.9883 149.541 80.9883 148.343C80.9883 147.158 81.2799 146.21 81.8633 145.499C82.4466 144.784 83.2327 144.426 84.2217 144.426C85.0967 144.426 85.7871 144.731 86.293 145.342C86.7988 145.952 87.0518 146.782 87.0518 147.83V148.377H81.6992C81.7083 149.398 81.9453 150.177 82.4102 150.715C82.8796 151.253 83.5495 151.521 84.4199 151.521C84.8438 151.521 85.2152 151.492 85.5342 151.433C85.8577 151.373 86.2656 151.246 86.7578 151.05V151.665C86.3385 151.847 85.9512 151.97 85.5957 152.034C85.2402 152.103 84.8483 152.137 84.4199 152.137ZM84.2217 145.027C83.5062 145.027 82.932 145.264 82.499 145.738C82.0661 146.208 81.8132 146.887 81.7402 147.775H86.334C86.334 146.914 86.1471 146.242 85.7734 145.759C85.3997 145.271 84.8825 145.027 84.2217 145.027ZM92.0283 144.426C92.3428 144.426 92.68 144.458 93.04 144.521L92.9102 145.171C92.6003 145.093 92.279 145.055 91.9463 145.055C91.3128 145.055 90.7933 145.324 90.3877 145.861C89.9821 146.399 89.7793 147.078 89.7793 147.898V152H89.1025V144.569H89.6768L89.7451 145.909H89.793C90.0983 145.362 90.4242 144.979 90.7705 144.761C91.1169 144.537 91.5361 144.426 92.0283 144.426ZM96.5195 151.535C96.9479 151.535 97.3216 151.499 97.6406 151.426V151.973C97.3125 152.082 96.9342 152.137 96.5059 152.137C95.8496 152.137 95.3643 151.961 95.0498 151.61C94.7399 151.259 94.585 150.708 94.585 149.956V145.157H93.4844V144.761L94.585 144.453L94.9268 142.771H95.2754V144.569H97.4561V145.157H95.2754V149.86C95.2754 150.43 95.3757 150.852 95.5762 151.125C95.7767 151.398 96.0911 151.535 96.5195 151.535ZM103.561 152H102.884V144.569H103.561V152ZM102.788 142.505C102.788 142.067 102.932 141.849 103.219 141.849C103.36 141.849 103.469 141.906 103.547 142.02C103.629 142.133 103.67 142.295 103.67 142.505C103.67 142.71 103.629 142.872 103.547 142.99C103.469 143.109 103.36 143.168 103.219 143.168C102.932 143.168 102.788 142.947 102.788 142.505ZM111.237 152V147.181C111.237 146.433 111.08 145.891 110.766 145.554C110.451 145.212 109.964 145.041 109.303 145.041C108.414 145.041 107.762 145.267 107.348 145.718C106.938 146.164 106.732 146.891 106.732 147.898V152H106.056V144.569H106.63L106.76 145.588H106.801C107.284 144.813 108.143 144.426 109.378 144.426C111.064 144.426 111.907 145.33 111.907 147.14V152H111.237ZM119.912 151.535C120.34 151.535 120.714 151.499 121.033 151.426V151.973C120.705 152.082 120.327 152.137 119.898 152.137C119.242 152.137 118.757 151.961 118.442 151.61C118.132 151.259 117.978 150.708 117.978 149.956V145.157H116.877V144.761L117.978 144.453L118.319 142.771H118.668V144.569H120.849V145.157H118.668V149.86C118.668 150.43 118.768 150.852 118.969 151.125C119.169 151.398 119.484 151.535 119.912 151.535ZM127.821 152V147.181C127.821 146.433 127.664 145.891 127.35 145.554C127.035 145.212 126.548 145.041 125.887 145.041C124.998 145.041 124.346 145.267 123.932 145.718C123.521 146.164 123.316 146.891 123.316 147.898V152H122.64V141.363H123.316V144.747L123.282 145.697H123.33C123.608 145.251 123.959 144.927 124.383 144.727C124.807 144.526 125.333 144.426 125.962 144.426C127.648 144.426 128.491 145.33 128.491 147.14V152H127.821ZM133.898 152.137C132.818 152.137 131.975 151.804 131.369 151.139C130.768 150.473 130.467 149.541 130.467 148.343C130.467 147.158 130.758 146.21 131.342 145.499C131.925 144.784 132.711 144.426 133.7 144.426C134.575 144.426 135.266 144.731 135.771 145.342C136.277 145.952 136.53 146.782 136.53 147.83V148.377H131.178C131.187 149.398 131.424 150.177 131.889 150.715C132.358 151.253 133.028 151.521 133.898 151.521C134.322 151.521 134.694 151.492 135.013 151.433C135.336 151.373 135.744 151.246 136.236 151.05V151.665C135.817 151.847 135.43 151.97 135.074 152.034C134.719 152.103 134.327 152.137 133.898 152.137ZM133.7 145.027C132.985 145.027 132.41 145.264 131.978 145.738C131.545 146.208 131.292 146.887 131.219 147.775H135.812C135.812 146.914 135.626 146.242 135.252 145.759C134.878 145.271 134.361 145.027 133.7 145.027ZM139.258 152H138.581V144.569H139.258V152ZM138.485 142.505C138.485 142.067 138.629 141.849 138.916 141.849C139.057 141.849 139.167 141.906 139.244 142.02C139.326 142.133 139.367 142.295 139.367 142.505C139.367 142.71 139.326 142.872 139.244 142.99C139.167 143.109 139.057 143.168 138.916 143.168C138.629 143.168 138.485 142.947 138.485 142.505ZM144.679 144.426C144.993 144.426 145.33 144.458 145.69 144.521L145.561 145.171C145.251 145.093 144.929 145.055 144.597 145.055C143.963 145.055 143.444 145.324 143.038 145.861C142.632 146.399 142.43 147.078 142.43 147.898V152H141.753V144.569H142.327L142.396 145.909H142.443C142.749 145.362 143.075 144.979 143.421 144.761C143.767 144.537 144.187 144.426 144.679 144.426ZM153.606 145.157H151.856V152H151.18V145.157H149.799V144.761L151.18 144.508V143.934C151.18 143.022 151.346 142.354 151.679 141.931C152.016 141.502 152.565 141.288 153.326 141.288C153.736 141.288 154.146 141.35 154.557 141.473L154.399 142.061C154.035 141.947 153.673 141.89 153.312 141.89C152.784 141.89 152.408 142.047 152.185 142.361C151.966 142.671 151.856 143.177 151.856 143.879V144.569H153.606V145.157ZM155.719 152H155.042V144.569H155.719V152ZM154.946 142.505C154.946 142.067 155.09 141.849 155.377 141.849C155.518 141.849 155.628 141.906 155.705 142.02C155.787 142.133 155.828 142.295 155.828 142.505C155.828 142.71 155.787 142.872 155.705 142.99C155.628 143.109 155.518 143.168 155.377 143.168C155.09 143.168 154.946 142.947 154.946 142.505ZM161.215 152.137C160.135 152.137 159.292 151.804 158.686 151.139C158.084 150.473 157.783 149.541 157.783 148.343C157.783 147.158 158.075 146.21 158.658 145.499C159.242 144.784 160.028 144.426 161.017 144.426C161.892 144.426 162.582 144.731 163.088 145.342C163.594 145.952 163.847 146.782 163.847 147.83V148.377H158.494C158.503 149.398 158.74 150.177 159.205 150.715C159.674 151.253 160.344 151.521 161.215 151.521C161.639 151.521 162.01 151.492 162.329 151.433C162.653 151.373 163.061 151.246 163.553 151.05V151.665C163.133 151.847 162.746 151.97 162.391 152.034C162.035 152.103 161.643 152.137 161.215 152.137ZM161.017 145.027C160.301 145.027 159.727 145.264 159.294 145.738C158.861 146.208 158.608 146.887 158.535 147.775H163.129C163.129 146.914 162.942 146.242 162.568 145.759C162.195 145.271 161.677 145.027 161.017 145.027ZM166.574 152H165.897V141.363H166.574V152ZM171.79 144.426C172.328 144.426 172.793 144.524 173.185 144.72C173.576 144.916 173.927 145.251 174.237 145.725H174.278C174.251 145.15 174.237 144.588 174.237 144.036V141.363H174.907V152H174.463L174.292 150.865H174.237C173.672 151.713 172.861 152.137 171.804 152.137C170.778 152.137 169.994 151.818 169.452 151.18C168.91 150.542 168.639 149.612 168.639 148.391C168.639 147.105 168.908 146.123 169.445 145.444C169.983 144.765 170.765 144.426 171.79 144.426ZM171.79 145.041C170.979 145.041 170.368 145.326 169.958 145.896C169.552 146.465 169.35 147.292 169.35 148.377C169.35 150.482 170.168 151.535 171.804 151.535C172.642 151.535 173.257 151.291 173.649 150.804C174.041 150.316 174.237 149.512 174.237 148.391V148.274C174.237 147.126 174.044 146.301 173.656 145.8C173.273 145.294 172.651 145.041 171.79 145.041Z" fill="black"/>
<rect x="10" y="106" width="165" height="1" fill="#323232"/>
<path d="M105.9 29.066V25.6589C105.9 24.3156 104.807 23.2227 103.464 23.2227C102.121 23.2227 101.028 24.3156 101.028 25.6589V28.7351C101.028 32.4421 99.6621 36.0011 97.1821 38.7565L93.7629 42.5557C93.4757 42.8749 93.5016 43.3665 93.8208 43.6539C94.1399 43.9411 94.6315 43.9152 94.9189 43.596L98.3381 39.7969C101.075 36.7553 102.583 32.8269 102.583 28.7351V25.6589C102.583 25.173 102.978 24.7777 103.464 24.7777C103.95 24.7777 104.345 25.173 104.345 25.6589V29.066C104.345 33.6279 102.655 37.9991 99.5866 41.3746L96.2537 45.0409C95.9648 45.3585 95.9883 45.8505 96.306 46.1393C96.455 46.2748 96.6421 46.3414 96.8287 46.3414C97.0402 46.3414 97.2509 46.2557 97.4043 46.0869L100.737 42.4207C104.067 38.7583 105.9 34.0155 105.9 29.066Z" fill="black"/>
<path d="M109.218 25.6586C109.218 22.4859 106.637 19.9048 103.464 19.9048C100.291 19.9048 97.7103 22.4859 97.7103 25.6586V28.7347C97.7103 31.6208 96.647 34.3917 94.7163 36.5368L92.2855 39.2378C91.9983 39.557 92.0242 40.0486 92.3434 40.336C92.6626 40.6233 93.1541 40.5971 93.4415 40.2781L95.8723 37.5772C98.0604 35.146 99.2654 32.0057 99.2654 28.7347V25.6586C99.2654 23.3434 101.149 21.4599 103.464 21.4599C105.779 21.4599 107.663 23.3434 107.663 25.6586V29.0656C107.663 34.4544 105.667 39.6183 102.041 43.6058L99.2294 46.6993C98.9404 47.0169 98.9639 47.5088 99.2816 47.7977C99.4306 47.9332 99.6177 47.9998 99.8043 47.9998C100.016 47.9998 100.226 47.9141 100.38 47.7453L103.192 44.6518C107.078 40.3775 109.218 34.8422 109.218 29.0656V25.6586Z" fill="black"/>
<path d="M112.535 25.6587C112.535 20.6567 108.466 16.5874 103.464 16.5874C98.4621 16.5874 94.3928 20.6567 94.3928 25.6587V28.7348C94.3928 30.8 93.632 32.7827 92.2504 34.3176L90.0617 36.7496C89.7744 37.0688 89.8004 37.5604 90.1196 37.8478C90.4387 38.135 90.9304 38.1089 91.2177 37.7899L93.4064 35.358C95.0453 33.537 95.9479 31.1848 95.9479 28.7348V25.6587C95.9479 21.5142 99.3196 18.1425 103.464 18.1425C107.609 18.1425 110.98 21.5142 110.98 25.6587V29.0657C110.98 35.2817 108.678 41.238 104.496 45.8374L103.718 46.6936C103.429 47.0113 103.452 47.5031 103.77 47.792C103.919 47.9274 104.106 47.9941 104.293 47.9941C104.504 47.9941 104.715 47.9084 104.869 47.7396L105.647 46.8835C110.089 41.9971 112.535 35.6694 112.535 29.0657V25.6587H112.535Z" fill="black"/>
<path d="M91.0753 25.6587C91.0753 26.0882 91.4234 26.4362 91.8529 26.4362C92.2823 26.4362 92.6304 26.0882 92.6304 25.6587C92.6304 23.0405 93.581 20.5113 95.3071 18.537C97.0172 16.581 99.3642 15.3019 101.916 14.9353C102.341 14.8742 102.636 14.4801 102.575 14.0551C102.514 13.6301 102.119 13.3354 101.695 13.3961C98.7752 13.8155 96.091 15.2777 94.1363 17.5135C92.1624 19.7712 91.0753 22.6639 91.0753 25.6587Z" fill="black"/>
<path d="M92.6304 28.7351C92.6304 28.3055 92.2822 27.9575 91.8528 27.9575C91.4234 27.9575 91.0753 28.3055 91.0753 28.7351C91.0753 29.9793 90.617 31.1737 89.7847 32.0985L87.8378 34.2618C87.5506 34.5809 87.5765 35.0725 87.8957 35.3599C88.0443 35.4936 88.2302 35.5595 88.4156 35.5595C88.6283 35.5595 88.8403 35.4726 88.9938 35.302L90.9406 33.1388C92.0302 31.928 92.6304 30.3642 92.6304 28.7351Z" fill="black"/>
<path d="M114.327 35.6757C113.911 35.5675 113.486 35.8158 113.378 36.2311C113.09 37.3279 112.733 38.4182 112.316 39.4717C112.158 39.8709 112.353 40.3228 112.752 40.4809C112.846 40.5181 112.943 40.5358 113.039 40.5358C113.348 40.5358 113.641 40.3497 113.762 40.0445C114.202 38.9326 114.579 37.7821 114.882 36.6248C114.991 36.2094 114.742 35.7845 114.327 35.6757Z" fill="black"/>
<path d="M111.739 16.446C111.419 16.1587 110.928 16.185 110.641 16.5043C110.353 16.8237 110.38 17.3153 110.699 17.6023C112.986 19.6583 114.298 22.5948 114.298 25.6591V29.0661C114.298 30.3592 114.208 31.6623 114.033 32.9392C113.974 33.3647 114.271 33.757 114.697 33.8155C114.733 33.8205 114.768 33.8229 114.804 33.8229C115.186 33.8229 115.519 33.5407 115.573 33.1513C115.759 31.8043 115.853 30.4298 115.853 29.066V25.6591C115.853 22.1544 114.353 18.7964 111.739 16.446Z" fill="black"/>
<path d="M108.104 15.8697C108.212 15.9211 108.325 15.9454 108.437 15.9454C108.728 15.9454 109.007 15.7817 109.14 15.5019C109.325 15.1142 109.16 14.6502 108.772 14.4657C107.652 13.9323 106.461 13.5724 105.233 13.3961C104.808 13.3354 104.414 13.6302 104.353 14.0551C104.292 14.4801 104.587 14.8742 105.012 14.9353C106.085 15.0895 107.125 15.4038 108.104 15.8697Z" fill="black"/>
<path d="M103.464 9.95264C103.173 9.95264 102.879 9.96072 102.589 9.97669C102.161 10.0003 101.832 10.3671 101.856 10.7958C101.88 11.2246 102.246 11.5548 102.675 11.5293C102.936 11.5149 103.202 11.5076 103.464 11.5076C111.267 11.5076 117.615 17.8557 117.615 25.6588V29.0659C117.615 29.4954 117.963 29.8434 118.393 29.8434C118.822 29.8434 119.17 29.4954 119.17 29.0659V25.6589C119.17 16.9985 112.124 9.95264 103.464 9.95264Z" fill="black"/>
<path d="M94.9625 14.1715C95.1157 14.1715 95.2705 14.1263 95.4057 14.0323C96.6994 13.1327 98.1201 12.4612 99.6286 12.0358C100.042 11.9193 100.283 11.4897 100.166 11.0764C100.05 10.6632 99.6198 10.4229 99.2067 10.539C97.5313 11.0113 95.9539 11.757 94.518 12.7554C94.1654 13.0006 94.0783 13.4851 94.3235 13.8376C94.4746 14.0551 94.7165 14.1715 94.9625 14.1715Z" fill="black"/>
<path d="M89.3128 28.7351V25.6589C89.3128 22.0418 90.6826 18.597 93.1699 15.9589C93.4645 15.6464 93.4501 15.1544 93.1376 14.8597C92.8251 14.5651 92.333 14.5797 92.0385 14.8921C89.278 17.8199 87.7578 21.6437 87.7578 25.6589V28.7351C87.7578 29.1584 87.6018 29.5647 87.3188 29.8791L86.3601 30.9443C86.0728 31.2635 86.0987 31.7551 86.4179 32.0424C86.5665 32.1762 86.7524 32.2421 86.9378 32.2421C87.1505 32.2421 87.3625 32.1553 87.516 31.9848L88.4747 30.9195C89.0152 30.3189 89.3128 29.5431 89.3128 28.7351Z" fill="black"/>
<path d="M121.5 19.6051C120.647 17.0707 119.292 14.7811 117.472 12.7999C117.181 12.4837 116.69 12.4627 116.373 12.7533C116.057 13.0439 116.036 13.5357 116.327 13.852C117.999 15.6719 119.244 17.7743 120.027 20.1009C120.136 20.4257 120.439 20.6307 120.763 20.6307C120.846 20.6307 120.929 20.6175 121.011 20.5899C121.418 20.4529 121.637 20.012 121.5 19.6051Z" fill="black"/>
<path d="M109.609 7.65342C109.203 7.5144 108.76 7.73097 108.621 8.13736C108.482 8.54365 108.699 8.98571 109.105 9.12463C110.82 9.71131 112.43 10.5612 113.89 11.651C114.029 11.7552 114.192 11.8054 114.354 11.8054C114.591 11.8054 114.825 11.6974 114.978 11.4928C115.235 11.1487 115.164 10.6615 114.82 10.4047C113.23 9.21824 111.477 8.29246 109.609 7.65342Z" fill="black"/>
<path d="M91.3828 13.0529C94.6535 9.91691 98.9441 8.18984 103.464 8.18984C104.303 8.18984 105.147 8.25028 105.972 8.3693C106.398 8.43129 106.792 8.13583 106.853 7.71077C106.915 7.28572 106.62 6.89156 106.195 6.83019C105.296 6.7006 104.377 6.63477 103.464 6.63477C98.541 6.63477 93.8682 8.51547 90.3066 11.9304C86.756 15.3348 84.6796 19.9033 84.4598 24.7944C84.4405 25.2234 84.7727 25.5869 85.2016 25.6061C85.2135 25.6067 85.2253 25.6069 85.2371 25.6069C85.6505 25.6069 85.9945 25.2814 86.0133 24.8643C86.2149 20.3741 88.1219 16.1794 91.3828 13.0529Z" fill="black"/>
<path d="M103.464 3.31738C101.725 3.31738 99.9926 3.51892 98.3142 3.9164C97.8963 4.0153 97.6379 4.43434 97.7368 4.85214C97.8358 5.26994 98.2548 5.52849 98.6726 5.42949C100.234 5.06 101.846 4.87246 103.464 4.87246C109.166 4.87246 114.488 7.14401 118.45 11.2685C118.602 11.4274 118.806 11.5074 119.011 11.5074C119.204 11.5074 119.398 11.4355 119.549 11.2907C119.859 10.9931 119.869 10.5009 119.571 10.1913C117.507 8.04232 115.082 6.35175 112.364 5.16689C109.549 3.93962 106.554 3.31738 103.464 3.31738Z" fill="black"/>
<path d="M85.9986 13.0006C86.1408 13.112 86.3097 13.166 86.4774 13.166C86.7083 13.166 86.9368 13.0637 87.0901 12.8678C89.3061 10.0374 92.2234 7.81728 95.5266 6.44725C95.9233 6.28273 96.1116 5.82782 95.947 5.43117C95.7825 5.03452 95.3274 4.84605 94.9309 5.01078C91.3811 6.48302 88.2464 8.8684 85.8658 11.909C85.601 12.2473 85.6605 12.736 85.9986 13.0006Z" fill="black"/>
<path d="M92.683 4.01469C92.7964 4.01469 92.9116 3.98981 93.0204 3.93714C96.2942 2.35646 99.8079 1.55508 103.464 1.55508C105.369 1.55508 107.267 1.77921 109.104 2.22127C109.521 2.32142 109.941 2.06473 110.042 1.64724C110.142 1.22975 109.885 0.80978 109.468 0.709322C107.512 0.238652 105.492 0 103.464 0C99.5718 0 95.8306 0.853426 92.3444 2.53674C91.9577 2.72346 91.7955 3.18832 91.9822 3.57502C92.1163 3.85275 92.3939 4.01469 92.683 4.01469Z" fill="black"/>
<path d="M112.354 3.25348C113.155 3.57269 113.949 3.93969 114.712 4.34411C114.828 4.40569 114.952 4.43482 115.075 4.43482C115.354 4.43482 115.623 4.2846 115.763 4.02117C115.964 3.64173 115.819 3.17117 115.44 2.97005C114.627 2.5395 113.783 2.14876 112.929 1.80882C112.53 1.64989 112.078 1.84459 111.919 2.24341C111.76 2.64234 111.955 3.09466 112.354 3.25348Z" fill="black"/>
</svg>
