<svg width="185" height="185" viewBox="0 0 185 185" fill="none" xmlns="http://www.w3.org/2000/svg">
<g clip-path="url(#clip0)">
<path d="M68.4315 17.7032L81.1948 23.6941C81.3232 23.7544 81.4667 23.7742 81.6067 23.7516L86.2656 22.9906C88.9281 22.556 91.6492 23.442 93.545 25.3611L97.444 29.3081C97.6829 29.5499 97.8027 29.87 97.7811 30.2093C97.7596 30.5485 97.6005 30.8509 97.3329 31.0607C96.9264 31.3793 96.3483 31.3933 95.927 31.0948L92.1255 28.4015C91.586 28.0192 90.8673 28.0627 90.3777 28.5069L87.5996 31.0278C87.3123 31.2886 87.2906 31.733 87.5515 32.0204C87.8122 32.3078 88.2565 32.3294 88.5441 32.0686L91.3129 29.5482L95.1145 32.2415C95.5589 32.5564 96.0827 32.7128 96.6059 32.7128C97.1716 32.7128 97.7366 32.5299 98.1999 32.1667C98.7787 31.713 99.1372 31.0319 99.1838 30.2981C99.2303 29.5642 98.9606 28.8434 98.4438 28.3203L95.3526 25.1911C96.9873 24.7855 98.7178 24.852 100.324 25.3976L101.971 25.9575C102.151 26.0185 102.338 26.0486 102.524 26.0486C102.816 26.0486 103.107 25.9743 103.367 25.8284C103.37 25.8265 103.373 25.8246 103.377 25.8227L115.523 18.7394C115.858 18.5439 115.971 18.1136 115.776 17.7784C115.58 17.443 115.15 17.3299 114.815 17.5253L102.675 24.605C102.598 24.647 102.506 24.6548 102.423 24.6267L100.776 24.0669C98.6514 23.3451 96.3384 23.3453 94.2175 24.0588C92.0229 22.0358 89.0002 21.1203 86.039 21.6037L81.595 22.3295L69.0287 16.431C68.6774 16.2661 68.2589 16.4172 68.094 16.7685C67.9291 17.1199 68.0801 17.5383 68.4315 17.7032Z" fill="black"/>
<path d="M115.901 30.8749C115.731 30.5261 115.31 30.3817 114.961 30.5519L108.779 33.572C108.673 33.6237 108.582 33.701 108.514 33.7969L108.016 34.4982C107.418 35.3416 106.644 36.0409 105.751 36.5504C105.681 36.4379 105.602 36.3294 105.513 36.2264L104.285 34.8131C103.39 33.7838 101.825 33.6741 100.796 34.5687L100.695 34.6566C100.172 35.1112 99.8865 35.7392 99.8496 36.3819C99.8388 36.381 99.828 36.3796 99.8172 36.3788C99.1585 36.3326 98.5208 36.5458 98.0221 36.979L97.9208 37.067C97.3973 37.5219 97.1122 38.1503 97.0756 38.7935C96.4337 38.7401 95.7717 38.9346 95.2483 39.3895L95.1469 39.4776C94.6234 39.9325 94.3384 40.5609 94.3017 41.2039C93.6597 41.1505 92.9976 41.3451 92.4741 41.8001L92.373 41.888C91.8744 42.3214 91.5743 42.9228 91.5281 43.5819C91.4819 44.2408 91.6951 44.8784 92.1284 45.377L92.7218 46.06L92.485 46.2695C92.4807 46.2734 92.4763 46.2772 92.4721 46.2812C92.0144 46.7068 91.2564 46.6961 90.8101 46.2598C90.4276 45.8391 90.4156 45.1985 90.784 44.7644C91.0247 44.4808 91.0027 44.0586 90.7337 43.8016C90.4647 43.5447 90.042 43.5418 89.7696 43.7952L89.6941 43.8654C89.2364 44.2912 88.4783 44.2802 88.0321 43.844C87.6442 43.4176 87.636 42.7721 88.0147 42.3372C88.2602 42.0553 88.242 41.6305 87.9734 41.3706C87.7048 41.1108 87.2796 41.1067 87.006 41.3612L86.985 41.3807C86.5273 41.8064 85.7692 41.7956 85.323 41.3594C84.9396 40.9378 84.9281 40.2965 85.2982 39.8622C85.5153 39.6074 85.5225 39.2348 85.3156 38.9718C85.1085 38.7088 84.7447 38.6284 84.4461 38.7794C83.9834 39.0137 83.4217 38.9043 83.08 38.5138C82.6823 38.0594 82.7327 37.3413 83.1914 36.9093L83.947 36.2401L86.3044 34.101C86.5917 33.8401 86.6134 33.3957 86.3525 33.1083C86.0917 32.8209 85.6473 32.7993 85.3599 33.0602L83.0089 35.1936L82.2524 35.8636C82.2482 35.8674 82.2439 35.8713 82.2398 35.8751C81.8523 36.2356 81.599 36.6919 81.4834 37.1751L81.4781 37.1721C80.1897 36.4419 79.0659 35.4864 78.1378 34.3322L77.7372 33.8339C77.6725 33.7535 77.591 33.6883 77.4983 33.643L69.0389 29.5047C68.6903 29.3343 68.2694 29.4785 68.0989 29.8271C67.9283 30.1757 68.0727 30.5966 68.4213 30.7671L76.7401 34.8366L77.0426 35.2129C78.0824 36.506 79.3415 37.5766 80.7851 38.3947L81.6606 38.8909C81.7546 39.0856 81.8746 39.2705 82.0224 39.4392C82.4497 39.9275 83.0307 40.2193 83.6409 40.2903C83.5539 41.0106 83.7759 41.7597 84.3026 42.3259C84.3084 42.332 84.3143 42.3381 84.3202 42.3441C84.8635 42.8874 85.6038 43.1391 86.3294 43.0946C86.3329 43.7111 86.5611 44.326 87.0117 44.8104C87.0175 44.8166 87.0234 44.8227 87.0293 44.8287C87.5906 45.39 88.3625 45.64 89.111 45.5739C89.129 46.1701 89.3562 46.7603 89.7895 47.2262C89.7953 47.2324 89.8012 47.2385 89.8071 47.2445C90.3098 47.7472 90.9814 48 91.6535 48C92.2903 48 92.9276 47.7729 93.4221 47.3164L93.6729 47.0947C94.0631 47.41 94.5391 47.599 95.0501 47.6348C95.1092 47.6389 95.1681 47.641 95.2268 47.641C95.8223 47.641 96.3914 47.429 96.8452 47.0346L96.9465 46.9465C97.4701 46.4915 97.7552 45.863 97.7918 45.2199C97.8606 45.2256 97.9295 45.2292 97.9987 45.2292C98.5741 45.2292 99.152 45.0301 99.6193 44.624L99.7204 44.5361C100.244 44.0811 100.529 43.4527 100.566 42.8094C100.634 42.8151 100.703 42.8188 100.773 42.8188C101.348 42.8188 101.926 42.6197 102.393 42.2135L102.494 42.1256C102.993 41.6923 103.293 41.0908 103.339 40.4318C103.34 40.4208 103.34 40.4099 103.341 40.399C103.409 40.4046 103.478 40.4083 103.547 40.4083C104.122 40.4083 104.7 40.2092 105.167 39.8031L105.268 39.7151C105.802 39.2511 106.088 38.6067 106.115 37.9502C107.326 37.3292 108.373 36.425 109.163 35.3111L109.557 34.756L115.578 31.8145C115.927 31.6444 116.072 31.2236 115.901 30.8749ZM96.025 45.8859L95.9237 45.974C95.7084 46.161 95.4339 46.2531 95.1487 46.2331C94.8642 46.2132 94.6045 46.0836 94.4175 45.8684L93.1894 44.4551C93.0023 44.2399 92.9103 43.9646 92.9302 43.6802C92.9502 43.3957 93.0798 43.136 93.2951 42.9489L93.3962 42.861C93.598 42.6856 93.8474 42.5996 94.0958 42.5996C94.3944 42.5996 94.6915 42.724 94.9024 42.9666L96.1304 44.3799C96.5166 44.8241 96.4693 45.4998 96.025 45.8859ZM98.7987 43.4755L98.6976 43.5634C98.2532 43.9495 97.5775 43.9022 97.1913 43.4578L95.9632 42.0445C95.5771 41.6001 95.6244 40.9244 96.0686 40.5384L96.17 40.4503C96.6144 40.0642 97.29 40.1115 97.6763 40.5559L98.9043 41.9692C99.2905 42.4136 99.2432 43.0893 98.7987 43.4755ZM101.937 40.3338C101.917 40.6182 101.788 40.878 101.573 41.0651L101.471 41.153C101.027 41.5391 100.351 41.4918 99.9652 41.0474L98.7371 39.634C98.3509 39.1896 98.3983 38.5139 98.8426 38.1278L98.9439 38.0398C99.1399 37.8695 99.3855 37.778 99.6427 37.778C99.668 37.778 99.6935 37.7788 99.7189 37.7806C100.003 37.8006 100.263 37.9302 100.45 38.1454L101.678 39.5586C101.865 39.774 101.957 40.0492 101.937 40.3338ZM104.347 38.6544L104.245 38.7424C103.801 39.1285 103.125 39.0812 102.739 38.6368L101.511 37.2236C101.324 37.0084 101.232 36.7331 101.252 36.4486C101.272 36.1642 101.401 35.9044 101.617 35.7173L101.718 35.6294C102.162 35.2433 102.838 35.2906 103.224 35.735L104.452 37.1483C104.838 37.5926 104.791 38.2683 104.347 38.6544Z" fill="black"/>
<path d="M89.4585 19.6646L91.4036 20.378C91.5822 20.4435 91.7698 20.4762 91.9576 20.4762C92.1453 20.4762 92.333 20.4435 92.5116 20.378L94.4566 19.6646C96.217 19.0191 97.7894 17.9238 99.0038 16.497C100.205 15.0862 101.031 13.3821 101.394 11.5688C101.47 11.1882 101.224 10.818 100.843 10.7418C100.462 10.6654 100.092 10.9124 100.016 11.2929C99.3717 14.5122 97.056 17.2144 93.9727 18.345L92.0277 19.0583C91.9824 19.0749 91.9327 19.0749 91.8874 19.0583L89.9424 18.345C86.2169 16.9788 83.7139 13.3948 83.7139 9.42675V3.31903C83.7139 3.15309 83.8321 3.00964 83.995 2.97797L92.0009 1.41876L99.9208 2.97647C100.083 3.00842 100.201 3.15187 100.201 3.31743V8.43563C100.201 8.82372 100.516 9.13836 100.904 9.13836C101.292 9.13836 101.607 8.82372 101.607 8.43563V3.31734C101.607 2.48194 101.012 1.7586 100.192 1.59744L92.1371 0.0132116C92.048 -0.00430968 91.9564 -0.00440338 91.8672 0.0129306L83.7262 1.59838C82.9046 1.75841 82.3084 2.48203 82.3084 3.31903V9.42694C82.3084 13.982 85.1818 18.0963 89.4585 19.6646Z" fill="black"/>
<path d="M92.1344 2.87702C92.0453 2.8594 91.9537 2.8594 91.8645 2.87674L85.6876 4.07962C85.3575 4.14389 85.1193 4.43304 85.1193 4.76941V9.42643C85.1193 12.8074 87.252 15.8611 90.4263 17.0252L91.7155 17.498C91.7936 17.5266 91.8756 17.5409 91.9574 17.5409C92.0394 17.5409 92.1213 17.5265 92.1994 17.498L93.4887 17.0252C96.663 15.8612 98.7957 12.8074 98.7957 9.42643V4.7651C98.7957 4.42929 98.5581 4.14043 98.2286 4.07559L92.1344 2.87702ZM97.3903 9.42643C97.3903 12.2203 95.6279 14.7437 93.0049 15.7056L91.9575 16.0898L90.9102 15.7057C88.2871 14.7437 86.5247 12.2204 86.5247 9.42653V5.34855L91.9982 4.28266L97.3903 5.34312V9.42643Z" fill="black"/>
<path d="M90.1542 10.7289C89.8714 10.4629 89.4268 10.4767 89.1608 10.7594C88.895 11.0422 88.9087 11.4869 89.1914 11.7528L90.3257 12.8194C90.4564 12.9423 90.6287 13.0102 90.807 13.0102C90.8219 13.0102 90.8369 13.0097 90.8519 13.0088C91.0459 12.9964 91.2261 12.9041 91.3497 12.754L95.0237 8.28992C95.2703 7.99028 95.2273 7.54737 94.9276 7.30076C94.628 7.05415 94.1851 7.09716 93.9385 7.3968L90.7415 11.2812L90.1542 10.7289Z" fill="black"/>
</g>
<path d="M30.5625 66.0312C30.5625 67.224 30.1719 68.138 29.3906 68.7734C28.6094 69.4089 27.4974 69.7266 26.0547 69.7266H24.8672V74H23V62.5781H26.2891C27.7161 62.5781 28.7839 62.8698 29.4922 63.4531C30.2057 64.0365 30.5625 64.8958 30.5625 66.0312ZM24.8672 68.1562H25.8594C26.8177 68.1562 27.5208 67.9896 27.9688 67.6562C28.4167 67.3229 28.6406 66.8021 28.6406 66.0938C28.6406 65.4375 28.4401 64.9479 28.0391 64.625C27.638 64.3021 27.013 64.1406 26.1641 64.1406H24.8672V68.1562ZM37.0312 65.2031C37.401 65.2031 37.7057 65.2292 37.9453 65.2812L37.7656 66.9922C37.5052 66.9297 37.2344 66.8984 36.9531 66.8984C36.2188 66.8984 35.6224 67.138 35.1641 67.6172C34.7109 68.0964 34.4844 68.7188 34.4844 69.4844V74H32.6484V65.3594H34.0859L34.3281 66.8828H34.4219C34.7083 66.3672 35.0807 65.9583 35.5391 65.6562C36.0026 65.3542 36.5 65.2031 37.0312 65.2031ZM47.2188 69.6641C47.2188 71.0755 46.8568 72.1771 46.1328 72.9688C45.4089 73.7604 44.401 74.1562 43.1094 74.1562C42.3021 74.1562 41.5885 73.974 40.9688 73.6094C40.349 73.2448 39.8724 72.7214 39.5391 72.0391C39.2057 71.3568 39.0391 70.5651 39.0391 69.6641C39.0391 68.263 39.3984 67.1693 40.1172 66.3828C40.8359 65.5964 41.849 65.2031 43.1562 65.2031C44.4062 65.2031 45.3958 65.6068 46.125 66.4141C46.8542 67.2161 47.2188 68.2995 47.2188 69.6641ZM40.9297 69.6641C40.9297 71.6589 41.6667 72.6562 43.1406 72.6562C44.599 72.6562 45.3281 71.6589 45.3281 69.6641C45.3281 67.6901 44.5938 66.7031 43.125 66.7031C42.3542 66.7031 41.7943 66.9583 41.4453 67.4688C41.1016 67.9792 40.9297 68.7109 40.9297 69.6641ZM51.3047 74L48.0234 65.3594H49.9609L51.7188 70.3828C52.0208 71.2266 52.2031 71.9089 52.2656 72.4297H52.3281C52.375 72.0547 52.5573 71.3724 52.875 70.3828L54.6328 65.3594H56.5859L53.2891 74H51.3047ZM59.7344 74H57.8984V65.3594H59.7344V74ZM57.7891 63.0703C57.7891 62.7422 57.8776 62.4896 58.0547 62.3125C58.237 62.1354 58.4948 62.0469 58.8281 62.0469C59.151 62.0469 59.401 62.1354 59.5781 62.3125C59.7604 62.4896 59.8516 62.7422 59.8516 63.0703C59.8516 63.3828 59.7604 63.6302 59.5781 63.8125C59.401 63.9896 59.151 64.0781 58.8281 64.0781C58.4948 64.0781 58.237 63.9896 58.0547 63.8125C57.8776 63.6302 57.7891 63.3828 57.7891 63.0703ZM65.2812 74.1562C64.2031 74.1562 63.362 73.7656 62.7578 72.9844C62.1536 72.2031 61.8516 71.1068 61.8516 69.6953C61.8516 68.2786 62.1562 67.1771 62.7656 66.3906C63.3802 65.599 64.2292 65.2031 65.3125 65.2031C66.4479 65.2031 67.3125 65.6224 67.9062 66.4609H68C67.9115 65.8411 67.8672 65.3516 67.8672 64.9922V61.8438H69.7109V74H68.2734L67.9531 72.8672H67.8672C67.2786 73.7266 66.4167 74.1562 65.2812 74.1562ZM65.7734 72.6719C66.5286 72.6719 67.0781 72.4609 67.4219 72.0391C67.7656 71.612 67.9427 70.9219 67.9531 69.9688V69.7109C67.9531 68.6224 67.776 67.849 67.4219 67.3906C67.0677 66.9323 66.513 66.7031 65.7578 66.7031C65.112 66.7031 64.6146 66.9661 64.2656 67.4922C63.9167 68.013 63.7422 68.7578 63.7422 69.7266C63.7422 70.6849 63.9115 71.4167 64.25 71.9219C64.5885 72.4219 65.0964 72.6719 65.7734 72.6719ZM76.1094 74.1562C74.7656 74.1562 73.7135 73.7656 72.9531 72.9844C72.1979 72.1979 71.8203 71.1172 71.8203 69.7422C71.8203 68.3307 72.1719 67.2214 72.875 66.4141C73.5781 65.6068 74.5443 65.2031 75.7734 65.2031C76.9141 65.2031 77.8151 65.5495 78.4766 66.2422C79.138 66.9349 79.4688 67.888 79.4688 69.1016V70.0938H73.7109C73.737 70.9323 73.9635 71.5781 74.3906 72.0312C74.8177 72.4792 75.4193 72.7031 76.1953 72.7031C76.7057 72.7031 77.1797 72.6562 77.6172 72.5625C78.0599 72.4635 78.5339 72.3021 79.0391 72.0781V73.5703C78.5911 73.7839 78.138 73.9349 77.6797 74.0234C77.2214 74.112 76.6979 74.1562 76.1094 74.1562ZM75.7734 66.5938C75.1901 66.5938 74.7214 66.7786 74.3672 67.1484C74.0182 67.5182 73.8099 68.0573 73.7422 68.7656H77.6641C77.6536 68.0521 77.4818 67.513 77.1484 67.1484C76.8151 66.7786 76.3568 66.5938 75.7734 66.5938ZM91.1172 74L90.75 72.7969H90.6875C90.2708 73.3229 89.8516 73.6823 89.4297 73.875C89.0078 74.0625 88.4661 74.1562 87.8047 74.1562C86.9557 74.1562 86.2917 73.9271 85.8125 73.4688C85.3385 73.0104 85.1016 72.362 85.1016 71.5234C85.1016 70.6328 85.4323 69.9609 86.0938 69.5078C86.7552 69.0547 87.763 68.8073 89.1172 68.7656L90.6094 68.7188V68.2578C90.6094 67.7057 90.4792 67.2943 90.2188 67.0234C89.9635 66.7474 89.5651 66.6094 89.0234 66.6094C88.5807 66.6094 88.1562 66.6745 87.75 66.8047C87.3438 66.9349 86.9531 67.0885 86.5781 67.2656L85.9844 65.9531C86.4531 65.7083 86.9661 65.5234 87.5234 65.3984C88.0807 65.2682 88.6068 65.2031 89.1016 65.2031C90.2005 65.2031 91.0286 65.4427 91.5859 65.9219C92.1484 66.401 92.4297 67.1536 92.4297 68.1797V74H91.1172ZM88.3828 72.75C89.0495 72.75 89.5833 72.5651 89.9844 72.1953C90.3906 71.8203 90.5938 71.2969 90.5938 70.625V69.875L89.4844 69.9219C88.6198 69.9531 87.9896 70.099 87.5938 70.3594C87.2031 70.6146 87.0078 71.0078 87.0078 71.5391C87.0078 71.9245 87.1224 72.224 87.3516 72.4375C87.5807 72.6458 87.9245 72.75 88.3828 72.75ZM104.953 71.5391C104.953 72.3828 104.646 73.0312 104.031 73.4844C103.417 73.9323 102.536 74.1562 101.391 74.1562C100.24 74.1562 99.3151 73.9818 98.6172 73.6328V72.0469C99.6328 72.5156 100.578 72.75 101.453 72.75C102.583 72.75 103.148 72.4089 103.148 71.7266C103.148 71.5078 103.086 71.3255 102.961 71.1797C102.836 71.0339 102.63 70.8828 102.344 70.7266C102.057 70.5703 101.659 70.3932 101.148 70.1953C100.154 69.8099 99.4792 69.4245 99.125 69.0391C98.776 68.6536 98.6016 68.1536 98.6016 67.5391C98.6016 66.7995 98.8984 66.2266 99.4922 65.8203C100.091 65.4089 100.904 65.2031 101.93 65.2031C102.945 65.2031 103.906 65.4089 104.812 65.8203L104.219 67.2031C103.286 66.8177 102.503 66.625 101.867 66.625C100.898 66.625 100.414 66.901 100.414 67.4531C100.414 67.724 100.539 67.9531 100.789 68.1406C101.044 68.3281 101.596 68.5859 102.445 68.9141C103.159 69.1901 103.677 69.4427 104 69.6719C104.323 69.901 104.562 70.1667 104.719 70.4688C104.875 70.7656 104.953 71.1224 104.953 71.5391ZM112.352 74L111.984 72.7969H111.922C111.505 73.3229 111.086 73.6823 110.664 73.875C110.242 74.0625 109.701 74.1562 109.039 74.1562C108.19 74.1562 107.526 73.9271 107.047 73.4688C106.573 73.0104 106.336 72.362 106.336 71.5234C106.336 70.6328 106.667 69.9609 107.328 69.5078C107.99 69.0547 108.997 68.8073 110.352 68.7656L111.844 68.7188V68.2578C111.844 67.7057 111.714 67.2943 111.453 67.0234C111.198 66.7474 110.799 66.6094 110.258 66.6094C109.815 66.6094 109.391 66.6745 108.984 66.8047C108.578 66.9349 108.188 67.0885 107.812 67.2656L107.219 65.9531C107.688 65.7083 108.201 65.5234 108.758 65.3984C109.315 65.2682 109.841 65.2031 110.336 65.2031C111.435 65.2031 112.263 65.4427 112.82 65.9219C113.383 66.401 113.664 67.1536 113.664 68.1797V74H112.352ZM109.617 72.75C110.284 72.75 110.818 72.5651 111.219 72.1953C111.625 71.8203 111.828 71.2969 111.828 70.625V69.875L110.719 69.9219C109.854 69.9531 109.224 70.099 108.828 70.3594C108.438 70.6146 108.242 71.0078 108.242 71.5391C108.242 71.9245 108.357 72.224 108.586 72.4375C108.815 72.6458 109.159 72.75 109.617 72.75ZM120.562 66.75H118.453V74H116.609V66.75H115.188V65.8906L116.609 65.3281V64.7656C116.609 63.7448 116.849 62.9896 117.328 62.5C117.807 62.0052 118.539 61.7578 119.523 61.7578C120.169 61.7578 120.805 61.8646 121.43 62.0781L120.945 63.4688C120.492 63.3229 120.06 63.25 119.648 63.25C119.232 63.25 118.927 63.3802 118.734 63.6406C118.547 63.8958 118.453 64.2812 118.453 64.7969V65.3594H120.562V66.75ZM125.812 74.1562C124.469 74.1562 123.417 73.7656 122.656 72.9844C121.901 72.1979 121.523 71.1172 121.523 69.7422C121.523 68.3307 121.875 67.2214 122.578 66.4141C123.281 65.6068 124.247 65.2031 125.477 65.2031C126.617 65.2031 127.518 65.5495 128.18 66.2422C128.841 66.9349 129.172 67.888 129.172 69.1016V70.0938H123.414C123.44 70.9323 123.667 71.5781 124.094 72.0312C124.521 72.4792 125.122 72.7031 125.898 72.7031C126.409 72.7031 126.883 72.6562 127.32 72.5625C127.763 72.4635 128.237 72.3021 128.742 72.0781V73.5703C128.294 73.7839 127.841 73.9349 127.383 74.0234C126.924 74.112 126.401 74.1562 125.812 74.1562ZM125.477 66.5938C124.893 66.5938 124.424 66.7786 124.07 67.1484C123.721 67.5182 123.513 68.0573 123.445 68.7656H127.367C127.357 68.0521 127.185 67.513 126.852 67.1484C126.518 66.7786 126.06 66.5938 125.477 66.5938ZM140.82 74L140.453 72.7969H140.391C139.974 73.3229 139.555 73.6823 139.133 73.875C138.711 74.0625 138.169 74.1562 137.508 74.1562C136.659 74.1562 135.995 73.9271 135.516 73.4688C135.042 73.0104 134.805 72.362 134.805 71.5234C134.805 70.6328 135.135 69.9609 135.797 69.5078C136.458 69.0547 137.466 68.8073 138.82 68.7656L140.312 68.7188V68.2578C140.312 67.7057 140.182 67.2943 139.922 67.0234C139.667 66.7474 139.268 66.6094 138.727 66.6094C138.284 66.6094 137.859 66.6745 137.453 66.8047C137.047 66.9349 136.656 67.0885 136.281 67.2656L135.688 65.9531C136.156 65.7083 136.669 65.5234 137.227 65.3984C137.784 65.2682 138.31 65.2031 138.805 65.2031C139.904 65.2031 140.732 65.4427 141.289 65.9219C141.852 66.401 142.133 67.1536 142.133 68.1797V74H140.82ZM138.086 72.75C138.753 72.75 139.286 72.5651 139.688 72.1953C140.094 71.8203 140.297 71.2969 140.297 70.625V69.875L139.188 69.9219C138.323 69.9531 137.693 70.099 137.297 70.3594C136.906 70.6146 136.711 71.0078 136.711 71.5391C136.711 71.9245 136.826 72.224 137.055 72.4375C137.284 72.6458 137.628 72.75 138.086 72.75ZM152.297 74H150.453V68.6875C150.453 68.0208 150.318 67.5234 150.047 67.1953C149.781 66.8672 149.357 66.7031 148.773 66.7031C147.997 66.7031 147.43 66.9323 147.07 67.3906C146.711 67.849 146.531 68.6172 146.531 69.6953V74H144.695V65.3594H146.133L146.391 66.4922H146.484C146.745 66.0807 147.115 65.763 147.594 65.5391C148.073 65.3151 148.604 65.2031 149.188 65.2031C151.26 65.2031 152.297 66.2578 152.297 68.3672V74ZM157.766 74.1562C156.688 74.1562 155.846 73.7656 155.242 72.9844C154.638 72.2031 154.336 71.1068 154.336 69.6953C154.336 68.2786 154.641 67.1771 155.25 66.3906C155.865 65.599 156.714 65.2031 157.797 65.2031C158.932 65.2031 159.797 65.6224 160.391 66.4609H160.484C160.396 65.8411 160.352 65.3516 160.352 64.9922V61.8438H162.195V74H160.758L160.438 72.8672H160.352C159.763 73.7266 158.901 74.1562 157.766 74.1562ZM158.258 72.6719C159.013 72.6719 159.562 72.4609 159.906 72.0391C160.25 71.612 160.427 70.9219 160.438 69.9688V69.7109C160.438 68.6224 160.26 67.849 159.906 67.3906C159.552 66.9323 158.997 66.7031 158.242 66.7031C157.596 66.7031 157.099 66.9661 156.75 67.4922C156.401 68.013 156.227 68.7578 156.227 69.7266C156.227 70.6849 156.396 71.4167 156.734 71.9219C157.073 72.4219 157.581 72.6719 158.258 72.6719ZM20.9844 94H19.1406V88.6875C19.1406 88.0208 19.0052 87.5234 18.7344 87.1953C18.4688 86.8672 18.0443 86.7031 17.4609 86.7031C16.6849 86.7031 16.1172 86.9323 15.7578 87.3906C15.3984 87.849 15.2188 88.6172 15.2188 89.6953V94H13.3828V85.3594H14.8203L15.0781 86.4922H15.1719C15.4323 86.0807 15.8021 85.763 16.2812 85.5391C16.7604 85.3151 17.2917 85.2031 17.875 85.2031C19.9479 85.2031 20.9844 86.2578 20.9844 88.3672V94ZM27.3125 94.1562C25.9688 94.1562 24.9167 93.7656 24.1562 92.9844C23.401 92.1979 23.0234 91.1172 23.0234 89.7422C23.0234 88.3307 23.375 87.2214 24.0781 86.4141C24.7812 85.6068 25.7474 85.2031 26.9766 85.2031C28.1172 85.2031 29.0182 85.5495 29.6797 86.2422C30.3411 86.9349 30.6719 87.888 30.6719 89.1016V90.0938H24.9141C24.9401 90.9323 25.1667 91.5781 25.5938 92.0312C26.0208 92.4792 26.6224 92.7031 27.3984 92.7031C27.9089 92.7031 28.3828 92.6562 28.8203 92.5625C29.263 92.4635 29.737 92.3021 30.2422 92.0781V93.5703C29.7943 93.7839 29.3411 93.9349 28.8828 94.0234C28.4245 94.112 27.901 94.1562 27.3125 94.1562ZM26.9766 86.5938C26.3932 86.5938 25.9245 86.7786 25.5703 87.1484C25.2214 87.5182 25.013 88.0573 24.9453 88.7656H28.8672C28.8568 88.0521 28.6849 87.513 28.3516 87.1484C28.0182 86.7786 27.5599 86.5938 26.9766 86.5938ZM38.8516 94L38.5938 92.8672H38.5C38.2448 93.2682 37.8802 93.5833 37.4062 93.8125C36.9375 94.0417 36.401 94.1562 35.7969 94.1562C34.75 94.1562 33.9688 93.8958 33.4531 93.375C32.9375 92.8542 32.6797 92.0651 32.6797 91.0078V85.3594H34.5312V90.6875C34.5312 91.349 34.6667 91.8464 34.9375 92.1797C35.2083 92.5078 35.6328 92.6719 36.2109 92.6719C36.9818 92.6719 37.5469 92.4427 37.9062 91.9844C38.2708 91.5208 38.4531 90.7474 38.4531 89.6641V85.3594H40.2969V94H38.8516ZM46.1328 92.6719C46.5807 92.6719 47.0286 92.6016 47.4766 92.4609V93.8438C47.2734 93.9323 47.0104 94.0052 46.6875 94.0625C46.3698 94.125 46.0391 94.1562 45.6953 94.1562C43.9557 94.1562 43.0859 93.2396 43.0859 91.4062V86.75H41.9062V85.9375L43.1719 85.2656L43.7969 83.4375H44.9297V85.3594H47.3906V86.75H44.9297V91.375C44.9297 91.8177 45.0391 92.1458 45.2578 92.3594C45.4818 92.5677 45.7734 92.6719 46.1328 92.6719ZM53.5938 85.2031C53.9635 85.2031 54.2682 85.2292 54.5078 85.2812L54.3281 86.9922C54.0677 86.9297 53.7969 86.8984 53.5156 86.8984C52.7812 86.8984 52.1849 87.138 51.7266 87.6172C51.2734 88.0964 51.0469 88.7188 51.0469 89.4844V94H49.2109V85.3594H50.6484L50.8906 86.8828H50.9844C51.2708 86.3672 51.6432 85.9583 52.1016 85.6562C52.5651 85.3542 53.0625 85.2031 53.5938 85.2031ZM61.5234 94L61.1562 92.7969H61.0938C60.6771 93.3229 60.2578 93.6823 59.8359 93.875C59.4141 94.0625 58.8724 94.1562 58.2109 94.1562C57.362 94.1562 56.6979 93.9271 56.2188 93.4688C55.7448 93.0104 55.5078 92.362 55.5078 91.5234C55.5078 90.6328 55.8385 89.9609 56.5 89.5078C57.1615 89.0547 58.1693 88.8073 59.5234 88.7656L61.0156 88.7188V88.2578C61.0156 87.7057 60.8854 87.2943 60.625 87.0234C60.3698 86.7474 59.9714 86.6094 59.4297 86.6094C58.987 86.6094 58.5625 86.6745 58.1562 86.8047C57.75 86.9349 57.3594 87.0885 56.9844 87.2656L56.3906 85.9531C56.8594 85.7083 57.3724 85.5234 57.9297 85.3984C58.487 85.2682 59.013 85.2031 59.5078 85.2031C60.6068 85.2031 61.4349 85.4427 61.9922 85.9219C62.5547 86.401 62.8359 87.1536 62.8359 88.1797V94H61.5234ZM58.7891 92.75C59.4557 92.75 59.9896 92.5651 60.3906 92.1953C60.7969 91.8203 61 91.2969 61 90.625V89.875L59.8906 89.9219C59.026 89.9531 58.3958 90.099 58 90.3594C57.6094 90.6146 57.4141 91.0078 57.4141 91.5391C57.4141 91.9245 57.5286 92.224 57.7578 92.4375C57.987 92.6458 58.3307 92.75 58.7891 92.75ZM67.2344 94H65.3984V81.8438H67.2344V94ZM77.7969 94.1562C76.4531 94.1562 75.401 93.7656 74.6406 92.9844C73.8854 92.1979 73.5078 91.1172 73.5078 89.7422C73.5078 88.3307 73.8594 87.2214 74.5625 86.4141C75.2656 85.6068 76.2318 85.2031 77.4609 85.2031C78.6016 85.2031 79.5026 85.5495 80.1641 86.2422C80.8255 86.9349 81.1562 87.888 81.1562 89.1016V90.0938H75.3984C75.4245 90.9323 75.651 91.5781 76.0781 92.0312C76.5052 92.4792 77.1068 92.7031 77.8828 92.7031C78.3932 92.7031 78.8672 92.6562 79.3047 92.5625C79.7474 92.4635 80.2214 92.3021 80.7266 92.0781V93.5703C80.2786 93.7839 79.8255 93.9349 79.3672 94.0234C78.9089 94.112 78.3854 94.1562 77.7969 94.1562ZM77.4609 86.5938C76.8776 86.5938 76.4089 86.7786 76.0547 87.1484C75.7057 87.5182 75.4974 88.0573 75.4297 88.7656H79.3516C79.3411 88.0521 79.1693 87.513 78.8359 87.1484C78.5026 86.7786 78.0443 86.5938 77.4609 86.5938ZM90.8438 94H89V88.6875C89 88.0208 88.8646 87.5234 88.5938 87.1953C88.3281 86.8672 87.9036 86.7031 87.3203 86.7031C86.5443 86.7031 85.9766 86.9323 85.6172 87.3906C85.2578 87.849 85.0781 88.6172 85.0781 89.6953V94H83.2422V85.3594H84.6797L84.9375 86.4922H85.0312C85.2917 86.0807 85.6615 85.763 86.1406 85.5391C86.6198 85.3151 87.151 85.2031 87.7344 85.2031C89.8073 85.2031 90.8438 86.2578 90.8438 88.3672V94ZM95.3672 94L92.0859 85.3594H94.0234L95.7812 90.3828C96.0833 91.2266 96.2656 91.9089 96.3281 92.4297H96.3906C96.4375 92.0547 96.6198 91.3724 96.9375 90.3828L98.6953 85.3594H100.648L97.3516 94H95.3672ZM103.797 94H101.961V85.3594H103.797V94ZM101.852 83.0703C101.852 82.7422 101.94 82.4896 102.117 82.3125C102.299 82.1354 102.557 82.0469 102.891 82.0469C103.214 82.0469 103.464 82.1354 103.641 82.3125C103.823 82.4896 103.914 82.7422 103.914 83.0703C103.914 83.3828 103.823 83.6302 103.641 83.8125C103.464 83.9896 103.214 84.0781 102.891 84.0781C102.557 84.0781 102.299 83.9896 102.117 83.8125C101.94 83.6302 101.852 83.3828 101.852 83.0703ZM110.812 85.2031C111.182 85.2031 111.487 85.2292 111.727 85.2812L111.547 86.9922C111.286 86.9297 111.016 86.8984 110.734 86.8984C110 86.8984 109.404 87.138 108.945 87.6172C108.492 88.0964 108.266 88.7188 108.266 89.4844V94H106.43V85.3594H107.867L108.109 86.8828H108.203C108.49 86.3672 108.862 85.9583 109.32 85.6562C109.784 85.3542 110.281 85.2031 110.812 85.2031ZM121 89.6641C121 91.0755 120.638 92.1771 119.914 92.9688C119.19 93.7604 118.182 94.1562 116.891 94.1562C116.083 94.1562 115.37 93.974 114.75 93.6094C114.13 93.2448 113.654 92.7214 113.32 92.0391C112.987 91.3568 112.82 90.5651 112.82 89.6641C112.82 88.263 113.18 87.1693 113.898 86.3828C114.617 85.5964 115.63 85.2031 116.938 85.2031C118.188 85.2031 119.177 85.6068 119.906 86.4141C120.635 87.2161 121 88.2995 121 89.6641ZM114.711 89.6641C114.711 91.6589 115.448 92.6562 116.922 92.6562C118.38 92.6562 119.109 91.6589 119.109 89.6641C119.109 87.6901 118.375 86.7031 116.906 86.7031C116.135 86.7031 115.576 86.9583 115.227 87.4688C114.883 87.9792 114.711 88.7109 114.711 89.6641ZM130.719 94H128.875V88.6875C128.875 88.0208 128.74 87.5234 128.469 87.1953C128.203 86.8672 127.779 86.7031 127.195 86.7031C126.419 86.7031 125.852 86.9323 125.492 87.3906C125.133 87.849 124.953 88.6172 124.953 89.6953V94H123.117V85.3594H124.555L124.812 86.4922H124.906C125.167 86.0807 125.536 85.763 126.016 85.5391C126.495 85.3151 127.026 85.2031 127.609 85.2031C129.682 85.2031 130.719 86.2578 130.719 88.3672V94ZM140.555 94H138.711V88.6719C138.711 88.0104 138.586 87.5182 138.336 87.1953C138.086 86.8672 137.695 86.7031 137.164 86.7031C136.456 86.7031 135.935 86.9349 135.602 87.3984C135.273 87.8568 135.109 88.6224 135.109 89.6953V94H133.273V85.3594H134.711L134.969 86.4922H135.062C135.302 86.0807 135.648 85.763 136.102 85.5391C136.56 85.3151 137.062 85.2031 137.609 85.2031C138.938 85.2031 139.818 85.6562 140.25 86.5625H140.375C140.63 86.1354 140.99 85.8021 141.453 85.5625C141.917 85.3229 142.448 85.2031 143.047 85.2031C144.078 85.2031 144.828 85.4635 145.297 85.9844C145.771 86.5052 146.008 87.2995 146.008 88.3672V94H144.172V88.6719C144.172 88.0104 144.044 87.5182 143.789 87.1953C143.539 86.8672 143.148 86.7031 142.617 86.7031C141.904 86.7031 141.38 86.9271 141.047 87.375C140.719 87.8177 140.555 88.5 140.555 89.4219V94ZM152.344 94.1562C151 94.1562 149.948 93.7656 149.188 92.9844C148.432 92.1979 148.055 91.1172 148.055 89.7422C148.055 88.3307 148.406 87.2214 149.109 86.4141C149.812 85.6068 150.779 85.2031 152.008 85.2031C153.148 85.2031 154.049 85.5495 154.711 86.2422C155.372 86.9349 155.703 87.888 155.703 89.1016V90.0938H149.945C149.971 90.9323 150.198 91.5781 150.625 92.0312C151.052 92.4792 151.654 92.7031 152.43 92.7031C152.94 92.7031 153.414 92.6562 153.852 92.5625C154.294 92.4635 154.768 92.3021 155.273 92.0781V93.5703C154.826 93.7839 154.372 93.9349 153.914 94.0234C153.456 94.112 152.932 94.1562 152.344 94.1562ZM152.008 86.5938C151.424 86.5938 150.956 86.7786 150.602 87.1484C150.253 87.5182 150.044 88.0573 149.977 88.7656H153.898C153.888 88.0521 153.716 87.513 153.383 87.1484C153.049 86.7786 152.591 86.5938 152.008 86.5938ZM165.391 94H163.547V88.6875C163.547 88.0208 163.411 87.5234 163.141 87.1953C162.875 86.8672 162.451 86.7031 161.867 86.7031C161.091 86.7031 160.523 86.9323 160.164 87.3906C159.805 87.849 159.625 88.6172 159.625 89.6953V94H157.789V85.3594H159.227L159.484 86.4922H159.578C159.839 86.0807 160.208 85.763 160.688 85.5391C161.167 85.3151 161.698 85.2031 162.281 85.2031C164.354 85.2031 165.391 86.2578 165.391 88.3672V94ZM171.164 92.6719C171.612 92.6719 172.06 92.6016 172.508 92.4609V93.8438C172.305 93.9323 172.042 94.0052 171.719 94.0625C171.401 94.125 171.07 94.1562 170.727 94.1562C168.987 94.1562 168.117 93.2396 168.117 91.4062V86.75H166.938V85.9375L168.203 85.2656L168.828 83.4375H169.961V85.3594H172.422V86.75H169.961V91.375C169.961 91.8177 170.07 92.1458 170.289 92.3594C170.513 92.5677 170.805 92.6719 171.164 92.6719Z" fill="black"/>
<path d="M9.53223 134.535C9.96061 134.535 10.3343 134.499 10.6533 134.426V134.973C10.3252 135.082 9.94694 135.137 9.51855 135.137C8.8623 135.137 8.37695 134.961 8.0625 134.61C7.7526 134.259 7.59766 133.708 7.59766 132.956V128.157H6.49707V127.761L7.59766 127.453L7.93945 125.771H8.28809V127.569H10.4688V128.157H8.28809V132.86C8.28809 133.43 8.38835 133.852 8.58887 134.125C8.78939 134.398 9.10384 134.535 9.53223 134.535ZM18.4053 131.274C18.4053 132.487 18.1113 133.435 17.5234 134.118C16.9355 134.797 16.1243 135.137 15.0898 135.137C14.4382 135.137 13.8639 134.979 13.3672 134.665C12.8704 134.351 12.4899 133.899 12.2256 133.312C11.9613 132.724 11.8291 132.045 11.8291 131.274C11.8291 130.062 12.123 129.119 12.7109 128.444C13.2988 127.765 14.1055 127.426 15.1309 127.426C16.1517 127.426 16.9515 127.77 17.5303 128.458C18.1136 129.142 18.4053 130.08 18.4053 131.274ZM12.54 131.274C12.54 132.295 12.7633 133.093 13.21 133.667C13.6611 134.237 14.2969 134.521 15.1172 134.521C15.9375 134.521 16.571 134.237 17.0176 133.667C17.4688 133.093 17.6943 132.295 17.6943 131.274C17.6943 130.249 17.4665 129.454 17.0107 128.889C16.5596 128.324 15.9238 128.041 15.1035 128.041C14.2832 128.041 13.6497 128.324 13.2031 128.889C12.7611 129.449 12.54 130.244 12.54 131.274ZM33.3828 135V130.126C33.3828 129.401 33.2415 128.873 32.959 128.54C32.6764 128.207 32.2435 128.041 31.6602 128.041C30.8991 128.041 30.3363 128.251 29.9717 128.67C29.6071 129.089 29.4248 129.748 29.4248 130.646V135H28.7344V129.921C28.7344 128.668 28.1602 128.041 27.0117 128.041C26.2324 128.041 25.665 128.269 25.3096 128.725C24.9541 129.176 24.7764 129.9 24.7764 130.898V135H24.0996V127.569H24.6602L24.8037 128.588H24.8447C25.0498 128.219 25.3415 127.934 25.7197 127.733C26.098 127.528 26.515 127.426 26.9707 127.426C28.1419 127.426 28.8939 127.866 29.2266 128.745H29.2539C29.4954 128.321 29.819 127.995 30.2246 127.768C30.6348 127.54 31.0996 127.426 31.6191 127.426C32.4303 127.426 33.0387 127.642 33.4443 128.075C33.8499 128.508 34.0527 129.196 34.0527 130.14V135H33.3828ZM40.9707 135L40.7998 133.824H40.7451C40.3714 134.303 39.9863 134.642 39.5898 134.843C39.1979 135.039 38.7331 135.137 38.1953 135.137C37.4661 135.137 36.8988 134.95 36.4932 134.576C36.0876 134.202 35.8848 133.685 35.8848 133.024C35.8848 132.3 36.1855 131.737 36.7871 131.336C37.3932 130.935 38.2682 130.723 39.4121 130.7L40.8271 130.659V130.167C40.8271 129.461 40.6836 128.927 40.3965 128.567C40.1094 128.207 39.6468 128.027 39.0088 128.027C38.3206 128.027 37.6074 128.219 36.8691 128.602L36.6162 128.014C37.432 127.631 38.2386 127.439 39.0361 127.439C39.8519 127.439 40.4603 127.651 40.8613 128.075C41.2669 128.499 41.4697 129.16 41.4697 130.058V135H40.9707ZM38.2363 134.521C39.0293 134.521 39.6536 134.296 40.1094 133.845C40.5697 133.389 40.7998 132.758 40.7998 131.951V131.22L39.501 131.274C38.4574 131.325 37.7122 131.489 37.2656 131.767C36.8236 132.04 36.6025 132.468 36.6025 133.052C36.6025 133.517 36.7438 133.879 37.0264 134.139C37.3135 134.394 37.7168 134.521 38.2363 134.521ZM44.5459 131.739L48.3398 127.569H49.1602L46.2344 130.741L49.4131 135H48.5996L45.7764 131.247L44.5596 132.354V135H43.8828V124.363H44.5596V129.695L44.5117 131.739H44.5459ZM53.665 135.137C52.585 135.137 51.7419 134.804 51.1357 134.139C50.5342 133.473 50.2334 132.541 50.2334 131.343C50.2334 130.158 50.5251 129.21 51.1084 128.499C51.6917 127.784 52.4779 127.426 53.4668 127.426C54.3418 127.426 55.0322 127.731 55.5381 128.342C56.0439 128.952 56.2969 129.782 56.2969 130.83V131.377H50.9443C50.9535 132.398 51.1904 133.177 51.6553 133.715C52.1247 134.253 52.7946 134.521 53.665 134.521C54.0889 134.521 54.4603 134.492 54.7793 134.433C55.1029 134.373 55.5107 134.246 56.0029 134.05V134.665C55.5837 134.847 55.1963 134.97 54.8408 135.034C54.4854 135.103 54.0934 135.137 53.665 135.137ZM53.4668 128.027C52.7513 128.027 52.1771 128.264 51.7441 128.738C51.3112 129.208 51.0583 129.887 50.9854 130.775H55.5791C55.5791 129.914 55.3923 129.242 55.0186 128.759C54.6449 128.271 54.1276 128.027 53.4668 128.027ZM62.5723 127.569V132.382C62.5723 133.129 62.7295 133.674 63.0439 134.016C63.3584 134.353 63.846 134.521 64.5068 134.521C65.391 134.521 66.0404 134.298 66.4551 133.852C66.8743 133.405 67.084 132.678 67.084 131.671V127.569H67.7539V135H67.1797L67.0566 133.975H67.0156C66.5326 134.749 65.6735 135.137 64.4385 135.137C62.7477 135.137 61.9023 134.232 61.9023 132.423V127.569H62.5723ZM74.8496 133.065C74.8496 133.731 74.5967 134.243 74.0908 134.604C73.585 134.959 72.8672 135.137 71.9375 135.137C70.944 135.137 70.1556 134.984 69.5723 134.679V133.947C70.3197 134.321 71.1081 134.508 71.9375 134.508C72.6712 134.508 73.2272 134.387 73.6055 134.146C73.9883 133.899 74.1797 133.574 74.1797 133.168C74.1797 132.794 74.027 132.48 73.7217 132.225C73.4209 131.969 72.9242 131.719 72.2314 131.473C71.4886 131.204 70.9668 130.974 70.666 130.782C70.3652 130.586 70.1374 130.368 69.9824 130.126C69.832 129.88 69.7568 129.581 69.7568 129.23C69.7568 128.674 69.9893 128.235 70.4541 127.911C70.9235 127.588 71.5775 127.426 72.416 127.426C73.2181 127.426 73.9792 127.576 74.6992 127.877L74.4463 128.492C73.7171 128.191 73.0404 128.041 72.416 128.041C71.8099 128.041 71.3291 128.141 70.9736 128.342C70.6182 128.542 70.4404 128.82 70.4404 129.176C70.4404 129.563 70.5771 129.873 70.8506 130.105C71.1286 130.338 71.6686 130.598 72.4707 130.885C73.1406 131.126 73.6283 131.345 73.9336 131.541C74.2389 131.732 74.4668 131.951 74.6172 132.197C74.7721 132.443 74.8496 132.733 74.8496 133.065ZM79.7646 135.137C78.6846 135.137 77.8415 134.804 77.2354 134.139C76.6338 133.473 76.333 132.541 76.333 131.343C76.333 130.158 76.6247 129.21 77.208 128.499C77.7913 127.784 78.5775 127.426 79.5664 127.426C80.4414 127.426 81.1318 127.731 81.6377 128.342C82.1436 128.952 82.3965 129.782 82.3965 130.83V131.377H77.0439C77.0531 132.398 77.29 133.177 77.7549 133.715C78.2243 134.253 78.8942 134.521 79.7646 134.521C80.1885 134.521 80.5599 134.492 80.8789 134.433C81.2025 134.373 81.6104 134.246 82.1025 134.05V134.665C81.6833 134.847 81.2959 134.97 80.9404 135.034C80.585 135.103 80.193 135.137 79.7646 135.137ZM79.5664 128.027C78.8509 128.027 78.2767 128.264 77.8438 128.738C77.4108 129.208 77.1579 129.887 77.085 130.775H81.6787C81.6787 129.914 81.4919 129.242 81.1182 128.759C80.7445 128.271 80.2272 128.027 79.5664 128.027ZM87.373 127.426C87.6875 127.426 88.0247 127.458 88.3848 127.521L88.2549 128.171C87.945 128.093 87.6237 128.055 87.291 128.055C86.6576 128.055 86.138 128.324 85.7324 128.861C85.3268 129.399 85.124 130.078 85.124 130.898V135H84.4473V127.569H85.0215L85.0898 128.909H85.1377C85.443 128.362 85.7689 127.979 86.1152 127.761C86.4616 127.537 86.8809 127.426 87.373 127.426ZM94.5098 133.065C94.5098 133.731 94.2568 134.243 93.751 134.604C93.2451 134.959 92.5273 135.137 91.5977 135.137C90.6042 135.137 89.8158 134.984 89.2324 134.679V133.947C89.9798 134.321 90.7682 134.508 91.5977 134.508C92.3314 134.508 92.8874 134.387 93.2656 134.146C93.6484 133.899 93.8398 133.574 93.8398 133.168C93.8398 132.794 93.6872 132.48 93.3818 132.225C93.0811 131.969 92.5843 131.719 91.8916 131.473C91.1488 131.204 90.627 130.974 90.3262 130.782C90.0254 130.586 89.7975 130.368 89.6426 130.126C89.4922 129.88 89.417 129.581 89.417 129.23C89.417 128.674 89.6494 128.235 90.1143 127.911C90.5837 127.588 91.2376 127.426 92.0762 127.426C92.8783 127.426 93.6393 127.576 94.3594 127.877L94.1064 128.492C93.3773 128.191 92.7005 128.041 92.0762 128.041C91.4701 128.041 90.9893 128.141 90.6338 128.342C90.2783 128.542 90.1006 128.82 90.1006 129.176C90.1006 129.563 90.2373 129.873 90.5107 130.105C90.7887 130.338 91.3288 130.598 92.1309 130.885C92.8008 131.126 93.2884 131.345 93.5938 131.541C93.8991 131.732 94.127 131.951 94.2773 132.197C94.4323 132.443 94.5098 132.733 94.5098 133.065ZM102.822 128.157H101.072V135H100.396V128.157H99.0146V127.761L100.396 127.508V126.934C100.396 126.022 100.562 125.354 100.895 124.931C101.232 124.502 101.781 124.288 102.542 124.288C102.952 124.288 103.362 124.35 103.772 124.473L103.615 125.061C103.251 124.947 102.888 124.89 102.528 124.89C102 124.89 101.624 125.047 101.4 125.361C101.182 125.671 101.072 126.177 101.072 126.879V127.569H102.822V128.157ZM107.259 135.137C106.179 135.137 105.336 134.804 104.729 134.139C104.128 133.473 103.827 132.541 103.827 131.343C103.827 130.158 104.119 129.21 104.702 128.499C105.285 127.784 106.072 127.426 107.061 127.426C107.936 127.426 108.626 127.731 109.132 128.342C109.638 128.952 109.891 129.782 109.891 130.83V131.377H104.538C104.547 132.398 104.784 133.177 105.249 133.715C105.718 134.253 106.388 134.521 107.259 134.521C107.683 134.521 108.054 134.492 108.373 134.433C108.697 134.373 109.104 134.246 109.597 134.05V134.665C109.177 134.847 108.79 134.97 108.435 135.034C108.079 135.103 107.687 135.137 107.259 135.137ZM107.061 128.027C106.345 128.027 105.771 128.264 105.338 128.738C104.905 129.208 104.652 129.887 104.579 130.775H109.173C109.173 129.914 108.986 129.242 108.612 128.759C108.239 128.271 107.721 128.027 107.061 128.027ZM114.942 135.137C113.862 135.137 113.019 134.804 112.413 134.139C111.812 133.473 111.511 132.541 111.511 131.343C111.511 130.158 111.802 129.21 112.386 128.499C112.969 127.784 113.755 127.426 114.744 127.426C115.619 127.426 116.31 127.731 116.815 128.342C117.321 128.952 117.574 129.782 117.574 130.83V131.377H112.222C112.231 132.398 112.468 133.177 112.933 133.715C113.402 134.253 114.072 134.521 114.942 134.521C115.366 134.521 115.738 134.492 116.057 134.433C116.38 134.373 116.788 134.246 117.28 134.05V134.665C116.861 134.847 116.474 134.97 116.118 135.034C115.763 135.103 115.371 135.137 114.942 135.137ZM114.744 128.027C114.029 128.027 113.454 128.264 113.021 128.738C112.589 129.208 112.336 129.887 112.263 130.775H116.856C116.856 129.914 116.67 129.242 116.296 128.759C115.922 128.271 115.405 128.027 114.744 128.027ZM120.302 135H119.625V124.363H120.302V135ZM131.041 133.065C131.041 133.731 130.788 134.243 130.282 134.604C129.776 134.959 129.059 135.137 128.129 135.137C127.135 135.137 126.347 134.984 125.764 134.679V133.947C126.511 134.321 127.299 134.508 128.129 134.508C128.863 134.508 129.419 134.387 129.797 134.146C130.18 133.899 130.371 133.574 130.371 133.168C130.371 132.794 130.218 132.48 129.913 132.225C129.612 131.969 129.116 131.719 128.423 131.473C127.68 131.204 127.158 130.974 126.857 130.782C126.557 130.586 126.329 130.368 126.174 130.126C126.023 129.88 125.948 129.581 125.948 129.23C125.948 128.674 126.181 128.235 126.646 127.911C127.115 127.588 127.769 127.426 128.607 127.426C129.41 127.426 130.171 127.576 130.891 127.877L130.638 128.492C129.909 128.191 129.232 128.041 128.607 128.041C128.001 128.041 127.521 128.141 127.165 128.342C126.81 128.542 126.632 128.82 126.632 129.176C126.632 129.563 126.769 129.873 127.042 130.105C127.32 130.338 127.86 130.598 128.662 130.885C129.332 131.126 129.82 131.345 130.125 131.541C130.43 131.732 130.658 131.951 130.809 132.197C130.964 132.443 131.041 132.733 131.041 133.065ZM137.467 135L137.296 133.824H137.241C136.868 134.303 136.482 134.642 136.086 134.843C135.694 135.039 135.229 135.137 134.691 135.137C133.962 135.137 133.395 134.95 132.989 134.576C132.584 134.202 132.381 133.685 132.381 133.024C132.381 132.3 132.682 131.737 133.283 131.336C133.889 130.935 134.764 130.723 135.908 130.7L137.323 130.659V130.167C137.323 129.461 137.18 128.927 136.893 128.567C136.605 128.207 136.143 128.027 135.505 128.027C134.817 128.027 134.104 128.219 133.365 128.602L133.112 128.014C133.928 127.631 134.735 127.439 135.532 127.439C136.348 127.439 136.956 127.651 137.357 128.075C137.763 128.499 137.966 129.16 137.966 130.058V135H137.467ZM134.732 134.521C135.525 134.521 136.15 134.296 136.605 133.845C137.066 133.389 137.296 132.758 137.296 131.951V131.22L135.997 131.274C134.953 131.325 134.208 131.489 133.762 131.767C133.32 132.04 133.099 132.468 133.099 133.052C133.099 133.517 133.24 133.879 133.522 134.139C133.81 134.394 134.213 134.521 134.732 134.521ZM143.141 128.157H141.391V135H140.714V128.157H139.333V127.761L140.714 127.508V126.934C140.714 126.022 140.88 125.354 141.213 124.931C141.55 124.502 142.099 124.288 142.86 124.288C143.271 124.288 143.681 124.35 144.091 124.473L143.934 125.061C143.569 124.947 143.207 124.89 142.847 124.89C142.318 124.89 141.942 125.047 141.719 125.361C141.5 125.671 141.391 126.177 141.391 126.879V127.569H143.141V128.157ZM147.577 135.137C146.497 135.137 145.654 134.804 145.048 134.139C144.446 133.473 144.146 132.541 144.146 131.343C144.146 130.158 144.437 129.21 145.021 128.499C145.604 127.784 146.39 127.426 147.379 127.426C148.254 127.426 148.944 127.731 149.45 128.342C149.956 128.952 150.209 129.782 150.209 130.83V131.377H144.856C144.866 132.398 145.103 133.177 145.567 133.715C146.037 134.253 146.707 134.521 147.577 134.521C148.001 134.521 148.372 134.492 148.691 134.433C149.015 134.373 149.423 134.246 149.915 134.05V134.665C149.496 134.847 149.108 134.97 148.753 135.034C148.397 135.103 148.006 135.137 147.577 135.137ZM147.379 128.027C146.663 128.027 146.089 128.264 145.656 128.738C145.223 129.208 144.97 129.887 144.897 130.775H149.491C149.491 129.914 149.304 129.242 148.931 128.759C148.557 128.271 148.04 128.027 147.379 128.027ZM160.408 135L160.237 133.824H160.183C159.809 134.303 159.424 134.642 159.027 134.843C158.635 135.039 158.171 135.137 157.633 135.137C156.904 135.137 156.336 134.95 155.931 134.576C155.525 134.202 155.322 133.685 155.322 133.024C155.322 132.3 155.623 131.737 156.225 131.336C156.831 130.935 157.706 130.723 158.85 130.7L160.265 130.659V130.167C160.265 129.461 160.121 128.927 159.834 128.567C159.547 128.207 159.084 128.027 158.446 128.027C157.758 128.027 157.045 128.219 156.307 128.602L156.054 128.014C156.869 127.631 157.676 127.439 158.474 127.439C159.289 127.439 159.898 127.651 160.299 128.075C160.704 128.499 160.907 129.16 160.907 130.058V135H160.408ZM157.674 134.521C158.467 134.521 159.091 134.296 159.547 133.845C160.007 133.389 160.237 132.758 160.237 131.951V131.22L158.938 131.274C157.895 131.325 157.15 131.489 156.703 131.767C156.261 132.04 156.04 132.468 156.04 133.052C156.04 133.517 156.181 133.879 156.464 134.139C156.751 134.394 157.154 134.521 157.674 134.521ZM168.502 135V130.181C168.502 129.433 168.345 128.891 168.03 128.554C167.716 128.212 167.228 128.041 166.567 128.041C165.679 128.041 165.027 128.267 164.612 128.718C164.202 129.164 163.997 129.891 163.997 130.898V135H163.32V127.569H163.895L164.024 128.588H164.065C164.549 127.813 165.408 127.426 166.643 127.426C168.329 127.426 169.172 128.33 169.172 130.14V135H168.502ZM174.299 127.426C174.837 127.426 175.301 127.524 175.693 127.72C176.085 127.916 176.436 128.251 176.746 128.725H176.787C176.76 128.15 176.746 127.588 176.746 127.036V124.363H177.416V135H176.972L176.801 133.865H176.746C176.181 134.713 175.37 135.137 174.312 135.137C173.287 135.137 172.503 134.818 171.961 134.18C171.419 133.542 171.147 132.612 171.147 131.391C171.147 130.105 171.416 129.123 171.954 128.444C172.492 127.765 173.273 127.426 174.299 127.426ZM174.299 128.041C173.488 128.041 172.877 128.326 172.467 128.896C172.061 129.465 171.858 130.292 171.858 131.377C171.858 133.482 172.676 134.535 174.312 134.535C175.151 134.535 175.766 134.291 176.158 133.804C176.55 133.316 176.746 132.512 176.746 131.391V131.274C176.746 130.126 176.552 129.301 176.165 128.8C175.782 128.294 175.16 128.041 174.299 128.041ZM47.7178 155H47.041V144.363H47.7178V155ZM53.2139 155.137C52.1338 155.137 51.2907 154.804 50.6846 154.139C50.083 153.473 49.7822 152.541 49.7822 151.343C49.7822 150.158 50.0739 149.21 50.6572 148.499C51.2406 147.784 52.0267 147.426 53.0156 147.426C53.8906 147.426 54.5811 147.731 55.0869 148.342C55.5928 148.952 55.8457 149.782 55.8457 150.83V151.377H50.4932C50.5023 152.398 50.7393 153.177 51.2041 153.715C51.6735 154.253 52.3434 154.521 53.2139 154.521C53.6377 154.521 54.0091 154.492 54.3281 154.433C54.6517 154.373 55.0596 154.246 55.5518 154.05V154.665C55.1325 154.847 54.7451 154.97 54.3896 155.034C54.0342 155.103 53.6423 155.137 53.2139 155.137ZM53.0156 148.027C52.3001 148.027 51.7259 148.264 51.293 148.738C50.86 149.208 50.6071 149.887 50.5342 150.775H55.1279C55.1279 149.914 54.9411 149.242 54.5674 148.759C54.1937 148.271 53.6764 148.027 53.0156 148.027ZM62.5039 153.065C62.5039 153.731 62.251 154.243 61.7451 154.604C61.2393 154.959 60.5215 155.137 59.5918 155.137C58.5983 155.137 57.8099 154.984 57.2266 154.679V153.947C57.974 154.321 58.7624 154.508 59.5918 154.508C60.3255 154.508 60.8815 154.387 61.2598 154.146C61.6426 153.899 61.834 153.574 61.834 153.168C61.834 152.794 61.6813 152.48 61.376 152.225C61.0752 151.969 60.5785 151.719 59.8857 151.473C59.1429 151.204 58.6211 150.974 58.3203 150.782C58.0195 150.586 57.7917 150.368 57.6367 150.126C57.4863 149.88 57.4111 149.581 57.4111 149.23C57.4111 148.674 57.6436 148.235 58.1084 147.911C58.5778 147.588 59.2318 147.426 60.0703 147.426C60.8724 147.426 61.6335 147.576 62.3535 147.877L62.1006 148.492C61.3714 148.191 60.6947 148.041 60.0703 148.041C59.4642 148.041 58.9834 148.141 58.6279 148.342C58.2725 148.542 58.0947 148.82 58.0947 149.176C58.0947 149.563 58.2314 149.873 58.5049 150.105C58.7829 150.338 59.3229 150.598 60.125 150.885C60.7949 151.126 61.2826 151.345 61.5879 151.541C61.8932 151.732 62.1211 151.951 62.2715 152.197C62.4264 152.443 62.5039 152.733 62.5039 153.065ZM69.0254 153.065C69.0254 153.731 68.7725 154.243 68.2666 154.604C67.7607 154.959 67.043 155.137 66.1133 155.137C65.1198 155.137 64.3314 154.984 63.748 154.679V153.947C64.4954 154.321 65.2839 154.508 66.1133 154.508C66.847 154.508 67.403 154.387 67.7812 154.146C68.1641 153.899 68.3555 153.574 68.3555 153.168C68.3555 152.794 68.2028 152.48 67.8975 152.225C67.5967 151.969 67.0999 151.719 66.4072 151.473C65.6644 151.204 65.1426 150.974 64.8418 150.782C64.541 150.586 64.3132 150.368 64.1582 150.126C64.0078 149.88 63.9326 149.581 63.9326 149.23C63.9326 148.674 64.165 148.235 64.6299 147.911C65.0993 147.588 65.7533 147.426 66.5918 147.426C67.3939 147.426 68.1549 147.576 68.875 147.877L68.6221 148.492C67.8929 148.191 67.2161 148.041 66.5918 148.041C65.9857 148.041 65.5049 148.141 65.1494 148.342C64.7939 148.542 64.6162 148.82 64.6162 149.176C64.6162 149.563 64.7529 149.873 65.0264 150.105C65.3044 150.338 65.8444 150.598 66.6465 150.885C67.3164 151.126 67.804 151.345 68.1094 151.541C68.4147 151.732 68.6426 151.951 68.793 152.197C68.9479 152.443 69.0254 152.733 69.0254 153.065ZM76.2031 155L73.332 147.569H74.0293L75.9502 152.621C76.2054 153.268 76.3968 153.833 76.5244 154.316H76.5654C76.7523 153.697 76.9437 153.127 77.1396 152.607L79.0605 147.569H79.7578L76.8867 155H76.2031ZM81.5898 147.569V152.382C81.5898 153.129 81.7471 153.674 82.0615 154.016C82.376 154.353 82.8636 154.521 83.5244 154.521C84.4085 154.521 85.0579 154.298 85.4727 153.852C85.8919 153.405 86.1016 152.678 86.1016 151.671V147.569H86.7715V155H86.1973L86.0742 153.975H86.0332C85.5501 154.749 84.6911 155.137 83.4561 155.137C81.7653 155.137 80.9199 154.232 80.9199 152.423V147.569H81.5898ZM89.9365 155H89.2598V144.363H89.9365V155ZM97.6133 155V150.181C97.6133 149.433 97.4561 148.891 97.1416 148.554C96.8271 148.212 96.3395 148.041 95.6787 148.041C94.79 148.041 94.1383 148.267 93.7236 148.718C93.3135 149.164 93.1084 149.891 93.1084 150.898V155H92.4316V147.569H93.0059L93.1357 148.588H93.1768C93.6598 147.813 94.5189 147.426 95.7539 147.426C97.4401 147.426 98.2832 148.33 98.2832 150.14V155H97.6133ZM103.69 155.137C102.61 155.137 101.767 154.804 101.161 154.139C100.56 153.473 100.259 152.541 100.259 151.343C100.259 150.158 100.55 149.21 101.134 148.499C101.717 147.784 102.503 147.426 103.492 147.426C104.367 147.426 105.058 147.731 105.563 148.342C106.069 148.952 106.322 149.782 106.322 150.83V151.377H100.97C100.979 152.398 101.216 153.177 101.681 153.715C102.15 154.253 102.82 154.521 103.69 154.521C104.114 154.521 104.486 154.492 104.805 154.433C105.128 154.373 105.536 154.246 106.028 154.05V154.665C105.609 154.847 105.222 154.97 104.866 155.034C104.511 155.103 104.119 155.137 103.69 155.137ZM103.492 148.027C102.777 148.027 102.202 148.264 101.77 148.738C101.337 149.208 101.084 149.887 101.011 150.775H105.604C105.604 149.914 105.418 149.242 105.044 148.759C104.67 148.271 104.153 148.027 103.492 148.027ZM111.299 147.426C111.613 147.426 111.951 147.458 112.311 147.521L112.181 148.171C111.871 148.093 111.549 148.055 111.217 148.055C110.583 148.055 110.064 148.324 109.658 148.861C109.253 149.399 109.05 150.078 109.05 150.898V155H108.373V147.569H108.947L109.016 148.909H109.063C109.369 148.362 109.695 147.979 110.041 147.761C110.387 147.537 110.807 147.426 111.299 147.426ZM118.34 155L118.169 153.824H118.114C117.741 154.303 117.355 154.642 116.959 154.843C116.567 155.039 116.102 155.137 115.564 155.137C114.835 155.137 114.268 154.95 113.862 154.576C113.457 154.202 113.254 153.685 113.254 153.024C113.254 152.3 113.555 151.737 114.156 151.336C114.762 150.935 115.637 150.723 116.781 150.7L118.196 150.659V150.167C118.196 149.461 118.053 148.927 117.766 148.567C117.479 148.207 117.016 148.027 116.378 148.027C115.69 148.027 114.977 148.219 114.238 148.602L113.985 148.014C114.801 147.631 115.608 147.439 116.405 147.439C117.221 147.439 117.829 147.651 118.23 148.075C118.636 148.499 118.839 149.16 118.839 150.058V155H118.34ZM115.605 154.521C116.398 154.521 117.023 154.296 117.479 153.845C117.939 153.389 118.169 152.758 118.169 151.951V151.22L116.87 151.274C115.826 151.325 115.081 151.489 114.635 151.767C114.193 152.04 113.972 152.468 113.972 153.052C113.972 153.517 114.113 153.879 114.396 154.139C114.683 154.394 115.086 154.521 115.605 154.521ZM124.39 147.426C125.429 147.426 126.21 147.754 126.734 148.41C127.263 149.062 127.527 150.017 127.527 151.274C127.527 152.509 127.249 153.462 126.693 154.132C126.142 154.802 125.365 155.137 124.362 155.137C123.834 155.137 123.357 155.027 122.934 154.809C122.51 154.59 122.175 154.28 121.929 153.879H121.867L121.676 155H121.252V144.363H121.929V147.036C121.929 147.437 121.92 147.806 121.901 148.144L121.881 148.725H121.929C122.211 148.278 122.551 147.95 122.947 147.74C123.348 147.531 123.829 147.426 124.39 147.426ZM124.376 148.041C123.501 148.041 122.874 148.292 122.496 148.793C122.118 149.294 121.929 150.121 121.929 151.274V151.391C121.929 152.512 122.125 153.316 122.517 153.804C122.913 154.291 123.528 154.535 124.362 154.535C125.174 154.535 125.784 154.253 126.194 153.688C126.604 153.118 126.81 152.309 126.81 151.261C126.81 149.114 125.998 148.041 124.376 148.041ZM130.269 155H129.592V144.363H130.269V155ZM135.765 155.137C134.685 155.137 133.841 154.804 133.235 154.139C132.634 153.473 132.333 152.541 132.333 151.343C132.333 150.158 132.625 149.21 133.208 148.499C133.791 147.784 134.577 147.426 135.566 147.426C136.441 147.426 137.132 147.731 137.638 148.342C138.144 148.952 138.396 149.782 138.396 150.83V151.377H133.044C133.053 152.398 133.29 153.177 133.755 153.715C134.224 154.253 134.894 154.521 135.765 154.521C136.188 154.521 136.56 154.492 136.879 154.433C137.202 154.373 137.61 154.246 138.103 154.05V154.665C137.683 154.847 137.296 154.97 136.94 155.034C136.585 155.103 136.193 155.137 135.765 155.137ZM135.566 148.027C134.851 148.027 134.277 148.264 133.844 148.738C133.411 149.208 133.158 149.887 133.085 150.775H137.679C137.679 149.914 137.492 149.242 137.118 148.759C136.744 148.271 136.227 148.027 135.566 148.027Z" fill="black"/>
<rect x="11" y="109" width="165" height="1" fill="#323232"/>
<defs>
<clipPath id="clip0">
<rect width="48" height="48" fill="white" transform="translate(68)"/>
</clipPath>
</defs>
</svg>
