<svg width="185" height="185" viewBox="0 0 185 185" fill="none" xmlns="http://www.w3.org/2000/svg">
<path d="M97.3154 21.7451C96.9285 22.11 96.6841 22.6019 96.6299 23.1424C96.5618 23.82 96.8017 24.4819 97.2881 24.9584C98.4427 26.09 100.322 26.0902 101.476 24.9584C101.963 24.4818 102.203 23.8198 102.135 23.1422C102.08 22.6017 101.836 22.1099 101.449 21.745V21.2746H109.093C109.662 21.2746 110.126 20.8115 110.126 20.2422V4.27531C110.126 1.92272 108.212 0.00878906 105.859 0.00878906H73.2665C70.9139 0.00878906 69 1.92272 69 4.27531V36.8678C69 39.2204 70.9139 41.1343 73.2665 41.1343H89.1294C89.7561 41.1343 90.2659 40.6245 90.2659 39.9978V32.6596C90.2659 31.8502 89.6075 31.1917 88.7981 31.1917H88.0509C87.8126 31.1917 87.5905 31.3125 87.4608 31.5124C87.3239 31.7236 87.1018 31.8591 86.8514 31.8843C86.6007 31.9092 86.3564 31.8208 86.1803 31.6411C85.5805 31.0291 85.5805 30.0333 86.1803 29.4213C86.3563 29.2416 86.6006 29.1528 86.8514 29.178C87.1018 29.2032 87.3239 29.3387 87.4608 29.5499C87.5905 29.7499 87.8126 29.8707 88.0509 29.8707H88.7981C89.6075 29.8707 90.2659 29.2123 90.2659 28.4028V21.2746H97.3154V21.7451ZM88.7981 28.4644H88.3893C88.0244 28.0776 87.5326 27.8332 86.9921 27.7789C86.3143 27.7107 85.6525 27.9507 85.176 28.4371C84.0442 29.5919 84.0442 31.4707 85.176 32.6255C85.6525 33.1118 86.3144 33.3516 86.9921 33.2837C87.5326 33.2294 88.0245 32.9849 88.3893 32.5982H88.7981C88.832 32.5982 88.8597 32.6257 88.8597 32.6598V39.7282H73.2665C71.6894 39.728 70.4063 38.445 70.4063 36.8679V21.2747H77.4747C78.2841 21.2747 78.9425 20.6163 78.9425 19.807V19.0597C78.9425 18.8214 78.8217 18.5993 78.6218 18.4697C78.4106 18.3328 78.2751 18.1107 78.2499 17.8603C78.2247 17.6099 78.3134 17.3652 78.4931 17.1891C79.1052 16.5893 80.1011 16.5894 80.7129 17.1891C80.8927 17.3653 80.9813 17.61 80.9563 17.8604C80.931 18.1108 80.7955 18.3329 80.5844 18.4698C80.3844 18.5993 80.2636 18.8214 80.2636 19.0598V19.8071C80.2636 20.6164 80.922 21.2748 81.7315 21.2748H84.4182C84.8066 21.2748 85.1213 20.96 85.1213 20.5717C85.1213 20.1834 84.8066 19.8686 84.4182 19.8686H81.7315C81.6976 19.8686 81.6699 19.841 81.6699 19.8071V19.3982C82.0567 19.0333 82.3011 18.5415 82.3554 18.0009C82.4235 17.3234 82.1836 16.6614 81.6972 16.1848C80.5426 15.0533 78.6638 15.0531 77.5088 16.1848C77.0224 16.6614 76.7826 17.3234 76.8505 18.0009C76.9048 18.5415 77.1493 19.0333 77.536 19.3982V19.8071C77.536 19.841 77.5085 19.8686 77.4745 19.8686H70.4063V4.27531C70.4063 2.69813 71.6894 1.41506 73.2665 1.41506H88.8597V8.92602C88.8597 9.56868 89.3825 10.0916 90.0253 10.0916H91.0747C91.313 10.0916 91.5351 9.97087 91.6648 9.7709C91.8017 9.55978 92.0238 9.42421 92.2742 9.39899C92.525 9.37387 92.7692 9.46256 92.9453 9.64228C93.545 10.2543 93.545 11.25 92.9453 11.862C92.7693 12.0417 92.5249 12.1302 92.2742 12.1053C92.0238 12.0802 91.8017 11.9446 91.6648 11.7334C91.5351 11.5334 91.313 11.4127 91.0747 11.4127H90.0253C89.3826 11.4127 88.8597 11.9356 88.8597 12.5783V19.8684H87.4148C87.0264 19.8684 86.7116 20.1832 86.7116 20.5715C86.7116 20.9598 87.0264 21.2746 87.4148 21.2746H88.8597V28.4028C88.8597 28.4368 88.832 28.4644 88.7981 28.4644ZM90.2659 19.8685V12.819H90.7364C91.1013 13.2058 91.5931 13.4503 92.1336 13.5045C92.8113 13.5723 93.4731 13.3327 93.9497 12.8463C95.0813 11.6916 95.0813 9.81272 93.9497 8.65798C93.4732 8.1716 92.8113 7.9316 92.1336 7.99976C91.5931 8.05404 91.1012 8.29854 90.7364 8.68527H90.2659V1.41506H105.859C107.436 1.41506 108.719 2.69813 108.719 4.27531V19.8685H101.208C100.566 19.8685 100.043 20.3914 100.043 21.0341V22.0835C100.043 22.3218 100.163 22.5439 100.363 22.6736C100.575 22.8105 100.71 23.0326 100.735 23.283C100.761 23.5334 100.672 23.778 100.492 23.9541C99.8799 24.554 98.8843 24.5538 98.2722 23.9541C98.0925 23.7781 98.0039 23.5335 98.029 23.2831C98.0541 23.0327 98.1897 22.8105 98.4009 22.6736C98.6009 22.544 98.7216 22.3219 98.7216 22.0836V21.0342C98.7216 20.3915 98.1987 19.8686 97.5559 19.8686H90.2659V19.8685Z" fill="black"/>
<path d="M116.25 26.7247H108.083C107.44 26.7247 106.917 27.2476 106.917 27.8903V28.9397C106.917 29.178 107.038 29.4001 107.238 29.5296C107.449 29.6665 107.585 29.8887 107.61 30.1391C107.635 30.3895 107.546 30.6341 107.367 30.8103C106.755 31.4099 105.759 31.4101 105.147 30.8103C104.967 30.6341 104.878 30.3894 104.904 30.139C104.929 29.8886 105.064 29.6665 105.275 29.5296C105.475 29.4 105.596 29.1779 105.596 28.9396V27.8902C105.596 27.2476 105.073 26.7246 104.43 26.7246H96.4841C96.0706 26.7246 95.7341 27.0611 95.7341 27.4746V29.8108C95.7341 30.1991 96.0488 30.5139 96.4372 30.5139C96.8256 30.5139 97.1404 30.1991 97.1404 29.8108V28.1309H104.19V28.6012C103.803 28.9661 103.559 29.4579 103.504 29.9985C103.436 30.676 103.676 31.338 104.163 31.8146C105.317 32.9464 107.196 32.9463 108.351 31.8146C108.837 31.3381 109.077 30.6761 109.009 29.9986C108.955 29.4579 108.71 28.9661 108.324 28.6012V28.1309H115.594V43.724C115.594 45.3012 114.311 46.5843 112.734 46.5843H97.1405V39.5158C97.1405 38.7065 96.482 38.0481 95.6726 38.0481H94.9254C94.6871 38.0481 94.465 38.1688 94.3353 38.3688C94.1985 38.5799 93.9764 38.7155 93.7259 38.7406C93.4765 38.7659 93.2308 38.6771 93.0547 38.4973C92.455 37.8853 92.4551 36.8896 93.0548 36.2776C93.2309 36.0978 93.4761 36.0095 93.7259 36.0343C93.9764 36.0594 94.1985 36.195 94.3353 36.4061C94.465 36.6061 94.6871 36.7268 94.9254 36.7268H95.6726C96.482 36.7268 97.1405 36.0684 97.1405 35.2591V32.8075C97.1405 32.4191 96.8257 32.1043 96.4373 32.1043C96.0489 32.1043 95.7342 32.4191 95.7342 32.8075V35.2591C95.7342 35.293 95.7065 35.3206 95.6726 35.3206H95.2638C94.899 34.9337 94.4071 34.6893 93.8667 34.635C93.1889 34.567 92.5272 34.8068 92.0504 35.2933C90.9188 36.448 90.9189 38.3269 92.0505 39.4816C92.5271 39.968 93.1888 40.2076 93.8666 40.1398C94.4072 40.0855 94.8991 39.8411 95.2638 39.4543H95.6726C95.7065 39.4543 95.7342 39.4819 95.7342 39.5158V46.7763C95.7342 47.4459 96.279 47.9906 96.9485 47.9906H112.734C115.086 47.9906 117 46.0767 117 43.7241V27.4747C117 27.0612 116.664 26.7247 116.25 26.7247Z" fill="black"/>
<path d="M11.6328 64.0156C10.5599 64.0156 9.71615 64.3958 9.10156 65.1562C8.48698 65.9167 8.17969 66.9661 8.17969 68.3047C8.17969 69.7057 8.47396 70.7656 9.0625 71.4844C9.65625 72.2031 10.513 72.5625 11.6328 72.5625C12.1172 72.5625 12.5859 72.5156 13.0391 72.4219C13.4922 72.3229 13.9635 72.1979 14.4531 72.0469V73.6484C13.5573 73.987 12.5417 74.1562 11.4062 74.1562C9.73438 74.1562 8.45052 73.651 7.55469 72.6406C6.65885 71.625 6.21094 70.1745 6.21094 68.2891C6.21094 67.1016 6.42708 66.0625 6.85938 65.1719C7.29688 64.2812 7.92708 63.599 8.75 63.125C9.57292 62.651 10.5391 62.4141 11.6484 62.4141C12.8151 62.4141 13.8932 62.6589 14.8828 63.1484L14.2109 64.7031C13.8255 64.5208 13.4167 64.362 12.9844 64.2266C12.5573 64.0859 12.1068 64.0156 11.6328 64.0156ZM22.8125 74L22.5547 72.8672H22.4609C22.2057 73.2682 21.8411 73.5833 21.3672 73.8125C20.8984 74.0417 20.362 74.1562 19.7578 74.1562C18.7109 74.1562 17.9297 73.8958 17.4141 73.375C16.8984 72.8542 16.6406 72.0651 16.6406 71.0078V65.3594H18.4922V70.6875C18.4922 71.349 18.6276 71.8464 18.8984 72.1797C19.1693 72.5078 19.5938 72.6719 20.1719 72.6719C20.9427 72.6719 21.5078 72.4427 21.8672 71.9844C22.2318 71.5208 22.4141 70.7474 22.4141 69.6641V65.3594H24.2578V74H22.8125ZM32.6797 71.5391C32.6797 72.3828 32.3724 73.0312 31.7578 73.4844C31.1432 73.9323 30.263 74.1562 29.1172 74.1562C27.9661 74.1562 27.0417 73.9818 26.3438 73.6328V72.0469C27.3594 72.5156 28.3047 72.75 29.1797 72.75C30.3099 72.75 30.875 72.4089 30.875 71.7266C30.875 71.5078 30.8125 71.3255 30.6875 71.1797C30.5625 71.0339 30.3568 70.8828 30.0703 70.7266C29.7839 70.5703 29.3854 70.3932 28.875 70.1953C27.8802 69.8099 27.2057 69.4245 26.8516 69.0391C26.5026 68.6536 26.3281 68.1536 26.3281 67.5391C26.3281 66.7995 26.625 66.2266 27.2188 65.8203C27.8177 65.4089 28.6302 65.2031 29.6562 65.2031C30.6719 65.2031 31.6328 65.4089 32.5391 65.8203L31.9453 67.2031C31.013 66.8177 30.2292 66.625 29.5938 66.625C28.625 66.625 28.1406 66.901 28.1406 67.4531C28.1406 67.724 28.2656 67.9531 28.5156 68.1406C28.7708 68.3281 29.3229 68.5859 30.1719 68.9141C30.8854 69.1901 31.4036 69.4427 31.7266 69.6719C32.0495 69.901 32.2891 70.1667 32.4453 70.4688C32.6016 70.7656 32.6797 71.1224 32.6797 71.5391ZM37.8906 72.6719C38.3385 72.6719 38.7865 72.6016 39.2344 72.4609V73.8438C39.0312 73.9323 38.7682 74.0052 38.4453 74.0625C38.1276 74.125 37.7969 74.1562 37.4531 74.1562C35.7135 74.1562 34.8438 73.2396 34.8438 71.4062V66.75H33.6641V65.9375L34.9297 65.2656L35.5547 63.4375H36.6875V65.3594H39.1484V66.75H36.6875V71.375C36.6875 71.8177 36.7969 72.1458 37.0156 72.3594C37.2396 72.5677 37.5312 72.6719 37.8906 72.6719ZM48.6328 69.6641C48.6328 71.0755 48.2708 72.1771 47.5469 72.9688C46.8229 73.7604 45.8151 74.1562 44.5234 74.1562C43.7161 74.1562 43.0026 73.974 42.3828 73.6094C41.763 73.2448 41.2865 72.7214 40.9531 72.0391C40.6198 71.3568 40.4531 70.5651 40.4531 69.6641C40.4531 68.263 40.8125 67.1693 41.5312 66.3828C42.25 65.5964 43.263 65.2031 44.5703 65.2031C45.8203 65.2031 46.8099 65.6068 47.5391 66.4141C48.2682 67.2161 48.6328 68.2995 48.6328 69.6641ZM42.3438 69.6641C42.3438 71.6589 43.0807 72.6562 44.5547 72.6562C46.013 72.6562 46.7422 71.6589 46.7422 69.6641C46.7422 67.6901 46.0078 66.7031 44.5391 66.7031C43.7682 66.7031 43.2083 66.9583 42.8594 67.4688C42.5156 67.9792 42.3438 68.7109 42.3438 69.6641ZM58.0312 74H56.1875V68.6719C56.1875 68.0104 56.0625 67.5182 55.8125 67.1953C55.5625 66.8672 55.1719 66.7031 54.6406 66.7031C53.9323 66.7031 53.4115 66.9349 53.0781 67.3984C52.75 67.8568 52.5859 68.6224 52.5859 69.6953V74H50.75V65.3594H52.1875L52.4453 66.4922H52.5391C52.7786 66.0807 53.125 65.763 53.5781 65.5391C54.0365 65.3151 54.5391 65.2031 55.0859 65.2031C56.4141 65.2031 57.2943 65.6562 57.7266 66.5625H57.8516C58.1068 66.1354 58.4661 65.8021 58.9297 65.5625C59.3932 65.3229 59.9245 65.2031 60.5234 65.2031C61.5547 65.2031 62.3047 65.4635 62.7734 65.9844C63.2474 66.5052 63.4844 67.2995 63.4844 68.3672V74H61.6484V68.6719C61.6484 68.0104 61.5208 67.5182 61.2656 67.1953C61.0156 66.8672 60.625 66.7031 60.0938 66.7031C59.3802 66.7031 58.8568 66.9271 58.5234 67.375C58.1953 67.8177 58.0312 68.5 58.0312 69.4219V74ZM67.8828 74H66.0469V65.3594H67.8828V74ZM65.9375 63.0703C65.9375 62.7422 66.026 62.4896 66.2031 62.3125C66.3854 62.1354 66.6432 62.0469 66.9766 62.0469C67.2995 62.0469 67.5495 62.1354 67.7266 62.3125C67.9089 62.4896 68 62.7422 68 63.0703C68 63.3828 67.9089 63.6302 67.7266 63.8125C67.5495 63.9896 67.2995 64.0781 66.9766 64.0781C66.6432 64.0781 66.3854 63.9896 66.2031 63.8125C66.026 63.6302 65.9375 63.3828 65.9375 63.0703ZM76.2891 74H69.7344V72.8672L74.1016 66.7656H70V65.3594H76.1641V66.6406L71.8906 72.5938H76.2891V74ZM81.9453 74.1562C80.6016 74.1562 79.5495 73.7656 78.7891 72.9844C78.0339 72.1979 77.6562 71.1172 77.6562 69.7422C77.6562 68.3307 78.0078 67.2214 78.7109 66.4141C79.4141 65.6068 80.3802 65.2031 81.6094 65.2031C82.75 65.2031 83.651 65.5495 84.3125 66.2422C84.974 66.9349 85.3047 67.888 85.3047 69.1016V70.0938H79.5469C79.5729 70.9323 79.7995 71.5781 80.2266 72.0312C80.6536 72.4792 81.2552 72.7031 82.0312 72.7031C82.5417 72.7031 83.0156 72.6562 83.4531 72.5625C83.8958 72.4635 84.3698 72.3021 84.875 72.0781V73.5703C84.4271 73.7839 83.974 73.9349 83.5156 74.0234C83.0573 74.112 82.5339 74.1562 81.9453 74.1562ZM81.6094 66.5938C81.026 66.5938 80.5573 66.7786 80.2031 67.1484C79.8542 67.5182 79.6458 68.0573 79.5781 68.7656H83.5C83.4896 68.0521 83.3177 67.513 82.9844 67.1484C82.651 66.7786 82.1927 66.5938 81.6094 66.5938ZM90.7969 70.4922V68.9297H94.8125V70.4922H90.7969ZM104.078 72.6719C104.526 72.6719 104.974 72.6016 105.422 72.4609V73.8438C105.219 73.9323 104.956 74.0052 104.633 74.0625C104.315 74.125 103.984 74.1562 103.641 74.1562C101.901 74.1562 101.031 73.2396 101.031 71.4062V66.75H99.8516V65.9375L101.117 65.2656L101.742 63.4375H102.875V65.3594H105.336V66.75H102.875V71.375C102.875 71.8177 102.984 72.1458 103.203 72.3594C103.427 72.5677 103.719 72.6719 104.078 72.6719ZM111.539 65.2031C111.909 65.2031 112.214 65.2292 112.453 65.2812L112.273 66.9922C112.013 66.9297 111.742 66.8984 111.461 66.8984C110.727 66.8984 110.13 67.138 109.672 67.6172C109.219 68.0964 108.992 68.7188 108.992 69.4844V74H107.156V65.3594H108.594L108.836 66.8828H108.93C109.216 66.3672 109.589 65.9583 110.047 65.6562C110.51 65.3542 111.008 65.2031 111.539 65.2031ZM120.156 74L119.898 72.8672H119.805C119.549 73.2682 119.185 73.5833 118.711 73.8125C118.242 74.0417 117.706 74.1562 117.102 74.1562C116.055 74.1562 115.273 73.8958 114.758 73.375C114.242 72.8542 113.984 72.0651 113.984 71.0078V65.3594H115.836V70.6875C115.836 71.349 115.971 71.8464 116.242 72.1797C116.513 72.5078 116.938 72.6719 117.516 72.6719C118.286 72.6719 118.852 72.4427 119.211 71.9844C119.576 71.5208 119.758 70.7474 119.758 69.6641V65.3594H121.602V74H120.156ZM126.055 74H124.219V61.8438H126.055V74ZM127.375 65.3594H129.375L131.133 70.2578C131.398 70.9557 131.576 71.612 131.664 72.2266H131.727C131.773 71.9401 131.859 71.5938 131.984 71.1875C132.109 70.776 132.771 68.8333 133.969 65.3594H135.953L132.258 75.1484C131.586 76.9453 130.466 77.8438 128.898 77.8438C128.492 77.8438 128.096 77.7995 127.711 77.7109V76.2578C127.987 76.3203 128.302 76.3516 128.656 76.3516C129.542 76.3516 130.164 75.8385 130.523 74.8125L130.844 74L127.375 65.3594ZM144.906 74.1562C143.599 74.1562 142.604 73.776 141.922 73.0156C141.245 72.25 140.906 71.1536 140.906 69.7266C140.906 68.2734 141.26 67.1562 141.969 66.375C142.682 65.5938 143.711 65.2031 145.055 65.2031C145.966 65.2031 146.786 65.3724 147.516 65.7109L146.961 67.1875C146.185 66.8854 145.544 66.7344 145.039 66.7344C143.544 66.7344 142.797 67.7266 142.797 69.7109C142.797 70.6797 142.982 71.4089 143.352 71.8984C143.727 72.3828 144.273 72.625 144.992 72.625C145.81 72.625 146.583 72.4219 147.312 72.0156V73.6172C146.984 73.8099 146.633 73.9479 146.258 74.0312C145.888 74.1146 145.438 74.1562 144.906 74.1562ZM154.75 74L154.383 72.7969H154.32C153.904 73.3229 153.484 73.6823 153.062 73.875C152.641 74.0625 152.099 74.1562 151.438 74.1562C150.589 74.1562 149.924 73.9271 149.445 73.4688C148.971 73.0104 148.734 72.362 148.734 71.5234C148.734 70.6328 149.065 69.9609 149.727 69.5078C150.388 69.0547 151.396 68.8073 152.75 68.7656L154.242 68.7188V68.2578C154.242 67.7057 154.112 67.2943 153.852 67.0234C153.596 66.7474 153.198 66.6094 152.656 66.6094C152.214 66.6094 151.789 66.6745 151.383 66.8047C150.977 66.9349 150.586 67.0885 150.211 67.2656L149.617 65.9531C150.086 65.7083 150.599 65.5234 151.156 65.3984C151.714 65.2682 152.24 65.2031 152.734 65.2031C153.833 65.2031 154.661 65.4427 155.219 65.9219C155.781 66.401 156.062 67.1536 156.062 68.1797V74H154.75ZM152.016 72.75C152.682 72.75 153.216 72.5651 153.617 72.1953C154.023 71.8203 154.227 71.2969 154.227 70.625V69.875L153.117 69.9219C152.253 69.9531 151.622 70.099 151.227 70.3594C150.836 70.6146 150.641 71.0078 150.641 71.5391C150.641 71.9245 150.755 72.224 150.984 72.4375C151.214 72.6458 151.557 72.75 152.016 72.75ZM161.844 72.6719C162.292 72.6719 162.74 72.6016 163.188 72.4609V73.8438C162.984 73.9323 162.721 74.0052 162.398 74.0625C162.081 74.125 161.75 74.1562 161.406 74.1562C159.667 74.1562 158.797 73.2396 158.797 71.4062V66.75H157.617V65.9375L158.883 65.2656L159.508 63.4375H160.641V65.3594H163.102V66.75H160.641V71.375C160.641 71.8177 160.75 72.1458 160.969 72.3594C161.193 72.5677 161.484 72.6719 161.844 72.6719ZM168.695 74.1562C167.352 74.1562 166.299 73.7656 165.539 72.9844C164.784 72.1979 164.406 71.1172 164.406 69.7422C164.406 68.3307 164.758 67.2214 165.461 66.4141C166.164 65.6068 167.13 65.2031 168.359 65.2031C169.5 65.2031 170.401 65.5495 171.062 66.2422C171.724 66.9349 172.055 67.888 172.055 69.1016V70.0938H166.297C166.323 70.9323 166.549 71.5781 166.977 72.0312C167.404 72.4792 168.005 72.7031 168.781 72.7031C169.292 72.7031 169.766 72.6562 170.203 72.5625C170.646 72.4635 171.12 72.3021 171.625 72.0781V73.5703C171.177 73.7839 170.724 73.9349 170.266 74.0234C169.807 74.112 169.284 74.1562 168.695 74.1562ZM168.359 66.5938C167.776 66.5938 167.307 66.7786 166.953 67.1484C166.604 67.5182 166.396 68.0573 166.328 68.7656H170.25C170.24 68.0521 170.068 67.513 169.734 67.1484C169.401 66.7786 168.943 66.5938 168.359 66.5938ZM178.523 65.2031C178.893 65.2031 179.198 65.2292 179.438 65.2812L179.258 66.9922C178.997 66.9297 178.727 66.8984 178.445 66.8984C177.711 66.8984 177.115 67.138 176.656 67.6172C176.203 68.0964 175.977 68.7188 175.977 69.4844V74H174.141V65.3594H175.578L175.82 66.8828H175.914C176.201 66.3672 176.573 65.9583 177.031 65.6562C177.495 65.3542 177.992 65.2031 178.523 65.2031ZM20.3125 92.6719C20.7604 92.6719 21.2083 92.6016 21.6562 92.4609V93.8438C21.4531 93.9323 21.1901 94.0052 20.8672 94.0625C20.5495 94.125 20.2188 94.1562 19.875 94.1562C18.1354 94.1562 17.2656 93.2396 17.2656 91.4062V86.75H16.0859V85.9375L17.3516 85.2656L17.9766 83.4375H19.1094V85.3594H21.5703V86.75H19.1094V91.375C19.1094 91.8177 19.2188 92.1458 19.4375 92.3594C19.6615 92.5677 19.9531 92.6719 20.3125 92.6719ZM30.9922 94H29.1484V88.6875C29.1484 88.0208 29.013 87.5234 28.7422 87.1953C28.4766 86.8672 28.0521 86.7031 27.4688 86.7031C26.6979 86.7031 26.1302 86.9349 25.7656 87.3984C25.4062 87.8568 25.2266 88.6276 25.2266 89.7109V94H23.3906V81.8438H25.2266V84.9297C25.2266 85.4245 25.1953 85.9531 25.1328 86.5156H25.25C25.5 86.099 25.8464 85.776 26.2891 85.5469C26.737 85.3177 27.2578 85.2031 27.8516 85.2031C29.9453 85.2031 30.9922 86.2578 30.9922 88.3672V94ZM37.3203 94.1562C35.9766 94.1562 34.9245 93.7656 34.1641 92.9844C33.4089 92.1979 33.0312 91.1172 33.0312 89.7422C33.0312 88.3307 33.3828 87.2214 34.0859 86.4141C34.7891 85.6068 35.7552 85.2031 36.9844 85.2031C38.125 85.2031 39.026 85.5495 39.6875 86.2422C40.349 86.9349 40.6797 87.888 40.6797 89.1016V90.0938H34.9219C34.9479 90.9323 35.1745 91.5781 35.6016 92.0312C36.0286 92.4792 36.6302 92.7031 37.4062 92.7031C37.9167 92.7031 38.3906 92.6562 38.8281 92.5625C39.2708 92.4635 39.7448 92.3021 40.25 92.0781V93.5703C39.8021 93.7839 39.349 93.9349 38.8906 94.0234C38.4323 94.112 37.9089 94.1562 37.3203 94.1562ZM36.9844 86.5938C36.401 86.5938 35.9323 86.7786 35.5781 87.1484C35.2292 87.5182 35.0208 88.0573 34.9531 88.7656H38.875C38.8646 88.0521 38.6927 87.513 38.3594 87.1484C38.026 86.7786 37.5677 86.5938 36.9844 86.5938ZM49.8359 94.1562C48.7578 94.1562 47.9167 93.7656 47.3125 92.9844C46.7083 92.2031 46.4062 91.1068 46.4062 89.6953C46.4062 88.2786 46.7109 87.1771 47.3203 86.3906C47.9349 85.599 48.7839 85.2031 49.8672 85.2031C51.0026 85.2031 51.8672 85.6224 52.4609 86.4609H52.5547C52.4661 85.8411 52.4219 85.3516 52.4219 84.9922V81.8438H54.2656V94H52.8281L52.5078 92.8672H52.4219C51.8333 93.7266 50.9714 94.1562 49.8359 94.1562ZM50.3281 92.6719C51.0833 92.6719 51.6328 92.4609 51.9766 92.0391C52.3203 91.612 52.4974 90.9219 52.5078 89.9688V89.7109C52.5078 88.6224 52.3307 87.849 51.9766 87.3906C51.6224 86.9323 51.0677 86.7031 50.3125 86.7031C49.6667 86.7031 49.1693 86.9661 48.8203 87.4922C48.4714 88.013 48.2969 88.7578 48.2969 89.7266C48.2969 90.6849 48.4661 91.4167 48.8047 91.9219C49.1432 92.4219 49.651 92.6719 50.3281 92.6719ZM60.6641 94.1562C59.3203 94.1562 58.2682 93.7656 57.5078 92.9844C56.7526 92.1979 56.375 91.1172 56.375 89.7422C56.375 88.3307 56.7266 87.2214 57.4297 86.4141C58.1328 85.6068 59.099 85.2031 60.3281 85.2031C61.4688 85.2031 62.3698 85.5495 63.0312 86.2422C63.6927 86.9349 64.0234 87.888 64.0234 89.1016V90.0938H58.2656C58.2917 90.9323 58.5182 91.5781 58.9453 92.0312C59.3724 92.4792 59.974 92.7031 60.75 92.7031C61.2604 92.7031 61.7344 92.6562 62.1719 92.5625C62.6146 92.4635 63.0885 92.3021 63.5938 92.0781V93.5703C63.1458 93.7839 62.6927 93.9349 62.2344 94.0234C61.776 94.112 61.2526 94.1562 60.6641 94.1562ZM60.3281 86.5938C59.7448 86.5938 59.276 86.7786 58.9219 87.1484C58.5729 87.5182 58.3646 88.0573 58.2969 88.7656H62.2188C62.2083 88.0521 62.0365 87.513 61.7031 87.1484C61.3698 86.7786 60.9115 86.5938 60.3281 86.5938ZM71.9141 91.5391C71.9141 92.3828 71.6068 93.0312 70.9922 93.4844C70.3776 93.9323 69.4974 94.1562 68.3516 94.1562C67.2005 94.1562 66.276 93.9818 65.5781 93.6328V92.0469C66.5938 92.5156 67.5391 92.75 68.4141 92.75C69.5443 92.75 70.1094 92.4089 70.1094 91.7266C70.1094 91.5078 70.0469 91.3255 69.9219 91.1797C69.7969 91.0339 69.5911 90.8828 69.3047 90.7266C69.0182 90.5703 68.6198 90.3932 68.1094 90.1953C67.1146 89.8099 66.4401 89.4245 66.0859 89.0391C65.737 88.6536 65.5625 88.1536 65.5625 87.5391C65.5625 86.7995 65.8594 86.2266 66.4531 85.8203C67.0521 85.4089 67.8646 85.2031 68.8906 85.2031C69.9062 85.2031 70.8672 85.4089 71.7734 85.8203L71.1797 87.2031C70.2474 86.8177 69.4635 86.625 68.8281 86.625C67.8594 86.625 67.375 86.901 67.375 87.4531C67.375 87.724 67.5 87.9531 67.75 88.1406C68.0052 88.3281 68.5573 88.5859 69.4062 88.9141C70.1198 89.1901 70.638 89.4427 70.9609 89.6719C71.2839 89.901 71.5234 90.1667 71.6797 90.4688C71.8359 90.7656 71.9141 91.1224 71.9141 91.5391ZM75.7422 94H73.9062V85.3594H75.7422V94ZM73.7969 83.0703C73.7969 82.7422 73.8854 82.4896 74.0625 82.3125C74.2448 82.1354 74.5026 82.0469 74.8359 82.0469C75.1589 82.0469 75.4089 82.1354 75.5859 82.3125C75.7682 82.4896 75.8594 82.7422 75.8594 83.0703C75.8594 83.3828 75.7682 83.6302 75.5859 83.8125C75.4089 83.9896 75.1589 84.0781 74.8359 84.0781C74.5026 84.0781 74.2448 83.9896 74.0625 83.8125C73.8854 83.6302 73.7969 83.3828 73.7969 83.0703ZM85.6719 85.3594V86.3672L84.1953 86.6406C84.3307 86.8229 84.4427 87.0469 84.5312 87.3125C84.6198 87.5781 84.6641 87.8594 84.6641 88.1562C84.6641 89.0469 84.3568 89.7474 83.7422 90.2578C83.1276 90.7682 82.2812 91.0234 81.2031 91.0234C80.9271 91.0234 80.6771 91.0026 80.4531 90.9609C80.0573 91.2057 79.8594 91.4922 79.8594 91.8203C79.8594 92.0182 79.9505 92.1667 80.1328 92.2656C80.3203 92.3646 80.6615 92.4141 81.1562 92.4141H82.6641C83.6172 92.4141 84.3411 92.6172 84.8359 93.0234C85.3307 93.4297 85.5781 94.0156 85.5781 94.7812C85.5781 95.7604 85.1745 96.5156 84.3672 97.0469C83.5599 97.5781 82.3932 97.8438 80.8672 97.8438C79.6901 97.8438 78.7917 97.6354 78.1719 97.2188C77.5521 96.8021 77.2422 96.2083 77.2422 95.4375C77.2422 94.9062 77.4089 94.4583 77.7422 94.0938C78.0807 93.7344 78.5521 93.4844 79.1562 93.3438C78.9115 93.2396 78.7083 93.0729 78.5469 92.8438C78.3906 92.6094 78.3125 92.3646 78.3125 92.1094C78.3125 91.7865 78.4036 91.513 78.5859 91.2891C78.7682 91.0651 79.0391 90.8438 79.3984 90.625C78.9505 90.4323 78.5859 90.1198 78.3047 89.6875C78.0286 89.25 77.8906 88.7396 77.8906 88.1562C77.8906 87.2188 78.1849 86.4922 78.7734 85.9766C79.3672 85.4609 80.2109 85.2031 81.3047 85.2031C81.5495 85.2031 81.8047 85.2214 82.0703 85.2578C82.3411 85.2891 82.5443 85.3229 82.6797 85.3594H85.6719ZM78.8828 95.3438C78.8828 95.7396 79.0599 96.0443 79.4141 96.2578C79.7734 96.4714 80.276 96.5781 80.9219 96.5781C81.9219 96.5781 82.6667 96.4349 83.1562 96.1484C83.6458 95.862 83.8906 95.4818 83.8906 95.0078C83.8906 94.6328 83.7552 94.3646 83.4844 94.2031C83.2188 94.0469 82.7214 93.9688 81.9922 93.9688H80.6016C80.0755 93.9688 79.6562 94.0911 79.3438 94.3359C79.0365 94.5859 78.8828 94.9219 78.8828 95.3438ZM79.6719 88.1562C79.6719 88.6979 79.8099 89.1146 80.0859 89.4062C80.3672 89.6979 80.7682 89.8438 81.2891 89.8438C82.3516 89.8438 82.8828 89.276 82.8828 88.1406C82.8828 87.5781 82.75 87.1458 82.4844 86.8438C82.224 86.5365 81.8255 86.3828 81.2891 86.3828C80.7578 86.3828 80.3542 86.5339 80.0781 86.8359C79.8073 87.138 79.6719 87.5781 79.6719 88.1562ZM94.8828 94H93.0391V88.6875C93.0391 88.0208 92.9036 87.5234 92.6328 87.1953C92.3672 86.8672 91.9427 86.7031 91.3594 86.7031C90.5833 86.7031 90.0156 86.9323 89.6562 87.3906C89.2969 87.849 89.1172 88.6172 89.1172 89.6953V94H87.2812V85.3594H88.7188L88.9766 86.4922H89.0703C89.3307 86.0807 89.7005 85.763 90.1797 85.5391C90.6589 85.3151 91.1901 85.2031 91.7734 85.2031C93.8464 85.2031 94.8828 86.2578 94.8828 88.3672V94ZM101.211 94.1562C99.8672 94.1562 98.8151 93.7656 98.0547 92.9844C97.2995 92.1979 96.9219 91.1172 96.9219 89.7422C96.9219 88.3307 97.2734 87.2214 97.9766 86.4141C98.6797 85.6068 99.6458 85.2031 100.875 85.2031C102.016 85.2031 102.917 85.5495 103.578 86.2422C104.24 86.9349 104.57 87.888 104.57 89.1016V90.0938H98.8125C98.8385 90.9323 99.0651 91.5781 99.4922 92.0312C99.9193 92.4792 100.521 92.7031 101.297 92.7031C101.807 92.7031 102.281 92.6562 102.719 92.5625C103.161 92.4635 103.635 92.3021 104.141 92.0781V93.5703C103.693 93.7839 103.24 93.9349 102.781 94.0234C102.323 94.112 101.799 94.1562 101.211 94.1562ZM100.875 86.5938C100.292 86.5938 99.8229 86.7786 99.4688 87.1484C99.1198 87.5182 98.9115 88.0573 98.8438 88.7656H102.766C102.755 88.0521 102.583 87.513 102.25 87.1484C101.917 86.7786 101.458 86.5938 100.875 86.5938ZM111.039 85.2031C111.409 85.2031 111.714 85.2292 111.953 85.2812L111.773 86.9922C111.513 86.9297 111.242 86.8984 110.961 86.8984C110.227 86.8984 109.63 87.138 109.172 87.6172C108.719 88.0964 108.492 88.7188 108.492 89.4844V94H106.656V85.3594H108.094L108.336 86.8828H108.43C108.716 86.3672 109.089 85.9583 109.547 85.6562C110.01 85.3542 110.508 85.2031 111.039 85.2031ZM115.031 82.5781L115.148 82.75C114.872 83.8385 114.414 85.0859 113.773 86.4922H112.445C112.805 84.987 113.065 83.6823 113.227 82.5781H115.031ZM122.461 91.5391C122.461 92.3828 122.154 93.0312 121.539 93.4844C120.924 93.9323 120.044 94.1562 118.898 94.1562C117.747 94.1562 116.823 93.9818 116.125 93.6328V92.0469C117.141 92.5156 118.086 92.75 118.961 92.75C120.091 92.75 120.656 92.4089 120.656 91.7266C120.656 91.5078 120.594 91.3255 120.469 91.1797C120.344 91.0339 120.138 90.8828 119.852 90.7266C119.565 90.5703 119.167 90.3932 118.656 90.1953C117.661 89.8099 116.987 89.4245 116.633 89.0391C116.284 88.6536 116.109 88.1536 116.109 87.5391C116.109 86.7995 116.406 86.2266 117 85.8203C117.599 85.4089 118.411 85.2031 119.438 85.2031C120.453 85.2031 121.414 85.4089 122.32 85.8203L121.727 87.2031C120.794 86.8177 120.01 86.625 119.375 86.625C118.406 86.625 117.922 86.901 117.922 87.4531C117.922 87.724 118.047 87.9531 118.297 88.1406C118.552 88.3281 119.104 88.5859 119.953 88.9141C120.667 89.1901 121.185 89.4427 121.508 89.6719C121.831 89.901 122.07 90.1667 122.227 90.4688C122.383 90.7656 122.461 91.1224 122.461 91.5391ZM136.211 94H134.367V88.6875C134.367 88.0208 134.232 87.5234 133.961 87.1953C133.695 86.8672 133.271 86.7031 132.688 86.7031C131.911 86.7031 131.344 86.9323 130.984 87.3906C130.625 87.849 130.445 88.6172 130.445 89.6953V94H128.609V85.3594H130.047L130.305 86.4922H130.398C130.659 86.0807 131.029 85.763 131.508 85.5391C131.987 85.3151 132.518 85.2031 133.102 85.2031C135.174 85.2031 136.211 86.2578 136.211 88.3672V94ZM140.602 94H138.766V85.3594H140.602V94ZM138.656 83.0703C138.656 82.7422 138.745 82.4896 138.922 82.3125C139.104 82.1354 139.362 82.0469 139.695 82.0469C140.018 82.0469 140.268 82.1354 140.445 82.3125C140.628 82.4896 140.719 82.7422 140.719 83.0703C140.719 83.3828 140.628 83.6302 140.445 83.8125C140.268 83.9896 140.018 84.0781 139.695 84.0781C139.362 84.0781 139.104 83.9896 138.922 83.8125C138.745 83.6302 138.656 83.3828 138.656 83.0703ZM146.719 94.1562C145.411 94.1562 144.417 93.776 143.734 93.0156C143.057 92.25 142.719 91.1536 142.719 89.7266C142.719 88.2734 143.073 87.1562 143.781 86.375C144.495 85.5938 145.523 85.2031 146.867 85.2031C147.779 85.2031 148.599 85.3724 149.328 85.7109L148.773 87.1875C147.997 86.8854 147.357 86.7344 146.852 86.7344C145.357 86.7344 144.609 87.7266 144.609 89.7109C144.609 90.6797 144.794 91.4089 145.164 91.8984C145.539 92.3828 146.086 92.625 146.805 92.625C147.622 92.625 148.396 92.4219 149.125 92.0156V93.6172C148.797 93.8099 148.445 93.9479 148.07 94.0312C147.701 94.1146 147.25 94.1562 146.719 94.1562ZM158.758 94H156.914V88.6875C156.914 88.0208 156.779 87.5234 156.508 87.1953C156.242 86.8672 155.818 86.7031 155.234 86.7031C154.464 86.7031 153.896 86.9349 153.531 87.3984C153.172 87.8568 152.992 88.6276 152.992 89.7109V94H151.156V81.8438H152.992V84.9297C152.992 85.4245 152.961 85.9531 152.898 86.5156H153.016C153.266 86.099 153.612 85.776 154.055 85.5469C154.503 85.3177 155.023 85.2031 155.617 85.2031C157.711 85.2031 158.758 86.2578 158.758 88.3672V94ZM165.086 94.1562C163.742 94.1562 162.69 93.7656 161.93 92.9844C161.174 92.1979 160.797 91.1172 160.797 89.7422C160.797 88.3307 161.148 87.2214 161.852 86.4141C162.555 85.6068 163.521 85.2031 164.75 85.2031C165.891 85.2031 166.792 85.5495 167.453 86.2422C168.115 86.9349 168.445 87.888 168.445 89.1016V90.0938H162.688C162.714 90.9323 162.94 91.5781 163.367 92.0312C163.794 92.4792 164.396 92.7031 165.172 92.7031C165.682 92.7031 166.156 92.6562 166.594 92.5625C167.036 92.4635 167.51 92.3021 168.016 92.0781V93.5703C167.568 93.7839 167.115 93.9349 166.656 94.0234C166.198 94.112 165.674 94.1562 165.086 94.1562ZM164.75 86.5938C164.167 86.5938 163.698 86.7786 163.344 87.1484C162.995 87.5182 162.786 88.0573 162.719 88.7656H166.641C166.63 88.0521 166.458 87.513 166.125 87.1484C165.792 86.7786 165.333 86.5938 164.75 86.5938Z" fill="black"/>
<path d="M13.1143 135L12.9434 133.824H12.8887C12.515 134.303 12.1299 134.642 11.7334 134.843C11.3415 135.039 10.8766 135.137 10.3389 135.137C9.6097 135.137 9.04232 134.95 8.63672 134.576C8.23112 134.202 8.02832 133.685 8.02832 133.024C8.02832 132.3 8.3291 131.737 8.93066 131.336C9.53678 130.935 10.4118 130.723 11.5557 130.7L12.9707 130.659V130.167C12.9707 129.461 12.8271 128.927 12.54 128.567C12.2529 128.207 11.7904 128.027 11.1523 128.027C10.4642 128.027 9.75098 128.219 9.0127 128.602L8.75977 128.014C9.57552 127.631 10.3822 127.439 11.1797 127.439C11.9954 127.439 12.6038 127.651 13.0049 128.075C13.4105 128.499 13.6133 129.16 13.6133 130.058V135H13.1143ZM10.3799 134.521C11.1729 134.521 11.7972 134.296 12.2529 133.845C12.7132 133.389 12.9434 132.758 12.9434 131.951V131.22L11.6445 131.274C10.6009 131.325 9.85579 131.489 9.40918 131.767C8.96712 132.04 8.74609 132.468 8.74609 133.052C8.74609 133.517 8.88737 133.879 9.16992 134.139C9.45703 134.394 9.86035 134.521 10.3799 134.521ZM21.625 134.535C22.0534 134.535 22.4271 134.499 22.7461 134.426V134.973C22.418 135.082 22.0397 135.137 21.6113 135.137C20.9551 135.137 20.4697 134.961 20.1553 134.61C19.8454 134.259 19.6904 133.708 19.6904 132.956V128.157H18.5898V127.761L19.6904 127.453L20.0322 125.771H20.3809V127.569H22.5615V128.157H20.3809V132.86C20.3809 133.43 20.4811 133.852 20.6816 134.125C20.8822 134.398 21.1966 134.535 21.625 134.535ZM28.8643 135L28.6934 133.824H28.6387C28.265 134.303 27.8799 134.642 27.4834 134.843C27.0915 135.039 26.6266 135.137 26.0889 135.137C25.3597 135.137 24.7923 134.95 24.3867 134.576C23.9811 134.202 23.7783 133.685 23.7783 133.024C23.7783 132.3 24.0791 131.737 24.6807 131.336C25.2868 130.935 26.1618 130.723 27.3057 130.7L28.7207 130.659V130.167C28.7207 129.461 28.5771 128.927 28.29 128.567C28.0029 128.207 27.5404 128.027 26.9023 128.027C26.2142 128.027 25.501 128.219 24.7627 128.602L24.5098 128.014C25.3255 127.631 26.1322 127.439 26.9297 127.439C27.7454 127.439 28.3538 127.651 28.7549 128.075C29.1605 128.499 29.3633 129.16 29.3633 130.058V135H28.8643ZM26.1299 134.521C26.9229 134.521 27.5472 134.296 28.0029 133.845C28.4632 133.389 28.6934 132.758 28.6934 131.951V131.22L27.3945 131.274C26.3509 131.325 25.6058 131.489 25.1592 131.767C24.7171 132.04 24.4961 132.468 24.4961 133.052C24.4961 133.517 24.6374 133.879 24.9199 134.139C25.207 134.394 25.6104 134.521 26.1299 134.521ZM32.4531 135H31.7764V127.569H32.4531V135ZM31.6807 125.505C31.6807 125.067 31.8242 124.849 32.1113 124.849C32.2526 124.849 32.362 124.906 32.4395 125.02C32.5215 125.133 32.5625 125.295 32.5625 125.505C32.5625 125.71 32.5215 125.872 32.4395 125.99C32.362 126.109 32.2526 126.168 32.1113 126.168C31.8242 126.168 31.6807 125.947 31.6807 125.505ZM35.625 135H34.9482V124.363H35.625V135ZM44.2656 131.274C44.2656 132.487 43.9717 133.435 43.3838 134.118C42.7959 134.797 41.9847 135.137 40.9502 135.137C40.2985 135.137 39.7243 134.979 39.2275 134.665C38.7308 134.351 38.3503 133.899 38.0859 133.312C37.8216 132.724 37.6895 132.045 37.6895 131.274C37.6895 130.062 37.9834 129.119 38.5713 128.444C39.1592 127.765 39.9658 127.426 40.9912 127.426C42.012 127.426 42.8118 127.77 43.3906 128.458C43.974 129.142 44.2656 130.08 44.2656 131.274ZM38.4004 131.274C38.4004 132.295 38.6237 133.093 39.0703 133.667C39.5215 134.237 40.1572 134.521 40.9775 134.521C41.7979 134.521 42.4313 134.237 42.8779 133.667C43.3291 133.093 43.5547 132.295 43.5547 131.274C43.5547 130.249 43.3268 129.454 42.8711 128.889C42.4199 128.324 41.7842 128.041 40.9639 128.041C40.1436 128.041 39.5101 128.324 39.0635 128.889C38.6214 129.449 38.4004 130.244 38.4004 131.274ZM49.249 127.426C49.5635 127.426 49.9007 127.458 50.2607 127.521L50.1309 128.171C49.821 128.093 49.4997 128.055 49.167 128.055C48.5335 128.055 48.014 128.324 47.6084 128.861C47.2028 129.399 47 130.078 47 130.898V135H46.3232V127.569H46.8975L46.9658 128.909H47.0137C47.319 128.362 47.6449 127.979 47.9912 127.761C48.3376 127.537 48.7568 127.426 49.249 127.426ZM54.7793 135.137C53.6992 135.137 52.8561 134.804 52.25 134.139C51.6484 133.473 51.3477 132.541 51.3477 131.343C51.3477 130.158 51.6393 129.21 52.2227 128.499C52.806 127.784 53.5921 127.426 54.5811 127.426C55.4561 127.426 56.1465 127.731 56.6523 128.342C57.1582 128.952 57.4111 129.782 57.4111 130.83V131.377H52.0586C52.0677 132.398 52.3047 133.177 52.7695 133.715C53.2389 134.253 53.9089 134.521 54.7793 134.521C55.2031 134.521 55.5745 134.492 55.8936 134.433C56.2171 134.373 56.625 134.246 57.1172 134.05V134.665C56.6979 134.847 56.3105 134.97 55.9551 135.034C55.5996 135.103 55.2077 135.137 54.7793 135.137ZM54.5811 128.027C53.8656 128.027 53.2913 128.264 52.8584 128.738C52.4255 129.208 52.1725 129.887 52.0996 130.775H56.6934C56.6934 129.914 56.5065 129.242 56.1328 128.759C55.7591 128.271 55.2419 128.027 54.5811 128.027ZM62.1826 127.426C62.7204 127.426 63.1852 127.524 63.5771 127.72C63.9691 127.916 64.32 128.251 64.6299 128.725H64.6709C64.6436 128.15 64.6299 127.588 64.6299 127.036V124.363H65.2998V135H64.8555L64.6846 133.865H64.6299C64.0648 134.713 63.2536 135.137 62.1963 135.137C61.1709 135.137 60.387 134.818 59.8447 134.18C59.3024 133.542 59.0312 132.612 59.0312 131.391C59.0312 130.105 59.3001 129.123 59.8379 128.444C60.3757 127.765 61.1572 127.426 62.1826 127.426ZM62.1826 128.041C61.3714 128.041 60.7607 128.326 60.3506 128.896C59.945 129.465 59.7422 130.292 59.7422 131.377C59.7422 133.482 60.5602 134.535 62.1963 134.535C63.0348 134.535 63.6501 134.291 64.042 133.804C64.4339 133.316 64.6299 132.512 64.6299 131.391V131.274C64.6299 130.126 64.4362 129.301 64.0488 128.8C63.666 128.294 63.0439 128.041 62.1826 128.041ZM74.4395 135.137C73.3594 135.137 72.5163 134.804 71.9102 134.139C71.3086 133.473 71.0078 132.541 71.0078 131.343C71.0078 130.158 71.2995 129.21 71.8828 128.499C72.4661 127.784 73.2523 127.426 74.2412 127.426C75.1162 127.426 75.8066 127.731 76.3125 128.342C76.8184 128.952 77.0713 129.782 77.0713 130.83V131.377H71.7188C71.7279 132.398 71.9648 133.177 72.4297 133.715C72.8991 134.253 73.569 134.521 74.4395 134.521C74.8633 134.521 75.2347 134.492 75.5537 134.433C75.8773 134.373 76.2852 134.246 76.7773 134.05V134.665C76.3581 134.847 75.9707 134.97 75.6152 135.034C75.2598 135.103 74.8678 135.137 74.4395 135.137ZM74.2412 128.027C73.5257 128.027 72.9515 128.264 72.5186 128.738C72.0856 129.208 71.8327 129.887 71.7598 130.775H76.3535C76.3535 129.914 76.1667 129.242 75.793 128.759C75.4193 128.271 74.902 128.027 74.2412 128.027ZM80.9473 131.179L78.3564 127.569H79.1357L81.3506 130.7L83.5449 127.569H84.29L81.7402 131.179L84.4746 135H83.6885L81.3506 131.685L78.999 135H78.2539L80.9473 131.179ZM89.2734 135.137C88.1296 135.137 87.2956 134.708 86.7715 133.852H86.7236L86.7441 134.426C86.7624 134.763 86.7715 135.132 86.7715 135.533V138.363H86.0947V127.569H86.6689L86.7988 128.629H86.8398C87.3503 127.827 88.166 127.426 89.2871 127.426C90.2897 127.426 91.0531 127.756 91.5771 128.417C92.1058 129.073 92.3701 130.03 92.3701 131.288C92.3701 132.509 92.0921 133.457 91.5361 134.132C90.9847 134.802 90.2305 135.137 89.2734 135.137ZM89.2598 134.535C90.0208 134.535 90.6087 134.253 91.0234 133.688C91.4427 133.122 91.6523 132.332 91.6523 131.315C91.6523 129.132 90.8639 128.041 89.2871 128.041C88.4212 128.041 87.7855 128.28 87.3799 128.759C86.9743 129.233 86.7715 130.007 86.7715 131.083V131.302C86.7715 132.464 86.9652 133.293 87.3525 133.79C87.7445 134.287 88.3802 134.535 89.2598 134.535ZM97.4355 135.137C96.3555 135.137 95.5124 134.804 94.9062 134.139C94.3047 133.473 94.0039 132.541 94.0039 131.343C94.0039 130.158 94.2956 129.21 94.8789 128.499C95.4622 127.784 96.2484 127.426 97.2373 127.426C98.1123 127.426 98.8027 127.731 99.3086 128.342C99.8145 128.952 100.067 129.782 100.067 130.83V131.377H94.7148C94.724 132.398 94.9609 133.177 95.4258 133.715C95.8952 134.253 96.5651 134.521 97.4355 134.521C97.8594 134.521 98.2308 134.492 98.5498 134.433C98.8734 134.373 99.2812 134.246 99.7734 134.05V134.665C99.3542 134.847 98.9668 134.97 98.6113 135.034C98.2559 135.103 97.8639 135.137 97.4355 135.137ZM97.2373 128.027C96.5218 128.027 95.9476 128.264 95.5146 128.738C95.0817 129.208 94.8288 129.887 94.7559 130.775H99.3496C99.3496 129.914 99.1628 129.242 98.7891 128.759C98.4154 128.271 97.8981 128.027 97.2373 128.027ZM105.044 127.426C105.358 127.426 105.696 127.458 106.056 127.521L105.926 128.171C105.616 128.093 105.295 128.055 104.962 128.055C104.328 128.055 103.809 128.324 103.403 128.861C102.998 129.399 102.795 130.078 102.795 130.898V135H102.118V127.569H102.692L102.761 128.909H102.809C103.114 128.362 103.44 127.979 103.786 127.761C104.132 127.537 104.552 127.426 105.044 127.426ZM108.25 135H107.573V127.569H108.25V135ZM107.478 125.505C107.478 125.067 107.621 124.849 107.908 124.849C108.049 124.849 108.159 124.906 108.236 125.02C108.318 125.133 108.359 125.295 108.359 125.505C108.359 125.71 108.318 125.872 108.236 125.99C108.159 126.109 108.049 126.168 107.908 126.168C107.621 126.168 107.478 125.947 107.478 125.505ZM113.746 135.137C112.666 135.137 111.823 134.804 111.217 134.139C110.615 133.473 110.314 132.541 110.314 131.343C110.314 130.158 110.606 129.21 111.189 128.499C111.773 127.784 112.559 127.426 113.548 127.426C114.423 127.426 115.113 127.731 115.619 128.342C116.125 128.952 116.378 129.782 116.378 130.83V131.377H111.025C111.035 132.398 111.271 133.177 111.736 133.715C112.206 134.253 112.876 134.521 113.746 134.521C114.17 134.521 114.541 134.492 114.86 134.433C115.184 134.373 115.592 134.246 116.084 134.05V134.665C115.665 134.847 115.277 134.97 114.922 135.034C114.566 135.103 114.174 135.137 113.746 135.137ZM113.548 128.027C112.832 128.027 112.258 128.264 111.825 128.738C111.392 129.208 111.139 129.887 111.066 130.775H115.66C115.66 129.914 115.473 129.242 115.1 128.759C114.726 128.271 114.209 128.027 113.548 128.027ZM123.61 135V130.181C123.61 129.433 123.453 128.891 123.139 128.554C122.824 128.212 122.337 128.041 121.676 128.041C120.787 128.041 120.135 128.267 119.721 128.718C119.311 129.164 119.105 129.891 119.105 130.898V135H118.429V127.569H119.003L119.133 128.588H119.174C119.657 127.813 120.516 127.426 121.751 127.426C123.437 127.426 124.28 128.33 124.28 130.14V135H123.61ZM129.653 135.137C128.591 135.137 127.76 134.802 127.158 134.132C126.557 133.462 126.256 132.528 126.256 131.329C126.256 130.099 126.568 129.142 127.192 128.458C127.817 127.77 128.671 127.426 129.756 127.426C130.398 127.426 131.014 127.537 131.602 127.761L131.417 128.362C130.774 128.148 130.216 128.041 129.742 128.041C128.831 128.041 128.14 128.324 127.671 128.889C127.201 129.449 126.967 130.258 126.967 131.315C126.967 132.318 127.201 133.104 127.671 133.674C128.14 134.239 128.797 134.521 129.64 134.521C130.314 134.521 130.941 134.401 131.52 134.159V134.788C131.046 135.021 130.424 135.137 129.653 135.137ZM136.346 135.137C135.266 135.137 134.423 134.804 133.816 134.139C133.215 133.473 132.914 132.541 132.914 131.343C132.914 130.158 133.206 129.21 133.789 128.499C134.372 127.784 135.159 127.426 136.147 127.426C137.022 127.426 137.713 127.731 138.219 128.342C138.725 128.952 138.978 129.782 138.978 130.83V131.377H133.625C133.634 132.398 133.871 133.177 134.336 133.715C134.805 134.253 135.475 134.521 136.346 134.521C136.77 134.521 137.141 134.492 137.46 134.433C137.784 134.373 138.191 134.246 138.684 134.05V134.665C138.264 134.847 137.877 134.97 137.521 135.034C137.166 135.103 136.774 135.137 136.346 135.137ZM136.147 128.027C135.432 128.027 134.858 128.264 134.425 128.738C133.992 129.208 133.739 129.887 133.666 130.775H138.26C138.26 129.914 138.073 129.242 137.699 128.759C137.326 128.271 136.808 128.027 136.147 128.027ZM145.342 135H144.665V127.569H145.342V135ZM144.569 125.505C144.569 125.067 144.713 124.849 145 124.849C145.141 124.849 145.251 124.906 145.328 125.02C145.41 125.133 145.451 125.295 145.451 125.505C145.451 125.71 145.41 125.872 145.328 125.99C145.251 126.109 145.141 126.168 145 126.168C144.713 126.168 144.569 125.947 144.569 125.505ZM152.444 133.065C152.444 133.731 152.191 134.243 151.686 134.604C151.18 134.959 150.462 135.137 149.532 135.137C148.539 135.137 147.75 134.984 147.167 134.679V133.947C147.914 134.321 148.703 134.508 149.532 134.508C150.266 134.508 150.822 134.387 151.2 134.146C151.583 133.899 151.774 133.574 151.774 133.168C151.774 132.794 151.622 132.48 151.316 132.225C151.016 131.969 150.519 131.719 149.826 131.473C149.083 131.204 148.562 130.974 148.261 130.782C147.96 130.586 147.732 130.368 147.577 130.126C147.427 129.88 147.352 129.581 147.352 129.23C147.352 128.674 147.584 128.235 148.049 127.911C148.518 127.588 149.172 127.426 150.011 127.426C150.813 127.426 151.574 127.576 152.294 127.877L152.041 128.492C151.312 128.191 150.635 128.041 150.011 128.041C149.405 128.041 148.924 128.141 148.568 128.342C148.213 128.542 148.035 128.82 148.035 129.176C148.035 129.563 148.172 129.873 148.445 130.105C148.723 130.338 149.263 130.598 150.065 130.885C150.735 131.126 151.223 131.345 151.528 131.541C151.834 131.732 152.062 131.951 152.212 132.197C152.367 132.443 152.444 132.733 152.444 133.065ZM158.658 131.739L162.452 127.569H163.272L160.347 130.741L163.525 135H162.712L159.889 131.247L158.672 132.354V135H157.995V124.363H158.672V129.695L158.624 131.739H158.658ZM167.777 135.137C166.697 135.137 165.854 134.804 165.248 134.139C164.646 133.473 164.346 132.541 164.346 131.343C164.346 130.158 164.637 129.21 165.221 128.499C165.804 127.784 166.59 127.426 167.579 127.426C168.454 127.426 169.145 127.731 169.65 128.342C170.156 128.952 170.409 129.782 170.409 130.83V131.377H165.057C165.066 132.398 165.303 133.177 165.768 133.715C166.237 134.253 166.907 134.521 167.777 134.521C168.201 134.521 168.573 134.492 168.892 134.433C169.215 134.373 169.623 134.246 170.115 134.05V134.665C169.696 134.847 169.309 134.97 168.953 135.034C168.598 135.103 168.206 135.137 167.777 135.137ZM167.579 128.027C166.864 128.027 166.289 128.264 165.856 128.738C165.424 129.208 165.171 129.887 165.098 130.775H169.691C169.691 129.914 169.505 129.242 169.131 128.759C168.757 128.271 168.24 128.027 167.579 128.027ZM171.216 127.569H171.913L173.485 131.739C173.964 133.02 174.267 133.883 174.395 134.33H174.436C174.627 133.742 174.939 132.865 175.372 131.698L176.944 127.569H177.642L174.312 136.203C174.044 136.905 173.818 137.379 173.636 137.625C173.453 137.871 173.239 138.056 172.993 138.179C172.752 138.302 172.458 138.363 172.111 138.363C171.852 138.363 171.562 138.315 171.243 138.22V137.632C171.507 137.705 171.792 137.741 172.098 137.741C172.33 137.741 172.535 137.687 172.713 137.577C172.891 137.468 173.05 137.297 173.191 137.064C173.337 136.837 173.504 136.472 173.69 135.971C173.882 135.474 174.005 135.15 174.06 135L171.216 127.569ZM29.2197 154.535C29.6481 154.535 30.0218 154.499 30.3408 154.426V154.973C30.0127 155.082 29.6344 155.137 29.2061 155.137C28.5498 155.137 28.0645 154.961 27.75 154.61C27.4401 154.259 27.2852 153.708 27.2852 152.956V148.157H26.1846V147.761L27.2852 147.453L27.627 145.771H27.9756V147.569H30.1562V148.157H27.9756V152.86C27.9756 153.43 28.0758 153.852 28.2764 154.125C28.4769 154.398 28.7913 154.535 29.2197 154.535ZM38.0928 151.274C38.0928 152.487 37.7988 153.435 37.2109 154.118C36.623 154.797 35.8118 155.137 34.7773 155.137C34.1257 155.137 33.5514 154.979 33.0547 154.665C32.5579 154.351 32.1774 153.899 31.9131 153.312C31.6488 152.724 31.5166 152.045 31.5166 151.274C31.5166 150.062 31.8105 149.119 32.3984 148.444C32.9863 147.765 33.793 147.426 34.8184 147.426C35.8392 147.426 36.639 147.77 37.2178 148.458C37.8011 149.142 38.0928 150.08 38.0928 151.274ZM32.2275 151.274C32.2275 152.295 32.4508 153.093 32.8975 153.667C33.3486 154.237 33.9844 154.521 34.8047 154.521C35.625 154.521 36.2585 154.237 36.7051 153.667C37.1562 153.093 37.3818 152.295 37.3818 151.274C37.3818 150.249 37.154 149.454 36.6982 148.889C36.2471 148.324 35.6113 148.041 34.791 148.041C33.9707 148.041 33.3372 148.324 32.8906 148.889C32.4486 149.449 32.2275 150.244 32.2275 151.274ZM53.0703 155V150.126C53.0703 149.401 52.929 148.873 52.6465 148.54C52.3639 148.207 51.931 148.041 51.3477 148.041C50.5866 148.041 50.0238 148.251 49.6592 148.67C49.2946 149.089 49.1123 149.748 49.1123 150.646V155H48.4219V149.921C48.4219 148.668 47.8477 148.041 46.6992 148.041C45.9199 148.041 45.3525 148.269 44.9971 148.725C44.6416 149.176 44.4639 149.9 44.4639 150.898V155H43.7871V147.569H44.3477L44.4912 148.588H44.5322C44.7373 148.219 45.029 147.934 45.4072 147.733C45.7855 147.528 46.2025 147.426 46.6582 147.426C47.8294 147.426 48.5814 147.866 48.9141 148.745H48.9414C49.1829 148.321 49.5065 147.995 49.9121 147.768C50.3223 147.54 50.7871 147.426 51.3066 147.426C52.1178 147.426 52.7262 147.642 53.1318 148.075C53.5374 148.508 53.7402 149.196 53.7402 150.14V155H53.0703ZM60.6582 155L60.4873 153.824H60.4326C60.0589 154.303 59.6738 154.642 59.2773 154.843C58.8854 155.039 58.4206 155.137 57.8828 155.137C57.1536 155.137 56.5863 154.95 56.1807 154.576C55.7751 154.202 55.5723 153.685 55.5723 153.024C55.5723 152.3 55.873 151.737 56.4746 151.336C57.0807 150.935 57.9557 150.723 59.0996 150.7L60.5146 150.659V150.167C60.5146 149.461 60.3711 148.927 60.084 148.567C59.7969 148.207 59.3343 148.027 58.6963 148.027C58.0081 148.027 57.2949 148.219 56.5566 148.602L56.3037 148.014C57.1195 147.631 57.9261 147.439 58.7236 147.439C59.5394 147.439 60.1478 147.651 60.5488 148.075C60.9544 148.499 61.1572 149.16 61.1572 150.058V155H60.6582ZM57.9238 154.521C58.7168 154.521 59.3411 154.296 59.7969 153.845C60.2572 153.389 60.4873 152.758 60.4873 151.951V151.22L59.1885 151.274C58.1449 151.325 57.3997 151.489 56.9531 151.767C56.5111 152.04 56.29 152.468 56.29 153.052C56.29 153.517 56.4313 153.879 56.7139 154.139C57.001 154.394 57.4043 154.521 57.9238 154.521ZM64.2334 151.739L68.0273 147.569H68.8477L65.9219 150.741L69.1006 155H68.2871L65.4639 151.247L64.2471 152.354V155H63.5703V144.363H64.2471V149.695L64.1992 151.739H64.2334ZM73.3525 155.137C72.2725 155.137 71.4294 154.804 70.8232 154.139C70.2217 153.473 69.9209 152.541 69.9209 151.343C69.9209 150.158 70.2126 149.21 70.7959 148.499C71.3792 147.784 72.1654 147.426 73.1543 147.426C74.0293 147.426 74.7197 147.731 75.2256 148.342C75.7314 148.952 75.9844 149.782 75.9844 150.83V151.377H70.6318C70.641 152.398 70.8779 153.177 71.3428 153.715C71.8122 154.253 72.4821 154.521 73.3525 154.521C73.7764 154.521 74.1478 154.492 74.4668 154.433C74.7904 154.373 75.1982 154.246 75.6904 154.05V154.665C75.2712 154.847 74.8838 154.97 74.5283 155.034C74.1729 155.103 73.7809 155.137 73.3525 155.137ZM73.1543 148.027C72.4388 148.027 71.8646 148.264 71.4316 148.738C70.9987 149.208 70.7458 149.887 70.6729 150.775H75.2666C75.2666 149.914 75.0798 149.242 74.7061 148.759C74.3324 148.271 73.8151 148.027 73.1543 148.027ZM83.6338 154.535C84.0622 154.535 84.4359 154.499 84.7549 154.426V154.973C84.4268 155.082 84.0485 155.137 83.6201 155.137C82.9639 155.137 82.4785 154.961 82.1641 154.61C81.8542 154.259 81.6992 153.708 81.6992 152.956V148.157H80.5986V147.761L81.6992 147.453L82.041 145.771H82.3896V147.569H84.5703V148.157H82.3896V152.86C82.3896 153.43 82.4899 153.852 82.6904 154.125C82.891 154.398 83.2054 154.535 83.6338 154.535ZM91.543 155V150.181C91.543 149.433 91.3857 148.891 91.0713 148.554C90.7568 148.212 90.2692 148.041 89.6084 148.041C88.7197 148.041 88.068 148.267 87.6533 148.718C87.2432 149.164 87.0381 149.891 87.0381 150.898V155H86.3613V144.363H87.0381V147.747L87.0039 148.697H87.0518C87.3298 148.251 87.6807 147.927 88.1045 147.727C88.5283 147.526 89.0547 147.426 89.6836 147.426C91.3698 147.426 92.2129 148.33 92.2129 150.14V155H91.543ZM97.6201 155.137C96.54 155.137 95.6969 154.804 95.0908 154.139C94.4893 153.473 94.1885 152.541 94.1885 151.343C94.1885 150.158 94.4801 149.21 95.0635 148.499C95.6468 147.784 96.4329 147.426 97.4219 147.426C98.2969 147.426 98.9873 147.731 99.4932 148.342C99.999 148.952 100.252 149.782 100.252 150.83V151.377H94.8994C94.9085 152.398 95.1455 153.177 95.6104 153.715C96.0798 154.253 96.7497 154.521 97.6201 154.521C98.0439 154.521 98.4154 154.492 98.7344 154.433C99.0579 154.373 99.4658 154.246 99.958 154.05V154.665C99.5387 154.847 99.1514 154.97 98.7959 155.034C98.4404 155.103 98.0485 155.137 97.6201 155.137ZM97.4219 148.027C96.7064 148.027 96.1322 148.264 95.6992 148.738C95.2663 149.208 95.0133 149.887 94.9404 150.775H99.5342C99.5342 149.914 99.3473 149.242 98.9736 148.759C98.5999 148.271 98.0827 148.027 97.4219 148.027ZM106.527 147.569V152.382C106.527 153.129 106.685 153.674 106.999 154.016C107.313 154.353 107.801 154.521 108.462 154.521C109.346 154.521 109.995 154.298 110.41 153.852C110.829 153.405 111.039 152.678 111.039 151.671V147.569H111.709V155H111.135L111.012 153.975H110.971C110.488 154.749 109.629 155.137 108.394 155.137C106.703 155.137 105.857 154.232 105.857 152.423V147.569H106.527ZM118.805 153.065C118.805 153.731 118.552 154.243 118.046 154.604C117.54 154.959 116.822 155.137 115.893 155.137C114.899 155.137 114.111 154.984 113.527 154.679V153.947C114.275 154.321 115.063 154.508 115.893 154.508C116.626 154.508 117.182 154.387 117.561 154.146C117.943 153.899 118.135 153.574 118.135 153.168C118.135 152.794 117.982 152.48 117.677 152.225C117.376 151.969 116.879 151.719 116.187 151.473C115.444 151.204 114.922 150.974 114.621 150.782C114.32 150.586 114.092 150.368 113.938 150.126C113.787 149.88 113.712 149.581 113.712 149.23C113.712 148.674 113.944 148.235 114.409 147.911C114.879 147.588 115.533 147.426 116.371 147.426C117.173 147.426 117.934 147.576 118.654 147.877L118.401 148.492C117.672 148.191 116.995 148.041 116.371 148.041C115.765 148.041 115.284 148.141 114.929 148.342C114.573 148.542 114.396 148.82 114.396 149.176C114.396 149.563 114.532 149.873 114.806 150.105C115.084 150.338 115.624 150.598 116.426 150.885C117.096 151.126 117.583 151.345 117.889 151.541C118.194 151.732 118.422 151.951 118.572 152.197C118.727 152.443 118.805 152.733 118.805 153.065ZM123.72 155.137C122.64 155.137 121.797 154.804 121.19 154.139C120.589 153.473 120.288 152.541 120.288 151.343C120.288 150.158 120.58 149.21 121.163 148.499C121.746 147.784 122.533 147.426 123.521 147.426C124.396 147.426 125.087 147.731 125.593 148.342C126.099 148.952 126.352 149.782 126.352 150.83V151.377H120.999C121.008 152.398 121.245 153.177 121.71 153.715C122.179 154.253 122.849 154.521 123.72 154.521C124.144 154.521 124.515 154.492 124.834 154.433C125.158 154.373 125.565 154.246 126.058 154.05V154.665C125.638 154.847 125.251 154.97 124.896 155.034C124.54 155.103 124.148 155.137 123.72 155.137ZM123.521 148.027C122.806 148.027 122.232 148.264 121.799 148.738C121.366 149.208 121.113 149.887 121.04 150.775H125.634C125.634 149.914 125.447 149.242 125.073 148.759C124.7 148.271 124.182 148.027 123.521 148.027ZM131.328 147.426C131.643 147.426 131.98 147.458 132.34 147.521L132.21 148.171C131.9 148.093 131.579 148.055 131.246 148.055C130.613 148.055 130.093 148.324 129.688 148.861C129.282 149.399 129.079 150.078 129.079 150.898V155H128.402V147.569H128.977L129.045 148.909H129.093C129.398 148.362 129.724 147.979 130.07 147.761C130.417 147.537 130.836 147.426 131.328 147.426ZM140.256 148.157H138.506V155H137.829V148.157H136.448V147.761L137.829 147.508V146.934C137.829 146.022 137.995 145.354 138.328 144.931C138.665 144.502 139.215 144.288 139.976 144.288C140.386 144.288 140.796 144.35 141.206 144.473L141.049 145.061C140.684 144.947 140.322 144.89 139.962 144.89C139.433 144.89 139.057 145.047 138.834 145.361C138.615 145.671 138.506 146.177 138.506 146.879V147.569H140.256V148.157ZM144.692 155.137C143.612 155.137 142.769 154.804 142.163 154.139C141.562 153.473 141.261 152.541 141.261 151.343C141.261 150.158 141.552 149.21 142.136 148.499C142.719 147.784 143.505 147.426 144.494 147.426C145.369 147.426 146.06 147.731 146.565 148.342C147.071 148.952 147.324 149.782 147.324 150.83V151.377H141.972C141.981 152.398 142.218 153.177 142.683 153.715C143.152 154.253 143.822 154.521 144.692 154.521C145.116 154.521 145.488 154.492 145.807 154.433C146.13 154.373 146.538 154.246 147.03 154.05V154.665C146.611 154.847 146.224 154.97 145.868 155.034C145.513 155.103 145.121 155.137 144.692 155.137ZM144.494 148.027C143.779 148.027 143.204 148.264 142.771 148.738C142.339 149.208 142.086 149.887 142.013 150.775H146.606C146.606 149.914 146.42 149.242 146.046 148.759C145.672 148.271 145.155 148.027 144.494 148.027ZM152.376 155.137C151.296 155.137 150.453 154.804 149.847 154.139C149.245 153.473 148.944 152.541 148.944 151.343C148.944 150.158 149.236 149.21 149.819 148.499C150.403 147.784 151.189 147.426 152.178 147.426C153.053 147.426 153.743 147.731 154.249 148.342C154.755 148.952 155.008 149.782 155.008 150.83V151.377H149.655C149.664 152.398 149.901 153.177 150.366 153.715C150.836 154.253 151.506 154.521 152.376 154.521C152.8 154.521 153.171 154.492 153.49 154.433C153.814 154.373 154.222 154.246 154.714 154.05V154.665C154.295 154.847 153.907 154.97 153.552 155.034C153.196 155.103 152.804 155.137 152.376 155.137ZM152.178 148.027C151.462 148.027 150.888 148.264 150.455 148.738C150.022 149.208 149.769 149.887 149.696 150.775H154.29C154.29 149.914 154.103 149.242 153.729 148.759C153.356 148.271 152.839 148.027 152.178 148.027ZM157.735 155H157.059V144.363H157.735V155ZM5.89551 175.137C4.83366 175.137 4.00195 174.802 3.40039 174.132C2.79883 173.462 2.49805 172.528 2.49805 171.329C2.49805 170.099 2.81022 169.142 3.43457 168.458C4.05892 167.77 4.91341 167.426 5.99805 167.426C6.64062 167.426 7.25586 167.537 7.84375 167.761L7.65918 168.362C7.0166 168.148 6.45833 168.041 5.98438 168.041C5.07292 168.041 4.38249 168.324 3.91309 168.889C3.44368 169.449 3.20898 170.258 3.20898 171.315C3.20898 172.318 3.44368 173.104 3.91309 173.674C4.38249 174.239 5.03874 174.521 5.88184 174.521C6.55632 174.521 7.18294 174.401 7.76172 174.159V174.788C7.28776 175.021 6.66569 175.137 5.89551 175.137ZM15.7324 171.274C15.7324 172.487 15.4385 173.435 14.8506 174.118C14.2627 174.797 13.4515 175.137 12.417 175.137C11.7653 175.137 11.1911 174.979 10.6943 174.665C10.1976 174.351 9.81706 173.899 9.55273 173.312C9.28841 172.724 9.15625 172.045 9.15625 171.274C9.15625 170.062 9.4502 169.119 10.0381 168.444C10.626 167.765 11.4326 167.426 12.458 167.426C13.4788 167.426 14.2786 167.77 14.8574 168.458C15.4408 169.142 15.7324 170.08 15.7324 171.274ZM9.86719 171.274C9.86719 172.295 10.0905 173.093 10.5371 173.667C10.9883 174.237 11.624 174.521 12.4443 174.521C13.2646 174.521 13.8981 174.237 14.3447 173.667C14.7959 173.093 15.0215 172.295 15.0215 171.274C15.0215 170.249 14.7936 169.454 14.3379 168.889C13.8867 168.324 13.251 168.041 12.4307 168.041C11.6104 168.041 10.9769 168.324 10.5303 168.889C10.0882 169.449 9.86719 170.244 9.86719 171.274ZM27.0732 175V170.126C27.0732 169.401 26.932 168.873 26.6494 168.54C26.3669 168.207 25.9339 168.041 25.3506 168.041C24.5895 168.041 24.0267 168.251 23.6621 168.67C23.2975 169.089 23.1152 169.748 23.1152 170.646V175H22.4248V169.921C22.4248 168.668 21.8506 168.041 20.7021 168.041C19.9229 168.041 19.3555 168.269 19 168.725C18.6445 169.176 18.4668 169.9 18.4668 170.898V175H17.79V167.569H18.3506L18.4941 168.588H18.5352C18.7402 168.219 19.0319 167.934 19.4102 167.733C19.7884 167.528 20.2054 167.426 20.6611 167.426C21.8324 167.426 22.5843 167.866 22.917 168.745H22.9443C23.1859 168.321 23.5094 167.995 23.915 167.768C24.3252 167.54 24.79 167.426 25.3096 167.426C26.1208 167.426 26.7292 167.642 27.1348 168.075C27.5404 168.508 27.7432 169.196 27.7432 170.14V175H27.0732ZM32.9111 168.157H31.1611V175H30.4844V168.157H29.1035V167.761L30.4844 167.508V166.934C30.4844 166.022 30.6507 165.354 30.9834 164.931C31.3206 164.502 31.8698 164.288 32.6309 164.288C33.041 164.288 33.4512 164.35 33.8613 164.473L33.7041 165.061C33.3395 164.947 32.9772 164.89 32.6172 164.89C32.0885 164.89 31.7126 165.047 31.4893 165.361C31.2705 165.671 31.1611 166.177 31.1611 166.879V167.569H32.9111V168.157ZM40.4922 171.274C40.4922 172.487 40.1982 173.435 39.6104 174.118C39.0225 174.797 38.2113 175.137 37.1768 175.137C36.5251 175.137 35.9508 174.979 35.4541 174.665C34.9574 174.351 34.5768 173.899 34.3125 173.312C34.0482 172.724 33.916 172.045 33.916 171.274C33.916 170.062 34.21 169.119 34.7979 168.444C35.3857 167.765 36.1924 167.426 37.2178 167.426C38.2386 167.426 39.0384 167.77 39.6172 168.458C40.2005 169.142 40.4922 170.08 40.4922 171.274ZM34.627 171.274C34.627 172.295 34.8503 173.093 35.2969 173.667C35.748 174.237 36.3838 174.521 37.2041 174.521C38.0244 174.521 38.6579 174.237 39.1045 173.667C39.5557 173.093 39.7812 172.295 39.7812 171.274C39.7812 170.249 39.5534 169.454 39.0977 168.889C38.6465 168.324 38.0107 168.041 37.1904 168.041C36.3701 168.041 35.7367 168.324 35.29 168.889C34.848 169.449 34.627 170.244 34.627 171.274ZM45.4756 167.426C45.79 167.426 46.1273 167.458 46.4873 167.521L46.3574 168.171C46.0475 168.093 45.7262 168.055 45.3936 168.055C44.7601 168.055 44.2406 168.324 43.835 168.861C43.4294 169.399 43.2266 170.078 43.2266 170.898V175H42.5498V167.569H43.124L43.1924 168.909H43.2402C43.5456 168.362 43.8714 167.979 44.2178 167.761C44.5641 167.537 44.9834 167.426 45.4756 167.426ZM49.9668 174.535C50.3952 174.535 50.7689 174.499 51.0879 174.426V174.973C50.7598 175.082 50.3815 175.137 49.9531 175.137C49.2969 175.137 48.8115 174.961 48.4971 174.61C48.1872 174.259 48.0322 173.708 48.0322 172.956V168.157H46.9316V167.761L48.0322 167.453L48.374 165.771H48.7227V167.569H50.9033V168.157H48.7227V172.86C48.7227 173.43 48.8229 173.852 49.0234 174.125C49.224 174.398 49.5384 174.535 49.9668 174.535ZM57.2061 175L57.0352 173.824H56.9805C56.6068 174.303 56.2217 174.642 55.8252 174.843C55.4333 175.039 54.9684 175.137 54.4307 175.137C53.7015 175.137 53.1341 174.95 52.7285 174.576C52.3229 174.202 52.1201 173.685 52.1201 173.024C52.1201 172.3 52.4209 171.737 53.0225 171.336C53.6286 170.935 54.5036 170.723 55.6475 170.7L57.0625 170.659V170.167C57.0625 169.461 56.9189 168.927 56.6318 168.567C56.3447 168.207 55.8822 168.027 55.2441 168.027C54.556 168.027 53.8428 168.219 53.1045 168.602L52.8516 168.014C53.6673 167.631 54.474 167.439 55.2715 167.439C56.0872 167.439 56.6956 167.651 57.0967 168.075C57.5023 168.499 57.7051 169.16 57.7051 170.058V175H57.2061ZM54.4717 174.521C55.2646 174.521 55.889 174.296 56.3447 173.845C56.805 173.389 57.0352 172.758 57.0352 171.951V171.22L55.7363 171.274C54.6927 171.325 53.9476 171.489 53.501 171.767C53.0589 172.04 52.8379 172.468 52.8379 173.052C52.8379 173.517 52.9792 173.879 53.2617 174.139C53.5488 174.394 53.9521 174.521 54.4717 174.521ZM63.2559 167.426C64.2949 167.426 65.0765 167.754 65.6006 168.41C66.1292 169.062 66.3936 170.017 66.3936 171.274C66.3936 172.509 66.1156 173.462 65.5596 174.132C65.0081 174.802 64.2311 175.137 63.2285 175.137C62.6999 175.137 62.2236 175.027 61.7998 174.809C61.376 174.59 61.041 174.28 60.7949 173.879H60.7334L60.542 175H60.1182V164.363H60.7949V167.036C60.7949 167.437 60.7858 167.806 60.7676 168.144L60.7471 168.725H60.7949C61.0775 168.278 61.417 167.95 61.8135 167.74C62.2145 167.531 62.6953 167.426 63.2559 167.426ZM63.2422 168.041C62.3672 168.041 61.7406 168.292 61.3623 168.793C60.984 169.294 60.7949 170.121 60.7949 171.274V171.391C60.7949 172.512 60.9909 173.316 61.3828 173.804C61.7793 174.291 62.3945 174.535 63.2285 174.535C64.0397 174.535 64.6504 174.253 65.0605 173.688C65.4707 173.118 65.6758 172.309 65.6758 171.261C65.6758 169.114 64.8646 168.041 63.2422 168.041ZM69.1348 175H68.458V164.363H69.1348V175ZM74.6309 175.137C73.5508 175.137 72.7077 174.804 72.1016 174.139C71.5 173.473 71.1992 172.541 71.1992 171.343C71.1992 170.158 71.4909 169.21 72.0742 168.499C72.6576 167.784 73.4437 167.426 74.4326 167.426C75.3076 167.426 75.998 167.731 76.5039 168.342C77.0098 168.952 77.2627 169.782 77.2627 170.83V171.377H71.9102C71.9193 172.398 72.1562 173.177 72.6211 173.715C73.0905 174.253 73.7604 174.521 74.6309 174.521C75.0547 174.521 75.4261 174.492 75.7451 174.433C76.0687 174.373 76.4766 174.246 76.9688 174.05V174.665C76.5495 174.847 76.1621 174.97 75.8066 175.034C75.4512 175.103 75.0592 175.137 74.6309 175.137ZM74.4326 168.027C73.7171 168.027 73.1429 168.264 72.71 168.738C72.277 169.208 72.0241 169.887 71.9512 170.775H76.5449C76.5449 169.914 76.3581 169.242 75.9844 168.759C75.6107 168.271 75.0934 168.027 74.4326 168.027ZM87.4619 175L87.291 173.824H87.2363C86.8626 174.303 86.4775 174.642 86.0811 174.843C85.6891 175.039 85.2243 175.137 84.6865 175.137C83.9574 175.137 83.39 174.95 82.9844 174.576C82.5788 174.202 82.376 173.685 82.376 173.024C82.376 172.3 82.6768 171.737 83.2783 171.336C83.8844 170.935 84.7594 170.723 85.9033 170.7L87.3184 170.659V170.167C87.3184 169.461 87.1748 168.927 86.8877 168.567C86.6006 168.207 86.138 168.027 85.5 168.027C84.8118 168.027 84.0986 168.219 83.3604 168.602L83.1074 168.014C83.9232 167.631 84.7298 167.439 85.5273 167.439C86.3431 167.439 86.9515 167.651 87.3525 168.075C87.7581 168.499 87.9609 169.16 87.9609 170.058V175H87.4619ZM84.7275 174.521C85.5205 174.521 86.1449 174.296 86.6006 173.845C87.0609 173.389 87.291 172.758 87.291 171.951V171.22L85.9922 171.274C84.9486 171.325 84.2035 171.489 83.7568 171.767C83.3148 172.04 83.0938 172.468 83.0938 173.052C83.0938 173.517 83.235 173.879 83.5176 174.139C83.8047 174.394 84.208 174.521 84.7275 174.521ZM95.5557 175V170.181C95.5557 169.433 95.3984 168.891 95.084 168.554C94.7695 168.212 94.2819 168.041 93.6211 168.041C92.7324 168.041 92.0807 168.267 91.666 168.718C91.2559 169.164 91.0508 169.891 91.0508 170.898V175H90.374V167.569H90.9482L91.0781 168.588H91.1191C91.6022 167.813 92.4613 167.426 93.6963 167.426C95.3825 167.426 96.2256 168.33 96.2256 170.14V175H95.5557ZM101.353 167.426C101.89 167.426 102.355 167.524 102.747 167.72C103.139 167.916 103.49 168.251 103.8 168.725H103.841C103.813 168.15 103.8 167.588 103.8 167.036V164.363H104.47V175H104.025L103.854 173.865H103.8C103.235 174.713 102.424 175.137 101.366 175.137C100.341 175.137 99.557 174.818 99.0146 174.18C98.4723 173.542 98.2012 172.612 98.2012 171.391C98.2012 170.105 98.4701 169.123 99.0078 168.444C99.5456 167.765 100.327 167.426 101.353 167.426ZM101.353 168.041C100.541 168.041 99.9307 168.326 99.5205 168.896C99.1149 169.465 98.9121 170.292 98.9121 171.377C98.9121 173.482 99.7301 174.535 101.366 174.535C102.205 174.535 102.82 174.291 103.212 173.804C103.604 173.316 103.8 172.512 103.8 171.391V171.274C103.8 170.126 103.606 169.301 103.219 168.8C102.836 168.294 102.214 168.041 101.353 168.041ZM111.196 167.569V172.382C111.196 173.129 111.354 173.674 111.668 174.016C111.982 174.353 112.47 174.521 113.131 174.521C114.015 174.521 114.664 174.298 115.079 173.852C115.498 173.405 115.708 172.678 115.708 171.671V167.569H116.378V175H115.804L115.681 173.975H115.64C115.157 174.749 114.298 175.137 113.062 175.137C111.372 175.137 110.526 174.232 110.526 172.423V167.569H111.196ZM124.048 175V170.181C124.048 169.433 123.891 168.891 123.576 168.554C123.262 168.212 122.774 168.041 122.113 168.041C121.225 168.041 120.573 168.267 120.158 168.718C119.748 169.164 119.543 169.891 119.543 170.898V175H118.866V167.569H119.44L119.57 168.588H119.611C120.094 167.813 120.953 167.426 122.188 167.426C123.875 167.426 124.718 168.33 124.718 170.14V175H124.048ZM129.845 167.426C130.382 167.426 130.847 167.524 131.239 167.72C131.631 167.916 131.982 168.251 132.292 168.725H132.333C132.306 168.15 132.292 167.588 132.292 167.036V164.363H132.962V175H132.518L132.347 173.865H132.292C131.727 174.713 130.916 175.137 129.858 175.137C128.833 175.137 128.049 174.818 127.507 174.18C126.965 173.542 126.693 172.612 126.693 171.391C126.693 170.105 126.962 169.123 127.5 168.444C128.038 167.765 128.819 167.426 129.845 167.426ZM129.845 168.041C129.034 168.041 128.423 168.326 128.013 168.896C127.607 169.465 127.404 170.292 127.404 171.377C127.404 173.482 128.222 174.535 129.858 174.535C130.697 174.535 131.312 174.291 131.704 173.804C132.096 173.316 132.292 172.512 132.292 171.391V171.274C132.292 170.126 132.098 169.301 131.711 168.8C131.328 168.294 130.706 168.041 129.845 168.041ZM138.465 175.137C137.385 175.137 136.542 174.804 135.936 174.139C135.334 173.473 135.033 172.541 135.033 171.343C135.033 170.158 135.325 169.21 135.908 168.499C136.492 167.784 137.278 167.426 138.267 167.426C139.142 167.426 139.832 167.731 140.338 168.342C140.844 168.952 141.097 169.782 141.097 170.83V171.377H135.744C135.753 172.398 135.99 173.177 136.455 173.715C136.924 174.253 137.594 174.521 138.465 174.521C138.889 174.521 139.26 174.492 139.579 174.433C139.903 174.373 140.311 174.246 140.803 174.05V174.665C140.383 174.847 139.996 174.97 139.641 175.034C139.285 175.103 138.893 175.137 138.465 175.137ZM138.267 168.027C137.551 168.027 136.977 168.264 136.544 168.738C136.111 169.208 135.858 169.887 135.785 170.775H140.379C140.379 169.914 140.192 169.242 139.818 168.759C139.445 168.271 138.927 168.027 138.267 168.027ZM146.073 167.426C146.388 167.426 146.725 167.458 147.085 167.521L146.955 168.171C146.645 168.093 146.324 168.055 145.991 168.055C145.358 168.055 144.838 168.324 144.433 168.861C144.027 169.399 143.824 170.078 143.824 170.898V175H143.147V167.569H143.722L143.79 168.909H143.838C144.143 168.362 144.469 167.979 144.815 167.761C145.162 167.537 145.581 167.426 146.073 167.426ZM153.21 173.065C153.21 173.731 152.957 174.243 152.451 174.604C151.945 174.959 151.228 175.137 150.298 175.137C149.304 175.137 148.516 174.984 147.933 174.679V173.947C148.68 174.321 149.468 174.508 150.298 174.508C151.032 174.508 151.588 174.387 151.966 174.146C152.349 173.899 152.54 173.574 152.54 173.168C152.54 172.794 152.387 172.48 152.082 172.225C151.781 171.969 151.285 171.719 150.592 171.473C149.849 171.204 149.327 170.974 149.026 170.782C148.726 170.586 148.498 170.368 148.343 170.126C148.192 169.88 148.117 169.581 148.117 169.23C148.117 168.674 148.35 168.235 148.814 167.911C149.284 167.588 149.938 167.426 150.776 167.426C151.578 167.426 152.34 167.576 153.06 167.877L152.807 168.492C152.077 168.191 151.401 168.041 150.776 168.041C150.17 168.041 149.689 168.141 149.334 168.342C148.979 168.542 148.801 168.82 148.801 169.176C148.801 169.563 148.938 169.873 149.211 170.105C149.489 170.338 150.029 170.598 150.831 170.885C151.501 171.126 151.989 171.345 152.294 171.541C152.599 171.732 152.827 171.951 152.978 172.197C153.132 172.443 153.21 172.733 153.21 173.065ZM157.086 174.535C157.514 174.535 157.888 174.499 158.207 174.426V174.973C157.879 175.082 157.501 175.137 157.072 175.137C156.416 175.137 155.931 174.961 155.616 174.61C155.306 174.259 155.151 173.708 155.151 172.956V168.157H154.051V167.761L155.151 167.453L155.493 165.771H155.842V167.569H158.022V168.157H155.842V172.86C155.842 173.43 155.942 173.852 156.143 174.125C156.343 174.398 156.658 174.535 157.086 174.535ZM165.959 171.274C165.959 172.487 165.665 173.435 165.077 174.118C164.489 174.797 163.678 175.137 162.644 175.137C161.992 175.137 161.418 174.979 160.921 174.665C160.424 174.351 160.044 173.899 159.779 173.312C159.515 172.724 159.383 172.045 159.383 171.274C159.383 170.062 159.677 169.119 160.265 168.444C160.853 167.765 161.659 167.426 162.685 167.426C163.705 167.426 164.505 167.77 165.084 168.458C165.667 169.142 165.959 170.08 165.959 171.274ZM160.094 171.274C160.094 172.295 160.317 173.093 160.764 173.667C161.215 174.237 161.851 174.521 162.671 174.521C163.491 174.521 164.125 174.237 164.571 173.667C165.022 173.093 165.248 172.295 165.248 171.274C165.248 170.249 165.02 169.454 164.564 168.889C164.113 168.324 163.478 168.041 162.657 168.041C161.837 168.041 161.203 168.324 160.757 168.889C160.315 169.449 160.094 170.244 160.094 171.274ZM174.162 171.274C174.162 172.487 173.868 173.435 173.28 174.118C172.692 174.797 171.881 175.137 170.847 175.137C170.195 175.137 169.621 174.979 169.124 174.665C168.627 174.351 168.247 173.899 167.982 173.312C167.718 172.724 167.586 172.045 167.586 171.274C167.586 170.062 167.88 169.119 168.468 168.444C169.056 167.765 169.862 167.426 170.888 167.426C171.909 167.426 172.708 167.77 173.287 168.458C173.87 169.142 174.162 170.08 174.162 171.274ZM168.297 171.274C168.297 172.295 168.52 173.093 168.967 173.667C169.418 174.237 170.054 174.521 170.874 174.521C171.694 174.521 172.328 174.237 172.774 173.667C173.226 173.093 173.451 172.295 173.451 171.274C173.451 170.249 173.223 169.454 172.768 168.889C172.316 168.324 171.681 168.041 170.86 168.041C170.04 168.041 169.407 168.324 168.96 168.889C168.518 169.449 168.297 170.244 168.297 171.274ZM178.94 167.426C179.478 167.426 179.943 167.524 180.335 167.72C180.727 167.916 181.078 168.251 181.388 168.725H181.429C181.401 168.15 181.388 167.588 181.388 167.036V164.363H182.058V175H181.613L181.442 173.865H181.388C180.823 174.713 180.011 175.137 178.954 175.137C177.929 175.137 177.145 174.818 176.603 174.18C176.06 173.542 175.789 172.612 175.789 171.391C175.789 170.105 176.058 169.123 176.596 168.444C177.133 167.765 177.915 167.426 178.94 167.426ZM178.94 168.041C178.129 168.041 177.519 168.326 177.108 168.896C176.703 169.465 176.5 170.292 176.5 171.377C176.5 173.482 177.318 174.535 178.954 174.535C179.793 174.535 180.408 174.291 180.8 173.804C181.192 173.316 181.388 172.512 181.388 171.391V171.274C181.388 170.126 181.194 169.301 180.807 168.8C180.424 168.294 179.802 168.041 178.94 168.041Z" fill="black"/>
<rect x="11" y="109" width="165" height="1" fill="#323232"/>
</svg>
