<svg width="185" height="185" viewBox="0 0 185 185" fill="none" xmlns="http://www.w3.org/2000/svg">
<g clip-path="url(#clip0)">
<path d="M84.8677 26.087C84.4929 25.9889 84.1096 26.2133 84.0115 26.5881L83.0098 30.4158L74.2315 41.3728C73.9892 41.6751 74.0381 42.1167 74.3404 42.359C74.4698 42.4626 74.6248 42.513 74.7786 42.513C74.9842 42.513 75.1881 42.423 75.3266 42.25L84.1983 31.1765C84.2598 31.0997 84.3045 31.0107 84.3294 30.9154L85.3688 26.9432C85.467 26.5684 85.2427 26.1851 84.8677 26.087Z" fill="black"/>
<path d="M86.2397 24.1699C86.8098 22.9603 87.6759 21.9004 88.7443 21.1046L92.9623 17.9631C93.5257 17.5435 94.2226 17.3324 94.9236 17.371L98.9634 17.589C99.3962 17.6123 99.7892 17.8279 100.041 18.1803C100.294 18.5329 100.371 18.9743 100.253 19.3916C100.095 19.9534 99.6177 20.3563 99.0373 20.4182L95.4816 20.797C95.1938 20.8277 94.9543 21.0319 94.8787 21.3112L93.5204 26.3261C93.4122 26.7259 93.3781 27.1375 93.4191 27.549L93.6286 29.6551C93.6647 30.0171 93.9697 30.2873 94.3259 30.2873C94.3491 30.2873 94.3726 30.2861 94.3962 30.2838C94.7817 30.2454 95.0632 29.9018 95.0248 29.5163L94.8153 27.4101C94.7913 27.1688 94.8113 26.9274 94.8748 26.6929L96.1076 22.1414L99.1859 21.8135C100.34 21.6905 101.289 20.8892 101.604 19.7722C101.838 18.9426 101.684 18.0647 101.182 17.3637C100.681 16.6628 99.8996 16.2342 99.039 16.1879L94.9992 15.97C94.0392 15.9188 93.0859 16.1837 92.2917 16.7194L92.3025 16.6928C93.2959 14.2397 95.0096 12.2058 97.2584 10.8107L100.296 8.9262C100.365 8.88382 100.425 8.83004 100.475 8.76708L106.549 1.13905C106.79 0.835976 106.74 0.394554 106.437 0.153216C106.134 -0.0881207 105.693 -0.0379825 105.451 0.264999L99.4534 7.7979L96.5188 9.6184C94.0155 11.1714 92.1078 13.4356 91.0021 16.166L90.1279 18.3247L87.9063 19.9793C86.6536 20.9122 85.6385 22.1545 84.9705 23.5717C84.8053 23.9222 84.9556 24.3403 85.3061 24.5054C85.6566 24.6707 86.0746 24.5204 86.2397 24.1699Z" fill="black"/>
<path d="M121.66 2.27909C121.357 2.03672 120.916 2.08565 120.673 2.38797L116.775 7.254C116.532 7.55633 116.581 7.99794 116.884 8.24021C117.013 8.34386 117.168 8.39418 117.322 8.39418C117.527 8.39418 117.731 8.30419 117.87 8.13124L121.768 3.26521C122.011 2.96297 121.962 2.52136 121.66 2.27909Z" fill="black"/>
<path d="M115.889 9.48222C115.587 9.23985 115.145 9.28877 114.903 9.5911L111.927 13.3056C111.729 13.5534 111.618 13.8649 111.616 14.1823L111.596 17.3838L110.881 17.3516C109.411 17.2849 108.154 18.4308 108.087 19.9047L108.078 20.0988C108.05 20.7405 108.248 21.3573 108.638 21.8587C108.503 21.9428 108.375 22.0391 108.255 22.1485C107.739 22.6201 107.438 23.2645 107.406 23.9627L107.398 24.151C107.369 24.791 107.574 25.3882 107.937 25.8604C107.248 26.3046 106.776 27.0644 106.737 27.9439L106.728 28.1317C106.699 28.7856 106.91 29.4137 107.324 29.9147C106.635 30.3598 106.153 31.1114 106.094 31.981C106.059 32.499 106.171 33.0028 106.415 33.4462C106.397 33.4948 106.384 33.5459 106.378 33.5994L105.963 37.0417C105.96 37.0694 105.949 37.0959 105.933 37.1185L104.031 39.7549C103.788 40.0924 103.322 40.1811 102.972 39.9567C102.795 39.8436 102.673 39.6684 102.629 39.4635C102.593 39.3021 102.61 39.138 102.674 38.9892L103.746 37.3528C103.826 37.2306 103.954 36.9483 103.957 36.9401C104.025 36.7622 104.072 36.5758 104.093 36.3864L104.759 30.2729C104.801 29.8877 104.522 29.5415 104.137 29.4995C103.751 29.4578 103.406 29.7356 103.364 30.1209L102.698 36.2344C102.692 36.2867 102.68 36.338 102.664 36.3881L99.9031 40.6572C99.6536 41.0379 99.1699 41.1815 98.7531 40.9993C98.5188 40.8967 98.3413 40.7081 98.2532 40.4679C98.1651 40.2278 98.1784 39.9691 98.2908 39.7393L99.4326 37.4057C99.467 37.3355 99.5972 36.8641 99.6167 36.6945L100.381 30.0493C100.425 29.6645 100.149 29.3165 99.764 29.2721C99.3794 29.2285 99.0313 29.504 98.9869 29.8891L98.2227 36.5342C98.2084 36.6594 98.1614 36.7792 98.0869 36.8808L95.409 40.5366C95.1404 40.9037 94.6528 41.0173 94.2491 40.8067C93.8202 40.5825 93.6402 40.0617 93.8393 39.6206L95.2994 36.3866C95.5185 35.9017 95.6064 35.3653 95.5537 34.8356L95.3206 32.4925C95.2824 32.1069 94.9387 31.8257 94.5531 31.8638C94.1676 31.9022 93.8861 32.2458 93.9244 32.6313L94.1575 34.9744C94.1859 35.2596 94.1386 35.5481 94.0206 35.8092L92.5604 39.0432C92.3913 39.4179 92.3305 39.8153 92.3648 40.1996L91.3506 40.552C91.1174 40.6331 90.9126 40.7778 90.7587 40.9701L86.0392 46.861C85.7969 47.1633 85.8457 47.6049 86.148 47.8472C86.2775 47.9508 86.4324 48.0012 86.5863 48.0012C86.7919 48.0012 86.9957 47.9112 87.1343 47.7383L91.8369 41.8685L92.9064 41.4969C93.0944 41.7186 93.3272 41.9081 93.5995 42.0504C93.9445 42.2305 94.3137 42.3172 94.6778 42.3172C95.3933 42.3172 96.0892 41.9827 96.541 41.3658L96.9069 40.8662C96.9162 40.8946 96.9254 40.923 96.9358 40.9513C97.1569 41.5538 97.6025 42.0275 98.1905 42.2847C98.4953 42.418 98.8139 42.4819 99.1283 42.4818C99.8937 42.4818 100.633 42.1032 101.077 41.4262L101.628 40.5849C101.786 40.8013 101.983 40.9899 102.216 41.1387C102.58 41.3717 102.988 41.4837 103.393 41.4837C104.074 41.4837 104.743 41.1663 105.169 40.5758L105.486 40.1361C105.63 40.3664 105.816 40.575 106.047 40.7473C106.451 41.0496 106.921 41.1963 107.388 41.1963C108.042 41.1963 108.688 40.9074 109.131 40.3548L110.288 38.9108C110.656 38.4514 110.886 37.8993 110.954 37.3143L111.253 34.707C112.169 34.3289 112.846 33.4548 112.917 32.4119C112.964 31.7291 112.754 31.0707 112.326 30.5434C113.033 30.1025 113.52 29.3329 113.56 28.4394L113.568 28.2511C113.597 27.6224 113.4 27.0348 113.049 26.5666C113.757 26.1259 114.245 25.3556 114.285 24.4607L114.293 24.2728C114.322 23.6401 114.125 23.0322 113.737 22.5396C114.442 22.0855 114.925 21.3084 114.966 20.4085L114.974 20.2149C115.006 19.5008 114.759 18.8169 114.276 18.2892C113.927 17.9075 113.486 17.6413 112.998 17.5107L113.022 14.1831L115.998 10.4686C116.24 10.1661 116.191 9.72449 115.889 9.48222ZM112.575 23.336C112.794 23.5755 112.907 23.8856 112.892 24.2099L112.884 24.3978C112.854 25.0665 112.289 25.586 111.616 25.5561L109.792 25.4613C109.206 25.3532 108.772 24.8263 108.8 24.2143L108.808 24.026C108.823 23.702 108.963 23.4031 109.202 23.1844C109.428 22.9782 109.716 22.8664 110.02 22.8664C110.038 22.8664 111.734 22.9423 111.734 22.9423C112.058 22.9568 112.357 23.0966 112.575 23.336ZM112.159 28.376C112.129 29.0447 111.561 29.564 110.891 29.5344L109.288 29.4623C108.964 29.4477 108.665 29.3079 108.447 29.0685C108.228 28.8291 108.116 28.5189 108.13 28.1946L108.138 28.0068C108.169 27.3382 108.736 26.8189 109.406 26.8484L111.174 26.9407C111.761 27.0488 112.195 27.5757 112.167 28.1878L112.159 28.376ZM109.194 38.0332L108.037 39.4772C107.754 39.8299 107.249 39.8943 106.888 39.6235C106.53 39.3558 106.446 38.8567 106.698 38.4873L107.082 37.9238C107.083 37.9218 107.084 37.9197 107.086 37.9177C107.23 37.7102 107.323 37.4691 107.356 37.2139L107.67 34.6077C107.973 34.7436 108.303 34.8231 108.646 34.8385L109.82 34.8914L109.56 37.154C109.523 37.4761 109.396 37.7802 109.194 38.0332ZM111.518 32.3163C111.471 33.0017 110.878 33.5327 110.189 33.5033L108.709 33.4367C108.363 33.4211 108.045 33.2704 107.815 33.0122C107.584 32.754 107.47 32.4217 107.494 32.0763C107.54 31.391 108.136 30.86 108.823 30.8893L110.303 30.9559C110.649 30.9715 110.966 31.1222 111.197 31.3804C111.427 31.6386 111.541 31.9709 111.518 32.3163ZM113.573 20.1519L113.564 20.3456C113.533 21.0469 112.939 21.5914 112.235 21.5602L110.695 21.4909C110.355 21.4756 110.042 21.329 109.812 21.0779C109.583 20.8268 109.465 20.5016 109.48 20.162L109.489 19.9679C109.52 19.2667 110.115 18.7248 110.818 18.7533L112.358 18.8226C112.698 18.8379 113.011 18.9845 113.241 19.2356C113.47 19.4866 113.588 19.812 113.573 20.1519Z" fill="black"/>
</g>
<path d="M10.8047 74L9.66406 70.8281H5.29688L4.17969 74H2.21094L6.48438 62.5312H8.51562L12.7891 74H10.8047ZM9.17188 69.2188L8.10156 66.1094C8.02344 65.901 7.91406 65.5729 7.77344 65.125C7.63802 64.6771 7.54427 64.349 7.49219 64.1406C7.35156 64.7812 7.14583 65.4818 6.875 66.2422L5.84375 69.2188H9.17188ZM15.9375 74H14.1016V65.3594H15.9375V74ZM13.9922 63.0703C13.9922 62.7422 14.0807 62.4896 14.2578 62.3125C14.4401 62.1354 14.6979 62.0469 15.0312 62.0469C15.3542 62.0469 15.6042 62.1354 15.7812 62.3125C15.9635 62.4896 16.0547 62.7422 16.0547 63.0703C16.0547 63.3828 15.9635 63.6302 15.7812 63.8125C15.6042 63.9896 15.3542 64.0781 15.0312 64.0781C14.6979 64.0781 14.4401 63.9896 14.2578 63.8125C14.0807 63.6302 13.9922 63.3828 13.9922 63.0703ZM25.8516 74H24.0078V68.6719C24.0078 68.0104 23.8828 67.5182 23.6328 67.1953C23.3828 66.8672 22.9922 66.7031 22.4609 66.7031C21.7526 66.7031 21.2318 66.9349 20.8984 67.3984C20.5703 67.8568 20.4062 68.6224 20.4062 69.6953V74H18.5703V65.3594H20.0078L20.2656 66.4922H20.3594C20.599 66.0807 20.9453 65.763 21.3984 65.5391C21.8568 65.3151 22.3594 65.2031 22.9062 65.2031C24.2344 65.2031 25.1146 65.6562 25.5469 66.5625H25.6719C25.9271 66.1354 26.2865 65.8021 26.75 65.5625C27.2135 65.3229 27.7448 65.2031 28.3438 65.2031C29.375 65.2031 30.125 65.4635 30.5938 65.9844C31.0677 66.5052 31.3047 67.2995 31.3047 68.3672V74H29.4688V68.6719C29.4688 68.0104 29.3411 67.5182 29.0859 67.1953C28.8359 66.8672 28.4453 66.7031 27.9141 66.7031C27.2005 66.7031 26.6771 66.9271 26.3438 67.375C26.0156 67.8177 25.8516 68.5 25.8516 69.4219V74ZM42.3594 66.75H40.25V74H38.4062V66.75H36.9844V65.8906L38.4062 65.3281V64.7656C38.4062 63.7448 38.6458 62.9896 39.125 62.5C39.6042 62.0052 40.3359 61.7578 41.3203 61.7578C41.9661 61.7578 42.6016 61.8646 43.2266 62.0781L42.7422 63.4688C42.2891 63.3229 41.8568 63.25 41.4453 63.25C41.0286 63.25 40.724 63.3802 40.5312 63.6406C40.3438 63.8958 40.25 64.2812 40.25 64.7969V65.3594H42.3594V66.75ZM51.5 69.6641C51.5 71.0755 51.138 72.1771 50.4141 72.9688C49.6901 73.7604 48.6823 74.1562 47.3906 74.1562C46.5833 74.1562 45.8698 73.974 45.25 73.6094C44.6302 73.2448 44.1536 72.7214 43.8203 72.0391C43.487 71.3568 43.3203 70.5651 43.3203 69.6641C43.3203 68.263 43.6797 67.1693 44.3984 66.3828C45.1172 65.5964 46.1302 65.2031 47.4375 65.2031C48.6875 65.2031 49.6771 65.6068 50.4062 66.4141C51.1354 67.2161 51.5 68.2995 51.5 69.6641ZM45.2109 69.6641C45.2109 71.6589 45.9479 72.6562 47.4219 72.6562C48.8802 72.6562 49.6094 71.6589 49.6094 69.6641C49.6094 67.6901 48.875 66.7031 47.4062 66.7031C46.6354 66.7031 46.0755 66.9583 45.7266 67.4688C45.3828 67.9792 45.2109 68.7109 45.2109 69.6641ZM58 65.2031C58.3698 65.2031 58.6745 65.2292 58.9141 65.2812L58.7344 66.9922C58.474 66.9297 58.2031 66.8984 57.9219 66.8984C57.1875 66.8984 56.5911 67.138 56.1328 67.6172C55.6797 68.0964 55.4531 68.7188 55.4531 69.4844V74H53.6172V65.3594H55.0547L55.2969 66.8828H55.3906C55.6771 66.3672 56.0495 65.9583 56.5078 65.6562C56.9714 65.3542 57.4688 65.2031 58 65.2031ZM68.1641 74.1562C66.8568 74.1562 65.862 73.776 65.1797 73.0156C64.5026 72.25 64.1641 71.1536 64.1641 69.7266C64.1641 68.2734 64.5182 67.1562 65.2266 66.375C65.9401 65.5938 66.9688 65.2031 68.3125 65.2031C69.224 65.2031 70.0443 65.3724 70.7734 65.7109L70.2188 67.1875C69.4427 66.8854 68.8021 66.7344 68.2969 66.7344C66.8021 66.7344 66.0547 67.7266 66.0547 69.7109C66.0547 70.6797 66.2396 71.4089 66.6094 71.8984C66.9844 72.3828 67.5312 72.625 68.25 72.625C69.0677 72.625 69.8411 72.4219 70.5703 72.0156V73.6172C70.2422 73.8099 69.8906 73.9479 69.5156 74.0312C69.1458 74.1146 68.6953 74.1562 68.1641 74.1562ZM80.2656 69.6641C80.2656 71.0755 79.9036 72.1771 79.1797 72.9688C78.4557 73.7604 77.4479 74.1562 76.1562 74.1562C75.349 74.1562 74.6354 73.974 74.0156 73.6094C73.3958 73.2448 72.9193 72.7214 72.5859 72.0391C72.2526 71.3568 72.0859 70.5651 72.0859 69.6641C72.0859 68.263 72.4453 67.1693 73.1641 66.3828C73.8828 65.5964 74.8958 65.2031 76.2031 65.2031C77.4531 65.2031 78.4427 65.6068 79.1719 66.4141C79.901 67.2161 80.2656 68.2995 80.2656 69.6641ZM73.9766 69.6641C73.9766 71.6589 74.7135 72.6562 76.1875 72.6562C77.6458 72.6562 78.375 71.6589 78.375 69.6641C78.375 67.6901 77.6406 66.7031 76.1719 66.7031C75.401 66.7031 74.8411 66.9583 74.4922 67.4688C74.1484 67.9792 73.9766 68.7109 73.9766 69.6641ZM89.9844 74H88.1406V68.6875C88.1406 68.0208 88.0052 67.5234 87.7344 67.1953C87.4688 66.8672 87.0443 66.7031 86.4609 66.7031C85.6849 66.7031 85.1172 66.9323 84.7578 67.3906C84.3984 67.849 84.2188 68.6172 84.2188 69.6953V74H82.3828V65.3594H83.8203L84.0781 66.4922H84.1719C84.4323 66.0807 84.8021 65.763 85.2812 65.5391C85.7604 65.3151 86.2917 65.2031 86.875 65.2031C88.9479 65.2031 89.9844 66.2578 89.9844 68.3672V74ZM100.141 74H98.2969V68.6875C98.2969 68.0208 98.1615 67.5234 97.8906 67.1953C97.625 66.8672 97.2005 66.7031 96.6172 66.7031C95.8411 66.7031 95.2734 66.9323 94.9141 67.3906C94.5547 67.849 94.375 68.6172 94.375 69.6953V74H92.5391V65.3594H93.9766L94.2344 66.4922H94.3281C94.5885 66.0807 94.9583 65.763 95.4375 65.5391C95.9167 65.3151 96.4479 65.2031 97.0312 65.2031C99.1042 65.2031 100.141 66.2578 100.141 68.3672V74ZM106.469 74.1562C105.125 74.1562 104.073 73.7656 103.312 72.9844C102.557 72.1979 102.18 71.1172 102.18 69.7422C102.18 68.3307 102.531 67.2214 103.234 66.4141C103.938 65.6068 104.904 65.2031 106.133 65.2031C107.273 65.2031 108.174 65.5495 108.836 66.2422C109.497 66.9349 109.828 67.888 109.828 69.1016V70.0938H104.07C104.096 70.9323 104.323 71.5781 104.75 72.0312C105.177 72.4792 105.779 72.7031 106.555 72.7031C107.065 72.7031 107.539 72.6562 107.977 72.5625C108.419 72.4635 108.893 72.3021 109.398 72.0781V73.5703C108.951 73.7839 108.497 73.9349 108.039 74.0234C107.581 74.112 107.057 74.1562 106.469 74.1562ZM106.133 66.5938C105.549 66.5938 105.081 66.7786 104.727 67.1484C104.378 67.5182 104.169 68.0573 104.102 68.7656H108.023C108.013 68.0521 107.841 67.513 107.508 67.1484C107.174 66.7786 106.716 66.5938 106.133 66.5938ZM115.398 74.1562C114.091 74.1562 113.096 73.776 112.414 73.0156C111.737 72.25 111.398 71.1536 111.398 69.7266C111.398 68.2734 111.753 67.1562 112.461 66.375C113.174 65.5938 114.203 65.2031 115.547 65.2031C116.458 65.2031 117.279 65.3724 118.008 65.7109L117.453 67.1875C116.677 66.8854 116.036 66.7344 115.531 66.7344C114.036 66.7344 113.289 67.7266 113.289 69.7109C113.289 70.6797 113.474 71.4089 113.844 71.8984C114.219 72.3828 114.766 72.625 115.484 72.625C116.302 72.625 117.076 72.4219 117.805 72.0156V73.6172C117.477 73.8099 117.125 73.9479 116.75 74.0312C116.38 74.1146 115.93 74.1562 115.398 74.1562ZM123.055 72.6719C123.503 72.6719 123.951 72.6016 124.398 72.4609V73.8438C124.195 73.9323 123.932 74.0052 123.609 74.0625C123.292 74.125 122.961 74.1562 122.617 74.1562C120.878 74.1562 120.008 73.2396 120.008 71.4062V66.75H118.828V65.9375L120.094 65.2656L120.719 63.4375H121.852V65.3594H124.312V66.75H121.852V71.375C121.852 71.8177 121.961 72.1458 122.18 72.3594C122.404 72.5677 122.695 72.6719 123.055 72.6719ZM127.969 74H126.133V65.3594H127.969V74ZM126.023 63.0703C126.023 62.7422 126.112 62.4896 126.289 62.3125C126.471 62.1354 126.729 62.0469 127.062 62.0469C127.385 62.0469 127.635 62.1354 127.812 62.3125C127.995 62.4896 128.086 62.7422 128.086 63.0703C128.086 63.3828 127.995 63.6302 127.812 63.8125C127.635 63.9896 127.385 64.0781 127.062 64.0781C126.729 64.0781 126.471 63.9896 126.289 63.8125C126.112 63.6302 126.023 63.3828 126.023 63.0703ZM138.266 69.6641C138.266 71.0755 137.904 72.1771 137.18 72.9688C136.456 73.7604 135.448 74.1562 134.156 74.1562C133.349 74.1562 132.635 73.974 132.016 73.6094C131.396 73.2448 130.919 72.7214 130.586 72.0391C130.253 71.3568 130.086 70.5651 130.086 69.6641C130.086 68.263 130.445 67.1693 131.164 66.3828C131.883 65.5964 132.896 65.2031 134.203 65.2031C135.453 65.2031 136.443 65.6068 137.172 66.4141C137.901 67.2161 138.266 68.2995 138.266 69.6641ZM131.977 69.6641C131.977 71.6589 132.714 72.6562 134.188 72.6562C135.646 72.6562 136.375 71.6589 136.375 69.6641C136.375 67.6901 135.641 66.7031 134.172 66.7031C133.401 66.7031 132.841 66.9583 132.492 67.4688C132.148 67.9792 131.977 68.7109 131.977 69.6641ZM147.984 74H146.141V68.6875C146.141 68.0208 146.005 67.5234 145.734 67.1953C145.469 66.8672 145.044 66.7031 144.461 66.7031C143.685 66.7031 143.117 66.9323 142.758 67.3906C142.398 67.849 142.219 68.6172 142.219 69.6953V74H140.383V65.3594H141.82L142.078 66.4922H142.172C142.432 66.0807 142.802 65.763 143.281 65.5391C143.76 65.3151 144.292 65.2031 144.875 65.2031C146.948 65.2031 147.984 66.2578 147.984 68.3672V74ZM160.102 74L159.734 72.7969H159.672C159.255 73.3229 158.836 73.6823 158.414 73.875C157.992 74.0625 157.451 74.1562 156.789 74.1562C155.94 74.1562 155.276 73.9271 154.797 73.4688C154.323 73.0104 154.086 72.362 154.086 71.5234C154.086 70.6328 154.417 69.9609 155.078 69.5078C155.74 69.0547 156.747 68.8073 158.102 68.7656L159.594 68.7188V68.2578C159.594 67.7057 159.464 67.2943 159.203 67.0234C158.948 66.7474 158.549 66.6094 158.008 66.6094C157.565 66.6094 157.141 66.6745 156.734 66.8047C156.328 66.9349 155.938 67.0885 155.562 67.2656L154.969 65.9531C155.438 65.7083 155.951 65.5234 156.508 65.3984C157.065 65.2682 157.591 65.2031 158.086 65.2031C159.185 65.2031 160.013 65.4427 160.57 65.9219C161.133 66.401 161.414 67.1536 161.414 68.1797V74H160.102ZM157.367 72.75C158.034 72.75 158.568 72.5651 158.969 72.1953C159.375 71.8203 159.578 71.2969 159.578 70.625V69.875L158.469 69.9219C157.604 69.9531 156.974 70.099 156.578 70.3594C156.188 70.6146 155.992 71.0078 155.992 71.5391C155.992 71.9245 156.107 72.224 156.336 72.4375C156.565 72.6458 156.909 72.75 157.367 72.75ZM171.578 74H169.734V68.6875C169.734 68.0208 169.599 67.5234 169.328 67.1953C169.062 66.8672 168.638 66.7031 168.055 66.7031C167.279 66.7031 166.711 66.9323 166.352 67.3906C165.992 67.849 165.812 68.6172 165.812 69.6953V74H163.977V65.3594H165.414L165.672 66.4922H165.766C166.026 66.0807 166.396 65.763 166.875 65.5391C167.354 65.3151 167.885 65.2031 168.469 65.2031C170.542 65.2031 171.578 66.2578 171.578 68.3672V74ZM177.047 74.1562C175.969 74.1562 175.128 73.7656 174.523 72.9844C173.919 72.2031 173.617 71.1068 173.617 69.6953C173.617 68.2786 173.922 67.1771 174.531 66.3906C175.146 65.599 175.995 65.2031 177.078 65.2031C178.214 65.2031 179.078 65.6224 179.672 66.4609H179.766C179.677 65.8411 179.633 65.3516 179.633 64.9922V61.8438H181.477V74H180.039L179.719 72.8672H179.633C179.044 73.7266 178.182 74.1562 177.047 74.1562ZM177.539 72.6719C178.294 72.6719 178.844 72.4609 179.188 72.0391C179.531 71.612 179.708 70.9219 179.719 69.9688V69.7109C179.719 68.6224 179.542 67.849 179.188 67.3906C178.833 66.9323 178.279 66.7031 177.523 66.7031C176.878 66.7031 176.38 66.9661 176.031 67.4922C175.682 68.013 175.508 68.7578 175.508 69.7266C175.508 70.6849 175.677 71.4167 176.016 71.9219C176.354 72.4219 176.862 72.6719 177.539 72.6719ZM46.0156 94.1562C44.7083 94.1562 43.7135 93.776 43.0312 93.0156C42.3542 92.25 42.0156 91.1536 42.0156 89.7266C42.0156 88.2734 42.3698 87.1562 43.0781 86.375C43.7917 85.5938 44.8203 85.2031 46.1641 85.2031C47.0755 85.2031 47.8958 85.3724 48.625 85.7109L48.0703 87.1875C47.2943 86.8854 46.6536 86.7344 46.1484 86.7344C44.6536 86.7344 43.9062 87.7266 43.9062 89.7109C43.9062 90.6797 44.0911 91.4089 44.4609 91.8984C44.8359 92.3828 45.3828 92.625 46.1016 92.625C46.9193 92.625 47.6927 92.4219 48.4219 92.0156V93.6172C48.0938 93.8099 47.7422 93.9479 47.3672 94.0312C46.9974 94.1146 46.5469 94.1562 46.0156 94.1562ZM58.1172 89.6641C58.1172 91.0755 57.7552 92.1771 57.0312 92.9688C56.3073 93.7604 55.2995 94.1562 54.0078 94.1562C53.2005 94.1562 52.487 93.974 51.8672 93.6094C51.2474 93.2448 50.7708 92.7214 50.4375 92.0391C50.1042 91.3568 49.9375 90.5651 49.9375 89.6641C49.9375 88.263 50.2969 87.1693 51.0156 86.3828C51.7344 85.5964 52.7474 85.2031 54.0547 85.2031C55.3047 85.2031 56.2943 85.6068 57.0234 86.4141C57.7526 87.2161 58.1172 88.2995 58.1172 89.6641ZM51.8281 89.6641C51.8281 91.6589 52.5651 92.6562 54.0391 92.6562C55.4974 92.6562 56.2266 91.6589 56.2266 89.6641C56.2266 87.6901 55.4922 86.7031 54.0234 86.7031C53.2526 86.7031 52.6927 86.9583 52.3438 87.4688C52 87.9792 51.8281 88.7109 51.8281 89.6641ZM62.0703 94H60.2344V81.8438H62.0703V94ZM66.5391 94H64.7031V81.8438H66.5391V94ZM74.5781 94L74.2109 92.7969H74.1484C73.7318 93.3229 73.3125 93.6823 72.8906 93.875C72.4688 94.0625 71.9271 94.1562 71.2656 94.1562C70.4167 94.1562 69.7526 93.9271 69.2734 93.4688C68.7995 93.0104 68.5625 92.362 68.5625 91.5234C68.5625 90.6328 68.8932 89.9609 69.5547 89.5078C70.2161 89.0547 71.224 88.8073 72.5781 88.7656L74.0703 88.7188V88.2578C74.0703 87.7057 73.9401 87.2943 73.6797 87.0234C73.4245 86.7474 73.026 86.6094 72.4844 86.6094C72.0417 86.6094 71.6172 86.6745 71.2109 86.8047C70.8047 86.9349 70.4141 87.0885 70.0391 87.2656L69.4453 85.9531C69.9141 85.7083 70.4271 85.5234 70.9844 85.3984C71.5417 85.2682 72.0677 85.2031 72.5625 85.2031C73.6615 85.2031 74.4896 85.4427 75.0469 85.9219C75.6094 86.401 75.8906 87.1536 75.8906 88.1797V94H74.5781ZM71.8438 92.75C72.5104 92.75 73.0443 92.5651 73.4453 92.1953C73.8516 91.8203 74.0547 91.2969 74.0547 90.625V89.875L72.9453 89.9219C72.0807 89.9531 71.4505 90.099 71.0547 90.3594C70.6641 90.6146 70.4688 91.0078 70.4688 91.5391C70.4688 91.9245 70.5833 92.224 70.8125 92.4375C71.0417 92.6458 71.3854 92.75 71.8438 92.75ZM82.8672 85.2031C83.9453 85.2031 84.7839 85.5938 85.3828 86.375C85.987 87.1562 86.2891 88.2526 86.2891 89.6641C86.2891 91.0807 85.9844 92.1849 85.375 92.9766C84.7656 93.763 83.9193 94.1562 82.8359 94.1562C81.7422 94.1562 80.8932 93.763 80.2891 92.9766H80.1641L79.8281 94H78.4531V81.8438H80.2891V84.7344C80.2891 84.9479 80.2786 85.2656 80.2578 85.6875C80.237 86.1094 80.2214 86.3776 80.2109 86.4922H80.2891C80.8724 85.6328 81.7318 85.2031 82.8672 85.2031ZM82.3906 86.7031C81.651 86.7031 81.1172 86.9219 80.7891 87.3594C80.4661 87.7917 80.2995 88.5182 80.2891 89.5391V89.6641C80.2891 90.7161 80.4557 91.4792 80.7891 91.9531C81.1224 92.4219 81.6667 92.6562 82.4219 92.6562C83.0729 92.6562 83.5651 92.3984 83.8984 91.8828C84.237 91.3672 84.4062 90.6224 84.4062 89.6484C84.4062 87.6849 83.7344 86.7031 82.3906 86.7031ZM96.0859 89.6641C96.0859 91.0755 95.724 92.1771 95 92.9688C94.276 93.7604 93.2682 94.1562 91.9766 94.1562C91.1693 94.1562 90.4557 93.974 89.8359 93.6094C89.2161 93.2448 88.7396 92.7214 88.4062 92.0391C88.0729 91.3568 87.9062 90.5651 87.9062 89.6641C87.9062 88.263 88.2656 87.1693 88.9844 86.3828C89.7031 85.5964 90.7161 85.2031 92.0234 85.2031C93.2734 85.2031 94.263 85.6068 94.9922 86.4141C95.7214 87.2161 96.0859 88.2995 96.0859 89.6641ZM89.7969 89.6641C89.7969 91.6589 90.5339 92.6562 92.0078 92.6562C93.4661 92.6562 94.1953 91.6589 94.1953 89.6641C94.1953 87.6901 93.4609 86.7031 91.9922 86.7031C91.2214 86.7031 90.6615 86.9583 90.3125 87.4688C89.9688 87.9792 89.7969 88.7109 89.7969 89.6641ZM102.586 85.2031C102.956 85.2031 103.26 85.2292 103.5 85.2812L103.32 86.9922C103.06 86.9297 102.789 86.8984 102.508 86.8984C101.773 86.8984 101.177 87.138 100.719 87.6172C100.266 88.0964 100.039 88.7188 100.039 89.4844V94H98.2031V85.3594H99.6406L99.8828 86.8828H99.9766C100.263 86.3672 100.635 85.9583 101.094 85.6562C101.557 85.3542 102.055 85.2031 102.586 85.2031ZM110.516 94L110.148 92.7969H110.086C109.669 93.3229 109.25 93.6823 108.828 93.875C108.406 94.0625 107.865 94.1562 107.203 94.1562C106.354 94.1562 105.69 93.9271 105.211 93.4688C104.737 93.0104 104.5 92.362 104.5 91.5234C104.5 90.6328 104.831 89.9609 105.492 89.5078C106.154 89.0547 107.161 88.8073 108.516 88.7656L110.008 88.7188V88.2578C110.008 87.7057 109.878 87.2943 109.617 87.0234C109.362 86.7474 108.964 86.6094 108.422 86.6094C107.979 86.6094 107.555 86.6745 107.148 86.8047C106.742 86.9349 106.352 87.0885 105.977 87.2656L105.383 85.9531C105.852 85.7083 106.365 85.5234 106.922 85.3984C107.479 85.2682 108.005 85.2031 108.5 85.2031C109.599 85.2031 110.427 85.4427 110.984 85.9219C111.547 86.401 111.828 87.1536 111.828 88.1797V94H110.516ZM107.781 92.75C108.448 92.75 108.982 92.5651 109.383 92.1953C109.789 91.8203 109.992 91.2969 109.992 90.625V89.875L108.883 89.9219C108.018 89.9531 107.388 90.099 106.992 90.3594C106.602 90.6146 106.406 91.0078 106.406 91.5391C106.406 91.9245 106.521 92.224 106.75 92.4375C106.979 92.6458 107.323 92.75 107.781 92.75ZM117.609 92.6719C118.057 92.6719 118.505 92.6016 118.953 92.4609V93.8438C118.75 93.9323 118.487 94.0052 118.164 94.0625C117.846 94.125 117.516 94.1562 117.172 94.1562C115.432 94.1562 114.562 93.2396 114.562 91.4062V86.75H113.383V85.9375L114.648 85.2656L115.273 83.4375H116.406V85.3594H118.867V86.75H116.406V91.375C116.406 91.8177 116.516 92.1458 116.734 92.3594C116.958 92.5677 117.25 92.6719 117.609 92.6719ZM122.523 94H120.688V85.3594H122.523V94ZM120.578 83.0703C120.578 82.7422 120.667 82.4896 120.844 82.3125C121.026 82.1354 121.284 82.0469 121.617 82.0469C121.94 82.0469 122.19 82.1354 122.367 82.3125C122.549 82.4896 122.641 82.7422 122.641 83.0703C122.641 83.3828 122.549 83.6302 122.367 83.8125C122.19 83.9896 121.94 84.0781 121.617 84.0781C121.284 84.0781 121.026 83.9896 120.844 83.8125C120.667 83.6302 120.578 83.3828 120.578 83.0703ZM132.82 89.6641C132.82 91.0755 132.458 92.1771 131.734 92.9688C131.01 93.7604 130.003 94.1562 128.711 94.1562C127.904 94.1562 127.19 93.974 126.57 93.6094C125.951 93.2448 125.474 92.7214 125.141 92.0391C124.807 91.3568 124.641 90.5651 124.641 89.6641C124.641 88.263 125 87.1693 125.719 86.3828C126.438 85.5964 127.451 85.2031 128.758 85.2031C130.008 85.2031 130.997 85.6068 131.727 86.4141C132.456 87.2161 132.82 88.2995 132.82 89.6641ZM126.531 89.6641C126.531 91.6589 127.268 92.6562 128.742 92.6562C130.201 92.6562 130.93 91.6589 130.93 89.6641C130.93 87.6901 130.195 86.7031 128.727 86.7031C127.956 86.7031 127.396 86.9583 127.047 87.4688C126.703 87.9792 126.531 88.7109 126.531 89.6641ZM142.539 94H140.695V88.6875C140.695 88.0208 140.56 87.5234 140.289 87.1953C140.023 86.8672 139.599 86.7031 139.016 86.7031C138.24 86.7031 137.672 86.9323 137.312 87.3906C136.953 87.849 136.773 88.6172 136.773 89.6953V94H134.938V85.3594H136.375L136.633 86.4922H136.727C136.987 86.0807 137.357 85.763 137.836 85.5391C138.315 85.3151 138.846 85.2031 139.43 85.2031C141.503 85.2031 142.539 86.2578 142.539 88.3672V94Z" fill="black"/>
<path d="M16.4365 135L13.5654 127.569H14.2627L16.1836 132.621C16.4388 133.268 16.6302 133.833 16.7578 134.316H16.7988C16.9857 133.697 17.1771 133.127 17.373 132.607L19.2939 127.569H19.9912L17.1201 135H16.4365ZM21.9121 135H21.2354V127.569H21.9121V135ZM21.1396 125.505C21.1396 125.067 21.2832 124.849 21.5703 124.849C21.7116 124.849 21.821 124.906 21.8984 125.02C21.9805 125.133 22.0215 125.295 22.0215 125.505C22.0215 125.71 21.9805 125.872 21.8984 125.99C21.821 126.109 21.7116 126.168 21.5703 126.168C21.2832 126.168 21.1396 125.947 21.1396 125.505ZM26.3691 134.535C26.7975 134.535 27.1712 134.499 27.4902 134.426V134.973C27.1621 135.082 26.7839 135.137 26.3555 135.137C25.6992 135.137 25.2139 134.961 24.8994 134.61C24.5895 134.259 24.4346 133.708 24.4346 132.956V128.157H23.334V127.761L24.4346 127.453L24.7764 125.771H25.125V127.569H27.3057V128.157H25.125V132.86C25.125 133.43 25.2253 133.852 25.4258 134.125C25.6263 134.398 25.9408 134.535 26.3691 134.535ZM33.6084 135L33.4375 133.824H33.3828C33.0091 134.303 32.624 134.642 32.2275 134.843C31.8356 135.039 31.3708 135.137 30.833 135.137C30.1038 135.137 29.5365 134.95 29.1309 134.576C28.7253 134.202 28.5225 133.685 28.5225 133.024C28.5225 132.3 28.8232 131.737 29.4248 131.336C30.0309 130.935 30.9059 130.723 32.0498 130.7L33.4648 130.659V130.167C33.4648 129.461 33.3213 128.927 33.0342 128.567C32.7471 128.207 32.2845 128.027 31.6465 128.027C30.9583 128.027 30.2451 128.219 29.5068 128.602L29.2539 128.014C30.0697 127.631 30.8763 127.439 31.6738 127.439C32.4896 127.439 33.098 127.651 33.499 128.075C33.9046 128.499 34.1074 129.16 34.1074 130.058V135H33.6084ZM30.874 134.521C31.667 134.521 32.2913 134.296 32.7471 133.845C33.2074 133.389 33.4375 132.758 33.4375 131.951V131.22L32.1387 131.274C31.0951 131.325 30.3499 131.489 29.9033 131.767C29.4613 132.04 29.2402 132.468 29.2402 133.052C29.2402 133.517 29.3815 133.879 29.6641 134.139C29.9512 134.394 30.3545 134.521 30.874 134.521ZM37.1973 135H36.5205V124.363H37.1973V135ZM46.2959 135.137C45.234 135.137 44.4023 134.802 43.8008 134.132C43.1992 133.462 42.8984 132.528 42.8984 131.329C42.8984 130.099 43.2106 129.142 43.835 128.458C44.4593 127.77 45.3138 127.426 46.3984 127.426C47.041 127.426 47.6562 127.537 48.2441 127.761L48.0596 128.362C47.417 128.148 46.8587 128.041 46.3848 128.041C45.4733 128.041 44.7829 128.324 44.3135 128.889C43.8441 129.449 43.6094 130.258 43.6094 131.315C43.6094 132.318 43.8441 133.104 44.3135 133.674C44.7829 134.239 45.4391 134.521 46.2822 134.521C46.9567 134.521 47.5833 134.401 48.1621 134.159V134.788C47.6882 135.021 47.0661 135.137 46.2959 135.137ZM56.1328 131.274C56.1328 132.487 55.8389 133.435 55.251 134.118C54.6631 134.797 53.8519 135.137 52.8174 135.137C52.1657 135.137 51.5915 134.979 51.0947 134.665C50.598 134.351 50.2174 133.899 49.9531 133.312C49.6888 132.724 49.5566 132.045 49.5566 131.274C49.5566 130.062 49.8506 129.119 50.4385 128.444C51.0264 127.765 51.833 127.426 52.8584 127.426C53.8792 127.426 54.679 127.77 55.2578 128.458C55.8411 129.142 56.1328 130.08 56.1328 131.274ZM50.2676 131.274C50.2676 132.295 50.4909 133.093 50.9375 133.667C51.3887 134.237 52.0244 134.521 52.8447 134.521C53.665 134.521 54.2985 134.237 54.7451 133.667C55.1963 133.093 55.4219 132.295 55.4219 131.274C55.4219 130.249 55.194 129.454 54.7383 128.889C54.2871 128.324 53.6514 128.041 52.8311 128.041C52.0107 128.041 51.3773 128.324 50.9307 128.889C50.4886 129.449 50.2676 130.244 50.2676 131.274ZM67.4736 135V130.126C67.4736 129.401 67.3324 128.873 67.0498 128.54C66.7673 128.207 66.3343 128.041 65.751 128.041C64.9899 128.041 64.4271 128.251 64.0625 128.67C63.6979 129.089 63.5156 129.748 63.5156 130.646V135H62.8252V129.921C62.8252 128.668 62.251 128.041 61.1025 128.041C60.3232 128.041 59.7559 128.269 59.4004 128.725C59.0449 129.176 58.8672 129.9 58.8672 130.898V135H58.1904V127.569H58.751L58.8945 128.588H58.9355C59.1406 128.219 59.4323 127.934 59.8105 127.733C60.1888 127.528 60.6058 127.426 61.0615 127.426C62.2327 127.426 62.9847 127.866 63.3174 128.745H63.3447C63.5863 128.321 63.9098 127.995 64.3154 127.768C64.7256 127.54 65.1904 127.426 65.71 127.426C66.5212 127.426 67.1296 127.642 67.5352 128.075C67.9408 128.508 68.1436 129.196 68.1436 130.14V135H67.4736ZM73.7285 135.137C72.5846 135.137 71.7507 134.708 71.2266 133.852H71.1787L71.1992 134.426C71.2174 134.763 71.2266 135.132 71.2266 135.533V138.363H70.5498V127.569H71.124L71.2539 128.629H71.2949C71.8053 127.827 72.6211 127.426 73.7422 127.426C74.7448 127.426 75.5081 127.756 76.0322 128.417C76.5609 129.073 76.8252 130.03 76.8252 131.288C76.8252 132.509 76.5472 133.457 75.9912 134.132C75.4398 134.802 74.6855 135.137 73.7285 135.137ZM73.7148 134.535C74.4759 134.535 75.0638 134.253 75.4785 133.688C75.8978 133.122 76.1074 132.332 76.1074 131.315C76.1074 129.132 75.319 128.041 73.7422 128.041C72.8763 128.041 72.2406 128.28 71.835 128.759C71.4294 129.233 71.2266 130.007 71.2266 131.083V131.302C71.2266 132.464 71.4202 133.293 71.8076 133.79C72.1995 134.287 72.8353 134.535 73.7148 134.535ZM85.0352 131.274C85.0352 132.487 84.7412 133.435 84.1533 134.118C83.5654 134.797 82.7542 135.137 81.7197 135.137C81.068 135.137 80.4938 134.979 79.9971 134.665C79.5003 134.351 79.1198 133.899 78.8555 133.312C78.5911 132.724 78.459 132.045 78.459 131.274C78.459 130.062 78.7529 129.119 79.3408 128.444C79.9287 127.765 80.7354 127.426 81.7607 127.426C82.7816 127.426 83.5814 127.77 84.1602 128.458C84.7435 129.142 85.0352 130.08 85.0352 131.274ZM79.1699 131.274C79.1699 132.295 79.3932 133.093 79.8398 133.667C80.291 134.237 80.9268 134.521 81.7471 134.521C82.5674 134.521 83.2008 134.237 83.6475 133.667C84.0986 133.093 84.3242 132.295 84.3242 131.274C84.3242 130.249 84.0964 129.454 83.6406 128.889C83.1895 128.324 82.5537 128.041 81.7334 128.041C80.9131 128.041 80.2796 128.324 79.833 128.889C79.391 129.449 79.1699 130.244 79.1699 131.274ZM92.2744 135V130.181C92.2744 129.433 92.1172 128.891 91.8027 128.554C91.4883 128.212 91.0007 128.041 90.3398 128.041C89.4512 128.041 88.7995 128.267 88.3848 128.718C87.9746 129.164 87.7695 129.891 87.7695 130.898V135H87.0928V127.569H87.667L87.7969 128.588H87.8379C88.321 127.813 89.18 127.426 90.415 127.426C92.1012 127.426 92.9443 128.33 92.9443 130.14V135H92.2744ZM98.3516 135.137C97.2715 135.137 96.4284 134.804 95.8223 134.139C95.2207 133.473 94.9199 132.541 94.9199 131.343C94.9199 130.158 95.2116 129.21 95.7949 128.499C96.3783 127.784 97.1644 127.426 98.1533 127.426C99.0283 127.426 99.7188 127.731 100.225 128.342C100.73 128.952 100.983 129.782 100.983 130.83V131.377H95.6309C95.64 132.398 95.877 133.177 96.3418 133.715C96.8112 134.253 97.4811 134.521 98.3516 134.521C98.7754 134.521 99.1468 134.492 99.4658 134.433C99.7894 134.373 100.197 134.246 100.689 134.05V134.665C100.27 134.847 99.8828 134.97 99.5273 135.034C99.1719 135.103 98.7799 135.137 98.3516 135.137ZM98.1533 128.027C97.4378 128.027 96.8636 128.264 96.4307 128.738C95.9977 129.208 95.7448 129.887 95.6719 130.775H100.266C100.266 129.914 100.079 129.242 99.7051 128.759C99.3314 128.271 98.8141 128.027 98.1533 128.027ZM108.216 135V130.181C108.216 129.433 108.059 128.891 107.744 128.554C107.43 128.212 106.942 128.041 106.281 128.041C105.393 128.041 104.741 128.267 104.326 128.718C103.916 129.164 103.711 129.891 103.711 130.898V135H103.034V127.569H103.608L103.738 128.588H103.779C104.262 127.813 105.121 127.426 106.356 127.426C108.043 127.426 108.886 128.33 108.886 130.14V135H108.216ZM113.254 134.535C113.682 134.535 114.056 134.499 114.375 134.426V134.973C114.047 135.082 113.669 135.137 113.24 135.137C112.584 135.137 112.099 134.961 111.784 134.61C111.474 134.259 111.319 133.708 111.319 132.956V128.157H110.219V127.761L111.319 127.453L111.661 125.771H112.01V127.569H114.19V128.157H112.01V132.86C112.01 133.43 112.11 133.852 112.311 134.125C112.511 134.398 112.826 134.535 113.254 134.535ZM120.589 133.065C120.589 133.731 120.336 134.243 119.83 134.604C119.324 134.959 118.606 135.137 117.677 135.137C116.683 135.137 115.895 134.984 115.312 134.679V133.947C116.059 134.321 116.847 134.508 117.677 134.508C118.41 134.508 118.966 134.387 119.345 134.146C119.728 133.899 119.919 133.574 119.919 133.168C119.919 132.794 119.766 132.48 119.461 132.225C119.16 131.969 118.663 131.719 117.971 131.473C117.228 131.204 116.706 130.974 116.405 130.782C116.104 130.586 115.877 130.368 115.722 130.126C115.571 129.88 115.496 129.581 115.496 129.23C115.496 128.674 115.729 128.235 116.193 127.911C116.663 127.588 117.317 127.426 118.155 127.426C118.957 127.426 119.718 127.576 120.438 127.877L120.186 128.492C119.456 128.191 118.78 128.041 118.155 128.041C117.549 128.041 117.068 128.141 116.713 128.342C116.357 128.542 116.18 128.82 116.18 129.176C116.18 129.563 116.316 129.873 116.59 130.105C116.868 130.338 117.408 130.598 118.21 130.885C118.88 131.126 119.368 131.345 119.673 131.541C119.978 131.732 120.206 131.951 120.356 132.197C120.511 132.443 120.589 132.733 120.589 133.065ZM132.285 131.274C132.285 132.487 131.991 133.435 131.403 134.118C130.815 134.797 130.004 135.137 128.97 135.137C128.318 135.137 127.744 134.979 127.247 134.665C126.75 134.351 126.37 133.899 126.105 133.312C125.841 132.724 125.709 132.045 125.709 131.274C125.709 130.062 126.003 129.119 126.591 128.444C127.179 127.765 127.985 127.426 129.011 127.426C130.032 127.426 130.831 127.77 131.41 128.458C131.993 129.142 132.285 130.08 132.285 131.274ZM126.42 131.274C126.42 132.295 126.643 133.093 127.09 133.667C127.541 134.237 128.177 134.521 128.997 134.521C129.817 134.521 130.451 134.237 130.897 133.667C131.349 133.093 131.574 132.295 131.574 131.274C131.574 130.249 131.346 129.454 130.891 128.889C130.439 128.324 129.804 128.041 128.983 128.041C128.163 128.041 127.53 128.324 127.083 128.889C126.641 129.449 126.42 130.244 126.42 131.274ZM137.104 128.157H135.354V135H134.678V128.157H133.297V127.761L134.678 127.508V126.934C134.678 126.022 134.844 125.354 135.177 124.931C135.514 124.502 136.063 124.288 136.824 124.288C137.234 124.288 137.645 124.35 138.055 124.473L137.897 125.061C137.533 124.947 137.171 124.89 136.811 124.89C136.282 124.89 135.906 125.047 135.683 125.361C135.464 125.671 135.354 126.177 135.354 126.879V127.569H137.104V128.157ZM148.117 135L146.49 130.03C146.385 129.693 146.251 129.199 146.087 128.547H146.046L145.902 129.053L145.595 130.044L143.94 135H143.271L141.145 127.569H141.869L143.059 131.876C143.337 132.942 143.519 133.726 143.605 134.228H143.646C143.915 133.161 144.111 132.452 144.234 132.102L145.766 127.569H146.381L147.837 132.088C148.165 133.159 148.366 133.868 148.438 134.214H148.479C148.516 133.918 148.698 133.125 149.026 131.835L150.161 127.569H150.845L148.828 135H148.117ZM157.489 135V130.181C157.489 129.433 157.332 128.891 157.018 128.554C156.703 128.212 156.215 128.041 155.555 128.041C154.666 128.041 154.014 128.267 153.6 128.718C153.189 129.164 152.984 129.891 152.984 130.898V135H152.308V124.363H152.984V127.747L152.95 128.697H152.998C153.276 128.251 153.627 127.927 154.051 127.727C154.475 127.526 155.001 127.426 155.63 127.426C157.316 127.426 158.159 128.33 158.159 130.14V135H157.489ZM165.077 135L164.906 133.824H164.852C164.478 134.303 164.093 134.642 163.696 134.843C163.304 135.039 162.84 135.137 162.302 135.137C161.573 135.137 161.005 134.95 160.6 134.576C160.194 134.202 159.991 133.685 159.991 133.024C159.991 132.3 160.292 131.737 160.894 131.336C161.5 130.935 162.375 130.723 163.519 130.7L164.934 130.659V130.167C164.934 129.461 164.79 128.927 164.503 128.567C164.216 128.207 163.753 128.027 163.115 128.027C162.427 128.027 161.714 128.219 160.976 128.602L160.723 128.014C161.538 127.631 162.345 127.439 163.143 127.439C163.958 127.439 164.567 127.651 164.968 128.075C165.373 128.499 165.576 129.16 165.576 130.058V135H165.077ZM162.343 134.521C163.136 134.521 163.76 134.296 164.216 133.845C164.676 133.389 164.906 132.758 164.906 131.951V131.22L163.607 131.274C162.564 131.325 161.819 131.489 161.372 131.767C160.93 132.04 160.709 132.468 160.709 133.052C160.709 133.517 160.85 133.879 161.133 134.139C161.42 134.394 161.823 134.521 162.343 134.521ZM169.951 134.535C170.38 134.535 170.753 134.499 171.072 134.426V134.973C170.744 135.082 170.366 135.137 169.938 135.137C169.281 135.137 168.796 134.961 168.481 134.61C168.172 134.259 168.017 133.708 168.017 132.956V128.157H166.916V127.761L168.017 127.453L168.358 125.771H168.707V127.569H170.888V128.157H168.707V132.86C168.707 133.43 168.807 133.852 169.008 134.125C169.208 134.398 169.523 134.535 169.951 134.535ZM17.7422 147.426C18.2799 147.426 18.7448 147.524 19.1367 147.72C19.5286 147.916 19.8796 148.251 20.1895 148.725H20.2305C20.2031 148.15 20.1895 147.588 20.1895 147.036V144.363H20.8594V155H20.415L20.2441 153.865H20.1895C19.6243 154.713 18.8132 155.137 17.7559 155.137C16.7305 155.137 15.9466 154.818 15.4043 154.18C14.862 153.542 14.5908 152.612 14.5908 151.391C14.5908 150.105 14.8597 149.123 15.3975 148.444C15.9352 147.765 16.7168 147.426 17.7422 147.426ZM17.7422 148.041C16.931 148.041 16.3203 148.326 15.9102 148.896C15.5046 149.465 15.3018 150.292 15.3018 151.377C15.3018 153.482 16.1198 154.535 17.7559 154.535C18.5944 154.535 19.2096 154.291 19.6016 153.804C19.9935 153.316 20.1895 152.512 20.1895 151.391V151.274C20.1895 150.126 19.9958 149.301 19.6084 148.8C19.2256 148.294 18.6035 148.041 17.7422 148.041ZM26.3623 155.137C25.2822 155.137 24.4391 154.804 23.833 154.139C23.2314 153.473 22.9307 152.541 22.9307 151.343C22.9307 150.158 23.2223 149.21 23.8057 148.499C24.389 147.784 25.1751 147.426 26.1641 147.426C27.0391 147.426 27.7295 147.731 28.2354 148.342C28.7412 148.952 28.9941 149.782 28.9941 150.83V151.377H23.6416C23.6507 152.398 23.8877 153.177 24.3525 153.715C24.8219 154.253 25.4919 154.521 26.3623 154.521C26.7861 154.521 27.1576 154.492 27.4766 154.433C27.8001 154.373 28.208 154.246 28.7002 154.05V154.665C28.2809 154.847 27.8936 154.97 27.5381 155.034C27.1826 155.103 26.7907 155.137 26.3623 155.137ZM26.1641 148.027C25.4486 148.027 24.8743 148.264 24.4414 148.738C24.0085 149.208 23.7555 149.887 23.6826 150.775H28.2764C28.2764 149.914 28.0895 149.242 27.7158 148.759C27.3421 148.271 26.8249 148.027 26.1641 148.027ZM35.6523 153.065C35.6523 153.731 35.3994 154.243 34.8936 154.604C34.3877 154.959 33.6699 155.137 32.7402 155.137C31.7467 155.137 30.9583 154.984 30.375 154.679V153.947C31.1224 154.321 31.9108 154.508 32.7402 154.508C33.474 154.508 34.0299 154.387 34.4082 154.146C34.791 153.899 34.9824 153.574 34.9824 153.168C34.9824 152.794 34.8298 152.48 34.5244 152.225C34.2236 151.969 33.7269 151.719 33.0342 151.473C32.2913 151.204 31.7695 150.974 31.4688 150.782C31.168 150.586 30.9401 150.368 30.7852 150.126C30.6348 149.88 30.5596 149.581 30.5596 149.23C30.5596 148.674 30.792 148.235 31.2568 147.911C31.7262 147.588 32.3802 147.426 33.2188 147.426C34.0208 147.426 34.7819 147.576 35.502 147.877L35.249 148.492C34.5199 148.191 33.8431 148.041 33.2188 148.041C32.6126 148.041 32.1318 148.141 31.7764 148.342C31.4209 148.542 31.2432 148.82 31.2432 149.176C31.2432 149.563 31.3799 149.873 31.6533 150.105C31.9313 150.338 32.4714 150.598 33.2734 150.885C33.9434 151.126 34.431 151.345 34.7363 151.541C35.0417 151.732 35.2695 151.951 35.4199 152.197C35.5749 152.443 35.6523 152.733 35.6523 153.065ZM38.2432 155H37.5664V147.569H38.2432V155ZM37.4707 145.505C37.4707 145.067 37.6143 144.849 37.9014 144.849C38.0426 144.849 38.152 144.906 38.2295 145.02C38.3115 145.133 38.3525 145.295 38.3525 145.505C38.3525 145.71 38.3115 145.872 38.2295 145.99C38.152 146.109 38.0426 146.168 37.9014 146.168C37.6143 146.168 37.4707 145.947 37.4707 145.505ZM46.5352 147.569V148.041L44.9971 148.137C45.4072 148.647 45.6123 149.208 45.6123 149.818C45.6123 150.534 45.373 151.115 44.8945 151.562C44.4206 152.004 43.7826 152.225 42.9805 152.225C42.6432 152.225 42.4062 152.211 42.2695 152.184C42.0007 152.325 41.7956 152.491 41.6543 152.683C41.513 152.874 41.4424 153.077 41.4424 153.291C41.4424 153.528 41.5312 153.701 41.709 153.811C41.8913 153.92 42.1943 153.975 42.6182 153.975H43.917C44.7236 153.975 45.3411 154.139 45.7695 154.467C46.1979 154.79 46.4121 155.271 46.4121 155.909C46.4121 156.693 46.0931 157.297 45.4551 157.721C44.8216 158.149 43.917 158.363 42.7412 158.363C41.807 158.363 41.0824 158.183 40.5674 157.823C40.057 157.463 39.8018 156.962 39.8018 156.319C39.8018 155.809 39.959 155.385 40.2734 155.048C40.5924 154.711 41.0231 154.48 41.5654 154.357C41.3421 154.262 41.1621 154.127 41.0254 153.954C40.8932 153.776 40.8271 153.574 40.8271 153.346C40.8271 152.849 41.1439 152.411 41.7773 152.033C41.3444 151.855 41.0072 151.577 40.7656 151.199C40.5241 150.816 40.4033 150.379 40.4033 149.887C40.4033 149.144 40.638 148.549 41.1074 148.103C41.5814 147.651 42.2194 147.426 43.0215 147.426C43.5091 147.426 43.8874 147.474 44.1562 147.569H46.5352ZM40.5195 156.258C40.5195 157.279 41.2783 157.789 42.7959 157.789C44.7464 157.789 45.7217 157.167 45.7217 155.923C45.7217 155.476 45.569 155.153 45.2637 154.952C44.9583 154.752 44.4639 154.651 43.7803 154.651H42.5635C41.2008 154.651 40.5195 155.187 40.5195 156.258ZM41.0869 149.887C41.0869 150.461 41.2601 150.908 41.6064 151.227C41.9574 151.541 42.4245 151.698 43.0078 151.698C43.6276 151.698 44.1016 151.541 44.4297 151.227C44.7624 150.912 44.9287 150.456 44.9287 149.859C44.9287 149.226 44.7578 148.752 44.416 148.438C44.0788 148.118 43.6048 147.959 42.9941 147.959C42.4017 147.959 41.9346 148.13 41.5928 148.472C41.2555 148.809 41.0869 149.281 41.0869 149.887ZM53.248 155V150.181C53.248 149.433 53.0908 148.891 52.7764 148.554C52.4619 148.212 51.9743 148.041 51.3135 148.041C50.4248 148.041 49.7731 148.267 49.3584 148.718C48.9482 149.164 48.7432 149.891 48.7432 150.898V155H48.0664V147.569H48.6406L48.7705 148.588H48.8115C49.2946 147.813 50.1536 147.426 51.3887 147.426C53.0749 147.426 53.918 148.33 53.918 150.14V155H53.248ZM59.3252 155.137C58.2451 155.137 57.402 154.804 56.7959 154.139C56.1943 153.473 55.8936 152.541 55.8936 151.343C55.8936 150.158 56.1852 149.21 56.7686 148.499C57.3519 147.784 58.138 147.426 59.127 147.426C60.002 147.426 60.6924 147.731 61.1982 148.342C61.7041 148.952 61.957 149.782 61.957 150.83V151.377H56.6045C56.6136 152.398 56.8506 153.177 57.3154 153.715C57.7848 154.253 58.4548 154.521 59.3252 154.521C59.749 154.521 60.1204 154.492 60.4395 154.433C60.763 154.373 61.1709 154.246 61.6631 154.05V154.665C61.2438 154.847 60.8564 154.97 60.501 155.034C60.1455 155.103 59.7536 155.137 59.3252 155.137ZM59.127 148.027C58.4115 148.027 57.8372 148.264 57.4043 148.738C56.9714 149.208 56.7184 149.887 56.6455 150.775H61.2393C61.2393 149.914 61.0524 149.242 60.6787 148.759C60.305 148.271 59.7878 148.027 59.127 148.027ZM66.9336 147.426C67.248 147.426 67.5853 147.458 67.9453 147.521L67.8154 148.171C67.5055 148.093 67.1842 148.055 66.8516 148.055C66.2181 148.055 65.6986 148.324 65.293 148.861C64.8874 149.399 64.6846 150.078 64.6846 150.898V155H64.0078V147.569H64.582L64.6504 148.909H64.6982C65.0036 148.362 65.3294 147.979 65.6758 147.761C66.0221 147.537 66.4414 147.426 66.9336 147.426ZM69.9688 145.006L70.0508 145.143C69.709 146.35 69.3125 147.446 68.8613 148.431H68.417C68.5492 147.993 68.6882 147.444 68.834 146.783C68.9798 146.118 69.0915 145.525 69.1689 145.006H69.9688ZM76.1074 153.065C76.1074 153.731 75.8545 154.243 75.3486 154.604C74.8428 154.959 74.125 155.137 73.1953 155.137C72.2018 155.137 71.4134 154.984 70.8301 154.679V153.947C71.5775 154.321 72.3659 154.508 73.1953 154.508C73.929 154.508 74.485 154.387 74.8633 154.146C75.2461 153.899 75.4375 153.574 75.4375 153.168C75.4375 152.794 75.2848 152.48 74.9795 152.225C74.6787 151.969 74.182 151.719 73.4893 151.473C72.7464 151.204 72.2246 150.974 71.9238 150.782C71.623 150.586 71.3952 150.368 71.2402 150.126C71.0898 149.88 71.0146 149.581 71.0146 149.23C71.0146 148.674 71.2471 148.235 71.7119 147.911C72.1813 147.588 72.8353 147.426 73.6738 147.426C74.4759 147.426 75.237 147.576 75.957 147.877L75.7041 148.492C74.9749 148.191 74.2982 148.041 73.6738 148.041C73.0677 148.041 72.5869 148.141 72.2314 148.342C71.876 148.542 71.6982 148.82 71.6982 149.176C71.6982 149.563 71.835 149.873 72.1084 150.105C72.3864 150.338 72.9264 150.598 73.7285 150.885C74.3984 151.126 74.8861 151.345 75.1914 151.541C75.4967 151.732 75.7246 151.951 75.875 152.197C76.0299 152.443 76.1074 152.733 76.1074 153.065ZM86.1699 155L85.999 153.824H85.9443C85.5706 154.303 85.1855 154.642 84.7891 154.843C84.3971 155.039 83.9323 155.137 83.3945 155.137C82.6654 155.137 82.098 154.95 81.6924 154.576C81.2868 154.202 81.084 153.685 81.084 153.024C81.084 152.3 81.3848 151.737 81.9863 151.336C82.5924 150.935 83.4674 150.723 84.6113 150.7L86.0264 150.659V150.167C86.0264 149.461 85.8828 148.927 85.5957 148.567C85.3086 148.207 84.846 148.027 84.208 148.027C83.5199 148.027 82.8066 148.219 82.0684 148.602L81.8154 148.014C82.6312 147.631 83.4378 147.439 84.2354 147.439C85.0511 147.439 85.6595 147.651 86.0605 148.075C86.4661 148.499 86.6689 149.16 86.6689 150.058V155H86.1699ZM83.4355 154.521C84.2285 154.521 84.8529 154.296 85.3086 153.845C85.7689 153.389 85.999 152.758 85.999 151.951V151.22L84.7002 151.274C83.6566 151.325 82.9115 151.489 82.4648 151.767C82.0228 152.04 81.8018 152.468 81.8018 153.052C81.8018 153.517 81.943 153.879 82.2256 154.139C82.5127 154.394 82.916 154.521 83.4355 154.521ZM92.0078 147.426C92.3223 147.426 92.6595 147.458 93.0195 147.521L92.8896 148.171C92.5798 148.093 92.2585 148.055 91.9258 148.055C91.2923 148.055 90.7728 148.324 90.3672 148.861C89.9616 149.399 89.7588 150.078 89.7588 150.898V155H89.082V147.569H89.6562L89.7246 148.909H89.7725C90.0778 148.362 90.4036 147.979 90.75 147.761C91.0964 147.537 91.5156 147.426 92.0078 147.426ZM97.5381 155.137C96.458 155.137 95.6149 154.804 95.0088 154.139C94.4072 153.473 94.1064 152.541 94.1064 151.343C94.1064 150.158 94.3981 149.21 94.9814 148.499C95.5648 147.784 96.3509 147.426 97.3398 147.426C98.2148 147.426 98.9053 147.731 99.4111 148.342C99.917 148.952 100.17 149.782 100.17 150.83V151.377H94.8174C94.8265 152.398 95.0635 153.177 95.5283 153.715C95.9977 154.253 96.6676 154.521 97.5381 154.521C97.9619 154.521 98.3333 154.492 98.6523 154.433C98.9759 154.373 99.3838 154.246 99.876 154.05V154.665C99.4567 154.847 99.0693 154.97 98.7139 155.034C98.3584 155.103 97.9665 155.137 97.5381 155.137ZM97.3398 148.027C96.6243 148.027 96.0501 148.264 95.6172 148.738C95.1842 149.208 94.9313 149.887 94.8584 150.775H99.4521C99.4521 149.914 99.2653 149.242 98.8916 148.759C98.5179 148.271 98.0007 148.027 97.3398 148.027ZM106.534 155H105.857V144.363H106.534V155ZM115.175 151.274C115.175 152.487 114.881 153.435 114.293 154.118C113.705 154.797 112.894 155.137 111.859 155.137C111.208 155.137 110.633 154.979 110.137 154.665C109.64 154.351 109.259 153.899 108.995 153.312C108.731 152.724 108.599 152.045 108.599 151.274C108.599 150.062 108.893 149.119 109.48 148.444C110.068 147.765 110.875 147.426 111.9 147.426C112.921 147.426 113.721 147.77 114.3 148.458C114.883 149.142 115.175 150.08 115.175 151.274ZM109.31 151.274C109.31 152.295 109.533 153.093 109.979 153.667C110.431 154.237 111.066 154.521 111.887 154.521C112.707 154.521 113.34 154.237 113.787 153.667C114.238 153.093 114.464 152.295 114.464 151.274C114.464 150.249 114.236 149.454 113.78 148.889C113.329 148.324 112.693 148.041 111.873 148.041C111.053 148.041 110.419 148.324 109.973 148.889C109.531 149.449 109.31 150.244 109.31 151.274ZM123.378 151.274C123.378 152.487 123.084 153.435 122.496 154.118C121.908 154.797 121.097 155.137 120.062 155.137C119.411 155.137 118.837 154.979 118.34 154.665C117.843 154.351 117.463 153.899 117.198 153.312C116.934 152.724 116.802 152.045 116.802 151.274C116.802 150.062 117.096 149.119 117.684 148.444C118.271 147.765 119.078 147.426 120.104 147.426C121.124 147.426 121.924 147.77 122.503 148.458C123.086 149.142 123.378 150.08 123.378 151.274ZM117.513 151.274C117.513 152.295 117.736 153.093 118.183 153.667C118.634 154.237 119.27 154.521 120.09 154.521C120.91 154.521 121.544 154.237 121.99 153.667C122.441 153.093 122.667 152.295 122.667 151.274C122.667 150.249 122.439 149.454 121.983 148.889C121.532 148.324 120.896 148.041 120.076 148.041C119.256 148.041 118.622 148.324 118.176 148.889C117.734 149.449 117.513 150.244 117.513 151.274ZM126.099 151.739L129.893 147.569H130.713L127.787 150.741L130.966 155H130.152L127.329 151.247L126.112 152.354V155H125.436V144.363H126.112V149.695L126.064 151.739H126.099ZM132.894 155H132.217V147.569H132.894V155ZM132.121 145.505C132.121 145.067 132.265 144.849 132.552 144.849C132.693 144.849 132.802 144.906 132.88 145.02C132.962 145.133 133.003 145.295 133.003 145.505C133.003 145.71 132.962 145.872 132.88 145.99C132.802 146.109 132.693 146.168 132.552 146.168C132.265 146.168 132.121 145.947 132.121 145.505ZM140.57 155V150.181C140.57 149.433 140.413 148.891 140.099 148.554C139.784 148.212 139.297 148.041 138.636 148.041C137.747 148.041 137.095 148.267 136.681 148.718C136.271 149.164 136.065 149.891 136.065 150.898V155H135.389V147.569H135.963L136.093 148.588H136.134C136.617 147.813 137.476 147.426 138.711 147.426C140.397 147.426 141.24 148.33 141.24 150.14V155H140.57ZM149.443 147.569V148.041L147.905 148.137C148.315 148.647 148.521 149.208 148.521 149.818C148.521 150.534 148.281 151.115 147.803 151.562C147.329 152.004 146.691 152.225 145.889 152.225C145.551 152.225 145.314 152.211 145.178 152.184C144.909 152.325 144.704 152.491 144.562 152.683C144.421 152.874 144.351 153.077 144.351 153.291C144.351 153.528 144.439 153.701 144.617 153.811C144.799 153.92 145.103 153.975 145.526 153.975H146.825C147.632 153.975 148.249 154.139 148.678 154.467C149.106 154.79 149.32 155.271 149.32 155.909C149.32 156.693 149.001 157.297 148.363 157.721C147.73 158.149 146.825 158.363 145.649 158.363C144.715 158.363 143.991 158.183 143.476 157.823C142.965 157.463 142.71 156.962 142.71 156.319C142.71 155.809 142.867 155.385 143.182 155.048C143.501 154.711 143.931 154.48 144.474 154.357C144.25 154.262 144.07 154.127 143.934 153.954C143.801 153.776 143.735 153.574 143.735 153.346C143.735 152.849 144.052 152.411 144.686 152.033C144.253 151.855 143.915 151.577 143.674 151.199C143.432 150.816 143.312 150.379 143.312 149.887C143.312 149.144 143.546 148.549 144.016 148.103C144.49 147.651 145.128 147.426 145.93 147.426C146.417 147.426 146.796 147.474 147.064 147.569H149.443ZM143.428 156.258C143.428 157.279 144.187 157.789 145.704 157.789C147.655 157.789 148.63 157.167 148.63 155.923C148.63 155.476 148.477 155.153 148.172 154.952C147.867 154.752 147.372 154.651 146.688 154.651H145.472C144.109 154.651 143.428 155.187 143.428 156.258ZM143.995 149.887C143.995 150.461 144.168 150.908 144.515 151.227C144.866 151.541 145.333 151.698 145.916 151.698C146.536 151.698 147.01 151.541 147.338 151.227C147.671 150.912 147.837 150.456 147.837 149.859C147.837 149.226 147.666 148.752 147.324 148.438C146.987 148.118 146.513 147.959 145.902 147.959C145.31 147.959 144.843 148.13 144.501 148.472C144.164 148.809 143.995 149.281 143.995 149.887ZM157.373 148.157H155.623V155H154.946V148.157H153.565V147.761L154.946 147.508V146.934C154.946 146.022 155.113 145.354 155.445 144.931C155.783 144.502 156.332 144.288 157.093 144.288C157.503 144.288 157.913 144.35 158.323 144.473L158.166 145.061C157.801 144.947 157.439 144.89 157.079 144.89C156.55 144.89 156.174 145.047 155.951 145.361C155.732 145.671 155.623 146.177 155.623 146.879V147.569H157.373V148.157ZM164.954 151.274C164.954 152.487 164.66 153.435 164.072 154.118C163.484 154.797 162.673 155.137 161.639 155.137C160.987 155.137 160.413 154.979 159.916 154.665C159.419 154.351 159.039 153.899 158.774 153.312C158.51 152.724 158.378 152.045 158.378 151.274C158.378 150.062 158.672 149.119 159.26 148.444C159.848 147.765 160.654 147.426 161.68 147.426C162.701 147.426 163.5 147.77 164.079 148.458C164.662 149.142 164.954 150.08 164.954 151.274ZM159.089 151.274C159.089 152.295 159.312 153.093 159.759 153.667C160.21 154.237 160.846 154.521 161.666 154.521C162.486 154.521 163.12 154.237 163.566 153.667C164.018 153.093 164.243 152.295 164.243 151.274C164.243 150.249 164.015 149.454 163.56 148.889C163.108 148.324 162.473 148.041 161.652 148.041C160.832 148.041 160.199 148.324 159.752 148.889C159.31 149.449 159.089 150.244 159.089 151.274ZM169.938 147.426C170.252 147.426 170.589 147.458 170.949 147.521L170.819 148.171C170.509 148.093 170.188 148.055 169.855 148.055C169.222 148.055 168.702 148.324 168.297 148.861C167.891 149.399 167.688 150.078 167.688 150.898V155H167.012V147.569H167.586L167.654 148.909H167.702C168.007 148.362 168.333 147.979 168.68 147.761C169.026 147.537 169.445 147.426 169.938 147.426Z" fill="black"/>
<rect x="10" y="109" width="165" height="1" fill="#323232"/>
<defs>
<clipPath id="clip0">
<rect width="48" height="48" fill="white" transform="translate(74)"/>
</clipPath>
</defs>
</svg>
