<svg width="185" height="185" viewBox="0 0 185 185" fill="none" xmlns="http://www.w3.org/2000/svg">
<g clip-path="url(#clip0)">
<path d="M104.516 43.0219C104.141 42.9281 103.76 43.157 103.666 43.533C103.217 45.3372 101.603 46.5973 99.7414 46.5973H79.4914C77.2608 46.5973 75.4461 44.7826 75.4461 42.5521V5.44804C75.4462 3.21746 77.2609 1.40276 79.4914 1.40276H82.2822L82.5469 2.64186C82.8013 3.83243 83.8695 4.69663 85.0868 4.69663H89.2409C89.6283 4.69663 89.9422 4.38269 89.9422 3.99525C89.9422 3.6078 89.6283 3.29387 89.2409 3.29387H85.0868C84.5269 3.29387 84.0357 2.89642 83.9188 2.34897L83.7168 1.40276H95.5161L95.314 2.34887C95.1971 2.89642 94.7059 3.29377 94.146 3.29377H92.23C91.8425 3.29377 91.5286 3.60771 91.5286 3.99515C91.5286 4.3826 91.8425 4.69653 92.23 4.69653H94.1459C95.3634 4.69653 96.4315 3.83243 96.6858 2.64177L96.9504 1.40267H99.7414C101.972 1.40267 103.787 3.21737 103.787 5.44794V17.8323C103.787 18.2198 104.1 18.5337 104.488 18.5337C104.875 18.5337 105.189 18.2198 105.189 17.8323V5.44804C105.189 2.44398 102.745 0 99.7414 0H79.4914C76.4873 0 74.0435 2.44398 74.0435 5.44804V42.5521C74.0435 45.5561 76.4874 48.0001 79.4915 48.0001H99.7414C102.249 48.0001 104.422 46.3026 105.027 43.872C105.121 43.496 104.892 43.1154 104.516 43.0219Z" fill="black"/>
<path d="M99.6857 13.7236C100.073 13.7236 100.387 13.4097 100.387 13.0222V12.9329C100.387 11.3098 99.0665 9.98926 97.4434 9.98926H82.0643C80.4412 9.98926 79.1205 11.3097 79.1205 12.9329V18.2883C79.1205 18.6757 79.4345 18.9896 79.8219 18.9896C80.2093 18.9896 80.5233 18.6757 80.5233 18.2883V12.9329C80.5233 12.0833 81.2146 11.392 82.0643 11.392H97.4434C98.2931 11.392 98.9843 12.0833 98.9843 12.9329V13.0222C98.9843 13.4097 99.2983 13.7236 99.6857 13.7236Z" fill="black"/>
<path d="M81.7877 30.3228C80.3301 30.3228 79.1443 31.5086 79.1443 32.9663C79.1443 34.4239 80.3301 35.6098 81.7877 35.6098C83.2454 35.6098 84.4313 34.4239 84.4313 32.9663C84.4313 31.5086 83.2454 30.3228 81.7877 30.3228ZM81.7877 34.2069C81.1036 34.2069 80.547 33.6504 80.547 32.9662C80.547 32.282 81.1035 31.7254 81.7877 31.7254C82.4719 31.7254 83.0285 32.282 83.0285 32.9662C83.0285 33.6504 82.4719 34.2069 81.7877 34.2069Z" fill="black"/>
<path d="M81.7877 38.3511C80.3301 38.3511 79.1443 39.537 79.1443 40.9946C79.1443 42.4522 80.3301 43.6381 81.7877 43.6381C83.2454 43.6381 84.4313 42.4522 84.4313 40.9946C84.4313 39.5369 83.2454 38.3511 81.7877 38.3511ZM81.7877 42.2352C81.1036 42.2352 80.547 41.6787 80.547 40.9945C80.547 40.3104 81.1035 39.7537 81.7877 39.7537C82.4719 39.7537 83.0285 40.3104 83.0285 40.9945C83.0285 41.6787 82.4719 42.2352 81.7877 42.2352Z" fill="black"/>
<path d="M91.4305 30.3228H86.7646C86.3771 30.3228 86.0632 30.6367 86.0632 31.0241C86.0632 31.4116 86.3771 31.7255 86.7646 31.7255H91.4305C91.8179 31.7255 92.1319 31.4116 92.1319 31.0241C92.1319 30.6367 91.8179 30.3228 91.4305 30.3228Z" fill="black"/>
<path d="M93.8746 34.207H86.7646C86.3771 34.207 86.0632 34.521 86.0632 34.9084C86.0632 35.2959 86.3771 35.6098 86.7646 35.6098H93.8746C94.262 35.6098 94.576 35.2959 94.576 34.9084C94.576 34.521 94.262 34.207 93.8746 34.207Z" fill="black"/>
<path d="M98.6209 38.3511H86.7646C86.3771 38.3511 86.0632 38.665 86.0632 39.0525C86.0632 39.4399 86.3771 39.7538 86.7646 39.7538H98.6209C99.0083 39.7538 99.3222 39.4399 99.3222 39.0525C99.3222 38.665 99.0083 38.3511 98.6209 38.3511Z" fill="black"/>
<path d="M98.6209 42.2354H86.7646C86.3771 42.2354 86.0632 42.5493 86.0632 42.9367C86.0632 43.3242 86.3771 43.6381 86.7646 43.6381H98.6209C99.0083 43.6381 99.3222 43.3242 99.3222 42.9367C99.3222 42.5493 99.0083 42.2354 98.6209 42.2354Z" fill="black"/>
<path d="M94.0572 19.7782L93.4994 19.1317C93.8854 18.4819 94.1081 17.7241 94.1081 16.9149C94.1081 14.5139 92.1547 12.5605 89.7537 12.5605C87.3527 12.5605 85.3995 14.5139 85.3995 16.9149C85.3995 17.724 85.622 18.4819 86.0081 19.1317L85.4502 19.7782C84.522 20.8541 84.0107 22.2293 84.0107 23.6503V25.1845H82.0643C81.2146 25.1845 80.5233 24.4932 80.5233 23.6435V21.2772C80.5233 20.8898 80.2093 20.5758 79.8219 20.5758C79.4345 20.5758 79.1205 20.8898 79.1205 21.2772V23.6435C79.1205 25.2666 80.4411 26.5872 82.0643 26.5872H96.6653C97.0527 26.5872 97.3667 26.2733 97.3667 25.8858C97.3667 25.4984 97.0527 25.1845 96.6653 25.1845H95.4968V23.6503C95.4968 22.2294 94.9855 20.8542 94.0572 19.7782ZM89.7538 13.9634C91.3813 13.9634 92.7054 15.2874 92.7054 16.915C92.7054 18.5424 91.3814 19.8665 89.7538 19.8665C88.1264 19.8665 86.8023 18.5425 86.8023 16.915C86.8023 15.2874 88.1263 13.9634 89.7538 13.9634ZM85.4137 23.6504C85.4137 22.5656 85.8039 21.516 86.5125 20.6947L86.9228 20.2192C87.6846 20.8728 88.6735 21.2693 89.7538 21.2693C90.8341 21.2693 91.823 20.8729 92.5849 20.2192L92.9951 20.6947C93.7038 21.5161 94.094 22.5658 94.094 23.6504V25.1846H85.4137V23.6504Z" fill="black"/>
<path d="M106.46 38.6824C106.328 38.2561 105.909 37.974 105.464 38.0119C104.238 38.1164 103.031 37.753 102.066 36.9888L95.3558 31.6745C94.8473 31.2716 94.7304 30.5578 95.0842 30.014C95.4474 29.4553 96.1831 29.2803 96.759 29.6147L100.388 31.7228C100.736 31.9249 101.164 31.8934 101.479 31.6426C101.794 31.3918 101.92 30.9815 101.801 30.5975L100.038 24.9223C99.9235 24.5523 99.5306 24.3457 99.1606 24.4604C98.7906 24.5753 98.5839 24.9684 98.6987 25.3382L100.131 29.9511L97.4636 28.4018C96.2411 27.6916 94.6793 28.0638 93.9083 29.2492C93.1574 30.4036 93.4053 31.9191 94.4849 32.7741L101.195 38.0884C102.346 39.0007 103.767 39.4689 105.223 39.43L107.687 47.3647C107.781 47.6653 108.058 47.8581 108.357 47.8581C108.426 47.8581 108.496 47.848 108.565 47.8264C108.935 47.7115 109.142 47.3185 109.027 46.9485L106.46 38.6824Z" fill="black"/>
<path d="M119.925 43.1206L117.584 35.5829C117.55 35.4707 117.536 35.3546 117.545 35.2376L117.573 34.8467C117.697 33.1481 117.515 31.457 117.031 29.8206C117.03 29.8176 117.029 29.8145 117.028 29.8114L114.321 21.0842C113.904 19.742 112.473 18.9889 111.131 19.4061C110.615 19.5662 110.186 19.8763 109.878 20.2735C109.23 19.6434 108.265 19.3769 107.343 19.6637C106.804 19.8308 106.361 20.161 106.05 20.5833C105.404 20.0062 104.479 19.7716 103.593 20.0468C103.2 20.1689 102.857 20.3788 102.58 20.6475L101.404 16.8621C100.988 15.52 99.5565 14.7667 98.2145 15.1839C96.8724 15.6006 96.1197 17.0316 96.5364 18.3736L97.8125 22.483C97.9274 22.853 98.3204 23.0596 98.6903 22.9449C99.0603 22.83 99.267 22.4369 99.1522 22.0671L97.8762 17.9575C97.6887 17.3542 98.0272 16.7108 98.6305 16.5234C99.2334 16.3357 99.8772 16.6746 100.065 17.2779L103.05 26.891C103.165 27.2607 103.557 27.4676 103.928 27.3527C104.297 27.2378 104.504 26.8448 104.389 26.4748L103.254 22.8201C103.067 22.2167 103.406 21.5736 104.009 21.3862C104.612 21.1988 105.256 21.5373 105.443 22.1407L106.578 25.7952C106.671 26.0959 106.948 26.2887 107.248 26.2887C107.316 26.2887 107.386 26.2785 107.456 26.257C107.826 26.1421 108.032 25.749 107.918 25.3792L107.004 22.4368C106.817 21.8334 107.155 21.1903 107.758 21.003C108.361 20.8154 109.005 21.154 109.193 21.7574L110.106 24.6995C110.2 25.0002 110.477 25.1931 110.776 25.1931C110.845 25.1931 110.915 25.1829 110.984 25.1614C111.354 25.0464 111.561 24.6534 111.446 24.2835L110.792 22.1784C110.606 21.5752 110.944 20.9325 111.547 20.7454C111.839 20.6545 112.15 20.6832 112.42 20.8255C112.691 20.9679 112.89 21.2075 112.981 21.4997L115.687 30.2221C116.122 31.6947 116.286 33.2162 116.174 34.7442L116.146 35.135C116.124 35.4275 116.158 35.718 116.245 35.9983L118.585 43.536C118.679 43.8368 118.956 44.0296 119.255 44.0296C119.324 44.0296 119.394 44.0194 119.463 43.9979C119.833 43.8836 120.04 43.4906 119.925 43.1206Z" fill="black"/>
</g>
<path d="M16.2031 66.0312C16.2031 67.224 15.8125 68.138 15.0312 68.7734C14.25 69.4089 13.138 69.7266 11.6953 69.7266H10.5078V74H8.64062V62.5781H11.9297C13.3568 62.5781 14.4245 62.8698 15.1328 63.4531C15.8464 64.0365 16.2031 64.8958 16.2031 66.0312ZM10.5078 68.1562H11.5C12.4583 68.1562 13.1615 67.9896 13.6094 67.6562C14.0573 67.3229 14.2812 66.8021 14.2812 66.0938C14.2812 65.4375 14.0807 64.9479 13.6797 64.625C13.2786 64.3021 12.6536 64.1406 11.8047 64.1406H10.5078V68.1562ZM22.6719 65.2031C23.0417 65.2031 23.3464 65.2292 23.5859 65.2812L23.4062 66.9922C23.1458 66.9297 22.875 66.8984 22.5938 66.8984C21.8594 66.8984 21.263 67.138 20.8047 67.6172C20.3516 68.0964 20.125 68.7188 20.125 69.4844V74H18.2891V65.3594H19.7266L19.9688 66.8828H20.0625C20.349 66.3672 20.7214 65.9583 21.1797 65.6562C21.6432 65.3542 22.1406 65.2031 22.6719 65.2031ZM32.8594 69.6641C32.8594 71.0755 32.4974 72.1771 31.7734 72.9688C31.0495 73.7604 30.0417 74.1562 28.75 74.1562C27.9427 74.1562 27.2292 73.974 26.6094 73.6094C25.9896 73.2448 25.513 72.7214 25.1797 72.0391C24.8464 71.3568 24.6797 70.5651 24.6797 69.6641C24.6797 68.263 25.0391 67.1693 25.7578 66.3828C26.4766 65.5964 27.4896 65.2031 28.7969 65.2031C30.0469 65.2031 31.0365 65.6068 31.7656 66.4141C32.4948 67.2161 32.8594 68.2995 32.8594 69.6641ZM26.5703 69.6641C26.5703 71.6589 27.3073 72.6562 28.7812 72.6562C30.2396 72.6562 30.9688 71.6589 30.9688 69.6641C30.9688 67.6901 30.2344 66.7031 28.7656 66.7031C27.9948 66.7031 27.4349 66.9583 27.0859 67.4688C26.7422 67.9792 26.5703 68.7109 26.5703 69.6641ZM36.9453 74L33.6641 65.3594H35.6016L37.3594 70.3828C37.6615 71.2266 37.8438 71.9089 37.9062 72.4297H37.9688C38.0156 72.0547 38.1979 71.3724 38.5156 70.3828L40.2734 65.3594H42.2266L38.9297 74H36.9453ZM45.375 74H43.5391V65.3594H45.375V74ZM43.4297 63.0703C43.4297 62.7422 43.5182 62.4896 43.6953 62.3125C43.8776 62.1354 44.1354 62.0469 44.4688 62.0469C44.7917 62.0469 45.0417 62.1354 45.2188 62.3125C45.401 62.4896 45.4922 62.7422 45.4922 63.0703C45.4922 63.3828 45.401 63.6302 45.2188 63.8125C45.0417 63.9896 44.7917 64.0781 44.4688 64.0781C44.1354 64.0781 43.8776 63.9896 43.6953 63.8125C43.5182 63.6302 43.4297 63.3828 43.4297 63.0703ZM50.9219 74.1562C49.8438 74.1562 49.0026 73.7656 48.3984 72.9844C47.7943 72.2031 47.4922 71.1068 47.4922 69.6953C47.4922 68.2786 47.7969 67.1771 48.4062 66.3906C49.0208 65.599 49.8698 65.2031 50.9531 65.2031C52.0885 65.2031 52.9531 65.6224 53.5469 66.4609H53.6406C53.5521 65.8411 53.5078 65.3516 53.5078 64.9922V61.8438H55.3516V74H53.9141L53.5938 72.8672H53.5078C52.9193 73.7266 52.0573 74.1562 50.9219 74.1562ZM51.4141 72.6719C52.1693 72.6719 52.7188 72.4609 53.0625 72.0391C53.4062 71.612 53.5833 70.9219 53.5938 69.9688V69.7109C53.5938 68.6224 53.4167 67.849 53.0625 67.3906C52.7083 66.9323 52.1536 66.7031 51.3984 66.7031C50.7526 66.7031 50.2552 66.9661 49.9062 67.4922C49.5573 68.013 49.3828 68.7578 49.3828 69.7266C49.3828 70.6849 49.5521 71.4167 49.8906 71.9219C50.2292 72.4219 50.737 72.6719 51.4141 72.6719ZM61.75 74.1562C60.4062 74.1562 59.3542 73.7656 58.5938 72.9844C57.8385 72.1979 57.4609 71.1172 57.4609 69.7422C57.4609 68.3307 57.8125 67.2214 58.5156 66.4141C59.2188 65.6068 60.1849 65.2031 61.4141 65.2031C62.5547 65.2031 63.4557 65.5495 64.1172 66.2422C64.7786 66.9349 65.1094 67.888 65.1094 69.1016V70.0938H59.3516C59.3776 70.9323 59.6042 71.5781 60.0312 72.0312C60.4583 72.4792 61.0599 72.7031 61.8359 72.7031C62.3464 72.7031 62.8203 72.6562 63.2578 72.5625C63.7005 72.4635 64.1745 72.3021 64.6797 72.0781V73.5703C64.2318 73.7839 63.7786 73.9349 63.3203 74.0234C62.862 74.112 62.3385 74.1562 61.75 74.1562ZM61.4141 66.5938C60.8307 66.5938 60.362 66.7786 60.0078 67.1484C59.6589 67.5182 59.4505 68.0573 59.3828 68.7656H63.3047C63.2943 68.0521 63.1224 67.513 62.7891 67.1484C62.4557 66.7786 61.9974 66.5938 61.4141 66.5938ZM76.7578 74L76.3906 72.7969H76.3281C75.9115 73.3229 75.4922 73.6823 75.0703 73.875C74.6484 74.0625 74.1068 74.1562 73.4453 74.1562C72.5964 74.1562 71.9323 73.9271 71.4531 73.4688C70.9792 73.0104 70.7422 72.362 70.7422 71.5234C70.7422 70.6328 71.0729 69.9609 71.7344 69.5078C72.3958 69.0547 73.4036 68.8073 74.7578 68.7656L76.25 68.7188V68.2578C76.25 67.7057 76.1198 67.2943 75.8594 67.0234C75.6042 66.7474 75.2057 66.6094 74.6641 66.6094C74.2214 66.6094 73.7969 66.6745 73.3906 66.8047C72.9844 66.9349 72.5938 67.0885 72.2188 67.2656L71.625 65.9531C72.0938 65.7083 72.6068 65.5234 73.1641 65.3984C73.7214 65.2682 74.2474 65.2031 74.7422 65.2031C75.8411 65.2031 76.6693 65.4427 77.2266 65.9219C77.7891 66.401 78.0703 67.1536 78.0703 68.1797V74H76.7578ZM74.0234 72.75C74.6901 72.75 75.224 72.5651 75.625 72.1953C76.0312 71.8203 76.2344 71.2969 76.2344 70.625V69.875L75.125 69.9219C74.2604 69.9531 73.6302 70.099 73.2344 70.3594C72.8438 70.6146 72.6484 71.0078 72.6484 71.5391C72.6484 71.9245 72.763 72.224 72.9922 72.4375C73.2214 72.6458 73.5651 72.75 74.0234 72.75ZM92.0703 74H90.2266V68.6719C90.2266 68.0104 90.1016 67.5182 89.8516 67.1953C89.6016 66.8672 89.2109 66.7031 88.6797 66.7031C87.9714 66.7031 87.4505 66.9349 87.1172 67.3984C86.7891 67.8568 86.625 68.6224 86.625 69.6953V74H84.7891V65.3594H86.2266L86.4844 66.4922H86.5781C86.8177 66.0807 87.1641 65.763 87.6172 65.5391C88.0755 65.3151 88.5781 65.2031 89.125 65.2031C90.4531 65.2031 91.3333 65.6562 91.7656 66.5625H91.8906C92.1458 66.1354 92.5052 65.8021 92.9688 65.5625C93.4323 65.3229 93.9635 65.2031 94.5625 65.2031C95.5938 65.2031 96.3438 65.4635 96.8125 65.9844C97.2865 66.5052 97.5234 67.2995 97.5234 68.3672V74H95.6875V68.6719C95.6875 68.0104 95.5599 67.5182 95.3047 67.1953C95.0547 66.8672 94.6641 66.7031 94.1328 66.7031C93.4193 66.7031 92.8958 66.9271 92.5625 67.375C92.2344 67.8177 92.0703 68.5 92.0703 69.4219V74ZM101.922 74H100.086V65.3594H101.922V74ZM99.9766 63.0703C99.9766 62.7422 100.065 62.4896 100.242 62.3125C100.424 62.1354 100.682 62.0469 101.016 62.0469C101.339 62.0469 101.589 62.1354 101.766 62.3125C101.948 62.4896 102.039 62.7422 102.039 63.0703C102.039 63.3828 101.948 63.6302 101.766 63.8125C101.589 63.9896 101.339 64.0781 101.016 64.0781C100.682 64.0781 100.424 63.9896 100.242 63.8125C100.065 63.6302 99.9766 63.3828 99.9766 63.0703ZM112.156 74H110.312V68.6875C110.312 68.0208 110.177 67.5234 109.906 67.1953C109.641 66.8672 109.216 66.7031 108.633 66.7031C107.857 66.7031 107.289 66.9323 106.93 67.3906C106.57 67.849 106.391 68.6172 106.391 69.6953V74H104.555V65.3594H105.992L106.25 66.4922H106.344C106.604 66.0807 106.974 65.763 107.453 65.5391C107.932 65.3151 108.464 65.2031 109.047 65.2031C111.12 65.2031 112.156 66.2578 112.156 68.3672V74ZM116.547 74H114.711V65.3594H116.547V74ZM114.602 63.0703C114.602 62.7422 114.69 62.4896 114.867 62.3125C115.049 62.1354 115.307 62.0469 115.641 62.0469C115.964 62.0469 116.214 62.1354 116.391 62.3125C116.573 62.4896 116.664 62.7422 116.664 63.0703C116.664 63.3828 116.573 63.6302 116.391 63.8125C116.214 63.9896 115.964 64.0781 115.641 64.0781C115.307 64.0781 115.049 63.9896 114.867 63.8125C114.69 63.6302 114.602 63.3828 114.602 63.0703ZM126.461 74H124.617V68.6719C124.617 68.0104 124.492 67.5182 124.242 67.1953C123.992 66.8672 123.602 66.7031 123.07 66.7031C122.362 66.7031 121.841 66.9349 121.508 67.3984C121.18 67.8568 121.016 68.6224 121.016 69.6953V74H119.18V65.3594H120.617L120.875 66.4922H120.969C121.208 66.0807 121.555 65.763 122.008 65.5391C122.466 65.3151 122.969 65.2031 123.516 65.2031C124.844 65.2031 125.724 65.6562 126.156 66.5625H126.281C126.536 66.1354 126.896 65.8021 127.359 65.5625C127.823 65.3229 128.354 65.2031 128.953 65.2031C129.984 65.2031 130.734 65.4635 131.203 65.9844C131.677 66.5052 131.914 67.2995 131.914 68.3672V74H130.078V68.6719C130.078 68.0104 129.951 67.5182 129.695 67.1953C129.445 66.8672 129.055 66.7031 128.523 66.7031C127.81 66.7031 127.286 66.9271 126.953 67.375C126.625 67.8177 126.461 68.5 126.461 69.4219V74ZM139.883 74L139.516 72.7969H139.453C139.036 73.3229 138.617 73.6823 138.195 73.875C137.773 74.0625 137.232 74.1562 136.57 74.1562C135.721 74.1562 135.057 73.9271 134.578 73.4688C134.104 73.0104 133.867 72.362 133.867 71.5234C133.867 70.6328 134.198 69.9609 134.859 69.5078C135.521 69.0547 136.529 68.8073 137.883 68.7656L139.375 68.7188V68.2578C139.375 67.7057 139.245 67.2943 138.984 67.0234C138.729 66.7474 138.331 66.6094 137.789 66.6094C137.346 66.6094 136.922 66.6745 136.516 66.8047C136.109 66.9349 135.719 67.0885 135.344 67.2656L134.75 65.9531C135.219 65.7083 135.732 65.5234 136.289 65.3984C136.846 65.2682 137.372 65.2031 137.867 65.2031C138.966 65.2031 139.794 65.4427 140.352 65.9219C140.914 66.401 141.195 67.1536 141.195 68.1797V74H139.883ZM137.148 72.75C137.815 72.75 138.349 72.5651 138.75 72.1953C139.156 71.8203 139.359 71.2969 139.359 70.625V69.875L138.25 69.9219C137.385 69.9531 136.755 70.099 136.359 70.3594C135.969 70.6146 135.773 71.0078 135.773 71.5391C135.773 71.9245 135.888 72.224 136.117 72.4375C136.346 72.6458 136.69 72.75 137.148 72.75ZM145.594 74H143.758V61.8438H145.594V74ZM150.062 74H148.227V65.3594H150.062V74ZM148.117 63.0703C148.117 62.7422 148.206 62.4896 148.383 62.3125C148.565 62.1354 148.823 62.0469 149.156 62.0469C149.479 62.0469 149.729 62.1354 149.906 62.3125C150.089 62.4896 150.18 62.7422 150.18 63.0703C150.18 63.3828 150.089 63.6302 149.906 63.8125C149.729 63.9896 149.479 64.0781 149.156 64.0781C148.823 64.0781 148.565 63.9896 148.383 63.8125C148.206 63.6302 148.117 63.3828 148.117 63.0703ZM158.5 71.5391C158.5 72.3828 158.193 73.0312 157.578 73.4844C156.964 73.9323 156.083 74.1562 154.938 74.1562C153.786 74.1562 152.862 73.9818 152.164 73.6328V72.0469C153.18 72.5156 154.125 72.75 155 72.75C156.13 72.75 156.695 72.4089 156.695 71.7266C156.695 71.5078 156.633 71.3255 156.508 71.1797C156.383 71.0339 156.177 70.8828 155.891 70.7266C155.604 70.5703 155.206 70.3932 154.695 70.1953C153.701 69.8099 153.026 69.4245 152.672 69.0391C152.323 68.6536 152.148 68.1536 152.148 67.5391C152.148 66.7995 152.445 66.2266 153.039 65.8203C153.638 65.4089 154.451 65.2031 155.477 65.2031C156.492 65.2031 157.453 65.4089 158.359 65.8203L157.766 67.2031C156.833 66.8177 156.049 66.625 155.414 66.625C154.445 66.625 153.961 66.901 153.961 67.4531C153.961 67.724 154.086 67.9531 154.336 68.1406C154.591 68.3281 155.143 68.5859 155.992 68.9141C156.706 69.1901 157.224 69.4427 157.547 69.6719C157.87 69.901 158.109 70.1667 158.266 70.4688C158.422 70.7656 158.5 71.1224 158.5 71.5391ZM163.711 72.6719C164.159 72.6719 164.607 72.6016 165.055 72.4609V73.8438C164.852 73.9323 164.589 74.0052 164.266 74.0625C163.948 74.125 163.617 74.1562 163.273 74.1562C161.534 74.1562 160.664 73.2396 160.664 71.4062V66.75H159.484V65.9375L160.75 65.2656L161.375 63.4375H162.508V65.3594H164.969V66.75H162.508V71.375C162.508 71.8177 162.617 72.1458 162.836 72.3594C163.06 72.5677 163.352 72.6719 163.711 72.6719ZM168.625 74H166.789V65.3594H168.625V74ZM166.68 63.0703C166.68 62.7422 166.768 62.4896 166.945 62.3125C167.128 62.1354 167.385 62.0469 167.719 62.0469C168.042 62.0469 168.292 62.1354 168.469 62.3125C168.651 62.4896 168.742 62.7422 168.742 63.0703C168.742 63.3828 168.651 63.6302 168.469 63.8125C168.292 63.9896 168.042 64.0781 167.719 64.0781C167.385 64.0781 167.128 63.9896 166.945 63.8125C166.768 63.6302 166.68 63.3828 166.68 63.0703ZM174.742 74.1562C173.435 74.1562 172.44 73.776 171.758 73.0156C171.081 72.25 170.742 71.1536 170.742 69.7266C170.742 68.2734 171.096 67.1562 171.805 66.375C172.518 65.5938 173.547 65.2031 174.891 65.2031C175.802 65.2031 176.622 65.3724 177.352 65.7109L176.797 67.1875C176.021 66.8854 175.38 66.7344 174.875 66.7344C173.38 66.7344 172.633 67.7266 172.633 69.7109C172.633 70.6797 172.818 71.4089 173.188 71.8984C173.562 72.3828 174.109 72.625 174.828 72.625C175.646 72.625 176.419 72.4219 177.148 72.0156V73.6172C176.82 73.8099 176.469 73.9479 176.094 74.0312C175.724 74.1146 175.273 74.1562 174.742 74.1562ZM40.3438 85.2031C41.4219 85.2031 42.2604 85.5938 42.8594 86.375C43.4635 87.1562 43.7656 88.2526 43.7656 89.6641C43.7656 91.0807 43.4609 92.1849 42.8516 92.9766C42.2422 93.763 41.3958 94.1562 40.3125 94.1562C39.2188 94.1562 38.3698 93.763 37.7656 92.9766H37.6406L37.3047 94H35.9297V81.8438H37.7656V84.7344C37.7656 84.9479 37.7552 85.2656 37.7344 85.6875C37.7135 86.1094 37.6979 86.3776 37.6875 86.4922H37.7656C38.349 85.6328 39.2083 85.2031 40.3438 85.2031ZM39.8672 86.7031C39.1276 86.7031 38.5938 86.9219 38.2656 87.3594C37.9427 87.7917 37.776 88.5182 37.7656 89.5391V89.6641C37.7656 90.7161 37.9323 91.4792 38.2656 91.9531C38.599 92.4219 39.1432 92.6562 39.8984 92.6562C40.5495 92.6562 41.0417 92.3984 41.375 91.8828C41.7135 91.3672 41.8828 90.6224 41.8828 89.6484C41.8828 87.6849 41.2109 86.7031 39.8672 86.7031ZM51.9922 94L51.7344 92.8672H51.6406C51.3854 93.2682 51.0208 93.5833 50.5469 93.8125C50.0781 94.0417 49.5417 94.1562 48.9375 94.1562C47.8906 94.1562 47.1094 93.8958 46.5938 93.375C46.0781 92.8542 45.8203 92.0651 45.8203 91.0078V85.3594H47.6719V90.6875C47.6719 91.349 47.8073 91.8464 48.0781 92.1797C48.349 92.5078 48.7734 92.6719 49.3516 92.6719C50.1224 92.6719 50.6875 92.4427 51.0469 91.9844C51.4115 91.5208 51.5938 90.7474 51.5938 89.6641V85.3594H53.4375V94H51.9922ZM59.2734 92.6719C59.7214 92.6719 60.1693 92.6016 60.6172 92.4609V93.8438C60.4141 93.9323 60.151 94.0052 59.8281 94.0625C59.5104 94.125 59.1797 94.1562 58.8359 94.1562C57.0964 94.1562 56.2266 93.2396 56.2266 91.4062V86.75H55.0469V85.9375L56.3125 85.2656L56.9375 83.4375H58.0703V85.3594H60.5312V86.75H58.0703V91.375C58.0703 91.8177 58.1797 92.1458 58.3984 92.3594C58.6224 92.5677 58.9141 92.6719 59.2734 92.6719ZM70.8906 94.1562C69.7969 94.1562 68.9479 93.763 68.3438 92.9766H68.2344C68.3073 93.7057 68.3438 94.1484 68.3438 94.3047V97.8438H66.5078V85.3594H67.9922C68.0339 85.5208 68.1198 85.9062 68.25 86.5156H68.3438C68.9167 85.6406 69.776 85.2031 70.9219 85.2031C72 85.2031 72.8385 85.5938 73.4375 86.375C74.0417 87.1562 74.3438 88.2526 74.3438 89.6641C74.3438 91.0755 74.0365 92.1771 73.4219 92.9688C72.8125 93.7604 71.9688 94.1562 70.8906 94.1562ZM70.4453 86.7031C69.7161 86.7031 69.1823 86.9167 68.8438 87.3438C68.5104 87.7708 68.3438 88.4531 68.3438 89.3906V89.6641C68.3438 90.7161 68.5104 91.4792 68.8438 91.9531C69.1771 92.4219 69.7214 92.6562 70.4766 92.6562C71.112 92.6562 71.6016 92.3958 71.9453 91.875C72.2891 91.3542 72.4609 90.612 72.4609 89.6484C72.4609 88.6797 72.2891 87.9479 71.9453 87.4531C71.6068 86.9531 71.1068 86.7031 70.4453 86.7031ZM78.3125 94H76.4766V81.8438H78.3125V94ZM84.7188 94.1562C83.375 94.1562 82.3229 93.7656 81.5625 92.9844C80.8073 92.1979 80.4297 91.1172 80.4297 89.7422C80.4297 88.3307 80.7812 87.2214 81.4844 86.4141C82.1875 85.6068 83.1536 85.2031 84.3828 85.2031C85.5234 85.2031 86.4245 85.5495 87.0859 86.2422C87.7474 86.9349 88.0781 87.888 88.0781 89.1016V90.0938H82.3203C82.3464 90.9323 82.5729 91.5781 83 92.0312C83.4271 92.4792 84.0286 92.7031 84.8047 92.7031C85.3151 92.7031 85.7891 92.6562 86.2266 92.5625C86.6693 92.4635 87.1432 92.3021 87.6484 92.0781V93.5703C87.2005 93.7839 86.7474 93.9349 86.2891 94.0234C85.8307 94.112 85.3073 94.1562 84.7188 94.1562ZM84.3828 86.5938C83.7995 86.5938 83.3307 86.7786 82.9766 87.1484C82.6276 87.5182 82.4193 88.0573 82.3516 88.7656H86.2734C86.263 88.0521 86.0911 87.513 85.7578 87.1484C85.4245 86.7786 84.9661 86.5938 84.3828 86.5938ZM95.5703 94L95.2031 92.7969H95.1406C94.724 93.3229 94.3047 93.6823 93.8828 93.875C93.4609 94.0625 92.9193 94.1562 92.2578 94.1562C91.4089 94.1562 90.7448 93.9271 90.2656 93.4688C89.7917 93.0104 89.5547 92.362 89.5547 91.5234C89.5547 90.6328 89.8854 89.9609 90.5469 89.5078C91.2083 89.0547 92.2161 88.8073 93.5703 88.7656L95.0625 88.7188V88.2578C95.0625 87.7057 94.9323 87.2943 94.6719 87.0234C94.4167 86.7474 94.0182 86.6094 93.4766 86.6094C93.0339 86.6094 92.6094 86.6745 92.2031 86.8047C91.7969 86.9349 91.4062 87.0885 91.0312 87.2656L90.4375 85.9531C90.9062 85.7083 91.4193 85.5234 91.9766 85.3984C92.5339 85.2682 93.0599 85.2031 93.5547 85.2031C94.6536 85.2031 95.4818 85.4427 96.0391 85.9219C96.6016 86.401 96.8828 87.1536 96.8828 88.1797V94H95.5703ZM92.8359 92.75C93.5026 92.75 94.0365 92.5651 94.4375 92.1953C94.8438 91.8203 95.0469 91.2969 95.0469 90.625V89.875L93.9375 89.9219C93.0729 89.9531 92.4427 90.099 92.0469 90.3594C91.6562 90.6146 91.4609 91.0078 91.4609 91.5391C91.4609 91.9245 91.5755 92.224 91.8047 92.4375C92.0339 92.6458 92.3776 92.75 92.8359 92.75ZM105.25 91.5391C105.25 92.3828 104.943 93.0312 104.328 93.4844C103.714 93.9323 102.833 94.1562 101.688 94.1562C100.536 94.1562 99.612 93.9818 98.9141 93.6328V92.0469C99.9297 92.5156 100.875 92.75 101.75 92.75C102.88 92.75 103.445 92.4089 103.445 91.7266C103.445 91.5078 103.383 91.3255 103.258 91.1797C103.133 91.0339 102.927 90.8828 102.641 90.7266C102.354 90.5703 101.956 90.3932 101.445 90.1953C100.451 89.8099 99.776 89.4245 99.4219 89.0391C99.0729 88.6536 98.8984 88.1536 98.8984 87.5391C98.8984 86.7995 99.1953 86.2266 99.7891 85.8203C100.388 85.4089 101.201 85.2031 102.227 85.2031C103.242 85.2031 104.203 85.4089 105.109 85.8203L104.516 87.2031C103.583 86.8177 102.799 86.625 102.164 86.625C101.195 86.625 100.711 86.901 100.711 87.4531C100.711 87.724 100.836 87.9531 101.086 88.1406C101.341 88.3281 101.893 88.5859 102.742 88.9141C103.456 89.1901 103.974 89.4427 104.297 89.6719C104.62 89.901 104.859 90.1667 105.016 90.4688C105.172 90.7656 105.25 91.1224 105.25 91.5391ZM109.078 94H107.242V85.3594H109.078V94ZM107.133 83.0703C107.133 82.7422 107.221 82.4896 107.398 82.3125C107.581 82.1354 107.839 82.0469 108.172 82.0469C108.495 82.0469 108.745 82.1354 108.922 82.3125C109.104 82.4896 109.195 82.7422 109.195 83.0703C109.195 83.3828 109.104 83.6302 108.922 83.8125C108.745 83.9896 108.495 84.0781 108.172 84.0781C107.839 84.0781 107.581 83.9896 107.398 83.8125C107.221 83.6302 107.133 83.3828 107.133 83.0703ZM119.312 94H117.469V88.6875C117.469 88.0208 117.333 87.5234 117.062 87.1953C116.797 86.8672 116.372 86.7031 115.789 86.7031C115.013 86.7031 114.445 86.9323 114.086 87.3906C113.727 87.849 113.547 88.6172 113.547 89.6953V94H111.711V85.3594H113.148L113.406 86.4922H113.5C113.76 86.0807 114.13 85.763 114.609 85.5391C115.089 85.3151 115.62 85.2031 116.203 85.2031C118.276 85.2031 119.312 86.2578 119.312 88.3672V94ZM129.164 85.3594V86.3672L127.688 86.6406C127.823 86.8229 127.935 87.0469 128.023 87.3125C128.112 87.5781 128.156 87.8594 128.156 88.1562C128.156 89.0469 127.849 89.7474 127.234 90.2578C126.62 90.7682 125.773 91.0234 124.695 91.0234C124.419 91.0234 124.169 91.0026 123.945 90.9609C123.549 91.2057 123.352 91.4922 123.352 91.8203C123.352 92.0182 123.443 92.1667 123.625 92.2656C123.812 92.3646 124.154 92.4141 124.648 92.4141H126.156C127.109 92.4141 127.833 92.6172 128.328 93.0234C128.823 93.4297 129.07 94.0156 129.07 94.7812C129.07 95.7604 128.667 96.5156 127.859 97.0469C127.052 97.5781 125.885 97.8438 124.359 97.8438C123.182 97.8438 122.284 97.6354 121.664 97.2188C121.044 96.8021 120.734 96.2083 120.734 95.4375C120.734 94.9062 120.901 94.4583 121.234 94.0938C121.573 93.7344 122.044 93.4844 122.648 93.3438C122.404 93.2396 122.201 93.0729 122.039 92.8438C121.883 92.6094 121.805 92.3646 121.805 92.1094C121.805 91.7865 121.896 91.513 122.078 91.2891C122.26 91.0651 122.531 90.8438 122.891 90.625C122.443 90.4323 122.078 90.1198 121.797 89.6875C121.521 89.25 121.383 88.7396 121.383 88.1562C121.383 87.2188 121.677 86.4922 122.266 85.9766C122.859 85.4609 123.703 85.2031 124.797 85.2031C125.042 85.2031 125.297 85.2214 125.562 85.2578C125.833 85.2891 126.036 85.3229 126.172 85.3594H129.164ZM122.375 95.3438C122.375 95.7396 122.552 96.0443 122.906 96.2578C123.266 96.4714 123.768 96.5781 124.414 96.5781C125.414 96.5781 126.159 96.4349 126.648 96.1484C127.138 95.862 127.383 95.4818 127.383 95.0078C127.383 94.6328 127.247 94.3646 126.977 94.2031C126.711 94.0469 126.214 93.9688 125.484 93.9688H124.094C123.568 93.9688 123.148 94.0911 122.836 94.3359C122.529 94.5859 122.375 94.9219 122.375 95.3438ZM123.164 88.1562C123.164 88.6979 123.302 89.1146 123.578 89.4062C123.859 89.6979 124.26 89.8438 124.781 89.8438C125.844 89.8438 126.375 89.276 126.375 88.1406C126.375 87.5781 126.242 87.1458 125.977 86.8438C125.716 86.5365 125.318 86.3828 124.781 86.3828C124.25 86.3828 123.846 86.5339 123.57 86.8359C123.299 87.138 123.164 87.5781 123.164 88.1562ZM144.078 82.5781V89.9688C144.078 90.8125 143.896 91.5521 143.531 92.1875C143.172 92.8177 142.648 93.3047 141.961 93.6484C141.279 93.987 140.461 94.1562 139.508 94.1562C138.091 94.1562 136.99 93.7812 136.203 93.0312C135.417 92.2812 135.023 91.25 135.023 89.9375V82.5781H136.898V89.8047C136.898 90.7474 137.117 91.4427 137.555 91.8906C137.992 92.3385 138.664 92.5625 139.57 92.5625C141.331 92.5625 142.211 91.638 142.211 89.7891V82.5781H144.078ZM147 94V82.5781H148.867V94H147Z" fill="black"/>
<path d="M14.9805 134.535C15.4089 134.535 15.7826 134.499 16.1016 134.426V134.973C15.7734 135.082 15.3952 135.137 14.9668 135.137C14.3105 135.137 13.8252 134.961 13.5107 134.61C13.2008 134.259 13.0459 133.708 13.0459 132.956V128.157H11.9453V127.761L13.0459 127.453L13.3877 125.771H13.7363V127.569H15.917V128.157H13.7363V132.86C13.7363 133.43 13.8366 133.852 14.0371 134.125C14.2376 134.398 14.5521 134.535 14.9805 134.535ZM23.8535 131.274C23.8535 132.487 23.5596 133.435 22.9717 134.118C22.3838 134.797 21.5726 135.137 20.5381 135.137C19.8864 135.137 19.3122 134.979 18.8154 134.665C18.3187 134.351 17.9382 133.899 17.6738 133.312C17.4095 132.724 17.2773 132.045 17.2773 131.274C17.2773 130.062 17.5713 129.119 18.1592 128.444C18.7471 127.765 19.5537 127.426 20.5791 127.426C21.5999 127.426 22.3997 127.77 22.9785 128.458C23.5618 129.142 23.8535 130.08 23.8535 131.274ZM17.9883 131.274C17.9883 132.295 18.2116 133.093 18.6582 133.667C19.1094 134.237 19.7451 134.521 20.5654 134.521C21.3857 134.521 22.0192 134.237 22.4658 133.667C22.917 133.093 23.1426 132.295 23.1426 131.274C23.1426 130.249 22.9147 129.454 22.459 128.889C22.0078 128.324 21.3721 128.041 20.5518 128.041C19.7314 128.041 19.098 128.324 18.6514 128.889C18.2093 129.449 17.9883 130.244 17.9883 131.274ZM32.5146 135.137C31.4528 135.137 30.6211 134.802 30.0195 134.132C29.418 133.462 29.1172 132.528 29.1172 131.329C29.1172 130.099 29.4294 129.142 30.0537 128.458C30.6781 127.77 31.5326 127.426 32.6172 127.426C33.2598 127.426 33.875 127.537 34.4629 127.761L34.2783 128.362C33.6357 128.148 33.0775 128.041 32.6035 128.041C31.6921 128.041 31.0016 128.324 30.5322 128.889C30.0628 129.449 29.8281 130.258 29.8281 131.315C29.8281 132.318 30.0628 133.104 30.5322 133.674C31.0016 134.239 31.6579 134.521 32.501 134.521C33.1755 134.521 33.8021 134.401 34.3809 134.159V134.788C33.9069 135.021 33.2848 135.137 32.5146 135.137ZM40.7178 135L40.5469 133.824H40.4922C40.1185 134.303 39.7334 134.642 39.3369 134.843C38.945 135.039 38.4801 135.137 37.9424 135.137C37.2132 135.137 36.6458 134.95 36.2402 134.576C35.8346 134.202 35.6318 133.685 35.6318 133.024C35.6318 132.3 35.9326 131.737 36.5342 131.336C37.1403 130.935 38.0153 130.723 39.1592 130.7L40.5742 130.659V130.167C40.5742 129.461 40.4307 128.927 40.1436 128.567C39.8564 128.207 39.3939 128.027 38.7559 128.027C38.0677 128.027 37.3545 128.219 36.6162 128.602L36.3633 128.014C37.179 127.631 37.9857 127.439 38.7832 127.439C39.599 127.439 40.2074 127.651 40.6084 128.075C41.014 128.499 41.2168 129.16 41.2168 130.058V135H40.7178ZM37.9834 134.521C38.7764 134.521 39.4007 134.296 39.8564 133.845C40.3167 133.389 40.5469 132.758 40.5469 131.951V131.22L39.248 131.274C38.2044 131.325 37.4593 131.489 37.0127 131.767C36.5706 132.04 36.3496 132.468 36.3496 133.052C36.3496 133.517 36.4909 133.879 36.7734 134.139C37.0605 134.394 37.4639 134.521 37.9834 134.521ZM45.5918 134.535C46.0202 134.535 46.3939 134.499 46.7129 134.426V134.973C46.3848 135.082 46.0065 135.137 45.5781 135.137C44.9219 135.137 44.4365 134.961 44.1221 134.61C43.8122 134.259 43.6572 133.708 43.6572 132.956V128.157H42.5566V127.761L43.6572 127.453L43.999 125.771H44.3477V127.569H46.5283V128.157H44.3477V132.86C44.3477 133.43 44.4479 133.852 44.6484 134.125C44.849 134.398 45.1634 134.535 45.5918 134.535ZM51.3203 135.137C50.2402 135.137 49.3971 134.804 48.791 134.139C48.1895 133.473 47.8887 132.541 47.8887 131.343C47.8887 130.158 48.1803 129.21 48.7637 128.499C49.347 127.784 50.1331 127.426 51.1221 127.426C51.9971 127.426 52.6875 127.731 53.1934 128.342C53.6992 128.952 53.9521 129.782 53.9521 130.83V131.377H48.5996C48.6087 132.398 48.8457 133.177 49.3105 133.715C49.7799 134.253 50.4499 134.521 51.3203 134.521C51.7441 134.521 52.1156 134.492 52.4346 134.433C52.7581 134.373 53.166 134.246 53.6582 134.05V134.665C53.2389 134.847 52.8516 134.97 52.4961 135.034C52.1406 135.103 51.7487 135.137 51.3203 135.137ZM51.1221 128.027C50.4066 128.027 49.8324 128.264 49.3994 128.738C48.9665 129.208 48.7135 129.887 48.6406 130.775H53.2344C53.2344 129.914 53.0475 129.242 52.6738 128.759C52.3001 128.271 51.7829 128.027 51.1221 128.027ZM58.9287 127.426C59.2432 127.426 59.5804 127.458 59.9404 127.521L59.8105 128.171C59.5007 128.093 59.1794 128.055 58.8467 128.055C58.2132 128.055 57.6937 128.324 57.2881 128.861C56.8825 129.399 56.6797 130.078 56.6797 130.898V135H56.0029V127.569H56.5771L56.6455 128.909H56.6934C56.9987 128.362 57.3245 127.979 57.6709 127.761C58.0173 127.537 58.4365 127.426 58.9287 127.426ZM69.6064 135L69.4355 133.824H69.3809C69.0072 134.303 68.6221 134.642 68.2256 134.843C67.8337 135.039 67.3688 135.137 66.8311 135.137C66.1019 135.137 65.5345 134.95 65.1289 134.576C64.7233 134.202 64.5205 133.685 64.5205 133.024C64.5205 132.3 64.8213 131.737 65.4229 131.336C66.029 130.935 66.904 130.723 68.0479 130.7L69.4629 130.659V130.167C69.4629 129.461 69.3193 128.927 69.0322 128.567C68.7451 128.207 68.2826 128.027 67.6445 128.027C66.9564 128.027 66.2432 128.219 65.5049 128.602L65.252 128.014C66.0677 127.631 66.8743 127.439 67.6719 127.439C68.4876 127.439 69.096 127.651 69.4971 128.075C69.9027 128.499 70.1055 129.16 70.1055 130.058V135H69.6064ZM66.8721 134.521C67.665 134.521 68.2894 134.296 68.7451 133.845C69.2054 133.389 69.4355 132.758 69.4355 131.951V131.22L68.1367 131.274C67.0931 131.325 66.348 131.489 65.9014 131.767C65.4593 132.04 65.2383 132.468 65.2383 133.052C65.2383 133.517 65.3796 133.879 65.6621 134.139C65.9492 134.394 66.3525 134.521 66.8721 134.521ZM77.126 133.065C77.126 133.731 76.873 134.243 76.3672 134.604C75.8613 134.959 75.1436 135.137 74.2139 135.137C73.2204 135.137 72.432 134.984 71.8486 134.679V133.947C72.596 134.321 73.3844 134.508 74.2139 134.508C74.9476 134.508 75.5036 134.387 75.8818 134.146C76.2646 133.899 76.4561 133.574 76.4561 133.168C76.4561 132.794 76.3034 132.48 75.998 132.225C75.6973 131.969 75.2005 131.719 74.5078 131.473C73.765 131.204 73.2432 130.974 72.9424 130.782C72.6416 130.586 72.4137 130.368 72.2588 130.126C72.1084 129.88 72.0332 129.581 72.0332 129.23C72.0332 128.674 72.2656 128.235 72.7305 127.911C73.1999 127.588 73.8538 127.426 74.6924 127.426C75.4945 127.426 76.2555 127.576 76.9756 127.877L76.7227 128.492C75.9935 128.191 75.3167 128.041 74.6924 128.041C74.0863 128.041 73.6055 128.141 73.25 128.342C72.8945 128.542 72.7168 128.82 72.7168 129.176C72.7168 129.563 72.8535 129.873 73.127 130.105C73.4049 130.338 73.945 130.598 74.7471 130.885C75.417 131.126 75.9046 131.345 76.21 131.541C76.5153 131.732 76.7432 131.951 76.8936 132.197C77.0485 132.443 77.126 132.733 77.126 133.065ZM91.96 135V130.126C91.96 129.401 91.8187 128.873 91.5361 128.54C91.2536 128.207 90.8206 128.041 90.2373 128.041C89.4762 128.041 88.9134 128.251 88.5488 128.67C88.1842 129.089 88.002 129.748 88.002 130.646V135H87.3115V129.921C87.3115 128.668 86.7373 128.041 85.5889 128.041C84.8096 128.041 84.2422 128.269 83.8867 128.725C83.5312 129.176 83.3535 129.9 83.3535 130.898V135H82.6768V127.569H83.2373L83.3809 128.588H83.4219C83.627 128.219 83.9186 127.934 84.2969 127.733C84.6751 127.528 85.0921 127.426 85.5479 127.426C86.7191 127.426 87.471 127.866 87.8037 128.745H87.8311C88.0726 128.321 88.3962 127.995 88.8018 127.768C89.2119 127.54 89.6768 127.426 90.1963 127.426C91.0075 127.426 91.6159 127.642 92.0215 128.075C92.4271 128.508 92.6299 129.196 92.6299 130.14V135H91.96ZM99.5479 135L99.377 133.824H99.3223C98.9486 134.303 98.5635 134.642 98.167 134.843C97.7751 135.039 97.3102 135.137 96.7725 135.137C96.0433 135.137 95.4759 134.95 95.0703 134.576C94.6647 134.202 94.4619 133.685 94.4619 133.024C94.4619 132.3 94.7627 131.737 95.3643 131.336C95.9704 130.935 96.8454 130.723 97.9893 130.7L99.4043 130.659V130.167C99.4043 129.461 99.2607 128.927 98.9736 128.567C98.6865 128.207 98.224 128.027 97.5859 128.027C96.8978 128.027 96.1846 128.219 95.4463 128.602L95.1934 128.014C96.0091 127.631 96.8158 127.439 97.6133 127.439C98.429 127.439 99.0374 127.651 99.4385 128.075C99.8441 128.499 100.047 129.16 100.047 130.058V135H99.5479ZM96.8135 134.521C97.6064 134.521 98.2308 134.296 98.6865 133.845C99.1468 133.389 99.377 132.758 99.377 131.951V131.22L98.0781 131.274C97.0345 131.325 96.2894 131.489 95.8428 131.767C95.4007 132.04 95.1797 132.468 95.1797 133.052C95.1797 133.517 95.321 133.879 95.6035 134.139C95.8906 134.394 96.2939 134.521 96.8135 134.521ZM107.642 135V130.181C107.642 129.433 107.484 128.891 107.17 128.554C106.855 128.212 106.368 128.041 105.707 128.041C104.818 128.041 104.167 128.267 103.752 128.718C103.342 129.164 103.137 129.891 103.137 130.898V135H102.46V127.569H103.034L103.164 128.588H103.205C103.688 127.813 104.547 127.426 105.782 127.426C107.468 127.426 108.312 128.33 108.312 130.14V135H107.642ZM109.474 127.569H110.171L111.743 131.739C112.222 133.02 112.525 133.883 112.652 134.33H112.693C112.885 133.742 113.197 132.865 113.63 131.698L115.202 127.569H115.899L112.57 136.203C112.301 136.905 112.076 137.379 111.894 137.625C111.711 137.871 111.497 138.056 111.251 138.179C111.009 138.302 110.715 138.363 110.369 138.363C110.109 138.363 109.82 138.315 109.501 138.22V137.632C109.765 137.705 110.05 137.741 110.355 137.741C110.588 137.741 110.793 137.687 110.971 137.577C111.148 137.468 111.308 137.297 111.449 137.064C111.595 136.837 111.761 136.472 111.948 135.971C112.14 135.474 112.263 135.15 112.317 135L109.474 127.569ZM123.501 127.426C124.039 127.426 124.504 127.524 124.896 127.72C125.287 127.916 125.638 128.251 125.948 128.725H125.989C125.962 128.15 125.948 127.588 125.948 127.036V124.363H126.618V135H126.174L126.003 133.865H125.948C125.383 134.713 124.572 135.137 123.515 135.137C122.489 135.137 121.705 134.818 121.163 134.18C120.621 133.542 120.35 132.612 120.35 131.391C120.35 130.105 120.618 129.123 121.156 128.444C121.694 127.765 122.476 127.426 123.501 127.426ZM123.501 128.041C122.69 128.041 122.079 128.326 121.669 128.896C121.263 129.465 121.061 130.292 121.061 131.377C121.061 133.482 121.879 134.535 123.515 134.535C124.353 134.535 124.968 134.291 125.36 133.804C125.752 133.316 125.948 132.512 125.948 131.391V131.274C125.948 130.126 125.755 129.301 125.367 128.8C124.984 128.294 124.362 128.041 123.501 128.041ZM129.797 135H129.12V127.569H129.797V135ZM129.024 125.505C129.024 125.067 129.168 124.849 129.455 124.849C129.596 124.849 129.706 124.906 129.783 125.02C129.865 125.133 129.906 125.295 129.906 125.505C129.906 125.71 129.865 125.872 129.783 125.99C129.706 126.109 129.596 126.168 129.455 126.168C129.168 126.168 129.024 125.947 129.024 125.505ZM135.054 128.157H133.304V135H132.627V128.157H131.246V127.761L132.627 127.508V126.934C132.627 126.022 132.793 125.354 133.126 124.931C133.463 124.502 134.012 124.288 134.773 124.288C135.184 124.288 135.594 124.35 136.004 124.473L135.847 125.061C135.482 124.947 135.12 124.89 134.76 124.89C134.231 124.89 133.855 125.047 133.632 125.361C133.413 125.671 133.304 126.177 133.304 126.879V127.569H135.054V128.157ZM139.251 128.157H137.501V135H136.824V128.157H135.443V127.761L136.824 127.508V126.934C136.824 126.022 136.991 125.354 137.323 124.931C137.66 124.502 138.21 124.288 138.971 124.288C139.381 124.288 139.791 124.35 140.201 124.473L140.044 125.061C139.679 124.947 139.317 124.89 138.957 124.89C138.428 124.89 138.052 125.047 137.829 125.361C137.61 125.671 137.501 126.177 137.501 126.879V127.569H139.251V128.157ZM143.701 135.137C142.621 135.137 141.778 134.804 141.172 134.139C140.57 133.473 140.27 132.541 140.27 131.343C140.27 130.158 140.561 129.21 141.145 128.499C141.728 127.784 142.514 127.426 143.503 127.426C144.378 127.426 145.068 127.731 145.574 128.342C146.08 128.952 146.333 129.782 146.333 130.83V131.377H140.98C140.99 132.398 141.227 133.177 141.691 133.715C142.161 134.253 142.831 134.521 143.701 134.521C144.125 134.521 144.496 134.492 144.815 134.433C145.139 134.373 145.547 134.246 146.039 134.05V134.665C145.62 134.847 145.232 134.97 144.877 135.034C144.521 135.103 144.13 135.137 143.701 135.137ZM143.503 128.027C142.787 128.027 142.213 128.264 141.78 128.738C141.347 129.208 141.094 129.887 141.021 130.775H145.615C145.615 129.914 145.428 129.242 145.055 128.759C144.681 128.271 144.164 128.027 143.503 128.027ZM151.31 127.426C151.624 127.426 151.961 127.458 152.321 127.521L152.191 128.171C151.882 128.093 151.56 128.055 151.228 128.055C150.594 128.055 150.075 128.324 149.669 128.861C149.263 129.399 149.061 130.078 149.061 130.898V135H148.384V127.569H148.958L149.026 128.909H149.074C149.38 128.362 149.705 127.979 150.052 127.761C150.398 127.537 150.817 127.426 151.31 127.426ZM156.84 135.137C155.76 135.137 154.917 134.804 154.311 134.139C153.709 133.473 153.408 132.541 153.408 131.343C153.408 130.158 153.7 129.21 154.283 128.499C154.867 127.784 155.653 127.426 156.642 127.426C157.517 127.426 158.207 127.731 158.713 128.342C159.219 128.952 159.472 129.782 159.472 130.83V131.377H154.119C154.128 132.398 154.365 133.177 154.83 133.715C155.299 134.253 155.969 134.521 156.84 134.521C157.264 134.521 157.635 134.492 157.954 134.433C158.278 134.373 158.686 134.246 159.178 134.05V134.665C158.758 134.847 158.371 134.97 158.016 135.034C157.66 135.103 157.268 135.137 156.84 135.137ZM156.642 128.027C155.926 128.027 155.352 128.264 154.919 128.738C154.486 129.208 154.233 129.887 154.16 130.775H158.754C158.754 129.914 158.567 129.242 158.193 128.759C157.82 128.271 157.302 128.027 156.642 128.027ZM166.704 135V130.181C166.704 129.433 166.547 128.891 166.232 128.554C165.918 128.212 165.43 128.041 164.77 128.041C163.881 128.041 163.229 128.267 162.814 128.718C162.404 129.164 162.199 129.891 162.199 130.898V135H161.522V127.569H162.097L162.227 128.588H162.268C162.751 127.813 163.61 127.426 164.845 127.426C166.531 127.426 167.374 128.33 167.374 130.14V135H166.704ZM171.742 134.535C172.171 134.535 172.544 134.499 172.863 134.426V134.973C172.535 135.082 172.157 135.137 171.729 135.137C171.072 135.137 170.587 134.961 170.272 134.61C169.963 134.259 169.808 133.708 169.808 132.956V128.157H168.707V127.761L169.808 127.453L170.149 125.771H170.498V127.569H172.679V128.157H170.498V132.86C170.498 133.43 170.598 133.852 170.799 134.125C170.999 134.398 171.314 134.535 171.742 134.535ZM5.92285 147.426C6.46061 147.426 6.92546 147.524 7.31738 147.72C7.70931 147.916 8.06022 148.251 8.37012 148.725H8.41113C8.38379 148.15 8.37012 147.588 8.37012 147.036V144.363H9.04004V155H8.5957L8.4248 153.865H8.37012C7.80501 154.713 6.99382 155.137 5.93652 155.137C4.91113 155.137 4.12728 154.818 3.58496 154.18C3.04264 153.542 2.77148 152.612 2.77148 151.391C2.77148 150.105 3.04036 149.123 3.57812 148.444C4.11589 147.765 4.89746 147.426 5.92285 147.426ZM5.92285 148.041C5.11165 148.041 4.50098 148.326 4.09082 148.896C3.68522 149.465 3.48242 150.292 3.48242 151.377C3.48242 153.482 4.30046 154.535 5.93652 154.535C6.77507 154.535 7.3903 154.291 7.78223 153.804C8.17415 153.316 8.37012 152.512 8.37012 151.391V151.274C8.37012 150.126 8.17643 149.301 7.78906 148.8C7.40625 148.294 6.78418 148.041 5.92285 148.041ZM14.543 155.137C13.4629 155.137 12.6198 154.804 12.0137 154.139C11.4121 153.473 11.1113 152.541 11.1113 151.343C11.1113 150.158 11.403 149.21 11.9863 148.499C12.5697 147.784 13.3558 147.426 14.3447 147.426C15.2197 147.426 15.9102 147.731 16.416 148.342C16.9219 148.952 17.1748 149.782 17.1748 150.83V151.377H11.8223C11.8314 152.398 12.0684 153.177 12.5332 153.715C13.0026 154.253 13.6725 154.521 14.543 154.521C14.9668 154.521 15.3382 154.492 15.6572 154.433C15.9808 154.373 16.3887 154.246 16.8809 154.05V154.665C16.4616 154.847 16.0742 154.97 15.7188 155.034C15.3633 155.103 14.9714 155.137 14.543 155.137ZM14.3447 148.027C13.6292 148.027 13.055 148.264 12.6221 148.738C12.1891 149.208 11.9362 149.887 11.8633 150.775H16.457C16.457 149.914 16.2702 149.242 15.8965 148.759C15.5228 148.271 15.0055 148.027 14.3447 148.027ZM23.833 153.065C23.833 153.731 23.5801 154.243 23.0742 154.604C22.5684 154.959 21.8506 155.137 20.9209 155.137C19.9274 155.137 19.139 154.984 18.5557 154.679V153.947C19.3031 154.321 20.0915 154.508 20.9209 154.508C21.6546 154.508 22.2106 154.387 22.5889 154.146C22.9717 153.899 23.1631 153.574 23.1631 153.168C23.1631 152.794 23.0104 152.48 22.7051 152.225C22.4043 151.969 21.9076 151.719 21.2148 151.473C20.472 151.204 19.9502 150.974 19.6494 150.782C19.3486 150.586 19.1208 150.368 18.9658 150.126C18.8154 149.88 18.7402 149.581 18.7402 149.23C18.7402 148.674 18.9727 148.235 19.4375 147.911C19.9069 147.588 20.5609 147.426 21.3994 147.426C22.2015 147.426 22.9626 147.576 23.6826 147.877L23.4297 148.492C22.7005 148.191 22.0238 148.041 21.3994 148.041C20.7933 148.041 20.3125 148.141 19.957 148.342C19.6016 148.542 19.4238 148.82 19.4238 149.176C19.4238 149.563 19.5605 149.873 19.834 150.105C20.112 150.338 20.652 150.598 21.4541 150.885C22.124 151.126 22.6117 151.345 22.917 151.541C23.2223 151.732 23.4502 151.951 23.6006 152.197C23.7555 152.443 23.833 152.733 23.833 153.065ZM26.4238 155H25.7471V147.569H26.4238V155ZM25.6514 145.505C25.6514 145.067 25.7949 144.849 26.082 144.849C26.2233 144.849 26.3327 144.906 26.4102 145.02C26.4922 145.133 26.5332 145.295 26.5332 145.505C26.5332 145.71 26.4922 145.872 26.4102 145.99C26.3327 146.109 26.2233 146.168 26.082 146.168C25.7949 146.168 25.6514 145.947 25.6514 145.505ZM34.7158 147.569V148.041L33.1777 148.137C33.5879 148.647 33.793 149.208 33.793 149.818C33.793 150.534 33.5537 151.115 33.0752 151.562C32.6012 152.004 31.9632 152.225 31.1611 152.225C30.8239 152.225 30.5869 152.211 30.4502 152.184C30.1813 152.325 29.9762 152.491 29.835 152.683C29.6937 152.874 29.623 153.077 29.623 153.291C29.623 153.528 29.7119 153.701 29.8896 153.811C30.0719 153.92 30.375 153.975 30.7988 153.975H32.0977C32.9043 153.975 33.5218 154.139 33.9502 154.467C34.3786 154.79 34.5928 155.271 34.5928 155.909C34.5928 156.693 34.2738 157.297 33.6357 157.721C33.0023 158.149 32.0977 158.363 30.9219 158.363C29.9876 158.363 29.263 158.183 28.748 157.823C28.2376 157.463 27.9824 156.962 27.9824 156.319C27.9824 155.809 28.1396 155.385 28.4541 155.048C28.7731 154.711 29.2038 154.48 29.7461 154.357C29.5228 154.262 29.3428 154.127 29.2061 153.954C29.0739 153.776 29.0078 153.574 29.0078 153.346C29.0078 152.849 29.3245 152.411 29.958 152.033C29.5251 151.855 29.1878 151.577 28.9463 151.199C28.7048 150.816 28.584 150.379 28.584 149.887C28.584 149.144 28.8187 148.549 29.2881 148.103C29.762 147.651 30.4001 147.426 31.2021 147.426C31.6898 147.426 32.068 147.474 32.3369 147.569H34.7158ZM28.7002 156.258C28.7002 157.279 29.459 157.789 30.9766 157.789C32.9271 157.789 33.9023 157.167 33.9023 155.923C33.9023 155.476 33.7497 155.153 33.4443 154.952C33.139 154.752 32.6445 154.651 31.9609 154.651H30.7441C29.3815 154.651 28.7002 155.187 28.7002 156.258ZM29.2676 149.887C29.2676 150.461 29.4408 150.908 29.7871 151.227C30.138 151.541 30.6051 151.698 31.1885 151.698C31.8083 151.698 32.2822 151.541 32.6104 151.227C32.943 150.912 33.1094 150.456 33.1094 149.859C33.1094 149.226 32.9385 148.752 32.5967 148.438C32.2594 148.118 31.7855 147.959 31.1748 147.959C30.5824 147.959 30.1152 148.13 29.7734 148.472C29.4362 148.809 29.2676 149.281 29.2676 149.887ZM41.4287 155V150.181C41.4287 149.433 41.2715 148.891 40.957 148.554C40.6426 148.212 40.1549 148.041 39.4941 148.041C38.6055 148.041 37.9538 148.267 37.5391 148.718C37.1289 149.164 36.9238 149.891 36.9238 150.898V155H36.2471V147.569H36.8213L36.9512 148.588H36.9922C37.4753 147.813 38.3343 147.426 39.5693 147.426C41.2555 147.426 42.0986 148.33 42.0986 150.14V155H41.4287ZM47.5059 155.137C46.4258 155.137 45.5827 154.804 44.9766 154.139C44.375 153.473 44.0742 152.541 44.0742 151.343C44.0742 150.158 44.3659 149.21 44.9492 148.499C45.5326 147.784 46.3187 147.426 47.3076 147.426C48.1826 147.426 48.873 147.731 49.3789 148.342C49.8848 148.952 50.1377 149.782 50.1377 150.83V151.377H44.7852C44.7943 152.398 45.0312 153.177 45.4961 153.715C45.9655 154.253 46.6354 154.521 47.5059 154.521C47.9297 154.521 48.3011 154.492 48.6201 154.433C48.9437 154.373 49.3516 154.246 49.8438 154.05V154.665C49.4245 154.847 49.0371 154.97 48.6816 155.034C48.3262 155.103 47.9342 155.137 47.5059 155.137ZM47.3076 148.027C46.5921 148.027 46.0179 148.264 45.585 148.738C45.152 149.208 44.8991 149.887 44.8262 150.775H49.4199C49.4199 149.914 49.2331 149.242 48.8594 148.759C48.4857 148.271 47.9684 148.027 47.3076 148.027ZM55.1143 147.426C55.4287 147.426 55.766 147.458 56.126 147.521L55.9961 148.171C55.6862 148.093 55.3649 148.055 55.0322 148.055C54.3988 148.055 53.8792 148.324 53.4736 148.861C53.068 149.399 52.8652 150.078 52.8652 150.898V155H52.1885V147.569H52.7627L52.8311 148.909H52.8789C53.1842 148.362 53.5101 147.979 53.8564 147.761C54.2028 147.537 54.6221 147.426 55.1143 147.426ZM62.251 153.065C62.251 153.731 61.998 154.243 61.4922 154.604C60.9863 154.959 60.2686 155.137 59.3389 155.137C58.3454 155.137 57.557 154.984 56.9736 154.679V153.947C57.721 154.321 58.5094 154.508 59.3389 154.508C60.0726 154.508 60.6286 154.387 61.0068 154.146C61.3896 153.899 61.5811 153.574 61.5811 153.168C61.5811 152.794 61.4284 152.48 61.123 152.225C60.8223 151.969 60.3255 151.719 59.6328 151.473C58.89 151.204 58.3682 150.974 58.0674 150.782C57.7666 150.586 57.5387 150.368 57.3838 150.126C57.2334 149.88 57.1582 149.581 57.1582 149.23C57.1582 148.674 57.3906 148.235 57.8555 147.911C58.3249 147.588 58.9788 147.426 59.8174 147.426C60.6195 147.426 61.3805 147.576 62.1006 147.877L61.8477 148.492C61.1185 148.191 60.4417 148.041 59.8174 148.041C59.2113 148.041 58.7305 148.141 58.375 148.342C58.0195 148.542 57.8418 148.82 57.8418 149.176C57.8418 149.563 57.9785 149.873 58.252 150.105C58.5299 150.338 59.07 150.598 59.8721 150.885C60.542 151.126 61.0296 151.345 61.335 151.541C61.6403 151.732 61.8682 151.951 62.0186 152.197C62.1735 152.443 62.251 152.733 62.251 153.065ZM72.3135 155L72.1426 153.824H72.0879C71.7142 154.303 71.3291 154.642 70.9326 154.843C70.5407 155.039 70.0758 155.137 69.5381 155.137C68.8089 155.137 68.2415 154.95 67.8359 154.576C67.4303 154.202 67.2275 153.685 67.2275 153.024C67.2275 152.3 67.5283 151.737 68.1299 151.336C68.736 150.935 69.611 150.723 70.7549 150.7L72.1699 150.659V150.167C72.1699 149.461 72.0264 148.927 71.7393 148.567C71.4521 148.207 70.9896 148.027 70.3516 148.027C69.6634 148.027 68.9502 148.219 68.2119 148.602L67.959 148.014C68.7747 147.631 69.5814 147.439 70.3789 147.439C71.1947 147.439 71.8031 147.651 72.2041 148.075C72.6097 148.499 72.8125 149.16 72.8125 150.058V155H72.3135ZM69.5791 154.521C70.3721 154.521 70.9964 154.296 71.4521 153.845C71.9124 153.389 72.1426 152.758 72.1426 151.951V151.22L70.8438 151.274C69.8001 151.325 69.055 151.489 68.6084 151.767C68.1663 152.04 67.9453 152.468 67.9453 153.052C67.9453 153.517 68.0866 153.879 68.3691 154.139C68.6562 154.394 69.0596 154.521 69.5791 154.521ZM78.2266 155.137C77.1465 155.137 76.3034 154.804 75.6973 154.139C75.0957 153.473 74.7949 152.541 74.7949 151.343C74.7949 150.158 75.0866 149.21 75.6699 148.499C76.2533 147.784 77.0394 147.426 78.0283 147.426C78.9033 147.426 79.5938 147.731 80.0996 148.342C80.6055 148.952 80.8584 149.782 80.8584 150.83V151.377H75.5059C75.515 152.398 75.752 153.177 76.2168 153.715C76.6862 154.253 77.3561 154.521 78.2266 154.521C78.6504 154.521 79.0218 154.492 79.3408 154.433C79.6644 154.373 80.0723 154.246 80.5645 154.05V154.665C80.1452 154.847 79.7578 154.97 79.4023 155.034C79.0469 155.103 78.6549 155.137 78.2266 155.137ZM78.0283 148.027C77.3128 148.027 76.7386 148.264 76.3057 148.738C75.8727 149.208 75.6198 149.887 75.5469 150.775H80.1406C80.1406 149.914 79.9538 149.242 79.5801 148.759C79.2064 148.271 78.6891 148.027 78.0283 148.027ZM87.5166 153.065C87.5166 153.731 87.2637 154.243 86.7578 154.604C86.252 154.959 85.5342 155.137 84.6045 155.137C83.611 155.137 82.8226 154.984 82.2393 154.679V153.947C82.9867 154.321 83.7751 154.508 84.6045 154.508C85.3382 154.508 85.8942 154.387 86.2725 154.146C86.6553 153.899 86.8467 153.574 86.8467 153.168C86.8467 152.794 86.694 152.48 86.3887 152.225C86.0879 151.969 85.5911 151.719 84.8984 151.473C84.1556 151.204 83.6338 150.974 83.333 150.782C83.0322 150.586 82.8044 150.368 82.6494 150.126C82.499 149.88 82.4238 149.581 82.4238 149.23C82.4238 148.674 82.6562 148.235 83.1211 147.911C83.5905 147.588 84.2445 147.426 85.083 147.426C85.8851 147.426 86.6462 147.576 87.3662 147.877L87.1133 148.492C86.3841 148.191 85.7074 148.041 85.083 148.041C84.4769 148.041 83.9961 148.141 83.6406 148.342C83.2852 148.542 83.1074 148.82 83.1074 149.176C83.1074 149.563 83.2441 149.873 83.5176 150.105C83.7956 150.338 84.3356 150.598 85.1377 150.885C85.8076 151.126 86.2952 151.345 86.6006 151.541C86.9059 151.732 87.1338 151.951 87.2842 152.197C87.4391 152.443 87.5166 152.733 87.5166 153.065ZM91.3926 154.535C91.821 154.535 92.1947 154.499 92.5137 154.426V154.973C92.1855 155.082 91.8073 155.137 91.3789 155.137C90.7227 155.137 90.2373 154.961 89.9229 154.61C89.613 154.259 89.458 153.708 89.458 152.956V148.157H88.3574V147.761L89.458 147.453L89.7998 145.771H90.1484V147.569H92.3291V148.157H90.1484V152.86C90.1484 153.43 90.2487 153.852 90.4492 154.125C90.6497 154.398 90.9642 154.535 91.3926 154.535ZM99.3018 155V150.181C99.3018 149.433 99.1445 148.891 98.8301 148.554C98.5156 148.212 98.028 148.041 97.3672 148.041C96.4785 148.041 95.8268 148.267 95.4121 148.718C95.002 149.164 94.7969 149.891 94.7969 150.898V155H94.1201V144.363H94.7969V147.747L94.7627 148.697H94.8105C95.0885 148.251 95.4395 147.927 95.8633 147.727C96.2871 147.526 96.8135 147.426 97.4424 147.426C99.1286 147.426 99.9717 148.33 99.9717 150.14V155H99.3018ZM105.379 155.137C104.299 155.137 103.456 154.804 102.85 154.139C102.248 153.473 101.947 152.541 101.947 151.343C101.947 150.158 102.239 149.21 102.822 148.499C103.406 147.784 104.192 147.426 105.181 147.426C106.056 147.426 106.746 147.731 107.252 148.342C107.758 148.952 108.011 149.782 108.011 150.83V151.377H102.658C102.667 152.398 102.904 153.177 103.369 153.715C103.839 154.253 104.508 154.521 105.379 154.521C105.803 154.521 106.174 154.492 106.493 154.433C106.817 154.373 107.225 154.246 107.717 154.05V154.665C107.298 154.847 106.91 154.97 106.555 155.034C106.199 155.103 105.807 155.137 105.379 155.137ZM105.181 148.027C104.465 148.027 103.891 148.264 103.458 148.738C103.025 149.208 102.772 149.887 102.699 150.775H107.293C107.293 149.914 107.106 149.242 106.732 148.759C106.359 148.271 105.841 148.027 105.181 148.027ZM112.023 154.535C112.452 154.535 112.826 154.499 113.145 154.426V154.973C112.816 155.082 112.438 155.137 112.01 155.137C111.354 155.137 110.868 154.961 110.554 154.61C110.244 154.259 110.089 153.708 110.089 152.956V148.157H108.988V147.761L110.089 147.453L110.431 145.771H110.779V147.569H112.96V148.157H110.779V152.86C110.779 153.43 110.88 153.852 111.08 154.125C111.281 154.398 111.595 154.535 112.023 154.535ZM115.428 155H114.751V147.569H115.428V155ZM114.655 145.505C114.655 145.067 114.799 144.849 115.086 144.849C115.227 144.849 115.337 144.906 115.414 145.02C115.496 145.133 115.537 145.295 115.537 145.505C115.537 145.71 115.496 145.872 115.414 145.99C115.337 146.109 115.227 146.168 115.086 146.168C114.799 146.168 114.655 145.947 114.655 145.505ZM120.89 155.137C119.828 155.137 118.996 154.802 118.395 154.132C117.793 153.462 117.492 152.528 117.492 151.329C117.492 150.099 117.804 149.142 118.429 148.458C119.053 147.77 119.908 147.426 120.992 147.426C121.635 147.426 122.25 147.537 122.838 147.761L122.653 148.362C122.011 148.148 121.452 148.041 120.979 148.041C120.067 148.041 119.377 148.324 118.907 148.889C118.438 149.449 118.203 150.258 118.203 151.315C118.203 152.318 118.438 153.104 118.907 153.674C119.377 154.239 120.033 154.521 120.876 154.521C121.55 154.521 122.177 154.401 122.756 154.159V154.788C122.282 155.021 121.66 155.137 120.89 155.137ZM133.399 155V150.181C133.399 149.433 133.242 148.891 132.928 148.554C132.613 148.212 132.126 148.041 131.465 148.041C130.576 148.041 129.924 148.267 129.51 148.718C129.1 149.164 128.895 149.891 128.895 150.898V155H128.218V147.569H128.792L128.922 148.588H128.963C129.446 147.813 130.305 147.426 131.54 147.426C133.226 147.426 134.069 148.33 134.069 150.14V155H133.399ZM139.477 155.137C138.396 155.137 137.553 154.804 136.947 154.139C136.346 153.473 136.045 152.541 136.045 151.343C136.045 150.158 136.337 149.21 136.92 148.499C137.503 147.784 138.289 147.426 139.278 147.426C140.153 147.426 140.844 147.731 141.35 148.342C141.855 148.952 142.108 149.782 142.108 150.83V151.377H136.756C136.765 152.398 137.002 153.177 137.467 153.715C137.936 154.253 138.606 154.521 139.477 154.521C139.9 154.521 140.272 154.492 140.591 154.433C140.914 154.373 141.322 154.246 141.814 154.05V154.665C141.395 154.847 141.008 154.97 140.652 155.034C140.297 155.103 139.905 155.137 139.477 155.137ZM139.278 148.027C138.563 148.027 137.989 148.264 137.556 148.738C137.123 149.208 136.87 149.887 136.797 150.775H141.391C141.391 149.914 141.204 149.242 140.83 148.759C140.456 148.271 139.939 148.027 139.278 148.027ZM147.16 155.137C146.08 155.137 145.237 154.804 144.631 154.139C144.029 153.473 143.729 152.541 143.729 151.343C143.729 150.158 144.02 149.21 144.604 148.499C145.187 147.784 145.973 147.426 146.962 147.426C147.837 147.426 148.527 147.731 149.033 148.342C149.539 148.952 149.792 149.782 149.792 150.83V151.377H144.439C144.449 152.398 144.686 153.177 145.15 153.715C145.62 154.253 146.29 154.521 147.16 154.521C147.584 154.521 147.955 154.492 148.274 154.433C148.598 154.373 149.006 154.246 149.498 154.05V154.665C149.079 154.847 148.691 154.97 148.336 155.034C147.98 155.103 147.589 155.137 147.16 155.137ZM146.962 148.027C146.246 148.027 145.672 148.264 145.239 148.738C144.806 149.208 144.553 149.887 144.48 150.775H149.074C149.074 149.914 148.887 149.242 148.514 148.759C148.14 148.271 147.623 148.027 146.962 148.027ZM154.563 147.426C155.101 147.426 155.566 147.524 155.958 147.72C156.35 147.916 156.701 148.251 157.011 148.725H157.052C157.024 148.15 157.011 147.588 157.011 147.036V144.363H157.681V155H157.236L157.065 153.865H157.011C156.446 154.713 155.634 155.137 154.577 155.137C153.552 155.137 152.768 154.818 152.226 154.18C151.683 153.542 151.412 152.612 151.412 151.391C151.412 150.105 151.681 149.123 152.219 148.444C152.757 147.765 153.538 147.426 154.563 147.426ZM154.563 148.041C153.752 148.041 153.142 148.326 152.731 148.896C152.326 149.465 152.123 150.292 152.123 151.377C152.123 153.482 152.941 154.535 154.577 154.535C155.416 154.535 156.031 154.291 156.423 153.804C156.815 153.316 157.011 152.512 157.011 151.391V151.274C157.011 150.126 156.817 149.301 156.43 148.8C156.047 148.294 155.425 148.041 154.563 148.041ZM164.79 153.065C164.79 153.731 164.537 154.243 164.031 154.604C163.525 154.959 162.808 155.137 161.878 155.137C160.884 155.137 160.096 154.984 159.513 154.679V153.947C160.26 154.321 161.049 154.508 161.878 154.508C162.612 154.508 163.168 154.387 163.546 154.146C163.929 153.899 164.12 153.574 164.12 153.168C164.12 152.794 163.967 152.48 163.662 152.225C163.361 151.969 162.865 151.719 162.172 151.473C161.429 151.204 160.907 150.974 160.606 150.782C160.306 150.586 160.078 150.368 159.923 150.126C159.772 149.88 159.697 149.581 159.697 149.23C159.697 148.674 159.93 148.235 160.395 147.911C160.864 147.588 161.518 147.426 162.356 147.426C163.159 147.426 163.92 147.576 164.64 147.877L164.387 148.492C163.658 148.191 162.981 148.041 162.356 148.041C161.75 148.041 161.27 148.141 160.914 148.342C160.559 148.542 160.381 148.82 160.381 149.176C160.381 149.563 160.518 149.873 160.791 150.105C161.069 150.338 161.609 150.598 162.411 150.885C163.081 151.126 163.569 151.345 163.874 151.541C164.179 151.732 164.407 151.951 164.558 152.197C164.713 152.443 164.79 152.733 164.79 153.065ZM174.853 155L174.682 153.824H174.627C174.253 154.303 173.868 154.642 173.472 154.843C173.08 155.039 172.615 155.137 172.077 155.137C171.348 155.137 170.781 154.95 170.375 154.576C169.969 154.202 169.767 153.685 169.767 153.024C169.767 152.3 170.067 151.737 170.669 151.336C171.275 150.935 172.15 150.723 173.294 150.7L174.709 150.659V150.167C174.709 149.461 174.565 148.927 174.278 148.567C173.991 148.207 173.529 148.027 172.891 148.027C172.202 148.027 171.489 148.219 170.751 148.602L170.498 148.014C171.314 147.631 172.12 147.439 172.918 147.439C173.734 147.439 174.342 147.651 174.743 148.075C175.149 148.499 175.352 149.16 175.352 150.058V155H174.853ZM172.118 154.521C172.911 154.521 173.535 154.296 173.991 153.845C174.451 153.389 174.682 152.758 174.682 151.951V151.22L173.383 151.274C172.339 151.325 171.594 151.489 171.147 151.767C170.705 152.04 170.484 152.468 170.484 153.052C170.484 153.517 170.626 153.879 170.908 154.139C171.195 154.394 171.599 154.521 172.118 154.521ZM182.372 153.065C182.372 153.731 182.119 154.243 181.613 154.604C181.107 154.959 180.39 155.137 179.46 155.137C178.466 155.137 177.678 154.984 177.095 154.679V153.947C177.842 154.321 178.631 154.508 179.46 154.508C180.194 154.508 180.75 154.387 181.128 154.146C181.511 153.899 181.702 153.574 181.702 153.168C181.702 152.794 181.549 152.48 181.244 152.225C180.943 151.969 180.447 151.719 179.754 151.473C179.011 151.204 178.489 150.974 178.188 150.782C177.888 150.586 177.66 150.368 177.505 150.126C177.354 149.88 177.279 149.581 177.279 149.23C177.279 148.674 177.512 148.235 177.977 147.911C178.446 147.588 179.1 147.426 179.938 147.426C180.741 147.426 181.502 147.576 182.222 147.877L181.969 148.492C181.24 148.191 180.563 148.041 179.938 148.041C179.332 148.041 178.852 148.141 178.496 148.342C178.141 148.542 177.963 148.82 177.963 149.176C177.963 149.563 178.1 149.873 178.373 150.105C178.651 150.338 179.191 150.598 179.993 150.885C180.663 151.126 181.151 151.345 181.456 151.541C181.761 151.732 181.989 151.951 182.14 152.197C182.295 152.443 182.372 152.733 182.372 153.065ZM70.9463 175.137C69.8024 175.137 68.9684 174.708 68.4443 173.852H68.3965L68.417 174.426C68.4352 174.763 68.4443 175.132 68.4443 175.533V178.363H67.7676V167.569H68.3418L68.4717 168.629H68.5127C69.0231 167.827 69.8389 167.426 70.96 167.426C71.9626 167.426 72.7259 167.756 73.25 168.417C73.7786 169.073 74.043 170.03 74.043 171.288C74.043 172.509 73.765 173.457 73.209 174.132C72.6576 174.802 71.9033 175.137 70.9463 175.137ZM70.9326 174.535C71.6937 174.535 72.2816 174.253 72.6963 173.688C73.1156 173.122 73.3252 172.332 73.3252 171.315C73.3252 169.132 72.5368 168.041 70.96 168.041C70.0941 168.041 69.4583 168.28 69.0527 168.759C68.6471 169.233 68.4443 170.007 68.4443 171.083V171.302C68.4443 172.464 68.638 173.293 69.0254 173.79C69.4173 174.287 70.0531 174.535 70.9326 174.535ZM82.2529 171.274C82.2529 172.487 81.959 173.435 81.3711 174.118C80.7832 174.797 79.972 175.137 78.9375 175.137C78.2858 175.137 77.7116 174.979 77.2148 174.665C76.7181 174.351 76.3376 173.899 76.0732 173.312C75.8089 172.724 75.6768 172.045 75.6768 171.274C75.6768 170.062 75.9707 169.119 76.5586 168.444C77.1465 167.765 77.9531 167.426 78.9785 167.426C79.9993 167.426 80.7992 167.77 81.3779 168.458C81.9613 169.142 82.2529 170.08 82.2529 171.274ZM76.3877 171.274C76.3877 172.295 76.611 173.093 77.0576 173.667C77.5088 174.237 78.1445 174.521 78.9648 174.521C79.7852 174.521 80.4186 174.237 80.8652 173.667C81.3164 173.093 81.542 172.295 81.542 171.274C81.542 170.249 81.3141 169.454 80.8584 168.889C80.4072 168.324 79.7715 168.041 78.9512 168.041C78.1309 168.041 77.4974 168.324 77.0508 168.889C76.6087 169.449 76.3877 170.244 76.3877 171.274ZM88.918 173.065C88.918 173.731 88.665 174.243 88.1592 174.604C87.6533 174.959 86.9355 175.137 86.0059 175.137C85.0124 175.137 84.224 174.984 83.6406 174.679V173.947C84.388 174.321 85.1764 174.508 86.0059 174.508C86.7396 174.508 87.2956 174.387 87.6738 174.146C88.0566 173.899 88.248 173.574 88.248 173.168C88.248 172.794 88.0954 172.48 87.79 172.225C87.4893 171.969 86.9925 171.719 86.2998 171.473C85.557 171.204 85.0352 170.974 84.7344 170.782C84.4336 170.586 84.2057 170.368 84.0508 170.126C83.9004 169.88 83.8252 169.581 83.8252 169.23C83.8252 168.674 84.0576 168.235 84.5225 167.911C84.9919 167.588 85.6458 167.426 86.4844 167.426C87.2865 167.426 88.0475 167.576 88.7676 167.877L88.5146 168.492C87.7855 168.191 87.1087 168.041 86.4844 168.041C85.8783 168.041 85.3975 168.141 85.042 168.342C84.6865 168.542 84.5088 168.82 84.5088 169.176C84.5088 169.563 84.6455 169.873 84.9189 170.105C85.1969 170.338 85.737 170.598 86.5391 170.885C87.209 171.126 87.6966 171.345 88.002 171.541C88.3073 171.732 88.5352 171.951 88.6855 172.197C88.8405 172.443 88.918 172.733 88.918 173.065ZM95.4395 173.065C95.4395 173.731 95.1865 174.243 94.6807 174.604C94.1748 174.959 93.457 175.137 92.5273 175.137C91.5339 175.137 90.7454 174.984 90.1621 174.679V173.947C90.9095 174.321 91.6979 174.508 92.5273 174.508C93.2611 174.508 93.8171 174.387 94.1953 174.146C94.5781 173.899 94.7695 173.574 94.7695 173.168C94.7695 172.794 94.6169 172.48 94.3115 172.225C94.0107 171.969 93.514 171.719 92.8213 171.473C92.0785 171.204 91.5566 170.974 91.2559 170.782C90.9551 170.586 90.7272 170.368 90.5723 170.126C90.4219 169.88 90.3467 169.581 90.3467 169.23C90.3467 168.674 90.5791 168.235 91.0439 167.911C91.5133 167.588 92.1673 167.426 93.0059 167.426C93.8079 167.426 94.569 167.576 95.2891 167.877L95.0361 168.492C94.307 168.191 93.6302 168.041 93.0059 168.041C92.3997 168.041 91.9189 168.141 91.5635 168.342C91.208 168.542 91.0303 168.82 91.0303 169.176C91.0303 169.563 91.167 169.873 91.4404 170.105C91.7184 170.338 92.2585 170.598 93.0605 170.885C93.7305 171.126 94.2181 171.345 94.5234 171.541C94.8288 171.732 95.0566 171.951 95.207 172.197C95.362 172.443 95.4395 172.733 95.4395 173.065ZM98.0303 175H97.3535V167.569H98.0303V175ZM97.2578 165.505C97.2578 165.067 97.4014 164.849 97.6885 164.849C97.8298 164.849 97.9391 164.906 98.0166 165.02C98.0986 165.133 98.1396 165.295 98.1396 165.505C98.1396 165.71 98.0986 165.872 98.0166 165.99C97.9391 166.109 97.8298 166.168 97.6885 166.168C97.4014 166.168 97.2578 165.947 97.2578 165.505ZM103.663 167.426C104.702 167.426 105.484 167.754 106.008 168.41C106.536 169.062 106.801 170.017 106.801 171.274C106.801 172.509 106.523 173.462 105.967 174.132C105.415 174.802 104.638 175.137 103.636 175.137C103.107 175.137 102.631 175.027 102.207 174.809C101.783 174.59 101.448 174.28 101.202 173.879H101.141L100.949 175H100.525V164.363H101.202V167.036C101.202 167.437 101.193 167.806 101.175 168.144L101.154 168.725H101.202C101.485 168.278 101.824 167.95 102.221 167.74C102.622 167.531 103.103 167.426 103.663 167.426ZM103.649 168.041C102.774 168.041 102.148 168.292 101.77 168.793C101.391 169.294 101.202 170.121 101.202 171.274V171.391C101.202 172.512 101.398 173.316 101.79 173.804C102.187 174.291 102.802 174.535 103.636 174.535C104.447 174.535 105.058 174.253 105.468 173.688C105.878 173.118 106.083 172.309 106.083 171.261C106.083 169.114 105.272 168.041 103.649 168.041ZM109.542 175H108.865V164.363H109.542V175ZM115.038 175.137C113.958 175.137 113.115 174.804 112.509 174.139C111.907 173.473 111.606 172.541 111.606 171.343C111.606 170.158 111.898 169.21 112.481 168.499C113.065 167.784 113.851 167.426 114.84 167.426C115.715 167.426 116.405 167.731 116.911 168.342C117.417 168.952 117.67 169.782 117.67 170.83V171.377H112.317C112.326 172.398 112.563 173.177 113.028 173.715C113.498 174.253 114.168 174.521 115.038 174.521C115.462 174.521 115.833 174.492 116.152 174.433C116.476 174.373 116.884 174.246 117.376 174.05V174.665C116.957 174.847 116.569 174.97 116.214 175.034C115.858 175.103 115.466 175.137 115.038 175.137ZM114.84 168.027C114.124 168.027 113.55 168.264 113.117 168.738C112.684 169.208 112.431 169.887 112.358 170.775H116.952C116.952 169.914 116.765 169.242 116.392 168.759C116.018 168.271 115.501 168.027 114.84 168.027Z" fill="black"/>
<rect x="11" y="109" width="165" height="1" fill="#323232"/>
<defs>
<clipPath id="clip0">
<rect width="48" height="48" fill="white" transform="translate(73)"/>
</clipPath>
</defs>
</svg>
