<svg width="185" height="185" viewBox="0 0 185 185" fill="none" xmlns="http://www.w3.org/2000/svg">
<path d="M87.1889 36.1899C86.8013 36.1899 86.4871 36.5041 86.4871 36.8917V40.5877C86.4871 40.9754 86.8013 41.2895 87.1889 41.2895C87.5765 41.2895 87.8907 40.9754 87.8907 40.5877V36.8917C87.8907 36.5041 87.5765 36.1899 87.1889 36.1899Z" fill="black"/>
<path d="M100.774 36.1899C100.386 36.1899 100.072 36.5041 100.072 36.8917V40.5877C100.072 40.9754 100.386 41.2895 100.774 41.2895C101.161 41.2895 101.476 40.9754 101.476 40.5877V36.8917C101.476 36.5041 101.161 36.1899 100.774 36.1899Z" fill="black"/>
<path d="M114.41 33.7398L112.061 32.7971V32.1969C112.522 31.9405 112.936 31.6069 113.285 31.2131C114.771 31.3886 116.193 30.7952 117.114 29.6015C118.066 28.3671 118.264 26.7762 117.644 25.346L116.589 22.9129C116.509 22.73 116.455 22.5372 116.426 22.3399C116.199 20.7594 115.409 19.3132 114.202 18.2676C112.995 17.2219 111.451 16.6461 109.855 16.6461C108.258 16.6461 106.714 17.2219 105.507 18.2676C104.3 19.3132 103.51 20.7593 103.283 22.3399C103.255 22.5373 103.2 22.7301 103.121 22.9129L102.066 25.346C101.445 26.7761 101.643 28.367 102.596 29.6015C103.41 30.6575 104.617 31.246 105.913 31.2459C106.08 31.2459 106.249 31.236 106.419 31.216C106.735 31.5747 107.106 31.8836 107.519 32.1295V32.797L105.17 33.7398C105.016 33.8013 104.867 33.8708 104.721 33.9477C104.266 33.1115 103.617 32.3802 102.81 31.8246L99.7489 29.7197C99.7666 29.3331 99.612 28.9438 99.2971 28.6766L98.0534 27.6213C97.9355 27.5212 97.803 27.4456 97.663 27.3942V25.9734C98.9777 25.0199 99.9098 23.5711 100.183 21.9027H100.258C101.596 21.9027 102.685 20.8141 102.685 19.4761C102.685 18.9048 102.486 18.3793 102.154 17.9643L102.656 14.3981C103.017 11.8273 101.223 9.42513 98.6546 9.04316L98.5548 9.02837C97.7337 7.68821 96.4619 6.72131 94.936 6.28863L94.7523 6.23651C92.7293 5.6629 90.5653 6.00529 88.8153 7.17608C88.4931 7.39158 88.4066 7.82745 88.6221 8.14953C88.8376 8.47161 89.2734 8.55817 89.5957 8.34257C91.0031 7.40103 92.743 7.12564 94.3694 7.58687L94.5531 7.63899C95.8299 8.00103 96.8781 8.84478 97.5044 10.0148C97.9353 10.8198 98.1256 11.7051 98.0707 12.5907L97.5949 12.1818C97.1601 11.8081 96.5207 11.7982 96.0747 12.1584L95.4507 12.6625H91.8884C89.5769 12.6625 87.6962 14.5431 87.6962 16.8547V17.0496C87.5101 17.0503 87.3291 17.0725 87.1551 17.1131C86.3617 14.8795 86.5854 12.3629 87.7779 10.3043C87.9722 9.96889 87.8578 9.53957 87.5224 9.34522C87.1871 9.15105 86.7578 9.2653 86.5634 9.60067C85.1213 12.0903 84.8874 15.1512 85.9242 17.83C85.5238 18.2629 85.2785 18.8413 85.2785 19.4761C85.2785 20.8141 86.3672 21.9027 87.7053 21.9027H87.7802C88.0534 23.5711 88.9856 25.0199 90.3002 25.9734V27.3942C90.1602 27.4455 90.0277 27.5212 89.9099 27.6212L88.6661 28.6766C88.3512 28.9438 88.1966 29.3332 88.2143 29.7197L85.1536 31.8246C84.5316 32.2524 84.0035 32.7842 83.5858 33.3881C83.3151 33.2385 83.033 33.1107 82.7408 33.0072L80.6627 32.2712V31.7181C81.7212 31.0641 82.4822 29.9739 82.6941 28.7002H83.0082C84.2395 28.7002 85.2412 27.6985 85.2412 26.4673C85.2412 25.9144 85.0389 25.4084 84.7049 25.018L84.8302 23.5347C85.0044 21.3988 84.0724 19.3728 82.3371 18.1154C80.6017 16.8579 78.3862 16.6031 76.4107 17.4336L75.0118 18.0218C72.8459 18.4999 71.3982 20.5754 71.7074 22.78L72.0204 25.0108C71.6827 25.4021 71.4779 25.9111 71.4779 26.4673C71.4779 27.6985 72.4796 28.7002 73.711 28.7002H74.025C74.2232 29.8913 74.9017 30.9215 75.8544 31.585V32.2712L73.7764 33.0071C73.4853 33.1103 73.1986 33.2394 72.9243 33.3912C72.5851 33.5787 72.4621 34.0057 72.6496 34.3449C72.7776 34.5765 73.0173 34.7072 73.2644 34.7072C73.3792 34.7072 73.4957 34.6789 73.6033 34.6194C73.8104 34.5049 74.0263 34.4076 74.2448 34.3302L76.0405 33.6942C76.4041 34.5608 77.2612 35.1711 78.2585 35.1711C79.2557 35.1711 80.1128 34.5608 80.4764 33.6942L82.2721 34.3303C82.498 34.4102 82.716 34.5096 82.925 34.6264C82.6462 35.3331 82.4968 36.0946 82.4968 36.876V41.0395C82.4968 41.4272 82.811 41.7413 83.1986 41.7413C83.5862 41.7413 83.9004 41.4272 83.9004 41.0395V36.876C83.9004 35.3193 84.6662 33.8633 85.9488 32.9812L88.8717 30.9711L90.0697 32.5729C90.3272 32.9172 90.731 33.1112 91.1475 33.1112C91.2772 33.1112 91.4082 33.0924 91.5363 33.0534L93.2797 32.5228V41.3333C93.2797 41.721 93.5939 42.0351 93.9815 42.0351C94.3691 42.0351 94.6833 41.721 94.6833 41.3333V32.5228L96.4268 33.0535C96.5549 33.0924 96.6858 33.1112 96.8155 33.1112C97.2319 33.1112 97.6357 32.9171 97.8932 32.5729L99.0912 30.9711L102.014 32.9812C103.297 33.8633 104.062 35.3193 104.062 36.876V41.0395C104.062 41.4272 104.377 41.7413 104.764 41.7413C105.152 41.7413 105.466 41.4272 105.466 41.0395V36.876C105.466 36.3233 105.391 35.7805 105.249 35.2598C105.391 35.1768 105.539 35.104 105.692 35.0426L107.73 34.225C108.091 35.002 108.878 35.5424 109.79 35.5424C110.702 35.5424 111.489 35.0021 111.85 34.2251L113.888 35.0426C115.177 35.5595 116.009 36.7907 116.009 38.1791V39.367C116.009 39.7547 116.323 40.0688 116.711 40.0688C117.098 40.0688 117.413 39.7547 117.413 39.367V38.1791C117.413 36.214 116.234 34.4716 114.41 33.7398ZM86.6819 19.476C86.6819 18.9149 87.136 18.4583 87.6959 18.4533V20.4985C87.1361 20.4936 86.6819 20.0371 86.6819 19.476ZM83.008 27.2965H82.7546V25.6376H83.008C83.4654 25.6376 83.8374 26.0098 83.8374 26.4671C83.8374 26.9244 83.4654 27.2965 83.008 27.2965ZM72.8813 26.4672C72.8813 26.0098 73.2534 25.6377 73.7108 25.6377H73.9642V27.2966H73.7108C73.2535 27.2965 72.8813 26.9245 72.8813 26.4672ZM74.8165 22.0708C74.351 22.7136 74.0695 23.4539 73.989 24.234H73.7108C73.582 24.234 73.4561 24.2456 73.3332 24.2666L73.0973 22.5848C72.8875 21.0895 73.8824 19.6827 75.3622 19.382C75.4074 19.3729 75.4518 19.3592 75.4945 19.3412L76.9546 18.7273C78.4744 18.0883 80.1786 18.2845 81.5134 19.2517C82.8482 20.2191 83.5652 21.7774 83.4314 23.4183L83.3601 24.2619C83.2454 24.2437 83.1278 24.2339 83.008 24.2339H82.7484C82.688 23.6389 82.1841 23.1729 81.5733 23.1729H79.8403C78.6052 23.1729 77.3831 22.7618 76.399 22.0156L76.2005 21.865C75.992 21.7069 75.7238 21.6382 75.4653 21.6767C75.2064 21.7153 74.97 21.8589 74.8165 22.0708ZM75.9534 22.8941C75.9532 22.8943 75.9531 22.8945 75.953 22.8947C75.9531 22.8945 75.9533 22.8943 75.9534 22.8941ZM75.3679 24.7011C75.3679 24.1936 75.4902 23.7031 75.7244 23.2614C76.9196 24.111 78.3727 24.5767 79.8404 24.5767H81.351V27.9766C81.351 29.6262 80.0089 30.9683 78.3594 30.9683C76.7099 30.9683 75.3679 29.6262 75.3679 27.9766V24.7011ZM78.2584 33.7675C77.7066 33.7675 77.2579 33.3186 77.2579 32.767V32.232C77.61 32.3232 77.9791 32.3719 78.3594 32.3719C78.6677 32.3719 78.9684 32.3397 79.2589 32.2789V32.767C79.2589 33.3186 78.8101 33.7675 78.2584 33.7675ZM100.267 20.4985V18.4533C100.827 18.4582 101.281 18.9149 101.281 19.476C101.281 20.0371 100.827 20.4936 100.267 20.4985ZM101.266 14.2024L100.855 17.1237C100.666 17.0759 100.469 17.0502 100.267 17.0494V16.9926C100.267 15.8611 99.9167 14.7728 99.2829 13.8633C99.5592 12.799 99.5495 11.7033 99.2634 10.6618C100.619 11.2404 101.48 12.6793 101.266 14.2024ZM89.0996 20.8836V16.8545C89.0996 15.3168 90.3506 14.0659 91.8882 14.0659H95.6986C95.859 14.0659 96.0147 14.0109 96.1395 13.9101L96.8163 13.3634L97.445 13.9038C98.3462 14.6784 98.863 15.8043 98.863 16.9926V20.8835C98.863 23.5754 96.6731 25.7653 93.9813 25.7653C91.2895 25.7653 89.0996 23.5754 89.0996 20.8836ZM93.9814 27.169C94.7847 27.169 95.5524 27.0159 96.2593 26.74V27.6393L93.9814 28.7562L91.7035 27.6393V26.74C92.4103 27.0158 93.1781 27.169 93.9814 27.169ZM91.1682 31.698L89.6564 29.6767L90.7603 28.74L93.2795 29.9752V31.0555L91.1682 31.698ZM96.7945 31.698L94.6832 31.0556V29.9752L97.2024 28.7401L98.3063 29.6768L96.7945 31.698ZM103.707 28.7443C103.072 27.9205 102.939 26.859 103.353 25.9045L104.408 23.4714C104.537 23.1742 104.626 22.8608 104.672 22.5399C105.041 19.9802 107.269 18.0498 109.855 18.0498C112.441 18.0498 114.669 19.9802 115.037 22.5399C115.083 22.8607 115.172 23.1741 115.301 23.4714L116.356 25.9045C116.77 26.8589 116.638 27.9205 116.002 28.7443C115.532 29.3542 114.865 29.7297 114.133 29.8198C114.285 29.4272 114.383 29.0086 114.419 28.5724C114.451 28.1861 114.164 27.847 113.778 27.815C113.392 27.7837 113.053 28.0703 113.02 28.4565C112.885 30.089 111.495 31.3679 109.855 31.3679C108.102 31.3679 106.677 29.9424 106.677 28.19V24.8234C106.677 24.0768 106.897 23.3426 107.301 22.7194C108.209 23.4126 109.329 23.8091 110.472 23.8393L113.033 23.9069V25.5235C113.033 25.9111 113.347 26.2253 113.734 26.2253C114.122 26.2253 114.436 25.9111 114.436 25.5235V23.7168C114.436 23.0568 113.919 22.5261 113.259 22.5088L110.509 22.4364C109.619 22.4128 108.748 22.0903 108.057 21.5283L107.876 21.3808C107.662 21.2068 107.393 21.1271 107.119 21.1566C106.845 21.1859 106.599 21.3206 106.427 21.5357C105.683 22.4653 105.273 23.6329 105.273 24.8236V28.1903C105.273 28.7637 105.38 29.3123 105.573 29.8185C104.842 29.7277 104.177 29.3535 103.707 28.7443ZM109.79 34.1387C109.312 34.1387 108.923 33.7498 108.923 33.2717V32.6761C109.224 32.7385 109.535 32.7716 109.855 32.7716C110.128 32.7716 110.396 32.746 110.657 32.6988V33.2718C110.657 33.7498 110.268 34.1387 109.79 34.1387Z" fill="black"/>
<path d="M71.5042 35.5553C71.1554 35.3861 70.7357 35.5322 70.5667 35.8811C70.1907 36.6578 70 37.4886 70 38.3503V40.5875C70 40.9752 70.3142 41.2893 70.7018 41.2893C71.0894 41.2893 71.4036 40.9752 71.4036 40.5875V38.3503C71.4036 37.7022 71.5471 37.0773 71.8301 36.4928C71.999 36.1439 71.8531 35.7242 71.5042 35.5553Z" fill="black"/>
<path d="M10.2578 74V62.5781H12.125V74H10.2578ZM22.5547 74H20.7109V68.6875C20.7109 68.0208 20.5755 67.5234 20.3047 67.1953C20.0391 66.8672 19.6146 66.7031 19.0312 66.7031C18.2552 66.7031 17.6875 66.9323 17.3281 67.3906C16.9688 67.849 16.7891 68.6172 16.7891 69.6953V74H14.9531V65.3594H16.3906L16.6484 66.4922H16.7422C17.0026 66.0807 17.3724 65.763 17.8516 65.5391C18.3307 65.3151 18.862 65.2031 19.4453 65.2031C21.5182 65.2031 22.5547 66.2578 22.5547 68.3672V74ZM28.3281 72.6719C28.776 72.6719 29.224 72.6016 29.6719 72.4609V73.8438C29.4688 73.9323 29.2057 74.0052 28.8828 74.0625C28.5651 74.125 28.2344 74.1562 27.8906 74.1562C26.151 74.1562 25.2812 73.2396 25.2812 71.4062V66.75H24.1016V65.9375L25.3672 65.2656L25.9922 63.4375H27.125V65.3594H29.5859V66.75H27.125V71.375C27.125 71.8177 27.2344 72.1458 27.4531 72.3594C27.6771 72.5677 27.9688 72.6719 28.3281 72.6719ZM35.7891 65.2031C36.1589 65.2031 36.4635 65.2292 36.7031 65.2812L36.5234 66.9922C36.263 66.9297 35.9922 66.8984 35.7109 66.8984C34.9766 66.8984 34.3802 67.138 33.9219 67.6172C33.4688 68.0964 33.2422 68.7188 33.2422 69.4844V74H31.4062V65.3594H32.8438L33.0859 66.8828H33.1797C33.4661 66.3672 33.8385 65.9583 34.2969 65.6562C34.7604 65.3542 35.2578 65.2031 35.7891 65.2031ZM45.9766 69.6641C45.9766 71.0755 45.6146 72.1771 44.8906 72.9688C44.1667 73.7604 43.1589 74.1562 41.8672 74.1562C41.0599 74.1562 40.3464 73.974 39.7266 73.6094C39.1068 73.2448 38.6302 72.7214 38.2969 72.0391C37.9635 71.3568 37.7969 70.5651 37.7969 69.6641C37.7969 68.263 38.1562 67.1693 38.875 66.3828C39.5938 65.5964 40.6068 65.2031 41.9141 65.2031C43.1641 65.2031 44.1536 65.6068 44.8828 66.4141C45.612 67.2161 45.9766 68.2995 45.9766 69.6641ZM39.6875 69.6641C39.6875 71.6589 40.4245 72.6562 41.8984 72.6562C43.3568 72.6562 44.0859 71.6589 44.0859 69.6641C44.0859 67.6901 43.3516 66.7031 41.8828 66.7031C41.112 66.7031 40.5521 66.9583 40.2031 67.4688C39.8594 67.9792 39.6875 68.7109 39.6875 69.6641ZM51.0078 74.1562C49.9297 74.1562 49.0885 73.7656 48.4844 72.9844C47.8802 72.2031 47.5781 71.1068 47.5781 69.6953C47.5781 68.2786 47.8828 67.1771 48.4922 66.3906C49.1068 65.599 49.9557 65.2031 51.0391 65.2031C52.1745 65.2031 53.0391 65.6224 53.6328 66.4609H53.7266C53.638 65.8411 53.5938 65.3516 53.5938 64.9922V61.8438H55.4375V74H54L53.6797 72.8672H53.5938C53.0052 73.7266 52.1432 74.1562 51.0078 74.1562ZM51.5 72.6719C52.2552 72.6719 52.8047 72.4609 53.1484 72.0391C53.4922 71.612 53.6693 70.9219 53.6797 69.9688V69.7109C53.6797 68.6224 53.5026 67.849 53.1484 67.3906C52.7943 66.9323 52.2396 66.7031 51.4844 66.7031C50.8385 66.7031 50.3411 66.9661 49.9922 67.4922C49.6432 68.013 49.4688 68.7578 49.4688 69.7266C49.4688 70.6849 49.638 71.4167 49.9766 71.9219C50.3151 72.4219 50.8229 72.6719 51.5 72.6719ZM64.1562 74L63.8984 72.8672H63.8047C63.5495 73.2682 63.1849 73.5833 62.7109 73.8125C62.2422 74.0417 61.7057 74.1562 61.1016 74.1562C60.0547 74.1562 59.2734 73.8958 58.7578 73.375C58.2422 72.8542 57.9844 72.0651 57.9844 71.0078V65.3594H59.8359V70.6875C59.8359 71.349 59.9714 71.8464 60.2422 72.1797C60.513 72.5078 60.9375 72.6719 61.5156 72.6719C62.2865 72.6719 62.8516 72.4427 63.2109 71.9844C63.5755 71.5208 63.7578 70.7474 63.7578 69.6641V65.3594H65.6016V74H64.1562ZM71.7031 74.1562C70.3958 74.1562 69.401 73.776 68.7188 73.0156C68.0417 72.25 67.7031 71.1536 67.7031 69.7266C67.7031 68.2734 68.0573 67.1562 68.7656 66.375C69.4792 65.5938 70.5078 65.2031 71.8516 65.2031C72.763 65.2031 73.5833 65.3724 74.3125 65.7109L73.7578 67.1875C72.9818 66.8854 72.3411 66.7344 71.8359 66.7344C70.3411 66.7344 69.5938 67.7266 69.5938 69.7109C69.5938 70.6797 69.7786 71.4089 70.1484 71.8984C70.5234 72.3828 71.0703 72.625 71.7891 72.625C72.6068 72.625 73.3802 72.4219 74.1094 72.0156V73.6172C73.7812 73.8099 73.4297 73.9479 73.0547 74.0312C72.6849 74.1146 72.2344 74.1562 71.7031 74.1562ZM79.9141 74.1562C78.5703 74.1562 77.5182 73.7656 76.7578 72.9844C76.0026 72.1979 75.625 71.1172 75.625 69.7422C75.625 68.3307 75.9766 67.2214 76.6797 66.4141C77.3828 65.6068 78.349 65.2031 79.5781 65.2031C80.7188 65.2031 81.6198 65.5495 82.2812 66.2422C82.9427 66.9349 83.2734 67.888 83.2734 69.1016V70.0938H77.5156C77.5417 70.9323 77.7682 71.5781 78.1953 72.0312C78.6224 72.4792 79.224 72.7031 80 72.7031C80.5104 72.7031 80.9844 72.6562 81.4219 72.5625C81.8646 72.4635 82.3385 72.3021 82.8438 72.0781V73.5703C82.3958 73.7839 81.9427 73.9349 81.4844 74.0234C81.026 74.112 80.5026 74.1562 79.9141 74.1562ZM79.5781 66.5938C78.9948 66.5938 78.526 66.7786 78.1719 67.1484C77.8229 67.5182 77.6146 68.0573 77.5469 68.7656H81.4688C81.4583 68.0521 81.2865 67.513 80.9531 67.1484C80.6198 66.7786 80.1615 66.5938 79.5781 66.5938ZM92.7344 72.6719C93.1823 72.6719 93.6302 72.6016 94.0781 72.4609V73.8438C93.875 73.9323 93.612 74.0052 93.2891 74.0625C92.9714 74.125 92.6406 74.1562 92.2969 74.1562C90.5573 74.1562 89.6875 73.2396 89.6875 71.4062V66.75H88.5078V65.9375L89.7734 65.2656L90.3984 63.4375H91.5312V65.3594H93.9922V66.75H91.5312V71.375C91.5312 71.8177 91.6406 72.1458 91.8594 72.3594C92.0833 72.5677 92.375 72.6719 92.7344 72.6719ZM103.414 74H101.57V68.6875C101.57 68.0208 101.435 67.5234 101.164 67.1953C100.898 66.8672 100.474 66.7031 99.8906 66.7031C99.1198 66.7031 98.5521 66.9349 98.1875 67.3984C97.8281 67.8568 97.6484 68.6276 97.6484 69.7109V74H95.8125V61.8438H97.6484V64.9297C97.6484 65.4245 97.6172 65.9531 97.5547 66.5156H97.6719C97.9219 66.099 98.2682 65.776 98.7109 65.5469C99.1589 65.3177 99.6797 65.2031 100.273 65.2031C102.367 65.2031 103.414 66.2578 103.414 68.3672V74ZM109.742 74.1562C108.398 74.1562 107.346 73.7656 106.586 72.9844C105.831 72.1979 105.453 71.1172 105.453 69.7422C105.453 68.3307 105.805 67.2214 106.508 66.4141C107.211 65.6068 108.177 65.2031 109.406 65.2031C110.547 65.2031 111.448 65.5495 112.109 66.2422C112.771 66.9349 113.102 67.888 113.102 69.1016V70.0938H107.344C107.37 70.9323 107.596 71.5781 108.023 72.0312C108.451 72.4792 109.052 72.7031 109.828 72.7031C110.339 72.7031 110.812 72.6562 111.25 72.5625C111.693 72.4635 112.167 72.3021 112.672 72.0781V73.5703C112.224 73.7839 111.771 73.9349 111.312 74.0234C110.854 74.112 110.331 74.1562 109.742 74.1562ZM109.406 66.5938C108.823 66.5938 108.354 66.7786 108 67.1484C107.651 67.5182 107.443 68.0573 107.375 68.7656H111.297C111.286 68.0521 111.115 67.513 110.781 67.1484C110.448 66.7786 109.99 66.5938 109.406 66.5938ZM123.117 74.1562C121.773 74.1562 120.721 73.7656 119.961 72.9844C119.206 72.1979 118.828 71.1172 118.828 69.7422C118.828 68.3307 119.18 67.2214 119.883 66.4141C120.586 65.6068 121.552 65.2031 122.781 65.2031C123.922 65.2031 124.823 65.5495 125.484 66.2422C126.146 66.9349 126.477 67.888 126.477 69.1016V70.0938H120.719C120.745 70.9323 120.971 71.5781 121.398 72.0312C121.826 72.4792 122.427 72.7031 123.203 72.7031C123.714 72.7031 124.188 72.6562 124.625 72.5625C125.068 72.4635 125.542 72.3021 126.047 72.0781V73.5703C125.599 73.7839 125.146 73.9349 124.688 74.0234C124.229 74.112 123.706 74.1562 123.117 74.1562ZM122.781 66.5938C122.198 66.5938 121.729 66.7786 121.375 67.1484C121.026 67.5182 120.818 68.0573 120.75 68.7656H124.672C124.661 68.0521 124.49 67.513 124.156 67.1484C123.823 66.7786 123.365 66.5938 122.781 66.5938ZM130.484 69.5859L127.586 65.3594H129.68L131.648 68.3828L133.633 65.3594H135.711L132.805 69.5859L135.859 74H133.781L131.648 70.7656L129.523 74H127.445L130.484 69.5859ZM141.758 74.1562C140.664 74.1562 139.815 73.763 139.211 72.9766H139.102C139.174 73.7057 139.211 74.1484 139.211 74.3047V77.8438H137.375V65.3594H138.859C138.901 65.5208 138.987 65.9062 139.117 66.5156H139.211C139.784 65.6406 140.643 65.2031 141.789 65.2031C142.867 65.2031 143.706 65.5938 144.305 66.375C144.909 67.1562 145.211 68.2526 145.211 69.6641C145.211 71.0755 144.904 72.1771 144.289 72.9688C143.68 73.7604 142.836 74.1562 141.758 74.1562ZM141.312 66.7031C140.583 66.7031 140.049 66.9167 139.711 67.3438C139.378 67.7708 139.211 68.4531 139.211 69.3906V69.6641C139.211 70.7161 139.378 71.4792 139.711 71.9531C140.044 72.4219 140.589 72.6562 141.344 72.6562C141.979 72.6562 142.469 72.3958 142.812 71.875C143.156 71.3542 143.328 70.612 143.328 69.6484C143.328 68.6797 143.156 67.9479 142.812 67.4531C142.474 66.9531 141.974 66.7031 141.312 66.7031ZM151.117 74.1562C149.773 74.1562 148.721 73.7656 147.961 72.9844C147.206 72.1979 146.828 71.1172 146.828 69.7422C146.828 68.3307 147.18 67.2214 147.883 66.4141C148.586 65.6068 149.552 65.2031 150.781 65.2031C151.922 65.2031 152.823 65.5495 153.484 66.2422C154.146 66.9349 154.477 67.888 154.477 69.1016V70.0938H148.719C148.745 70.9323 148.971 71.5781 149.398 72.0312C149.826 72.4792 150.427 72.7031 151.203 72.7031C151.714 72.7031 152.188 72.6562 152.625 72.5625C153.068 72.4635 153.542 72.3021 154.047 72.0781V73.5703C153.599 73.7839 153.146 73.9349 152.688 74.0234C152.229 74.112 151.706 74.1562 151.117 74.1562ZM150.781 66.5938C150.198 66.5938 149.729 66.7786 149.375 67.1484C149.026 67.5182 148.818 68.0573 148.75 68.7656H152.672C152.661 68.0521 152.49 67.513 152.156 67.1484C151.823 66.7786 151.365 66.5938 150.781 66.5938ZM160.945 65.2031C161.315 65.2031 161.62 65.2292 161.859 65.2812L161.68 66.9922C161.419 66.9297 161.148 66.8984 160.867 66.8984C160.133 66.8984 159.536 67.138 159.078 67.6172C158.625 68.0964 158.398 68.7188 158.398 69.4844V74H156.562V65.3594H158L158.242 66.8828H158.336C158.622 66.3672 158.995 65.9583 159.453 65.6562C159.917 65.3542 160.414 65.2031 160.945 65.2031ZM166.688 72.6719C167.135 72.6719 167.583 72.6016 168.031 72.4609V73.8438C167.828 73.9323 167.565 74.0052 167.242 74.0625C166.924 74.125 166.594 74.1562 166.25 74.1562C164.51 74.1562 163.641 73.2396 163.641 71.4062V66.75H162.461V65.9375L163.727 65.2656L164.352 63.4375H165.484V65.3594H167.945V66.75H165.484V71.375C165.484 71.8177 165.594 72.1458 165.812 72.3594C166.036 72.5677 166.328 72.6719 166.688 72.6719ZM175.57 71.5391C175.57 72.3828 175.263 73.0312 174.648 73.4844C174.034 73.9323 173.154 74.1562 172.008 74.1562C170.857 74.1562 169.932 73.9818 169.234 73.6328V72.0469C170.25 72.5156 171.195 72.75 172.07 72.75C173.201 72.75 173.766 72.4089 173.766 71.7266C173.766 71.5078 173.703 71.3255 173.578 71.1797C173.453 71.0339 173.247 70.8828 172.961 70.7266C172.674 70.5703 172.276 70.3932 171.766 70.1953C170.771 69.8099 170.096 69.4245 169.742 69.0391C169.393 68.6536 169.219 68.1536 169.219 67.5391C169.219 66.7995 169.516 66.2266 170.109 65.8203C170.708 65.4089 171.521 65.2031 172.547 65.2031C173.562 65.2031 174.523 65.4089 175.43 65.8203L174.836 67.2031C173.904 66.8177 173.12 66.625 172.484 66.625C171.516 66.625 171.031 66.901 171.031 67.4531C171.031 67.724 171.156 67.9531 171.406 68.1406C171.661 68.3281 172.214 68.5859 173.062 68.9141C173.776 69.1901 174.294 69.4427 174.617 69.6719C174.94 69.901 175.18 70.1667 175.336 70.4688C175.492 70.7656 175.57 71.1224 175.57 71.5391ZM17.6328 94L17.2656 92.7969H17.2031C16.7865 93.3229 16.3672 93.6823 15.9453 93.875C15.5234 94.0625 14.9818 94.1562 14.3203 94.1562C13.4714 94.1562 12.8073 93.9271 12.3281 93.4688C11.8542 93.0104 11.6172 92.362 11.6172 91.5234C11.6172 90.6328 11.9479 89.9609 12.6094 89.5078C13.2708 89.0547 14.2786 88.8073 15.6328 88.7656L17.125 88.7188V88.2578C17.125 87.7057 16.9948 87.2943 16.7344 87.0234C16.4792 86.7474 16.0807 86.6094 15.5391 86.6094C15.0964 86.6094 14.6719 86.6745 14.2656 86.8047C13.8594 86.9349 13.4688 87.0885 13.0938 87.2656L12.5 85.9531C12.9688 85.7083 13.4818 85.5234 14.0391 85.3984C14.5964 85.2682 15.1224 85.2031 15.6172 85.2031C16.7161 85.2031 17.5443 85.4427 18.1016 85.9219C18.6641 86.401 18.9453 87.1536 18.9453 88.1797V94H17.6328ZM14.8984 92.75C15.5651 92.75 16.099 92.5651 16.5 92.1953C16.9062 91.8203 17.1094 91.2969 17.1094 90.625V89.875L16 89.9219C15.1354 89.9531 14.5052 90.099 14.1094 90.3594C13.7188 90.6146 13.5234 91.0078 13.5234 91.5391C13.5234 91.9245 13.638 92.224 13.8672 92.4375C14.0964 92.6458 14.4401 92.75 14.8984 92.75ZM29.1094 94H27.2656V88.6875C27.2656 88.0208 27.1302 87.5234 26.8594 87.1953C26.5938 86.8672 26.1693 86.7031 25.5859 86.7031C24.8099 86.7031 24.2422 86.9323 23.8828 87.3906C23.5234 87.849 23.3438 88.6172 23.3438 89.6953V94H21.5078V85.3594H22.9453L23.2031 86.4922H23.2969C23.5573 86.0807 23.9271 85.763 24.4062 85.5391C24.8854 85.3151 25.4167 85.2031 26 85.2031C28.0729 85.2031 29.1094 86.2578 29.1094 88.3672V94ZM34.5781 94.1562C33.5 94.1562 32.6589 93.7656 32.0547 92.9844C31.4505 92.2031 31.1484 91.1068 31.1484 89.6953C31.1484 88.2786 31.4531 87.1771 32.0625 86.3906C32.6771 85.599 33.526 85.2031 34.6094 85.2031C35.7448 85.2031 36.6094 85.6224 37.2031 86.4609H37.2969C37.2083 85.8411 37.1641 85.3516 37.1641 84.9922V81.8438H39.0078V94H37.5703L37.25 92.8672H37.1641C36.5755 93.7266 35.7135 94.1562 34.5781 94.1562ZM35.0703 92.6719C35.8255 92.6719 36.375 92.4609 36.7188 92.0391C37.0625 91.612 37.2396 90.9219 37.25 89.9688V89.7109C37.25 88.6224 37.0729 87.849 36.7188 87.3906C36.3646 86.9323 35.8099 86.7031 35.0547 86.7031C34.4089 86.7031 33.9115 86.9661 33.5625 87.4922C33.2135 88.013 33.0391 88.7578 33.0391 89.7266C33.0391 90.6849 33.2083 91.4167 33.5469 91.9219C33.8854 92.4219 34.3932 92.6719 35.0703 92.6719ZM53.0703 94H51.2266V88.6719C51.2266 88.0104 51.1016 87.5182 50.8516 87.1953C50.6016 86.8672 50.2109 86.7031 49.6797 86.7031C48.9714 86.7031 48.4505 86.9349 48.1172 87.3984C47.7891 87.8568 47.625 88.6224 47.625 89.6953V94H45.7891V85.3594H47.2266L47.4844 86.4922H47.5781C47.8177 86.0807 48.1641 85.763 48.6172 85.5391C49.0755 85.3151 49.5781 85.2031 50.125 85.2031C51.4531 85.2031 52.3333 85.6562 52.7656 86.5625H52.8906C53.1458 86.1354 53.5052 85.8021 53.9688 85.5625C54.4323 85.3229 54.9635 85.2031 55.5625 85.2031C56.5938 85.2031 57.3438 85.4635 57.8125 85.9844C58.2865 86.5052 58.5234 87.2995 58.5234 88.3672V94H56.6875V88.6719C56.6875 88.0104 56.5599 87.5182 56.3047 87.1953C56.0547 86.8672 55.6641 86.7031 55.1328 86.7031C54.4193 86.7031 53.8958 86.9271 53.5625 87.375C53.2344 87.8177 53.0703 88.5 53.0703 89.4219V94ZM66.4922 94L66.125 92.7969H66.0625C65.6458 93.3229 65.2266 93.6823 64.8047 93.875C64.3828 94.0625 63.8411 94.1562 63.1797 94.1562C62.3307 94.1562 61.6667 93.9271 61.1875 93.4688C60.7135 93.0104 60.4766 92.362 60.4766 91.5234C60.4766 90.6328 60.8073 89.9609 61.4688 89.5078C62.1302 89.0547 63.138 88.8073 64.4922 88.7656L65.9844 88.7188V88.2578C65.9844 87.7057 65.8542 87.2943 65.5938 87.0234C65.3385 86.7474 64.9401 86.6094 64.3984 86.6094C63.9557 86.6094 63.5312 86.6745 63.125 86.8047C62.7188 86.9349 62.3281 87.0885 61.9531 87.2656L61.3594 85.9531C61.8281 85.7083 62.3411 85.5234 62.8984 85.3984C63.4557 85.2682 63.9818 85.2031 64.4766 85.2031C65.5755 85.2031 66.4036 85.4427 66.9609 85.9219C67.5234 86.401 67.8047 87.1536 67.8047 88.1797V94H66.4922ZM63.7578 92.75C64.4245 92.75 64.9583 92.5651 65.3594 92.1953C65.7656 91.8203 65.9688 91.2969 65.9688 90.625V89.875L64.8594 89.9219C63.9948 89.9531 63.3646 90.099 62.9688 90.3594C62.5781 90.6146 62.3828 91.0078 62.3828 91.5391C62.3828 91.9245 62.4974 92.224 62.7266 92.4375C62.9557 92.6458 63.2995 92.75 63.7578 92.75ZM72.1406 89.4375L73.1797 88.1406L75.7891 85.3594H77.9062L74.4297 89.0703L78.125 94H75.9688L73.1953 90.2109L72.1875 91.0391V94H70.3672V81.8438H72.1875V87.7734L72.0938 89.4375H72.1406ZM83.2969 94.1562C81.9531 94.1562 80.901 93.7656 80.1406 92.9844C79.3854 92.1979 79.0078 91.1172 79.0078 89.7422C79.0078 88.3307 79.3594 87.2214 80.0625 86.4141C80.7656 85.6068 81.7318 85.2031 82.9609 85.2031C84.1016 85.2031 85.0026 85.5495 85.6641 86.2422C86.3255 86.9349 86.6562 87.888 86.6562 89.1016V90.0938H80.8984C80.9245 90.9323 81.151 91.5781 81.5781 92.0312C82.0052 92.4792 82.6068 92.7031 83.3828 92.7031C83.8932 92.7031 84.3672 92.6562 84.8047 92.5625C85.2474 92.4635 85.7214 92.3021 86.2266 92.0781V93.5703C85.7786 93.7839 85.3255 93.9349 84.8672 94.0234C84.4089 94.112 83.8854 94.1562 83.2969 94.1562ZM82.9609 86.5938C82.3776 86.5938 81.9089 86.7786 81.5547 87.1484C81.2057 87.5182 80.9974 88.0573 80.9297 88.7656H84.8516C84.8411 88.0521 84.6693 87.513 84.3359 87.1484C84.0026 86.7786 83.5443 86.5938 82.9609 86.5938ZM94.7344 94H92.8984V85.3594H94.7344V94ZM92.7891 83.0703C92.7891 82.7422 92.8776 82.4896 93.0547 82.3125C93.237 82.1354 93.4948 82.0469 93.8281 82.0469C94.151 82.0469 94.401 82.1354 94.5781 82.3125C94.7604 82.4896 94.8516 82.7422 94.8516 83.0703C94.8516 83.3828 94.7604 83.6302 94.5781 83.8125C94.401 83.9896 94.151 84.0781 93.8281 84.0781C93.4948 84.0781 93.237 83.9896 93.0547 83.8125C92.8776 83.6302 92.7891 83.3828 92.7891 83.0703ZM100.586 92.6719C101.034 92.6719 101.482 92.6016 101.93 92.4609V93.8438C101.727 93.9323 101.464 94.0052 101.141 94.0625C100.823 94.125 100.492 94.1562 100.148 94.1562C98.4089 94.1562 97.5391 93.2396 97.5391 91.4062V86.75H96.3594V85.9375L97.625 85.2656L98.25 83.4375H99.3828V85.3594H101.844V86.75H99.3828V91.375C99.3828 91.8177 99.4922 92.1458 99.7109 92.3594C99.9349 92.5677 100.227 92.6719 100.586 92.6719ZM112.203 94.1562C111.109 94.1562 110.26 93.763 109.656 92.9766H109.547C109.62 93.7057 109.656 94.1484 109.656 94.3047V97.8438H107.82V85.3594H109.305C109.346 85.5208 109.432 85.9062 109.562 86.5156H109.656C110.229 85.6406 111.089 85.2031 112.234 85.2031C113.312 85.2031 114.151 85.5938 114.75 86.375C115.354 87.1562 115.656 88.2526 115.656 89.6641C115.656 91.0755 115.349 92.1771 114.734 92.9688C114.125 93.7604 113.281 94.1562 112.203 94.1562ZM111.758 86.7031C111.029 86.7031 110.495 86.9167 110.156 87.3438C109.823 87.7708 109.656 88.4531 109.656 89.3906V89.6641C109.656 90.7161 109.823 91.4792 110.156 91.9531C110.49 92.4219 111.034 92.6562 111.789 92.6562C112.424 92.6562 112.914 92.3958 113.258 91.875C113.602 91.3542 113.773 90.612 113.773 89.6484C113.773 88.6797 113.602 87.9479 113.258 87.4531C112.919 86.9531 112.419 86.7031 111.758 86.7031ZM121.562 94.1562C120.219 94.1562 119.167 93.7656 118.406 92.9844C117.651 92.1979 117.273 91.1172 117.273 89.7422C117.273 88.3307 117.625 87.2214 118.328 86.4141C119.031 85.6068 119.997 85.2031 121.227 85.2031C122.367 85.2031 123.268 85.5495 123.93 86.2422C124.591 86.9349 124.922 87.888 124.922 89.1016V90.0938H119.164C119.19 90.9323 119.417 91.5781 119.844 92.0312C120.271 92.4792 120.872 92.7031 121.648 92.7031C122.159 92.7031 122.633 92.6562 123.07 92.5625C123.513 92.4635 123.987 92.3021 124.492 92.0781V93.5703C124.044 93.7839 123.591 93.9349 123.133 94.0234C122.674 94.112 122.151 94.1562 121.562 94.1562ZM121.227 86.5938C120.643 86.5938 120.174 86.7786 119.82 87.1484C119.471 87.5182 119.263 88.0573 119.195 88.7656H123.117C123.107 88.0521 122.935 87.513 122.602 87.1484C122.268 86.7786 121.81 86.5938 121.227 86.5938ZM131.391 85.2031C131.76 85.2031 132.065 85.2292 132.305 85.2812L132.125 86.9922C131.865 86.9297 131.594 86.8984 131.312 86.8984C130.578 86.8984 129.982 87.138 129.523 87.6172C129.07 88.0964 128.844 88.7188 128.844 89.4844V94H127.008V85.3594H128.445L128.688 86.8828H128.781C129.068 86.3672 129.44 85.9583 129.898 85.6562C130.362 85.3542 130.859 85.2031 131.391 85.2031ZM139.719 91.5391C139.719 92.3828 139.411 93.0312 138.797 93.4844C138.182 93.9323 137.302 94.1562 136.156 94.1562C135.005 94.1562 134.081 93.9818 133.383 93.6328V92.0469C134.398 92.5156 135.344 92.75 136.219 92.75C137.349 92.75 137.914 92.4089 137.914 91.7266C137.914 91.5078 137.852 91.3255 137.727 91.1797C137.602 91.0339 137.396 90.8828 137.109 90.7266C136.823 90.5703 136.424 90.3932 135.914 90.1953C134.919 89.8099 134.245 89.4245 133.891 89.0391C133.542 88.6536 133.367 88.1536 133.367 87.5391C133.367 86.7995 133.664 86.2266 134.258 85.8203C134.857 85.4089 135.669 85.2031 136.695 85.2031C137.711 85.2031 138.672 85.4089 139.578 85.8203L138.984 87.2031C138.052 86.8177 137.268 86.625 136.633 86.625C135.664 86.625 135.18 86.901 135.18 87.4531C135.18 87.724 135.305 87.9531 135.555 88.1406C135.81 88.3281 136.362 88.5859 137.211 88.9141C137.924 89.1901 138.443 89.4427 138.766 89.6719C139.089 89.901 139.328 90.1667 139.484 90.4688C139.641 90.7656 139.719 91.1224 139.719 91.5391ZM149.375 89.6641C149.375 91.0755 149.013 92.1771 148.289 92.9688C147.565 93.7604 146.557 94.1562 145.266 94.1562C144.458 94.1562 143.745 93.974 143.125 93.6094C142.505 93.2448 142.029 92.7214 141.695 92.0391C141.362 91.3568 141.195 90.5651 141.195 89.6641C141.195 88.263 141.555 87.1693 142.273 86.3828C142.992 85.5964 144.005 85.2031 145.312 85.2031C146.562 85.2031 147.552 85.6068 148.281 86.4141C149.01 87.2161 149.375 88.2995 149.375 89.6641ZM143.086 89.6641C143.086 91.6589 143.823 92.6562 145.297 92.6562C146.755 92.6562 147.484 91.6589 147.484 89.6641C147.484 87.6901 146.75 86.7031 145.281 86.7031C144.51 86.7031 143.951 86.9583 143.602 87.4688C143.258 87.9792 143.086 88.7109 143.086 89.6641ZM159.094 94H157.25V88.6875C157.25 88.0208 157.115 87.5234 156.844 87.1953C156.578 86.8672 156.154 86.7031 155.57 86.7031C154.794 86.7031 154.227 86.9323 153.867 87.3906C153.508 87.849 153.328 88.6172 153.328 89.6953V94H151.492V85.3594H152.93L153.188 86.4922H153.281C153.542 86.0807 153.911 85.763 154.391 85.5391C154.87 85.3151 155.401 85.2031 155.984 85.2031C158.057 85.2031 159.094 86.2578 159.094 88.3672V94ZM167.055 94L166.688 92.7969H166.625C166.208 93.3229 165.789 93.6823 165.367 93.875C164.945 94.0625 164.404 94.1562 163.742 94.1562C162.893 94.1562 162.229 93.9271 161.75 93.4688C161.276 93.0104 161.039 92.362 161.039 91.5234C161.039 90.6328 161.37 89.9609 162.031 89.5078C162.693 89.0547 163.701 88.8073 165.055 88.7656L166.547 88.7188V88.2578C166.547 87.7057 166.417 87.2943 166.156 87.0234C165.901 86.7474 165.503 86.6094 164.961 86.6094C164.518 86.6094 164.094 86.6745 163.688 86.8047C163.281 86.9349 162.891 87.0885 162.516 87.2656L161.922 85.9531C162.391 85.7083 162.904 85.5234 163.461 85.3984C164.018 85.2682 164.544 85.2031 165.039 85.2031C166.138 85.2031 166.966 85.4427 167.523 85.9219C168.086 86.401 168.367 87.1536 168.367 88.1797V94H167.055ZM164.32 92.75C164.987 92.75 165.521 92.5651 165.922 92.1953C166.328 91.8203 166.531 91.2969 166.531 90.625V89.875L165.422 89.9219C164.557 89.9531 163.927 90.099 163.531 90.3594C163.141 90.6146 162.945 91.0078 162.945 91.5391C162.945 91.9245 163.06 92.224 163.289 92.4375C163.518 92.6458 163.862 92.75 164.32 92.75ZM172.766 94H170.93V81.8438H172.766V94Z" fill="black"/>
<path d="M13.3398 127.569V132.382C13.3398 133.129 13.4971 133.674 13.8115 134.016C14.126 134.353 14.6136 134.521 15.2744 134.521C16.1585 134.521 16.8079 134.298 17.2227 133.852C17.6419 133.405 17.8516 132.678 17.8516 131.671V127.569H18.5215V135H17.9473L17.8242 133.975H17.7832C17.3001 134.749 16.4411 135.137 15.2061 135.137C13.5153 135.137 12.6699 134.232 12.6699 132.423V127.569H13.3398ZM25.6172 133.065C25.6172 133.731 25.3643 134.243 24.8584 134.604C24.3525 134.959 23.6348 135.137 22.7051 135.137C21.7116 135.137 20.9232 134.984 20.3398 134.679V133.947C21.0872 134.321 21.8757 134.508 22.7051 134.508C23.4388 134.508 23.9948 134.387 24.373 134.146C24.7559 133.899 24.9473 133.574 24.9473 133.168C24.9473 132.794 24.7946 132.48 24.4893 132.225C24.1885 131.969 23.6917 131.719 22.999 131.473C22.2562 131.204 21.7344 130.974 21.4336 130.782C21.1328 130.586 20.9049 130.368 20.75 130.126C20.5996 129.88 20.5244 129.581 20.5244 129.23C20.5244 128.674 20.7568 128.235 21.2217 127.911C21.6911 127.588 22.3451 127.426 23.1836 127.426C23.9857 127.426 24.7467 127.576 25.4668 127.877L25.2139 128.492C24.4847 128.191 23.8079 128.041 23.1836 128.041C22.5775 128.041 22.0967 128.141 21.7412 128.342C21.3857 128.542 21.208 128.82 21.208 129.176C21.208 129.563 21.3447 129.873 21.6182 130.105C21.8962 130.338 22.4362 130.598 23.2383 130.885C23.9082 131.126 24.3958 131.345 24.7012 131.541C25.0065 131.732 25.2344 131.951 25.3848 132.197C25.5397 132.443 25.6172 132.733 25.6172 133.065ZM30.5322 135.137C29.4521 135.137 28.609 134.804 28.0029 134.139C27.4014 133.473 27.1006 132.541 27.1006 131.343C27.1006 130.158 27.3923 129.21 27.9756 128.499C28.5589 127.784 29.3451 127.426 30.334 127.426C31.209 127.426 31.8994 127.731 32.4053 128.342C32.9111 128.952 33.1641 129.782 33.1641 130.83V131.377H27.8115C27.8206 132.398 28.0576 133.177 28.5225 133.715C28.9919 134.253 29.6618 134.521 30.5322 134.521C30.9561 134.521 31.3275 134.492 31.6465 134.433C31.9701 134.373 32.3779 134.246 32.8701 134.05V134.665C32.4508 134.847 32.0635 134.97 31.708 135.034C31.3525 135.103 30.9606 135.137 30.5322 135.137ZM30.334 128.027C29.6185 128.027 29.0443 128.264 28.6113 128.738C28.1784 129.208 27.9255 129.887 27.8525 130.775H32.4463C32.4463 129.914 32.2594 129.242 31.8857 128.759C31.512 128.271 30.9948 128.027 30.334 128.027ZM38.1406 127.426C38.4551 127.426 38.7923 127.458 39.1523 127.521L39.0225 128.171C38.7126 128.093 38.3913 128.055 38.0586 128.055C37.4251 128.055 36.9056 128.324 36.5 128.861C36.0944 129.399 35.8916 130.078 35.8916 130.898V135H35.2148V127.569H35.7891L35.8574 128.909H35.9053C36.2106 128.362 36.5365 127.979 36.8828 127.761C37.2292 127.537 37.6484 127.426 38.1406 127.426ZM45.2773 133.065C45.2773 133.731 45.0244 134.243 44.5186 134.604C44.0127 134.959 43.2949 135.137 42.3652 135.137C41.3717 135.137 40.5833 134.984 40 134.679V133.947C40.7474 134.321 41.5358 134.508 42.3652 134.508C43.099 134.508 43.6549 134.387 44.0332 134.146C44.416 133.899 44.6074 133.574 44.6074 133.168C44.6074 132.794 44.4548 132.48 44.1494 132.225C43.8486 131.969 43.3519 131.719 42.6592 131.473C41.9163 131.204 41.3945 130.974 41.0938 130.782C40.793 130.586 40.5651 130.368 40.4102 130.126C40.2598 129.88 40.1846 129.581 40.1846 129.23C40.1846 128.674 40.417 128.235 40.8818 127.911C41.3512 127.588 42.0052 127.426 42.8438 127.426C43.6458 127.426 44.4069 127.576 45.127 127.877L44.874 128.492C44.1449 128.191 43.4681 128.041 42.8438 128.041C42.2376 128.041 41.7568 128.141 41.4014 128.342C41.0459 128.542 40.8682 128.82 40.8682 129.176C40.8682 129.563 41.0049 129.873 41.2783 130.105C41.5563 130.338 42.0964 130.598 42.8984 130.885C43.5684 131.126 44.056 131.345 44.3613 131.541C44.6667 131.732 44.8945 131.951 45.0449 132.197C45.1999 132.443 45.2773 132.733 45.2773 133.065ZM56.7686 135L55.1416 130.03C55.0368 129.693 54.9023 129.199 54.7383 128.547H54.6973L54.5537 129.053L54.2461 130.044L52.5918 135H51.9219L49.7959 127.569H50.5205L51.71 131.876C51.988 132.942 52.1702 133.726 52.2568 134.228H52.2979C52.5667 133.161 52.7627 132.452 52.8857 132.102L54.417 127.569H55.0322L56.4883 132.088C56.8164 133.159 57.0169 133.868 57.0898 134.214H57.1309C57.1673 133.918 57.3496 133.125 57.6777 131.835L58.8125 127.569H59.4961L57.4795 135H56.7686ZM65.4707 135L65.2998 133.824H65.2451C64.8714 134.303 64.4863 134.642 64.0898 134.843C63.6979 135.039 63.2331 135.137 62.6953 135.137C61.9661 135.137 61.3988 134.95 60.9932 134.576C60.5876 134.202 60.3848 133.685 60.3848 133.024C60.3848 132.3 60.6855 131.737 61.2871 131.336C61.8932 130.935 62.7682 130.723 63.9121 130.7L65.3271 130.659V130.167C65.3271 129.461 65.1836 128.927 64.8965 128.567C64.6094 128.207 64.1468 128.027 63.5088 128.027C62.8206 128.027 62.1074 128.219 61.3691 128.602L61.1162 128.014C61.932 127.631 62.7386 127.439 63.5361 127.439C64.3519 127.439 64.9603 127.651 65.3613 128.075C65.7669 128.499 65.9697 129.16 65.9697 130.058V135H65.4707ZM62.7363 134.521C63.5293 134.521 64.1536 134.296 64.6094 133.845C65.0697 133.389 65.2998 132.758 65.2998 131.951V131.22L64.001 131.274C62.9574 131.325 62.2122 131.489 61.7656 131.767C61.3236 132.04 61.1025 132.468 61.1025 133.052C61.1025 133.517 61.2438 133.879 61.5264 134.139C61.8135 134.394 62.2168 134.521 62.7363 134.521ZM73.5645 135V130.181C73.5645 129.433 73.4072 128.891 73.0928 128.554C72.7783 128.212 72.2907 128.041 71.6299 128.041C70.7412 128.041 70.0895 128.267 69.6748 128.718C69.2646 129.164 69.0596 129.891 69.0596 130.898V135H68.3828V127.569H68.957L69.0869 128.588H69.1279C69.611 127.813 70.4701 127.426 71.7051 127.426C73.3913 127.426 74.2344 128.33 74.2344 130.14V135H73.5645ZM78.6025 134.535C79.0309 134.535 79.4046 134.499 79.7236 134.426V134.973C79.3955 135.082 79.0173 135.137 78.5889 135.137C77.9326 135.137 77.4473 134.961 77.1328 134.61C76.8229 134.259 76.668 133.708 76.668 132.956V128.157H75.5674V127.761L76.668 127.453L77.0098 125.771H77.3584V127.569H79.5391V128.157H77.3584V132.86C77.3584 133.43 77.4587 133.852 77.6592 134.125C77.8597 134.398 78.1742 134.535 78.6025 134.535ZM86.9287 134.535C87.3571 134.535 87.7308 134.499 88.0498 134.426V134.973C87.7217 135.082 87.3434 135.137 86.915 135.137C86.2588 135.137 85.7734 134.961 85.459 134.61C85.1491 134.259 84.9941 133.708 84.9941 132.956V128.157H83.8936V127.761L84.9941 127.453L85.3359 125.771H85.6846V127.569H87.8652V128.157H85.6846V132.86C85.6846 133.43 85.7848 133.852 85.9854 134.125C86.1859 134.398 86.5003 134.535 86.9287 134.535ZM95.8018 131.274C95.8018 132.487 95.5078 133.435 94.9199 134.118C94.332 134.797 93.5208 135.137 92.4863 135.137C91.8346 135.137 91.2604 134.979 90.7637 134.665C90.2669 134.351 89.8864 133.899 89.6221 133.312C89.3577 132.724 89.2256 132.045 89.2256 131.274C89.2256 130.062 89.5195 129.119 90.1074 128.444C90.6953 127.765 91.502 127.426 92.5273 127.426C93.5482 127.426 94.348 127.77 94.9268 128.458C95.5101 129.142 95.8018 130.08 95.8018 131.274ZM89.9365 131.274C89.9365 132.295 90.1598 133.093 90.6064 133.667C91.0576 134.237 91.6934 134.521 92.5137 134.521C93.334 134.521 93.9674 134.237 94.4141 133.667C94.8652 133.093 95.0908 132.295 95.0908 131.274C95.0908 130.249 94.863 129.454 94.4072 128.889C93.9561 128.324 93.3203 128.041 92.5 128.041C91.6797 128.041 91.0462 128.324 90.5996 128.889C90.1576 129.449 89.9365 130.244 89.9365 131.274ZM107.293 127.569V128.041L105.755 128.137C106.165 128.647 106.37 129.208 106.37 129.818C106.37 130.534 106.131 131.115 105.652 131.562C105.178 132.004 104.54 132.225 103.738 132.225C103.401 132.225 103.164 132.211 103.027 132.184C102.758 132.325 102.553 132.491 102.412 132.683C102.271 132.874 102.2 133.077 102.2 133.291C102.2 133.528 102.289 133.701 102.467 133.811C102.649 133.92 102.952 133.975 103.376 133.975H104.675C105.481 133.975 106.099 134.139 106.527 134.467C106.956 134.79 107.17 135.271 107.17 135.909C107.17 136.693 106.851 137.297 106.213 137.721C105.579 138.149 104.675 138.363 103.499 138.363C102.565 138.363 101.84 138.183 101.325 137.823C100.815 137.463 100.56 136.962 100.56 136.319C100.56 135.809 100.717 135.385 101.031 135.048C101.35 134.711 101.781 134.48 102.323 134.357C102.1 134.262 101.92 134.127 101.783 133.954C101.651 133.776 101.585 133.574 101.585 133.346C101.585 132.849 101.902 132.411 102.535 132.033C102.102 131.855 101.765 131.577 101.523 131.199C101.282 130.816 101.161 130.379 101.161 129.887C101.161 129.144 101.396 128.549 101.865 128.103C102.339 127.651 102.977 127.426 103.779 127.426C104.267 127.426 104.645 127.474 104.914 127.569H107.293ZM101.277 136.258C101.277 137.279 102.036 137.789 103.554 137.789C105.504 137.789 106.479 137.167 106.479 135.923C106.479 135.476 106.327 135.153 106.021 134.952C105.716 134.752 105.222 134.651 104.538 134.651H103.321C101.959 134.651 101.277 135.187 101.277 136.258ZM101.845 129.887C101.845 130.461 102.018 130.908 102.364 131.227C102.715 131.541 103.182 131.698 103.766 131.698C104.385 131.698 104.859 131.541 105.188 131.227C105.52 130.912 105.687 130.456 105.687 129.859C105.687 129.226 105.516 128.752 105.174 128.438C104.837 128.118 104.363 127.959 103.752 127.959C103.16 127.959 102.692 128.13 102.351 128.472C102.013 128.809 101.845 129.281 101.845 129.887ZM111.825 135.137C110.745 135.137 109.902 134.804 109.296 134.139C108.694 133.473 108.394 132.541 108.394 131.343C108.394 130.158 108.685 129.21 109.269 128.499C109.852 127.784 110.638 127.426 111.627 127.426C112.502 127.426 113.192 127.731 113.698 128.342C114.204 128.952 114.457 129.782 114.457 130.83V131.377H109.104C109.114 132.398 109.351 133.177 109.815 133.715C110.285 134.253 110.955 134.521 111.825 134.521C112.249 134.521 112.62 134.492 112.939 134.433C113.263 134.373 113.671 134.246 114.163 134.05V134.665C113.744 134.847 113.356 134.97 113.001 135.034C112.646 135.103 112.254 135.137 111.825 135.137ZM111.627 128.027C110.911 128.027 110.337 128.264 109.904 128.738C109.471 129.208 109.218 129.887 109.146 130.775H113.739C113.739 129.914 113.552 129.242 113.179 128.759C112.805 128.271 112.288 128.027 111.627 128.027ZM118.47 134.535C118.898 134.535 119.272 134.499 119.591 134.426V134.973C119.263 135.082 118.884 135.137 118.456 135.137C117.8 135.137 117.314 134.961 117 134.61C116.69 134.259 116.535 133.708 116.535 132.956V128.157H115.435V127.761L116.535 127.453L116.877 125.771H117.226V127.569H119.406V128.157H117.226V132.86C117.226 133.43 117.326 133.852 117.526 134.125C117.727 134.398 118.041 134.535 118.47 134.535ZM126.796 134.535C127.224 134.535 127.598 134.499 127.917 134.426V134.973C127.589 135.082 127.211 135.137 126.782 135.137C126.126 135.137 125.641 134.961 125.326 134.61C125.016 134.259 124.861 133.708 124.861 132.956V128.157H123.761V127.761L124.861 127.453L125.203 125.771H125.552V127.569H127.732V128.157H125.552V132.86C125.552 133.43 125.652 133.852 125.853 134.125C126.053 134.398 126.368 134.535 126.796 134.535ZM135.669 131.274C135.669 132.487 135.375 133.435 134.787 134.118C134.199 134.797 133.388 135.137 132.354 135.137C131.702 135.137 131.128 134.979 130.631 134.665C130.134 134.351 129.754 133.899 129.489 133.312C129.225 132.724 129.093 132.045 129.093 131.274C129.093 130.062 129.387 129.119 129.975 128.444C130.562 127.765 131.369 127.426 132.395 127.426C133.415 127.426 134.215 127.77 134.794 128.458C135.377 129.142 135.669 130.08 135.669 131.274ZM129.804 131.274C129.804 132.295 130.027 133.093 130.474 133.667C130.925 134.237 131.561 134.521 132.381 134.521C133.201 134.521 133.835 134.237 134.281 133.667C134.732 133.093 134.958 132.295 134.958 131.274C134.958 130.249 134.73 129.454 134.274 128.889C133.823 128.324 133.188 128.041 132.367 128.041C131.547 128.041 130.913 128.324 130.467 128.889C130.025 129.449 129.804 130.244 129.804 131.274ZM142.026 131.739L145.82 127.569H146.641L143.715 130.741L146.894 135H146.08L143.257 131.247L142.04 132.354V135H141.363V124.363H142.04V129.695L141.992 131.739H142.026ZM153.326 135V130.181C153.326 129.433 153.169 128.891 152.854 128.554C152.54 128.212 152.052 128.041 151.392 128.041C150.503 128.041 149.851 128.267 149.437 128.718C149.026 129.164 148.821 129.891 148.821 130.898V135H148.145V127.569H148.719L148.849 128.588H148.89C149.373 127.813 150.232 127.426 151.467 127.426C153.153 127.426 153.996 128.33 153.996 130.14V135H153.326ZM162.548 131.274C162.548 132.487 162.254 133.435 161.666 134.118C161.078 134.797 160.267 135.137 159.232 135.137C158.581 135.137 158.007 134.979 157.51 134.665C157.013 134.351 156.632 133.899 156.368 133.312C156.104 132.724 155.972 132.045 155.972 131.274C155.972 130.062 156.266 129.119 156.854 128.444C157.441 127.765 158.248 127.426 159.273 127.426C160.294 127.426 161.094 127.77 161.673 128.458C162.256 129.142 162.548 130.08 162.548 131.274ZM156.683 131.274C156.683 132.295 156.906 133.093 157.353 133.667C157.804 134.237 158.439 134.521 159.26 134.521C160.08 134.521 160.714 134.237 161.16 133.667C161.611 133.093 161.837 132.295 161.837 131.274C161.837 130.249 161.609 129.454 161.153 128.889C160.702 128.324 160.066 128.041 159.246 128.041C158.426 128.041 157.792 128.324 157.346 128.889C156.904 129.449 156.683 130.244 156.683 131.274ZM170.546 135L168.919 130.03C168.814 129.693 168.68 129.199 168.516 128.547H168.475L168.331 129.053L168.023 130.044L166.369 135H165.699L163.573 127.569H164.298L165.487 131.876C165.765 132.942 165.948 133.726 166.034 134.228H166.075C166.344 133.161 166.54 132.452 166.663 132.102L168.194 127.569H168.81L170.266 132.088C170.594 133.159 170.794 133.868 170.867 134.214H170.908C170.945 133.918 171.127 133.125 171.455 131.835L172.59 127.569H173.273L171.257 135H170.546ZM8.87598 154.535C9.30436 154.535 9.67806 154.499 9.99707 154.426V154.973C9.66895 155.082 9.29069 155.137 8.8623 155.137C8.20605 155.137 7.7207 154.961 7.40625 154.61C7.09635 154.259 6.94141 153.708 6.94141 152.956V148.157H5.84082V147.761L6.94141 147.453L7.2832 145.771H7.63184V147.569H9.8125V148.157H7.63184V152.86C7.63184 153.43 7.7321 153.852 7.93262 154.125C8.13314 154.398 8.44759 154.535 8.87598 154.535ZM16.7852 155V150.181C16.7852 149.433 16.6279 148.891 16.3135 148.554C15.999 148.212 15.5114 148.041 14.8506 148.041C13.9619 148.041 13.3102 148.267 12.8955 148.718C12.4854 149.164 12.2803 149.891 12.2803 150.898V155H11.6035V144.363H12.2803V147.747L12.2461 148.697H12.2939C12.5719 148.251 12.9229 147.927 13.3467 147.727C13.7705 147.526 14.2969 147.426 14.9258 147.426C16.612 147.426 17.4551 148.33 17.4551 150.14V155H16.7852ZM22.8623 155.137C21.7822 155.137 20.9391 154.804 20.333 154.139C19.7314 153.473 19.4307 152.541 19.4307 151.343C19.4307 150.158 19.7223 149.21 20.3057 148.499C20.889 147.784 21.6751 147.426 22.6641 147.426C23.5391 147.426 24.2295 147.731 24.7354 148.342C25.2412 148.952 25.4941 149.782 25.4941 150.83V151.377H20.1416C20.1507 152.398 20.3877 153.177 20.8525 153.715C21.3219 154.253 21.9919 154.521 22.8623 154.521C23.2861 154.521 23.6576 154.492 23.9766 154.433C24.3001 154.373 24.708 154.246 25.2002 154.05V154.665C24.7809 154.847 24.3936 154.97 24.0381 155.034C23.6826 155.103 23.2907 155.137 22.8623 155.137ZM22.6641 148.027C21.9486 148.027 21.3743 148.264 20.9414 148.738C20.5085 149.208 20.2555 149.887 20.1826 150.775H24.7764C24.7764 149.914 24.5895 149.242 24.2158 148.759C23.8421 148.271 23.3249 148.027 22.6641 148.027ZM34.1826 155.137C33.1025 155.137 32.2594 154.804 31.6533 154.139C31.0518 153.473 30.751 152.541 30.751 151.343C30.751 150.158 31.0426 149.21 31.626 148.499C32.2093 147.784 32.9954 147.426 33.9844 147.426C34.8594 147.426 35.5498 147.731 36.0557 148.342C36.5615 148.952 36.8145 149.782 36.8145 150.83V151.377H31.4619C31.471 152.398 31.708 153.177 32.1729 153.715C32.6423 154.253 33.3122 154.521 34.1826 154.521C34.6064 154.521 34.9779 154.492 35.2969 154.433C35.6204 154.373 36.0283 154.246 36.5205 154.05V154.665C36.1012 154.847 35.7139 154.97 35.3584 155.034C35.0029 155.103 34.611 155.137 34.1826 155.137ZM33.9844 148.027C33.2689 148.027 32.6947 148.264 32.2617 148.738C31.8288 149.208 31.5758 149.887 31.5029 150.775H36.0967C36.0967 149.914 35.9098 149.242 35.5361 148.759C35.1624 148.271 34.6452 148.027 33.9844 148.027ZM40.6904 151.179L38.0996 147.569H38.8789L41.0938 150.7L43.2881 147.569H44.0332L41.4834 151.179L44.2178 155H43.4316L41.0938 151.685L38.7422 155H37.9971L40.6904 151.179ZM49.0166 155.137C47.8727 155.137 47.0387 154.708 46.5146 153.852H46.4668L46.4873 154.426C46.5055 154.763 46.5146 155.132 46.5146 155.533V158.363H45.8379V147.569H46.4121L46.542 148.629H46.583C47.0934 147.827 47.9092 147.426 49.0303 147.426C50.0329 147.426 50.7962 147.756 51.3203 148.417C51.849 149.073 52.1133 150.03 52.1133 151.288C52.1133 152.509 51.8353 153.457 51.2793 154.132C50.7279 154.802 49.9736 155.137 49.0166 155.137ZM49.0029 154.535C49.764 154.535 50.3519 154.253 50.7666 153.688C51.1859 153.122 51.3955 152.332 51.3955 151.315C51.3955 149.132 50.6071 148.041 49.0303 148.041C48.1644 148.041 47.5286 148.28 47.123 148.759C46.7174 149.233 46.5146 150.007 46.5146 151.083V151.302C46.5146 152.464 46.7083 153.293 47.0957 153.79C47.4876 154.287 48.1234 154.535 49.0029 154.535ZM57.1787 155.137C56.0986 155.137 55.2555 154.804 54.6494 154.139C54.0479 153.473 53.7471 152.541 53.7471 151.343C53.7471 150.158 54.0387 149.21 54.6221 148.499C55.2054 147.784 55.9915 147.426 56.9805 147.426C57.8555 147.426 58.5459 147.731 59.0518 148.342C59.5576 148.952 59.8105 149.782 59.8105 150.83V151.377H54.458C54.4671 152.398 54.7041 153.177 55.1689 153.715C55.6383 154.253 56.3083 154.521 57.1787 154.521C57.6025 154.521 57.974 154.492 58.293 154.433C58.6165 154.373 59.0244 154.246 59.5166 154.05V154.665C59.0973 154.847 58.71 154.97 58.3545 155.034C57.999 155.103 57.6071 155.137 57.1787 155.137ZM56.9805 148.027C56.265 148.027 55.6908 148.264 55.2578 148.738C54.8249 149.208 54.5719 149.887 54.499 150.775H59.0928C59.0928 149.914 58.9059 149.242 58.5322 148.759C58.1585 148.271 57.6413 148.027 56.9805 148.027ZM64.7871 147.426C65.1016 147.426 65.4388 147.458 65.7988 147.521L65.6689 148.171C65.359 148.093 65.0378 148.055 64.7051 148.055C64.0716 148.055 63.5521 148.324 63.1465 148.861C62.7409 149.399 62.5381 150.078 62.5381 150.898V155H61.8613V147.569H62.4355L62.5039 148.909H62.5518C62.8571 148.362 63.1829 147.979 63.5293 147.761C63.8757 147.537 64.2949 147.426 64.7871 147.426ZM69.2783 154.535C69.7067 154.535 70.0804 154.499 70.3994 154.426V154.973C70.0713 155.082 69.693 155.137 69.2646 155.137C68.6084 155.137 68.123 154.961 67.8086 154.61C67.4987 154.259 67.3438 153.708 67.3438 152.956V148.157H66.2432V147.761L67.3438 147.453L67.6855 145.771H68.0342V147.569H70.2148V148.157H68.0342V152.86C68.0342 153.43 68.1344 153.852 68.335 154.125C68.5355 154.398 68.8499 154.535 69.2783 154.535ZM80.25 153.065C80.25 153.731 79.9971 154.243 79.4912 154.604C78.9854 154.959 78.2676 155.137 77.3379 155.137C76.3444 155.137 75.556 154.984 74.9727 154.679V153.947C75.7201 154.321 76.5085 154.508 77.3379 154.508C78.0716 154.508 78.6276 154.387 79.0059 154.146C79.3887 153.899 79.5801 153.574 79.5801 153.168C79.5801 152.794 79.4274 152.48 79.1221 152.225C78.8213 151.969 78.3245 151.719 77.6318 151.473C76.889 151.204 76.3672 150.974 76.0664 150.782C75.7656 150.586 75.5378 150.368 75.3828 150.126C75.2324 149.88 75.1572 149.581 75.1572 149.23C75.1572 148.674 75.3896 148.235 75.8545 147.911C76.3239 147.588 76.9779 147.426 77.8164 147.426C78.6185 147.426 79.3796 147.576 80.0996 147.877L79.8467 148.492C79.1175 148.191 78.4408 148.041 77.8164 148.041C77.2103 148.041 76.7295 148.141 76.374 148.342C76.0186 148.542 75.8408 148.82 75.8408 149.176C75.8408 149.563 75.9775 149.873 76.251 150.105C76.529 150.338 77.069 150.598 77.8711 150.885C78.541 151.126 79.0286 151.345 79.334 151.541C79.6393 151.732 79.8672 151.951 80.0176 152.197C80.1725 152.443 80.25 152.733 80.25 153.065ZM88.3096 151.274C88.3096 152.487 88.0156 153.435 87.4277 154.118C86.8398 154.797 86.0286 155.137 84.9941 155.137C84.3424 155.137 83.7682 154.979 83.2715 154.665C82.7747 154.351 82.3942 153.899 82.1299 153.312C81.8656 152.724 81.7334 152.045 81.7334 151.274C81.7334 150.062 82.0273 149.119 82.6152 148.444C83.2031 147.765 84.0098 147.426 85.0352 147.426C86.056 147.426 86.8558 147.77 87.4346 148.458C88.0179 149.142 88.3096 150.08 88.3096 151.274ZM82.4443 151.274C82.4443 152.295 82.6676 153.093 83.1143 153.667C83.5654 154.237 84.2012 154.521 85.0215 154.521C85.8418 154.521 86.4753 154.237 86.9219 153.667C87.373 153.093 87.5986 152.295 87.5986 151.274C87.5986 150.249 87.3708 149.454 86.915 148.889C86.4639 148.324 85.8281 148.041 85.0078 148.041C84.1875 148.041 83.554 148.324 83.1074 148.889C82.6654 149.449 82.4443 150.244 82.4443 151.274ZM95.9658 154.535C96.3942 154.535 96.7679 154.499 97.0869 154.426V154.973C96.7588 155.082 96.3805 155.137 95.9521 155.137C95.2959 155.137 94.8105 154.961 94.4961 154.61C94.1862 154.259 94.0312 153.708 94.0312 152.956V148.157H92.9307V147.761L94.0312 147.453L94.373 145.771H94.7217V147.569H96.9023V148.157H94.7217V152.86C94.7217 153.43 94.8219 153.852 95.0225 154.125C95.223 154.398 95.5374 154.535 95.9658 154.535ZM103.875 155V150.181C103.875 149.433 103.718 148.891 103.403 148.554C103.089 148.212 102.601 148.041 101.94 148.041C101.052 148.041 100.4 148.267 99.9854 148.718C99.5752 149.164 99.3701 149.891 99.3701 150.898V155H98.6934V144.363H99.3701V147.747L99.3359 148.697H99.3838C99.6618 148.251 100.013 147.927 100.437 147.727C100.86 147.526 101.387 147.426 102.016 147.426C103.702 147.426 104.545 148.33 104.545 150.14V155H103.875ZM109.952 155.137C108.872 155.137 108.029 154.804 107.423 154.139C106.821 153.473 106.521 152.541 106.521 151.343C106.521 150.158 106.812 149.21 107.396 148.499C107.979 147.784 108.765 147.426 109.754 147.426C110.629 147.426 111.319 147.731 111.825 148.342C112.331 148.952 112.584 149.782 112.584 150.83V151.377H107.231C107.241 152.398 107.478 153.177 107.942 153.715C108.412 154.253 109.082 154.521 109.952 154.521C110.376 154.521 110.747 154.492 111.066 154.433C111.39 154.373 111.798 154.246 112.29 154.05V154.665C111.871 154.847 111.483 154.97 111.128 155.034C110.772 155.103 110.381 155.137 109.952 155.137ZM109.754 148.027C109.038 148.027 108.464 148.264 108.031 148.738C107.598 149.208 107.345 149.887 107.272 150.775H111.866C111.866 149.914 111.679 149.242 111.306 148.759C110.932 148.271 110.415 148.027 109.754 148.027ZM113.391 147.569H114.088L115.66 151.739C116.139 153.02 116.442 153.883 116.569 154.33H116.61C116.802 153.742 117.114 152.865 117.547 151.698L119.119 147.569H119.816L116.487 156.203C116.218 156.905 115.993 157.379 115.811 157.625C115.628 157.871 115.414 158.056 115.168 158.179C114.926 158.302 114.632 158.363 114.286 158.363C114.026 158.363 113.737 158.315 113.418 158.22V157.632C113.682 157.705 113.967 157.741 114.272 157.741C114.505 157.741 114.71 157.687 114.888 157.577C115.065 157.468 115.225 157.297 115.366 157.064C115.512 156.837 115.678 156.472 115.865 155.971C116.057 155.474 116.18 155.15 116.234 155L113.391 147.569ZM125.36 151.739L129.154 147.569H129.975L127.049 150.741L130.228 155H129.414L126.591 151.247L125.374 152.354V155H124.697V144.363H125.374V149.695L125.326 151.739H125.36ZM136.66 155V150.181C136.66 149.433 136.503 148.891 136.188 148.554C135.874 148.212 135.386 148.041 134.726 148.041C133.837 148.041 133.185 148.267 132.771 148.718C132.36 149.164 132.155 149.891 132.155 150.898V155H131.479V147.569H132.053L132.183 148.588H132.224C132.707 147.813 133.566 147.426 134.801 147.426C136.487 147.426 137.33 148.33 137.33 150.14V155H136.66ZM145.882 151.274C145.882 152.487 145.588 153.435 145 154.118C144.412 154.797 143.601 155.137 142.566 155.137C141.915 155.137 141.34 154.979 140.844 154.665C140.347 154.351 139.966 153.899 139.702 153.312C139.438 152.724 139.306 152.045 139.306 151.274C139.306 150.062 139.6 149.119 140.188 148.444C140.775 147.765 141.582 147.426 142.607 147.426C143.628 147.426 144.428 147.77 145.007 148.458C145.59 149.142 145.882 150.08 145.882 151.274ZM140.017 151.274C140.017 152.295 140.24 153.093 140.687 153.667C141.138 154.237 141.773 154.521 142.594 154.521C143.414 154.521 144.048 154.237 144.494 153.667C144.945 153.093 145.171 152.295 145.171 151.274C145.171 150.249 144.943 149.454 144.487 148.889C144.036 148.324 143.4 148.041 142.58 148.041C141.76 148.041 141.126 148.324 140.68 148.889C140.238 149.449 140.017 150.244 140.017 151.274ZM153.88 155L152.253 150.03C152.148 149.693 152.014 149.199 151.85 148.547H151.809L151.665 149.053L151.357 150.044L149.703 155H149.033L146.907 147.569H147.632L148.821 151.876C149.099 152.942 149.282 153.726 149.368 154.228H149.409C149.678 153.161 149.874 152.452 149.997 152.102L151.528 147.569H152.144L153.6 152.088C153.928 153.159 154.128 153.868 154.201 154.214H154.242C154.279 153.918 154.461 153.125 154.789 151.835L155.924 147.569H156.607L154.591 155H153.88ZM162.384 155H161.707V147.569H162.384V155ZM161.611 145.505C161.611 145.067 161.755 144.849 162.042 144.849C162.183 144.849 162.293 144.906 162.37 145.02C162.452 145.133 162.493 145.295 162.493 145.505C162.493 145.71 162.452 145.872 162.37 145.99C162.293 146.109 162.183 146.168 162.042 146.168C161.755 146.168 161.611 145.947 161.611 145.505ZM167.641 148.157H165.891V155H165.214V148.157H163.833V147.761L165.214 147.508V146.934C165.214 146.022 165.38 145.354 165.713 144.931C166.05 144.502 166.599 144.288 167.36 144.288C167.771 144.288 168.181 144.35 168.591 144.473L168.434 145.061C168.069 144.947 167.707 144.89 167.347 144.89C166.818 144.89 166.442 145.047 166.219 145.361C166 145.671 165.891 146.177 165.891 146.879V147.569H167.641V148.157ZM173.39 155H172.713V147.569H173.39V155ZM172.617 145.505C172.617 145.067 172.761 144.849 173.048 144.849C173.189 144.849 173.299 144.906 173.376 145.02C173.458 145.133 173.499 145.295 173.499 145.505C173.499 145.71 173.458 145.872 173.376 145.99C173.299 146.109 173.189 146.168 173.048 146.168C172.761 146.168 172.617 145.947 172.617 145.505ZM177.847 154.535C178.275 154.535 178.649 154.499 178.968 154.426V154.973C178.64 155.082 178.261 155.137 177.833 155.137C177.177 155.137 176.691 154.961 176.377 154.61C176.067 154.259 175.912 153.708 175.912 152.956V148.157H174.812V147.761L175.912 147.453L176.254 145.771H176.603V147.569H178.783V148.157H176.603V152.86C176.603 153.43 176.703 153.852 176.903 154.125C177.104 154.398 177.418 154.535 177.847 154.535ZM62.5312 175H61.8545V167.569H62.5312V175ZM61.7588 165.505C61.7588 165.067 61.9023 164.849 62.1895 164.849C62.3307 164.849 62.4401 164.906 62.5176 165.02C62.5996 165.133 62.6406 165.295 62.6406 165.505C62.6406 165.71 62.5996 165.872 62.5176 165.99C62.4401 166.109 62.3307 166.168 62.1895 166.168C61.9023 166.168 61.7588 165.947 61.7588 165.505ZM69.6338 173.065C69.6338 173.731 69.3809 174.243 68.875 174.604C68.3691 174.959 67.6514 175.137 66.7217 175.137C65.7282 175.137 64.9398 174.984 64.3564 174.679V173.947C65.1038 174.321 65.8923 174.508 66.7217 174.508C67.4554 174.508 68.0114 174.387 68.3896 174.146C68.7725 173.899 68.9639 173.574 68.9639 173.168C68.9639 172.794 68.8112 172.48 68.5059 172.225C68.2051 171.969 67.7083 171.719 67.0156 171.473C66.2728 171.204 65.751 170.974 65.4502 170.782C65.1494 170.586 64.9215 170.368 64.7666 170.126C64.6162 169.88 64.541 169.581 64.541 169.23C64.541 168.674 64.7734 168.235 65.2383 167.911C65.7077 167.588 66.3617 167.426 67.2002 167.426C68.0023 167.426 68.7633 167.576 69.4834 167.877L69.2305 168.492C68.5013 168.191 67.8245 168.041 67.2002 168.041C66.5941 168.041 66.1133 168.141 65.7578 168.342C65.4023 168.542 65.2246 168.82 65.2246 169.176C65.2246 169.563 65.3613 169.873 65.6348 170.105C65.9128 170.338 66.4528 170.598 67.2549 170.885C67.9248 171.126 68.4124 171.345 68.7178 171.541C69.0231 171.732 69.251 171.951 69.4014 172.197C69.5563 172.443 69.6338 172.733 69.6338 173.065ZM79.6963 175L79.5254 173.824H79.4707C79.097 174.303 78.7119 174.642 78.3154 174.843C77.9235 175.039 77.4587 175.137 76.9209 175.137C76.1917 175.137 75.6243 174.95 75.2188 174.576C74.8132 174.202 74.6104 173.685 74.6104 173.024C74.6104 172.3 74.9111 171.737 75.5127 171.336C76.1188 170.935 76.9938 170.723 78.1377 170.7L79.5527 170.659V170.167C79.5527 169.461 79.4092 168.927 79.1221 168.567C78.835 168.207 78.3724 168.027 77.7344 168.027C77.0462 168.027 76.333 168.219 75.5947 168.602L75.3418 168.014C76.1576 167.631 76.9642 167.439 77.7617 167.439C78.5775 167.439 79.1859 167.651 79.5869 168.075C79.9925 168.499 80.1953 169.16 80.1953 170.058V175H79.6963ZM76.9619 174.521C77.7549 174.521 78.3792 174.296 78.835 173.845C79.2952 173.389 79.5254 172.758 79.5254 171.951V171.22L78.2266 171.274C77.1829 171.325 76.4378 171.489 75.9912 171.767C75.5492 172.04 75.3281 172.468 75.3281 173.052C75.3281 173.517 75.4694 173.879 75.752 174.139C76.0391 174.394 76.4424 174.521 76.9619 174.521ZM95.5283 175V170.126C95.5283 169.401 95.387 168.873 95.1045 168.54C94.8219 168.207 94.389 168.041 93.8057 168.041C93.0446 168.041 92.4818 168.251 92.1172 168.67C91.7526 169.089 91.5703 169.748 91.5703 170.646V175H90.8799V169.921C90.8799 168.668 90.3057 168.041 89.1572 168.041C88.3779 168.041 87.8105 168.269 87.4551 168.725C87.0996 169.176 86.9219 169.9 86.9219 170.898V175H86.2451V167.569H86.8057L86.9492 168.588H86.9902C87.1953 168.219 87.487 167.934 87.8652 167.733C88.2435 167.528 88.6605 167.426 89.1162 167.426C90.2874 167.426 91.0394 167.866 91.3721 168.745H91.3994C91.641 168.321 91.9645 167.995 92.3701 167.768C92.7803 167.54 93.2451 167.426 93.7646 167.426C94.5758 167.426 95.1842 167.642 95.5898 168.075C95.9954 168.508 96.1982 169.196 96.1982 170.14V175H95.5283ZM103.116 175L102.945 173.824H102.891C102.517 174.303 102.132 174.642 101.735 174.843C101.343 175.039 100.879 175.137 100.341 175.137C99.6117 175.137 99.0443 174.95 98.6387 174.576C98.2331 174.202 98.0303 173.685 98.0303 173.024C98.0303 172.3 98.3311 171.737 98.9326 171.336C99.5387 170.935 100.414 170.723 101.558 170.7L102.973 170.659V170.167C102.973 169.461 102.829 168.927 102.542 168.567C102.255 168.207 101.792 168.027 101.154 168.027C100.466 168.027 99.7529 168.219 99.0146 168.602L98.7617 168.014C99.5775 167.631 100.384 167.439 101.182 167.439C101.997 167.439 102.606 167.651 103.007 168.075C103.412 168.499 103.615 169.16 103.615 170.058V175H103.116ZM100.382 174.521C101.175 174.521 101.799 174.296 102.255 173.845C102.715 173.389 102.945 172.758 102.945 171.951V171.22L101.646 171.274C100.603 171.325 99.8577 171.489 99.4111 171.767C98.9691 172.04 98.748 172.468 98.748 173.052C98.748 173.517 98.8893 173.879 99.1719 174.139C99.459 174.394 99.8623 174.521 100.382 174.521ZM107.99 174.535C108.419 174.535 108.792 174.499 109.111 174.426V174.973C108.783 175.082 108.405 175.137 107.977 175.137C107.32 175.137 106.835 174.961 106.521 174.61C106.211 174.259 106.056 173.708 106.056 172.956V168.157H104.955V167.761L106.056 167.453L106.397 165.771H106.746V167.569H108.927V168.157H106.746V172.86C106.746 173.43 106.846 173.852 107.047 174.125C107.247 174.398 107.562 174.535 107.99 174.535ZM113.685 175.137C112.623 175.137 111.791 174.802 111.189 174.132C110.588 173.462 110.287 172.528 110.287 171.329C110.287 170.099 110.599 169.142 111.224 168.458C111.848 167.77 112.702 167.426 113.787 167.426C114.43 167.426 115.045 167.537 115.633 167.761L115.448 168.362C114.806 168.148 114.247 168.041 113.773 168.041C112.862 168.041 112.172 168.324 111.702 168.889C111.233 169.449 110.998 170.258 110.998 171.315C110.998 172.318 111.233 173.104 111.702 173.674C112.172 174.239 112.828 174.521 113.671 174.521C114.345 174.521 114.972 174.401 115.551 174.159V174.788C115.077 175.021 114.455 175.137 113.685 175.137ZM122.558 175V170.181C122.558 169.433 122.4 168.891 122.086 168.554C121.771 168.212 121.284 168.041 120.623 168.041C119.734 168.041 119.083 168.267 118.668 168.718C118.258 169.164 118.053 169.891 118.053 170.898V175H117.376V164.363H118.053V167.747L118.019 168.697H118.066C118.344 168.251 118.695 167.927 119.119 167.727C119.543 167.526 120.069 167.426 120.698 167.426C122.384 167.426 123.228 168.33 123.228 170.14V175H122.558Z" fill="black"/>
<rect x="10" y="109" width="165" height="1" fill="#323232"/>
</svg>
