<svg width="288" height="228" viewBox="0 0 288 228" fill="none" xmlns="http://www.w3.org/2000/svg">
<path d="M43.9805 0H13.509C13.1122 0 12.7904 0.32175 12.7904 0.718594C12.7904 1.11544 13.1122 1.43719 13.509 1.43719H43.9805C45.4044 1.43719 46.5628 2.59566 46.5628 4.01953V43.9805C46.5628 45.4044 45.4043 46.5628 43.9805 46.5628H4.01953C2.59556 46.5628 1.43719 45.4043 1.43719 43.9805V4.01953C1.43719 2.59556 2.59566 1.43719 4.01953 1.43719H9.78844C10.1853 1.43719 10.507 1.11544 10.507 0.718594C10.507 0.32175 10.1853 0 9.78844 0H4.01953C1.80319 0 0 1.80319 0 4.01953V43.9805C0 46.1968 1.80319 48 4.01953 48H43.9805C46.1968 48 48 46.1968 48 43.9805V4.01953C48 1.80319 46.1968 0 43.9805 0Z" fill="black"/>
<path d="M23.9678 11.085C20.5871 11.085 17.8366 13.8354 17.8366 17.2162C17.8366 20.597 20.587 23.3475 23.9678 23.3475C27.3487 23.3475 30.0991 20.597 30.0991 17.2162C30.0991 13.8354 27.3487 11.085 23.9678 11.085ZM23.9678 21.9103C21.3795 21.9103 19.2738 19.8045 19.2738 17.2162C19.2738 14.628 21.3795 12.5221 23.9678 12.5221C26.5562 12.5221 28.662 14.628 28.662 17.2162C28.662 19.8045 26.5562 21.9103 23.9678 21.9103Z" fill="black"/>
<path d="M29.2007 24.709H18.246C14.2848 24.709 11.062 27.9317 11.062 31.893V35.3834C11.062 36.1794 11.7097 36.827 12.5057 36.827H18.6348C19.0316 36.827 19.3534 36.5053 19.3534 36.1084C19.3534 35.7116 19.0316 35.3898 18.6348 35.3898L17.5816 35.3887V32.0231C17.5816 31.6262 17.2599 31.3045 16.863 31.3045C16.4662 31.3045 16.1444 31.6262 16.1444 32.0231V35.3872L12.4991 35.3834V31.893C12.4991 28.7241 15.0772 26.1461 18.246 26.1461H29.2008C32.3695 26.1461 34.9476 28.7241 34.9476 31.893L34.9411 35.3898H31.2649V32.0231C31.2649 31.6262 30.9431 31.3045 30.5463 31.3045C30.1494 31.3045 29.8277 31.6262 29.8277 32.0231V35.3898H22.0838C21.6869 35.3898 21.3652 35.7116 21.3652 36.1084C21.3652 36.5053 21.6869 36.827 22.0838 36.827H34.941C35.737 36.827 36.3847 36.1794 36.3847 35.3834V31.893C36.3847 27.9316 33.1619 24.709 29.2007 24.709Z" fill="black"/>
<path d="M43.9805 60H13.509C13.1122 60 12.7904 60.3218 12.7904 60.7186C12.7904 61.1154 13.1122 61.4372 13.509 61.4372H43.9805C45.4044 61.4372 46.5628 62.5957 46.5628 64.0195V103.98C46.5628 105.404 45.4043 106.563 43.9805 106.563H4.01953C2.59556 106.563 1.43719 105.404 1.43719 103.98V64.0195C1.43719 62.5956 2.59566 61.4372 4.01953 61.4372H9.78844C10.1853 61.4372 10.507 61.1154 10.507 60.7186C10.507 60.3218 10.1853 60 9.78844 60H4.01953C1.80319 60 0 61.8032 0 64.0195V103.98C0 106.197 1.80319 108 4.01953 108H43.9805C46.1968 108 48 106.197 48 103.98V64.0195C48 61.8032 46.1968 60 43.9805 60Z" fill="black"/>
<path d="M23.9678 71.085C20.5871 71.085 17.8366 73.8354 17.8366 77.2162C17.8366 80.597 20.587 83.3475 23.9678 83.3475C27.3487 83.3475 30.0991 80.597 30.0991 77.2162C30.0991 73.8354 27.3487 71.085 23.9678 71.085ZM23.9678 81.9103C21.3795 81.9103 19.2738 79.8045 19.2738 77.2162C19.2738 74.628 21.3795 72.5221 23.9678 72.5221C26.5562 72.5221 28.662 74.628 28.662 77.2162C28.662 79.8045 26.5562 81.9103 23.9678 81.9103Z" fill="black"/>
<path d="M29.2007 84.709H18.246C14.2848 84.709 11.062 87.9317 11.062 91.893V95.3834C11.062 96.1794 11.7097 96.827 12.5057 96.827H18.6348C19.0316 96.827 19.3534 96.5053 19.3534 96.1084C19.3534 95.7116 19.0316 95.3898 18.6348 95.3898L17.5816 95.3887V92.0231C17.5816 91.6262 17.2599 91.3045 16.863 91.3045C16.4662 91.3045 16.1444 91.6262 16.1444 92.0231V95.3872L12.4991 95.3834V91.893C12.4991 88.7241 15.0772 86.1461 18.246 86.1461H29.2008C32.3695 86.1461 34.9476 88.7241 34.9476 91.893L34.9411 95.3898H31.2649V92.0231C31.2649 91.6262 30.9431 91.3045 30.5463 91.3045C30.1494 91.3045 29.8277 91.6262 29.8277 92.0231V95.3898H22.0838C21.6869 95.3898 21.3652 95.7116 21.3652 96.1084C21.3652 96.5053 21.6869 96.827 22.0838 96.827H34.941C35.737 96.827 36.3847 96.1794 36.3847 95.3834V91.893C36.3847 87.9316 33.1619 84.709 29.2007 84.709Z" fill="black"/>
<path d="M43.9805 120H13.509C13.1122 120 12.7904 120.322 12.7904 120.719C12.7904 121.115 13.1122 121.437 13.509 121.437H43.9805C45.4044 121.437 46.5628 122.596 46.5628 124.02V163.98C46.5628 165.404 45.4043 166.563 43.9805 166.563H4.01953C2.59556 166.563 1.43719 165.404 1.43719 163.98V124.02C1.43719 122.596 2.59566 121.437 4.01953 121.437H9.78844C10.1853 121.437 10.507 121.115 10.507 120.719C10.507 120.322 10.1853 120 9.78844 120H4.01953C1.80319 120 0 121.803 0 124.02V163.98C0 166.197 1.80319 168 4.01953 168H43.9805C46.1968 168 48 166.197 48 163.98V124.02C48 121.803 46.1968 120 43.9805 120Z" fill="black"/>
<path d="M23.9678 131.085C20.5871 131.085 17.8366 133.835 17.8366 137.216C17.8366 140.597 20.587 143.347 23.9678 143.347C27.3487 143.347 30.0991 140.597 30.0991 137.216C30.0991 133.835 27.3487 131.085 23.9678 131.085ZM23.9678 141.91C21.3795 141.91 19.2738 139.804 19.2738 137.216C19.2738 134.628 21.3795 132.522 23.9678 132.522C26.5562 132.522 28.662 134.628 28.662 137.216C28.662 139.804 26.5562 141.91 23.9678 141.91Z" fill="black"/>
<path d="M29.2007 144.709H18.246C14.2848 144.709 11.062 147.932 11.062 151.893V155.383C11.062 156.179 11.7097 156.827 12.5057 156.827H18.6348C19.0316 156.827 19.3534 156.505 19.3534 156.108C19.3534 155.712 19.0316 155.39 18.6348 155.39L17.5816 155.389V152.023C17.5816 151.626 17.2599 151.304 16.863 151.304C16.4662 151.304 16.1444 151.626 16.1444 152.023V155.387L12.4991 155.383V151.893C12.4991 148.724 15.0772 146.146 18.246 146.146H29.2008C32.3695 146.146 34.9476 148.724 34.9476 151.893L34.9411 155.39H31.2649V152.023C31.2649 151.626 30.9431 151.304 30.5463 151.304C30.1494 151.304 29.8277 151.626 29.8277 152.023V155.39H22.0838C21.6869 155.39 21.3652 155.712 21.3652 156.108C21.3652 156.505 21.6869 156.827 22.0838 156.827H34.941C35.737 156.827 36.3847 156.179 36.3847 155.383V151.893C36.3847 147.932 33.1619 144.709 29.2007 144.709Z" fill="black"/>
<path d="M43.9805 180H13.509C13.1122 180 12.7904 180.322 12.7904 180.719C12.7904 181.115 13.1122 181.437 13.509 181.437H43.9805C45.4044 181.437 46.5628 182.596 46.5628 184.02V223.98C46.5628 225.404 45.4043 226.563 43.9805 226.563H4.01953C2.59556 226.563 1.43719 225.404 1.43719 223.98V184.02C1.43719 182.596 2.59566 181.437 4.01953 181.437H9.78844C10.1853 181.437 10.507 181.115 10.507 180.719C10.507 180.322 10.1853 180 9.78844 180H4.01953C1.80319 180 0 181.803 0 184.02V223.98C0 226.197 1.80319 228 4.01953 228H43.9805C46.1968 228 48 226.197 48 223.98V184.02C48 181.803 46.1968 180 43.9805 180Z" fill="black"/>
<path d="M23.9678 191.085C20.5871 191.085 17.8366 193.835 17.8366 197.216C17.8366 200.597 20.587 203.347 23.9678 203.347C27.3487 203.347 30.0991 200.597 30.0991 197.216C30.0991 193.835 27.3487 191.085 23.9678 191.085ZM23.9678 201.91C21.3795 201.91 19.2738 199.804 19.2738 197.216C19.2738 194.628 21.3795 192.522 23.9678 192.522C26.5562 192.522 28.662 194.628 28.662 197.216C28.662 199.804 26.5562 201.91 23.9678 201.91Z" fill="black"/>
<path d="M29.2007 204.709H18.246C14.2848 204.709 11.062 207.932 11.062 211.893V215.383C11.062 216.179 11.7097 216.827 12.5057 216.827H18.6348C19.0316 216.827 19.3534 216.505 19.3534 216.108C19.3534 215.712 19.0316 215.39 18.6348 215.39L17.5816 215.389V212.023C17.5816 211.626 17.2599 211.304 16.863 211.304C16.4662 211.304 16.1444 211.626 16.1444 212.023V215.387L12.4991 215.383V211.893C12.4991 208.724 15.0772 206.146 18.246 206.146H29.2008C32.3695 206.146 34.9476 208.724 34.9476 211.893L34.9411 215.39H31.2649V212.023C31.2649 211.626 30.9431 211.304 30.5463 211.304C30.1494 211.304 29.8277 211.626 29.8277 212.023V215.39H22.0838C21.6869 215.39 21.3652 215.712 21.3652 216.108C21.3652 216.505 21.6869 216.827 22.0838 216.827H34.941C35.737 216.827 36.3847 216.179 36.3847 215.383V211.893C36.3847 207.932 33.1619 204.709 29.2007 204.709Z" fill="black"/>
<path d="M103.98 0H73.509C73.1122 0 72.7904 0.32175 72.7904 0.718594C72.7904 1.11544 73.1122 1.43719 73.509 1.43719H103.98C105.404 1.43719 106.563 2.59566 106.563 4.01953V43.9805C106.563 45.4044 105.404 46.5628 103.98 46.5628H64.0195C62.5956 46.5628 61.4372 45.4043 61.4372 43.9805V4.01953C61.4372 2.59556 62.5957 1.43719 64.0195 1.43719H69.7884C70.1853 1.43719 70.507 1.11544 70.507 0.718594C70.507 0.32175 70.1853 0 69.7884 0H64.0195C61.8032 0 60 1.80319 60 4.01953V43.9805C60 46.1968 61.8032 48 64.0195 48H103.98C106.197 48 108 46.1968 108 43.9805V4.01953C108 1.80319 106.197 0 103.98 0Z" fill="black"/>
<path d="M83.9678 11.085C80.5871 11.085 77.8366 13.8354 77.8366 17.2162C77.8366 20.597 80.587 23.3475 83.9678 23.3475C87.3487 23.3475 90.0991 20.597 90.0991 17.2162C90.0991 13.8354 87.3487 11.085 83.9678 11.085ZM83.9678 21.9103C81.3795 21.9103 79.2738 19.8045 79.2738 17.2162C79.2738 14.628 81.3795 12.5221 83.9678 12.5221C86.5562 12.5221 88.662 14.628 88.662 17.2162C88.662 19.8045 86.5562 21.9103 83.9678 21.9103Z" fill="black"/>
<path d="M89.2007 24.709H78.246C74.2848 24.709 71.062 27.9317 71.062 31.893V35.3834C71.062 36.1794 71.7097 36.827 72.5057 36.827H78.6348C79.0316 36.827 79.3534 36.5053 79.3534 36.1084C79.3534 35.7116 79.0316 35.3898 78.6348 35.3898L77.5816 35.3887V32.0231C77.5816 31.6262 77.2599 31.3045 76.863 31.3045C76.4662 31.3045 76.1444 31.6262 76.1444 32.0231V35.3872L72.4991 35.3834V31.893C72.4991 28.7241 75.0772 26.1461 78.246 26.1461H89.2008C92.3695 26.1461 94.9476 28.7241 94.9476 31.893L94.9411 35.3898H91.2649V32.0231C91.2649 31.6262 90.9431 31.3045 90.5463 31.3045C90.1494 31.3045 89.8277 31.6262 89.8277 32.0231V35.3898H82.0838C81.6869 35.3898 81.3652 35.7116 81.3652 36.1084C81.3652 36.5053 81.6869 36.827 82.0838 36.827H94.941C95.737 36.827 96.3847 36.1794 96.3847 35.3834V31.893C96.3847 27.9316 93.1619 24.709 89.2007 24.709Z" fill="black"/>
<path d="M103.98 60H73.509C73.1122 60 72.7904 60.3218 72.7904 60.7186C72.7904 61.1154 73.1122 61.4372 73.509 61.4372H103.98C105.404 61.4372 106.563 62.5957 106.563 64.0195V103.98C106.563 105.404 105.404 106.563 103.98 106.563H64.0195C62.5956 106.563 61.4372 105.404 61.4372 103.98V64.0195C61.4372 62.5956 62.5957 61.4372 64.0195 61.4372H69.7884C70.1853 61.4372 70.507 61.1154 70.507 60.7186C70.507 60.3218 70.1853 60 69.7884 60H64.0195C61.8032 60 60 61.8032 60 64.0195V103.98C60 106.197 61.8032 108 64.0195 108H103.98C106.197 108 108 106.197 108 103.98V64.0195C108 61.8032 106.197 60 103.98 60Z" fill="black"/>
<path d="M83.9678 71.085C80.5871 71.085 77.8366 73.8354 77.8366 77.2162C77.8366 80.597 80.587 83.3475 83.9678 83.3475C87.3487 83.3475 90.0991 80.597 90.0991 77.2162C90.0991 73.8354 87.3487 71.085 83.9678 71.085ZM83.9678 81.9103C81.3795 81.9103 79.2738 79.8045 79.2738 77.2162C79.2738 74.628 81.3795 72.5221 83.9678 72.5221C86.5562 72.5221 88.662 74.628 88.662 77.2162C88.662 79.8045 86.5562 81.9103 83.9678 81.9103Z" fill="black"/>
<path d="M89.2007 84.709H78.246C74.2848 84.709 71.062 87.9317 71.062 91.893V95.3834C71.062 96.1794 71.7097 96.827 72.5057 96.827H78.6348C79.0316 96.827 79.3534 96.5053 79.3534 96.1084C79.3534 95.7116 79.0316 95.3898 78.6348 95.3898L77.5816 95.3887V92.0231C77.5816 91.6262 77.2599 91.3045 76.863 91.3045C76.4662 91.3045 76.1444 91.6262 76.1444 92.0231V95.3872L72.4991 95.3834V91.893C72.4991 88.7241 75.0772 86.1461 78.246 86.1461H89.2008C92.3695 86.1461 94.9476 88.7241 94.9476 91.893L94.9411 95.3898H91.2649V92.0231C91.2649 91.6262 90.9431 91.3045 90.5463 91.3045C90.1494 91.3045 89.8277 91.6262 89.8277 92.0231V95.3898H82.0838C81.6869 95.3898 81.3652 95.7116 81.3652 96.1084C81.3652 96.5053 81.6869 96.827 82.0838 96.827H94.941C95.737 96.827 96.3847 96.1794 96.3847 95.3834V91.893C96.3847 87.9316 93.1619 84.709 89.2007 84.709Z" fill="black"/>
<path d="M103.98 120H73.509C73.1122 120 72.7904 120.322 72.7904 120.719C72.7904 121.115 73.1122 121.437 73.509 121.437H103.98C105.404 121.437 106.563 122.596 106.563 124.02V163.98C106.563 165.404 105.404 166.563 103.98 166.563H64.0195C62.5956 166.563 61.4372 165.404 61.4372 163.98V124.02C61.4372 122.596 62.5957 121.437 64.0195 121.437H69.7884C70.1853 121.437 70.507 121.115 70.507 120.719C70.507 120.322 70.1853 120 69.7884 120H64.0195C61.8032 120 60 121.803 60 124.02V163.98C60 166.197 61.8032 168 64.0195 168H103.98C106.197 168 108 166.197 108 163.98V124.02C108 121.803 106.197 120 103.98 120Z" fill="black"/>
<path d="M83.9678 131.085C80.5871 131.085 77.8366 133.835 77.8366 137.216C77.8366 140.597 80.587 143.347 83.9678 143.347C87.3487 143.347 90.0991 140.597 90.0991 137.216C90.0991 133.835 87.3487 131.085 83.9678 131.085ZM83.9678 141.91C81.3795 141.91 79.2738 139.804 79.2738 137.216C79.2738 134.628 81.3795 132.522 83.9678 132.522C86.5562 132.522 88.662 134.628 88.662 137.216C88.662 139.804 86.5562 141.91 83.9678 141.91Z" fill="black"/>
<path d="M89.2007 144.709H78.246C74.2848 144.709 71.062 147.932 71.062 151.893V155.383C71.062 156.179 71.7097 156.827 72.5057 156.827H78.6348C79.0316 156.827 79.3534 156.505 79.3534 156.108C79.3534 155.712 79.0316 155.39 78.6348 155.39L77.5816 155.389V152.023C77.5816 151.626 77.2599 151.304 76.863 151.304C76.4662 151.304 76.1444 151.626 76.1444 152.023V155.387L72.4991 155.383V151.893C72.4991 148.724 75.0772 146.146 78.246 146.146H89.2008C92.3695 146.146 94.9476 148.724 94.9476 151.893L94.9411 155.39H91.2649V152.023C91.2649 151.626 90.9431 151.304 90.5463 151.304C90.1494 151.304 89.8277 151.626 89.8277 152.023V155.39H82.0838C81.6869 155.39 81.3652 155.712 81.3652 156.108C81.3652 156.505 81.6869 156.827 82.0838 156.827H94.941C95.737 156.827 96.3847 156.179 96.3847 155.383V151.893C96.3847 147.932 93.1619 144.709 89.2007 144.709Z" fill="black"/>
<path d="M103.98 180H73.509C73.1122 180 72.7904 180.322 72.7904 180.719C72.7904 181.115 73.1122 181.437 73.509 181.437H103.98C105.404 181.437 106.563 182.596 106.563 184.02V223.98C106.563 225.404 105.404 226.563 103.98 226.563H64.0195C62.5956 226.563 61.4372 225.404 61.4372 223.98V184.02C61.4372 182.596 62.5957 181.437 64.0195 181.437H69.7884C70.1853 181.437 70.507 181.115 70.507 180.719C70.507 180.322 70.1853 180 69.7884 180H64.0195C61.8032 180 60 181.803 60 184.02V223.98C60 226.197 61.8032 228 64.0195 228H103.98C106.197 228 108 226.197 108 223.98V184.02C108 181.803 106.197 180 103.98 180Z" fill="black"/>
<path d="M83.9678 191.085C80.5871 191.085 77.8366 193.835 77.8366 197.216C77.8366 200.597 80.587 203.347 83.9678 203.347C87.3487 203.347 90.0991 200.597 90.0991 197.216C90.0991 193.835 87.3487 191.085 83.9678 191.085ZM83.9678 201.91C81.3795 201.91 79.2738 199.804 79.2738 197.216C79.2738 194.628 81.3795 192.522 83.9678 192.522C86.5562 192.522 88.662 194.628 88.662 197.216C88.662 199.804 86.5562 201.91 83.9678 201.91Z" fill="black"/>
<path d="M89.2007 204.709H78.246C74.2848 204.709 71.062 207.932 71.062 211.893V215.383C71.062 216.179 71.7097 216.827 72.5057 216.827H78.6348C79.0316 216.827 79.3534 216.505 79.3534 216.108C79.3534 215.712 79.0316 215.39 78.6348 215.39L77.5816 215.389V212.023C77.5816 211.626 77.2599 211.304 76.863 211.304C76.4662 211.304 76.1444 211.626 76.1444 212.023V215.387L72.4991 215.383V211.893C72.4991 208.724 75.0772 206.146 78.246 206.146H89.2008C92.3695 206.146 94.9476 208.724 94.9476 211.893L94.9411 215.39H91.2649V212.023C91.2649 211.626 90.9431 211.304 90.5463 211.304C90.1494 211.304 89.8277 211.626 89.8277 212.023V215.39H82.0838C81.6869 215.39 81.3652 215.712 81.3652 216.108C81.3652 216.505 81.6869 216.827 82.0838 216.827H94.941C95.737 216.827 96.3847 216.179 96.3847 215.383V211.893C96.3847 207.932 93.1619 204.709 89.2007 204.709Z" fill="black"/>
<path d="M163.98 0H133.509C133.112 0 132.79 0.32175 132.79 0.718594C132.79 1.11544 133.112 1.43719 133.509 1.43719H163.98C165.404 1.43719 166.563 2.59566 166.563 4.01953V43.9805C166.563 45.4044 165.404 46.5628 163.98 46.5628H124.02C122.596 46.5628 121.437 45.4043 121.437 43.9805V4.01953C121.437 2.59556 122.596 1.43719 124.02 1.43719H129.788C130.185 1.43719 130.507 1.11544 130.507 0.718594C130.507 0.32175 130.185 0 129.788 0H124.02C121.803 0 120 1.80319 120 4.01953V43.9805C120 46.1968 121.803 48 124.02 48H163.98C166.197 48 168 46.1968 168 43.9805V4.01953C168 1.80319 166.197 0 163.98 0Z" fill="black"/>
<path d="M143.968 11.085C140.587 11.085 137.837 13.8354 137.837 17.2162C137.837 20.597 140.587 23.3475 143.968 23.3475C147.349 23.3475 150.099 20.597 150.099 17.2162C150.099 13.8354 147.349 11.085 143.968 11.085ZM143.968 21.9103C141.379 21.9103 139.274 19.8045 139.274 17.2162C139.274 14.628 141.379 12.5221 143.968 12.5221C146.556 12.5221 148.662 14.628 148.662 17.2162C148.662 19.8045 146.556 21.9103 143.968 21.9103Z" fill="black"/>
<path d="M149.201 24.709H138.246C134.285 24.709 131.062 27.9317 131.062 31.893V35.3834C131.062 36.1794 131.71 36.827 132.506 36.827H138.635C139.032 36.827 139.353 36.5053 139.353 36.1084C139.353 35.7116 139.032 35.3898 138.635 35.3898L137.582 35.3887V32.0231C137.582 31.6262 137.26 31.3045 136.863 31.3045C136.466 31.3045 136.144 31.6262 136.144 32.0231V35.3872L132.499 35.3834V31.893C132.499 28.7241 135.077 26.1461 138.246 26.1461H149.201C152.37 26.1461 154.948 28.7241 154.948 31.893L154.941 35.3898H151.265V32.0231C151.265 31.6262 150.943 31.3045 150.546 31.3045C150.149 31.3045 149.828 31.6262 149.828 32.0231V35.3898H142.084C141.687 35.3898 141.365 35.7116 141.365 36.1084C141.365 36.5053 141.687 36.827 142.084 36.827H154.941C155.737 36.827 156.385 36.1794 156.385 35.3834V31.893C156.385 27.9316 153.162 24.709 149.201 24.709Z" fill="black"/>
<path d="M163.98 60H133.509C133.112 60 132.79 60.3218 132.79 60.7186C132.79 61.1154 133.112 61.4372 133.509 61.4372H163.98C165.404 61.4372 166.563 62.5957 166.563 64.0195V103.98C166.563 105.404 165.404 106.563 163.98 106.563H124.02C122.596 106.563 121.437 105.404 121.437 103.98V64.0195C121.437 62.5956 122.596 61.4372 124.02 61.4372H129.788C130.185 61.4372 130.507 61.1154 130.507 60.7186C130.507 60.3218 130.185 60 129.788 60H124.02C121.803 60 120 61.8032 120 64.0195V103.98C120 106.197 121.803 108 124.02 108H163.98C166.197 108 168 106.197 168 103.98V64.0195C168 61.8032 166.197 60 163.98 60Z" fill="black"/>
<path d="M143.968 71.085C140.587 71.085 137.837 73.8354 137.837 77.2162C137.837 80.597 140.587 83.3475 143.968 83.3475C147.349 83.3475 150.099 80.597 150.099 77.2162C150.099 73.8354 147.349 71.085 143.968 71.085ZM143.968 81.9103C141.379 81.9103 139.274 79.8045 139.274 77.2162C139.274 74.628 141.379 72.5221 143.968 72.5221C146.556 72.5221 148.662 74.628 148.662 77.2162C148.662 79.8045 146.556 81.9103 143.968 81.9103Z" fill="black"/>
<path d="M149.201 84.709H138.246C134.285 84.709 131.062 87.9317 131.062 91.893V95.3834C131.062 96.1794 131.71 96.827 132.506 96.827H138.635C139.032 96.827 139.353 96.5053 139.353 96.1084C139.353 95.7116 139.032 95.3898 138.635 95.3898L137.582 95.3887V92.0231C137.582 91.6262 137.26 91.3045 136.863 91.3045C136.466 91.3045 136.144 91.6262 136.144 92.0231V95.3872L132.499 95.3834V91.893C132.499 88.7241 135.077 86.1461 138.246 86.1461H149.201C152.37 86.1461 154.948 88.7241 154.948 91.893L154.941 95.3898H151.265V92.0231C151.265 91.6262 150.943 91.3045 150.546 91.3045C150.149 91.3045 149.828 91.6262 149.828 92.0231V95.3898H142.084C141.687 95.3898 141.365 95.7116 141.365 96.1084C141.365 96.5053 141.687 96.827 142.084 96.827H154.941C155.737 96.827 156.385 96.1794 156.385 95.3834V91.893C156.385 87.9316 153.162 84.709 149.201 84.709Z" fill="black"/>
<path d="M163.98 120H133.509C133.112 120 132.79 120.322 132.79 120.719C132.79 121.115 133.112 121.437 133.509 121.437H163.98C165.404 121.437 166.563 122.596 166.563 124.02V163.98C166.563 165.404 165.404 166.563 163.98 166.563H124.02C122.596 166.563 121.437 165.404 121.437 163.98V124.02C121.437 122.596 122.596 121.437 124.02 121.437H129.788C130.185 121.437 130.507 121.115 130.507 120.719C130.507 120.322 130.185 120 129.788 120H124.02C121.803 120 120 121.803 120 124.02V163.98C120 166.197 121.803 168 124.02 168H163.98C166.197 168 168 166.197 168 163.98V124.02C168 121.803 166.197 120 163.98 120Z" fill="black"/>
<path d="M143.968 131.085C140.587 131.085 137.837 133.835 137.837 137.216C137.837 140.597 140.587 143.347 143.968 143.347C147.349 143.347 150.099 140.597 150.099 137.216C150.099 133.835 147.349 131.085 143.968 131.085ZM143.968 141.91C141.379 141.91 139.274 139.804 139.274 137.216C139.274 134.628 141.379 132.522 143.968 132.522C146.556 132.522 148.662 134.628 148.662 137.216C148.662 139.804 146.556 141.91 143.968 141.91Z" fill="black"/>
<path d="M149.201 144.709H138.246C134.285 144.709 131.062 147.932 131.062 151.893V155.383C131.062 156.179 131.71 156.827 132.506 156.827H138.635C139.032 156.827 139.353 156.505 139.353 156.108C139.353 155.712 139.032 155.39 138.635 155.39L137.582 155.389V152.023C137.582 151.626 137.26 151.304 136.863 151.304C136.466 151.304 136.144 151.626 136.144 152.023V155.387L132.499 155.383V151.893C132.499 148.724 135.077 146.146 138.246 146.146H149.201C152.37 146.146 154.948 148.724 154.948 151.893L154.941 155.39H151.265V152.023C151.265 151.626 150.943 151.304 150.546 151.304C150.149 151.304 149.828 151.626 149.828 152.023V155.39H142.084C141.687 155.39 141.365 155.712 141.365 156.108C141.365 156.505 141.687 156.827 142.084 156.827H154.941C155.737 156.827 156.385 156.179 156.385 155.383V151.893C156.385 147.932 153.162 144.709 149.201 144.709Z" fill="black"/>
<path d="M163.98 180H133.509C133.112 180 132.79 180.322 132.79 180.719C132.79 181.115 133.112 181.437 133.509 181.437H163.98C165.404 181.437 166.563 182.596 166.563 184.02V223.98C166.563 225.404 165.404 226.563 163.98 226.563H124.02C122.596 226.563 121.437 225.404 121.437 223.98V184.02C121.437 182.596 122.596 181.437 124.02 181.437H129.788C130.185 181.437 130.507 181.115 130.507 180.719C130.507 180.322 130.185 180 129.788 180H124.02C121.803 180 120 181.803 120 184.02V223.98C120 226.197 121.803 228 124.02 228H163.98C166.197 228 168 226.197 168 223.98V184.02C168 181.803 166.197 180 163.98 180Z" fill="black"/>
<path d="M143.968 191.085C140.587 191.085 137.837 193.835 137.837 197.216C137.837 200.597 140.587 203.347 143.968 203.347C147.349 203.347 150.099 200.597 150.099 197.216C150.099 193.835 147.349 191.085 143.968 191.085ZM143.968 201.91C141.379 201.91 139.274 199.804 139.274 197.216C139.274 194.628 141.379 192.522 143.968 192.522C146.556 192.522 148.662 194.628 148.662 197.216C148.662 199.804 146.556 201.91 143.968 201.91Z" fill="black"/>
<path d="M149.201 204.709H138.246C134.285 204.709 131.062 207.932 131.062 211.893V215.383C131.062 216.179 131.71 216.827 132.506 216.827H138.635C139.032 216.827 139.353 216.505 139.353 216.108C139.353 215.712 139.032 215.39 138.635 215.39L137.582 215.389V212.023C137.582 211.626 137.26 211.304 136.863 211.304C136.466 211.304 136.144 211.626 136.144 212.023V215.387L132.499 215.383V211.893C132.499 208.724 135.077 206.146 138.246 206.146H149.201C152.37 206.146 154.948 208.724 154.948 211.893L154.941 215.39H151.265V212.023C151.265 211.626 150.943 211.304 150.546 211.304C150.149 211.304 149.828 211.626 149.828 212.023V215.39H142.084C141.687 215.39 141.365 215.712 141.365 216.108C141.365 216.505 141.687 216.827 142.084 216.827H154.941C155.737 216.827 156.385 216.179 156.385 215.383V211.893C156.385 207.932 153.162 204.709 149.201 204.709Z" fill="black"/>
<path d="M223.98 0H193.509C193.112 0 192.79 0.32175 192.79 0.718594C192.79 1.11544 193.112 1.43719 193.509 1.43719H223.98C225.404 1.43719 226.563 2.59566 226.563 4.01953V43.9805C226.563 45.4044 225.404 46.5628 223.98 46.5628H184.02C182.596 46.5628 181.437 45.4043 181.437 43.9805V4.01953C181.437 2.59556 182.596 1.43719 184.02 1.43719H189.788C190.185 1.43719 190.507 1.11544 190.507 0.718594C190.507 0.32175 190.185 0 189.788 0H184.02C181.803 0 180 1.80319 180 4.01953V43.9805C180 46.1968 181.803 48 184.02 48H223.98C226.197 48 228 46.1968 228 43.9805V4.01953C228 1.80319 226.197 0 223.98 0Z" fill="black"/>
<path d="M203.968 11.085C200.587 11.085 197.837 13.8354 197.837 17.2162C197.837 20.597 200.587 23.3475 203.968 23.3475C207.349 23.3475 210.099 20.597 210.099 17.2162C210.099 13.8354 207.349 11.085 203.968 11.085ZM203.968 21.9103C201.379 21.9103 199.274 19.8045 199.274 17.2162C199.274 14.628 201.379 12.5221 203.968 12.5221C206.556 12.5221 208.662 14.628 208.662 17.2162C208.662 19.8045 206.556 21.9103 203.968 21.9103Z" fill="black"/>
<path d="M209.201 24.709H198.246C194.285 24.709 191.062 27.9317 191.062 31.893V35.3834C191.062 36.1794 191.71 36.827 192.506 36.827H198.635C199.032 36.827 199.353 36.5053 199.353 36.1084C199.353 35.7116 199.032 35.3898 198.635 35.3898L197.582 35.3887V32.0231C197.582 31.6262 197.26 31.3045 196.863 31.3045C196.466 31.3045 196.144 31.6262 196.144 32.0231V35.3872L192.499 35.3834V31.893C192.499 28.7241 195.077 26.1461 198.246 26.1461H209.201C212.37 26.1461 214.948 28.7241 214.948 31.893L214.941 35.3898H211.265V32.0231C211.265 31.6262 210.943 31.3045 210.546 31.3045C210.149 31.3045 209.828 31.6262 209.828 32.0231V35.3898H202.084C201.687 35.3898 201.365 35.7116 201.365 36.1084C201.365 36.5053 201.687 36.827 202.084 36.827H214.941C215.737 36.827 216.385 36.1794 216.385 35.3834V31.893C216.385 27.9316 213.162 24.709 209.201 24.709Z" fill="black"/>
<path d="M223.98 60H193.509C193.112 60 192.79 60.3218 192.79 60.7186C192.79 61.1154 193.112 61.4372 193.509 61.4372H223.98C225.404 61.4372 226.563 62.5957 226.563 64.0195V103.98C226.563 105.404 225.404 106.563 223.98 106.563H184.02C182.596 106.563 181.437 105.404 181.437 103.98V64.0195C181.437 62.5956 182.596 61.4372 184.02 61.4372H189.788C190.185 61.4372 190.507 61.1154 190.507 60.7186C190.507 60.3218 190.185 60 189.788 60H184.02C181.803 60 180 61.8032 180 64.0195V103.98C180 106.197 181.803 108 184.02 108H223.98C226.197 108 228 106.197 228 103.98V64.0195C228 61.8032 226.197 60 223.98 60Z" fill="black"/>
<path d="M203.968 71.085C200.587 71.085 197.837 73.8354 197.837 77.2162C197.837 80.597 200.587 83.3475 203.968 83.3475C207.349 83.3475 210.099 80.597 210.099 77.2162C210.099 73.8354 207.349 71.085 203.968 71.085ZM203.968 81.9103C201.379 81.9103 199.274 79.8045 199.274 77.2162C199.274 74.628 201.379 72.5221 203.968 72.5221C206.556 72.5221 208.662 74.628 208.662 77.2162C208.662 79.8045 206.556 81.9103 203.968 81.9103Z" fill="black"/>
<path d="M209.201 84.709H198.246C194.285 84.709 191.062 87.9317 191.062 91.893V95.3834C191.062 96.1794 191.71 96.827 192.506 96.827H198.635C199.032 96.827 199.353 96.5053 199.353 96.1084C199.353 95.7116 199.032 95.3898 198.635 95.3898L197.582 95.3887V92.0231C197.582 91.6262 197.26 91.3045 196.863 91.3045C196.466 91.3045 196.144 91.6262 196.144 92.0231V95.3872L192.499 95.3834V91.893C192.499 88.7241 195.077 86.1461 198.246 86.1461H209.201C212.37 86.1461 214.948 88.7241 214.948 91.893L214.941 95.3898H211.265V92.0231C211.265 91.6262 210.943 91.3045 210.546 91.3045C210.149 91.3045 209.828 91.6262 209.828 92.0231V95.3898H202.084C201.687 95.3898 201.365 95.7116 201.365 96.1084C201.365 96.5053 201.687 96.827 202.084 96.827H214.941C215.737 96.827 216.385 96.1794 216.385 95.3834V91.893C216.385 87.9316 213.162 84.709 209.201 84.709Z" fill="black"/>
<path d="M223.98 120H193.509C193.112 120 192.79 120.322 192.79 120.719C192.79 121.115 193.112 121.437 193.509 121.437H223.98C225.404 121.437 226.563 122.596 226.563 124.02V163.98C226.563 165.404 225.404 166.563 223.98 166.563H184.02C182.596 166.563 181.437 165.404 181.437 163.98V124.02C181.437 122.596 182.596 121.437 184.02 121.437H189.788C190.185 121.437 190.507 121.115 190.507 120.719C190.507 120.322 190.185 120 189.788 120H184.02C181.803 120 180 121.803 180 124.02V163.98C180 166.197 181.803 168 184.02 168H223.98C226.197 168 228 166.197 228 163.98V124.02C228 121.803 226.197 120 223.98 120Z" fill="black"/>
<path d="M203.968 131.085C200.587 131.085 197.837 133.835 197.837 137.216C197.837 140.597 200.587 143.347 203.968 143.347C207.349 143.347 210.099 140.597 210.099 137.216C210.099 133.835 207.349 131.085 203.968 131.085ZM203.968 141.91C201.379 141.91 199.274 139.804 199.274 137.216C199.274 134.628 201.379 132.522 203.968 132.522C206.556 132.522 208.662 134.628 208.662 137.216C208.662 139.804 206.556 141.91 203.968 141.91Z" fill="black"/>
<path d="M209.201 144.709H198.246C194.285 144.709 191.062 147.932 191.062 151.893V155.383C191.062 156.179 191.71 156.827 192.506 156.827H198.635C199.032 156.827 199.353 156.505 199.353 156.108C199.353 155.712 199.032 155.39 198.635 155.39L197.582 155.389V152.023C197.582 151.626 197.26 151.304 196.863 151.304C196.466 151.304 196.144 151.626 196.144 152.023V155.387L192.499 155.383V151.893C192.499 148.724 195.077 146.146 198.246 146.146H209.201C212.37 146.146 214.948 148.724 214.948 151.893L214.941 155.39H211.265V152.023C211.265 151.626 210.943 151.304 210.546 151.304C210.149 151.304 209.828 151.626 209.828 152.023V155.39H202.084C201.687 155.39 201.365 155.712 201.365 156.108C201.365 156.505 201.687 156.827 202.084 156.827H214.941C215.737 156.827 216.385 156.179 216.385 155.383V151.893C216.385 147.932 213.162 144.709 209.201 144.709Z" fill="black"/>
<path d="M223.98 180H193.509C193.112 180 192.79 180.322 192.79 180.719C192.79 181.115 193.112 181.437 193.509 181.437H223.98C225.404 181.437 226.563 182.596 226.563 184.02V223.98C226.563 225.404 225.404 226.563 223.98 226.563H184.02C182.596 226.563 181.437 225.404 181.437 223.98V184.02C181.437 182.596 182.596 181.437 184.02 181.437H189.788C190.185 181.437 190.507 181.115 190.507 180.719C190.507 180.322 190.185 180 189.788 180H184.02C181.803 180 180 181.803 180 184.02V223.98C180 226.197 181.803 228 184.02 228H223.98C226.197 228 228 226.197 228 223.98V184.02C228 181.803 226.197 180 223.98 180Z" fill="#C4C4C4"/>
<path d="M203.968 191.085C200.587 191.085 197.837 193.835 197.837 197.216C197.837 200.597 200.587 203.347 203.968 203.347C207.349 203.347 210.099 200.597 210.099 197.216C210.099 193.835 207.349 191.085 203.968 191.085ZM203.968 201.91C201.379 201.91 199.274 199.804 199.274 197.216C199.274 194.628 201.379 192.522 203.968 192.522C206.556 192.522 208.662 194.628 208.662 197.216C208.662 199.804 206.556 201.91 203.968 201.91Z" fill="#C4C4C4"/>
<path d="M209.201 204.709H198.246C194.285 204.709 191.062 207.932 191.062 211.893V215.383C191.062 216.179 191.71 216.827 192.506 216.827H198.635C199.032 216.827 199.353 216.505 199.353 216.108C199.353 215.712 199.032 215.39 198.635 215.39L197.582 215.389V212.023C197.582 211.626 197.26 211.304 196.863 211.304C196.466 211.304 196.144 211.626 196.144 212.023V215.387L192.499 215.383V211.893C192.499 208.724 195.077 206.146 198.246 206.146H209.201C212.37 206.146 214.948 208.724 214.948 211.893L214.941 215.39H211.265V212.023C211.265 211.626 210.943 211.304 210.546 211.304C210.149 211.304 209.828 211.626 209.828 212.023V215.39H202.084C201.687 215.39 201.365 215.712 201.365 216.108C201.365 216.505 201.687 216.827 202.084 216.827H214.941C215.737 216.827 216.385 216.179 216.385 215.383V211.893C216.385 207.932 213.162 204.709 209.201 204.709Z" fill="#C4C4C4"/>
<path d="M283.98 0H253.509C253.112 0 252.79 0.32175 252.79 0.718594C252.79 1.11544 253.112 1.43719 253.509 1.43719H283.98C285.404 1.43719 286.563 2.59566 286.563 4.01953V43.9805C286.563 45.4044 285.404 46.5628 283.98 46.5628H244.02C242.596 46.5628 241.437 45.4043 241.437 43.9805V4.01953C241.437 2.59556 242.596 1.43719 244.02 1.43719H249.788C250.185 1.43719 250.507 1.11544 250.507 0.718594C250.507 0.32175 250.185 0 249.788 0H244.02C241.803 0 240 1.80319 240 4.01953V43.9805C240 46.1968 241.803 48 244.02 48H283.98C286.197 48 288 46.1968 288 43.9805V4.01953C288 1.80319 286.197 0 283.98 0Z" fill="black"/>
<path d="M263.968 11.085C260.587 11.085 257.837 13.8354 257.837 17.2162C257.837 20.597 260.587 23.3475 263.968 23.3475C267.349 23.3475 270.099 20.597 270.099 17.2162C270.099 13.8354 267.349 11.085 263.968 11.085ZM263.968 21.9103C261.379 21.9103 259.274 19.8045 259.274 17.2162C259.274 14.628 261.379 12.5221 263.968 12.5221C266.556 12.5221 268.662 14.628 268.662 17.2162C268.662 19.8045 266.556 21.9103 263.968 21.9103Z" fill="black"/>
<path d="M269.201 24.709H258.246C254.285 24.709 251.062 27.9317 251.062 31.893V35.3834C251.062 36.1794 251.71 36.827 252.506 36.827H258.635C259.032 36.827 259.353 36.5053 259.353 36.1084C259.353 35.7116 259.032 35.3898 258.635 35.3898L257.582 35.3887V32.0231C257.582 31.6262 257.26 31.3045 256.863 31.3045C256.466 31.3045 256.144 31.6262 256.144 32.0231V35.3872L252.499 35.3834V31.893C252.499 28.7241 255.077 26.1461 258.246 26.1461H269.201C272.37 26.1461 274.948 28.7241 274.948 31.893L274.941 35.3898H271.265V32.0231C271.265 31.6262 270.943 31.3045 270.546 31.3045C270.149 31.3045 269.828 31.6262 269.828 32.0231V35.3898H262.084C261.687 35.3898 261.365 35.7116 261.365 36.1084C261.365 36.5053 261.687 36.827 262.084 36.827H274.941C275.737 36.827 276.385 36.1794 276.385 35.3834V31.893C276.385 27.9316 273.162 24.709 269.201 24.709Z" fill="black"/>
<path d="M283.98 60H253.509C253.112 60 252.79 60.3218 252.79 60.7186C252.79 61.1154 253.112 61.4372 253.509 61.4372H283.98C285.404 61.4372 286.563 62.5957 286.563 64.0195V103.98C286.563 105.404 285.404 106.563 283.98 106.563H244.02C242.596 106.563 241.437 105.404 241.437 103.98V64.0195C241.437 62.5956 242.596 61.4372 244.02 61.4372H249.788C250.185 61.4372 250.507 61.1154 250.507 60.7186C250.507 60.3218 250.185 60 249.788 60H244.02C241.803 60 240 61.8032 240 64.0195V103.98C240 106.197 241.803 108 244.02 108H283.98C286.197 108 288 106.197 288 103.98V64.0195C288 61.8032 286.197 60 283.98 60Z" fill="black"/>
<path d="M263.968 71.085C260.587 71.085 257.837 73.8354 257.837 77.2162C257.837 80.597 260.587 83.3475 263.968 83.3475C267.349 83.3475 270.099 80.597 270.099 77.2162C270.099 73.8354 267.349 71.085 263.968 71.085ZM263.968 81.9103C261.379 81.9103 259.274 79.8045 259.274 77.2162C259.274 74.628 261.379 72.5221 263.968 72.5221C266.556 72.5221 268.662 74.628 268.662 77.2162C268.662 79.8045 266.556 81.9103 263.968 81.9103Z" fill="black"/>
<path d="M269.201 84.709H258.246C254.285 84.709 251.062 87.9317 251.062 91.893V95.3834C251.062 96.1794 251.71 96.827 252.506 96.827H258.635C259.032 96.827 259.353 96.5053 259.353 96.1084C259.353 95.7116 259.032 95.3898 258.635 95.3898L257.582 95.3887V92.0231C257.582 91.6262 257.26 91.3045 256.863 91.3045C256.466 91.3045 256.144 91.6262 256.144 92.0231V95.3872L252.499 95.3834V91.893C252.499 88.7241 255.077 86.1461 258.246 86.1461H269.201C272.37 86.1461 274.948 88.7241 274.948 91.893L274.941 95.3898H271.265V92.0231C271.265 91.6262 270.943 91.3045 270.546 91.3045C270.149 91.3045 269.828 91.6262 269.828 92.0231V95.3898H262.084C261.687 95.3898 261.365 95.7116 261.365 96.1084C261.365 96.5053 261.687 96.827 262.084 96.827H274.941C275.737 96.827 276.385 96.1794 276.385 95.3834V91.893C276.385 87.9316 273.162 84.709 269.201 84.709Z" fill="black"/>
<path d="M283.98 120H253.509C253.112 120 252.79 120.322 252.79 120.719C252.79 121.115 253.112 121.437 253.509 121.437H283.98C285.404 121.437 286.563 122.596 286.563 124.02V163.98C286.563 165.404 285.404 166.563 283.98 166.563H244.02C242.596 166.563 241.437 165.404 241.437 163.98V124.02C241.437 122.596 242.596 121.437 244.02 121.437H249.788C250.185 121.437 250.507 121.115 250.507 120.719C250.507 120.322 250.185 120 249.788 120H244.02C241.803 120 240 121.803 240 124.02V163.98C240 166.197 241.803 168 244.02 168H283.98C286.197 168 288 166.197 288 163.98V124.02C288 121.803 286.197 120 283.98 120Z" fill="black"/>
<path d="M263.968 131.085C260.587 131.085 257.837 133.835 257.837 137.216C257.837 140.597 260.587 143.347 263.968 143.347C267.349 143.347 270.099 140.597 270.099 137.216C270.099 133.835 267.349 131.085 263.968 131.085ZM263.968 141.91C261.379 141.91 259.274 139.804 259.274 137.216C259.274 134.628 261.379 132.522 263.968 132.522C266.556 132.522 268.662 134.628 268.662 137.216C268.662 139.804 266.556 141.91 263.968 141.91Z" fill="black"/>
<path d="M269.201 144.709H258.246C254.285 144.709 251.062 147.932 251.062 151.893V155.383C251.062 156.179 251.71 156.827 252.506 156.827H258.635C259.032 156.827 259.353 156.505 259.353 156.108C259.353 155.712 259.032 155.39 258.635 155.39L257.582 155.389V152.023C257.582 151.626 257.26 151.304 256.863 151.304C256.466 151.304 256.144 151.626 256.144 152.023V155.387L252.499 155.383V151.893C252.499 148.724 255.077 146.146 258.246 146.146H269.201C272.37 146.146 274.948 148.724 274.948 151.893L274.941 155.39H271.265V152.023C271.265 151.626 270.943 151.304 270.546 151.304C270.149 151.304 269.828 151.626 269.828 152.023V155.39H262.084C261.687 155.39 261.365 155.712 261.365 156.108C261.365 156.505 261.687 156.827 262.084 156.827H274.941C275.737 156.827 276.385 156.179 276.385 155.383V151.893C276.385 147.932 273.162 144.709 269.201 144.709Z" fill="black"/>
<path d="M283.98 180H253.509C253.112 180 252.79 180.322 252.79 180.719C252.79 181.115 253.112 181.437 253.509 181.437H283.98C285.404 181.437 286.563 182.596 286.563 184.02V223.98C286.563 225.404 285.404 226.563 283.98 226.563H244.02C242.596 226.563 241.437 225.404 241.437 223.98V184.02C241.437 182.596 242.596 181.437 244.02 181.437H249.788C250.185 181.437 250.507 181.115 250.507 180.719C250.507 180.322 250.185 180 249.788 180H244.02C241.803 180 240 181.803 240 184.02V223.98C240 226.197 241.803 228 244.02 228H283.98C286.197 228 288 226.197 288 223.98V184.02C288 181.803 286.197 180 283.98 180Z" fill="#C4C4C4"/>
<path d="M263.968 191.085C260.587 191.085 257.837 193.835 257.837 197.216C257.837 200.597 260.587 203.347 263.968 203.347C267.349 203.347 270.099 200.597 270.099 197.216C270.099 193.835 267.349 191.085 263.968 191.085ZM263.968 201.91C261.379 201.91 259.274 199.804 259.274 197.216C259.274 194.628 261.379 192.522 263.968 192.522C266.556 192.522 268.662 194.628 268.662 197.216C268.662 199.804 266.556 201.91 263.968 201.91Z" fill="#C4C4C4"/>
<path d="M269.201 204.709H258.246C254.285 204.709 251.062 207.932 251.062 211.893V215.383C251.062 216.179 251.71 216.827 252.506 216.827H258.635C259.032 216.827 259.353 216.505 259.353 216.108C259.353 215.712 259.032 215.39 258.635 215.39L257.582 215.389V212.023C257.582 211.626 257.26 211.304 256.863 211.304C256.466 211.304 256.144 211.626 256.144 212.023V215.387L252.499 215.383V211.893C252.499 208.724 255.077 206.146 258.246 206.146H269.201C272.37 206.146 274.948 208.724 274.948 211.893L274.941 215.39H271.265V212.023C271.265 211.626 270.943 211.304 270.546 211.304C270.149 211.304 269.828 211.626 269.828 212.023V215.39H262.084C261.687 215.39 261.365 215.712 261.365 216.108C261.365 216.505 261.687 216.827 262.084 216.827H274.941C275.737 216.827 276.385 216.179 276.385 215.383V211.893C276.385 207.932 273.162 204.709 269.201 204.709Z" fill="#C4C4C4"/>
<path d="M43.9805 0H13.509C13.1122 0 12.7904 0.32175 12.7904 0.718594C12.7904 1.11544 13.1122 1.43719 13.509 1.43719H43.9805C45.4044 1.43719 46.5628 2.59566 46.5628 4.01953V43.9805C46.5628 45.4044 45.4043 46.5628 43.9805 46.5628H4.01953C2.59556 46.5628 1.43719 45.4043 1.43719 43.9805V4.01953C1.43719 2.59556 2.59566 1.43719 4.01953 1.43719H9.78844C10.1853 1.43719 10.507 1.11544 10.507 0.718594C10.507 0.32175 10.1853 0 9.78844 0H4.01953C1.80319 0 0 1.80319 0 4.01953V43.9805C0 46.1968 1.80319 48 4.01953 48H43.9805C46.1968 48 48 46.1968 48 43.9805V4.01953C48 1.80319 46.1968 0 43.9805 0Z" fill="black"/>
<path d="M23.9678 11.085C20.5871 11.085 17.8366 13.8354 17.8366 17.2162C17.8366 20.597 20.587 23.3475 23.9678 23.3475C27.3487 23.3475 30.0991 20.597 30.0991 17.2162C30.0991 13.8354 27.3487 11.085 23.9678 11.085ZM23.9678 21.9103C21.3795 21.9103 19.2738 19.8045 19.2738 17.2162C19.2738 14.628 21.3795 12.5221 23.9678 12.5221C26.5562 12.5221 28.662 14.628 28.662 17.2162C28.662 19.8045 26.5562 21.9103 23.9678 21.9103Z" fill="black"/>
<path d="M29.2007 24.709H18.246C14.2848 24.709 11.062 27.9317 11.062 31.893V35.3834C11.062 36.1794 11.7097 36.827 12.5057 36.827H18.6348C19.0316 36.827 19.3534 36.5053 19.3534 36.1084C19.3534 35.7116 19.0316 35.3898 18.6348 35.3898L17.5816 35.3887V32.0231C17.5816 31.6262 17.2599 31.3045 16.863 31.3045C16.4662 31.3045 16.1444 31.6262 16.1444 32.0231V35.3872L12.4991 35.3834V31.893C12.4991 28.7241 15.0772 26.1461 18.246 26.1461H29.2008C32.3695 26.1461 34.9476 28.7241 34.9476 31.893L34.9411 35.3898H31.2649V32.0231C31.2649 31.6262 30.9431 31.3045 30.5463 31.3045C30.1494 31.3045 29.8277 31.6262 29.8277 32.0231V35.3898H22.0838C21.6869 35.3898 21.3652 35.7116 21.3652 36.1084C21.3652 36.5053 21.6869 36.827 22.0838 36.827H34.941C35.737 36.827 36.3847 36.1794 36.3847 35.3834V31.893C36.3847 27.9316 33.1619 24.709 29.2007 24.709Z" fill="black"/>
<path d="M43.9805 60H13.509C13.1122 60 12.7904 60.3218 12.7904 60.7186C12.7904 61.1154 13.1122 61.4372 13.509 61.4372H43.9805C45.4044 61.4372 46.5628 62.5957 46.5628 64.0195V103.98C46.5628 105.404 45.4043 106.563 43.9805 106.563H4.01953C2.59556 106.563 1.43719 105.404 1.43719 103.98V64.0195C1.43719 62.5956 2.59566 61.4372 4.01953 61.4372H9.78844C10.1853 61.4372 10.507 61.1154 10.507 60.7186C10.507 60.3218 10.1853 60 9.78844 60H4.01953C1.80319 60 0 61.8032 0 64.0195V103.98C0 106.197 1.80319 108 4.01953 108H43.9805C46.1968 108 48 106.197 48 103.98V64.0195C48 61.8032 46.1968 60 43.9805 60Z" fill="black"/>
<path d="M23.9678 71.085C20.5871 71.085 17.8366 73.8354 17.8366 77.2162C17.8366 80.597 20.587 83.3475 23.9678 83.3475C27.3487 83.3475 30.0991 80.597 30.0991 77.2162C30.0991 73.8354 27.3487 71.085 23.9678 71.085ZM23.9678 81.9103C21.3795 81.9103 19.2738 79.8045 19.2738 77.2162C19.2738 74.628 21.3795 72.5221 23.9678 72.5221C26.5562 72.5221 28.662 74.628 28.662 77.2162C28.662 79.8045 26.5562 81.9103 23.9678 81.9103Z" fill="black"/>
<path d="M29.2007 84.709H18.246C14.2848 84.709 11.062 87.9317 11.062 91.893V95.3834C11.062 96.1794 11.7097 96.827 12.5057 96.827H18.6348C19.0316 96.827 19.3534 96.5053 19.3534 96.1084C19.3534 95.7116 19.0316 95.3898 18.6348 95.3898L17.5816 95.3887V92.0231C17.5816 91.6262 17.2599 91.3045 16.863 91.3045C16.4662 91.3045 16.1444 91.6262 16.1444 92.0231V95.3872L12.4991 95.3834V91.893C12.4991 88.7241 15.0772 86.1461 18.246 86.1461H29.2008C32.3695 86.1461 34.9476 88.7241 34.9476 91.893L34.9411 95.3898H31.2649V92.0231C31.2649 91.6262 30.9431 91.3045 30.5463 91.3045C30.1494 91.3045 29.8277 91.6262 29.8277 92.0231V95.3898H22.0838C21.6869 95.3898 21.3652 95.7116 21.3652 96.1084C21.3652 96.5053 21.6869 96.827 22.0838 96.827H34.941C35.737 96.827 36.3847 96.1794 36.3847 95.3834V91.893C36.3847 87.9316 33.1619 84.709 29.2007 84.709Z" fill="black"/>
<path d="M43.9805 120H13.509C13.1122 120 12.7904 120.322 12.7904 120.719C12.7904 121.115 13.1122 121.437 13.509 121.437H43.9805C45.4044 121.437 46.5628 122.596 46.5628 124.02V163.98C46.5628 165.404 45.4043 166.563 43.9805 166.563H4.01953C2.59556 166.563 1.43719 165.404 1.43719 163.98V124.02C1.43719 122.596 2.59566 121.437 4.01953 121.437H9.78844C10.1853 121.437 10.507 121.115 10.507 120.719C10.507 120.322 10.1853 120 9.78844 120H4.01953C1.80319 120 0 121.803 0 124.02V163.98C0 166.197 1.80319 168 4.01953 168H43.9805C46.1968 168 48 166.197 48 163.98V124.02C48 121.803 46.1968 120 43.9805 120Z" fill="black"/>
<path d="M23.9678 131.085C20.5871 131.085 17.8366 133.835 17.8366 137.216C17.8366 140.597 20.587 143.347 23.9678 143.347C27.3487 143.347 30.0991 140.597 30.0991 137.216C30.0991 133.835 27.3487 131.085 23.9678 131.085ZM23.9678 141.91C21.3795 141.91 19.2738 139.804 19.2738 137.216C19.2738 134.628 21.3795 132.522 23.9678 132.522C26.5562 132.522 28.662 134.628 28.662 137.216C28.662 139.804 26.5562 141.91 23.9678 141.91Z" fill="black"/>
<path d="M29.2007 144.709H18.246C14.2848 144.709 11.062 147.932 11.062 151.893V155.383C11.062 156.179 11.7097 156.827 12.5057 156.827H18.6348C19.0316 156.827 19.3534 156.505 19.3534 156.108C19.3534 155.712 19.0316 155.39 18.6348 155.39L17.5816 155.389V152.023C17.5816 151.626 17.2599 151.304 16.863 151.304C16.4662 151.304 16.1444 151.626 16.1444 152.023V155.387L12.4991 155.383V151.893C12.4991 148.724 15.0772 146.146 18.246 146.146H29.2008C32.3695 146.146 34.9476 148.724 34.9476 151.893L34.9411 155.39H31.2649V152.023C31.2649 151.626 30.9431 151.304 30.5463 151.304C30.1494 151.304 29.8277 151.626 29.8277 152.023V155.39H22.0838C21.6869 155.39 21.3652 155.712 21.3652 156.108C21.3652 156.505 21.6869 156.827 22.0838 156.827H34.941C35.737 156.827 36.3847 156.179 36.3847 155.383V151.893C36.3847 147.932 33.1619 144.709 29.2007 144.709Z" fill="black"/>
<path d="M43.9805 180H13.509C13.1122 180 12.7904 180.322 12.7904 180.719C12.7904 181.115 13.1122 181.437 13.509 181.437H43.9805C45.4044 181.437 46.5628 182.596 46.5628 184.02V223.98C46.5628 225.404 45.4043 226.563 43.9805 226.563H4.01953C2.59556 226.563 1.43719 225.404 1.43719 223.98V184.02C1.43719 182.596 2.59566 181.437 4.01953 181.437H9.78844C10.1853 181.437 10.507 181.115 10.507 180.719C10.507 180.322 10.1853 180 9.78844 180H4.01953C1.80319 180 0 181.803 0 184.02V223.98C0 226.197 1.80319 228 4.01953 228H43.9805C46.1968 228 48 226.197 48 223.98V184.02C48 181.803 46.1968 180 43.9805 180Z" fill="black"/>
<path d="M23.9678 191.085C20.5871 191.085 17.8366 193.835 17.8366 197.216C17.8366 200.597 20.587 203.347 23.9678 203.347C27.3487 203.347 30.0991 200.597 30.0991 197.216C30.0991 193.835 27.3487 191.085 23.9678 191.085ZM23.9678 201.91C21.3795 201.91 19.2738 199.804 19.2738 197.216C19.2738 194.628 21.3795 192.522 23.9678 192.522C26.5562 192.522 28.662 194.628 28.662 197.216C28.662 199.804 26.5562 201.91 23.9678 201.91Z" fill="black"/>
<path d="M29.2007 204.709H18.246C14.2848 204.709 11.062 207.932 11.062 211.893V215.383C11.062 216.179 11.7097 216.827 12.5057 216.827H18.6348C19.0316 216.827 19.3534 216.505 19.3534 216.108C19.3534 215.712 19.0316 215.39 18.6348 215.39L17.5816 215.389V212.023C17.5816 211.626 17.2599 211.304 16.863 211.304C16.4662 211.304 16.1444 211.626 16.1444 212.023V215.387L12.4991 215.383V211.893C12.4991 208.724 15.0772 206.146 18.246 206.146H29.2008C32.3695 206.146 34.9476 208.724 34.9476 211.893L34.9411 215.39H31.2649V212.023C31.2649 211.626 30.9431 211.304 30.5463 211.304C30.1494 211.304 29.8277 211.626 29.8277 212.023V215.39H22.0838C21.6869 215.39 21.3652 215.712 21.3652 216.108C21.3652 216.505 21.6869 216.827 22.0838 216.827H34.941C35.737 216.827 36.3847 216.179 36.3847 215.383V211.893C36.3847 207.932 33.1619 204.709 29.2007 204.709Z" fill="black"/>
<path d="M103.98 0H73.509C73.1122 0 72.7904 0.32175 72.7904 0.718594C72.7904 1.11544 73.1122 1.43719 73.509 1.43719H103.98C105.404 1.43719 106.563 2.59566 106.563 4.01953V43.9805C106.563 45.4044 105.404 46.5628 103.98 46.5628H64.0195C62.5956 46.5628 61.4372 45.4043 61.4372 43.9805V4.01953C61.4372 2.59556 62.5957 1.43719 64.0195 1.43719H69.7884C70.1853 1.43719 70.507 1.11544 70.507 0.718594C70.507 0.32175 70.1853 0 69.7884 0H64.0195C61.8032 0 60 1.80319 60 4.01953V43.9805C60 46.1968 61.8032 48 64.0195 48H103.98C106.197 48 108 46.1968 108 43.9805V4.01953C108 1.80319 106.197 0 103.98 0Z" fill="black"/>
<path d="M83.9678 11.085C80.5871 11.085 77.8366 13.8354 77.8366 17.2162C77.8366 20.597 80.587 23.3475 83.9678 23.3475C87.3487 23.3475 90.0991 20.597 90.0991 17.2162C90.0991 13.8354 87.3487 11.085 83.9678 11.085ZM83.9678 21.9103C81.3795 21.9103 79.2738 19.8045 79.2738 17.2162C79.2738 14.628 81.3795 12.5221 83.9678 12.5221C86.5562 12.5221 88.662 14.628 88.662 17.2162C88.662 19.8045 86.5562 21.9103 83.9678 21.9103Z" fill="black"/>
<path d="M89.2007 24.709H78.246C74.2848 24.709 71.062 27.9317 71.062 31.893V35.3834C71.062 36.1794 71.7097 36.827 72.5057 36.827H78.6348C79.0316 36.827 79.3534 36.5053 79.3534 36.1084C79.3534 35.7116 79.0316 35.3898 78.6348 35.3898L77.5816 35.3887V32.0231C77.5816 31.6262 77.2599 31.3045 76.863 31.3045C76.4662 31.3045 76.1444 31.6262 76.1444 32.0231V35.3872L72.4991 35.3834V31.893C72.4991 28.7241 75.0772 26.1461 78.246 26.1461H89.2008C92.3695 26.1461 94.9476 28.7241 94.9476 31.893L94.9411 35.3898H91.2649V32.0231C91.2649 31.6262 90.9431 31.3045 90.5463 31.3045C90.1494 31.3045 89.8277 31.6262 89.8277 32.0231V35.3898H82.0838C81.6869 35.3898 81.3652 35.7116 81.3652 36.1084C81.3652 36.5053 81.6869 36.827 82.0838 36.827H94.941C95.737 36.827 96.3847 36.1794 96.3847 35.3834V31.893C96.3847 27.9316 93.1619 24.709 89.2007 24.709Z" fill="black"/>
<path d="M103.98 60H73.509C73.1122 60 72.7904 60.3218 72.7904 60.7186C72.7904 61.1154 73.1122 61.4372 73.509 61.4372H103.98C105.404 61.4372 106.563 62.5957 106.563 64.0195V103.98C106.563 105.404 105.404 106.563 103.98 106.563H64.0195C62.5956 106.563 61.4372 105.404 61.4372 103.98V64.0195C61.4372 62.5956 62.5957 61.4372 64.0195 61.4372H69.7884C70.1853 61.4372 70.507 61.1154 70.507 60.7186C70.507 60.3218 70.1853 60 69.7884 60H64.0195C61.8032 60 60 61.8032 60 64.0195V103.98C60 106.197 61.8032 108 64.0195 108H103.98C106.197 108 108 106.197 108 103.98V64.0195C108 61.8032 106.197 60 103.98 60Z" fill="black"/>
<path d="M83.9678 71.085C80.5871 71.085 77.8366 73.8354 77.8366 77.2162C77.8366 80.597 80.587 83.3475 83.9678 83.3475C87.3487 83.3475 90.0991 80.597 90.0991 77.2162C90.0991 73.8354 87.3487 71.085 83.9678 71.085ZM83.9678 81.9103C81.3795 81.9103 79.2738 79.8045 79.2738 77.2162C79.2738 74.628 81.3795 72.5221 83.9678 72.5221C86.5562 72.5221 88.662 74.628 88.662 77.2162C88.662 79.8045 86.5562 81.9103 83.9678 81.9103Z" fill="black"/>
<path d="M89.2007 84.709H78.246C74.2848 84.709 71.062 87.9317 71.062 91.893V95.3834C71.062 96.1794 71.7097 96.827 72.5057 96.827H78.6348C79.0316 96.827 79.3534 96.5053 79.3534 96.1084C79.3534 95.7116 79.0316 95.3898 78.6348 95.3898L77.5816 95.3887V92.0231C77.5816 91.6262 77.2599 91.3045 76.863 91.3045C76.4662 91.3045 76.1444 91.6262 76.1444 92.0231V95.3872L72.4991 95.3834V91.893C72.4991 88.7241 75.0772 86.1461 78.246 86.1461H89.2008C92.3695 86.1461 94.9476 88.7241 94.9476 91.893L94.9411 95.3898H91.2649V92.0231C91.2649 91.6262 90.9431 91.3045 90.5463 91.3045C90.1494 91.3045 89.8277 91.6262 89.8277 92.0231V95.3898H82.0838C81.6869 95.3898 81.3652 95.7116 81.3652 96.1084C81.3652 96.5053 81.6869 96.827 82.0838 96.827H94.941C95.737 96.827 96.3847 96.1794 96.3847 95.3834V91.893C96.3847 87.9316 93.1619 84.709 89.2007 84.709Z" fill="black"/>
<path d="M103.98 120H73.509C73.1122 120 72.7904 120.322 72.7904 120.719C72.7904 121.115 73.1122 121.437 73.509 121.437H103.98C105.404 121.437 106.563 122.596 106.563 124.02V163.98C106.563 165.404 105.404 166.563 103.98 166.563H64.0195C62.5956 166.563 61.4372 165.404 61.4372 163.98V124.02C61.4372 122.596 62.5957 121.437 64.0195 121.437H69.7884C70.1853 121.437 70.507 121.115 70.507 120.719C70.507 120.322 70.1853 120 69.7884 120H64.0195C61.8032 120 60 121.803 60 124.02V163.98C60 166.197 61.8032 168 64.0195 168H103.98C106.197 168 108 166.197 108 163.98V124.02C108 121.803 106.197 120 103.98 120Z" fill="black"/>
<path d="M83.9678 131.085C80.5871 131.085 77.8366 133.835 77.8366 137.216C77.8366 140.597 80.587 143.347 83.9678 143.347C87.3487 143.347 90.0991 140.597 90.0991 137.216C90.0991 133.835 87.3487 131.085 83.9678 131.085ZM83.9678 141.91C81.3795 141.91 79.2738 139.804 79.2738 137.216C79.2738 134.628 81.3795 132.522 83.9678 132.522C86.5562 132.522 88.662 134.628 88.662 137.216C88.662 139.804 86.5562 141.91 83.9678 141.91Z" fill="black"/>
<path d="M89.2007 144.709H78.246C74.2848 144.709 71.062 147.932 71.062 151.893V155.383C71.062 156.179 71.7097 156.827 72.5057 156.827H78.6348C79.0316 156.827 79.3534 156.505 79.3534 156.108C79.3534 155.712 79.0316 155.39 78.6348 155.39L77.5816 155.389V152.023C77.5816 151.626 77.2599 151.304 76.863 151.304C76.4662 151.304 76.1444 151.626 76.1444 152.023V155.387L72.4991 155.383V151.893C72.4991 148.724 75.0772 146.146 78.246 146.146H89.2008C92.3695 146.146 94.9476 148.724 94.9476 151.893L94.9411 155.39H91.2649V152.023C91.2649 151.626 90.9431 151.304 90.5463 151.304C90.1494 151.304 89.8277 151.626 89.8277 152.023V155.39H82.0838C81.6869 155.39 81.3652 155.712 81.3652 156.108C81.3652 156.505 81.6869 156.827 82.0838 156.827H94.941C95.737 156.827 96.3847 156.179 96.3847 155.383V151.893C96.3847 147.932 93.1619 144.709 89.2007 144.709Z" fill="black"/>
<path d="M103.98 180H73.509C73.1122 180 72.7904 180.322 72.7904 180.719C72.7904 181.115 73.1122 181.437 73.509 181.437H103.98C105.404 181.437 106.563 182.596 106.563 184.02V223.98C106.563 225.404 105.404 226.563 103.98 226.563H64.0195C62.5956 226.563 61.4372 225.404 61.4372 223.98V184.02C61.4372 182.596 62.5957 181.437 64.0195 181.437H69.7884C70.1853 181.437 70.507 181.115 70.507 180.719C70.507 180.322 70.1853 180 69.7884 180H64.0195C61.8032 180 60 181.803 60 184.02V223.98C60 226.197 61.8032 228 64.0195 228H103.98C106.197 228 108 226.197 108 223.98V184.02C108 181.803 106.197 180 103.98 180Z" fill="black"/>
<path d="M83.9678 191.085C80.5871 191.085 77.8366 193.835 77.8366 197.216C77.8366 200.597 80.587 203.347 83.9678 203.347C87.3487 203.347 90.0991 200.597 90.0991 197.216C90.0991 193.835 87.3487 191.085 83.9678 191.085ZM83.9678 201.91C81.3795 201.91 79.2738 199.804 79.2738 197.216C79.2738 194.628 81.3795 192.522 83.9678 192.522C86.5562 192.522 88.662 194.628 88.662 197.216C88.662 199.804 86.5562 201.91 83.9678 201.91Z" fill="black"/>
<path d="M89.2007 204.709H78.246C74.2848 204.709 71.062 207.932 71.062 211.893V215.383C71.062 216.179 71.7097 216.827 72.5057 216.827H78.6348C79.0316 216.827 79.3534 216.505 79.3534 216.108C79.3534 215.712 79.0316 215.39 78.6348 215.39L77.5816 215.389V212.023C77.5816 211.626 77.2599 211.304 76.863 211.304C76.4662 211.304 76.1444 211.626 76.1444 212.023V215.387L72.4991 215.383V211.893C72.4991 208.724 75.0772 206.146 78.246 206.146H89.2008C92.3695 206.146 94.9476 208.724 94.9476 211.893L94.9411 215.39H91.2649V212.023C91.2649 211.626 90.9431 211.304 90.5463 211.304C90.1494 211.304 89.8277 211.626 89.8277 212.023V215.39H82.0838C81.6869 215.39 81.3652 215.712 81.3652 216.108C81.3652 216.505 81.6869 216.827 82.0838 216.827H94.941C95.737 216.827 96.3847 216.179 96.3847 215.383V211.893C96.3847 207.932 93.1619 204.709 89.2007 204.709Z" fill="black"/>
<path d="M163.98 0H133.509C133.112 0 132.79 0.32175 132.79 0.718594C132.79 1.11544 133.112 1.43719 133.509 1.43719H163.98C165.404 1.43719 166.563 2.59566 166.563 4.01953V43.9805C166.563 45.4044 165.404 46.5628 163.98 46.5628H124.02C122.596 46.5628 121.437 45.4043 121.437 43.9805V4.01953C121.437 2.59556 122.596 1.43719 124.02 1.43719H129.788C130.185 1.43719 130.507 1.11544 130.507 0.718594C130.507 0.32175 130.185 0 129.788 0H124.02C121.803 0 120 1.80319 120 4.01953V43.9805C120 46.1968 121.803 48 124.02 48H163.98C166.197 48 168 46.1968 168 43.9805V4.01953C168 1.80319 166.197 0 163.98 0Z" fill="black"/>
<path d="M143.968 11.085C140.587 11.085 137.837 13.8354 137.837 17.2162C137.837 20.597 140.587 23.3475 143.968 23.3475C147.349 23.3475 150.099 20.597 150.099 17.2162C150.099 13.8354 147.349 11.085 143.968 11.085ZM143.968 21.9103C141.379 21.9103 139.274 19.8045 139.274 17.2162C139.274 14.628 141.379 12.5221 143.968 12.5221C146.556 12.5221 148.662 14.628 148.662 17.2162C148.662 19.8045 146.556 21.9103 143.968 21.9103Z" fill="black"/>
<path d="M149.201 24.709H138.246C134.285 24.709 131.062 27.9317 131.062 31.893V35.3834C131.062 36.1794 131.71 36.827 132.506 36.827H138.635C139.032 36.827 139.353 36.5053 139.353 36.1084C139.353 35.7116 139.032 35.3898 138.635 35.3898L137.582 35.3887V32.0231C137.582 31.6262 137.26 31.3045 136.863 31.3045C136.466 31.3045 136.144 31.6262 136.144 32.0231V35.3872L132.499 35.3834V31.893C132.499 28.7241 135.077 26.1461 138.246 26.1461H149.201C152.37 26.1461 154.948 28.7241 154.948 31.893L154.941 35.3898H151.265V32.0231C151.265 31.6262 150.943 31.3045 150.546 31.3045C150.149 31.3045 149.828 31.6262 149.828 32.0231V35.3898H142.084C141.687 35.3898 141.365 35.7116 141.365 36.1084C141.365 36.5053 141.687 36.827 142.084 36.827H154.941C155.737 36.827 156.385 36.1794 156.385 35.3834V31.893C156.385 27.9316 153.162 24.709 149.201 24.709Z" fill="black"/>
<path d="M163.98 60H133.509C133.112 60 132.79 60.3218 132.79 60.7186C132.79 61.1154 133.112 61.4372 133.509 61.4372H163.98C165.404 61.4372 166.563 62.5957 166.563 64.0195V103.98C166.563 105.404 165.404 106.563 163.98 106.563H124.02C122.596 106.563 121.437 105.404 121.437 103.98V64.0195C121.437 62.5956 122.596 61.4372 124.02 61.4372H129.788C130.185 61.4372 130.507 61.1154 130.507 60.7186C130.507 60.3218 130.185 60 129.788 60H124.02C121.803 60 120 61.8032 120 64.0195V103.98C120 106.197 121.803 108 124.02 108H163.98C166.197 108 168 106.197 168 103.98V64.0195C168 61.8032 166.197 60 163.98 60Z" fill="black"/>
<path d="M143.968 71.085C140.587 71.085 137.837 73.8354 137.837 77.2162C137.837 80.597 140.587 83.3475 143.968 83.3475C147.349 83.3475 150.099 80.597 150.099 77.2162C150.099 73.8354 147.349 71.085 143.968 71.085ZM143.968 81.9103C141.379 81.9103 139.274 79.8045 139.274 77.2162C139.274 74.628 141.379 72.5221 143.968 72.5221C146.556 72.5221 148.662 74.628 148.662 77.2162C148.662 79.8045 146.556 81.9103 143.968 81.9103Z" fill="black"/>
<path d="M149.201 84.709H138.246C134.285 84.709 131.062 87.9317 131.062 91.893V95.3834C131.062 96.1794 131.71 96.827 132.506 96.827H138.635C139.032 96.827 139.353 96.5053 139.353 96.1084C139.353 95.7116 139.032 95.3898 138.635 95.3898L137.582 95.3887V92.0231C137.582 91.6262 137.26 91.3045 136.863 91.3045C136.466 91.3045 136.144 91.6262 136.144 92.0231V95.3872L132.499 95.3834V91.893C132.499 88.7241 135.077 86.1461 138.246 86.1461H149.201C152.37 86.1461 154.948 88.7241 154.948 91.893L154.941 95.3898H151.265V92.0231C151.265 91.6262 150.943 91.3045 150.546 91.3045C150.149 91.3045 149.828 91.6262 149.828 92.0231V95.3898H142.084C141.687 95.3898 141.365 95.7116 141.365 96.1084C141.365 96.5053 141.687 96.827 142.084 96.827H154.941C155.737 96.827 156.385 96.1794 156.385 95.3834V91.893C156.385 87.9316 153.162 84.709 149.201 84.709Z" fill="black"/>
<path d="M163.98 120H133.509C133.112 120 132.79 120.322 132.79 120.719C132.79 121.115 133.112 121.437 133.509 121.437H163.98C165.404 121.437 166.563 122.596 166.563 124.02V163.98C166.563 165.404 165.404 166.563 163.98 166.563H124.02C122.596 166.563 121.437 165.404 121.437 163.98V124.02C121.437 122.596 122.596 121.437 124.02 121.437H129.788C130.185 121.437 130.507 121.115 130.507 120.719C130.507 120.322 130.185 120 129.788 120H124.02C121.803 120 120 121.803 120 124.02V163.98C120 166.197 121.803 168 124.02 168H163.98C166.197 168 168 166.197 168 163.98V124.02C168 121.803 166.197 120 163.98 120Z" fill="black"/>
<path d="M143.968 131.085C140.587 131.085 137.837 133.835 137.837 137.216C137.837 140.597 140.587 143.347 143.968 143.347C147.349 143.347 150.099 140.597 150.099 137.216C150.099 133.835 147.349 131.085 143.968 131.085ZM143.968 141.91C141.379 141.91 139.274 139.804 139.274 137.216C139.274 134.628 141.379 132.522 143.968 132.522C146.556 132.522 148.662 134.628 148.662 137.216C148.662 139.804 146.556 141.91 143.968 141.91Z" fill="black"/>
<path d="M149.201 144.709H138.246C134.285 144.709 131.062 147.932 131.062 151.893V155.383C131.062 156.179 131.71 156.827 132.506 156.827H138.635C139.032 156.827 139.353 156.505 139.353 156.108C139.353 155.712 139.032 155.39 138.635 155.39L137.582 155.389V152.023C137.582 151.626 137.26 151.304 136.863 151.304C136.466 151.304 136.144 151.626 136.144 152.023V155.387L132.499 155.383V151.893C132.499 148.724 135.077 146.146 138.246 146.146H149.201C152.37 146.146 154.948 148.724 154.948 151.893L154.941 155.39H151.265V152.023C151.265 151.626 150.943 151.304 150.546 151.304C150.149 151.304 149.828 151.626 149.828 152.023V155.39H142.084C141.687 155.39 141.365 155.712 141.365 156.108C141.365 156.505 141.687 156.827 142.084 156.827H154.941C155.737 156.827 156.385 156.179 156.385 155.383V151.893C156.385 147.932 153.162 144.709 149.201 144.709Z" fill="black"/>
<path d="M163.98 180H133.509C133.112 180 132.79 180.322 132.79 180.719C132.79 181.115 133.112 181.437 133.509 181.437H163.98C165.404 181.437 166.563 182.596 166.563 184.02V223.98C166.563 225.404 165.404 226.563 163.98 226.563H124.02C122.596 226.563 121.437 225.404 121.437 223.98V184.02C121.437 182.596 122.596 181.437 124.02 181.437H129.788C130.185 181.437 130.507 181.115 130.507 180.719C130.507 180.322 130.185 180 129.788 180H124.02C121.803 180 120 181.803 120 184.02V223.98C120 226.197 121.803 228 124.02 228H163.98C166.197 228 168 226.197 168 223.98V184.02C168 181.803 166.197 180 163.98 180Z" fill="black"/>
<path d="M143.968 191.085C140.587 191.085 137.837 193.835 137.837 197.216C137.837 200.597 140.587 203.347 143.968 203.347C147.349 203.347 150.099 200.597 150.099 197.216C150.099 193.835 147.349 191.085 143.968 191.085ZM143.968 201.91C141.379 201.91 139.274 199.804 139.274 197.216C139.274 194.628 141.379 192.522 143.968 192.522C146.556 192.522 148.662 194.628 148.662 197.216C148.662 199.804 146.556 201.91 143.968 201.91Z" fill="black"/>
<path d="M149.201 204.709H138.246C134.285 204.709 131.062 207.932 131.062 211.893V215.383C131.062 216.179 131.71 216.827 132.506 216.827H138.635C139.032 216.827 139.353 216.505 139.353 216.108C139.353 215.712 139.032 215.39 138.635 215.39L137.582 215.389V212.023C137.582 211.626 137.26 211.304 136.863 211.304C136.466 211.304 136.144 211.626 136.144 212.023V215.387L132.499 215.383V211.893C132.499 208.724 135.077 206.146 138.246 206.146H149.201C152.37 206.146 154.948 208.724 154.948 211.893L154.941 215.39H151.265V212.023C151.265 211.626 150.943 211.304 150.546 211.304C150.149 211.304 149.828 211.626 149.828 212.023V215.39H142.084C141.687 215.39 141.365 215.712 141.365 216.108C141.365 216.505 141.687 216.827 142.084 216.827H154.941C155.737 216.827 156.385 216.179 156.385 215.383V211.893C156.385 207.932 153.162 204.709 149.201 204.709Z" fill="black"/>
<path d="M223.98 0H193.509C193.112 0 192.79 0.32175 192.79 0.718594C192.79 1.11544 193.112 1.43719 193.509 1.43719H223.98C225.404 1.43719 226.563 2.59566 226.563 4.01953V43.9805C226.563 45.4044 225.404 46.5628 223.98 46.5628H184.02C182.596 46.5628 181.437 45.4043 181.437 43.9805V4.01953C181.437 2.59556 182.596 1.43719 184.02 1.43719H189.788C190.185 1.43719 190.507 1.11544 190.507 0.718594C190.507 0.32175 190.185 0 189.788 0H184.02C181.803 0 180 1.80319 180 4.01953V43.9805C180 46.1968 181.803 48 184.02 48H223.98C226.197 48 228 46.1968 228 43.9805V4.01953C228 1.80319 226.197 0 223.98 0Z" fill="black"/>
<path d="M203.968 11.085C200.587 11.085 197.837 13.8354 197.837 17.2162C197.837 20.597 200.587 23.3475 203.968 23.3475C207.349 23.3475 210.099 20.597 210.099 17.2162C210.099 13.8354 207.349 11.085 203.968 11.085ZM203.968 21.9103C201.379 21.9103 199.274 19.8045 199.274 17.2162C199.274 14.628 201.379 12.5221 203.968 12.5221C206.556 12.5221 208.662 14.628 208.662 17.2162C208.662 19.8045 206.556 21.9103 203.968 21.9103Z" fill="black"/>
<path d="M209.201 24.709H198.246C194.285 24.709 191.062 27.9317 191.062 31.893V35.3834C191.062 36.1794 191.71 36.827 192.506 36.827H198.635C199.032 36.827 199.353 36.5053 199.353 36.1084C199.353 35.7116 199.032 35.3898 198.635 35.3898L197.582 35.3887V32.0231C197.582 31.6262 197.26 31.3045 196.863 31.3045C196.466 31.3045 196.144 31.6262 196.144 32.0231V35.3872L192.499 35.3834V31.893C192.499 28.7241 195.077 26.1461 198.246 26.1461H209.201C212.37 26.1461 214.948 28.7241 214.948 31.893L214.941 35.3898H211.265V32.0231C211.265 31.6262 210.943 31.3045 210.546 31.3045C210.149 31.3045 209.828 31.6262 209.828 32.0231V35.3898H202.084C201.687 35.3898 201.365 35.7116 201.365 36.1084C201.365 36.5053 201.687 36.827 202.084 36.827H214.941C215.737 36.827 216.385 36.1794 216.385 35.3834V31.893C216.385 27.9316 213.162 24.709 209.201 24.709Z" fill="black"/>
<path d="M223.98 60H193.509C193.112 60 192.79 60.3218 192.79 60.7186C192.79 61.1154 193.112 61.4372 193.509 61.4372H223.98C225.404 61.4372 226.563 62.5957 226.563 64.0195V103.98C226.563 105.404 225.404 106.563 223.98 106.563H184.02C182.596 106.563 181.437 105.404 181.437 103.98V64.0195C181.437 62.5956 182.596 61.4372 184.02 61.4372H189.788C190.185 61.4372 190.507 61.1154 190.507 60.7186C190.507 60.3218 190.185 60 189.788 60H184.02C181.803 60 180 61.8032 180 64.0195V103.98C180 106.197 181.803 108 184.02 108H223.98C226.197 108 228 106.197 228 103.98V64.0195C228 61.8032 226.197 60 223.98 60Z" fill="black"/>
<path d="M203.968 71.085C200.587 71.085 197.837 73.8354 197.837 77.2162C197.837 80.597 200.587 83.3475 203.968 83.3475C207.349 83.3475 210.099 80.597 210.099 77.2162C210.099 73.8354 207.349 71.085 203.968 71.085ZM203.968 81.9103C201.379 81.9103 199.274 79.8045 199.274 77.2162C199.274 74.628 201.379 72.5221 203.968 72.5221C206.556 72.5221 208.662 74.628 208.662 77.2162C208.662 79.8045 206.556 81.9103 203.968 81.9103Z" fill="black"/>
<path d="M209.201 84.709H198.246C194.285 84.709 191.062 87.9317 191.062 91.893V95.3834C191.062 96.1794 191.71 96.827 192.506 96.827H198.635C199.032 96.827 199.353 96.5053 199.353 96.1084C199.353 95.7116 199.032 95.3898 198.635 95.3898L197.582 95.3887V92.0231C197.582 91.6262 197.26 91.3045 196.863 91.3045C196.466 91.3045 196.144 91.6262 196.144 92.0231V95.3872L192.499 95.3834V91.893C192.499 88.7241 195.077 86.1461 198.246 86.1461H209.201C212.37 86.1461 214.948 88.7241 214.948 91.893L214.941 95.3898H211.265V92.0231C211.265 91.6262 210.943 91.3045 210.546 91.3045C210.149 91.3045 209.828 91.6262 209.828 92.0231V95.3898H202.084C201.687 95.3898 201.365 95.7116 201.365 96.1084C201.365 96.5053 201.687 96.827 202.084 96.827H214.941C215.737 96.827 216.385 96.1794 216.385 95.3834V91.893C216.385 87.9316 213.162 84.709 209.201 84.709Z" fill="black"/>
<path d="M223.98 120H193.509C193.112 120 192.79 120.322 192.79 120.719C192.79 121.115 193.112 121.437 193.509 121.437H223.98C225.404 121.437 226.563 122.596 226.563 124.02V163.98C226.563 165.404 225.404 166.563 223.98 166.563H184.02C182.596 166.563 181.437 165.404 181.437 163.98V124.02C181.437 122.596 182.596 121.437 184.02 121.437H189.788C190.185 121.437 190.507 121.115 190.507 120.719C190.507 120.322 190.185 120 189.788 120H184.02C181.803 120 180 121.803 180 124.02V163.98C180 166.197 181.803 168 184.02 168H223.98C226.197 168 228 166.197 228 163.98V124.02C228 121.803 226.197 120 223.98 120Z" fill="black"/>
<path d="M203.968 131.085C200.587 131.085 197.837 133.835 197.837 137.216C197.837 140.597 200.587 143.347 203.968 143.347C207.349 143.347 210.099 140.597 210.099 137.216C210.099 133.835 207.349 131.085 203.968 131.085ZM203.968 141.91C201.379 141.91 199.274 139.804 199.274 137.216C199.274 134.628 201.379 132.522 203.968 132.522C206.556 132.522 208.662 134.628 208.662 137.216C208.662 139.804 206.556 141.91 203.968 141.91Z" fill="black"/>
<path d="M209.201 144.709H198.246C194.285 144.709 191.062 147.932 191.062 151.893V155.383C191.062 156.179 191.71 156.827 192.506 156.827H198.635C199.032 156.827 199.353 156.505 199.353 156.108C199.353 155.712 199.032 155.39 198.635 155.39L197.582 155.389V152.023C197.582 151.626 197.26 151.304 196.863 151.304C196.466 151.304 196.144 151.626 196.144 152.023V155.387L192.499 155.383V151.893C192.499 148.724 195.077 146.146 198.246 146.146H209.201C212.37 146.146 214.948 148.724 214.948 151.893L214.941 155.39H211.265V152.023C211.265 151.626 210.943 151.304 210.546 151.304C210.149 151.304 209.828 151.626 209.828 152.023V155.39H202.084C201.687 155.39 201.365 155.712 201.365 156.108C201.365 156.505 201.687 156.827 202.084 156.827H214.941C215.737 156.827 216.385 156.179 216.385 155.383V151.893C216.385 147.932 213.162 144.709 209.201 144.709Z" fill="black"/>
<path d="M223.98 180H193.509C193.112 180 192.79 180.322 192.79 180.719C192.79 181.115 193.112 181.437 193.509 181.437H223.98C225.404 181.437 226.563 182.596 226.563 184.02V223.98C226.563 225.404 225.404 226.563 223.98 226.563H184.02C182.596 226.563 181.437 225.404 181.437 223.98V184.02C181.437 182.596 182.596 181.437 184.02 181.437H189.788C190.185 181.437 190.507 181.115 190.507 180.719C190.507 180.322 190.185 180 189.788 180H184.02C181.803 180 180 181.803 180 184.02V223.98C180 226.197 181.803 228 184.02 228H223.98C226.197 228 228 226.197 228 223.98V184.02C228 181.803 226.197 180 223.98 180Z" fill="#C4C4C4"/>
<path d="M203.968 191.085C200.587 191.085 197.837 193.835 197.837 197.216C197.837 200.597 200.587 203.347 203.968 203.347C207.349 203.347 210.099 200.597 210.099 197.216C210.099 193.835 207.349 191.085 203.968 191.085ZM203.968 201.91C201.379 201.91 199.274 199.804 199.274 197.216C199.274 194.628 201.379 192.522 203.968 192.522C206.556 192.522 208.662 194.628 208.662 197.216C208.662 199.804 206.556 201.91 203.968 201.91Z" fill="#C4C4C4"/>
<path d="M209.201 204.709H198.246C194.285 204.709 191.062 207.932 191.062 211.893V215.383C191.062 216.179 191.71 216.827 192.506 216.827H198.635C199.032 216.827 199.353 216.505 199.353 216.108C199.353 215.712 199.032 215.39 198.635 215.39L197.582 215.389V212.023C197.582 211.626 197.26 211.304 196.863 211.304C196.466 211.304 196.144 211.626 196.144 212.023V215.387L192.499 215.383V211.893C192.499 208.724 195.077 206.146 198.246 206.146H209.201C212.37 206.146 214.948 208.724 214.948 211.893L214.941 215.39H211.265V212.023C211.265 211.626 210.943 211.304 210.546 211.304C210.149 211.304 209.828 211.626 209.828 212.023V215.39H202.084C201.687 215.39 201.365 215.712 201.365 216.108C201.365 216.505 201.687 216.827 202.084 216.827H214.941C215.737 216.827 216.385 216.179 216.385 215.383V211.893C216.385 207.932 213.162 204.709 209.201 204.709Z" fill="#C4C4C4"/>
<path d="M283.98 0H253.509C253.112 0 252.79 0.32175 252.79 0.718594C252.79 1.11544 253.112 1.43719 253.509 1.43719H283.98C285.404 1.43719 286.563 2.59566 286.563 4.01953V43.9805C286.563 45.4044 285.404 46.5628 283.98 46.5628H244.02C242.596 46.5628 241.437 45.4043 241.437 43.9805V4.01953C241.437 2.59556 242.596 1.43719 244.02 1.43719H249.788C250.185 1.43719 250.507 1.11544 250.507 0.718594C250.507 0.32175 250.185 0 249.788 0H244.02C241.803 0 240 1.80319 240 4.01953V43.9805C240 46.1968 241.803 48 244.02 48H283.98C286.197 48 288 46.1968 288 43.9805V4.01953C288 1.80319 286.197 0 283.98 0Z" fill="black"/>
<path d="M263.968 11.085C260.587 11.085 257.837 13.8354 257.837 17.2162C257.837 20.597 260.587 23.3475 263.968 23.3475C267.349 23.3475 270.099 20.597 270.099 17.2162C270.099 13.8354 267.349 11.085 263.968 11.085ZM263.968 21.9103C261.379 21.9103 259.274 19.8045 259.274 17.2162C259.274 14.628 261.379 12.5221 263.968 12.5221C266.556 12.5221 268.662 14.628 268.662 17.2162C268.662 19.8045 266.556 21.9103 263.968 21.9103Z" fill="black"/>
<path d="M269.201 24.709H258.246C254.285 24.709 251.062 27.9317 251.062 31.893V35.3834C251.062 36.1794 251.71 36.827 252.506 36.827H258.635C259.032 36.827 259.353 36.5053 259.353 36.1084C259.353 35.7116 259.032 35.3898 258.635 35.3898L257.582 35.3887V32.0231C257.582 31.6262 257.26 31.3045 256.863 31.3045C256.466 31.3045 256.144 31.6262 256.144 32.0231V35.3872L252.499 35.3834V31.893C252.499 28.7241 255.077 26.1461 258.246 26.1461H269.201C272.37 26.1461 274.948 28.7241 274.948 31.893L274.941 35.3898H271.265V32.0231C271.265 31.6262 270.943 31.3045 270.546 31.3045C270.149 31.3045 269.828 31.6262 269.828 32.0231V35.3898H262.084C261.687 35.3898 261.365 35.7116 261.365 36.1084C261.365 36.5053 261.687 36.827 262.084 36.827H274.941C275.737 36.827 276.385 36.1794 276.385 35.3834V31.893C276.385 27.9316 273.162 24.709 269.201 24.709Z" fill="black"/>
<path d="M283.98 60H253.509C253.112 60 252.79 60.3218 252.79 60.7186C252.79 61.1154 253.112 61.4372 253.509 61.4372H283.98C285.404 61.4372 286.563 62.5957 286.563 64.0195V103.98C286.563 105.404 285.404 106.563 283.98 106.563H244.02C242.596 106.563 241.437 105.404 241.437 103.98V64.0195C241.437 62.5956 242.596 61.4372 244.02 61.4372H249.788C250.185 61.4372 250.507 61.1154 250.507 60.7186C250.507 60.3218 250.185 60 249.788 60H244.02C241.803 60 240 61.8032 240 64.0195V103.98C240 106.197 241.803 108 244.02 108H283.98C286.197 108 288 106.197 288 103.98V64.0195C288 61.8032 286.197 60 283.98 60Z" fill="black"/>
<path d="M263.968 71.085C260.587 71.085 257.837 73.8354 257.837 77.2162C257.837 80.597 260.587 83.3475 263.968 83.3475C267.349 83.3475 270.099 80.597 270.099 77.2162C270.099 73.8354 267.349 71.085 263.968 71.085ZM263.968 81.9103C261.379 81.9103 259.274 79.8045 259.274 77.2162C259.274 74.628 261.379 72.5221 263.968 72.5221C266.556 72.5221 268.662 74.628 268.662 77.2162C268.662 79.8045 266.556 81.9103 263.968 81.9103Z" fill="black"/>
<path d="M269.201 84.709H258.246C254.285 84.709 251.062 87.9317 251.062 91.893V95.3834C251.062 96.1794 251.71 96.827 252.506 96.827H258.635C259.032 96.827 259.353 96.5053 259.353 96.1084C259.353 95.7116 259.032 95.3898 258.635 95.3898L257.582 95.3887V92.0231C257.582 91.6262 257.26 91.3045 256.863 91.3045C256.466 91.3045 256.144 91.6262 256.144 92.0231V95.3872L252.499 95.3834V91.893C252.499 88.7241 255.077 86.1461 258.246 86.1461H269.201C272.37 86.1461 274.948 88.7241 274.948 91.893L274.941 95.3898H271.265V92.0231C271.265 91.6262 270.943 91.3045 270.546 91.3045C270.149 91.3045 269.828 91.6262 269.828 92.0231V95.3898H262.084C261.687 95.3898 261.365 95.7116 261.365 96.1084C261.365 96.5053 261.687 96.827 262.084 96.827H274.941C275.737 96.827 276.385 96.1794 276.385 95.3834V91.893C276.385 87.9316 273.162 84.709 269.201 84.709Z" fill="black"/>
<path d="M283.98 120H253.509C253.112 120 252.79 120.322 252.79 120.719C252.79 121.115 253.112 121.437 253.509 121.437H283.98C285.404 121.437 286.563 122.596 286.563 124.02V163.98C286.563 165.404 285.404 166.563 283.98 166.563H244.02C242.596 166.563 241.437 165.404 241.437 163.98V124.02C241.437 122.596 242.596 121.437 244.02 121.437H249.788C250.185 121.437 250.507 121.115 250.507 120.719C250.507 120.322 250.185 120 249.788 120H244.02C241.803 120 240 121.803 240 124.02V163.98C240 166.197 241.803 168 244.02 168H283.98C286.197 168 288 166.197 288 163.98V124.02C288 121.803 286.197 120 283.98 120Z" fill="black"/>
<path d="M263.968 131.085C260.587 131.085 257.837 133.835 257.837 137.216C257.837 140.597 260.587 143.347 263.968 143.347C267.349 143.347 270.099 140.597 270.099 137.216C270.099 133.835 267.349 131.085 263.968 131.085ZM263.968 141.91C261.379 141.91 259.274 139.804 259.274 137.216C259.274 134.628 261.379 132.522 263.968 132.522C266.556 132.522 268.662 134.628 268.662 137.216C268.662 139.804 266.556 141.91 263.968 141.91Z" fill="black"/>
<path d="M269.201 144.709H258.246C254.285 144.709 251.062 147.932 251.062 151.893V155.383C251.062 156.179 251.71 156.827 252.506 156.827H258.635C259.032 156.827 259.353 156.505 259.353 156.108C259.353 155.712 259.032 155.39 258.635 155.39L257.582 155.389V152.023C257.582 151.626 257.26 151.304 256.863 151.304C256.466 151.304 256.144 151.626 256.144 152.023V155.387L252.499 155.383V151.893C252.499 148.724 255.077 146.146 258.246 146.146H269.201C272.37 146.146 274.948 148.724 274.948 151.893L274.941 155.39H271.265V152.023C271.265 151.626 270.943 151.304 270.546 151.304C270.149 151.304 269.828 151.626 269.828 152.023V155.39H262.084C261.687 155.39 261.365 155.712 261.365 156.108C261.365 156.505 261.687 156.827 262.084 156.827H274.941C275.737 156.827 276.385 156.179 276.385 155.383V151.893C276.385 147.932 273.162 144.709 269.201 144.709Z" fill="black"/>
<path d="M283.98 180H253.509C253.112 180 252.79 180.322 252.79 180.719C252.79 181.115 253.112 181.437 253.509 181.437H283.98C285.404 181.437 286.563 182.596 286.563 184.02V223.98C286.563 225.404 285.404 226.563 283.98 226.563H244.02C242.596 226.563 241.437 225.404 241.437 223.98V184.02C241.437 182.596 242.596 181.437 244.02 181.437H249.788C250.185 181.437 250.507 181.115 250.507 180.719C250.507 180.322 250.185 180 249.788 180H244.02C241.803 180 240 181.803 240 184.02V223.98C240 226.197 241.803 228 244.02 228H283.98C286.197 228 288 226.197 288 223.98V184.02C288 181.803 286.197 180 283.98 180Z" fill="#C4C4C4"/>
<path d="M263.968 191.085C260.587 191.085 257.837 193.835 257.837 197.216C257.837 200.597 260.587 203.347 263.968 203.347C267.349 203.347 270.099 200.597 270.099 197.216C270.099 193.835 267.349 191.085 263.968 191.085ZM263.968 201.91C261.379 201.91 259.274 199.804 259.274 197.216C259.274 194.628 261.379 192.522 263.968 192.522C266.556 192.522 268.662 194.628 268.662 197.216C268.662 199.804 266.556 201.91 263.968 201.91Z" fill="#C4C4C4"/>
<path d="M269.201 204.709H258.246C254.285 204.709 251.062 207.932 251.062 211.893V215.383C251.062 216.179 251.71 216.827 252.506 216.827H258.635C259.032 216.827 259.353 216.505 259.353 216.108C259.353 215.712 259.032 215.39 258.635 215.39L257.582 215.389V212.023C257.582 211.626 257.26 211.304 256.863 211.304C256.466 211.304 256.144 211.626 256.144 212.023V215.387L252.499 215.383V211.893C252.499 208.724 255.077 206.146 258.246 206.146H269.201C272.37 206.146 274.948 208.724 274.948 211.893L274.941 215.39H271.265V212.023C271.265 211.626 270.943 211.304 270.546 211.304C270.149 211.304 269.828 211.626 269.828 212.023V215.39H262.084C261.687 215.39 261.365 215.712 261.365 216.108C261.365 216.505 261.687 216.827 262.084 216.827H274.941C275.737 216.827 276.385 216.179 276.385 215.383V211.893C276.385 207.932 273.162 204.709 269.201 204.709Z" fill="#C4C4C4"/>
</svg>
