<svg width="185" height="157" viewBox="0 0 185 157" fill="none" xmlns="http://www.w3.org/2000/svg">
<path d="M28.0703 72H26.2031V62.1797H22.8438V60.5781H31.4297V62.1797H28.0703V72ZM38.3984 72L38.0312 70.7969H37.9688C37.5521 71.3229 37.1328 71.6823 36.7109 71.875C36.2891 72.0625 35.7474 72.1562 35.0859 72.1562C34.237 72.1562 33.5729 71.9271 33.0938 71.4688C32.6198 71.0104 32.3828 70.362 32.3828 69.5234C32.3828 68.6328 32.7135 67.9609 33.375 67.5078C34.0365 67.0547 35.0443 66.8073 36.3984 66.7656L37.8906 66.7188V66.2578C37.8906 65.7057 37.7604 65.2943 37.5 65.0234C37.2448 64.7474 36.8464 64.6094 36.3047 64.6094C35.862 64.6094 35.4375 64.6745 35.0312 64.8047C34.625 64.9349 34.2344 65.0885 33.8594 65.2656L33.2656 63.9531C33.7344 63.7083 34.2474 63.5234 34.8047 63.3984C35.362 63.2682 35.888 63.2031 36.3828 63.2031C37.4818 63.2031 38.3099 63.4427 38.8672 63.9219C39.4297 64.401 39.7109 65.1536 39.7109 66.1797V72H38.3984ZM35.6641 70.75C36.3307 70.75 36.8646 70.5651 37.2656 70.1953C37.6719 69.8203 37.875 69.2969 37.875 68.625V67.875L36.7656 67.9219C35.901 67.9531 35.2708 68.099 34.875 68.3594C34.4844 68.6146 34.2891 69.0078 34.2891 69.5391C34.2891 69.9245 34.4036 70.224 34.6328 70.4375C34.862 70.6458 35.2057 70.75 35.6641 70.75ZM46.6562 63.2031C47.026 63.2031 47.3307 63.2292 47.5703 63.2812L47.3906 64.9922C47.1302 64.9297 46.8594 64.8984 46.5781 64.8984C45.8438 64.8984 45.2474 65.138 44.7891 65.6172C44.3359 66.0964 44.1094 66.7188 44.1094 67.4844V72H42.2734V63.3594H43.7109L43.9531 64.8828H44.0469C44.3333 64.3672 44.7057 63.9583 45.1641 63.6562C45.6276 63.3542 46.125 63.2031 46.6562 63.2031ZM56.4766 63.3594V64.3672L55 64.6406C55.1354 64.8229 55.2474 65.0469 55.3359 65.3125C55.4245 65.5781 55.4688 65.8594 55.4688 66.1562C55.4688 67.0469 55.1615 67.7474 54.5469 68.2578C53.9323 68.7682 53.0859 69.0234 52.0078 69.0234C51.7318 69.0234 51.4818 69.0026 51.2578 68.9609C50.862 69.2057 50.6641 69.4922 50.6641 69.8203C50.6641 70.0182 50.7552 70.1667 50.9375 70.2656C51.125 70.3646 51.4661 70.4141 51.9609 70.4141H53.4688C54.4219 70.4141 55.1458 70.6172 55.6406 71.0234C56.1354 71.4297 56.3828 72.0156 56.3828 72.7812C56.3828 73.7604 55.9792 74.5156 55.1719 75.0469C54.3646 75.5781 53.1979 75.8438 51.6719 75.8438C50.4948 75.8438 49.5964 75.6354 48.9766 75.2188C48.3568 74.8021 48.0469 74.2083 48.0469 73.4375C48.0469 72.9062 48.2135 72.4583 48.5469 72.0938C48.8854 71.7344 49.3568 71.4844 49.9609 71.3438C49.7161 71.2396 49.513 71.0729 49.3516 70.8438C49.1953 70.6094 49.1172 70.3646 49.1172 70.1094C49.1172 69.7865 49.2083 69.513 49.3906 69.2891C49.5729 69.0651 49.8438 68.8438 50.2031 68.625C49.7552 68.4323 49.3906 68.1198 49.1094 67.6875C48.8333 67.25 48.6953 66.7396 48.6953 66.1562C48.6953 65.2188 48.9896 64.4922 49.5781 63.9766C50.1719 63.4609 51.0156 63.2031 52.1094 63.2031C52.3542 63.2031 52.6094 63.2214 52.875 63.2578C53.1458 63.2891 53.349 63.3229 53.4844 63.3594H56.4766ZM49.6875 73.3438C49.6875 73.7396 49.8646 74.0443 50.2188 74.2578C50.5781 74.4714 51.0807 74.5781 51.7266 74.5781C52.7266 74.5781 53.4714 74.4349 53.9609 74.1484C54.4505 73.862 54.6953 73.4818 54.6953 73.0078C54.6953 72.6328 54.5599 72.3646 54.2891 72.2031C54.0234 72.0469 53.526 71.9688 52.7969 71.9688H51.4062C50.8802 71.9688 50.4609 72.0911 50.1484 72.3359C49.8411 72.5859 49.6875 72.9219 49.6875 73.3438ZM50.4766 66.1562C50.4766 66.6979 50.6146 67.1146 50.8906 67.4062C51.1719 67.6979 51.5729 67.8438 52.0938 67.8438C53.1562 67.8438 53.6875 67.276 53.6875 66.1406C53.6875 65.5781 53.5547 65.1458 53.2891 64.8438C53.0286 64.5365 52.6302 64.3828 52.0938 64.3828C51.5625 64.3828 51.1589 64.5339 50.8828 64.8359C50.612 65.138 50.4766 65.5781 50.4766 66.1562ZM61.8594 72.1562C60.5156 72.1562 59.4635 71.7656 58.7031 70.9844C57.9479 70.1979 57.5703 69.1172 57.5703 67.7422C57.5703 66.3307 57.9219 65.2214 58.625 64.4141C59.3281 63.6068 60.2943 63.2031 61.5234 63.2031C62.6641 63.2031 63.5651 63.5495 64.2266 64.2422C64.888 64.9349 65.2188 65.888 65.2188 67.1016V68.0938H59.4609C59.487 68.9323 59.7135 69.5781 60.1406 70.0312C60.5677 70.4792 61.1693 70.7031 61.9453 70.7031C62.4557 70.7031 62.9297 70.6562 63.3672 70.5625C63.8099 70.4635 64.2839 70.3021 64.7891 70.0781V71.5703C64.3411 71.7839 63.888 71.9349 63.4297 72.0234C62.9714 72.112 62.4479 72.1562 61.8594 72.1562ZM61.5234 64.5938C60.9401 64.5938 60.4714 64.7786 60.1172 65.1484C59.7682 65.5182 59.5599 66.0573 59.4922 66.7656H63.4141C63.4036 66.0521 63.2318 65.513 62.8984 65.1484C62.5651 64.7786 62.1068 64.5938 61.5234 64.5938ZM70.5234 70.6719C70.9714 70.6719 71.4193 70.6016 71.8672 70.4609V71.8438C71.6641 71.9323 71.401 72.0052 71.0781 72.0625C70.7604 72.125 70.4297 72.1562 70.0859 72.1562C68.3464 72.1562 67.4766 71.2396 67.4766 69.4062V64.75H66.2969V63.9375L67.5625 63.2656L68.1875 61.4375H69.3203V63.3594H71.7812V64.75H69.3203V69.375C69.3203 69.8177 69.4297 70.1458 69.6484 70.3594C69.8724 70.5677 70.1641 70.6719 70.5234 70.6719ZM75.4375 72H73.6016V63.3594H75.4375V72ZM73.4922 61.0703C73.4922 60.7422 73.5807 60.4896 73.7578 60.3125C73.9401 60.1354 74.1979 60.0469 74.5312 60.0469C74.8542 60.0469 75.1042 60.1354 75.2812 60.3125C75.4635 60.4896 75.5547 60.7422 75.5547 61.0703C75.5547 61.3828 75.4635 61.6302 75.2812 61.8125C75.1042 61.9896 74.8542 62.0781 74.5312 62.0781C74.1979 62.0781 73.9401 61.9896 73.7578 61.8125C73.5807 61.6302 73.4922 61.3828 73.4922 61.0703ZM85.6719 72H83.8281V66.6875C83.8281 66.0208 83.6927 65.5234 83.4219 65.1953C83.1562 64.8672 82.7318 64.7031 82.1484 64.7031C81.3724 64.7031 80.8047 64.9323 80.4453 65.3906C80.0859 65.849 79.9062 66.6172 79.9062 67.6953V72H78.0703V63.3594H79.5078L79.7656 64.4922H79.8594C80.1198 64.0807 80.4896 63.763 80.9688 63.5391C81.4479 63.3151 81.9792 63.2031 82.5625 63.2031C84.6354 63.2031 85.6719 64.2578 85.6719 66.3672V72ZM95.5234 63.3594V64.3672L94.0469 64.6406C94.1823 64.8229 94.2943 65.0469 94.3828 65.3125C94.4714 65.5781 94.5156 65.8594 94.5156 66.1562C94.5156 67.0469 94.2083 67.7474 93.5938 68.2578C92.9792 68.7682 92.1328 69.0234 91.0547 69.0234C90.7786 69.0234 90.5286 69.0026 90.3047 68.9609C89.9089 69.2057 89.7109 69.4922 89.7109 69.8203C89.7109 70.0182 89.8021 70.1667 89.9844 70.2656C90.1719 70.3646 90.513 70.4141 91.0078 70.4141H92.5156C93.4688 70.4141 94.1927 70.6172 94.6875 71.0234C95.1823 71.4297 95.4297 72.0156 95.4297 72.7812C95.4297 73.7604 95.026 74.5156 94.2188 75.0469C93.4115 75.5781 92.2448 75.8438 90.7188 75.8438C89.5417 75.8438 88.6432 75.6354 88.0234 75.2188C87.4036 74.8021 87.0938 74.2083 87.0938 73.4375C87.0938 72.9062 87.2604 72.4583 87.5938 72.0938C87.9323 71.7344 88.4036 71.4844 89.0078 71.3438C88.763 71.2396 88.5599 71.0729 88.3984 70.8438C88.2422 70.6094 88.1641 70.3646 88.1641 70.1094C88.1641 69.7865 88.2552 69.513 88.4375 69.2891C88.6198 69.0651 88.8906 68.8438 89.25 68.625C88.8021 68.4323 88.4375 68.1198 88.1562 67.6875C87.8802 67.25 87.7422 66.7396 87.7422 66.1562C87.7422 65.2188 88.0365 64.4922 88.625 63.9766C89.2188 63.4609 90.0625 63.2031 91.1562 63.2031C91.401 63.2031 91.6562 63.2214 91.9219 63.2578C92.1927 63.2891 92.3958 63.3229 92.5312 63.3594H95.5234ZM88.7344 73.3438C88.7344 73.7396 88.9115 74.0443 89.2656 74.2578C89.625 74.4714 90.1276 74.5781 90.7734 74.5781C91.7734 74.5781 92.5182 74.4349 93.0078 74.1484C93.4974 73.862 93.7422 73.4818 93.7422 73.0078C93.7422 72.6328 93.6068 72.3646 93.3359 72.2031C93.0703 72.0469 92.5729 71.9688 91.8438 71.9688H90.4531C89.9271 71.9688 89.5078 72.0911 89.1953 72.3359C88.888 72.5859 88.7344 72.9219 88.7344 73.3438ZM89.5234 66.1562C89.5234 66.6979 89.6615 67.1146 89.9375 67.4062C90.2188 67.6979 90.6198 67.8438 91.1406 67.8438C92.2031 67.8438 92.7344 67.276 92.7344 66.1406C92.7344 65.5781 92.6016 65.1458 92.3359 64.8438C92.0755 64.5365 91.6771 64.3828 91.1406 64.3828C90.6094 64.3828 90.2057 64.5339 89.9297 64.8359C89.6589 65.138 89.5234 65.5781 89.5234 66.1562ZM104.508 70.6719C104.956 70.6719 105.404 70.6016 105.852 70.4609V71.8438C105.648 71.9323 105.385 72.0052 105.062 72.0625C104.745 72.125 104.414 72.1562 104.07 72.1562C102.331 72.1562 101.461 71.2396 101.461 69.4062V64.75H100.281V63.9375L101.547 63.2656L102.172 61.4375H103.305V63.3594H105.766V64.75H103.305V69.375C103.305 69.8177 103.414 70.1458 103.633 70.3594C103.857 70.5677 104.148 70.6719 104.508 70.6719ZM115.188 72H113.344V66.6875C113.344 66.0208 113.208 65.5234 112.938 65.1953C112.672 64.8672 112.247 64.7031 111.664 64.7031C110.893 64.7031 110.326 64.9349 109.961 65.3984C109.602 65.8568 109.422 66.6276 109.422 67.7109V72H107.586V59.8438H109.422V62.9297C109.422 63.4245 109.391 63.9531 109.328 64.5156H109.445C109.695 64.099 110.042 63.776 110.484 63.5469C110.932 63.3177 111.453 63.2031 112.047 63.2031C114.141 63.2031 115.188 64.2578 115.188 66.3672V72ZM121.516 72.1562C120.172 72.1562 119.12 71.7656 118.359 70.9844C117.604 70.1979 117.227 69.1172 117.227 67.7422C117.227 66.3307 117.578 65.2214 118.281 64.4141C118.984 63.6068 119.951 63.2031 121.18 63.2031C122.32 63.2031 123.221 63.5495 123.883 64.2422C124.544 64.9349 124.875 65.888 124.875 67.1016V68.0938H119.117C119.143 68.9323 119.37 69.5781 119.797 70.0312C120.224 70.4792 120.826 70.7031 121.602 70.7031C122.112 70.7031 122.586 70.6562 123.023 70.5625C123.466 70.4635 123.94 70.3021 124.445 70.0781V71.5703C123.997 71.7839 123.544 71.9349 123.086 72.0234C122.628 72.112 122.104 72.1562 121.516 72.1562ZM121.18 64.5938C120.596 64.5938 120.128 64.7786 119.773 65.1484C119.424 65.5182 119.216 66.0573 119.148 66.7656H123.07C123.06 66.0521 122.888 65.513 122.555 65.1484C122.221 64.7786 121.763 64.5938 121.18 64.5938ZM134.336 70.6719C134.784 70.6719 135.232 70.6016 135.68 70.4609V71.8438C135.477 71.9323 135.214 72.0052 134.891 72.0625C134.573 72.125 134.242 72.1562 133.898 72.1562C132.159 72.1562 131.289 71.2396 131.289 69.4062V64.75H130.109V63.9375L131.375 63.2656L132 61.4375H133.133V63.3594H135.594V64.75H133.133V69.375C133.133 69.8177 133.242 70.1458 133.461 70.3594C133.685 70.5677 133.977 70.6719 134.336 70.6719ZM141.797 63.2031C142.167 63.2031 142.471 63.2292 142.711 63.2812L142.531 64.9922C142.271 64.9297 142 64.8984 141.719 64.8984C140.984 64.8984 140.388 65.138 139.93 65.6172C139.477 66.0964 139.25 66.7188 139.25 67.4844V72H137.414V63.3594H138.852L139.094 64.8828H139.188C139.474 64.3672 139.846 63.9583 140.305 63.6562C140.768 63.3542 141.266 63.2031 141.797 63.2031ZM150.414 72L150.156 70.8672H150.062C149.807 71.2682 149.443 71.5833 148.969 71.8125C148.5 72.0417 147.964 72.1562 147.359 72.1562C146.312 72.1562 145.531 71.8958 145.016 71.375C144.5 70.8542 144.242 70.0651 144.242 69.0078V63.3594H146.094V68.6875C146.094 69.349 146.229 69.8464 146.5 70.1797C146.771 70.5078 147.195 70.6719 147.773 70.6719C148.544 70.6719 149.109 70.4427 149.469 69.9844C149.833 69.5208 150.016 68.7474 150.016 67.6641V63.3594H151.859V72H150.414ZM158.25 72.1562C156.906 72.1562 155.854 71.7656 155.094 70.9844C154.339 70.1979 153.961 69.1172 153.961 67.7422C153.961 66.3307 154.312 65.2214 155.016 64.4141C155.719 63.6068 156.685 63.2031 157.914 63.2031C159.055 63.2031 159.956 63.5495 160.617 64.2422C161.279 64.9349 161.609 65.888 161.609 67.1016V68.0938H155.852C155.878 68.9323 156.104 69.5781 156.531 70.0312C156.958 70.4792 157.56 70.7031 158.336 70.7031C158.846 70.7031 159.32 70.6562 159.758 70.5625C160.201 70.4635 160.674 70.3021 161.18 70.0781V71.5703C160.732 71.7839 160.279 71.9349 159.82 72.0234C159.362 72.112 158.839 72.1562 158.25 72.1562ZM157.914 64.5938C157.331 64.5938 156.862 64.7786 156.508 65.1484C156.159 65.5182 155.951 66.0573 155.883 66.7656H159.805C159.794 66.0521 159.622 65.513 159.289 65.1484C158.956 64.7786 158.497 64.5938 157.914 64.5938ZM31.4453 92H29.6016V86.6875C29.6016 86.0208 29.4661 85.5234 29.1953 85.1953C28.9297 84.8672 28.5052 84.7031 27.9219 84.7031C27.1458 84.7031 26.5781 84.9323 26.2188 85.3906C25.8594 85.849 25.6797 86.6172 25.6797 87.6953V92H23.8438V83.3594H25.2812L25.5391 84.4922H25.6328C25.8932 84.0807 26.263 83.763 26.7422 83.5391C27.2214 83.3151 27.7526 83.2031 28.3359 83.2031C30.4089 83.2031 31.4453 84.2578 31.4453 86.3672V92ZM37.7734 92.1562C36.4297 92.1562 35.3776 91.7656 34.6172 90.9844C33.862 90.1979 33.4844 89.1172 33.4844 87.7422C33.4844 86.3307 33.8359 85.2214 34.5391 84.4141C35.2422 83.6068 36.2083 83.2031 37.4375 83.2031C38.5781 83.2031 39.4792 83.5495 40.1406 84.2422C40.8021 84.9349 41.1328 85.888 41.1328 87.1016V88.0938H35.375C35.401 88.9323 35.6276 89.5781 36.0547 90.0312C36.4818 90.4792 37.0833 90.7031 37.8594 90.7031C38.3698 90.7031 38.8438 90.6562 39.2812 90.5625C39.724 90.4635 40.1979 90.3021 40.7031 90.0781V91.5703C40.2552 91.7839 39.8021 91.9349 39.3438 92.0234C38.8854 92.112 38.362 92.1562 37.7734 92.1562ZM37.4375 84.5938C36.8542 84.5938 36.3854 84.7786 36.0312 85.1484C35.6823 85.5182 35.474 86.0573 35.4062 86.7656H39.3281C39.3177 86.0521 39.1458 85.513 38.8125 85.1484C38.4792 84.7786 38.0208 84.5938 37.4375 84.5938ZM46.9922 92.1562C45.6484 92.1562 44.5964 91.7656 43.8359 90.9844C43.0807 90.1979 42.7031 89.1172 42.7031 87.7422C42.7031 86.3307 43.0547 85.2214 43.7578 84.4141C44.4609 83.6068 45.4271 83.2031 46.6562 83.2031C47.7969 83.2031 48.6979 83.5495 49.3594 84.2422C50.0208 84.9349 50.3516 85.888 50.3516 87.1016V88.0938H44.5938C44.6198 88.9323 44.8464 89.5781 45.2734 90.0312C45.7005 90.4792 46.3021 90.7031 47.0781 90.7031C47.5885 90.7031 48.0625 90.6562 48.5 90.5625C48.9427 90.4635 49.4167 90.3021 49.9219 90.0781V91.5703C49.474 91.7839 49.0208 91.9349 48.5625 92.0234C48.1042 92.112 47.5807 92.1562 46.9922 92.1562ZM46.6562 84.5938C46.0729 84.5938 45.6042 84.7786 45.25 85.1484C44.901 85.5182 44.6927 86.0573 44.625 86.7656H48.5469C48.5365 86.0521 48.3646 85.513 48.0312 85.1484C47.6979 84.7786 47.2396 84.5938 46.6562 84.5938ZM55.3516 92.1562C54.2734 92.1562 53.4323 91.7656 52.8281 90.9844C52.224 90.2031 51.9219 89.1068 51.9219 87.6953C51.9219 86.2786 52.2266 85.1771 52.8359 84.3906C53.4505 83.599 54.2995 83.2031 55.3828 83.2031C56.5182 83.2031 57.3828 83.6224 57.9766 84.4609H58.0703C57.9818 83.8411 57.9375 83.3516 57.9375 82.9922V79.8438H59.7812V92H58.3438L58.0234 90.8672H57.9375C57.349 91.7266 56.487 92.1562 55.3516 92.1562ZM55.8438 90.6719C56.599 90.6719 57.1484 90.4609 57.4922 90.0391C57.8359 89.612 58.013 88.9219 58.0234 87.9688V87.7109C58.0234 86.6224 57.8464 85.849 57.4922 85.3906C57.138 84.9323 56.5833 84.7031 55.8281 84.7031C55.1823 84.7031 54.6849 84.9661 54.3359 85.4922C53.987 86.013 53.8125 86.7578 53.8125 87.7266C53.8125 88.6849 53.9818 89.4167 54.3203 89.9219C54.6589 90.4219 55.1667 90.6719 55.8438 90.6719ZM68.2109 89.5391C68.2109 90.3828 67.9036 91.0312 67.2891 91.4844C66.6745 91.9323 65.7943 92.1562 64.6484 92.1562C63.4974 92.1562 62.5729 91.9818 61.875 91.6328V90.0469C62.8906 90.5156 63.8359 90.75 64.7109 90.75C65.8411 90.75 66.4062 90.4089 66.4062 89.7266C66.4062 89.5078 66.3438 89.3255 66.2188 89.1797C66.0938 89.0339 65.888 88.8828 65.6016 88.7266C65.3151 88.5703 64.9167 88.3932 64.4062 88.1953C63.4115 87.8099 62.737 87.4245 62.3828 87.0391C62.0339 86.6536 61.8594 86.1536 61.8594 85.5391C61.8594 84.7995 62.1562 84.2266 62.75 83.8203C63.349 83.4089 64.1615 83.2031 65.1875 83.2031C66.2031 83.2031 67.1641 83.4089 68.0703 83.8203L67.4766 85.2031C66.5443 84.8177 65.7604 84.625 65.125 84.625C64.1562 84.625 63.6719 84.901 63.6719 85.4531C63.6719 85.724 63.7969 85.9531 64.0469 86.1406C64.3021 86.3281 64.8542 86.5859 65.7031 86.9141C66.4167 87.1901 66.9349 87.4427 67.2578 87.6719C67.5807 87.901 67.8203 88.1667 67.9766 88.4688C68.1328 88.7656 68.2109 89.1224 68.2109 89.5391ZM82.0234 87.6641C82.0234 89.0755 81.6615 90.1771 80.9375 90.9688C80.2135 91.7604 79.2057 92.1562 77.9141 92.1562C77.1068 92.1562 76.3932 91.974 75.7734 91.6094C75.1536 91.2448 74.6771 90.7214 74.3438 90.0391C74.0104 89.3568 73.8438 88.5651 73.8438 87.6641C73.8438 86.263 74.2031 85.1693 74.9219 84.3828C75.6406 83.5964 76.6536 83.2031 77.9609 83.2031C79.2109 83.2031 80.2005 83.6068 80.9297 84.4141C81.6589 85.2161 82.0234 86.2995 82.0234 87.6641ZM75.7344 87.6641C75.7344 89.6589 76.4714 90.6562 77.9453 90.6562C79.4036 90.6562 80.1328 89.6589 80.1328 87.6641C80.1328 85.6901 79.3984 84.7031 77.9297 84.7031C77.1589 84.7031 76.599 84.9583 76.25 85.4688C75.9062 85.9792 75.7344 86.7109 75.7344 87.6641ZM88.4766 84.75H86.3672V92H84.5234V84.75H83.1016V83.8906L84.5234 83.3281V82.7656C84.5234 81.7448 84.763 80.9896 85.2422 80.5C85.7214 80.0052 86.4531 79.7578 87.4375 79.7578C88.0833 79.7578 88.7188 79.8646 89.3438 80.0781L88.8594 81.4688C88.4062 81.3229 87.974 81.25 87.5625 81.25C87.1458 81.25 86.8411 81.3802 86.6484 81.6406C86.4609 81.8958 86.3672 82.2812 86.3672 82.7969V83.3594H88.4766V84.75ZM97.5938 92.1562C96.2865 92.1562 95.2917 91.776 94.6094 91.0156C93.9323 90.25 93.5938 89.1536 93.5938 87.7266C93.5938 86.2734 93.9479 85.1562 94.6562 84.375C95.3698 83.5938 96.3984 83.2031 97.7422 83.2031C98.6536 83.2031 99.474 83.3724 100.203 83.7109L99.6484 85.1875C98.8724 84.8854 98.2318 84.7344 97.7266 84.7344C96.2318 84.7344 95.4844 85.7266 95.4844 87.7109C95.4844 88.6797 95.6693 89.4089 96.0391 89.8984C96.4141 90.3828 96.9609 90.625 97.6797 90.625C98.4974 90.625 99.2708 90.4219 100 90.0156V91.6172C99.6719 91.8099 99.3203 91.9479 98.9453 92.0312C98.5755 92.1146 98.125 92.1562 97.5938 92.1562ZM106.414 83.2031C106.784 83.2031 107.089 83.2292 107.328 83.2812L107.148 84.9922C106.888 84.9297 106.617 84.8984 106.336 84.8984C105.602 84.8984 105.005 85.138 104.547 85.6172C104.094 86.0964 103.867 86.7188 103.867 87.4844V92H102.031V83.3594H103.469L103.711 84.8828H103.805C104.091 84.3672 104.464 83.9583 104.922 83.6562C105.385 83.3542 105.883 83.2031 106.414 83.2031ZM112.711 92.1562C111.367 92.1562 110.315 91.7656 109.555 90.9844C108.799 90.1979 108.422 89.1172 108.422 87.7422C108.422 86.3307 108.773 85.2214 109.477 84.4141C110.18 83.6068 111.146 83.2031 112.375 83.2031C113.516 83.2031 114.417 83.5495 115.078 84.2422C115.74 84.9349 116.07 85.888 116.07 87.1016V88.0938H110.312C110.339 88.9323 110.565 89.5781 110.992 90.0312C111.419 90.4792 112.021 90.7031 112.797 90.7031C113.307 90.7031 113.781 90.6562 114.219 90.5625C114.661 90.4635 115.135 90.3021 115.641 90.0781V91.5703C115.193 91.7839 114.74 91.9349 114.281 92.0234C113.823 92.112 113.299 92.1562 112.711 92.1562ZM112.375 84.5938C111.792 84.5938 111.323 84.7786 110.969 85.1484C110.62 85.5182 110.411 86.0573 110.344 86.7656H114.266C114.255 86.0521 114.083 85.513 113.75 85.1484C113.417 84.7786 112.958 84.5938 112.375 84.5938ZM123.562 92L123.195 90.7969H123.133C122.716 91.3229 122.297 91.6823 121.875 91.875C121.453 92.0625 120.911 92.1562 120.25 92.1562C119.401 92.1562 118.737 91.9271 118.258 91.4688C117.784 91.0104 117.547 90.362 117.547 89.5234C117.547 88.6328 117.878 87.9609 118.539 87.5078C119.201 87.0547 120.208 86.8073 121.562 86.7656L123.055 86.7188V86.2578C123.055 85.7057 122.924 85.2943 122.664 85.0234C122.409 84.7474 122.01 84.6094 121.469 84.6094C121.026 84.6094 120.602 84.6745 120.195 84.8047C119.789 84.9349 119.398 85.0885 119.023 85.2656L118.43 83.9531C118.898 83.7083 119.411 83.5234 119.969 83.3984C120.526 83.2682 121.052 83.2031 121.547 83.2031C122.646 83.2031 123.474 83.4427 124.031 83.9219C124.594 84.401 124.875 85.1536 124.875 86.1797V92H123.562ZM120.828 90.75C121.495 90.75 122.029 90.5651 122.43 90.1953C122.836 89.8203 123.039 89.2969 123.039 88.625V87.875L121.93 87.9219C121.065 87.9531 120.435 88.099 120.039 88.3594C119.648 88.6146 119.453 89.0078 119.453 89.5391C119.453 89.9245 119.568 90.224 119.797 90.4375C120.026 90.6458 120.37 90.75 120.828 90.75ZM130.656 90.6719C131.104 90.6719 131.552 90.6016 132 90.4609V91.8438C131.797 91.9323 131.534 92.0052 131.211 92.0625C130.893 92.125 130.562 92.1562 130.219 92.1562C128.479 92.1562 127.609 91.2396 127.609 89.4062V84.75H126.43V83.9375L127.695 83.2656L128.32 81.4375H129.453V83.3594H131.914V84.75H129.453V89.375C129.453 89.8177 129.562 90.1458 129.781 90.3594C130.005 90.5677 130.297 90.6719 130.656 90.6719ZM135.57 92H133.734V83.3594H135.57V92ZM133.625 81.0703C133.625 80.7422 133.714 80.4896 133.891 80.3125C134.073 80.1354 134.331 80.0469 134.664 80.0469C134.987 80.0469 135.237 80.1354 135.414 80.3125C135.596 80.4896 135.688 80.7422 135.688 81.0703C135.688 81.3828 135.596 81.6302 135.414 81.8125C135.237 81.9896 134.987 82.0781 134.664 82.0781C134.331 82.0781 134.073 81.9896 133.891 81.8125C133.714 81.6302 133.625 81.3828 133.625 81.0703ZM140.172 92L136.891 83.3594H138.828L140.586 88.3828C140.888 89.2266 141.07 89.9089 141.133 90.4297H141.195C141.242 90.0547 141.424 89.3724 141.742 88.3828L143.5 83.3594H145.453L142.156 92H140.172ZM150.539 92.1562C149.195 92.1562 148.143 91.7656 147.383 90.9844C146.628 90.1979 146.25 89.1172 146.25 87.7422C146.25 86.3307 146.602 85.2214 147.305 84.4141C148.008 83.6068 148.974 83.2031 150.203 83.2031C151.344 83.2031 152.245 83.5495 152.906 84.2422C153.568 84.9349 153.898 85.888 153.898 87.1016V88.0938H148.141C148.167 88.9323 148.393 89.5781 148.82 90.0312C149.247 90.4792 149.849 90.7031 150.625 90.7031C151.135 90.7031 151.609 90.6562 152.047 90.5625C152.49 90.4635 152.964 90.3021 153.469 90.0781V91.5703C153.021 91.7839 152.568 91.9349 152.109 92.0234C151.651 92.112 151.128 92.1562 150.539 92.1562ZM150.203 84.5938C149.62 84.5938 149.151 84.7786 148.797 85.1484C148.448 85.5182 148.24 86.0573 148.172 86.7656H152.094C152.083 86.0521 151.911 85.513 151.578 85.1484C151.245 84.7786 150.786 84.5938 150.203 84.5938ZM161.789 89.5391C161.789 90.3828 161.482 91.0312 160.867 91.4844C160.253 91.9323 159.372 92.1562 158.227 92.1562C157.076 92.1562 156.151 91.9818 155.453 91.6328V90.0469C156.469 90.5156 157.414 90.75 158.289 90.75C159.419 90.75 159.984 90.4089 159.984 89.7266C159.984 89.5078 159.922 89.3255 159.797 89.1797C159.672 89.0339 159.466 88.8828 159.18 88.7266C158.893 88.5703 158.495 88.3932 157.984 88.1953C156.99 87.8099 156.315 87.4245 155.961 87.0391C155.612 86.6536 155.438 86.1536 155.438 85.5391C155.438 84.7995 155.734 84.2266 156.328 83.8203C156.927 83.4089 157.74 83.2031 158.766 83.2031C159.781 83.2031 160.742 83.4089 161.648 83.8203L161.055 85.2031C160.122 84.8177 159.339 84.625 158.703 84.625C157.734 84.625 157.25 84.901 157.25 85.4531C157.25 85.724 157.375 85.9531 157.625 86.1406C157.88 86.3281 158.432 86.5859 159.281 86.9141C159.995 87.1901 160.513 87.4427 160.836 87.6719C161.159 87.901 161.398 88.1667 161.555 88.4688C161.711 88.7656 161.789 89.1224 161.789 89.5391Z" fill="black"/>
<path d="M8.87598 133.137C7.81413 133.137 6.98242 132.802 6.38086 132.132C5.7793 131.462 5.47852 130.528 5.47852 129.329C5.47852 128.099 5.79069 127.142 6.41504 126.458C7.03939 125.77 7.89388 125.426 8.97852 125.426C9.62109 125.426 10.2363 125.537 10.8242 125.761L10.6396 126.362C9.99707 126.148 9.4388 126.041 8.96484 126.041C8.05339 126.041 7.36296 126.324 6.89355 126.889C6.42415 127.449 6.18945 128.258 6.18945 129.315C6.18945 130.318 6.42415 131.104 6.89355 131.674C7.36296 132.239 8.01921 132.521 8.8623 132.521C9.53678 132.521 10.1634 132.401 10.7422 132.159V132.788C10.2682 133.021 9.64616 133.137 8.87598 133.137ZM18.7129 129.274C18.7129 130.487 18.4189 131.435 17.8311 132.118C17.2432 132.797 16.432 133.137 15.3975 133.137C14.7458 133.137 14.1715 132.979 13.6748 132.665C13.1781 132.351 12.7975 131.899 12.5332 131.312C12.2689 130.724 12.1367 130.045 12.1367 129.274C12.1367 128.062 12.4307 127.119 13.0186 126.444C13.6064 125.765 14.4131 125.426 15.4385 125.426C16.4593 125.426 17.2591 125.77 17.8379 126.458C18.4212 127.142 18.7129 128.08 18.7129 129.274ZM12.8477 129.274C12.8477 130.295 13.071 131.093 13.5176 131.667C13.9688 132.237 14.6045 132.521 15.4248 132.521C16.2451 132.521 16.8786 132.237 17.3252 131.667C17.7764 131.093 18.002 130.295 18.002 129.274C18.002 128.249 17.7741 127.454 17.3184 126.889C16.8672 126.324 16.2314 126.041 15.4111 126.041C14.5908 126.041 13.9574 126.324 13.5107 126.889C13.0687 127.449 12.8477 128.244 12.8477 129.274ZM25.9521 133V128.181C25.9521 127.433 25.7949 126.891 25.4805 126.554C25.166 126.212 24.6784 126.041 24.0176 126.041C23.1289 126.041 22.4772 126.267 22.0625 126.718C21.6523 127.164 21.4473 127.891 21.4473 128.898V133H20.7705V125.569H21.3447L21.4746 126.588H21.5156C21.9987 125.813 22.8577 125.426 24.0928 125.426C25.779 125.426 26.6221 126.33 26.6221 128.14V133H25.9521ZM30.6553 133L27.7842 125.569H28.4814L30.4023 130.621C30.6576 131.268 30.849 131.833 30.9766 132.316H31.0176C31.2044 131.697 31.3958 131.127 31.5918 130.607L33.5127 125.569H34.21L31.3389 133H30.6553ZM36.1309 133H35.4541V125.569H36.1309V133ZM35.3584 123.505C35.3584 123.067 35.502 122.849 35.7891 122.849C35.9303 122.849 36.0397 122.906 36.1172 123.02C36.1992 123.133 36.2402 123.295 36.2402 123.505C36.2402 123.71 36.1992 123.872 36.1172 123.99C36.0397 124.109 35.9303 124.168 35.7891 124.168C35.502 124.168 35.3584 123.947 35.3584 123.505ZM43.8076 133V128.181C43.8076 127.433 43.6504 126.891 43.3359 126.554C43.0215 126.212 42.5339 126.041 41.873 126.041C40.9844 126.041 40.3327 126.267 39.918 126.718C39.5078 127.164 39.3027 127.891 39.3027 128.898V133H38.626V125.569H39.2002L39.3301 126.588H39.3711C39.8542 125.813 40.7132 125.426 41.9482 125.426C43.6344 125.426 44.4775 126.33 44.4775 128.14V133H43.8076ZM49.8506 133.137C48.7887 133.137 47.957 132.802 47.3555 132.132C46.7539 131.462 46.4531 130.528 46.4531 129.329C46.4531 128.099 46.7653 127.142 47.3896 126.458C48.014 125.77 48.8685 125.426 49.9531 125.426C50.5957 125.426 51.2109 125.537 51.7988 125.761L51.6143 126.362C50.9717 126.148 50.4134 126.041 49.9395 126.041C49.028 126.041 48.3376 126.324 47.8682 126.889C47.3988 127.449 47.1641 128.258 47.1641 129.315C47.1641 130.318 47.3988 131.104 47.8682 131.674C48.3376 132.239 48.9938 132.521 49.8369 132.521C50.5114 132.521 51.138 132.401 51.7168 132.159V132.788C51.2428 133.021 50.6208 133.137 49.8506 133.137ZM56.543 133.137C55.4629 133.137 54.6198 132.804 54.0137 132.139C53.4121 131.473 53.1113 130.541 53.1113 129.343C53.1113 128.158 53.403 127.21 53.9863 126.499C54.5697 125.784 55.3558 125.426 56.3447 125.426C57.2197 125.426 57.9102 125.731 58.416 126.342C58.9219 126.952 59.1748 127.782 59.1748 128.83V129.377H53.8223C53.8314 130.398 54.0684 131.177 54.5332 131.715C55.0026 132.253 55.6725 132.521 56.543 132.521C56.9668 132.521 57.3382 132.492 57.6572 132.433C57.9808 132.373 58.3887 132.246 58.8809 132.05V132.665C58.4616 132.847 58.0742 132.97 57.7188 133.034C57.3633 133.103 56.9714 133.137 56.543 133.137ZM56.3447 126.027C55.6292 126.027 55.055 126.264 54.6221 126.738C54.1891 127.208 53.9362 127.887 53.8633 128.775H58.457C58.457 127.914 58.2702 127.242 57.8965 126.759C57.5228 126.271 57.0055 126.027 56.3447 126.027ZM67.8291 133.137C66.7673 133.137 65.9355 132.802 65.334 132.132C64.7324 131.462 64.4316 130.528 64.4316 129.329C64.4316 128.099 64.7438 127.142 65.3682 126.458C65.9925 125.77 66.847 125.426 67.9316 125.426C68.5742 125.426 69.1895 125.537 69.7773 125.761L69.5928 126.362C68.9502 126.148 68.3919 126.041 67.918 126.041C67.0065 126.041 66.3161 126.324 65.8467 126.889C65.3773 127.449 65.1426 128.258 65.1426 129.315C65.1426 130.318 65.3773 131.104 65.8467 131.674C66.3161 132.239 66.9723 132.521 67.8154 132.521C68.4899 132.521 69.1165 132.401 69.6953 132.159V132.788C69.2214 133.021 68.5993 133.137 67.8291 133.137ZM74.4463 125.426C74.7607 125.426 75.098 125.458 75.458 125.521L75.3281 126.171C75.0182 126.093 74.6969 126.055 74.3643 126.055C73.7308 126.055 73.2113 126.324 72.8057 126.861C72.4001 127.399 72.1973 128.078 72.1973 128.898V133H71.5205V125.569H72.0947L72.1631 126.909H72.2109C72.5163 126.362 72.8421 125.979 73.1885 125.761C73.5348 125.537 73.9541 125.426 74.4463 125.426ZM79.9766 133.137C78.8965 133.137 78.0534 132.804 77.4473 132.139C76.8457 131.473 76.5449 130.541 76.5449 129.343C76.5449 128.158 76.8366 127.21 77.4199 126.499C78.0033 125.784 78.7894 125.426 79.7783 125.426C80.6533 125.426 81.3438 125.731 81.8496 126.342C82.3555 126.952 82.6084 127.782 82.6084 128.83V129.377H77.2559C77.265 130.398 77.502 131.177 77.9668 131.715C78.4362 132.253 79.1061 132.521 79.9766 132.521C80.4004 132.521 80.7718 132.492 81.0908 132.433C81.4144 132.373 81.8223 132.246 82.3145 132.05V132.665C81.8952 132.847 81.5078 132.97 81.1523 133.034C80.7969 133.103 80.4049 133.137 79.9766 133.137ZM79.7783 126.027C79.0628 126.027 78.4886 126.264 78.0557 126.738C77.6227 127.208 77.3698 127.887 77.2969 128.775H81.8906C81.8906 127.914 81.7038 127.242 81.3301 126.759C80.9564 126.271 80.4391 126.027 79.7783 126.027ZM89.1709 133L89 131.824H88.9453C88.5716 132.303 88.1865 132.642 87.79 132.843C87.3981 133.039 86.9333 133.137 86.3955 133.137C85.6663 133.137 85.099 132.95 84.6934 132.576C84.2878 132.202 84.085 131.685 84.085 131.024C84.085 130.3 84.3857 129.737 84.9873 129.336C85.5934 128.935 86.4684 128.723 87.6123 128.7L89.0273 128.659V128.167C89.0273 127.461 88.8838 126.927 88.5967 126.567C88.3096 126.207 87.847 126.027 87.209 126.027C86.5208 126.027 85.8076 126.219 85.0693 126.602L84.8164 126.014C85.6322 125.631 86.4388 125.439 87.2363 125.439C88.0521 125.439 88.6605 125.651 89.0615 126.075C89.4671 126.499 89.6699 127.16 89.6699 128.058V133H89.1709ZM86.4365 132.521C87.2295 132.521 87.8538 132.296 88.3096 131.845C88.7699 131.389 89 130.758 89 129.951V129.22L87.7012 129.274C86.6576 129.325 85.9124 129.489 85.4658 129.767C85.0238 130.04 84.8027 130.468 84.8027 131.052C84.8027 131.517 84.944 131.879 85.2266 132.139C85.5137 132.394 85.917 132.521 86.4365 132.521ZM94.0449 132.535C94.4733 132.535 94.847 132.499 95.166 132.426V132.973C94.8379 133.082 94.4596 133.137 94.0312 133.137C93.375 133.137 92.8896 132.961 92.5752 132.61C92.2653 132.259 92.1104 131.708 92.1104 130.956V126.157H91.0098V125.761L92.1104 125.453L92.4521 123.771H92.8008V125.569H94.9814V126.157H92.8008V130.86C92.8008 131.43 92.901 131.852 93.1016 132.125C93.3021 132.398 93.6165 132.535 94.0449 132.535ZM97.4492 133H96.7725V125.569H97.4492V133ZM96.6768 123.505C96.6768 123.067 96.8203 122.849 97.1074 122.849C97.2487 122.849 97.3581 122.906 97.4355 123.02C97.5176 123.133 97.5586 123.295 97.5586 123.505C97.5586 123.71 97.5176 123.872 97.4355 123.99C97.3581 124.109 97.2487 124.168 97.1074 124.168C96.8203 124.168 96.6768 123.947 96.6768 123.505ZM101.571 133L98.7002 125.569H99.3975L101.318 130.621C101.574 131.268 101.765 131.833 101.893 132.316H101.934C102.12 131.697 102.312 131.127 102.508 130.607L104.429 125.569H105.126L102.255 133H101.571ZM109.371 133.137C108.291 133.137 107.448 132.804 106.842 132.139C106.24 131.473 105.939 130.541 105.939 129.343C105.939 128.158 106.231 127.21 106.814 126.499C107.398 125.784 108.184 125.426 109.173 125.426C110.048 125.426 110.738 125.731 111.244 126.342C111.75 126.952 112.003 127.782 112.003 128.83V129.377H106.65C106.66 130.398 106.896 131.177 107.361 131.715C107.831 132.253 108.501 132.521 109.371 132.521C109.795 132.521 110.166 132.492 110.485 132.433C110.809 132.373 111.217 132.246 111.709 132.05V132.665C111.29 132.847 110.902 132.97 110.547 133.034C110.191 133.103 109.799 133.137 109.371 133.137ZM109.173 126.027C108.457 126.027 107.883 126.264 107.45 126.738C107.017 127.208 106.764 127.887 106.691 128.775H111.285C111.285 127.914 111.098 127.242 110.725 126.759C110.351 126.271 109.834 126.027 109.173 126.027ZM118.661 131.065C118.661 131.731 118.408 132.243 117.902 132.604C117.396 132.959 116.679 133.137 115.749 133.137C114.756 133.137 113.967 132.984 113.384 132.679V131.947C114.131 132.321 114.92 132.508 115.749 132.508C116.483 132.508 117.039 132.387 117.417 132.146C117.8 131.899 117.991 131.574 117.991 131.168C117.991 130.794 117.839 130.48 117.533 130.225C117.232 129.969 116.736 129.719 116.043 129.473C115.3 129.204 114.778 128.974 114.478 128.782C114.177 128.586 113.949 128.368 113.794 128.126C113.644 127.88 113.568 127.581 113.568 127.23C113.568 126.674 113.801 126.235 114.266 125.911C114.735 125.588 115.389 125.426 116.228 125.426C117.03 125.426 117.791 125.576 118.511 125.877L118.258 126.492C117.529 126.191 116.852 126.041 116.228 126.041C115.621 126.041 115.141 126.141 114.785 126.342C114.43 126.542 114.252 126.82 114.252 127.176C114.252 127.563 114.389 127.873 114.662 128.105C114.94 128.338 115.48 128.598 116.282 128.885C116.952 129.126 117.44 129.345 117.745 129.541C118.05 129.732 118.278 129.951 118.429 130.197C118.584 130.443 118.661 130.733 118.661 131.065ZM126.174 132.535C126.602 132.535 126.976 132.499 127.295 132.426V132.973C126.967 133.082 126.589 133.137 126.16 133.137C125.504 133.137 125.019 132.961 124.704 132.61C124.394 132.259 124.239 131.708 124.239 130.956V126.157H123.139V125.761L124.239 125.453L124.581 123.771H124.93V125.569H127.11V126.157H124.93V130.86C124.93 131.43 125.03 131.852 125.23 132.125C125.431 132.398 125.745 132.535 126.174 132.535ZM135.047 129.274C135.047 130.487 134.753 131.435 134.165 132.118C133.577 132.797 132.766 133.137 131.731 133.137C131.08 133.137 130.506 132.979 130.009 132.665C129.512 132.351 129.132 131.899 128.867 131.312C128.603 130.724 128.471 130.045 128.471 129.274C128.471 128.062 128.765 127.119 129.353 126.444C129.94 125.765 130.747 125.426 131.772 125.426C132.793 125.426 133.593 125.77 134.172 126.458C134.755 127.142 135.047 128.08 135.047 129.274ZM129.182 129.274C129.182 130.295 129.405 131.093 129.852 131.667C130.303 132.237 130.938 132.521 131.759 132.521C132.579 132.521 133.213 132.237 133.659 131.667C134.11 131.093 134.336 130.295 134.336 129.274C134.336 128.249 134.108 127.454 133.652 126.889C133.201 126.324 132.565 126.041 131.745 126.041C130.925 126.041 130.291 126.324 129.845 126.889C129.403 127.449 129.182 128.244 129.182 129.274ZM142.703 132.535C143.132 132.535 143.505 132.499 143.824 132.426V132.973C143.496 133.082 143.118 133.137 142.689 133.137C142.033 133.137 141.548 132.961 141.233 132.61C140.924 132.259 140.769 131.708 140.769 130.956V126.157H139.668V125.761L140.769 125.453L141.11 123.771H141.459V125.569H143.64V126.157H141.459V130.86C141.459 131.43 141.559 131.852 141.76 132.125C141.96 132.398 142.275 132.535 142.703 132.535ZM148.356 125.426C148.671 125.426 149.008 125.458 149.368 125.521L149.238 126.171C148.928 126.093 148.607 126.055 148.274 126.055C147.641 126.055 147.121 126.324 146.716 126.861C146.31 127.399 146.107 128.078 146.107 128.898V133H145.431V125.569H146.005L146.073 126.909H146.121C146.426 126.362 146.752 125.979 147.099 125.761C147.445 125.537 147.864 125.426 148.356 125.426ZM149.642 125.569H150.339L151.911 129.739C152.39 131.02 152.693 131.883 152.82 132.33H152.861C153.053 131.742 153.365 130.865 153.798 129.698L155.37 125.569H156.067L152.738 134.203C152.469 134.905 152.244 135.379 152.062 135.625C151.879 135.871 151.665 136.056 151.419 136.179C151.177 136.302 150.883 136.363 150.537 136.363C150.277 136.363 149.988 136.315 149.669 136.22V135.632C149.933 135.705 150.218 135.741 150.523 135.741C150.756 135.741 150.961 135.687 151.139 135.577C151.316 135.468 151.476 135.297 151.617 135.064C151.763 134.837 151.929 134.472 152.116 133.971C152.308 133.474 152.431 133.15 152.485 133L149.642 125.569ZM162.91 132.535C163.339 132.535 163.712 132.499 164.031 132.426V132.973C163.703 133.082 163.325 133.137 162.896 133.137C162.24 133.137 161.755 132.961 161.44 132.61C161.131 132.259 160.976 131.708 160.976 130.956V126.157H159.875V125.761L160.976 125.453L161.317 123.771H161.666V125.569H163.847V126.157H161.666V130.86C161.666 131.43 161.766 131.852 161.967 132.125C162.167 132.398 162.482 132.535 162.91 132.535ZM170.819 133V128.181C170.819 127.433 170.662 126.891 170.348 126.554C170.033 126.212 169.546 126.041 168.885 126.041C167.996 126.041 167.344 126.267 166.93 126.718C166.52 127.164 166.314 127.891 166.314 128.898V133H165.638V122.363H166.314V125.747L166.28 126.697H166.328C166.606 126.251 166.957 125.927 167.381 125.727C167.805 125.526 168.331 125.426 168.96 125.426C170.646 125.426 171.489 126.33 171.489 128.14V133H170.819ZM176.896 133.137C175.816 133.137 174.973 132.804 174.367 132.139C173.766 131.473 173.465 130.541 173.465 129.343C173.465 128.158 173.757 127.21 174.34 126.499C174.923 125.784 175.709 125.426 176.698 125.426C177.573 125.426 178.264 125.731 178.77 126.342C179.275 126.952 179.528 127.782 179.528 128.83V129.377H174.176C174.185 130.398 174.422 131.177 174.887 131.715C175.356 132.253 176.026 132.521 176.896 132.521C177.32 132.521 177.692 132.492 178.011 132.433C178.334 132.373 178.742 132.246 179.234 132.05V132.665C178.815 132.847 178.428 132.97 178.072 133.034C177.717 133.103 177.325 133.137 176.896 133.137ZM176.698 126.027C175.983 126.027 175.409 126.264 174.976 126.738C174.543 127.208 174.29 127.887 174.217 128.775H178.811C178.811 127.914 178.624 127.242 178.25 126.759C177.876 126.271 177.359 126.027 176.698 126.027ZM76.5518 151.065C76.5518 151.731 76.2988 152.243 75.793 152.604C75.2871 152.959 74.5693 153.137 73.6396 153.137C72.6462 153.137 71.8577 152.984 71.2744 152.679V151.947C72.0218 152.321 72.8102 152.508 73.6396 152.508C74.3734 152.508 74.9294 152.387 75.3076 152.146C75.6904 151.899 75.8818 151.574 75.8818 151.168C75.8818 150.794 75.7292 150.48 75.4238 150.225C75.123 149.969 74.6263 149.719 73.9336 149.473C73.1908 149.204 72.6689 148.974 72.3682 148.782C72.0674 148.586 71.8395 148.368 71.6846 148.126C71.5342 147.88 71.459 147.581 71.459 147.23C71.459 146.674 71.6914 146.235 72.1562 145.911C72.6257 145.588 73.2796 145.426 74.1182 145.426C74.9202 145.426 75.6813 145.576 76.4014 145.877L76.1484 146.492C75.4193 146.191 74.7425 146.041 74.1182 146.041C73.512 146.041 73.0312 146.141 72.6758 146.342C72.3203 146.542 72.1426 146.82 72.1426 147.176C72.1426 147.563 72.2793 147.873 72.5527 148.105C72.8307 148.338 73.3708 148.598 74.1729 148.885C74.8428 149.126 75.3304 149.345 75.6357 149.541C75.9411 149.732 76.1689 149.951 76.3193 150.197C76.4743 150.443 76.5518 150.733 76.5518 151.065ZM81.4668 153.137C80.3867 153.137 79.5436 152.804 78.9375 152.139C78.3359 151.473 78.0352 150.541 78.0352 149.343C78.0352 148.158 78.3268 147.21 78.9102 146.499C79.4935 145.784 80.2796 145.426 81.2686 145.426C82.1436 145.426 82.834 145.731 83.3398 146.342C83.8457 146.952 84.0986 147.782 84.0986 148.83V149.377H78.7461C78.7552 150.398 78.9922 151.177 79.457 151.715C79.9264 152.253 80.5964 152.521 81.4668 152.521C81.8906 152.521 82.262 152.492 82.5811 152.433C82.9046 152.373 83.3125 152.246 83.8047 152.05V152.665C83.3854 152.847 82.998 152.97 82.6426 153.034C82.2871 153.103 81.8952 153.137 81.4668 153.137ZM81.2686 146.027C80.5531 146.027 79.9788 146.264 79.5459 146.738C79.113 147.208 78.86 147.887 78.7871 148.775H83.3809C83.3809 147.914 83.194 147.242 82.8203 146.759C82.4466 146.271 81.9294 146.027 81.2686 146.027ZM89.0752 145.426C89.3896 145.426 89.7269 145.458 90.0869 145.521L89.957 146.171C89.6471 146.093 89.3258 146.055 88.9932 146.055C88.3597 146.055 87.8402 146.324 87.4346 146.861C87.029 147.399 86.8262 148.078 86.8262 148.898V153H86.1494V145.569H86.7236L86.792 146.909H86.8398C87.1452 146.362 87.471 145.979 87.8174 145.761C88.1637 145.537 88.583 145.426 89.0752 145.426ZM93.2314 153L90.3604 145.569H91.0576L92.9785 150.621C93.2337 151.268 93.4251 151.833 93.5527 152.316H93.5938C93.7806 151.697 93.972 151.127 94.168 150.607L96.0889 145.569H96.7861L93.915 153H93.2314ZM98.707 153H98.0303V145.569H98.707V153ZM97.9346 143.505C97.9346 143.067 98.0781 142.849 98.3652 142.849C98.5065 142.849 98.6159 142.906 98.6934 143.02C98.7754 143.133 98.8164 143.295 98.8164 143.505C98.8164 143.71 98.7754 143.872 98.6934 143.99C98.6159 144.109 98.5065 144.168 98.3652 144.168C98.0781 144.168 97.9346 143.947 97.9346 143.505ZM104.169 153.137C103.107 153.137 102.275 152.802 101.674 152.132C101.072 151.462 100.771 150.528 100.771 149.329C100.771 148.099 101.084 147.142 101.708 146.458C102.332 145.77 103.187 145.426 104.271 145.426C104.914 145.426 105.529 145.537 106.117 145.761L105.933 146.362C105.29 146.148 104.732 146.041 104.258 146.041C103.346 146.041 102.656 146.324 102.187 146.889C101.717 147.449 101.482 148.258 101.482 149.315C101.482 150.318 101.717 151.104 102.187 151.674C102.656 152.239 103.312 152.521 104.155 152.521C104.83 152.521 105.456 152.401 106.035 152.159V152.788C105.561 153.021 104.939 153.137 104.169 153.137ZM110.861 153.137C109.781 153.137 108.938 152.804 108.332 152.139C107.73 151.473 107.43 150.541 107.43 149.343C107.43 148.158 107.721 147.21 108.305 146.499C108.888 145.784 109.674 145.426 110.663 145.426C111.538 145.426 112.229 145.731 112.734 146.342C113.24 146.952 113.493 147.782 113.493 148.83V149.377H108.141C108.15 150.398 108.387 151.177 108.852 151.715C109.321 152.253 109.991 152.521 110.861 152.521C111.285 152.521 111.657 152.492 111.976 152.433C112.299 152.373 112.707 152.246 113.199 152.05V152.665C112.78 152.847 112.393 152.97 112.037 153.034C111.682 153.103 111.29 153.137 110.861 153.137ZM110.663 146.027C109.948 146.027 109.373 146.264 108.94 146.738C108.507 147.208 108.255 147.887 108.182 148.775H112.775C112.775 147.914 112.589 147.242 112.215 146.759C111.841 146.271 111.324 146.027 110.663 146.027Z" fill="black"/>
<rect x="10" y="107" width="165" height="1" fill="#323232"/>
<g clip-path="url(#clip0)">
<path d="M85.8846 31.0233C85.628 31.3148 85.6562 31.7591 85.9477 32.0157C87.8968 33.7318 90.4013 34.6768 92.9999 34.6768C98.8872 34.6768 103.677 29.8871 103.677 23.9998C103.677 18.1125 98.8872 13.3228 92.9999 13.3228C87.1126 13.3228 82.3229 18.1125 82.3229 23.9998C82.3229 25.9662 82.8623 27.8885 83.8829 29.5589C84.0853 29.8903 84.5182 29.9947 84.8495 29.7923C85.1809 29.5898 85.2854 29.157 85.083 28.8256C84.1973 27.376 83.7293 25.7073 83.7293 23.9997C83.7293 18.8878 87.8881 14.729 93 14.729C98.1119 14.729 102.271 18.8877 102.271 23.9997C102.271 29.1116 98.1119 33.2704 93 33.2704C90.7438 33.2704 88.5693 32.4499 86.8771 30.9601C86.5856 30.7036 86.1413 30.7319 85.8846 31.0233Z" fill="black"/>
<path d="M92.613 19.4827C92.9999 19.45 93.2872 19.1099 93.2546 18.7229C93.2219 18.3359 92.8815 18.0506 92.4948 18.0814C91.0161 18.2062 89.6453 18.877 88.635 19.9703C87.6185 21.0701 87.0587 22.5013 87.0587 23.9999C87.0587 27.276 89.724 29.9413 93.0001 29.9413C95.7232 29.9413 98.0915 28.0996 98.7595 25.4626C98.8548 25.0861 98.6269 24.7036 98.2505 24.6083C97.874 24.5129 97.4915 24.7409 97.3962 25.1173C96.8865 27.1296 95.0788 28.535 93.0001 28.535C90.4995 28.535 88.4651 26.5006 88.4651 23.9999C88.465 21.6632 90.287 19.679 92.613 19.4827Z" fill="black"/>
<path d="M99.688 20.6112C99.688 19.1258 98.4796 17.9175 96.9942 17.9175C95.5089 17.9175 94.3005 19.1259 94.3005 20.6112C94.3005 22.0965 95.509 23.3049 96.9942 23.3049C98.4795 23.3049 99.688 22.0966 99.688 20.6112ZM95.7068 20.6112C95.7068 19.9014 96.2843 19.3238 96.9942 19.3238C97.704 19.3238 98.2816 19.9014 98.2816 20.6112C98.2816 21.321 97.7041 21.8985 96.9942 21.8985C96.2842 21.8985 95.7068 21.321 95.7068 20.6112Z" fill="black"/>
<path d="M114.878 22.1313H114.062C112.751 20.1537 110.238 16.6778 106.911 13.5314C106.629 13.2644 106.184 13.277 105.917 13.5591C105.65 13.8413 105.663 14.2864 105.945 14.5532C108.774 17.2281 110.999 20.154 112.364 22.1313H110.767C109.596 22.1313 108.644 23.0832 108.644 24.2534C108.644 25.4236 109.596 26.3756 110.767 26.3756H112.008C110.644 28.2991 108.451 31.1157 105.73 33.6483C102.123 37.006 98.5584 39.0009 95.1221 39.5892V38.7312C95.1221 37.5611 94.1701 36.6091 93 36.6091C91.83 36.6091 90.878 37.561 90.878 38.7312V39.5892C87.4417 39.0009 83.8772 37.0061 80.2698 33.6483C77.5487 31.1156 75.3561 28.299 73.9917 26.3756H75.2335C76.4036 26.3756 77.3556 25.4236 77.3556 24.2534C77.3556 23.0832 76.4036 22.1313 75.2335 22.1313H73.6368C76.362 18.1941 83.028 9.75928 90.8779 8.41078V9.14133C90.8779 10.3114 91.8299 11.2635 93 11.2635C94.17 11.2635 95.122 10.3115 95.122 9.14133V8.4105C97.8975 8.88716 100.774 10.2908 103.685 12.5917C103.814 12.6938 103.967 12.7432 104.12 12.7432C104.328 12.7432 104.533 12.6517 104.672 12.4761C104.913 12.1714 104.861 11.7293 104.557 11.4884C101.378 8.97529 98.207 7.46253 95.122 6.98513V5.03003C95.122 3.85996 94.17 2.90796 93 2.90796C91.8299 2.90796 90.8779 3.85986 90.8779 5.03003V6.98607C86.941 7.59351 82.9006 9.86597 78.8575 13.7511C75.6408 16.8423 73.2096 20.2128 71.9377 22.1312H71.1221C69.952 22.1313 69 23.0832 69 24.2534C69 25.4236 69.952 26.3756 71.1221 26.3756H72.2786C75.1658 30.6168 82.2578 39.6798 90.8779 41.0131V42.8426C90.8779 44.0127 91.8299 44.9647 93 44.9647C94.17 44.9647 95.122 44.0128 95.122 42.8426V41.0131C103.742 39.6798 110.834 30.6168 113.721 26.3756H114.878C116.048 26.3756 117 25.4236 117 24.2534C117 23.0832 116.048 22.1313 114.878 22.1313ZM93 4.31439C93.3946 4.31439 93.7157 4.63551 93.7157 5.03013V9.14142C93.7157 9.53614 93.3946 9.85725 93 9.85725C92.6053 9.85725 92.2842 9.53614 92.2842 9.14142V5.03003C92.2842 4.63541 92.6053 4.31439 93 4.31439ZM70.4063 24.2534C70.4063 23.8588 70.7275 23.5377 71.1221 23.5377H75.2334C75.6281 23.5377 75.9492 23.8588 75.9492 24.2534C75.9492 24.6481 75.6281 24.9692 75.2334 24.9692H71.1221C70.7275 24.9691 70.4063 24.648 70.4063 24.2534ZM93 43.5582C92.6053 43.5582 92.2842 43.2371 92.2842 42.8425V38.7311C92.2842 38.3365 92.6053 38.0154 93 38.0154C93.3946 38.0154 93.7157 38.3365 93.7157 38.7311V42.8425C93.7158 43.2371 93.3947 43.5582 93 43.5582ZM114.878 24.9691H110.767C110.372 24.9691 110.051 24.648 110.051 24.2533C110.051 23.8587 110.372 23.5376 110.767 23.5376H114.878C115.273 23.5376 115.594 23.8587 115.594 24.2533C115.594 24.648 115.273 24.9691 114.878 24.9691Z" fill="black"/>
<path d="M104.816 6.98294H110.488V12.1842C110.488 13.3474 111.435 14.2938 112.598 14.2938C113.761 14.2938 114.707 13.3474 114.707 12.1842V5.84596C114.707 4.14654 113.325 2.76392 111.625 2.76392H104.815C103.652 2.76392 102.706 3.71029 102.706 4.87343C102.706 6.03656 103.652 6.98294 104.816 6.98294ZM104.816 4.17026H111.625C112.549 4.17026 113.301 4.92199 113.301 5.84596V12.1842C113.301 12.572 112.986 12.8874 112.598 12.8874C112.21 12.8874 111.895 12.572 111.895 12.1842V6.27977C111.895 5.89134 111.58 5.5766 111.192 5.5766H104.816C104.428 5.5766 104.112 5.2612 104.112 4.87343C104.112 4.48565 104.428 4.17026 104.816 4.17026Z" fill="black"/>
<path d="M73.4021 14.2938C74.5653 14.2938 75.5116 13.3474 75.5116 12.1842V6.98294H81.1843C82.3476 6.98294 83.2938 6.03656 83.2938 4.87343C83.2938 3.71029 82.3476 2.76392 81.1843 2.76392H74.3747C72.6753 2.76392 71.2926 4.14654 71.2926 5.84596V12.1842C71.2926 13.3474 72.2389 14.2938 73.4021 14.2938ZM72.6989 5.84596C72.6989 4.92199 73.4507 4.17026 74.3747 4.17026H81.1844C81.5722 4.17026 81.8876 4.48565 81.8876 4.87343C81.8876 5.2612 81.5722 5.5766 81.1844 5.5766H74.8085C74.4201 5.5766 74.1053 5.89134 74.1053 6.27977V12.1842C74.1053 12.572 73.7899 12.8874 73.4021 12.8874C73.0143 12.8874 72.6989 12.572 72.6989 12.1842V5.84596Z" fill="black"/>
<path d="M112.598 33.7061C111.435 33.7061 110.488 34.6524 110.488 35.8156V41.0169H108.813C108.424 41.0169 108.109 41.3316 108.109 41.72C108.109 42.1085 108.424 42.4232 108.813 42.4232H111.192C111.58 42.4232 111.895 42.1085 111.895 41.72V35.8156C111.895 35.4278 112.21 35.1124 112.598 35.1124C112.986 35.1124 113.301 35.4278 113.301 35.8156V42.1539C113.301 43.0778 112.549 43.8296 111.625 43.8296H104.816C104.428 43.8296 104.112 43.5142 104.112 43.1264C104.112 42.7386 104.428 42.4232 104.816 42.4232H105.816C106.204 42.4232 106.519 42.1085 106.519 41.72C106.519 41.3316 106.204 41.0169 105.816 41.0169H104.816C103.652 41.0169 102.706 41.9632 102.706 43.1264C102.706 44.2895 103.652 45.2359 104.816 45.2359H111.625C113.325 45.2359 114.707 43.8533 114.707 42.1539V35.8156C114.707 34.6524 113.761 33.7061 112.598 33.7061Z" fill="black"/>
<path d="M81.1843 41.0169H75.5116V35.8156C75.5116 34.6524 74.5653 33.7061 73.4021 33.7061C72.2389 33.7061 71.2926 34.6524 71.2926 35.8156V42.1539C71.2926 43.8533 72.6752 45.2359 74.3747 45.2359H81.1844C82.3477 45.2359 83.2939 44.2895 83.2939 43.1264C83.2939 41.9632 82.3476 41.0169 81.1843 41.0169ZM81.1843 43.8296H74.3747C73.4508 43.8296 72.6989 43.0778 72.6989 42.1539V35.8156C72.6989 35.4278 73.0143 35.1124 73.4021 35.1124C73.7899 35.1124 74.1053 35.4278 74.1053 35.8156V41.72C74.1053 42.1085 74.4201 42.4232 74.8085 42.4232H81.1843C81.5721 42.4232 81.8875 42.7386 81.8875 43.1264C81.8875 43.5142 81.5721 43.8296 81.1843 43.8296Z" fill="black"/>
</g>
<defs>
<clipPath id="clip0">
<rect width="48" height="48" fill="white" transform="translate(69)"/>
</clipPath>
</defs>
</svg>
