<svg width="196" height="17" viewBox="0 0 196 17" fill="none" xmlns="http://www.w3.org/2000/svg">
<path d="M8.36472 15.7228C12.4321 15.7228 15.7294 12.427 15.7294 8.3614C15.7294 4.29581 12.4321 1 8.36472 1C4.2973 1 1 4.29581 1 8.3614C1 12.427 4.2973 15.7228 8.36472 15.7228Z" fill="black" stroke="black" stroke-width="0.3676" stroke-miterlimit="10"/>
<path d="M28.2825 15.7228C32.3499 15.7228 35.6472 12.427 35.6472 8.3614C35.6472 4.29581 32.3499 1 28.2825 1C24.2151 1 20.9178 4.29581 20.9178 8.3614C20.9178 12.427 24.2151 15.7228 28.2825 15.7228Z" fill="black" stroke="black" stroke-width="0.3676" stroke-miterlimit="10"/>
<path d="M48.2197 15.7228C52.2871 15.7228 55.5844 12.427 55.5844 8.3614C55.5844 4.29581 52.2871 1 48.2197 1C44.1523 1 40.855 4.29581 40.855 8.3614C40.855 12.427 44.1523 15.7228 48.2197 15.7228Z" fill="black" stroke="black" stroke-width="0.3676" stroke-miterlimit="10"/>
<path d="M68.1376 15.7228C72.205 15.7228 75.5023 12.427 75.5023 8.3614C75.5023 4.29581 72.205 1 68.1376 1C64.0701 1 60.7728 4.29581 60.7728 8.3614C60.7728 12.427 64.0701 15.7228 68.1376 15.7228Z" fill="black" stroke="black" stroke-width="0.3676" stroke-miterlimit="10"/>
<path d="M88.0553 15.7228C92.1227 15.7228 95.42 12.427 95.42 8.3614C95.42 4.29581 92.1227 1 88.0553 1C83.9879 1 80.6906 4.29581 80.6906 8.3614C80.6906 12.427 83.9879 15.7228 88.0553 15.7228Z" fill="black" stroke="black" stroke-width="0.3676" stroke-miterlimit="10"/>
<path d="M107.973 15.7228C112.041 15.7228 115.338 12.427 115.338 8.3614C115.338 4.29581 112.041 1 107.973 1C103.906 1 100.608 4.29581 100.608 8.3614C100.608 12.427 103.906 15.7228 107.973 15.7228Z" fill="black" stroke="black" stroke-width="0.3676" stroke-miterlimit="10"/>
<path d="M127.91 15.7228C131.978 15.7228 135.275 12.427 135.275 8.3614C135.275 4.29581 131.978 1 127.91 1C123.843 1 120.546 4.29581 120.546 8.3614C120.546 12.427 123.843 15.7228 127.91 15.7228Z" fill="black" stroke="black" stroke-width="0.3676" stroke-miterlimit="10"/>
<path d="M147.828 15.7228C151.896 15.7228 155.193 12.427 155.193 8.3614C155.193 4.29581 151.896 1 147.828 1C143.761 1 140.463 4.29581 140.463 8.3614C140.463 12.427 143.761 15.7228 147.828 15.7228Z" fill="black" stroke="black" stroke-width="0.3676" stroke-miterlimit="10"/>
<path d="M167.746 15.7228C171.813 15.7228 175.111 12.427 175.111 8.3614C175.111 4.29581 171.813 1 167.746 1C163.678 1 160.381 4.29581 160.381 8.3614C160.381 12.427 163.678 15.7228 167.746 15.7228Z" fill="black" stroke="black" stroke-width="0.3676" stroke-miterlimit="10"/>
<path d="M187.664 15.7228C191.731 15.7228 195.028 12.427 195.028 8.3614C195.028 4.29581 191.731 1 187.664 1C183.596 1 180.299 4.29581 180.299 8.3614C180.299 12.427 183.596 15.7228 187.664 15.7228Z" stroke="black" stroke-miterlimit="10"/>
</svg>
